<svg width="24" height="24" viewBox="0 0 24 24" fill="none" xmlns="http://www.w3.org/2000/svg">
<path d="M12 1C9.82441 1 7.69767 1.64514 5.88873 2.85383C4.07979 4.06253 2.66989 5.78049 1.83733 7.79048C1.00477 9.80047 0.78693 12.0122 1.21137 14.146C1.6358 16.2798 2.68345 18.2398 4.22183 19.7782C5.76021 21.3165 7.72022 22.3642 9.85401 22.7886C11.9878 23.2131 14.1995 22.9952 16.2095 22.1627C18.2195 21.3301 19.9375 19.9202 21.1462 18.1113C22.3549 16.3023 23 14.1756 23 12C23 10.5555 22.7155 9.12506 22.1627 7.79048C21.6099 6.4559 20.7996 5.24327 19.7782 4.22182C18.7567 3.20038 17.5441 2.39013 16.2095 1.83732C14.8749 1.28452 13.4445 1 12 1ZM12 8.326C11.7812 8.326 11.5714 8.23908 11.4166 8.08436C11.2619 7.92964 11.175 7.7198 11.175 7.501C11.175 7.28219 11.2619 7.07235 11.4166 6.91764C11.5714 6.76292 11.7812 6.676 12 6.676C13.412 6.676 14.7662 7.23692 15.7646 8.23536C16.7631 9.2338 17.324 10.588 17.324 12C17.324 13.412 16.7631 14.7662 15.7646 15.7646C14.7662 16.7631 13.412 17.324 12 17.324C11.7812 17.324 11.5714 17.2371 11.4166 17.0824C11.2619 16.9276 11.175 16.7178 11.175 16.499C11.175 16.2802 11.2619 16.0703 11.4166 15.9156C11.5714 15.7609 11.7812 15.674 12 15.674C12.9744 15.674 13.9089 15.2869 14.5979 14.5979C15.2869 13.9089 15.674 12.9744 15.674 12C15.674 11.0256 15.2869 10.0911 14.5979 9.40209C13.9089 8.71308 12.9744 8.326 12 8.326ZM12 20.503C9.74576 20.5001 7.58468 19.6033 5.99069 18.0093C4.3967 16.4153 3.49991 14.2542 3.497 12C3.497 11.7812 3.58392 11.5714 3.73864 11.4166C3.89336 11.2619 4.1032 11.175 4.322 11.175C4.54081 11.175 4.75065 11.2619 4.90537 11.4166C5.06008 11.5714 5.147 11.7812 5.147 12C5.147 13.3554 5.54892 14.6803 6.30194 15.8073C7.05496 16.9343 8.12525 17.8127 9.37747 18.3313C10.6297 18.85 12.0076 18.9857 13.337 18.7213C14.6663 18.4569 15.8874 17.8042 16.8458 16.8458C17.8042 15.8874 18.4569 14.6663 18.7213 13.337C18.9857 12.0076 18.85 10.6297 18.3313 9.37747C17.8127 8.12525 16.9343 7.05495 15.8073 6.30194C14.6804 5.54892 13.3554 5.147 12 5.147C11.7812 5.147 11.5714 5.06008 11.4166 4.90536C11.2619 4.75064 11.175 4.5408 11.175 4.322C11.175 4.1032 11.2619 3.89335 11.4166 3.73864C11.5714 3.58392 11.7812 3.497 12 3.497C14.2551 3.497 16.4179 4.39285 18.0125 5.98747C19.6071 7.58209 20.503 9.74486 20.503 12C20.503 14.2551 19.6071 16.4179 18.0125 18.0125C16.4179 19.6071 14.2551 20.503 12 20.503Z" fill="black"/>
</svg>
