<svg width="24" height="24" viewBox="0 0 24 24" fill="none" xmlns="http://www.w3.org/2000/svg">
<path d="M9.09805 18.277C8.2687 18.1475 7.50018 17.7633 6.89893 17.1778C6.34356 16.616 5.96182 15.9062 5.79937 15.1332C5.63261 14.3577 5.70153 13.55 5.99729 12.8138C6.0945 12.5769 6.21223 12.3488 6.34915 12.1323C6.50044 11.8842 6.68136 11.6553 6.88794 11.4508C7.46111 10.8871 8.18777 10.5047 8.9771 10.3516C9.23384 10.2982 9.49556 10.2724 9.75778 10.2746H9.80177C10.5891 10.2814 11.3559 10.5267 12.0009 10.9781C12.6547 11.4314 13.1566 12.0711 13.4413 12.8138C13.6529 12.8708 13.8709 12.9003 14.09 12.9018C14.4669 12.8957 14.8394 12.8212 15.1896 12.6819C15.5507 12.5298 15.8792 12.3096 16.1572 12.0334C16.4334 11.7596 16.6537 11.4348 16.806 11.0771C16.9488 10.7276 17.027 10.3552 17.0369 9.97784V9.63708C16.6937 9.1025 16.2957 8.60516 15.8493 8.15313C15.6954 7.99923 14.9697 7.38367 14.9367 7.36168C13.4649 6.22039 11.6641 5.5843 9.80177 5.54796H9.60384C9.23612 5.55175 8.86895 5.57745 8.50429 5.6249L8.06446 5.71284L7.30577 5.88872L6.83296 6.0536L6.14024 6.32841L5.71141 6.49329C5.62864 6.52918 5.54788 6.56954 5.4695 6.61421C5.31557 6.69115 5.17262 6.80108 5.02968 6.88902L4.78778 7.03191C3.76961 7.72142 2.91101 8.62099 2.26979 9.67006C1.48419 10.9696 1.04856 12.4503 1.0053 13.968C0.952888 15.4648 1.29009 16.9496 1.9839 18.277C2.66956 19.6143 3.69061 20.7508 4.94722 21.5754C6.20383 22.4001 7.65299 22.8846 9.15303 22.9817C10.6464 23.0784 12.1394 22.7882 13.4877 22.1392C14.8361 21.4903 15.9942 20.5046 16.8499 19.2773C15.9568 19.5623 15.0274 19.7177 14.09 19.739C12.3242 19.7135 10.5985 19.2081 9.09805 18.277Z" fill="black"/>
<path d="M22.139 5.93284C21.6064 4.82709 20.8463 3.84623 19.9084 3.05443C18.9704 2.26264 17.8758 1.67776 16.6962 1.33807C15.529 1.0008 14.3036 0.914629 13.1006 1.08525C11.8811 1.24827 10.7101 1.66875 9.66558 2.3188C8.62102 2.96885 7.72673 3.83358 7.04206 4.8556C7.93855 4.59327 8.86785 4.46002 9.80195 4.45988C11.5939 4.45374 13.3524 4.9446 14.8819 5.87788C15.7131 6.00164 16.4833 6.38663 17.081 6.97711C17.6381 7.53322 18.0203 8.2401 18.1806 9.01067C18.3474 9.78624 18.2784 10.5939 17.9827 11.33C17.9245 11.4853 17.8546 11.636 17.7738 11.7807C17.8557 11.6424 17.9291 11.4993 17.9937 11.352C17.7861 11.8803 17.4759 12.3622 17.081 12.77C16.6067 13.2407 16.0228 13.5862 15.3819 13.7755C14.741 13.9648 14.0631 13.9921 13.409 13.8548C12.755 13.7175 12.1453 13.4199 11.6347 12.9888C11.1241 12.5577 10.7286 12.0066 10.4837 11.385L9.80195 11.3081C9.39717 11.3055 8.99635 11.3878 8.62543 11.5499C8.25435 11.7056 7.91796 11.9335 7.63582 12.2204C7.36071 12.5138 7.14424 12.8571 6.99808 13.2317C6.85422 13.6102 6.79057 14.0145 6.81115 14.4189V14.6937C7.13992 15.2232 7.52318 15.7169 7.95469 16.1666C9.04161 17.2506 10.3958 18.028 11.8801 18.4201C12.6061 18.5492 13.3419 18.6154 14.0792 18.6179C15.2119 18.6107 16.3324 18.383 17.3779 17.9474C18.4392 17.5068 19.4005 16.8562 20.2038 16.0347C21.1186 15.2177 21.8463 14.2128 22.3369 13.0888C22.8061 11.9561 23.0309 10.7372 22.9968 9.5117C22.9627 8.28621 22.6704 7.08169 22.139 5.97681V5.93284Z" fill="black"/>
</svg>
