<svg width="24" height="24" viewBox="0 0 24 24" fill="none" xmlns="http://www.w3.org/2000/svg">
<path d="M23.3688 20.6439C23.4541 20.7892 23.4993 20.9545 23.5 21.1229C23.5007 21.2914 23.4567 21.457 23.3727 21.603C23.2886 21.7489 23.1674 21.87 23.0213 21.954C22.8753 22.0379 22.7096 22.0817 22.5412 22.0808H12L18.0925 11.5167L23.3688 20.6439ZM5.90751 11.5167L0.631178 20.6439C0.545938 20.7892 0.500681 20.9545 0.500008 21.1229C0.499334 21.2914 0.543268 21.457 0.627343 21.603C0.711419 21.7489 0.832639 21.87 0.978684 21.954C1.12473 22.0379 1.29039 22.0817 1.45884 22.0808H12L5.90751 11.5167ZM12.8047 2.38945L18.0695 11.5167H5.90751L11.1723 2.38945C11.2559 2.24376 11.3764 2.12271 11.5218 2.03852C11.6671 1.95434 11.8321 1.91 12 1.91C12.1679 1.91 12.3329 1.95434 12.4782 2.03852C12.6236 2.12271 12.7441 2.24376 12.8277 2.38945H12.8047Z" fill="black"/>
</svg>
