<svg width="24" height="24" viewBox="0 0 24 24" fill="none" xmlns="http://www.w3.org/2000/svg">
<path d="M18.3 5.7V12C18.3 13.6709 17.6363 15.2733 16.4548 16.4548C15.2733 17.6363 13.6709 18.3 12 18.3C10.3291 18.3 8.72671 17.6363 7.54523 16.4548C6.36375 15.2733 5.7 13.6709 5.7 12V5.7H18.3ZM21.45 1.5H2.55C2.27152 1.5 2.00445 1.61062 1.80754 1.80754C1.61062 2.00445 1.5 2.27152 1.5 2.55V12C1.5 14.7848 2.60625 17.4555 4.57538 19.4246C5.55039 20.3996 6.7079 21.1731 7.98182 21.7007C9.25574 22.2284 10.6211 22.5 12 22.5C14.7848 22.5 17.4555 21.3938 19.4246 19.4246C21.3938 17.4555 22.5 14.7848 22.5 12V2.55C22.5 2.27152 22.3894 2.00445 22.1925 1.80754C21.9955 1.61062 21.7285 1.5 21.45 1.5Z" fill="black"/>
</svg>
