<svg width="24" height="24" viewBox="0 0 24 24" fill="none" xmlns="http://www.w3.org/2000/svg">
<path d="M11.9437 5.7959L17.3225 8.89781V15.1016L11.9437 18.2035L6.56485 15.1016V8.89781L11.9437 5.7959ZM11.9437 1.00004C11.6197 0.997824 11.301 1.08131 11.0197 1.24204L3.14394 5.8289C2.86306 5.98978 2.62968 6.22202 2.46743 6.5021C2.30517 6.78218 2.2198 7.10017 2.21997 7.42386V16.5756C2.2198 16.8993 2.30517 17.2173 2.46743 17.4974C2.62968 17.7774 2.86306 18.0097 3.14394 18.1705L11.0747 22.7574C11.3567 22.9164 11.675 23 11.9987 23C12.3224 23 12.6407 22.9164 12.9227 22.7574L20.8534 18.1705C21.1343 18.0097 21.3677 17.7774 21.53 17.4974C21.6922 17.2173 21.7776 16.8993 21.7774 16.5756V7.42386C21.7776 7.10017 21.6922 6.78218 21.53 6.5021C21.3677 6.22202 21.1343 5.98978 20.8534 5.8289L12.8677 1.24204C12.5864 1.08131 12.2676 0.997824 11.9437 1.00004Z" fill="black"/>
</svg>
