<svg width="24" height="24" viewBox="0 0 24 24" fill="none" xmlns="http://www.w3.org/2000/svg">
<path d="M10.1666 22.1719L2.56608 14.5715C2.26117 14.2684 2.05382 13.8812 1.97066 13.4594C1.8875 13.0377 1.93232 12.6007 2.09938 12.2046L2.55497 11.0934C2.72451 10.699 3.00468 10.3621 3.3616 10.1235C3.71853 9.88492 4.13692 9.75481 4.56621 9.74892H15.5225L10.6888 4.95971C10.3258 4.59526 10.122 4.10181 10.122 3.5874C10.122 3.07299 10.3258 2.57954 10.6888 2.21509L11.0889 1.82618C11.2678 1.64374 11.4814 1.49882 11.717 1.39989C11.9526 1.30096 12.2056 1.25 12.4612 1.25C12.7167 1.25 12.9697 1.30096 13.2054 1.39989C13.441 1.49882 13.6545 1.64374 13.8335 1.82618L21.434 9.40445C21.7389 9.70746 21.9462 10.0947 22.0294 10.5165C22.1126 10.9382 22.0677 11.3752 21.9007 11.7713L21.4451 12.8825C21.2739 13.2748 20.993 13.6094 20.6362 13.8459C20.2794 14.0825 19.8619 14.2109 19.4338 14.2159H8.47758L13.3112 19.0495C13.6749 19.4159 13.879 19.9112 13.879 20.4274C13.879 20.9436 13.6749 21.4389 13.3112 21.8053L12.9112 22.1942C12.5438 22.5543 12.0487 22.7541 11.5343 22.7499C11.0199 22.7458 10.5281 22.5379 10.1666 22.1719Z" fill="black"/>
</svg>
