<svg width="24" height="24" viewBox="0 0 24 24" fill="none" xmlns="http://www.w3.org/2000/svg">
<path d="M20.4466 7.12177C20.4424 6.13495 20.1795 5.16647 19.6843 4.31287C19.1891 3.45928 18.4789 2.75038 17.6243 2.25684C16.7698 1.7633 15.8008 1.50236 14.8139 1.50002C13.8271 1.49767 12.8569 1.75402 12 2.2435C11.1431 1.75402 10.1729 1.49767 9.18606 1.50002C8.19923 1.50236 7.23024 1.7633 6.37569 2.25684C5.52113 2.75038 4.81085 3.45928 4.31565 4.31287C3.82045 5.16647 3.55762 6.13495 3.55336 7.12177C2.70038 7.61884 1.99265 8.33088 1.50075 9.18685C1.00886 10.0428 0.75 11.0128 0.75 12C0.75 12.9873 1.00886 13.9573 1.50075 14.8132C1.99265 15.6692 2.70038 16.3813 3.55336 16.8783C3.55762 17.8651 3.82045 18.8336 4.31565 19.6872C4.81085 20.5408 5.52113 21.2497 6.37569 21.7433C7.23024 22.2368 8.19923 22.4977 9.18606 22.5001C10.1729 22.5024 11.1431 22.2461 12 21.7566C12.8569 22.2461 13.8271 22.5024 14.8139 22.5001C15.8008 22.4977 16.7698 22.2368 17.6243 21.7433C18.4789 21.2497 19.1891 20.5408 19.6843 19.6872C20.1795 18.8336 20.4424 17.8651 20.4466 16.8783C21.2996 16.3813 22.0074 15.6692 22.4992 14.8132C22.9911 13.9573 23.25 12.9873 23.25 12C23.25 11.0128 22.9911 10.0428 22.4992 9.18685C22.0074 8.33088 21.2996 7.61884 20.4466 7.12177ZM9.51569 8.95113C10.2142 8.37133 11.0923 8.05202 12 8.04774C12.4795 8.05036 12.9544 8.14227 13.4002 8.31876C14.0463 8.56294 14.6163 8.97354 15.0526 9.50896C15.4889 10.0444 15.7759 10.6856 15.8845 11.3677C15.9244 11.5763 15.9471 11.7878 15.9523 12C15.951 12.5857 15.8184 13.1635 15.5644 13.6911C15.3104 14.2188 14.9413 14.6828 14.4843 15.049C13.7858 15.6288 12.9077 15.9481 12 15.9524C11.5205 15.9497 11.0456 15.8578 10.5998 15.6813C9.93729 15.4491 9.34937 15.0432 8.89746 14.506C8.44555 13.9688 8.14625 13.3201 8.03085 12.6277C7.91544 11.9353 7.98817 11.2245 8.24143 10.5698C8.49469 9.91512 8.91918 9.34047 9.47052 8.90596L9.51569 8.95113Z" fill="black"/>
</svg>
