<svg width="24" height="24" viewBox="0 0 24 24" fill="none" xmlns="http://www.w3.org/2000/svg">
<path d="M23 12C22.9999 13.9309 22.4915 15.8278 21.526 17.5L15.1789 6.5H21.526C22.4915 8.17218 22.9999 10.0691 23 12ZM2.47374 6.5L5.65278 12L11.9999 1C10.069 1.00005 8.17213 1.50834 6.49995 2.47379C4.82777 3.43924 3.43918 4.82783 2.47374 6.5ZM2.47374 17.5C3.43918 19.1722 4.82777 20.5608 6.49995 21.5262C8.17213 22.4917 10.069 23 11.9999 23L15.1789 17.5H2.47374ZM21.526 6.5H8.82082L11.9999 1C13.9307 1.00005 15.8276 1.50834 17.4998 2.47379C19.1719 3.43924 20.5605 4.82783 21.526 6.5ZM2.47374 6.5C1.50828 8.17221 1 10.0691 1 12C1 13.9309 1.50828 15.8278 2.47374 17.5H8.82082L2.47374 6.5ZM18.3469 12L11.9999 23C13.9307 23 15.8276 22.4917 17.4998 21.5262C19.1719 20.5608 20.5605 19.1722 21.526 17.5L18.3469 12Z" fill="black"/>
</svg>
