<svg width="24" height="24" viewBox="0 0 24 24" fill="none" xmlns="http://www.w3.org/2000/svg">
<path d="M17.4953 21.493C15.8295 22.4764 13.9312 22.9967 11.9969 23C9.08031 23 6.28322 21.8411 4.2209 19.7782C2.15859 17.7153 1 14.9174 1 12C1 9.08262 2.15859 6.28473 4.2209 4.22183C6.28322 2.15893 9.08031 1 11.9969 1C13.9312 1.00327 15.8295 1.52355 17.4953 2.507C16.6032 2.23973 15.6773 2.10265 14.7461 2.1C12.1212 2.1 9.60379 3.14303 7.74771 4.99964C5.89163 6.85625 4.8489 9.37436 4.8489 12C4.8489 14.6256 5.89163 17.1437 7.74771 19.0004C9.60379 20.857 12.1212 21.9 14.7461 21.9C15.6773 21.8974 16.6032 21.7603 17.4953 21.493ZM14.7461 3.75C12.7832 3.75214 10.8855 4.45446 9.39385 5.73075C7.90225 7.00704 6.9146 8.77361 6.6084 10.713H6.66338C6.97076 9.4332 7.72678 8.30609 8.79415 7.53635C9.86153 6.76662 11.1695 6.40529 12.4805 6.51799C13.7915 6.63069 15.0186 7.20995 15.9391 8.15056C16.8595 9.09118 17.4122 10.3308 17.4967 11.6443C17.5813 12.9578 17.1922 14.2581 16.4 15.309C15.6078 16.36 14.4651 17.0919 13.1794 17.3719C11.8936 17.6519 10.5501 17.4614 9.39288 16.835C8.23561 16.2086 7.34129 15.1878 6.87232 13.958H6.74036C7.10762 15.4616 7.89036 16.8316 8.99914 17.9114C10.1079 18.9911 11.498 19.737 13.0105 20.0639C14.523 20.3908 16.097 20.2855 17.5525 19.76C19.008 19.2344 20.2864 18.3099 21.2415 17.0921C22.1966 15.8742 22.7899 14.4122 22.9537 12.873C23.1174 11.3338 22.845 9.7796 22.1675 8.38796C21.49 6.99633 20.4348 5.82342 19.1224 5.00327C17.8101 4.18312 16.2935 3.74882 14.7461 3.75Z" fill="black"/>
</svg>
