<svg width="24" height="24" viewBox="0 0 24 24" fill="none" xmlns="http://www.w3.org/2000/svg">
<path d="M18.1029 2.81877L12 8.92169L5.89708 2.81877C5.69297 2.61466 5.41615 2.5 5.1275 2.5C4.83885 2.5 4.56203 2.61466 4.35792 2.81877L2.81877 4.35792C2.61466 4.56203 2.5 4.83885 2.5 5.1275C2.5 5.41615 2.61466 5.69297 2.81877 5.89708L8.92169 12L2.81877 18.1029C2.61466 18.307 2.5 18.5839 2.5 18.8725C2.5 19.1611 2.61466 19.438 2.81877 19.6421L4.35792 21.1812C4.56203 21.3853 4.83885 21.5 5.1275 21.5C5.41615 21.5 5.69297 21.3853 5.89708 21.1812L12 15.0783L18.1029 21.1812C18.307 21.3853 18.5839 21.5 18.8725 21.5C19.1611 21.5 19.438 21.3853 19.6421 21.1812L21.1812 19.6421C21.3853 19.438 21.5 19.1611 21.5 18.8725C21.5 18.5839 21.3853 18.307 21.1812 18.1029L15.0783 12L21.1812 5.89708C21.3853 5.69297 21.5 5.41615 21.5 5.1275C21.5 4.83885 21.3853 4.56203 21.1812 4.35792L19.6421 2.81877C19.438 2.61467 19.1611 2.5 18.8725 2.5C18.5839 2.5 18.307 2.61466 18.1029 2.81877Z" fill="black"/>
</svg>
