<svg width="24" height="24" viewBox="0 0 24 24" fill="none" xmlns="http://www.w3.org/2000/svg">
<path d="M10.936 10.9181L2.09294 7.38016C1.8537 7.28467 1.64853 7.11935 1.50398 6.90558C1.35943 6.69181 1.28216 6.43944 1.28216 6.18112C1.28216 5.9228 1.35943 5.67043 1.50398 5.45666C1.64853 5.24289 1.8537 5.07757 2.09294 4.98208L10.936 1.45485C11.6247 1.18172 12.3911 1.18172 13.0798 1.45485L21.8907 4.98208C22.1299 5.07757 22.3351 5.24289 22.4796 5.45666C22.6242 5.67043 22.7015 5.9228 22.7015 6.18112C22.7015 6.43944 22.6242 6.69181 22.4796 6.90558C22.3351 7.11935 22.1299 7.28467 21.8907 7.38016L13.0798 10.9181C12.3892 11.1809 11.6266 11.1809 10.936 10.9181ZM21.955 16.6069L20.583 16.0584L13.948 18.7254C12.7224 19.2128 11.3577 19.2128 10.1321 18.7254L3.4328 16.0584L2.06078 16.6069C1.82154 16.7024 1.61637 16.8677 1.47182 17.0815C1.32727 17.2952 1.25 17.5476 1.25 17.8059C1.25 18.0642 1.32727 18.3166 1.47182 18.5304C1.61637 18.7441 1.82154 18.9095 2.06078 19.0049L10.936 22.5322C11.6436 22.8226 12.4365 22.8226 13.1441 22.5322L21.955 19.0049C22.193 18.9063 22.396 18.7382 22.5377 18.5225C22.6794 18.3067 22.7533 18.0533 22.7499 17.795C22.7464 17.5366 22.6657 17.2853 22.5183 17.0734C22.3708 16.8616 22.1634 16.6991 21.9228 16.6069H21.955ZM21.955 10.7998L19.1038 9.67071L13.5085 11.9182C12.5454 12.3059 11.4704 12.3059 10.5072 11.9182L4.912 9.67071L2.09294 10.7998C1.85702 10.8971 1.65524 11.0625 1.51324 11.275C1.37123 11.4875 1.29541 11.7376 1.29541 11.9935C1.29541 12.2494 1.37123 12.4995 1.51324 12.712C1.65524 12.9246 1.85702 13.09 2.09294 13.1872L10.936 16.7252C11.6457 17.0045 12.4344 17.0045 13.1441 16.7252L21.955 13.1872C22.1896 13.0868 22.3892 12.9187 22.5284 12.7042C22.6676 12.4897 22.7401 12.2386 22.7366 11.9827C22.7332 11.7268 22.654 11.4777 22.5091 11.2671C22.3642 11.0565 22.1601 10.8938 21.9228 10.7998H21.955Z" fill="black"/>
</svg>
