<svg width="24" height="24" viewBox="0 0 24 24" fill="none" xmlns="http://www.w3.org/2000/svg">
<path d="M12.1084 22.2334L10.2815 21.418C10.0448 21.3036 9.86065 21.1032 9.76666 20.8577C9.67268 20.6122 9.67592 20.3401 9.77572 20.0969L10.1783 19.1783C10.6475 18.1805 10.8909 17.0915 10.8909 15.9889C10.8909 14.8863 10.6475 13.7973 10.1783 12.7996C9.47956 11.2924 9.11762 9.65104 9.11762 7.98976C9.11762 6.32848 9.47956 4.68715 10.1783 3.17995L10.5808 2.27166C10.6934 2.03311 10.893 1.84671 11.1387 1.75074C11.3844 1.65477 11.6575 1.6565 11.9019 1.75558L13.7288 2.57098C13.9655 2.68537 14.1497 2.88577 14.2437 3.13128C14.3376 3.3768 14.3344 3.64892 14.2346 3.89213L13.8321 4.76946C13.3628 5.76719 13.1195 6.8562 13.1195 7.9588C13.1195 9.06139 13.3628 10.1504 13.8321 11.1481C14.5308 12.6553 14.8927 14.2967 14.8927 15.9579C14.8927 17.6192 14.5308 19.2606 13.8321 20.7678L13.4295 21.6761C13.3245 21.922 13.128 22.1176 12.8815 22.2216C12.6351 22.3256 12.3579 22.3298 12.1084 22.2334ZM20.541 21.7173L20.9436 20.809C21.6396 19.3011 22 17.6601 22 15.9992C22 14.3384 21.6396 12.6974 20.9436 11.1894C20.4743 10.1917 20.231 9.10267 20.231 8.00008C20.231 6.89749 20.4743 5.80848 20.9436 4.81074L21.3564 3.89213C21.4562 3.64892 21.4595 3.3768 21.3655 3.13128C21.2715 2.88577 21.0874 2.68537 20.8507 2.57098L19.0238 1.75558C18.7793 1.6565 18.5062 1.65477 18.2605 1.75074C18.0148 1.84671 17.8152 2.03311 17.7026 2.27166L17.2898 3.17995C16.5911 4.68715 16.2291 6.32848 16.2291 7.98976C16.2291 9.65104 16.5911 11.2924 17.2898 12.7996C17.759 13.7973 18.0024 14.8863 18.0024 15.9889C18.0024 17.0915 17.759 18.1805 17.2898 19.1783L16.8872 20.0969C16.7874 20.3401 16.7842 20.6122 16.8782 20.8577C16.9722 21.1032 17.1563 21.3036 17.393 21.418L19.2199 22.2334C19.4643 22.3325 19.7374 22.3342 19.9831 22.2383C20.2288 22.1423 20.4285 21.9559 20.541 21.7173ZM6.3077 21.7173L6.72056 20.809C7.41925 19.3018 7.78119 17.6605 7.78119 15.9992C7.78119 14.338 7.41925 12.6966 6.72056 11.1894C6.24494 10.1862 5.9982 9.08973 5.9982 7.97944C5.9982 6.86914 6.24494 5.77272 6.72056 4.76946L7.1231 3.85084C7.2229 3.60764 7.22614 3.33551 7.13215 3.09C7.03817 2.84448 6.85404 2.64408 6.61734 2.52969L4.78012 1.75558C4.53566 1.6565 4.26255 1.65477 4.01686 1.75074C3.77116 1.84671 3.57154 2.03311 3.45897 2.27166L3.05643 3.17995C2.36044 4.6879 2 6.32894 2 7.98976C2 9.65058 2.36044 11.2916 3.05643 12.7996C3.52572 13.7973 3.76904 14.8863 3.76904 15.9889C3.76904 17.0915 3.52572 18.1805 3.05643 19.1783L2.64357 20.0969C2.54377 20.3401 2.54053 20.6122 2.63452 20.8577C2.7285 21.1032 2.91263 21.3036 3.14932 21.418L4.97623 22.2334C5.22189 22.3356 5.49753 22.3389 5.74561 22.2428C5.9937 22.1466 6.19507 21.9584 6.3077 21.7173Z" fill="black"/>
</svg>
