<svg width="24" height="24" viewBox="0 0 24 24" fill="none" xmlns="http://www.w3.org/2000/svg">
<path d="M7.7 1.25V16.3H1.25V8.388C1.2497 8.17049 1.29227 7.95504 1.37528 7.75399C1.45828 7.55293 1.58009 7.37021 1.73375 7.21625L7.7 1.25ZM16.3 7.7V22.75L22.2662 16.7838C22.4199 16.6298 22.5417 16.4471 22.6247 16.246C22.7077 16.045 22.7503 15.8295 22.75 15.612V7.7H16.3ZM22.75 7.7H7.7V1.25H15.612C15.8295 1.2497 16.045 1.29227 16.246 1.37528C16.4471 1.45828 16.6298 1.58009 16.7838 1.73375L22.75 7.7ZM1.25 16.3L7.21625 22.2662C7.37021 22.4199 7.55293 22.5417 7.75399 22.6247C7.95504 22.7077 8.17049 22.7503 8.388 22.75H16.3V16.3H1.25Z" fill="black"/>
</svg>
