<svg width="24" height="24" viewBox="0 0 24 24" fill="none" xmlns="http://www.w3.org/2000/svg">
<path d="M1.50001 6.225C1.50001 5.29048 1.77713 4.37695 2.29632 3.59993C2.81551 2.82291 3.55345 2.21729 4.41683 1.85967C5.28021 1.50205 6.23025 1.40848 7.14681 1.59079C8.06337 1.77311 8.90528 2.22312 9.56609 2.88392C10.2269 3.54472 10.6769 4.38664 10.8592 5.3032C11.0415 6.21976 10.948 7.1698 10.5903 8.03318C10.2327 8.89656 9.6271 9.6345 8.85008 10.1537C8.07305 10.6729 7.15952 10.95 6.22501 10.95C5.60412 10.9514 4.98908 10.8301 4.41519 10.5931C3.84131 10.3562 3.31988 10.0082 2.88084 9.56916C2.44181 9.13013 2.09382 8.6087 1.85686 8.03481C1.6199 7.46093 1.49863 6.84588 1.50001 6.225ZM17.775 10.95C18.7095 10.95 19.623 10.6729 20.4001 10.1537C21.1771 9.6345 21.7827 8.89656 22.1403 8.03318C22.498 7.1698 22.5915 6.21976 22.4092 5.3032C22.2269 4.38664 21.7769 3.54472 21.1161 2.88392C20.4553 2.22312 19.6134 1.77311 18.6968 1.59079C17.7802 1.40848 16.8302 1.50205 15.9668 1.85967C15.1034 2.21729 14.3655 2.82291 13.8463 3.59993C13.3271 4.37695 13.05 5.29048 13.05 6.225C13.0486 6.84588 13.1699 7.46093 13.4069 8.03481C13.6438 8.6087 13.9918 9.13013 14.4308 9.56916C14.8699 10.0082 15.3913 10.3562 15.9652 10.5931C16.5391 10.8301 17.1541 10.9514 17.775 10.95ZM1.50001 17.775C1.50001 16.8405 1.77713 15.9269 2.29632 15.1499C2.81551 14.3729 3.55345 13.7673 4.41683 13.4097C5.28021 13.052 6.23025 12.9585 7.14681 13.1408C8.06337 13.3231 8.90528 13.7731 9.56609 14.4339C10.2269 15.0947 10.6769 15.9366 10.8592 16.8532C11.0415 17.7698 10.948 18.7198 10.5903 19.5832C10.2327 20.4466 9.6271 21.1845 8.85008 21.7037C8.07305 22.2229 7.15952 22.5 6.22501 22.5C5.60412 22.5014 4.98908 22.3801 4.41519 22.1431C3.84131 21.9062 3.31988 21.5582 2.88084 21.1192C2.44181 20.6801 2.09382 20.1587 1.85686 19.5848C1.6199 19.0109 1.49863 18.3959 1.50001 17.775ZM13.05 17.775C13.05 16.8405 13.3271 15.9269 13.8463 15.1499C14.3655 14.3729 15.1034 13.7673 15.9668 13.4097C16.8302 13.052 17.7802 12.9585 18.6968 13.1408C19.6134 13.3231 20.4553 13.7731 21.1161 14.4339C21.7769 15.0947 22.2269 15.9366 22.4092 16.8532C22.5915 17.7698 22.498 18.7198 22.1403 19.5832C21.7827 20.4466 21.1771 21.1845 20.4001 21.7037C19.623 22.2229 18.7095 22.5 17.775 22.5C17.1541 22.5014 16.5391 22.3801 15.9652 22.1431C15.3913 21.9062 14.8699 21.5582 14.4308 21.1192C13.9918 20.6801 13.6438 20.1587 13.4069 19.5848C13.1699 19.0109 13.0486 18.3959 13.05 17.775Z" fill="black"/>
</svg>
