<svg width="24" height="24" viewBox="0 0 24 24" fill="none" xmlns="http://www.w3.org/2000/svg">
<path d="M22.2308 7.9866C21.367 5.781 19.8145 3.91335 17.8045 2.66147C15.7944 1.40959 13.4341 0.840384 11.0747 1.03853C8.71536 1.23667 6.48295 2.19157 4.7096 3.76118C2.93625 5.33079 1.71672 7.43124 1.23244 9.75006C0.748164 12.0689 1.02501 14.4822 2.02178 16.6309C3.01856 18.7796 4.68202 20.549 6.76469 21.6758C8.84736 22.8026 11.238 23.2267 13.5809 22.8848C15.9238 22.543 18.0938 21.4536 19.7681 19.7786C21.2877 18.2704 22.3311 16.3488 22.769 14.2525C23.2068 12.1562 23.0196 9.97744 22.2308 7.9866ZM11.9951 18.2276L5.77227 12.0016L11.9951 5.7756L18.2179 12.0016L11.9951 18.2276Z" fill="black"/>
</svg>
