<svg width="24" height="24" viewBox="0 0 24 24" fill="none" xmlns="http://www.w3.org/2000/svg">
<path d="M7.02632 4.26316C7.02632 4.80966 6.86426 5.34389 6.56064 5.79829C6.25702 6.25268 5.82547 6.60685 5.32057 6.81598C4.81567 7.02512 4.26009 7.07984 3.72409 6.97322C3.18809 6.8666 2.69575 6.60344 2.30931 6.217C1.92288 5.83057 1.65971 5.33822 1.55309 4.80222C1.44648 4.26622 1.5012 3.71064 1.71033 3.20574C1.91947 2.70084 2.27363 2.2693 2.72803 1.96568C3.18243 1.66206 3.71666 1.5 4.26316 1.5C4.99599 1.5 5.69881 1.79112 6.21701 2.30931C6.7352 2.8275 7.02632 3.53032 7.02632 4.26316ZM12 1.5C11.4535 1.5 10.9193 1.66206 10.4649 1.96568C10.0105 2.2693 9.65631 2.70084 9.44717 3.20574C9.23804 3.71064 9.18332 4.26622 9.28994 4.80222C9.39655 5.33822 9.65972 5.83057 10.0462 6.217C10.4326 6.60344 10.9249 6.8666 11.4609 6.97322C11.9969 7.07984 12.5525 7.02512 13.0574 6.81598C13.5623 6.60685 13.9939 6.25268 14.2975 5.79829C14.6011 5.34389 14.7632 4.80966 14.7632 4.26316C14.7632 3.53032 14.472 2.8275 13.9538 2.30931C13.4357 1.79112 12.7328 1.5 12 1.5ZM22.5 4.26316C22.5 4.80966 22.3379 5.34389 22.0343 5.79829C21.7307 6.25268 21.2992 6.60685 20.7943 6.81598C20.2894 7.02512 19.7338 7.07984 19.1978 6.97322C18.6618 6.8666 18.1694 6.60344 17.783 6.217C17.3966 5.83057 17.1334 5.33822 17.0268 4.80222C16.9202 4.26622 16.9749 3.71064 17.184 3.20574C17.3932 2.70084 17.7473 2.2693 18.2017 1.96568C18.6561 1.66206 19.1903 1.5 19.7368 1.5C20.4697 1.5 21.1725 1.79112 21.6907 2.30931C22.2089 2.8275 22.5 3.53032 22.5 4.26316ZM7.02632 12C7.02632 12.5465 6.86426 13.0807 6.56064 13.5351C6.25702 13.9895 5.82547 14.3437 5.32057 14.5528C4.81567 14.762 4.26009 14.8167 3.72409 14.7101C3.18809 14.6034 2.69575 14.3403 2.30931 13.9538C1.92288 13.5674 1.65971 13.0751 1.55309 12.5391C1.44648 12.0031 1.5012 11.4475 1.71033 10.9426C1.91947 10.4377 2.27363 10.0061 2.72803 9.70252C3.18243 9.3989 3.71666 9.23684 4.26316 9.23684C4.99599 9.23684 5.69881 9.52796 6.21701 10.0462C6.7352 10.5643 7.02632 11.2672 7.02632 12ZM14.7632 12C14.7632 12.5465 14.6011 13.0807 14.2975 13.5351C13.9939 13.9895 13.5623 14.3437 13.0574 14.5528C12.5525 14.762 11.9969 14.8167 11.4609 14.7101C10.9249 14.6034 10.4326 14.3403 10.0462 13.9538C9.65972 13.5674 9.39655 13.0751 9.28994 12.5391C9.18332 12.0031 9.23804 11.4475 9.44717 10.9426C9.65631 10.4377 10.0105 10.0061 10.4649 9.70252C10.9193 9.3989 11.4535 9.23684 12 9.23684C12.7328 9.23684 13.4357 9.52796 13.9538 10.0462C14.472 10.5643 14.7632 11.2672 14.7632 12ZM22.5 12C22.5 12.5465 22.3379 13.0807 22.0343 13.5351C21.7307 13.9895 21.2992 14.3437 20.7943 14.5528C20.2894 14.762 19.7338 14.8167 19.1978 14.7101C18.6618 14.6034 18.1694 14.3403 17.783 13.9538C17.3966 13.5674 17.1334 13.0751 17.0268 12.5391C16.9202 12.0031 16.9749 11.4475 17.184 10.9426C17.3932 10.4377 17.7473 10.0061 18.2017 9.70252C18.6561 9.3989 19.1903 9.23684 19.7368 9.23684C20.4697 9.23684 21.1725 9.52796 21.6907 10.0462C22.2089 10.5643 22.5 11.2672 22.5 12ZM7.02632 19.7368C7.02632 20.2833 6.86426 20.8176 6.56064 21.272C6.25702 21.7264 5.82547 22.0805 5.32057 22.2897C4.81567 22.4988 4.26009 22.5535 3.72409 22.4469C3.18809 22.3403 2.69575 22.0771 2.30931 21.6907C1.92288 21.3043 1.65971 20.8119 1.55309 20.2759C1.44648 19.7399 1.5012 19.1843 1.71033 18.6794C1.91947 18.1745 2.27363 17.743 2.72803 17.4394C3.18243 17.1357 3.71666 16.9737 4.26316 16.9737C4.99599 16.9737 5.69881 17.2648 6.21701 17.783C6.7352 18.3012 7.02632 19.004 7.02632 19.7368ZM14.7632 19.7368C14.7632 20.2833 14.6011 20.8176 14.2975 21.272C13.9939 21.7264 13.5623 22.0805 13.0574 22.2897C12.5525 22.4988 11.9969 22.5535 11.4609 22.4469C10.9249 22.3403 10.4326 22.0771 10.0462 21.6907C9.65972 21.3043 9.39655 20.8119 9.28994 20.2759C9.18332 19.7399 9.23804 19.1843 9.44717 18.6794C9.65631 18.1745 10.0105 17.743 10.4649 17.4394C10.9193 17.1357 11.4535 16.9737 12 16.9737C12.7328 16.9737 13.4357 17.2648 13.9538 17.783C14.472 18.3012 14.7632 19.004 14.7632 19.7368ZM22.5 19.7368C22.5 20.2833 22.3379 20.8176 22.0343 21.272C21.7307 21.7264 21.2992 22.0805 20.7943 22.2897C20.2894 22.4988 19.7338 22.5535 19.1978 22.4469C18.6618 22.3403 18.1694 22.0771 17.783 21.6907C17.3966 21.3043 17.1334 20.8119 17.0268 20.2759C16.9202 19.7399 16.9749 19.1843 17.184 18.6794C17.3932 18.1745 17.7473 17.743 18.2017 17.4394C18.6561 17.1357 19.1903 16.9737 19.7368 16.9737C20.4697 16.9737 21.1725 17.2648 21.6907 17.783C22.2089 18.3012 22.5 19.004 22.5 19.7368Z" fill="black"/>
</svg>
