<svg width="24" height="24" viewBox="0 0 24 24" fill="none" xmlns="http://www.w3.org/2000/svg">
<path d="M7.80005 22.5C7.52157 22.5 7.2545 22.3894 7.05759 22.1925C6.86067 21.9955 6.75005 21.7285 6.75005 21.45V8.85C6.75005 8.57152 6.86067 8.30445 7.05759 8.10754C7.2545 7.91062 7.52157 7.8 7.80005 7.8C8.07853 7.8 8.3456 7.91062 8.54251 8.10754C8.73942 8.30445 8.85005 8.57152 8.85005 8.85V21.45C8.85005 21.7285 8.73942 21.9955 8.54251 22.1925C8.3456 22.3894 8.07853 22.5 7.80005 22.5ZM4.65005 14.1V5.7C4.65005 5.42152 4.53942 5.15445 4.34251 4.95754C4.1456 4.76062 3.87853 4.65 3.60005 4.65C3.32157 4.65 3.0545 4.76062 2.85759 4.95754C2.66067 5.15445 2.55005 5.42152 2.55005 5.7V14.1C2.55005 14.3785 2.66067 14.6455 2.85759 14.8425C3.0545 15.0394 3.32157 15.15 3.60005 15.15C3.87853 15.15 4.1456 15.0394 4.34251 14.8425C4.53942 14.6455 4.65005 14.3785 4.65005 14.1ZM12 20.4C11.7216 20.4 11.4545 20.2894 11.2576 20.0925C11.0607 19.8955 10.95 19.6285 10.95 19.35V2.55C10.95 2.27152 11.0607 2.00445 11.2576 1.80754C11.4545 1.61062 11.7216 1.5 12 1.5C12.2785 1.5 12.5456 1.61062 12.7425 1.80754C12.9394 2.00445 13.05 2.27152 13.05 2.55V19.35C13.05 19.6285 12.9394 19.8955 12.7425 20.0925C12.5456 20.2894 12.2785 20.4 12 20.4ZM16.2 17.25C15.9216 17.25 15.6545 17.1394 15.4576 16.9425C15.2607 16.7455 15.15 16.4785 15.15 16.2V4.65C15.15 4.37152 15.2607 4.10445 15.4576 3.90754C15.6545 3.71062 15.9216 3.6 16.2 3.6C16.4785 3.6 16.7456 3.71062 16.9425 3.90754C17.1394 4.10445 17.25 4.37152 17.25 4.65V16.2C17.25 16.4785 17.1394 16.7455 16.9425 16.9425C16.7456 17.1394 16.4785 17.25 16.2 17.25ZM20.4 19.35C20.1216 19.35 19.8545 19.2394 19.6576 19.0425C19.4607 18.8455 19.35 18.5785 19.35 18.3V9.9C19.35 9.62152 19.4607 9.35445 19.6576 9.15754C19.8545 8.96062 20.1216 8.85 20.4 8.85C20.6785 8.85 20.9456 8.96062 21.1425 9.15754C21.3394 9.35445 21.45 9.62152 21.45 9.9V18.3C21.45 18.5785 21.3394 18.8455 21.1425 19.0425C20.9456 19.2394 20.6785 19.35 20.4 19.35Z" fill="black"/>
</svg>
