<svg width="24" height="24" viewBox="0 0 24 24" fill="none" xmlns="http://www.w3.org/2000/svg">
<path d="M17.5556 6.44444V17.5556H6.44444V6.44444H17.5556ZM20.8889 2H3.11111C2.81643 2 2.53381 2.11706 2.32544 2.32544C2.11706 2.53381 2 2.81643 2 3.11111V20.8889C2 21.1836 2.11706 21.4662 2.32544 21.6746C2.53381 21.8829 2.81643 22 3.11111 22H20.8889C21.1836 22 21.4662 21.8829 21.6746 21.6746C21.8829 21.4662 22 21.1836 22 20.8889V3.11111C22 2.81643 21.8829 2.53381 21.6746 2.32544C21.4662 2.11706 21.1836 2 20.8889 2Z" fill="black"/>
</svg>
