<svg width="24" height="24" viewBox="0 0 24 24" fill="none" xmlns="http://www.w3.org/2000/svg">
<path d="M11.4855 22.268L7.65707 16.5142C7.44385 16.1943 7.33008 15.8185 7.33008 15.434C7.33008 15.0495 7.44385 14.6737 7.65707 14.3538L11.3623 8.7567C11.4121 8.67797 11.4385 8.58676 11.4385 8.49363C11.4385 8.40051 11.4121 8.3093 11.3623 8.23057L8.64216 4.25665C8.40694 3.89971 8.32203 3.46438 8.40587 3.0452C8.48971 2.62603 8.73551 2.25684 9.08992 2.01782L10.2093 1.26782C10.5663 1.0326 11.0016 0.947691 11.4208 1.03153C11.84 1.11536 12.2091 1.36117 12.4482 1.71558L16.3437 7.50295C16.5569 7.82287 16.6707 8.19873 16.6707 8.58319C16.6707 8.96765 16.5569 9.34351 16.3437 9.66342L12.6385 15.2605C12.5887 15.3392 12.5623 15.4304 12.5623 15.5236C12.5623 15.6167 12.5887 15.7079 12.6385 15.7866L15.3586 19.7046C15.5939 20.0615 15.6788 20.4968 15.5949 20.916C15.5111 21.3352 15.2653 21.7044 14.9109 21.9434L13.7915 22.6934C13.6137 22.8216 13.4119 22.9124 13.1982 22.9605C12.9844 23.0085 12.7631 23.0128 12.5476 22.9731C12.3322 22.9333 12.127 22.8504 11.9444 22.7292C11.7619 22.608 11.6058 22.4512 11.4855 22.268Z" fill="black"/>
</svg>
