<svg width="24" height="24" viewBox="0 0 24 24" fill="none" xmlns="http://www.w3.org/2000/svg">
<path d="M12 6.64331L17.3534 11.9967L12 17.3502L6.64651 11.9967L12 6.64331ZM12 0.750019C11.8519 0.749163 11.7052 0.777533 11.5682 0.833502C11.4312 0.889471 11.3065 0.971938 11.2014 1.07617L1.07938 11.1982C0.973967 11.3028 0.890297 11.4272 0.833199 11.5642C0.776101 11.7013 0.746704 11.8483 0.746704 11.9967C0.746704 12.1452 0.776101 12.2922 0.833199 12.4293C0.890297 12.5663 0.973967 12.6907 1.07938 12.7953L11.2014 22.9173C11.306 23.0227 11.4304 23.1064 11.5674 23.1635C11.7045 23.2206 11.8515 23.25 12 23.25C12.1484 23.25 12.2954 23.2206 12.4325 23.1635C12.5695 23.1064 12.6939 23.0227 12.7985 22.9173L22.9205 12.7953C23.0259 12.6907 23.1096 12.5663 23.1667 12.4293C23.2238 12.2922 23.2532 12.1452 23.2532 11.9967C23.2532 11.8483 23.2238 11.7013 23.1667 11.5642C23.1096 11.4272 23.0259 11.3028 22.9205 11.1982L12.7985 1.07617C12.6934 0.971938 12.5688 0.889471 12.4317 0.833502C12.2947 0.777533 12.148 0.749163 12 0.750019Z" fill="black"/>
</svg>
