<svg width="24" height="24" viewBox="0 0 24 24" fill="none" xmlns="http://www.w3.org/2000/svg">
<path d="M22.2519 8.4545H15.3616L13.1681 1.878C13.0883 1.62343 12.9295 1.40099 12.7147 1.24307C12.4999 1.08516 12.2403 1 11.9738 1C11.7073 1 11.4477 1.08516 11.2329 1.24307C11.0181 1.40099 10.8593 1.62343 10.7795 1.878L8.6894 8.4545H1.79904C1.52585 8.44416 1.25679 8.52365 1.03297 8.68082C0.809148 8.83798 0.642874 9.06419 0.559553 9.32487C0.476232 9.58556 0.480444 9.86638 0.571548 10.1244C0.662651 10.3825 0.835635 10.6036 1.06407 10.754L6.65674 14.8126L4.50925 21.3546C4.42622 21.6068 4.42539 21.8789 4.50687 22.1317C4.58835 22.3845 4.74793 22.6048 4.96258 22.7608C5.17724 22.9169 5.43587 23.0006 5.70115 23C5.96643 22.9994 6.22465 22.9143 6.43855 22.7572L12.0197 18.6987L17.6009 22.7572C17.8148 22.9143 18.073 22.9994 18.3383 23C18.6036 23.0006 18.8622 22.9169 19.0769 22.7608C19.2915 22.6048 19.4511 22.3845 19.5326 22.1317C19.6141 21.8789 19.6133 21.6068 19.5302 21.3546L17.3942 14.7781L22.9869 10.7195C23.1998 10.5637 23.3581 10.3445 23.4393 10.0933C23.5204 9.84208 23.5202 9.57161 23.4387 9.3205C23.3573 9.06938 23.1986 8.85045 22.9855 8.69493C22.7724 8.53942 22.5156 8.45528 22.2519 8.4545Z" fill="black"/>
</svg>
