<svg width="24" height="24" viewBox="0 0 24 24" fill="none" xmlns="http://www.w3.org/2000/svg">
<path d="M22.75 7.7H7.7L12 3.4H19.525C19.8646 3.39889 20.1977 3.49298 20.4865 3.67159C20.7753 3.8502 21.0083 4.10619 21.159 4.4105L22.75 7.7ZM2.89475 19.5895C3.04545 19.8938 3.27843 20.1498 3.56725 20.3284C3.85607 20.507 4.18917 20.6011 4.52875 20.6H12.0538L16.3538 16.3H1.25L2.89475 19.5895ZM19.5895 21.1052C19.8857 20.9587 20.1364 20.7341 20.3145 20.4556C20.4925 20.1772 20.5912 19.8554 20.6 19.525V12L16.3 7.7V22.75L19.5895 21.1052ZM4.4105 2.89475C4.10619 3.04545 3.8502 3.27843 3.67159 3.56725C3.49298 3.85607 3.39889 4.18917 3.4 4.52875V12.0538L7.7 16.3538V1.25L4.4105 2.89475ZM22.75 7.7L20.6 12L16.3 7.7H22.75ZM7.7 16.3L3.4 12L1.25 16.3H7.7ZM16.3 16.3L12 20.6L16.3 22.75V16.3ZM7.7 7.7L12 3.4L7.7 1.25V7.7Z" fill="black"/>
</svg>
