<svg width="24" height="24" viewBox="0 0 24 24" fill="none" xmlns="http://www.w3.org/2000/svg">
<path d="M12.0173 18.8155V12L17.7676 15.4136C18.3491 15.7598 18.8315 16.257 19.1667 16.8552C19.5018 17.4535 19.6777 18.1318 19.6768 18.822C19.6758 19.5122 19.4981 20.1901 19.1614 20.7874C18.8247 21.3847 18.3409 21.8805 17.7585 22.225C17.1762 22.5695 16.5159 22.7506 15.8438 22.75C15.1718 22.7494 14.5118 22.5672 13.93 22.2217C13.3482 21.8762 12.8652 21.3796 12.5295 20.7817C12.1937 20.1838 12.0171 19.5057 12.0173 18.8155ZM6.2669 15.4136L12.0173 12L6.2669 8.58635C5.68304 8.23893 5.02037 8.0556 4.3456 8.05482C3.67083 8.05403 3.00776 8.23582 2.42314 8.58188C1.83851 8.92794 1.35296 9.42607 1.01536 10.0261C0.677749 10.6262 0.5 11.307 0.5 12C0.5 12.693 0.677749 13.3738 1.01536 13.9739C1.35296 14.5739 1.83851 15.0721 2.42314 15.4181C3.00776 15.7642 3.67083 15.946 4.3456 15.9452C5.02037 15.9444 5.68304 15.7611 6.2669 15.4136ZM12.0173 5.18452V12L17.7676 8.58635C18.3491 8.24021 18.8315 7.74303 19.1667 7.14476C19.5018 6.54648 19.6777 5.86818 19.6768 5.17797C19.6758 4.48776 19.4981 3.80995 19.1614 3.21262C18.8247 2.61529 18.3409 2.11948 17.7585 1.77498C17.1762 1.43048 16.5159 1.24943 15.8438 1.25C15.1718 1.25058 14.5118 1.43276 13.93 1.77826C13.3482 2.12375 12.8652 2.62039 12.5295 3.21829C12.1937 3.8162 12.0171 4.49431 12.0173 5.18452ZM6.2669 8.58635C5.68549 8.24021 5.203 7.74303 4.86789 7.14476C4.53278 6.54648 4.35685 5.86818 4.35778 5.17797C4.3587 4.48776 4.53644 3.80995 4.87315 3.21262C5.20986 2.61529 5.69368 2.11948 6.27601 1.77498C6.85834 1.43048 7.51868 1.24943 8.19071 1.25C8.86274 1.25058 9.52279 1.43276 10.1046 1.77826C10.6863 2.12375 11.1693 2.62039 11.5051 3.21829C11.8408 3.8162 12.0175 4.49431 12.0173 5.18452V12L6.2669 8.58635ZM17.7676 15.4136C18.35 15.756 19.0098 15.9353 19.6809 15.9334C20.3519 15.9314 21.0107 15.7485 21.5913 15.4028C22.1718 15.057 22.6537 14.5607 22.9887 13.9635C23.3237 13.3663 23.5 12.6892 23.5 12C23.5 11.3108 23.3237 10.6337 22.9887 10.0365C22.6537 9.43926 22.1718 8.94295 21.5913 8.59724C21.0107 8.25153 20.3519 8.06855 19.6809 8.06664C19.0098 8.06473 18.35 8.24395 17.7676 8.58635L12.0173 12L17.7676 15.4136ZM6.2669 15.4136C5.68549 15.7598 5.203 16.257 4.86789 16.8552C4.53278 17.4535 4.35685 18.1318 4.35778 18.822C4.3587 19.5122 4.53644 20.1901 4.87315 20.7874C5.20986 21.3847 5.69368 21.8805 6.27601 22.225C6.85834 22.5695 7.51868 22.7506 8.19071 22.75C8.86274 22.7494 9.52279 22.5672 10.1046 22.2217C10.6863 21.8762 11.1693 21.3796 11.5051 20.7817C11.8408 20.1838 12.0175 19.5057 12.0173 18.8155V12L6.2669 15.4136Z" fill="black"/>
</svg>
