<svg width="24" height="24" viewBox="0 0 24 24" fill="none" xmlns="http://www.w3.org/2000/svg">
<path fill-rule="evenodd" clip-rule="evenodd" d="M11.9791 4.27307L16.0324 1.89376C16.1933 1.79942 16.3758 1.74983 16.5616 1.75C16.7473 1.75017 16.9298 1.80008 17.0905 1.89471C17.2512 1.98934 17.3845 2.12533 17.4769 2.28898C17.5694 2.45263 17.6177 2.63815 17.6171 2.82682V7.58545L11.9791 10.8862L6.34107 7.58545V2.87348C6.34041 2.6848 6.38875 2.49928 6.4812 2.33563C6.57365 2.17198 6.70695 2.03599 6.86765 1.94136C7.02836 1.84673 7.21078 1.79682 7.39654 1.79665C7.5823 1.79649 7.76481 1.84608 7.92568 1.94042L11.9791 4.27307ZM1.02475 12.1689C0.865093 12.2633 0.732614 12.3986 0.640536 12.5613C0.548457 12.724 0.5 12.9084 0.5 13.0961C0.5 13.2838 0.548457 13.4681 0.640536 13.6308C0.732614 13.7935 0.865093 13.9289 1.02475 14.0233L5.07814 16.356V21.1146C5.07748 21.3033 5.12581 21.4888 5.21826 21.6524C5.31071 21.8161 5.44401 21.9521 5.60471 22.0467C5.76542 22.1413 5.94785 22.1913 6.13361 22.1914C6.31936 22.1916 6.50188 22.142 6.66274 22.0477L10.7276 19.715V13.1602L5.08962 9.78955L1.02475 12.1689ZM22.9336 12.1686L18.8802 9.83594L13.2307 13.16V19.7731L17.2956 22.1057C17.4564 22.2001 17.639 22.2496 17.8247 22.2495C18.0105 22.2493 18.1929 22.1994 18.3536 22.1048C18.5143 22.0101 18.6476 21.8741 18.7401 21.7105C18.8325 21.5468 18.8808 21.3613 18.8802 21.1727V16.4024L22.9336 14.0697C23.1044 13.9788 23.2475 13.8422 23.3473 13.6747C23.4471 13.5071 23.4999 13.315 23.4999 13.1192C23.4999 12.9233 23.4471 12.7312 23.3473 12.5636C23.2475 12.3961 23.1044 12.2595 22.9336 12.1686Z" fill="black"/>
</svg>
