<svg width="24" height="24" viewBox="0 0 24 24" fill="none" xmlns="http://www.w3.org/2000/svg">
<path d="M21.345 8.05383L1.50001 12.0228V6.89883C1.50077 6.56709 1.61617 6.24581 1.82665 5.9894C2.03714 5.73299 2.32978 5.55721 2.65501 5.49183L21.051 1.81684C21.2261 1.77914 21.4073 1.78119 21.5815 1.82286C21.7557 1.86453 21.9183 1.94474 22.0573 2.05759C22.1964 2.17044 22.3083 2.31305 22.3849 2.47491C22.4615 2.63677 22.5009 2.81376 22.5 2.99284V6.64683C22.4992 6.97857 22.3838 7.29985 22.1733 7.55626C21.9629 7.81267 21.6702 7.98845 21.345 8.05383ZM22.5 17.1468V12.0228L2.65501 15.9918C2.32978 16.0572 2.03714 16.233 1.82665 16.4894C1.61617 16.7458 1.50077 17.0671 1.50001 17.3988V21.0528C1.49914 21.2319 1.53846 21.4089 1.61507 21.5707C1.69169 21.7326 1.80364 21.8752 1.94269 21.9881C2.08173 22.1009 2.24433 22.1811 2.41849 22.2228C2.59266 22.2645 2.77395 22.2665 2.94901 22.2288L21.345 18.5538C21.6702 18.4884 21.9629 18.3127 22.1733 18.0562C22.3838 17.7998 22.4992 17.4786 22.5 17.1468Z" fill="black"/>
</svg>
