<svg width="24" height="24" viewBox="0 0 24 24" fill="none" xmlns="http://www.w3.org/2000/svg">
<path d="M10.6245 10.6245C13.5084 7.71305 17.3603 5.96084 21.45 5.69999C21.7378 5.67864 22.0066 5.54837 22.2017 5.33572C22.3967 5.12308 22.5034 4.84405 22.5 4.55549V2.55C22.5 2.27152 22.3893 2.00445 22.1924 1.80754C21.9955 1.61062 21.7284 1.5 21.45 1.5C16.2411 1.75454 11.3133 3.93811 7.62572 7.62572C3.93811 11.3133 1.75454 16.2411 1.5 21.45C1.5 21.7284 1.61062 21.9955 1.80754 22.1924C2.00445 22.3893 2.27152 22.5 2.55 22.5H4.58699C4.87011 22.4955 5.14131 22.3853 5.34727 22.191C5.55323 21.9967 5.67905 21.7323 5.69999 21.45C5.96084 17.3603 7.71305 13.5084 10.6245 10.6245ZM15.0765 15.0765C16.783 13.3556 19.0377 12.2859 21.45 12.0525C21.7297 12.0295 21.9913 11.9044 22.1849 11.7011C22.3785 11.4979 22.4906 11.2305 22.5 10.95V8.84999C22.5006 8.70377 22.4706 8.55905 22.412 8.42508C22.3535 8.29111 22.2675 8.17085 22.1598 8.07201C22.0521 7.97316 21.9249 7.89791 21.7864 7.85107C21.6479 7.80423 21.5011 7.78683 21.3555 7.79999C17.8479 8.06393 14.5513 9.57685 12.0641 12.0641C9.57685 14.5513 8.06393 17.8479 7.79999 21.3555C7.78683 21.5011 7.80423 21.6478 7.85107 21.7864C7.89791 21.9249 7.97316 22.0521 8.07201 22.1598C8.17085 22.2675 8.29111 22.3535 8.42508 22.412C8.55905 22.4706 8.70377 22.5006 8.84999 22.5H10.95C11.2378 22.5009 11.5155 22.3934 11.7276 22.1988C11.9397 22.0042 12.0707 21.7368 12.0945 21.45C12.3165 19.0432 13.371 16.7892 15.0765 15.0765ZM16.557 16.557C17.8438 15.2719 19.5129 14.4392 21.3135 14.184C21.4624 14.1644 21.6137 14.1771 21.7573 14.221C21.9009 14.265 22.0334 14.3392 22.1459 14.4387C22.2583 14.5383 22.3481 14.6608 22.4092 14.7979C22.4703 14.9351 22.5012 15.0838 22.5 15.234V17.25C22.4951 17.52 22.3975 17.7801 22.2235 17.9865C22.0495 18.1931 21.8097 18.3334 21.5445 18.384C20.7768 18.5608 20.0744 18.9499 19.5174 19.5069C18.9604 20.0639 18.5713 20.7663 18.3945 21.534C18.3457 21.8029 18.2047 22.0464 17.9959 22.2227C17.787 22.399 17.5233 22.497 17.25 22.5H15.2235C15.0733 22.5012 14.9246 22.4703 14.7874 22.4092C14.6503 22.3481 14.5278 22.2583 14.4282 22.1459C14.3287 22.0334 14.2545 21.9009 14.2105 21.7573C14.1666 21.6137 14.1539 21.4624 14.1735 21.3135C14.4316 19.5116 15.2681 17.8423 16.557 16.557Z" fill="black"/>
</svg>
