<svg width="24" height="24" viewBox="0 0 24 24" fill="none" xmlns="http://www.w3.org/2000/svg">
<path d="M22.5 5.2784L19.5092 2.3199C19.2955 2.09832 19.0242 1.94068 18.7259 1.86467C18.4275 1.78866 18.1139 1.79728 17.8202 1.88957C14.8294 2.96539 6.79303 2.76098 5.22234 1.47L2.29611 4.47154C2.07242 4.68837 1.91441 4.96388 1.84019 5.26644C1.76598 5.56901 1.77858 5.88636 1.87654 6.18209C2.38061 8.04692 2.61608 9.97412 2.57582 11.9055C2.57582 15.9936 1.82275 18.3066 1.5 18.7261L4.44775 21.6847C4.66149 21.9062 4.93276 22.0639 5.2311 22.1399C5.52944 22.2159 5.84307 22.2073 6.13678 22.115C9.12756 21.0929 17.1639 21.2436 18.7346 22.5346L21.6609 19.533C21.8824 19.3193 22.0401 19.048 22.1161 18.7497C22.1921 18.4513 22.1835 18.1377 22.0912 17.844C21.0584 14.8855 21.209 6.8491 22.5 5.2784ZM16.3463 16.3701C13.4592 15.9667 10.53 15.9667 7.64293 16.3701C7.85163 14.8877 7.94872 13.3917 7.9334 11.8947C7.94245 10.4704 7.85619 9.04718 7.6752 7.63445C9.10015 7.84281 10.5384 7.94708 11.9785 7.94643C13.4401 7.94812 14.8998 7.84386 16.3463 7.63445C15.9375 10.532 15.9375 13.4726 16.3463 16.3701Z" fill="black"/>
</svg>
