<svg width="24" height="24" viewBox="0 0 24 24" fill="none" xmlns="http://www.w3.org/2000/svg">
<path d="M17.074 5.67901H13.9027C13.3412 5.67905 12.7924 5.51122 12.327 5.19707C11.8615 4.88293 11.5005 4.43681 11.2905 3.91601L10.925 3.01301C10.7188 2.49392 10.3617 2.04852 9.89994 1.73428C9.43815 1.42004 8.89281 1.25136 8.33425 1.25001H6.18425C5.53678 1.2486 4.89539 1.3749 4.29681 1.6217C3.69822 1.8685 3.15419 2.23093 2.69586 2.68826C2.23753 3.14559 1.87391 3.68883 1.6258 4.28688C1.3777 4.88493 1.25 5.52604 1.25 6.17351V17.1278C1.26417 18.6238 1.86842 20.0537 2.93135 21.1066C3.99427 22.1594 5.4299 22.7501 6.926 22.75H17.074C18.5701 22.7501 20.0057 22.1594 21.0686 21.1066C22.1316 20.0537 22.7358 18.6238 22.75 17.1278V11.355C22.7514 10.6092 22.6056 9.8705 22.3208 9.18122C22.0361 8.49194 21.618 7.86566 21.0907 7.33831C20.5633 6.81096 19.9371 6.39293 19.2478 6.10818C18.5585 5.82344 17.8198 5.67759 17.074 5.67901ZM14.451 14.279H12.7847V15.9238C12.7876 16.024 12.7707 16.1238 12.735 16.2175C12.6992 16.3112 12.6454 16.397 12.5765 16.4698C12.5076 16.5427 12.425 16.6013 12.3335 16.6423C12.242 16.6832 12.1432 16.7057 12.043 16.7085C11.8442 16.7086 11.6533 16.6311 11.5108 16.4926C11.3682 16.3541 11.2853 16.1654 11.2797 15.9668V14.2575H9.55974C9.35732 14.2575 9.16318 14.1771 9.02005 14.034C8.87691 13.8908 8.7965 13.6967 8.7965 13.4943C8.7965 13.2918 8.87691 13.0977 9.02005 12.9546C9.16318 12.8114 9.35732 12.731 9.55974 12.731H11.2152V11.0755C11.2124 10.9753 11.2293 10.8754 11.265 10.7817C11.3008 10.688 11.3546 10.6023 11.4235 10.5294C11.4924 10.4565 11.575 10.398 11.6665 10.357C11.758 10.3161 11.8568 10.2935 11.957 10.2908C12.058 10.2849 12.1591 10.2997 12.2541 10.3344C12.3491 10.369 12.436 10.4227 12.5095 10.4922C12.583 10.5617 12.6415 10.6454 12.6815 10.7384C12.7214 10.8313 12.7419 10.9314 12.7417 11.0325V12.7418H14.4617C14.6642 12.7418 14.8583 12.8222 15.0014 12.9653C15.1446 13.1084 15.225 13.3026 15.225 13.505C15.225 13.7074 15.1446 13.9016 15.0014 14.0447C14.8583 14.1878 14.6642 14.2683 14.4617 14.2683L14.451 14.279Z" fill="black"/>
</svg>
