<svg width="24" height="24" viewBox="0 0 24 24" fill="none" xmlns="http://www.w3.org/2000/svg">
<path d="M22.9996 9.4732H18.2847C17.3954 9.44196 16.5543 9.06121 15.944 8.41362C15.3337 7.76602 15.0035 6.90385 15.0251 6.01427C15.0305 5.98126 15.0305 5.9476 15.0251 5.91459V1.11994L22.9996 9.4732ZM22.9996 10.9983H18.2847C16.9979 10.9592 15.7786 10.4136 14.892 9.48031C14.0053 8.54698 13.5229 7.30134 13.5498 6.01427V1.10001H8.67542C7.93581 1.10911 7.20523 1.26382 6.52541 1.5553C5.84559 1.84678 5.22984 2.26932 4.71333 2.79879C4.19682 3.32825 3.78967 3.95428 3.51512 4.64111C3.24058 5.32795 3.10401 6.06213 3.11323 6.80175V13.61C3.78545 13.3526 4.50225 13.2319 5.22169 13.2549C5.94113 13.2779 6.64875 13.4442 7.30314 13.744C7.95754 14.0438 8.54556 14.4711 9.03279 15.0009C9.52003 15.5308 9.89669 16.1525 10.1407 16.8296C10.6473 18.1997 10.6116 19.7115 10.0411 21.0561H17.4573C18.9476 21.0325 20.3677 20.4191 21.4065 19.3504C22.4454 18.2816 23.0182 16.8447 22.9996 15.3544V10.9983ZM5.05701 14.7862C3.98102 14.7862 2.94911 15.2136 2.18827 15.9745C1.42743 16.7353 1 17.7672 1 18.8432C1 19.9192 1.42743 20.9511 2.18827 21.7119C2.94911 22.4728 3.98102 22.9002 5.05701 22.9002C6.133 22.9002 7.16491 22.4728 7.92575 21.7119C8.68659 20.9511 9.11402 19.9192 9.11402 18.8432C9.11402 17.7672 8.68659 16.7353 7.92575 15.9745C7.16491 15.2136 6.133 14.7862 5.05701 14.7862ZM6.54225 19.6107H5.73484V20.3783C5.73618 20.4755 5.71802 20.572 5.68142 20.6621C5.64483 20.7522 5.59054 20.8341 5.52178 20.9029C5.45301 20.9716 5.37116 21.0259 5.28106 21.0625C5.19096 21.0991 5.09444 21.1173 4.9972 21.1159C4.89818 21.1159 4.80014 21.0963 4.70878 21.0581C4.61742 21.0199 4.53456 20.9639 4.46501 20.8934C4.39545 20.823 4.3406 20.7394 4.30362 20.6475C4.26664 20.5556 4.24827 20.4574 4.24959 20.3583V19.6008H3.50199C3.31477 19.5793 3.14198 19.4898 3.01654 19.3491C2.8911 19.2085 2.82177 19.0267 2.82177 18.8382C2.82177 18.6498 2.8911 18.4679 3.01654 18.3273C3.14198 18.1867 3.31477 18.0971 3.50199 18.0757H4.24959V17.328C4.23744 17.2233 4.24758 17.1172 4.27935 17.0166C4.31112 16.9161 4.36381 16.8234 4.43394 16.7446C4.50408 16.6659 4.59008 16.6029 4.68629 16.5597C4.78251 16.5166 4.88677 16.4943 4.99222 16.4943C5.09767 16.4943 5.20192 16.5166 5.29814 16.5597C5.39436 16.6029 5.48036 16.6659 5.55049 16.7446C5.62063 16.8234 5.67331 16.9161 5.70508 17.0166C5.73686 17.1172 5.747 17.2233 5.73484 17.328V18.0856H6.49241C6.67963 18.1071 6.85242 18.1966 6.97786 18.3372C7.1033 18.4779 7.17263 18.6597 7.17263 18.8482C7.17263 19.0366 7.1033 19.2185 6.97786 19.3591C6.85242 19.4997 6.67963 19.5893 6.49241 19.6107H6.54225Z" fill="black"/>
</svg>
