<svg width="24" height="24" viewBox="0 0 24 24" fill="none" xmlns="http://www.w3.org/2000/svg">
<path d="M17.6685 9.17275H22.205V18.106C22.2064 18.7162 22.0873 19.3208 21.8544 19.8848C21.6215 20.4489 21.2795 20.9614 20.848 21.393C20.4165 21.8245 19.904 22.1665 19.3399 22.3994C18.7758 22.6323 18.1713 22.7514 17.561 22.75H6.42404C5.81378 22.7514 5.20926 22.6323 4.64518 22.3994C4.08111 22.1665 3.56859 21.8245 3.13708 21.393C2.70556 20.9614 2.36354 20.4489 2.13066 19.8848C1.89778 19.3208 1.77862 18.7162 1.78004 18.106V9.17275H6.31654C6.49138 9.68391 6.82165 10.1276 7.26112 10.4418C7.7006 10.756 8.2273 10.9249 8.76753 10.925H15.2175C15.7578 10.9249 16.2845 10.756 16.7239 10.4418C17.1634 10.1276 17.4937 9.68391 17.6685 9.17275ZM17.561 1.25001H6.42404C5.81378 1.24859 5.20926 1.36775 4.64518 1.60063C4.08111 1.83351 3.56859 2.17553 3.13708 2.60705C2.70556 3.03856 2.36354 3.55108 2.13066 4.11515C1.89778 4.67923 1.77862 5.28375 1.78004 5.89401V7.56025H6.31654C6.48404 7.04107 6.81115 6.58801 7.25126 6.26565C7.69137 5.94329 8.22201 5.76808 8.76753 5.76501H15.2175C15.7649 5.76582 16.2979 5.93998 16.7402 6.2625C17.1825 6.58502 17.5112 7.03933 17.6793 7.56025H22.205V5.89401C22.2064 5.28375 22.0873 4.67923 21.8544 4.11515C21.6215 3.55108 21.2795 3.03856 20.848 2.60705C20.4165 2.17553 19.904 1.83351 19.3399 1.60063C18.7758 1.36775 18.1713 1.24859 17.561 1.25001Z" fill="black"/>
</svg>
