<svg width="24" height="24" viewBox="0 0 24 24" fill="none" xmlns="http://www.w3.org/2000/svg">
<path d="M22.6857 7.61428C22.6604 5.92552 21.9717 4.31452 20.7684 3.12931C19.5652 1.9441 17.9439 1.27984 16.255 1.28003H7.55209C5.86895 1.3137 4.26613 2.00605 3.08781 3.20841C1.9095 4.41078 1.24966 6.02726 1.25 7.71074V16.3708C1.27254 18.0614 1.96 19.6751 3.16356 20.8626C4.36712 22.0501 5.98993 22.7159 7.68071 22.7157H16.3943C18.0868 22.696 19.7033 22.0098 20.8931 20.8059C22.0829 19.602 22.7501 17.9776 22.75 16.285L22.6857 7.61428ZM19.256 13.3055C19.2545 13.4245 19.2239 13.5414 19.1668 13.6459C19.1097 13.7504 19.0279 13.8394 18.9285 13.9049C18.8291 13.9705 18.7151 14.0107 18.5966 14.0221C18.4781 14.0334 18.3585 14.0155 18.2485 13.97L14.3365 12.2658C14.2618 12.2341 14.1804 12.2212 14.0996 12.2285C14.0187 12.2357 13.9409 12.2628 13.8731 12.3073C13.8052 12.3519 13.7494 12.4125 13.7106 12.4838C13.6717 12.555 13.6511 12.6348 13.6505 12.716V15.4062C13.6501 15.48 13.6662 15.553 13.6977 15.6198C13.7293 15.6866 13.7754 15.7454 13.8328 15.792L15.569 17.2068C15.6477 17.2725 15.7113 17.3544 15.7557 17.4468C15.8001 17.5393 15.8241 17.6401 15.8263 17.7426V19.3503C15.8176 19.4709 15.7777 19.5871 15.7105 19.6876C15.6433 19.7881 15.5511 19.8694 15.443 19.9234C15.3348 19.9775 15.2145 20.0025 15.0938 19.996C14.9731 19.9894 14.8562 19.9516 14.7545 19.8862L12.4073 17.9784C12.2882 17.88 12.1385 17.8261 11.9839 17.8261C11.8294 17.8261 11.6797 17.88 11.5606 17.9784L9.18121 19.8862C9.07921 19.9659 8.95704 20.0156 8.82839 20.0297C8.69974 20.0438 8.5697 20.0218 8.45285 19.9662C8.336 19.9105 8.23696 19.8234 8.16684 19.7147C8.09671 19.6059 8.05827 19.4797 8.05583 19.3503V17.7534C8.05438 17.6498 8.07571 17.5471 8.1183 17.4526C8.1609 17.3582 8.22373 17.2742 8.30234 17.2068L10.1887 15.6741C10.246 15.6275 10.2922 15.5687 10.3237 15.5019C10.3552 15.4351 10.3714 15.3621 10.3709 15.2883V12.6731C10.3703 12.5919 10.3497 12.5122 10.3109 12.4409C10.2721 12.3696 10.2162 12.309 10.1484 12.2645C10.0805 12.2199 10.0027 12.1928 9.92187 12.1856C9.84102 12.1784 9.75964 12.1912 9.68495 12.223L5.67647 13.97C5.56644 14.0155 5.44692 14.0334 5.32838 14.0221C5.20984 14.0107 5.09588 13.9705 4.99647 13.9049C4.89706 13.8394 4.81524 13.7504 4.75815 13.6459C4.70106 13.5414 4.67045 13.4245 4.66899 13.3055V11.612C4.66562 11.4669 4.70564 11.3241 4.78393 11.2019C4.86221 11.0797 4.97521 10.9837 5.10842 10.9261L10.0815 8.78252C10.1688 8.74444 10.2429 8.68137 10.2944 8.60126C10.3459 8.52115 10.3725 8.42759 10.3709 8.33237V5.72794C10.3702 5.375 10.5089 5.03606 10.7567 4.78477L11.2498 4.28103C11.3496 4.17894 11.4688 4.09783 11.6004 4.04246C11.732 3.98708 11.8733 3.95855 12.0161 3.95855C12.1589 3.95855 12.3002 3.98708 12.4318 4.04246C12.5634 4.09783 12.6826 4.17894 12.7824 4.28103L13.2754 4.78477C13.5233 5.03606 13.6619 5.375 13.6613 5.72794V8.37524C13.661 8.47017 13.6882 8.56315 13.7396 8.643C13.7909 8.72285 13.8642 8.78618 13.9506 8.82539L18.8273 10.969C18.9571 11.0251 19.0678 11.1179 19.1458 11.2359C19.2238 11.3539 19.2658 11.492 19.2667 11.6335L19.256 13.3055Z" fill="black"/>
</svg>
