<svg width="24" height="24" viewBox="0 0 24 24" fill="none" xmlns="http://www.w3.org/2000/svg">
<path d="M19.8497 9.94334H4.13743C3.77968 9.94335 3.42545 9.87271 3.09507 9.73549C2.76469 9.59826 2.46465 9.39716 2.21218 9.1437C1.95971 8.89024 1.75977 8.58943 1.62383 8.25852C1.48789 7.92761 1.41863 7.57311 1.42002 7.21536V4.04329C1.4393 3.3355 1.73409 2.66318 2.24163 2.16947C2.74917 1.67576 3.42937 1.39964 4.13743 1.3999H19.8497C20.5614 1.39977 21.2447 1.6788 21.7528 2.17703C22.2609 2.67527 22.5533 3.35294 22.5672 4.06444V7.23651C22.5644 7.95538 22.2768 8.64385 21.7675 9.15118C21.2582 9.6585 20.5686 9.94335 19.8497 9.94334ZM19.8497 9.94334H19.9132H4.05284H19.8497ZM19.9132 11.5188V20.1997C19.9132 20.8363 19.6603 21.4468 19.2102 21.8969C18.7601 22.347 18.1496 22.5999 17.513 22.5999H6.47418C5.83761 22.5999 5.22711 22.347 4.77699 21.8969C4.32686 21.4468 4.07398 20.8363 4.07398 20.1997V11.5188H19.9343H19.9132ZM15.1657 15.2301C15.1657 15.0198 15.0821 14.8181 14.9334 14.6694C14.7847 14.5207 14.583 14.4371 14.3726 14.4371H10.5344C10.3241 14.4371 10.1224 14.5207 9.97369 14.6694C9.82497 14.8181 9.74142 15.0198 9.74142 15.2301C9.74142 15.4404 9.82497 15.6422 9.97369 15.7909C10.1224 15.9396 10.3241 16.0231 10.5344 16.0231H14.3303C14.4376 16.0274 14.5447 16.0101 14.6452 15.9723C14.7456 15.9345 14.8375 15.8769 14.9154 15.803C14.9933 15.729 15.0555 15.6403 15.0985 15.5419C15.1415 15.4435 15.1643 15.3375 15.1657 15.2301Z" fill="black"/>
</svg>
