<svg width="24" height="24" viewBox="0 0 24 24" fill="none" xmlns="http://www.w3.org/2000/svg">
<path fill-rule="evenodd" clip-rule="evenodd" d="M1.77604 19.4923C2.3241 19.7544 2.98088 19.5226 3.24299 18.9745L8.09613 8.82703L14.5001 14.8041C14.7271 15.0159 15.033 15.122 15.3424 15.0961C15.6518 15.0702 15.9358 14.9147 16.1244 14.6681L20.6506 8.74921V10.4999C20.6506 11.1074 21.1431 11.5999 21.7506 11.5999C22.3582 11.5999 22.8506 11.1074 22.8506 10.4999V5.4999C22.8506 4.89239 22.3582 4.3999 21.7506 4.3999H16.2506C15.6431 4.3999 15.1506 4.89239 15.1506 5.4999C15.1506 6.10742 15.6431 6.5999 16.2506 6.5999H19.5247L15.114 12.3677L8.5012 6.19574C8.2451 5.95672 7.89048 5.85397 7.54627 5.91905C7.20206 5.98414 6.90944 6.20928 6.7583 6.5253L1.2583 18.0253C0.996183 18.5734 1.22799 19.2301 1.77604 19.4923Z" fill="black"/>
</svg>
