<svg width="24" height="24" viewBox="0 0 24 24" fill="none" xmlns="http://www.w3.org/2000/svg">
<path fill-rule="evenodd" clip-rule="evenodd" d="M17.101 1.89898C16.7691 1.56704 16.2309 1.56704 15.899 1.89898C15.567 2.23093 15.567 2.76912 15.899 3.10107L18.9479 6.15002H2.99999C2.53055 6.15002 2.14999 6.53058 2.14999 7.00002C2.14999 7.46947 2.53055 7.85002 2.99999 7.85002H18.9479L15.899 10.899C15.567 11.2309 15.567 11.7691 15.899 12.1011C16.2309 12.433 16.7691 12.433 17.101 12.1011L21.601 7.60107C21.933 7.26912 21.933 6.73093 21.601 6.39898L17.101 1.89898ZM6.89895 11.899C7.2309 11.567 7.76909 11.567 8.10104 11.899C8.43298 12.2309 8.43298 12.7691 8.10104 13.1011L5.05207 16.15H21C21.4694 16.15 21.85 16.5306 21.85 17C21.85 17.4695 21.4694 17.85 21 17.85H5.05207L8.10104 20.899C8.43298 21.2309 8.43298 21.7691 8.10104 22.1011C7.76909 22.433 7.2309 22.433 6.89895 22.1011L2.39895 17.6011C2.06701 17.2691 2.06701 16.7309 2.39895 16.399L6.89895 11.899Z" fill="black"/>
</svg>
