<svg width="24" height="24" viewBox="0 0 24 24" fill="none" xmlns="http://www.w3.org/2000/svg">
<path fill-rule="evenodd" clip-rule="evenodd" d="M19.2071 2.79289C18.8166 2.40237 18.1834 2.40237 17.7929 2.79289C17.4024 3.18342 17.4024 3.81658 17.7929 4.20711L19.0858 5.5H15.5C15.2017 5.5 14.919 5.63315 14.729 5.86312L10.703 10.7367L6.23994 5.82733C6.05042 5.61885 5.78174 5.5 5.5 5.5H2.5C1.94772 5.5 1.5 5.94772 1.5 6.5C1.5 7.05228 1.94772 7.5 2.5 7.5H5.05763L9.41621 12.2944L5.52901 17H2.5C1.94772 17 1.5 17.4477 1.5 18C1.5 18.5523 1.94772 19 2.5 19H6C6.29828 19 6.58099 18.8668 6.77096 18.6369L15.971 7.5H19.0858L17.7929 8.79289C17.4024 9.18342 17.4024 9.81658 17.7929 10.2071C18.1834 10.5976 18.8166 10.5976 19.2071 10.2071L22.2071 7.20711C22.5976 6.81658 22.5976 6.18342 22.2071 5.79289L19.2071 2.79289ZM12.5895 13.8916C13.0089 13.5321 13.6402 13.5807 13.9996 14L16.9601 16.9999H19.0859L18.293 16.207C17.9025 15.8165 17.9025 15.1833 18.293 14.7928C18.6835 14.4023 19.3167 14.4023 19.7072 14.7928L22.2072 17.2928C22.5977 17.6833 22.5977 18.3165 22.2072 18.707L19.7072 21.207C19.3167 21.5975 18.6835 21.5975 18.293 21.207C17.9025 20.8165 17.9025 20.1833 18.293 19.7928L19.0859 18.9999H16.5001C16.2082 18.9999 15.9308 18.8723 15.7409 18.6507L12.4811 15.3016C12.1217 14.8823 12.1702 14.251 12.5895 13.8916Z" fill="black"/>
</svg>
