<svg width="24" height="24" viewBox="0 0 24 24" fill="none" xmlns="http://www.w3.org/2000/svg">
<path d="M4.47053 10.3816C4.43566 10.5461 4.34656 10.6942 4.21751 10.802C4.08846 10.9099 3.92694 10.9712 3.75884 10.9763H3.5931C3.49627 10.9555 3.4045 10.9158 3.32309 10.8594C3.24169 10.8029 3.17225 10.731 3.11878 10.6476C3.06531 10.5642 3.02887 10.4711 3.01156 10.3736C2.99424 10.2761 2.9964 10.1761 3.0179 10.0794C3.38162 8.45843 4.17777 6.96631 5.32171 5.76165C6.46565 4.55698 7.91463 3.68479 9.51463 3.23779C11.1146 2.79079 12.8059 2.78569 14.4085 3.22301C16.0112 3.66034 17.4654 4.52376 18.6166 5.7215V3.04047C18.6153 2.94188 18.6335 2.84401 18.67 2.75244C18.7066 2.66087 18.7608 2.57739 18.8296 2.50678C18.8984 2.43616 18.9804 2.37979 19.071 2.34089C19.1616 2.30198 19.259 2.2813 19.3576 2.28003C19.5592 2.28003 19.7527 2.36015 19.8953 2.50276C20.0379 2.64537 20.118 2.83879 20.118 3.04047V7.57385C20.1154 7.77383 20.0342 7.96476 19.8919 8.10526C19.7495 8.24577 19.5576 8.32455 19.3576 8.32453H14.7462C14.6398 8.33664 14.532 8.32613 14.4299 8.29369C14.3278 8.26124 14.2337 8.20759 14.1538 8.13626C14.0739 8.06493 14.01 7.97752 13.9662 7.87976C13.9224 7.78199 13.8998 7.67609 13.8998 7.56897C13.8998 7.46185 13.9224 7.35595 13.9662 7.25818C14.01 7.16042 14.0739 7.07301 14.1538 7.00168C14.2337 6.93035 14.3278 6.8767 14.4299 6.84426C14.532 6.81181 14.6398 6.8013 14.7462 6.81341H17.5637C16.6087 5.79677 15.395 5.05932 14.0527 4.68016C12.7103 4.301 11.2901 4.29444 9.94438 4.66119C8.59863 5.02794 7.37811 5.75416 6.41378 6.76194C5.44944 7.76971 4.77767 9.02102 4.47053 10.3816ZM20.391 13.0334C20.2942 13.0121 20.1942 13.0104 20.0967 13.0284C19.9993 13.0465 19.9065 13.0839 19.8238 13.1384C19.7411 13.193 19.6701 13.2635 19.6152 13.346C19.5602 13.4284 19.5223 13.521 19.5038 13.6184C19.2192 15.008 18.5554 16.2916 17.586 17.3272C16.6166 18.3627 15.3794 19.1096 14.0115 19.4851C12.6437 19.8606 11.1986 19.8501 9.83632 19.4547C8.47407 19.0594 7.24789 18.2945 6.29363 17.2451H9.21839C9.42007 17.2451 9.61349 17.1649 9.7561 17.0223C9.89871 16.8797 9.97883 16.6863 9.97883 16.4846C9.97884 16.3852 9.9591 16.2868 9.92077 16.1951C9.88244 16.1033 9.82627 16.0202 9.75552 15.9503C9.68478 15.8805 9.60087 15.8254 9.50866 15.7882C9.41646 15.7511 9.31779 15.7326 9.21839 15.7339H4.98724C4.88784 15.7326 4.78918 15.7511 4.69697 15.7882C4.60476 15.8254 4.52085 15.8805 4.45011 15.9503C4.37937 16.0202 4.3232 16.1033 4.28486 16.1951C4.24653 16.2868 4.22679 16.3852 4.2268 16.4846V20.8718C4.21469 20.9782 4.22521 21.086 4.25765 21.1881C4.2901 21.2901 4.34374 21.3842 4.41508 21.4641C4.48641 21.544 4.57382 21.608 4.67158 21.6518C4.76934 21.6955 4.87525 21.7182 4.98237 21.7182C5.08948 21.7182 5.19539 21.6955 5.29315 21.6518C5.39091 21.608 5.47832 21.544 5.54966 21.4641C5.62099 21.3842 5.67463 21.2901 5.70708 21.1881C5.73953 21.086 5.75004 20.9782 5.73793 20.8718V18.8244C6.93155 19.9313 8.39791 20.7009 9.98683 21.0547C11.5758 21.4084 13.2301 21.3334 14.7806 20.8374C16.331 20.3415 17.7217 19.4423 18.8103 18.232C19.899 17.0218 20.6463 15.5439 20.9759 13.9498C21.0017 13.8511 21.0069 13.748 20.991 13.6472C20.9751 13.5464 20.9385 13.4499 20.8836 13.3638C20.8287 13.2778 20.7566 13.204 20.6718 13.1472C20.587 13.0903 20.4914 13.0516 20.391 13.0334Z" fill="black"/>
</svg>
