<svg width="24" height="24" viewBox="0 0 24 24" fill="none" xmlns="http://www.w3.org/2000/svg">
<path d="M21.6175 10.8574L19.8884 12.6636V7.15691C19.9061 5.89002 19.4212 4.66771 18.5398 3.75746C17.6585 2.84722 16.4524 2.32317 15.1856 2.29999H5.68104C4.42102 2.32604 3.22227 2.84867 2.34567 3.75415C1.46906 4.65963 0.985541 5.87468 1.00033 7.13489V16.9479C0.994279 18.2024 1.48168 19.409 2.35735 20.3073C3.23303 21.2057 4.42679 21.7237 5.68104 21.7497H15.1856C16.1466 21.7517 17.0848 21.4578 17.8729 20.9081C18.6611 20.3584 19.2609 19.5794 19.591 18.677C19.6343 18.5751 19.657 18.4656 19.6577 18.3549C19.6584 18.2442 19.6371 18.1345 19.5951 18.032C19.5531 17.9296 19.4912 17.8365 19.413 17.7582C19.3348 17.6798 19.2418 17.6178 19.1395 17.5756C19.0412 17.5368 18.9362 17.518 18.8306 17.5203C18.725 17.5226 18.6209 17.546 18.5245 17.5891C18.4281 17.6322 18.3412 17.6941 18.269 17.7712C18.1969 17.8483 18.1408 17.9391 18.1042 18.0382C17.8867 18.6295 17.4939 19.1404 16.9783 19.5026C16.4626 19.8647 15.8488 20.0608 15.2187 20.0647H5.68104C5.26739 20.0589 4.85891 19.9717 4.47895 19.8081C4.09899 19.6445 3.75498 19.4076 3.46658 19.111C3.17817 18.8144 2.95101 18.4639 2.79808 18.0796C2.64514 17.6952 2.56943 17.2844 2.57525 16.8708V7.13489C2.56347 6.29843 2.88375 5.49141 3.46591 4.89067C4.04807 4.28993 4.84463 3.94447 5.68104 3.92998H15.1856C16.0201 3.94734 16.8139 4.29407 17.3937 4.8945C17.9735 5.49492 18.2922 6.3003 18.2804 7.13489V12.7628L16.4191 10.8574C16.2644 10.7447 16.0754 10.6891 15.8843 10.7003C15.6932 10.7115 15.5119 10.7888 15.3714 10.9188C15.2309 11.0489 15.14 11.2237 15.1141 11.4134C15.0883 11.6031 15.1291 11.7959 15.2297 11.9588L18.4016 15.2628C18.4778 15.3439 18.57 15.4083 18.6723 15.4519C18.7747 15.4955 18.885 15.5173 18.9963 15.5161C19.1075 15.5167 19.2176 15.4945 19.3198 15.4509C19.4221 15.4074 19.5144 15.3434 19.591 15.2628L22.7629 11.9588C22.9149 11.8025 23 11.5931 23 11.3751C23 11.157 22.9149 10.9476 22.7629 10.7913C22.6006 10.6518 22.3905 10.5808 22.1768 10.5931C21.9632 10.6054 21.7626 10.7002 21.6175 10.8574Z" fill="black"/>
</svg>
