<svg width="24" height="24" viewBox="0 0 24 24" fill="none" xmlns="http://www.w3.org/2000/svg">
<path d="M20 12.54V15.11C20.0161 16.119 19.6334 17.0937 18.935 17.8221C18.2365 18.5505 17.2788 18.9738 16.27 19H6.39999L7.79999 20.6C7.93574 20.7431 8.01142 20.9328 8.01142 21.13C8.01142 21.3272 7.93574 21.517 7.79999 21.66C7.73618 21.7249 7.65982 21.7761 7.57557 21.8105C7.49133 21.8448 7.40096 21.8617 7.30999 21.86C7.20971 21.8597 7.11063 21.8382 7.01928 21.7968C6.92793 21.7554 6.84637 21.6952 6.77999 21.62L4.12999 18.62C4.01096 18.4806 3.94557 18.3033 3.94557 18.12C3.94557 17.9367 4.01096 17.7594 4.12999 17.62L6.77999 14.92C6.84517 14.8535 6.92296 14.8007 7.00881 14.7646C7.09467 14.7285 7.18686 14.7099 7.27999 14.7099C7.37312 14.7099 7.46531 14.7285 7.55116 14.7646C7.63702 14.8007 7.71481 14.8535 7.77999 14.92C7.91574 15.0631 7.99142 15.2528 7.99142 15.45C7.99142 15.6472 7.91574 15.837 7.77999 15.98L6.23999 17.51H16.24C16.8642 17.4969 17.4577 17.2369 17.8907 16.7871C18.3236 16.3373 18.5607 15.7343 18.55 15.11V12.54C18.55 12.3491 18.6258 12.1659 18.7609 12.0309C18.8959 11.8959 19.079 11.82 19.27 11.82C19.4609 11.82 19.6441 11.8959 19.7791 12.0309C19.9141 12.1659 19.99 12.3491 19.99 12.54H20ZM17 2.35002C16.867 2.21812 16.6873 2.1441 16.5 2.1441C16.3127 2.1441 16.133 2.21812 16 2.35002C15.8619 2.4919 15.7847 2.68206 15.7847 2.88002C15.7847 3.07799 15.8619 3.26814 16 3.41002L17.46 4.92002H7.65999C6.64501 4.94104 5.67966 5.36313 4.97505 6.09398C4.27044 6.82483 3.88391 7.80496 3.89999 8.82002V11.24C3.88795 11.3424 3.89772 11.4461 3.92865 11.5444C3.95959 11.6427 4.01099 11.7334 4.07948 11.8104C4.14797 11.8874 4.23198 11.9491 4.32601 11.9913C4.42003 12.0335 4.52193 12.0553 4.62499 12.0553C4.72805 12.0553 4.82995 12.0335 4.92397 11.9913C5.01799 11.9491 5.10201 11.8874 5.1705 11.8104C5.23899 11.7334 5.29039 11.6427 5.32133 11.5444C5.35226 11.4461 5.36203 11.3424 5.34999 11.24V8.82002C5.34336 8.51057 5.39793 8.20286 5.51056 7.91456C5.62319 7.62626 5.79166 7.36304 6.00631 7.14004C6.22095 6.91703 6.47753 6.73863 6.76132 6.61506C7.04511 6.4915 7.35051 6.42522 7.65999 6.42002H17.66L16.19 7.92002C16.0519 8.0619 15.9747 8.25206 15.9747 8.45002C15.9747 8.64799 16.0519 8.83814 16.19 8.98002C16.2566 9.05079 16.3373 9.1069 16.4268 9.14478C16.5164 9.18265 16.6128 9.20147 16.71 9.20002C16.8009 9.20113 16.8911 9.184 16.9752 9.14965C17.0594 9.1153 17.1358 9.06442 17.2 9.00002L19.85 6.30002C19.9183 6.22995 19.972 6.14703 20.0081 6.05605C20.0441 5.96508 20.0618 5.86786 20.06 5.77002C20.064 5.56935 19.9885 5.37523 19.85 5.23002L17 2.35002Z" fill="black"/>
</svg>
