<svg width="24" height="24" viewBox="0 0 24 24" fill="none" xmlns="http://www.w3.org/2000/svg">
<path d="M21.4423 16.4076C21.149 16.6748 20.7955 16.8719 20.4099 16.9834C20.0797 17.0352 19.7431 17.0352 19.413 16.9834C17.9199 16.8113 16.4381 16.5576 14.9745 16.2233C13.7473 15.9561 12.4637 16.0855 11.3193 16.5918C11.1194 16.7297 10.9091 16.8529 10.6903 16.9603C10.4415 17.0599 10.1761 17.1146 9.90704 17.1215C9.40861 17.1344 8.91367 17.0374 8.4594 16.838C8.00514 16.6385 7.60337 16.3417 7.2843 15.97C6.98918 15.5546 6.79522 15.0796 6.7171 14.5809C6.63897 14.0821 6.67872 13.5726 6.83333 13.091C5.97678 13.234 5.09647 13.1545 4.2818 12.8606C3.42379 12.6158 2.65451 12.1408 2.06256 11.4903C0.412966 9.40587 1.56412 6.78023 3.45107 5.28316C5.03755 4.00731 6.95466 3.17874 8.99323 2.88785V4.03944L7.05882 6.08928C6.86691 6.02983 6.66688 5.99877 6.46544 5.99715C5.96815 5.98919 5.4821 6.141 5.08296 6.42895C4.68382 6.71689 4.39399 7.12482 4.25858 7.58921C4.12318 8.0536 4.14981 8.5484 4.33432 8.99659C4.51882 9.44477 4.85086 9.82118 5.27873 10.0672C5.70661 10.3133 6.20631 10.4151 6.70004 10.357C7.19377 10.2988 7.65383 10.0838 8.0086 9.74559C8.36336 9.40734 8.59292 8.96476 8.66154 8.48675C8.73015 8.00875 8.63398 7.52214 8.38799 7.10268L10.4173 5.02981C10.5602 4.87427 10.6403 4.67386 10.6428 4.46553V2.72663H11.6872C12.2331 2.72663 12.8739 2.79572 13.3842 2.8533V8.61127L12.6841 9.39435C12.465 9.32628 12.2374 9.28754 12.0076 9.27919C11.5593 9.26774 11.1177 9.38627 10.7391 9.61962C10.3606 9.85298 10.0624 10.1906 9.88258 10.5892C9.70278 10.9879 9.64957 11.4295 9.72976 11.8577C9.80995 12.2858 10.0199 12.6811 10.3327 12.9929C10.6456 13.3047 11.0471 13.5188 11.4861 13.608C11.925 13.6972 12.3814 13.6574 12.7969 13.4936C13.2124 13.3298 13.5681 13.0496 13.8186 12.6886C14.0691 12.3276 14.2029 11.9024 14.2031 11.4672C14.2041 11.1136 14.1144 10.7654 13.942 10.4538L14.8202 9.46345C14.9591 9.31556 15.0354 9.12228 15.0338 8.9222V3.16423C15.5089 3.26045 15.9737 3.39923 16.4223 3.5788C16.8952 3.77996 17.3481 4.02282 17.7752 4.30431V10.5575C17.3643 10.7244 17.0139 11.0064 16.7687 11.3673C16.5235 11.7283 16.3947 12.152 16.3986 12.5843C16.3764 12.878 16.4168 13.173 16.5173 13.4509C16.6179 13.7288 16.7764 13.9835 16.983 14.1993C17.1896 14.415 17.4398 14.5871 17.7181 14.7048C17.9963 14.8224 18.2965 14.8832 18.6 14.8832C18.9036 14.8832 19.2038 14.8224 19.482 14.7048C19.7602 14.5871 20.0105 14.415 20.2171 14.1993C20.4237 13.9835 20.5822 13.7288 20.6827 13.4509C20.7833 13.173 20.8237 12.878 20.8015 12.5843C20.8054 12.152 20.6766 11.7283 20.4314 11.3673C20.1862 11.0064 19.8358 10.7244 19.4248 10.5575V5.53651C19.8221 5.90008 20.1984 6.28452 20.5523 6.68811C21.8349 8.07873 22.5996 9.84671 22.724 11.7091C22.7359 13.4364 22.9139 15.1984 21.4423 16.4076ZM12.0669 16.3385H12.2331H12.0669ZM10.7615 16.9488C10.9002 16.875 11.0349 16.7943 11.165 16.707C11.0349 16.7943 10.9002 16.875 10.7615 16.9488ZM10.5242 17.0409H10.6191H10.5242ZM19.9114 17.0409H19.3774H19.8283H19.9114ZM19.2587 18.6647C18.0959 18.5572 16.942 18.3725 15.8052 18.1119L14.6185 17.8816C14.2578 17.8213 13.8926 17.7905 13.5267 17.7895C13.0377 17.759 12.5485 17.846 12.1025 18.0428L11.9483 18.1349C11.7747 18.2519 11.5922 18.3558 11.4024 18.4459L11.5922 18.5956C12.7081 19.1652 13.6933 19.9488 14.4879 20.8988C14.8202 21.417 15.0694 21.9813 15.3661 22.5225C15.5333 22.8824 15.8056 23.1867 16.1494 23.3977C16.3254 23.4939 16.5317 23.5236 16.7289 23.4811C16.926 23.4386 17.1 23.3269 17.2175 23.1674C17.2995 22.9866 17.3322 22.7883 17.3124 22.5916C17.3124 21.7394 17.1225 20.6109 17.8346 19.966C18.333 19.5169 19.0213 19.2865 19.3536 18.7107L19.2587 18.6647ZM14.9152 16.2694L17.1225 16.707L14.9152 16.2694ZM19.4248 1.40229C19.4389 1.28913 19.428 1.17437 19.3929 1.06558C19.3579 0.956794 19.2995 0.856457 19.2215 0.771189C19.1436 0.685922 19.0479 0.617663 18.9408 0.570917C18.8336 0.524171 18.7175 0.5 18.6 0.5C18.4826 0.5 18.3665 0.524171 18.2593 0.570917C18.1522 0.617663 18.0565 0.685922 17.9786 0.771189C17.9006 0.856457 17.8422 0.956794 17.8072 1.06558C17.7721 1.17437 17.7612 1.28913 17.7752 1.40229V4.26976C18.3609 4.64614 18.9128 5.0699 19.4248 5.53651V1.40229ZM10.6428 2.72663V1.40229C10.6568 1.28913 10.646 1.17437 10.6109 1.06558C10.5759 0.956794 10.5174 0.856457 10.4395 0.771189C10.3616 0.685922 10.2659 0.617663 10.1587 0.570917C10.0516 0.524171 9.93549 0.5 9.81803 0.5C9.70057 0.5 9.58445 0.524171 9.47732 0.570917C9.3702 0.617663 9.2745 0.685922 9.19656 0.771189C9.11862 0.856457 9.06019 0.956794 9.02514 1.06558C8.9901 1.17437 8.97922 1.28913 8.99323 1.40229V2.88785C9.53882 2.7988 10.0899 2.74494 10.6428 2.72663ZM15.0338 1.40229C15.0479 1.28913 15.037 1.17437 15.0019 1.06558C14.9669 0.956794 14.9085 0.856457 14.8305 0.771189C14.7526 0.685922 14.6569 0.617663 14.5497 0.570917C14.4426 0.524171 14.3265 0.5 14.209 0.5C14.0916 0.5 13.9755 0.524171 13.8683 0.570917C13.7612 0.617663 13.6655 0.685922 13.5876 0.771189C13.5096 0.856457 13.4512 0.956794 13.4162 1.06558C13.3811 1.17437 13.3702 1.28913 13.3842 1.40229V2.86482C13.9394 2.91846 14.4904 3.00693 15.0338 3.12968V1.40229Z" fill="black"/>
</svg>
