<svg width="24" height="24" viewBox="0 0 24 24" fill="none" xmlns="http://www.w3.org/2000/svg">
<path d="M11.75 0.75C9.57441 0.75 7.44767 1.39514 5.63873 2.60383C3.82979 3.81253 2.41989 5.53049 1.58733 7.54048C0.754766 9.55047 0.53693 11.7622 0.961367 13.896C1.3858 16.0298 2.43345 17.9898 3.97183 19.5282C5.51021 21.0665 7.47022 22.1142 9.60401 22.5386C11.7378 22.9631 13.9495 22.7452 15.9595 21.9127C17.9695 21.0801 19.6875 19.6702 20.8962 17.8613C22.1049 16.0523 22.75 13.9256 22.75 11.75C22.75 10.3055 22.4655 8.87506 21.9127 7.54048C21.3599 6.2059 20.5496 4.99327 19.5282 3.97182C18.5067 2.95038 17.2941 2.14013 15.9595 1.58732C14.6249 1.03452 13.1945 0.75 11.75 0.75ZM10.65 16.293C10.4489 16.6435 10.159 16.9348 9.80946 17.1376C9.45992 17.3404 9.0631 17.4474 8.659 17.448H5.557C5.47564 17.4516 5.39482 17.4331 5.32313 17.3945C5.25144 17.3558 5.19155 17.2985 5.14981 17.2286C5.10808 17.1586 5.08606 17.0787 5.08609 16.9972C5.08612 16.9158 5.10821 16.8359 5.15 16.766L8.318 11.266L11.277 6.151C11.3408 6.0463 11.4305 5.95978 11.5374 5.89974C11.6443 5.83971 11.7649 5.80817 11.8875 5.80817C12.0101 5.80817 12.1307 5.83971 12.2376 5.89974C12.3445 5.95978 12.4342 6.0463 12.498 6.151L13.829 8.45C14.0287 8.79818 14.1338 9.19259 14.1338 9.594C14.1338 9.9954 14.0287 10.3898 13.829 10.738L12.102 13.73L10.65 16.293ZM17.734 17.701H13.873C13.7431 17.7053 13.6145 17.6735 13.5015 17.6092C13.3886 17.5449 13.2956 17.4506 13.233 17.3366C13.1703 17.2227 13.1404 17.0937 13.1466 16.9639C13.1528 16.834 13.1948 16.7084 13.268 16.601L14.225 14.951L15.182 13.301C15.2444 13.1961 15.333 13.1093 15.439 13.049C15.5451 12.9887 15.665 12.957 15.787 12.957C15.909 12.957 16.0289 12.9887 16.135 13.049C16.241 13.1093 16.3296 13.1961 16.392 13.301L17.338 14.951L18.295 16.601C18.3682 16.7084 18.4102 16.834 18.4164 16.9639C18.4226 17.0937 18.3927 17.2227 18.3301 17.3366C18.2674 17.4506 18.1744 17.5449 18.0615 17.6092C17.9485 17.6735 17.8199 17.7053 17.69 17.701H17.734Z" fill="black"/>
</svg>
