<svg width="24" height="24" viewBox="0 0 24 24" fill="none" xmlns="http://www.w3.org/2000/svg">
<path d="M23.2698 6.25212C21.9188 3.99088 20.0258 2.1018 17.7617 0.755518C17.4264 0.55191 17.0327 0.466216 16.643 0.512053C16.2534 0.55789 15.8903 0.732628 15.6114 1.0085L1.01896 15.5894C0.736723 15.8664 0.555996 16.2303 0.505926 16.6225C0.455857 17.0147 0.539363 17.4123 0.742976 17.7513C2.02087 20.0813 3.93524 21.9996 6.26258 23.2824C6.59427 23.4647 6.97592 23.5352 7.35088 23.4835C7.72583 23.4317 8.07408 23.2603 8.34392 22.9949L23.0054 8.36796C23.275 8.09287 23.4469 7.73689 23.4947 7.35467C23.5424 6.97245 23.4635 6.58512 23.2698 6.25212ZM9.14887 14.0256C8.98704 14.1838 8.78211 14.2907 8.55976 14.333C8.33742 14.3753 8.10754 14.351 7.89892 14.2633C7.69031 14.1755 7.51224 14.0281 7.38702 13.8395C7.26181 13.651 7.19501 13.4297 7.19501 13.2034C7.19501 12.977 7.26181 12.7557 7.38702 12.5672C7.51224 12.3786 7.69031 12.2312 7.89892 12.1435C8.10754 12.0557 8.33742 12.0314 8.55976 12.0737C8.78211 12.116 8.98704 12.2229 9.14887 12.3812C9.25839 12.4883 9.34541 12.6162 9.40483 12.7574C9.46424 12.8985 9.49485 13.0502 9.49485 13.2034C9.49485 13.3565 9.46424 13.5082 9.40483 13.6494C9.34541 13.7906 9.25839 13.9185 9.14887 14.0256ZM11.6097 16.4864C11.4479 16.6446 11.2429 16.7516 11.0206 16.7939C10.7982 16.8361 10.5684 16.8119 10.3597 16.7241C10.1511 16.6363 9.97306 16.4889 9.84784 16.3004C9.72263 16.1118 9.65584 15.8905 9.65584 15.6642C9.65584 15.4378 9.72263 15.2165 9.84784 15.028C9.97306 14.8395 10.1511 14.6921 10.3597 14.6043C10.5684 14.5165 10.7982 14.4922 11.0206 14.5345C11.2429 14.5768 11.4479 14.6838 11.6097 14.842C11.7192 14.9491 11.8062 15.077 11.8657 15.2182C11.9251 15.3594 11.9557 15.511 11.9557 15.6642C11.9557 15.8174 11.9251 15.969 11.8657 16.1102C11.8062 16.2514 11.7192 16.3793 11.6097 16.4864ZM11.6097 11.5647C11.4479 11.723 11.2429 11.8299 11.0206 11.8722C10.7982 11.9145 10.5684 11.8902 10.3597 11.8024C10.1511 11.7147 9.97306 11.5673 9.84784 11.3787C9.72263 11.1902 9.65584 10.9689 9.65584 10.7425C9.65584 10.5162 9.72263 10.2949 9.84784 10.1064C9.97306 9.91783 10.1511 9.77043 10.3597 9.68264C10.5684 9.59486 10.7982 9.57059 11.0206 9.61287C11.2429 9.65516 11.4479 9.76211 11.6097 9.92035C11.7192 10.0274 11.8062 10.1553 11.8657 10.2965C11.9251 10.4377 11.9557 10.5894 11.9557 10.7425C11.9557 10.8957 11.9251 11.0474 11.8657 11.1885C11.8062 11.3297 11.7192 11.4576 11.6097 11.5647ZM14.0705 14.0256C13.9087 14.1838 13.7038 14.2907 13.4814 14.333C13.2591 14.3753 13.0292 14.351 12.8206 14.2633C12.6119 14.1755 12.4339 14.0281 12.3087 13.8395C12.1834 13.651 12.1167 13.4297 12.1167 13.2034C12.1167 12.977 12.1834 12.7557 12.3087 12.5672C12.4339 12.3786 12.6119 12.2312 12.8206 12.1435C13.0292 12.0557 13.2591 12.0314 13.4814 12.0737C13.7038 12.116 13.9087 12.2229 14.0705 12.3812C14.18 12.4883 14.2671 12.6162 14.3265 12.7574C14.3859 12.8985 14.4165 13.0502 14.4165 13.2034C14.4165 13.3565 14.3859 13.5082 14.3265 13.6494C14.2671 13.7906 14.18 13.9185 14.0705 14.0256ZM14.0705 9.10391C13.9087 9.26214 13.7038 9.3691 13.4814 9.41139C13.2591 9.45367 13.0292 9.4294 12.8206 9.34162C12.6119 9.25383 12.4339 9.10643 12.3087 8.91789C12.1834 8.72935 12.1167 8.50805 12.1167 8.28172C12.1167 8.05539 12.1834 7.83409 12.3087 7.64555C12.4339 7.45701 12.6119 7.30961 12.8206 7.22182C13.0292 7.13404 13.2591 7.10977 13.4814 7.15205C13.7038 7.19433 13.9087 7.3013 14.0705 7.45953C14.18 7.56662 14.2671 7.69452 14.3265 7.83571C14.3859 7.9769 14.4165 8.12854 14.4165 8.28172C14.4165 8.4349 14.3859 8.58654 14.3265 8.72773C14.2671 8.86892 14.18 8.99682 14.0705 9.10391ZM16.5313 11.5647C16.3695 11.723 16.1646 11.8299 15.9422 11.8722C15.7199 11.9145 15.49 11.8902 15.2814 11.8024C15.0728 11.7147 14.8947 11.5673 14.7695 11.3787C14.6443 11.1902 14.5775 10.9689 14.5775 10.7425C14.5775 10.5162 14.6443 10.2949 14.7695 10.1064C14.8947 9.91783 15.0728 9.77043 15.2814 9.68264C15.49 9.59486 15.7199 9.57059 15.9422 9.61287C16.1646 9.65516 16.3695 9.76211 16.5313 9.92035C16.6409 10.0274 16.7279 10.1553 16.7873 10.2965C16.8467 10.4377 16.8773 10.5894 16.8773 10.7425C16.8773 10.8957 16.8467 11.0474 16.7873 11.1885C16.7279 11.3297 16.6409 11.4576 16.5313 11.5647Z" fill="black"/>
</svg>
