<svg width="24" height="24" viewBox="0 0 24 24" fill="none" xmlns="http://www.w3.org/2000/svg">
<path d="M21.0311 8.90452H19.6294V18.0511C19.6308 18.1692 19.6086 18.2865 19.5642 18.396C19.5197 18.5055 19.4539 18.6052 19.3705 18.6892C19.2871 18.7733 19.1878 18.84 19.0783 18.8855C18.9688 18.931 18.8514 18.9544 18.7328 18.9544H17.1558C17.0372 18.9544 16.9198 18.931 16.8103 18.8855C16.7008 18.84 16.6015 18.7733 16.5181 18.6892C16.4347 18.6052 16.3689 18.5055 16.3244 18.396C16.28 18.2865 16.2578 18.1692 16.2592 18.0511V8.90452H13.8577V18.0511C13.8591 18.1692 13.8369 18.2865 13.7924 18.396C13.748 18.5055 13.6821 18.6052 13.5987 18.6892C13.5153 18.7733 13.416 18.84 13.3066 18.8855C13.1971 18.931 13.0796 18.9544 12.961 18.9544H11.3944C11.2758 18.9544 11.1583 18.931 11.0489 18.8855C10.9394 18.84 10.8401 18.7733 10.7567 18.6892C10.6733 18.6052 10.6075 18.5055 10.563 18.396C10.5185 18.2865 10.4964 18.1692 10.4977 18.0511V8.90452H7.97259V18.0511C7.97397 18.1701 7.95146 18.2882 7.90636 18.3984C7.86127 18.5086 7.79452 18.6087 7.71002 18.6929C7.62552 18.7771 7.52499 18.8436 7.41432 18.8885C7.30366 18.9334 7.18509 18.9558 7.0656 18.9544H5.49899C5.38036 18.9544 5.26291 18.931 5.15345 18.8855C5.04398 18.84 4.94467 18.7733 4.86127 18.6892C4.77787 18.6052 4.71204 18.5055 4.66758 18.396C4.62313 18.2865 4.60095 18.1692 4.60231 18.0511V8.90452H3.32428C1.92257 8.90452 1.33509 7.42629 2.45852 6.72824L10.4359 1.84187C10.9595 1.5203 11.5626 1.35001 12.1777 1.35001C12.7929 1.35001 13.3959 1.5203 13.9195 1.84187L21.8969 6.72824C23.0203 7.42629 22.4844 8.90452 21.0311 8.90452ZM22.4844 21.8801C22.4844 21.6759 22.4029 21.4801 22.258 21.3357C22.113 21.1913 21.9164 21.1102 21.7114 21.1102H2.273C2.06799 21.1102 1.87137 21.1913 1.72641 21.3357C1.58144 21.4801 1.5 21.6759 1.5 21.8801C1.5 22.0843 1.58144 22.2801 1.72641 22.4245C1.87137 22.5689 2.06799 22.65 2.273 22.65H21.7011C21.9071 22.65 22.1047 22.5692 22.2514 22.4251C22.398 22.281 22.4817 22.0852 22.4844 21.8801Z" fill="black"/>
</svg>
