<svg width="24" height="24" viewBox="0 0 24 24" fill="none" xmlns="http://www.w3.org/2000/svg">
<path d="M22.1538 20.1685H19.6379V9.67512C19.635 9.17439 19.434 8.69519 19.0788 8.34217C18.7237 7.98915 18.2433 7.79101 17.7426 7.79102H15.3169C15.0695 7.79102 14.8245 7.83975 14.5959 7.93444C14.3673 8.02912 14.1596 8.16791 13.9847 8.34286C13.8097 8.51782 13.6709 8.72552 13.5762 8.95411C13.4816 9.1827 13.4328 9.4277 13.4328 9.67512V20.1685H10.0482V4.0341C10.0452 3.53337 9.84422 3.05416 9.48909 2.70114C9.13396 2.34813 8.65356 2.14999 8.15282 2.14999H5.72718C5.22748 2.14999 4.74826 2.3485 4.39492 2.70183C4.04158 3.05517 3.84308 3.5344 3.84308 4.0341V20.1685H1.84615C1.62174 20.1685 1.40652 20.2576 1.24783 20.4163C1.08915 20.575 1 20.7902 1 21.0146C1 21.239 1.08915 21.4543 1.24783 21.613C1.40652 21.7716 1.62174 21.8608 1.84615 21.8608H22.1538C22.3783 21.8608 22.5935 21.7716 22.7522 21.613C22.9109 21.4543 23 21.239 23 21.0146C23 20.7902 22.9109 20.575 22.7522 20.4163C22.5935 20.2576 22.3783 20.1685 22.1538 20.1685Z" fill="black"/>
</svg>
