<svg width="24" height="24" viewBox="0 0 24 24" fill="none" xmlns="http://www.w3.org/2000/svg">
<path d="M17.0062 2.41H7.02759C5.42996 2.48528 3.92693 3.1893 2.84635 4.36847C1.76578 5.54764 1.19536 7.10628 1.25952 8.7044V15.2029C1.21466 16.0021 1.32866 16.8024 1.59492 17.5573C1.86118 18.3123 2.27444 19.007 2.81079 19.6013C3.34714 20.1955 3.99596 20.6776 4.71974 21.0197C5.44353 21.3617 6.22792 21.5569 7.02759 21.5939H17.0062C18.6108 21.5079 20.1157 20.789 21.191 19.5949C22.2662 18.4009 22.824 16.8291 22.7421 15.2244V8.7044C22.8036 7.11233 22.2367 5.55991 21.1635 4.38227C20.0904 3.20463 18.5972 2.49623 17.0062 2.41ZM6.63016 16.2985C6.63607 16.5057 6.56075 16.7071 6.42028 16.8596C6.27981 17.0121 6.08532 17.1037 5.87827 17.1148C5.77527 17.1107 5.6741 17.0863 5.58055 17.043C5.48699 16.9997 5.40289 16.9384 5.33306 16.8626C5.26322 16.7867 5.20902 16.6979 5.17356 16.6011C5.13809 16.5043 5.12206 16.4015 5.12638 16.2985V7.2221C5.12206 7.11911 5.13809 7.01627 5.17356 6.91948C5.20902 6.82269 5.26322 6.73385 5.33306 6.65802C5.40289 6.5822 5.48699 6.52089 5.58055 6.47761C5.6741 6.43432 5.77527 6.40991 5.87827 6.40576C6.08532 6.41689 6.27981 6.50847 6.42028 6.66098C6.56075 6.81349 6.63607 7.01484 6.63016 7.2221V16.2985ZM9.85255 16.2985C9.85255 16.4979 9.77333 16.6891 9.63233 16.8302C9.49132 16.9712 9.30007 17.0504 9.10066 17.0504C8.90125 17.0504 8.71 16.9712 8.56899 16.8302C8.42799 16.6891 8.34877 16.4979 8.34877 16.2985V11.7657C8.34877 11.5663 8.42799 11.375 8.56899 11.234C8.71 11.093 8.90125 11.0138 9.10066 11.0138C9.30007 11.0138 9.49132 11.093 9.63233 11.234C9.77333 11.375 9.85255 11.5663 9.85255 11.7657V16.2985ZM9.85255 8.77959C9.85255 8.979 9.77333 9.17025 9.63233 9.31125C9.49132 9.45226 9.30007 9.53148 9.10066 9.53148C8.90125 9.53148 8.71 9.45226 8.56899 9.31125C8.42799 9.17025 8.34877 8.979 8.34877 8.77959V7.2221C8.34877 7.02269 8.42799 6.83144 8.56899 6.69043C8.71 6.54943 8.90125 6.47021 9.10066 6.47021C9.30007 6.47021 9.49132 6.54943 9.63233 6.69043C9.77333 6.83144 9.85255 7.02269 9.85255 7.2221V8.77959ZM13.0749 16.2985C13.0749 16.4979 12.9957 16.6891 12.8547 16.8302C12.7137 16.9712 12.5225 17.0504 12.323 17.0504C12.1236 17.0504 11.9324 16.9712 11.7914 16.8302C11.6504 16.6891 11.5712 16.4979 11.5712 16.2985V7.2221C11.5712 7.02269 11.6504 6.83144 11.7914 6.69043C11.9324 6.54943 12.1236 6.47021 12.323 6.47021C12.5225 6.47021 12.7137 6.54943 12.8547 6.69043C12.9957 6.83144 13.0749 7.02269 13.0749 7.2221V16.2985ZM16.2973 16.0407C16.2973 16.2401 16.2181 16.4314 16.0771 16.5724C15.9361 16.7134 15.7448 16.7926 15.5454 16.7926C15.346 16.7926 15.1548 16.7134 15.0138 16.5724C14.8728 16.4314 14.7935 16.2401 14.7935 16.0407V14.4725C14.7935 14.2731 14.8728 14.0818 15.0138 13.9408C15.1548 13.7998 15.346 13.7206 15.5454 13.7206C15.7448 13.7206 15.9361 13.7998 16.0771 13.9408C16.2181 14.0818 16.2973 14.2731 16.2973 14.4725V16.0407ZM16.2973 11.4971C16.2973 11.6965 16.2181 11.8878 16.0771 12.0288C15.9361 12.1698 15.7448 12.249 15.5454 12.249C15.346 12.249 15.1548 12.1698 15.0138 12.0288C14.8728 11.8878 14.7935 11.6965 14.7935 11.4971V6.96431C14.7935 6.7649 14.8728 6.57365 15.0138 6.43264C15.1548 6.29164 15.346 6.21242 15.5454 6.21242C15.7448 6.21242 15.9361 6.29164 16.0771 6.43264C16.2181 6.57365 16.2973 6.7649 16.2973 6.96431V11.4971ZM19.5197 16.2985C19.5197 16.3972 19.5003 16.495 19.4625 16.5862C19.4247 16.6775 19.3693 16.7603 19.2995 16.8302C19.2297 16.9 19.1468 16.9554 19.0556 16.9931C18.9643 17.0309 18.8666 17.0504 18.7678 17.0504C18.6691 17.0504 18.5713 17.0309 18.4801 16.9931C18.3889 16.9554 18.306 16.9 18.2362 16.8302C18.1663 16.7603 18.111 16.6775 18.0732 16.5862C18.0354 16.495 18.0159 16.3972 18.0159 16.2985V7.2221C18.0159 7.12336 18.0354 7.02559 18.0732 6.93436C18.111 6.84314 18.1663 6.76025 18.2362 6.69043C18.306 6.62061 18.3889 6.56523 18.4801 6.52744C18.5713 6.48966 18.6691 6.47021 18.7678 6.47021C18.8666 6.47021 18.9643 6.48966 19.0556 6.52744C19.1468 6.56523 19.2297 6.62061 19.2995 6.69043C19.3693 6.76025 19.4247 6.84314 19.4625 6.93436C19.5003 7.02559 19.5197 7.12336 19.5197 7.2221V16.2985Z" fill="black"/>
</svg>
