<svg width="24" height="24" viewBox="0 0 24 24" fill="none" xmlns="http://www.w3.org/2000/svg">
<path d="M23.4976 13.2144C23.4976 12.8695 23.3827 12.5245 23.3827 12.2946C23.3062 11.5094 23.029 10.7571 22.5778 10.11C22.1058 9.45962 21.4715 8.94427 20.7382 8.61533C20.0173 8.28727 19.2304 8.12989 18.4387 8.15543C17.7081 8.1326 16.9811 8.26551 16.3058 8.54533C15.6306 8.82515 15.0226 9.24547 14.5224 9.77837C14.0221 10.3113 13.641 10.9445 13.4043 11.6361C13.1677 12.3276 13.0809 13.0616 13.1498 13.7893C13.0776 14.5569 13.1855 15.3307 13.465 16.0493C13.7444 16.7678 14.1876 17.4113 14.7594 17.9284C15.8093 18.7508 17.1051 19.1962 18.4387 19.1932C19.3138 19.187 20.1753 18.9757 20.954 18.5764C21.7328 18.177 22.407 17.6007 22.9228 16.8936C23.0007 16.7863 23.0476 16.6597 23.0585 16.5275C23.0693 16.3954 23.0437 16.2628 22.9844 16.1442C22.9251 16.0256 22.8344 15.9255 22.7222 15.855C22.6099 15.7844 22.4805 15.7459 22.3479 15.7439H21.658C21.4088 15.7221 21.1578 15.7516 20.9205 15.8307C20.6831 15.9098 20.4646 16.0368 20.2783 16.2038C19.8004 16.6261 19.191 16.8699 18.5537 16.8936C18.0348 16.9022 17.5217 16.7837 17.059 16.5487C16.6927 16.3173 16.3937 15.9936 16.1919 15.6102C15.9901 15.2268 15.8926 14.7971 15.9092 14.3642H22.3479C22.5015 14.3743 22.6555 14.3515 22.7996 14.2974C22.9437 14.2432 23.0746 14.1588 23.1834 14.05C23.2923 13.9411 23.3767 13.8102 23.4308 13.6661C23.485 13.522 23.5078 13.368 23.4976 13.2144ZM15.9092 12.49C15.9178 11.8835 16.1658 11.3049 16.5991 10.8804C17.095 10.5042 17.7012 10.3021 18.3237 10.3055C18.9077 10.3211 19.4716 10.5225 19.9334 10.8804C20.3666 11.3049 20.6146 11.8835 20.6232 12.49H15.9092ZM10.0454 11.2253C10.4556 11.0536 10.8128 10.7758 11.0802 10.4205C11.5449 9.83238 11.7889 9.10015 11.77 8.35089C11.8073 7.56382 11.5627 6.78925 11.0802 6.16634C10.6067 5.68107 10.0303 5.30828 9.3935 5.07545C8.75671 4.84263 8.07579 4.75571 7.40094 4.82111H1.65212C1.4985 4.81095 1.34449 4.83372 1.20038 4.88791C1.05628 4.9421 0.925415 5.02645 0.816553 5.13531C0.707691 5.24417 0.623342 5.37503 0.569156 5.51914C0.514969 5.66324 0.492195 5.81726 0.502357 5.97088V17.6985C0.492195 17.8521 0.514969 18.0061 0.569156 18.1502C0.623342 18.2943 0.707691 18.4252 0.816553 18.534C0.925415 18.6429 1.05628 18.7273 1.20038 18.7814C1.34449 18.8356 1.4985 18.8584 1.65212 18.8482H6.94104C7.59849 18.8352 8.25311 18.7582 8.89564 18.6183C9.47622 18.5089 10.0257 18.2734 10.5053 17.9284C10.9373 17.6336 11.2922 17.2393 11.5401 16.7787C12.0057 16.147 12.2484 15.3786 12.23 14.5941C12.2323 13.8645 12.0334 13.1484 11.6551 12.5245C11.2848 11.926 10.7146 11.4779 10.0454 11.2598V11.2253ZM3.37677 7.23562H6.36616C6.9484 7.23979 7.52781 7.31704 8.0908 7.46557C8.35405 7.54526 8.58002 7.71669 8.72768 7.94874C8.87535 8.18079 8.93494 8.45808 8.89564 8.73031C8.91035 8.97203 8.86564 9.21369 8.76543 9.43415C8.66522 9.65462 8.51255 9.84719 8.32076 9.99505C7.86297 10.2433 7.34634 10.3625 6.82606 10.34H3.37677V7.23562ZM8.32076 16.2038C7.8367 16.3542 7.33295 16.4317 6.82606 16.4337H3.37677V12.6395L6.94104 12.7545C7.41043 12.7551 7.87653 12.8328 8.32076 12.9844C8.60798 13.1104 8.84993 13.3209 9.01429 13.588C9.17865 13.8551 9.25759 14.166 9.24057 14.4791C9.2582 14.823 9.1819 15.1652 9.01987 15.469C8.85783 15.7729 8.61615 16.0268 8.32076 16.2038ZM15.1619 5.74092C15.1603 5.6197 15.183 5.4994 15.2287 5.38711C15.2744 5.27481 15.3421 5.1728 15.4278 5.08708C15.5135 5.00136 15.6156 4.93366 15.7278 4.88798C15.8401 4.8423 15.9604 4.81957 16.0817 4.82111H20.4508C20.6947 4.82111 20.9287 4.91802 21.1012 5.09052C21.2737 5.26302 21.3706 5.49697 21.3706 5.74092C21.3706 5.98487 21.2737 6.21883 21.1012 6.39133C20.9287 6.56383 20.6947 6.66073 20.4508 6.66073H16.0817C15.6218 6.66073 15.2768 6.31581 15.1619 5.74092Z" fill="black"/>
</svg>
