<svg width="24" height="24" viewBox="0 0 24 24" fill="none" xmlns="http://www.w3.org/2000/svg">
<path d="M22.7439 6.84729V7.5158C21.8104 7.51613 20.9137 7.15195 20.2447 6.50085C19.5758 5.84974 19.1875 4.96317 19.1626 4.03H20.3564C21.0426 4.09674 21.6759 4.42831 22.1216 4.95433C22.5674 5.48034 22.7906 6.15938 22.7439 6.84729ZM4.8374 4.03H3.64363C2.95737 4.09674 2.32414 4.42831 1.87837 4.95433C1.4326 5.48034 1.20938 6.15938 1.2561 6.84729V7.5158C2.1896 7.51613 3.08634 7.15195 3.75528 6.50085C4.42423 5.84974 4.8125 4.96317 4.8374 4.03ZM19.1626 19.9732H20.3564C21.0426 19.9065 21.6759 19.5749 22.1216 19.0489C22.5674 18.5229 22.7906 17.8438 22.7439 17.1559V16.4874C21.8104 16.4871 20.9137 16.8512 20.2447 17.5024C19.5758 18.1535 19.1875 19.04 19.1626 19.9732ZM1.2561 16.4874V17.1559C1.20938 17.8438 1.4326 18.5229 1.87837 19.0489C2.32414 19.5749 2.95737 19.9065 3.64363 19.9732H4.8374C4.8125 19.04 4.42423 18.1535 3.75528 17.5024C3.08634 16.8512 2.1896 16.4871 1.2561 16.4874ZM22.7439 8.70957V15.2936C21.4939 15.2934 20.2935 15.7833 19.4007 16.6583C18.5079 17.5332 17.9938 18.7234 17.9688 19.9732H6.03116C6.00616 18.7234 5.49206 17.5332 4.59926 16.6583C3.70645 15.7833 2.50615 15.2934 1.2561 15.2936V8.70957C2.50615 8.70982 3.70645 8.21986 4.59926 7.34491C5.49206 6.46997 6.00616 5.2798 6.03116 4.03H17.9688C17.9938 5.2798 18.5079 6.46997 19.4007 7.34491C20.2935 8.21986 21.4939 8.70982 22.7439 8.70957ZM15.5813 12.0016C15.6301 11.0004 15.281 10.0205 14.61 9.27579C13.9391 8.53105 13.0009 8.0819 12 8.02635C10.9991 8.0819 10.0609 8.53105 9.38996 9.27579C8.71902 10.0205 8.36988 11.0004 8.4187 12.0016C8.36988 13.0028 8.71902 13.9827 9.38996 14.7274C10.0609 15.4721 10.9991 15.9213 12 15.9768C13.0009 15.9213 13.9391 15.4721 14.61 14.7274C15.281 13.9827 15.6301 13.0028 15.5813 12.0016Z" fill="black"/>
</svg>
