<svg width="24" height="24" viewBox="0 0 24 24" fill="none" xmlns="http://www.w3.org/2000/svg">
<path d="M16.92 14.104C16.92 14.5164 16.757 14.912 16.4664 15.2046C16.1758 15.4972 15.7814 15.6631 15.369 15.666H8.769V12.553H15.369C15.7804 12.553 16.1749 12.7164 16.4657 13.0073C16.7566 13.2981 16.92 13.6926 16.92 14.104ZM15.49 9.429V9.253C15.4871 8.86398 15.3305 8.49188 15.0544 8.21783C14.7783 7.94377 14.405 7.78999 14.016 7.79L8.813 7.724V10.903H14.016C14.406 10.9001 14.7793 10.7439 15.0551 10.4681C15.3309 10.1923 15.4871 9.81904 15.49 9.429ZM22.75 11.75C22.75 13.9256 22.1049 16.0523 20.8962 17.8613C19.6875 19.6702 17.9695 21.0801 15.9595 21.9127C13.9495 22.7452 11.7378 22.9631 9.60401 22.5386C7.47022 22.1142 5.51021 21.0665 3.97183 19.5282C2.43345 17.9898 1.3858 16.0298 0.961367 13.896C0.53693 11.7622 0.754766 9.55047 1.58733 7.54048C2.41989 5.53049 3.82979 3.81253 5.63873 2.60383C7.44767 1.39514 9.57441 0.75 11.75 0.75C13.1945 0.75 14.6249 1.03452 15.9595 1.58732C17.2941 2.14013 18.5067 2.95038 19.5282 3.97182C20.5496 4.99327 21.3599 6.2059 21.9127 7.54048C22.4655 8.87506 22.75 10.3055 22.75 11.75ZM18.57 14.104C18.5696 13.4745 18.3837 12.8591 18.0355 12.3348C17.6872 11.8105 17.1921 11.4004 16.612 11.156C16.9548 10.6451 17.1385 10.0442 17.14 9.429V9.253C17.14 8.42738 16.812 7.63558 16.2282 7.05177C15.6444 6.46797 14.8526 6.14 14.027 6.14H13.103V4.699C13.103 4.4802 13.0161 4.27035 12.8614 4.11564C12.7066 3.96092 12.4968 3.874 12.278 3.874C12.0592 3.874 11.8494 3.96092 11.6946 4.11564C11.5399 4.27035 11.453 4.4802 11.453 4.699V6.107H10.056V4.655C10.056 4.4362 9.96908 4.22635 9.81437 4.07164C9.65965 3.91692 9.44981 3.83 9.231 3.83C9.0122 3.83 8.80236 3.91692 8.64764 4.07164C8.49292 4.22635 8.406 4.4362 8.406 4.655V6.074H5.766C5.5472 6.074 5.33736 6.16092 5.18264 6.31564C5.02792 6.47035 4.941 6.68019 4.941 6.899C4.941 7.1178 5.02792 7.32764 5.18264 7.48236C5.33736 7.63708 5.5472 7.724 5.766 7.724H7.163V10.925H5.755C5.5362 10.925 5.32636 11.0119 5.17164 11.1666C5.01692 11.3214 4.93 11.5312 4.93 11.75C4.93 11.9688 5.01692 12.1786 5.17164 12.3334C5.32636 12.4881 5.5362 12.575 5.755 12.575H7.163V15.688H5.755C5.5362 15.688 5.32636 15.7749 5.17164 15.9296C5.01692 16.0843 4.93 16.2942 4.93 16.513C4.93 16.7318 5.01692 16.9416 5.17164 17.0964C5.32636 17.2511 5.5362 17.338 5.755 17.338H8.45V18.823C8.45 19.0418 8.53692 19.2516 8.69164 19.4064C8.84636 19.5611 9.0562 19.648 9.275 19.648C9.49381 19.648 9.70365 19.5611 9.85837 19.4064C10.0131 19.2516 10.1 19.0418 10.1 18.823V17.316H11.497V18.845C11.497 19.0638 11.5839 19.2736 11.7386 19.4284C11.8934 19.5831 12.1032 19.67 12.322 19.67C12.5408 19.67 12.7506 19.5831 12.9054 19.4284C13.0601 19.2736 13.147 19.0638 13.147 18.845V17.316H15.413C16.2553 17.3016 17.0582 16.9568 17.6488 16.356C18.2393 15.7552 18.5701 14.9464 18.57 14.104Z" fill="black"/>
</svg>
