<svg width="24" height="24" viewBox="0 0 24 24" fill="none" xmlns="http://www.w3.org/2000/svg">
<path d="M12.9675 13.376L15.3863 15.526L12.9675 17.375V13.376ZM12.9675 6.41V10.5487L15.397 8.302L12.9675 6.41ZM22.75 6.883V17.1063C22.75 18.6031 22.1554 20.0386 21.097 21.097C20.0386 22.1554 18.6031 22.75 17.1063 22.75H6.89375C5.39693 22.75 3.96142 22.1554 2.90302 21.097C1.84461 20.0386 1.25 18.6031 1.25 17.1063V6.883C1.25285 5.38805 1.84871 3.9553 2.90681 2.89921C3.96491 1.84313 5.3988 1.25 6.89375 1.25H17.1063C18.6012 1.25 20.0351 1.84313 21.0932 2.89921C22.1513 3.9553 22.7472 5.38805 22.75 6.883ZM17.4503 15.612C17.4542 15.4947 17.4322 15.3779 17.3857 15.2701C17.3393 15.1623 17.2695 15.0662 17.1815 14.9885L13.806 12L17.1923 8.87175C17.2777 8.79263 17.3451 8.69592 17.3896 8.58829C17.4342 8.48065 17.4548 8.36465 17.4503 8.24825C17.4444 8.13144 17.4135 8.01725 17.3598 7.91339C17.306 7.80953 17.2305 7.71843 17.1385 7.64625L12.6558 4.131C12.5368 4.03859 12.3942 3.98138 12.2444 3.96584C12.0945 3.9503 11.9433 3.97707 11.8079 4.0431C11.6725 4.10914 11.5583 4.21179 11.4782 4.33943C11.3982 4.46707 11.3555 4.61459 11.355 4.76525V9.77475L8.216 6.969C8.05634 6.82645 7.84659 6.75316 7.63289 6.76525C7.41919 6.77735 7.21905 6.87384 7.0765 7.0335C6.93395 7.19316 6.86066 7.40291 6.87275 7.61661C6.88485 7.83031 6.98134 8.03045 7.141 8.173L11.355 11.9355V12L7.13025 15.9453C6.97927 16.0964 6.89446 16.3013 6.89446 16.515C6.89446 16.7287 6.97927 16.9336 7.13025 17.0848C7.28142 17.2357 7.48634 17.3205 7.7 17.3205C7.91366 17.3205 8.11858 17.2357 8.26975 17.0848L11.398 14.193V19.0198C11.3961 19.1705 11.4377 19.3186 11.5178 19.4463C11.5978 19.574 11.713 19.676 11.8495 19.74C11.9598 19.7951 12.081 19.8245 12.2043 19.826C12.3838 19.8261 12.558 19.7655 12.6988 19.654L17.1815 16.1818C17.3399 16.0327 17.436 15.8291 17.4503 15.612Z" fill="black"/>
</svg>
