<svg width="24" height="24" viewBox="0 0 24 24" fill="none" xmlns="http://www.w3.org/2000/svg">
<path d="M14.8058 13.9887L13.204 13.075C12.8398 12.8582 12.4238 12.7438 12 12.7438C11.5762 12.7438 11.1602 12.8582 10.796 13.075L9.19426 14.0317C8.93383 14.1873 8.63648 14.2703 8.33312 14.2721C8.02975 14.2739 7.73145 14.1944 7.46921 14.0419C7.20697 13.8894 6.99036 13.6694 6.8419 13.4048C6.69344 13.1403 6.61855 12.8408 6.62501 12.5375V3.9375C6.63068 3.22276 6.91859 2.53923 7.42602 2.03583C7.93344 1.53244 8.61924 1.24998 9.33401 1.25H14.709C15.42 1.26129 16.098 1.55167 16.5968 2.05849C17.0956 2.56531 17.3751 3.24792 17.375 3.959V12.559C17.37 12.8568 17.2868 13.1481 17.1337 13.4036C16.9806 13.6591 16.7629 13.8699 16.5027 14.0147C16.2424 14.1596 15.9486 14.2334 15.6507 14.2289C15.3529 14.2243 15.0615 14.1415 14.8058 13.9887ZM18.9875 4.862V12.5375C18.9879 13.1242 18.8324 13.7004 18.5369 14.2073C18.2415 14.7142 17.8166 15.1334 17.3059 15.4221C16.7952 15.7108 16.2169 15.8587 15.6303 15.8505C15.0436 15.8423 14.4697 15.6784 13.9673 15.3755L12.3763 14.4187C12.2634 14.3482 12.1331 14.3108 12 14.3108C11.8669 14.3108 11.7366 14.3482 11.6238 14.4187L10.0328 15.3755C9.53029 15.6784 8.95637 15.8423 8.36974 15.8505C7.7831 15.8587 7.20483 15.7108 6.6941 15.4221C6.18337 15.1334 5.75853 14.7142 5.46306 14.2073C5.16759 13.7004 5.0121 13.1242 5.01251 12.5375V4.862C3.9028 5.30151 2.95076 6.06432 2.27986 7.0515C1.60896 8.03868 1.25017 9.20467 1.25001 10.3982V16.7837C1.24859 17.5676 1.40195 18.3441 1.70128 19.0686C2.00061 19.7931 2.44003 20.4514 2.99432 21.0057C3.54862 21.56 4.2069 21.9994 4.9314 22.2987C5.6559 22.5981 6.43236 22.7514 7.21626 22.75H16.7838C17.5676 22.7514 18.3441 22.5981 19.0686 22.2987C19.7931 21.9994 20.4514 21.56 21.0057 21.0057C21.56 20.4514 21.9994 19.7931 22.2987 19.0686C22.5981 18.3441 22.7514 17.5676 22.75 16.7837V10.3982C22.7498 9.20467 22.391 8.03868 21.7201 7.0515C21.0493 6.06432 20.0972 5.30151 18.9875 4.862Z" fill="black"/>
</svg>
