<svg width="24" height="24" viewBox="0 0 24 24" fill="none" xmlns="http://www.w3.org/2000/svg">
<path d="M11.1937 4.78971H11.1185C8.76311 3.41336 6.17058 2.49085 3.47524 2.06997C3.19972 2.02817 2.91841 2.04638 2.65058 2.12334C2.38274 2.20031 2.13469 2.33422 1.92339 2.51592C1.71209 2.69762 1.54253 2.92281 1.42631 3.1761C1.31009 3.42938 1.24995 3.70479 1.25 3.98346V17.3241C1.24904 17.7783 1.40963 18.218 1.70307 18.5646C1.99651 18.9112 2.40367 19.1421 2.85175 19.2161C5.72817 19.7312 8.51342 20.6656 11.1185 21.9896H11.1937V4.78971ZM4.98023 7.25145H7.42047C7.6343 7.25145 7.83937 7.33639 7.99057 7.48759C8.14177 7.63879 8.22672 7.84386 8.22672 8.05769C8.22672 8.27152 8.14177 8.47659 7.99057 8.62779C7.83937 8.77899 7.6343 8.86394 7.42047 8.86394H4.98023C4.7664 8.86394 4.56133 8.77899 4.41013 8.62779C4.25893 8.47659 4.17399 8.27152 4.17399 8.05769C4.17399 7.84386 4.25893 7.63879 4.41013 7.48759C4.56133 7.33639 4.7664 7.25145 4.98023 7.25145ZM8.20522 12.0889H4.98023C4.87436 12.0889 4.76952 12.0681 4.6717 12.0275C4.57388 11.987 4.485 11.9276 4.41013 11.8528C4.33527 11.7779 4.27588 11.689 4.23536 11.5912C4.19484 11.4934 4.17399 11.3886 4.17399 11.2827C4.17399 11.1768 4.19484 11.072 4.23536 10.9741C4.27588 10.8763 4.33527 10.7874 4.41013 10.7126C4.485 10.6377 4.57388 10.5783 4.6717 10.5378C4.76952 10.4973 4.87436 10.4764 4.98023 10.4764H8.20522C8.41905 10.4764 8.62412 10.5614 8.77532 10.7126C8.92652 10.8638 9.01146 11.0688 9.01146 11.2827C9.01146 11.4965 8.92652 11.7016 8.77532 11.8528C8.62412 12.004 8.41905 12.0889 8.20522 12.0889ZM22.7499 3.90821V17.3671C22.7547 17.8156 22.601 18.2514 22.3158 18.5976C22.0306 18.9438 21.6323 19.1781 21.1911 19.2591C18.2956 19.7296 15.4917 20.651 12.8814 21.9896H12.8062V4.78971H12.8814C15.2318 3.42725 17.805 2.49189 20.4816 2.02697C20.7574 1.98057 21.04 1.99416 21.3101 2.06683C21.5801 2.1395 21.8314 2.26953 22.0466 2.44808C22.2619 2.62662 22.4362 2.84947 22.5575 3.10144C22.6789 3.35342 22.7445 3.62859 22.7499 3.90821Z" fill="black"/>
</svg>
