<svg width="24" height="24" viewBox="0 0 24 24" fill="none" xmlns="http://www.w3.org/2000/svg">
<path d="M13.848 9.77779C13.848 10.1649 13.7009 10.5362 13.4388 10.811C13.1766 11.0857 12.8207 11.2415 12.4486 11.2444H10.152V8.31113H12.4486C12.6333 8.31113 12.8161 8.34914 12.9866 8.42298C13.1571 8.49683 13.3118 8.60504 13.4419 8.74137C13.572 8.87771 13.6748 9.03949 13.7445 9.21737C13.8142 9.39524 13.8494 9.58571 13.848 9.77779ZM12.4486 12.9111H10.152V15.8222H12.4486C12.8198 15.8222 13.1757 15.6688 13.4381 15.3959C13.7005 15.1229 13.848 14.7527 13.848 14.3667C13.848 13.9806 13.7005 13.6104 13.4381 13.3374C13.1757 13.0645 12.8198 12.9111 12.4486 12.9111ZM23.75 10.5111V13.4333C22.9001 13.4333 22.085 13.7845 21.484 14.4096C20.8831 15.0347 20.5455 15.8826 20.5455 16.7666V18.0555C20.5441 18.5759 20.444 19.0909 20.2509 19.571C20.0578 20.051 19.7756 20.4868 19.4203 20.8532C19.0651 21.2196 18.6438 21.5095 18.1807 21.7063C17.7176 21.9031 17.2216 22.0029 16.7214 21.9999H7.27864C6.77746 22.0029 6.28067 21.9027 5.81683 21.7052C5.353 21.5078 4.93126 21.2169 4.57588 20.8493C4.2205 20.4817 3.93848 20.0446 3.74604 19.5633C3.5536 19.0819 3.45454 18.5657 3.45455 18.0444V16.7555C3.45455 15.8715 3.11692 15.0236 2.51596 14.3985C1.91499 13.7734 1.0999 13.4222 0.25 13.4222V10.5111C1.0999 10.5111 1.91499 10.1599 2.51596 9.53482C3.11692 8.9097 3.45455 8.06186 3.45455 7.17781V5.95559C3.45454 5.43427 3.5536 4.91809 3.74604 4.43673C3.93848 3.95537 4.2205 3.51832 4.57588 3.15072C4.93126 2.78313 5.353 2.49223 5.81683 2.29476C6.28067 2.09728 6.77746 1.99713 7.27864 2.00006H16.7214C17.2225 1.99713 17.7193 2.09728 18.1832 2.29476C18.647 2.49223 19.0687 2.78313 19.4241 3.15072C19.7795 3.51832 20.0615 3.95537 20.254 4.43673C20.4464 4.91809 20.5455 5.43427 20.5455 5.95559V7.18892C20.5455 8.07297 20.8831 8.92081 21.484 9.54593C22.085 10.171 22.9001 10.5222 23.75 10.5222V10.5111ZM14.5102 12.0667C14.9556 11.6414 15.2671 11.0862 15.404 10.4736C15.5409 9.86113 15.4968 9.2199 15.2774 8.6339C15.0581 8.0479 14.6737 7.54446 14.1747 7.18948C13.6757 6.83451 13.0852 6.64455 12.4807 6.64448H9.35091C9.24531 6.64298 9.14048 6.66352 9.04264 6.70487C8.94479 6.74622 8.8559 6.80754 8.78122 6.88522C8.70654 6.9629 8.64758 7.05537 8.60783 7.15715C8.56808 7.25892 8.54834 7.36796 8.54977 7.47781V16.6444C8.54834 16.7543 8.56808 16.8633 8.60783 16.9651C8.64758 17.0669 8.70654 17.1593 8.78122 17.237C8.8559 17.3147 8.94479 17.376 9.04264 17.4174C9.14048 17.4587 9.24531 17.4792 9.35091 17.4777H12.4486C13.2447 17.4777 14.0082 17.1488 14.5711 16.5633C15.134 15.9777 15.4502 15.1836 15.4502 14.3555C15.4513 13.9245 15.3654 13.498 15.1979 13.1037C15.0305 12.7094 14.7853 12.3561 14.4782 12.0667H14.5102Z" fill="black"/>
</svg>
