<svg width="24" height="24" viewBox="0 0 24 24" fill="none" xmlns="http://www.w3.org/2000/svg">
<path d="M22.7041 9.98513C22.7644 9.36038 22.6919 8.72995 22.4915 8.13515C22.3856 7.85263 22.2576 7.5789 22.1087 7.31649C21.712 6.66346 21.1529 6.12435 20.4858 5.75169C19.8188 5.37904 19.0665 5.18555 18.3025 5.19008H16.6545V4.03119C16.6517 3.26605 16.3458 2.5332 15.8037 1.99316C15.2617 1.45312 14.5277 1.1499 13.7626 1.1499H10.169C9.40479 1.1499 8.67192 1.45347 8.13158 1.99381C7.59123 2.53416 7.28767 3.26702 7.28767 4.03119V5.15818H5.66097C5.37502 5.16257 5.09018 5.19462 4.81041 5.25387H4.62966C4.36753 5.31641 4.11138 5.40179 3.86415 5.50904L3.7472 5.62599C3.52888 5.72972 3.31912 5.85059 3.11991 5.98748L3.01359 6.06191C2.80386 6.2221 2.60822 6.39995 2.42883 6.59351L2.32251 6.6892C2.14203 6.88907 1.98177 7.10632 1.84407 7.33775C1.72976 7.54669 1.63028 7.76341 1.54637 7.98631C1.39548 8.39303 1.30242 8.81892 1.26994 9.25152C1.24335 9.5131 1.24335 9.77671 1.26994 10.0383L1.42942 11.5693C3.10886 12.8398 5.04128 13.7353 7.09629 14.1954C7.09055 14.3088 7.09055 14.4223 7.09629 14.5356C7.09629 15.8412 7.61493 17.0933 8.5381 18.0165C9.46127 18.9396 10.7134 19.4583 12.0189 19.4583C13.3245 19.4583 14.5766 18.9396 15.4998 18.0165C16.4229 17.0933 16.9416 15.8412 16.9416 14.5356C16.9416 14.3974 16.9416 14.2805 16.9416 14.1529C19.0217 13.6579 20.9627 12.6983 22.6191 11.346L22.7467 9.98513H22.7041ZM8.88248 4.03119C8.88248 3.68999 9.01802 3.36277 9.25928 3.12151C9.50054 2.88025 9.82776 2.74471 10.169 2.74471H13.7626C14.1048 2.7447 14.4331 2.8799 14.676 3.12086C14.919 3.36182 15.0569 3.68902 15.0597 4.03119V5.15818H8.88248V4.03119ZM11.987 17.8528C11.3258 17.8549 10.6789 17.6607 10.1283 17.2946C9.57766 16.9286 9.14811 16.4073 8.89412 15.7969C8.64012 15.1864 8.57311 14.5143 8.70159 13.8657C8.83006 13.2171 9.14824 12.6213 9.61577 12.1537C10.0833 11.6862 10.6791 11.368 11.3277 11.2396C11.9763 11.1111 12.6484 11.1781 13.2589 11.4321C13.8694 11.6861 14.3906 12.1156 14.7567 12.6663C15.1227 13.2169 15.317 13.8638 15.3149 14.525C15.3163 14.9629 15.2312 15.3968 15.0646 15.8018C14.898 16.2068 14.6531 16.5749 14.3439 16.885C14.0348 17.1952 13.6674 17.4412 13.263 17.6091C12.8586 17.777 12.4249 17.8635 11.987 17.8635V17.8528ZM18.4407 15.333C19.8339 14.8948 21.1609 14.2688 22.3852 13.4724L21.8855 18.8416C21.7823 19.9377 21.274 20.9559 20.46 21.6972C19.6459 22.4384 18.5847 22.8495 17.4838 22.8499H6.60722C5.51573 22.8505 4.46275 22.4466 3.65175 21.7161C2.84074 20.9856 2.32928 19.9804 2.21619 18.8948L1.65269 13.6532C2.86448 14.4042 4.16905 14.9939 5.53338 15.4075C5.74405 16.9755 6.51878 18.413 7.71264 19.4512C8.9065 20.4893 10.4377 21.0569 12.0198 21.0478C13.6018 21.0386 15.1264 20.4534 16.3082 19.4016C17.49 18.3498 18.2481 16.9034 18.4407 15.333ZM12.9439 13.0684V14.6739C12.9424 14.8064 12.9087 14.9367 12.8457 15.0533C12.7828 15.17 12.6924 15.2696 12.5824 15.3437L11.062 16.258C10.9382 16.3462 10.7887 16.391 10.6368 16.3856C10.4644 16.3863 10.2964 16.3311 10.158 16.2283C10.0196 16.1255 9.91822 15.9806 9.86912 15.8153C9.82002 15.6501 9.8258 15.4733 9.88561 15.3116C9.94542 15.1499 10.056 15.0119 10.2008 14.9184L11.3491 14.1848V13.0684C11.3491 12.8569 11.4331 12.6541 11.5827 12.5046C11.7322 12.355 11.935 12.271 12.1465 12.271C12.358 12.271 12.5608 12.355 12.7104 12.5046C12.8599 12.6541 12.9439 12.8569 12.9439 13.0684Z" fill="black"/>
</svg>
