<svg width="24" height="24" viewBox="0 0 24 24" fill="none" xmlns="http://www.w3.org/2000/svg">
<path d="M13.6808 15.0817C13.8301 15.2311 13.9139 15.4337 13.9139 15.6449C13.9139 15.8561 13.8301 16.0587 13.6808 16.2081C13.5314 16.3574 13.3288 16.4412 13.1176 16.4412C12.9064 16.4412 12.7038 16.3574 12.5544 16.2081L12.0018 15.6555L11.4386 16.2081C11.3661 16.2841 11.2786 16.3442 11.1816 16.3845C11.0847 16.4247 10.9803 16.4443 10.8754 16.4419C10.7706 16.4424 10.6669 16.422 10.5702 16.3818C10.4734 16.3417 10.3857 16.2826 10.3121 16.2081C10.1629 16.0587 10.079 15.8561 10.079 15.6449C10.079 15.4337 10.1629 15.2311 10.3121 15.0817L10.8754 14.5291L10.3121 13.9659C10.1713 13.8148 10.0947 13.6149 10.0983 13.4085C10.102 13.202 10.1856 13.005 10.3317 12.859C10.4777 12.7129 10.6747 12.6293 10.8812 12.6256C11.0877 12.622 11.2875 12.6986 11.4386 12.8394L12.0018 13.4026L12.5544 12.8394C12.7055 12.6986 12.9053 12.622 13.1118 12.6256C13.3183 12.6293 13.5153 12.7129 13.6613 12.859C13.8073 13.005 13.891 13.202 13.8946 13.4085C13.8983 13.6149 13.8216 13.8148 13.6808 13.9659L13.1282 14.5291L13.6808 15.0817ZM22.7136 9.9808L22.6286 11.341C20.9494 12.6951 18.983 13.6474 16.8795 14.1253C16.8795 14.2528 16.8795 14.3697 16.8795 14.5078C16.8795 15.8128 16.3611 17.0642 15.4384 17.987C14.5157 18.9097 13.2642 19.4281 11.9593 19.4281C10.6544 19.4281 9.40289 18.9097 8.48016 17.987C7.55744 17.0642 7.03906 15.8128 7.03906 14.5078C7.03332 14.3946 7.03332 14.2811 7.03906 14.1678C5.01374 13.7075 3.10876 12.8239 1.44935 11.5748L1.28995 10.0446C1.26338 9.78311 1.26338 9.51963 1.28995 9.25818C1.32242 8.8258 1.41542 8.40011 1.56624 7.99359C1.65011 7.7708 1.74954 7.55419 1.86379 7.34535C2.00084 7.11034 2.16104 6.88962 2.342 6.68648L2.43764 6.56959C2.61695 6.37612 2.81249 6.19836 3.02212 6.03825L3.12839 5.96386C3.33161 5.83385 3.54482 5.72014 3.766 5.6238L3.88289 5.56004C4.13 5.45285 4.38602 5.3675 4.64803 5.305H4.82868C5.10832 5.24577 5.39303 5.21374 5.67883 5.20935H7.30473V4.02978C7.30473 3.26599 7.60815 2.53348 8.14823 1.9934C8.68831 1.45332 9.42082 1.1499 10.1846 1.1499H13.7765C14.5412 1.1499 15.2749 1.45297 15.8166 1.99275C16.3584 2.53253 16.6642 3.26501 16.667 4.02978V5.15622H18.3141C19.0778 5.15169 19.8297 5.34508 20.4964 5.71756C21.1632 6.09003 21.722 6.62888 22.1185 7.28159C22.2674 7.54387 22.3953 7.81747 22.5011 8.09985C22.7014 8.69436 22.7739 9.32448 22.7136 9.94892V9.9808ZM8.89876 5.15622H15.073V4.02978C15.0701 3.68777 14.9323 3.36073 14.6895 3.11989C14.4467 2.87905 14.1185 2.74392 13.7765 2.74393H10.1846C9.84358 2.74393 9.51652 2.8794 9.27538 3.12054C9.03423 3.36169 8.89876 3.68875 8.89876 4.02978V5.15622ZM15.328 14.5291C15.328 13.8712 15.1329 13.2281 14.7674 12.6812C14.4019 12.1342 13.8825 11.7078 13.2747 11.4561C12.6669 11.2043 11.9981 11.1385 11.3529 11.2668C10.7077 11.3951 10.115 11.7119 9.64982 12.1771C9.18464 12.6423 8.86785 13.235 8.73951 13.8802C8.61117 14.5254 8.67704 15.1942 8.92879 15.802C9.18054 16.4098 9.60687 16.9292 10.1539 17.2947C10.7009 17.6602 11.3439 17.8553 12.0018 17.8553C12.8831 17.8525 13.7275 17.5012 14.3507 16.878C14.9739 16.2548 15.3252 15.4104 15.328 14.5291ZM12.0018 21.0433C10.4282 21.0402 8.9087 20.4685 7.72334 19.4335C6.53797 18.3985 5.76659 16.9699 5.55131 15.4111C4.18764 14.9978 2.88371 14.4083 1.67251 13.6577L2.23573 18.8967C2.34877 19.9818 2.85999 20.9865 3.67059 21.7166C4.4812 22.4467 5.53366 22.8505 6.62462 22.8499H17.4959C18.5963 22.8495 19.657 22.4386 20.4706 21.6977C21.2842 20.9568 21.7922 19.9391 21.8954 18.8436L22.3948 13.477C21.1712 14.273 19.8448 14.8987 18.4523 15.3367C18.2557 16.91 17.4921 18.3576 16.3046 19.4081C15.1171 20.4587 13.5873 21.0401 12.0018 21.0433Z" fill="black"/>
</svg>
