<svg width="24" height="24" viewBox="0 0 24 24" fill="none" xmlns="http://www.w3.org/2000/svg">
<path d="M22.2392 1.77392C21.9663 1.4899 21.6035 1.30908 21.2125 1.26215C20.8214 1.21523 20.4262 1.30509 20.0939 1.51649C16.5712 3.62634 13.3554 6.21054 10.5368 9.1965C8.84826 10.9639 7.34252 12.8973 6.04248 14.9672C3.44672 15.1925 2.12739 17.5737 1.30147 21.0168C1.23568 21.2493 1.23291 21.4951 1.29344 21.729C1.35397 21.9629 1.47562 22.1765 1.64592 22.3479C1.81622 22.5193 2.02903 22.6423 2.26255 22.7044C2.49606 22.7664 2.74187 22.7652 2.97477 22.7009C6.4179 21.9071 8.84204 20.5556 9.01366 17.9599C11.0899 16.6648 13.0242 15.1548 14.7844 13.4548C17.7786 10.641 20.367 7.42451 22.4751 3.89772C22.6856 3.57042 22.777 3.18068 22.734 2.79394C22.6911 2.4072 22.5163 2.04703 22.2392 1.77392ZM9.27109 15.879L8.1341 14.7527C8.90131 13.6305 9.73592 12.5559 10.6333 11.5348L12.489 13.3797C11.4658 14.2746 10.3914 15.1091 9.27109 15.879Z" fill="black"/>
</svg>
