<svg width="24" height="24" viewBox="0 0 24 24" fill="none" xmlns="http://www.w3.org/2000/svg">
<path d="M17.0525 1.25001H6.9475C6.1989 1.24859 5.45738 1.395 4.76549 1.68082C4.0736 1.96665 3.44495 2.38627 2.91561 2.91561C2.38627 3.44495 1.96665 4.0736 1.68082 4.76549C1.395 5.45738 1.24859 6.1989 1.25001 6.9475V17.0525C1.24859 17.8011 1.395 18.5426 1.68082 19.2345C1.96665 19.9264 2.38627 20.555 2.91561 21.0844C3.44495 21.6137 4.0736 22.0334 4.76549 22.3192C5.45738 22.605 6.1989 22.7514 6.9475 22.75H17.0525C17.8011 22.7514 18.5426 22.605 19.2345 22.3192C19.9264 22.0334 20.555 21.6137 21.0844 21.0844C21.6137 20.555 22.0334 19.9264 22.3192 19.2345C22.605 18.5426 22.7514 17.8011 22.75 17.0525V6.9475C22.7514 6.1989 22.605 5.45738 22.3192 4.76549C22.0334 4.0736 21.6137 3.44495 21.0844 2.91561C20.555 2.38627 19.9264 1.96665 19.2345 1.68082C18.5426 1.395 17.8011 1.24859 17.0525 1.25001ZM8.4525 16.214L6.00151 13.7952C5.57612 13.3664 5.33743 12.7868 5.33743 12.1827C5.33743 11.5787 5.57612 10.9991 6.00151 10.5703L9.3985 7.17325L8.775 6.50675C8.62402 6.35558 8.53921 6.15066 8.53921 5.93701C8.53921 5.72335 8.62402 5.51843 8.775 5.36726C8.92618 5.21627 9.1311 5.13147 9.34475 5.13147C9.55841 5.13147 9.76333 5.21627 9.9145 5.36726L11.785 7.2915L15.7087 11.2045C15.8375 11.3369 15.9095 11.5143 15.9095 11.699C15.9095 11.8837 15.8375 12.0611 15.7087 12.1935L11.6775 16.2247C11.2464 16.6541 10.6627 16.8951 10.0543 16.8951C9.44581 16.8951 8.86215 16.6541 8.431 16.2247L8.4525 16.214ZM17.0525 18.2027C16.6237 18.2143 16.2078 18.0558 15.8956 17.7617C15.5834 17.4676 15.4003 17.0619 15.3862 16.6332C15.4939 15.7438 15.8687 14.908 16.4612 14.236C16.5336 14.1423 16.6264 14.0664 16.7326 14.0142C16.8389 13.962 16.9556 13.9349 17.074 13.9349C17.1924 13.9349 17.3091 13.962 17.4154 14.0142C17.5216 14.0664 17.6144 14.1423 17.6867 14.236C18.2884 14.9063 18.6645 15.7486 18.7617 16.644C18.7552 16.8639 18.7039 17.0802 18.6112 17.2797C18.5185 17.4792 18.3861 17.6578 18.2222 17.8046C18.0584 17.9514 17.8664 18.0633 17.6579 18.1336C17.4494 18.2039 17.2288 18.2311 17.0095 18.2135L17.0525 18.2027Z" fill="black"/>
</svg>
