<svg width="24" height="24" viewBox="0 0 24 24" fill="none" xmlns="http://www.w3.org/2000/svg">
<path fill-rule="evenodd" clip-rule="evenodd" d="M10.4556 2.48951L17.8697 9.90362C18.0303 10.0768 18.1329 10.2942 18.1655 10.5255L18.1686 10.5254C18.1921 10.6951 18.1774 10.8679 18.1256 11.0312C18.0805 11.1735 18.0083 11.3054 17.913 11.4198C17.8991 11.4367 17.8846 11.4532 17.8697 11.4693L11.4802 17.8588C10.9861 18.351 10.3652 18.6867 9.69459 18.8343C9.43968 18.8904 9.17756 18.9193 8.91248 18.9193C7.95014 18.9193 7.027 18.538 6.34517 17.8589L2.49996 14.0137C2.14622 13.6608 1.87026 13.2378 1.68983 12.7718C1.68385 12.7564 1.67798 12.7409 1.67221 12.7254C1.52004 12.3202 1.43994 11.8874 1.43994 11.4463C1.43994 10.484 1.82124 9.56083 2.50036 8.879L8.50994 2.86943L7.53136 1.87934C7.38224 1.72482 7.29889 1.51846 7.29889 1.30371C7.29889 1.08897 7.38224 0.882603 7.53136 0.728084C7.68722 0.581569 7.89308 0.5 8.10699 0.5C8.32091 0.5 8.52677 0.581569 8.68262 0.728084L10.398 2.48951H10.4556ZM2.38534 23.5002H16.6034C16.8263 23.5002 17.0401 23.4116 17.1977 23.254C17.3553 23.0964 17.4438 22.8826 17.4438 22.6598C17.4438 22.4369 17.3553 22.2231 17.1977 22.0655C17.0401 21.9079 16.8263 21.8193 16.6034 21.8193H2.38534C2.16245 21.8193 1.94868 21.9079 1.79107 22.0655C1.63347 22.2231 1.54492 22.4369 1.54492 22.6598C1.54492 22.8826 1.63347 23.0964 1.79107 23.254C1.94868 23.4116 2.16245 23.5002 2.38534 23.5002ZM22.5667 18.5149C22.5667 19.2141 22.289 19.8847 21.7945 20.3791C21.3001 20.8735 20.6295 21.1513 19.9303 21.1513C19.2311 21.1513 18.5605 20.8735 18.0661 20.3791C17.5717 19.8847 17.2939 19.2141 17.2939 18.5149C17.4554 17.1072 18.0417 15.7821 18.9748 14.7158C19.0888 14.5677 19.2352 14.4477 19.4029 14.3652C19.5706 14.2827 19.755 14.2397 19.9418 14.2397C20.1287 14.2397 20.3131 14.2827 20.4808 14.3652C20.6484 14.4477 20.7949 14.5677 20.9089 14.7158C21.8445 15.7781 22.4242 17.1065 22.5667 18.5149Z" fill="black"/>
</svg>
