<svg width="24" height="24" viewBox="0 0 24 24" fill="none" xmlns="http://www.w3.org/2000/svg">
<path d="M4.08565 2.0807C3.6766 2.09166 3.27981 2.2227 2.94468 2.45749C2.60955 2.69227 2.35088 3.02045 2.20086 3.40115C2.05085 3.78185 2.01612 4.19827 2.10101 4.59856C2.18589 4.99885 2.38663 5.36534 2.67824 5.6524C2.96985 5.93945 3.33946 6.1344 3.74103 6.21297C4.14261 6.29153 4.55843 6.25025 4.93673 6.09426C5.31502 5.93827 5.63908 5.67447 5.86856 5.33568C6.09804 4.99689 6.22281 4.59809 6.22733 4.18892C6.22889 3.9088 6.1743 3.6312 6.0668 3.37252C5.9593 3.11385 5.80106 2.87933 5.60143 2.68281C5.40179 2.4863 5.16481 2.33177 4.90447 2.22836C4.64413 2.12494 4.36571 2.07473 4.08565 2.0807ZM11.8939 2.0807C11.4897 2.1089 11.1024 2.25423 10.7794 2.49893C10.4564 2.74362 10.2117 3.07709 10.0752 3.45859C9.93862 3.84009 9.91614 4.25311 10.0105 4.64718C10.1048 5.04125 10.3119 5.39931 10.6064 5.67762C10.9009 5.95593 11.2701 6.14244 11.6689 6.21435C12.0676 6.28627 12.4787 6.24048 12.8519 6.08259C13.2251 5.92469 13.5442 5.66152 13.7702 5.32523C13.9963 4.98894 14.1195 4.59409 14.1248 4.18892C14.1264 3.90784 14.0715 3.6293 13.9633 3.36987C13.8551 3.11043 13.6958 2.8754 13.495 2.67873C13.2942 2.48206 13.0559 2.32777 12.7942 2.22504C12.5326 2.1223 12.253 2.07322 11.972 2.0807H11.8939ZM19.8137 2.0807C19.4069 2.10033 19.0148 2.23858 18.6857 2.47841C18.3566 2.71825 18.1049 3.04916 17.9616 3.43035C17.8184 3.81154 17.7898 4.22632 17.8795 4.62355C17.9692 5.02077 18.1732 5.38306 18.4663 5.66572C18.7594 5.94839 19.1289 6.13907 19.5291 6.21425C19.9293 6.28943 20.3428 6.24581 20.7185 6.08879C21.0943 5.93176 21.4158 5.6682 21.6435 5.33059C21.8712 4.99299 21.9951 4.59611 22 4.18892C22.0014 3.91165 21.9479 3.63684 21.8425 3.38039C21.7371 3.12394 21.5818 2.89095 21.3858 2.69489C21.1897 2.49882 20.9567 2.34359 20.7003 2.23817C20.4438 2.13274 20.169 2.07922 19.8917 2.0807H19.8137ZM4.08565 9.9224C3.6736 9.92681 3.27209 10.0532 2.93177 10.2855C2.59146 10.5179 2.32759 10.8458 2.17347 11.228C2.01934 11.6102 1.98186 12.0294 2.06576 12.4329C2.14965 12.8363 2.35117 13.2059 2.64487 13.4949C2.93857 13.7839 3.3113 13.9795 3.71603 14.057C4.12077 14.1344 4.53937 14.0902 4.91902 13.93C5.29867 13.7698 5.62236 13.5007 5.84924 13.1567C6.07613 12.8127 6.19605 12.4092 6.19387 11.9972C6.18798 11.4429 5.96291 10.9136 5.56786 10.5248C5.17281 10.136 4.63991 9.91942 4.08565 9.9224ZM11.9497 9.9224C11.5376 9.92681 11.1361 10.0532 10.7958 10.2855C10.4555 10.5179 10.1916 10.8458 10.0375 11.228C9.88335 11.6102 9.84587 12.0294 9.92977 12.4329C10.0137 12.8363 10.2152 13.2059 10.5089 13.4949C10.8026 13.7839 11.1753 13.9795 11.58 14.057C11.9848 14.1344 12.4034 14.0902 12.783 13.93C13.1627 13.7698 13.4864 13.5007 13.7133 13.1567C13.9401 12.8127 14.0601 12.4092 14.0579 11.9972C14.052 11.4429 13.8269 10.9136 13.4319 10.5248C13.0368 10.136 12.5039 9.91942 11.9497 9.9224ZM19.8583 9.9224C19.4448 9.92019 19.04 10.0409 18.6952 10.2693C18.3505 10.4976 18.0814 10.8233 17.9222 11.2049C17.7629 11.5865 17.7207 12.0068 17.8008 12.4125C17.8809 12.8182 18.0798 13.1909 18.3722 13.4832C18.6646 13.7756 19.0373 13.9745 19.4429 14.0547C19.8486 14.1348 20.2689 14.0925 20.6505 13.9333C21.0321 13.774 21.3578 13.5049 21.5862 13.1602C21.8145 12.8155 21.9352 12.4107 21.933 11.9972C21.9272 11.4487 21.7068 10.9243 21.3189 10.5365C20.9311 10.1487 20.4067 9.9282 19.8583 9.9224ZM4.08565 17.7529C3.67168 17.753 3.26709 17.8762 2.92337 18.1069C2.57966 18.3377 2.31237 18.6654 2.15552 19.0485C1.99867 19.4316 1.95937 19.8527 2.0426 20.2583C2.12584 20.6638 2.32785 21.0354 2.62293 21.3257C2.918 21.616 3.2928 21.812 3.69961 21.8887C4.10641 21.9654 4.52683 21.9192 4.90735 21.7562C5.28787 21.5932 5.61128 21.3206 5.8364 20.9732C6.06153 20.6258 6.1782 20.2193 6.17156 19.8054C6.15994 19.2589 5.9354 18.7386 5.54578 18.3552C5.15616 17.9718 4.63225 17.7557 4.08565 17.7529ZM11.8939 17.7529C11.4819 17.7618 11.0818 17.8925 10.7441 18.1285C10.4063 18.3645 10.146 18.6952 9.99598 19.079C9.84598 19.4628 9.81299 19.8824 9.9012 20.2849C9.9894 20.6874 10.1948 21.0547 10.4916 21.3406C10.7883 21.6265 11.1631 21.8181 11.5686 21.8912C11.9741 21.9643 12.3922 21.9157 12.7701 21.7515C13.148 21.5872 13.4688 21.3148 13.692 20.9684C13.9153 20.6221 14.0309 20.2174 14.0244 19.8054C14.0127 19.2511 13.782 18.7241 13.3827 18.3395C12.9835 17.9549 12.4482 17.744 11.8939 17.7529ZM19.8137 17.7529C19.4012 17.7596 18.9999 17.8884 18.6607 18.1231C18.3214 18.3578 18.0594 18.6879 17.9077 19.0715C17.7559 19.4551 17.7214 19.8751 17.8084 20.2784C17.8953 20.6816 18.0999 21.05 18.3963 21.337C18.6926 21.624 19.0674 21.8167 19.4733 21.8907C19.8791 21.9647 20.2978 21.9167 20.6763 21.7527C21.0549 21.5888 21.3763 21.3163 21.6 20.9697C21.8237 20.623 21.9396 20.2179 21.933 19.8054C21.9214 19.257 21.6953 18.735 21.3033 18.3513C20.9113 17.9676 20.3845 17.7528 19.836 17.7529H19.8137Z" fill="black"/>
</svg>
