<svg width="24" height="24" viewBox="0 0 24 24" fill="none" xmlns="http://www.w3.org/2000/svg">
<path d="M12 1C9.82441 1 7.69767 1.64514 5.88873 2.85383C4.07979 4.06253 2.66989 5.78049 1.83733 7.79048C1.00477 9.80047 0.78693 12.0122 1.21137 14.146C1.6358 16.2798 2.68345 18.2398 4.22183 19.7782C5.76021 21.3165 7.72022 22.3642 9.85401 22.7886C11.9878 23.2131 14.1995 22.9952 16.2095 22.1627C18.2195 21.3301 19.9375 19.9202 21.1462 18.1113C22.3549 16.3023 23 14.1756 23 12C23 10.5555 22.7155 9.12506 22.1627 7.79048C21.6099 6.4559 20.7996 5.24327 19.7782 4.22182C18.7567 3.20038 17.5441 2.39013 16.2095 1.83732C14.8749 1.28452 13.4445 1 12 1ZM16.4 16.62H7.655C7.4362 16.62 7.22636 16.5331 7.07164 16.3784C6.91692 16.2236 6.83 16.0138 6.83 15.795C6.83 15.5762 6.91692 15.3664 7.07164 15.2116C7.22636 15.0569 7.4362 14.97 7.655 14.97H16.4C16.6188 14.97 16.8286 15.0569 16.9834 15.2116C17.1381 15.3664 17.225 15.5762 17.225 15.795C17.225 16.0138 17.1381 16.2236 16.9834 16.3784C16.8286 16.5331 16.6188 16.62 16.4 16.62ZM8.854 12C8.854 11.7812 8.94092 11.5714 9.09564 11.4166C9.25036 11.2619 9.4602 11.175 9.679 11.175H14.321C14.5398 11.175 14.7496 11.2619 14.9044 11.4166C15.0591 11.5714 15.146 11.7812 15.146 12C15.146 12.2188 15.0591 12.4286 14.9044 12.5834C14.7496 12.7381 14.5398 12.825 14.321 12.825H9.679C9.4602 12.825 9.25036 12.7381 9.09564 12.5834C8.94092 12.4286 8.854 12.2188 8.854 12ZM16.4 9.03H7.655C7.4362 9.03 7.22636 8.94308 7.07164 8.78836C6.91692 8.63364 6.83 8.4238 6.83 8.205C6.83 7.98619 6.91692 7.77635 7.07164 7.62163C7.22636 7.46692 7.4362 7.38 7.655 7.38H16.4C16.6188 7.38 16.8286 7.46692 16.9834 7.62163C17.1381 7.77635 17.225 7.98619 17.225 8.205C17.225 8.4238 17.1381 8.63364 16.9834 8.78836C16.8286 8.94308 16.6188 9.03 16.4 9.03Z" fill="black"/>
</svg>
