<svg width="24" height="24" viewBox="0 0 24 24" fill="none" xmlns="http://www.w3.org/2000/svg">
<path d="M16.3538 1.25H7.7C5.98935 1.25 4.34877 1.92955 3.13916 3.13916C1.92955 4.34877 1.25 5.98935 1.25 7.7V16.4075C1.2782 18.0994 1.97019 19.7125 3.17675 20.899C4.38332 22.0855 6.00782 22.7502 7.7 22.75H16.4075C18.0902 22.722 19.6953 22.0375 20.8803 20.8424C22.0652 19.6474 22.7362 18.0366 22.75 16.3538V7.7C22.7501 5.99863 22.0779 4.36614 20.8799 3.15806C19.6819 1.94998 18.0551 1.26418 16.3538 1.25ZM7.32375 17.8588C7.07926 17.8566 6.84089 17.782 6.63878 17.6444C6.43668 17.5068 6.27992 17.3124 6.18832 17.0857C6.09673 16.859 6.07441 16.6102 6.1242 16.3708C6.17398 16.1314 6.29363 15.9122 6.46802 15.7408C6.64241 15.5694 6.8637 15.4536 7.10391 15.408C7.34412 15.3624 7.59246 15.389 7.81753 15.4845C8.0426 15.5801 8.23429 15.7402 8.36836 15.9447C8.50244 16.1491 8.57287 16.3888 8.57075 16.6333C8.56934 16.7956 8.53597 16.9561 8.47254 17.1055C8.40912 17.255 8.31687 17.3905 8.20107 17.5043C8.08528 17.6181 7.9482 17.708 7.79767 17.7688C7.64714 17.8296 7.4861 17.8602 7.32375 17.8588ZM7.32375 13.2362C7.0802 13.232 6.84334 13.1559 6.64288 13.0175C6.44243 12.8791 6.28733 12.6846 6.19705 12.4584C6.10677 12.2321 6.08533 11.9843 6.13543 11.7459C6.18553 11.5075 6.30494 11.2893 6.47866 11.1185C6.65238 10.9478 6.87266 10.8322 7.11187 10.7862C7.35107 10.7402 7.59853 10.7659 7.82317 10.8601C8.04782 10.9542 8.23964 11.1127 8.37456 11.3155C8.50947 11.5183 8.58146 11.7564 8.5815 12C8.58151 12.1633 8.54918 12.3249 8.48638 12.4756C8.42358 12.6263 8.33156 12.763 8.21562 12.878C8.09968 12.9929 7.96213 13.0838 7.81089 13.1453C7.65966 13.2067 7.49775 13.2377 7.3345 13.2362H7.32375ZM7.32375 8.603C7.08125 8.59456 6.8466 8.51495 6.64904 8.37408C6.45147 8.23321 6.29973 8.03731 6.21272 7.81081C6.12571 7.5843 6.10728 7.3372 6.15972 7.10029C6.21217 6.86338 6.33318 6.64714 6.50766 6.47852C6.68214 6.30991 6.90239 6.19636 7.14095 6.15204C7.37951 6.10773 7.62584 6.13459 7.84924 6.22929C8.07264 6.32399 8.26324 6.48234 8.39727 6.68461C8.5313 6.88687 8.60285 7.12411 8.603 7.36675C8.60017 7.69561 8.46754 8.01003 8.23398 8.24157C8.00043 8.47311 7.68487 8.60301 7.356 8.603H7.32375ZM12 17.8588C11.7555 17.8566 11.5171 17.782 11.315 17.6444C11.1129 17.5068 10.9562 17.3124 10.8646 17.0857C10.773 16.859 10.7507 16.6102 10.8004 16.3708C10.8502 16.1314 10.9699 15.9122 11.1443 15.7408C11.3187 15.5694 11.5399 15.4536 11.7802 15.408C12.0204 15.3624 12.2687 15.389 12.4938 15.4845C12.7189 15.5801 12.9105 15.7402 13.0446 15.9447C13.1787 16.1491 13.2491 16.3888 13.247 16.6333C13.2456 16.7956 13.2122 16.9561 13.1488 17.1055C13.0854 17.255 12.9931 17.3905 12.8773 17.5043C12.7615 17.6181 12.6245 17.708 12.4739 17.7688C12.3234 17.8296 12.1623 17.8602 12 17.8588ZM12 13.2362C11.755 13.2384 11.515 13.1677 11.3103 13.0332C11.1056 12.8986 10.9454 12.7063 10.8502 12.4806C10.755 12.2549 10.729 12.006 10.7755 11.7655C10.8219 11.525 10.9388 11.3037 11.1113 11.1297C11.2837 10.9557 11.504 10.8369 11.7441 10.7884C11.9842 10.7398 12.2333 10.7636 12.4598 10.8569C12.6863 10.9501 12.8801 11.1085 13.0164 11.3121C13.1527 11.5156 13.2255 11.755 13.2255 12C13.2269 12.1618 13.1963 12.3224 13.1353 12.4723C13.0744 12.6222 12.9843 12.7586 12.8704 12.8735C12.7564 12.9885 12.6209 13.0797 12.4715 13.1419C12.3221 13.2042 12.1618 13.2363 12 13.2362ZM12 8.603C11.756 8.60088 11.518 8.52657 11.3161 8.38945C11.1142 8.25232 10.9575 8.05852 10.8655 7.83244C10.7736 7.60637 10.7507 7.35814 10.7996 7.11905C10.8485 6.87995 10.9671 6.66068 11.1404 6.48886C11.3137 6.31704 11.534 6.20036 11.7735 6.15353C12.013 6.10669 12.261 6.13179 12.4863 6.22567C12.7116 6.31954 12.904 6.478 13.0394 6.68106C13.1747 6.88412 13.247 7.1227 13.247 7.36675C13.2442 7.69561 13.1115 8.01003 12.878 8.24157C12.6444 8.47311 12.3289 8.60301 12 8.603ZM16.644 17.8588C16.3995 17.8566 16.1611 17.782 15.959 17.6444C15.7569 17.5068 15.6002 17.3124 15.5086 17.0857C15.417 16.859 15.3947 16.6102 15.4444 16.3708C15.4942 16.1314 15.6139 15.9122 15.7883 15.7408C15.9627 15.5694 16.1839 15.4536 16.4242 15.408C16.6644 15.3624 16.9127 15.389 17.1378 15.4845C17.3629 15.5801 17.5545 15.7402 17.6886 15.9447C17.8227 16.1491 17.8931 16.3888 17.891 16.6333C17.8896 16.7956 17.8562 16.9561 17.7928 17.1055C17.7294 17.255 17.6371 17.3905 17.5213 17.5043C17.4055 17.6181 17.2685 17.708 17.1179 17.7688C16.9674 17.8296 16.8063 17.8602 16.644 17.8588ZM16.644 13.2362C16.401 13.2299 16.1652 13.152 15.9662 13.0124C15.7672 12.8728 15.6137 12.6776 15.5251 12.4512C15.4365 12.2248 15.4165 11.9773 15.4678 11.7397C15.5191 11.502 15.6393 11.2848 15.8134 11.1151C15.9875 10.9454 16.2078 10.8308 16.4467 10.7857C16.6856 10.7405 16.9325 10.7668 17.1565 10.8613C17.3805 10.9557 17.5717 11.1141 17.7062 11.3166C17.8407 11.5192 17.9124 11.7569 17.9125 12C17.9125 12.1633 17.8802 12.3249 17.8174 12.4756C17.7546 12.6263 17.6626 12.763 17.5466 12.878C17.4307 12.9929 17.2931 13.0838 17.1419 13.1453C16.9907 13.2067 16.8287 13.2377 16.6655 13.2362H16.644ZM16.644 8.603C16.4 8.60088 16.162 8.52657 15.9601 8.38945C15.7582 8.25232 15.6015 8.05852 15.5095 7.83244C15.4176 7.60637 15.3947 7.35814 15.4436 7.11905C15.4925 6.87995 15.6111 6.66068 15.7844 6.48886C15.9577 6.31704 16.178 6.20036 16.4175 6.15353C16.657 6.10669 16.905 6.13179 17.1303 6.22567C17.3556 6.31954 17.548 6.478 17.6834 6.68106C17.8188 6.88412 17.891 7.1227 17.891 7.36675C17.8883 7.6901 17.7601 7.99976 17.5335 8.23041C17.3069 8.46106 16.9995 8.59465 16.6763 8.603H16.644Z" fill="black"/>
</svg>
