<svg width="24" height="24" viewBox="0 0 24 24" fill="none" xmlns="http://www.w3.org/2000/svg">
<path d="M16.3538 1.25H7.7C5.98935 1.25 4.34877 1.92955 3.13916 3.13916C1.92955 4.34877 1.25 5.98935 1.25 7.7V16.4075C1.2782 18.0994 1.97019 19.7125 3.17675 20.899C4.38332 22.0855 6.00782 22.7502 7.7 22.75H16.4075C18.0902 22.722 19.6953 22.0375 20.8803 20.8424C22.0652 19.6474 22.7362 18.0366 22.75 16.3538V7.7C22.7501 5.99863 22.0779 4.36614 20.8799 3.15806C19.6819 1.94998 18.0551 1.26418 16.3538 1.25ZM16.7623 17.6115H10.6025C10.3887 17.6115 10.1836 17.5266 10.0324 17.3754C9.88119 17.2242 9.79625 17.0191 9.79625 16.8053C9.79625 16.5914 9.88119 16.3863 10.0324 16.2351C10.1836 16.0839 10.3887 15.999 10.6025 15.999H16.7623C16.9761 15.999 17.1812 16.0839 17.3324 16.2351C17.4836 16.3863 17.5685 16.5914 17.5685 16.8053C17.5685 17.0191 17.4836 17.2242 17.3324 17.3754C17.1812 17.5266 16.9761 17.6115 16.7623 17.6115ZM17.0632 12.8063H7.96875C7.75492 12.8063 7.54985 12.7213 7.39865 12.5701C7.24744 12.4189 7.1625 12.2138 7.1625 12C7.1625 11.7862 7.24744 11.5811 7.39865 11.4299C7.54985 11.2787 7.75492 11.1938 7.96875 11.1938H17.0632C17.2771 11.1938 17.4822 11.2787 17.6334 11.4299C17.7846 11.5811 17.8695 11.7862 17.8695 12C17.8695 12.2138 17.7846 12.4189 17.6334 12.5701C17.4822 12.7213 17.2771 12.8063 17.0632 12.8063ZM17.0632 8.001H13.4405C13.2267 8.001 13.0216 7.91606 12.8704 7.76486C12.7192 7.61365 12.6343 7.40858 12.6343 7.19475C12.6343 6.98092 12.7192 6.77585 12.8704 6.62465C13.0216 6.47344 13.2267 6.3885 13.4405 6.3885H17.0632C17.2771 6.3885 17.4822 6.47344 17.6334 6.62465C17.7846 6.77585 17.8695 6.98092 17.8695 7.19475C17.8695 7.40858 17.7846 7.61365 17.6334 7.76486C17.4822 7.91606 17.2771 8.001 17.0632 8.001Z" fill="black"/>
</svg>
