<svg width="24" height="24" viewBox="0 0 24 24" fill="none" xmlns="http://www.w3.org/2000/svg">
<path d="M21.6298 12.8714H2.37017C2.13938 12.8714 1.91805 12.7797 1.75487 12.6166C1.59168 12.4534 1.5 12.232 1.5 12.0013C1.5 11.7705 1.59168 11.5491 1.75487 11.386C1.91805 11.2228 2.13938 11.1311 2.37017 11.1311H21.6298C21.8606 11.1311 22.0819 11.2228 22.2451 11.386C22.4083 11.5491 22.5 11.7705 22.5 12.0013C22.5 12.232 22.4083 12.4534 22.2451 12.6166C22.0819 12.7797 21.8606 12.8714 21.6298 12.8714ZM19.8315 19.9024C19.8315 19.6716 19.7398 19.4502 19.5766 19.2871C19.4134 19.1239 19.1921 19.0322 18.9613 19.0322H5.03867C4.80789 19.0322 4.58656 19.1239 4.42337 19.2871C4.26019 19.4502 4.16851 19.6716 4.16851 19.9024C4.16851 20.1331 4.26019 20.3545 4.42337 20.5177C4.58656 20.6808 4.80789 20.7725 5.03867 20.7725H18.9613C19.1912 20.7695 19.4108 20.6769 19.5733 20.5143C19.7358 20.3518 19.8285 20.1322 19.8315 19.9024ZM19.8315 4.10015C19.8285 3.8703 19.7358 3.65071 19.5733 3.48817C19.4108 3.32563 19.1912 3.23299 18.9613 3.22998H5.03867C4.80789 3.22998 4.58656 3.32166 4.42337 3.48485C4.26019 3.64803 4.16851 3.86936 4.16851 4.10015C4.16851 4.33093 4.26019 4.55226 4.42337 4.71545C4.58656 4.87863 4.80789 4.97031 5.03867 4.97031H18.9613C19.1921 4.97031 19.4134 4.87863 19.5766 4.71545C19.7398 4.55226 19.8315 4.33093 19.8315 4.10015Z" fill="black"/>
</svg>
