<svg width="24" height="24" viewBox="0 0 24 24" fill="none" xmlns="http://www.w3.org/2000/svg">
<path d="M3.14179 8.23751H20.8583C21.055 8.23751 21.2437 8.31566 21.3828 8.45476C21.5219 8.59386 21.6 8.78253 21.6 8.97926V11.7958C21.6 11.9925 21.5219 12.1811 21.3828 12.3202C21.2437 12.4594 21.055 12.5375 20.8583 12.5375H3.14179C2.94507 12.5375 2.7564 12.4594 2.6173 12.3202C2.47819 12.1811 2.40004 11.9925 2.40004 11.7958V8.97926C2.40004 8.88185 2.41923 8.78539 2.45651 8.6954C2.49378 8.60541 2.54842 8.52364 2.6173 8.45476C2.68618 8.38588 2.76795 8.33125 2.85794 8.29397C2.94793 8.25669 3.04439 8.23751 3.14179 8.23751ZM21.6 4.14176V6.42076C21.6 6.61748 21.5219 6.80615 21.3828 6.94526C21.2437 7.08436 21.055 7.16251 20.8583 7.16251H3.14179C3.04439 7.16251 2.94793 7.14332 2.85794 7.10605C2.76795 7.06877 2.68618 7.01413 2.6173 6.94526C2.54842 6.87638 2.49378 6.79461 2.45651 6.70462C2.41923 6.61462 2.40004 6.51817 2.40004 6.42076V4.14176C2.39862 3.76162 2.47245 3.38495 2.61727 3.03346C2.76209 2.68198 2.97504 2.36263 3.24385 2.09382C3.51265 1.82502 4.832 1.61207 5.18349 1.46725C5.53497 1.32243 5.91164 1.2486 6.29179 1.25002H18.7083C19.0884 1.2486 19.4651 1.32243 19.8166 1.46725C20.1681 1.61207 20.4874 1.82502 20.7562 2.09382C21.025 2.36263 21.238 2.68198 21.3828 3.03346C21.5276 3.38495 21.6014 3.76162 21.6 4.14176ZM15.526 4.47501C15.5232 4.26205 15.4374 4.05859 15.2868 3.90799C15.1362 3.75739 14.9327 3.67155 14.7198 3.66877H9.48453C9.2707 3.66877 9.06563 3.75371 8.91443 3.90491C8.76323 4.05611 8.67828 4.26118 8.67828 4.47501C8.67828 4.68884 8.76323 4.89392 8.91443 5.04512C9.06563 5.19632 9.2707 5.28126 9.48453 5.28126H14.7198C14.9327 5.27848 15.1362 5.19264 15.2868 5.04204C15.4374 4.89144 15.5232 4.68798 15.526 4.47501ZM21.6 14.3542V19.8582C21.6014 20.2384 21.5276 20.6151 21.3828 20.9665C21.238 21.318 21.025 21.6374 20.7562 21.9062C20.4874 22.175 20.1681 22.3879 19.8166 22.5328C19.4651 22.6776 19.0884 22.7514 18.7083 22.75H5.29179C4.91164 22.7514 4.53497 22.6776 4.18349 22.5328C3.832 22.3879 3.51265 22.175 3.24385 21.9062C2.97504 21.6374 2.76209 21.318 2.61727 20.9665C2.47245 20.6151 2.39862 20.2384 2.40004 19.8582V14.3542C2.40004 14.1575 2.47819 13.9689 2.6173 13.8298C2.7564 13.6906 2.94507 13.6125 3.14179 13.6125H20.8583C21.055 13.6125 21.2437 13.6906 21.3828 13.8298C21.5219 13.9689 21.6 14.1575 21.6 14.3542ZM9.04378 17.9125C9.04378 17.6467 8.96497 17.3869 8.81732 17.1659C8.66967 16.945 8.4598 16.7727 8.21427 16.671C7.96873 16.5693 7.69855 16.5427 7.43788 16.5946C7.17722 16.6464 6.93779 16.7744 6.74986 16.9623C6.56194 17.1502 6.43396 17.3897 6.38211 17.6503C6.33026 17.911 6.35687 18.1812 6.45858 18.4267C6.56028 18.6723 6.73251 18.8821 6.95349 19.0298C7.17447 19.1774 7.43427 19.2562 7.70004 19.2562C8.05642 19.2562 8.39821 19.1147 8.65021 18.8627C8.90221 18.6107 9.04378 18.2689 9.04378 17.9125ZM17.6438 17.9125C17.6438 17.6467 17.565 17.3869 17.4173 17.1659C17.2697 16.945 17.0598 16.7727 16.8142 16.671C16.5687 16.5693 16.2985 16.5427 16.0379 16.5946C15.7772 16.6464 15.5378 16.7744 15.3498 16.9623C15.1619 17.1502 15.0339 17.3897 14.9821 17.6503C14.9302 17.911 14.9569 18.1812 15.0586 18.4267C15.1603 18.6723 15.3325 18.8821 15.5535 19.0298C15.7745 19.1774 16.0343 19.2562 16.3 19.2562C16.6564 19.2562 16.9982 19.1147 17.2502 18.8627C17.5022 18.6107 17.6438 18.2689 17.6438 17.9125Z" fill="black"/>
</svg>
