<svg width="24" height="24" viewBox="0 0 24 24" fill="none" xmlns="http://www.w3.org/2000/svg">
<path d="M16.4613 1.26999H7.53875C5.87644 1.26997 4.28174 1.9281 3.1033 3.1005C1.92485 4.27291 1.25852 5.8642 1.25 7.52649V16.449C1.25 18.1169 1.91256 19.7164 3.09193 20.8958C4.2713 22.0752 5.87087 22.7377 7.53875 22.7377H16.4613C18.1236 22.7378 19.7183 22.0796 20.8967 20.9072C22.0752 19.7348 22.7415 18.1435 22.75 16.4812V7.52649C22.7415 5.8642 22.0752 4.27291 20.8967 3.1005C19.7183 1.9281 18.1236 1.26997 16.4613 1.26999ZM7.184 18.7495C6.97139 18.7495 6.76355 18.6864 6.58676 18.5683C6.40998 18.4502 6.27219 18.2823 6.19083 18.0859C6.10947 17.8894 6.08818 17.6733 6.12966 17.4648C6.17113 17.2562 6.27352 17.0647 6.42386 16.9143C6.5742 16.764 6.76575 16.6616 6.97428 16.6201C7.18281 16.5787 7.39895 16.6 7.59538 16.6813C7.79182 16.7627 7.95971 16.9005 8.07783 17.0773C8.19595 17.254 8.259 17.4619 8.259 17.6745C8.259 17.9596 8.14574 18.233 7.94414 18.4346C7.74254 18.6362 7.46911 18.7495 7.184 18.7495ZM7.184 14.8042C6.97139 14.8042 6.76355 14.7412 6.58676 14.6231C6.40998 14.5049 6.27219 14.3371 6.19083 14.1406C6.10947 13.9442 6.08818 13.728 6.12966 13.5195C6.17113 13.311 6.27352 13.1194 6.42386 12.9691C6.5742 12.8188 6.76575 12.7164 6.97428 12.6749C7.18281 12.6334 7.39895 12.6547 7.59538 12.7361C7.79182 12.8174 7.95971 12.9552 8.07783 13.132C8.19595 13.3088 8.259 13.5166 8.259 13.7292C8.259 14.0143 8.14574 14.2878 7.94414 14.4894C7.74254 14.691 7.46911 14.8042 7.184 14.8042ZM12.8063 18.7495C12.5936 18.7495 12.3858 18.6864 12.209 18.5683C12.0322 18.4502 11.8944 18.2823 11.8131 18.0859C11.7317 17.8894 11.7104 17.6733 11.7519 17.4648C11.7934 17.2562 11.8958 17.0647 12.0461 16.9143C12.1965 16.764 12.388 16.6616 12.5965 16.6201C12.8051 16.5787 13.0212 16.6 13.2176 16.6813C13.4141 16.7627 13.582 16.9005 13.7001 17.0773C13.8182 17.254 13.8813 17.4619 13.8813 17.6745C13.8813 17.9596 13.768 18.233 13.5664 18.4346C13.3648 18.6362 13.0914 18.7495 12.8063 18.7495ZM12.8063 14.8042C12.6468 14.8476 12.4795 14.8536 12.3174 14.8218C12.1553 14.79 12.0027 14.7212 11.8714 14.6209C11.7402 14.5205 11.6338 14.3913 11.5606 14.2432C11.4874 14.0951 11.4493 13.9321 11.4493 13.7669C11.4493 13.6017 11.4874 13.4387 11.5606 13.2905C11.6338 13.1424 11.7402 13.0132 11.8714 12.9128C12.0027 12.8125 12.1553 12.7438 12.3174 12.712C12.4795 12.6802 12.6468 12.6862 12.8063 12.7295C12.9657 12.6862 13.133 12.6802 13.2951 12.712C13.4572 12.7438 13.6098 12.8125 13.7411 12.9128C13.8723 13.0132 13.9787 13.1424 14.0519 13.2905C14.1251 13.4387 14.1632 13.6017 14.1632 13.7669C14.1632 13.9321 14.1251 14.0951 14.0519 14.2432C13.9787 14.3913 13.8723 14.5205 13.7411 14.6209C13.6098 14.7212 13.4572 14.79 13.2951 14.8218C13.133 14.8536 12.9657 14.8476 12.8063 14.8042ZM18.3748 18.1045C18.3748 18.3183 18.2898 18.5234 18.1386 18.6746C17.9874 18.8258 17.7823 18.9107 17.5685 18.9107C17.3547 18.9107 17.1496 18.8258 16.9984 18.6746C16.8472 18.5234 16.7623 18.3183 16.7623 18.1045V13.4282C16.7623 13.2144 16.8472 13.0093 16.9984 12.8581C17.1496 12.7069 17.3547 12.622 17.5685 12.622C17.7823 12.622 17.9874 12.7069 18.1386 12.8581C18.2898 13.0093 18.3748 13.2144 18.3748 13.4282V18.1045ZM18.8048 7.75224C18.8048 8.32245 18.5782 8.86932 18.175 9.27252C17.7718 9.67572 17.225 9.90224 16.6548 9.90224H7.2915C6.72128 9.90224 6.17442 9.67572 5.77122 9.27252C5.36802 8.86932 5.1415 8.32245 5.1415 7.75224V7.07499C5.1415 6.50477 5.36802 5.95791 5.77122 5.55471C6.17442 5.15151 6.72128 4.92499 7.2915 4.92499H16.6333C17.2035 4.92499 17.7503 5.15151 18.1535 5.55471C18.5567 5.95791 18.7833 6.50477 18.7833 7.07499L18.8048 7.75224Z" fill="black"/>
</svg>
