<svg width="24" height="24" viewBox="0 0 24 24" fill="none" xmlns="http://www.w3.org/2000/svg">
<path d="M20.5729 6.68336C20.6222 6.81537 20.6391 6.95726 20.6223 7.09716C20.6055 7.23705 20.5555 7.37089 20.4764 7.48749C20.3973 7.60408 20.2914 7.70004 20.1676 7.76733C20.0438 7.83462 19.9057 7.8713 19.7648 7.87429H2.75157C2.57917 7.87378 2.40948 7.83136 2.25712 7.75068C2.10476 7.67001 1.9743 7.55349 1.87698 7.41118C1.77967 7.26887 1.71841 7.10503 1.6985 6.93378C1.67859 6.76253 1.70061 6.58901 1.76268 6.42817C2.08175 5.65619 2.56453 4.96265 3.17768 4.39538C3.79084 3.82812 4.51978 3.40066 5.31419 3.14249V1.4837C5.31419 1.28911 5.39149 1.10249 5.52909 0.964894C5.66668 0.8273 5.8533 0.75 6.04789 0.75C6.24248 0.75 6.42909 0.8273 6.56669 0.964894C6.70428 1.10249 6.78158 1.28911 6.78158 1.4837V2.86602C6.88792 2.86602 6.99425 2.86602 7.11122 2.86602H10.5989V1.4837C10.5989 1.28911 10.6762 1.10249 10.8138 0.964894C10.9514 0.8273 11.138 0.75 11.3326 0.75C11.4285 0.74999 11.5234 0.769039 11.6118 0.806039C11.7002 0.84304 11.7804 0.897253 11.8477 0.965526C11.915 1.0338 11.968 1.11477 12.0037 1.20373C12.0394 1.29268 12.0571 1.38785 12.0557 1.4837V2.83412H15.1712C15.2776 2.83412 15.3839 2.83412 15.5009 2.83412V1.4837C15.5009 1.28911 15.5782 1.10249 15.7158 0.964894C15.8534 0.8273 16.04 0.75 16.2346 0.75C16.4291 0.75 16.6158 0.8273 16.7534 0.964894C16.891 1.10249 16.9683 1.28911 16.9683 1.4837V3.14249C17.7986 3.42012 18.5547 3.88329 19.1793 4.49682C19.8039 5.11035 20.2805 5.85812 20.5729 6.68336ZM20.0732 9.33105H2.25181C2.02056 9.33105 1.79878 9.42291 1.63526 9.58643C1.47175 9.74995 1.37988 9.97173 1.37988 10.203V16.2533C1.3827 17.7828 1.99226 19.2487 3.07476 20.3292C4.15727 21.4097 5.62426 22.0165 7.15375 22.0165H13.3317C12.7733 21.1084 12.4787 20.0628 12.481 18.9967C12.476 17.9936 12.7295 17.0062 13.2172 16.1296C13.7048 15.253 14.4101 14.5169 15.265 13.9922C16.1199 13.4675 17.0956 13.172 18.0979 13.134C19.1003 13.0961 20.0955 13.3171 20.9876 13.7758V10.203C20.9878 10.0848 20.9639 9.96784 20.9174 9.85918C20.871 9.75052 20.8029 9.65244 20.7174 9.57089C20.6319 9.48934 20.5307 9.42603 20.4199 9.3848C20.3092 9.34357 20.1912 9.32528 20.0732 9.33105ZM7.72794 17.6569C7.54965 17.6548 7.37596 17.6 7.22873 17.4994C7.08151 17.3989 6.96732 17.257 6.90054 17.0916C6.83376 16.9263 6.81737 16.7449 6.85343 16.5703C6.8895 16.3957 6.97641 16.2356 7.10322 16.1103C7.23004 15.985 7.3911 15.8999 7.56612 15.8659C7.74115 15.8319 7.92233 15.8504 8.08687 15.9191C8.2514 15.9878 8.39194 16.1037 8.49079 16.2521C8.58964 16.4004 8.64239 16.5748 8.64241 16.7531C8.64241 16.8727 8.61869 16.9911 8.5726 17.1014C8.52652 17.2118 8.45899 17.3119 8.37393 17.396C8.28887 17.48 8.18798 17.5464 8.07709 17.5912C7.9662 17.636 7.84753 17.6583 7.72794 17.6569ZM7.72794 14.2436C7.5492 14.2415 7.3751 14.1864 7.22766 14.0854C7.08021 13.9843 6.96604 13.8418 6.89959 13.6759C6.83314 13.5099 6.81738 13.328 6.85432 13.1531C6.89125 12.9782 6.97922 12.8182 7.1071 12.6933C7.23498 12.5684 7.39702 12.4842 7.57274 12.4514C7.74845 12.4186 7.92996 12.4386 8.09429 12.5089C8.25862 12.5793 8.39841 12.6968 8.49598 12.8466C8.59354 12.9963 8.6445 13.1717 8.64241 13.3504C8.63685 13.5893 8.53806 13.8164 8.36716 13.9833C8.19627 14.1503 7.96684 14.2437 7.72794 14.2436ZM11.1412 14.2436C10.963 14.2394 10.79 14.1826 10.6439 14.0803C10.4979 13.978 10.3854 13.8348 10.3206 13.6687C10.2558 13.5026 10.2415 13.321 10.2796 13.1469C10.3177 12.9727 10.4065 12.8137 10.5348 12.6898C10.663 12.566 10.825 12.4828 11.0005 12.4509C11.1759 12.4189 11.3568 12.4395 11.5205 12.5101C11.6842 12.5807 11.8234 12.6982 11.9205 12.8477C12.0176 12.9972 12.0684 13.1721 12.0663 13.3504C12.0637 13.4733 12.0363 13.5944 11.9858 13.7065C11.9352 13.8186 11.8627 13.9193 11.7723 14.0027C11.682 14.086 11.5758 14.1504 11.4601 14.1918C11.3443 14.2332 11.2214 14.2508 11.0987 14.2436H11.1412ZM18.3718 14.7434C17.5306 14.7434 16.7083 14.9928 16.0088 15.4602C15.3094 15.9276 14.7642 16.5918 14.4423 17.369C14.1204 18.1462 14.0362 19.0014 14.2003 19.8265C14.3644 20.6515 14.7695 21.4094 15.3643 22.0042C15.9591 22.5991 16.717 23.0042 17.5421 23.1683C18.3671 23.3324 19.2223 23.2482 19.9995 22.9262C20.7767 22.6043 21.441 22.0592 21.9083 21.3597C22.3757 20.6602 22.6252 19.8379 22.6252 18.9967C22.6252 18.4372 22.5148 17.8833 22.3004 17.3666C22.086 16.8498 21.7717 16.3805 21.3756 15.9854C20.9795 15.5903 20.5094 15.2772 19.9921 15.0641C19.4749 14.851 18.9207 14.742 18.3612 14.7434H18.3718ZM19.9562 19.8261H19.1587V20.6236C19.1601 20.7283 19.1409 20.8323 19.1021 20.9296C19.0633 21.0269 19.0057 21.1156 18.9327 21.1906C18.8596 21.2657 18.7725 21.3256 18.6762 21.367C18.58 21.4083 18.4766 21.4303 18.3718 21.4317C18.2671 21.4303 18.1637 21.4083 18.0675 21.367C17.9712 21.3256 17.8841 21.2657 17.811 21.1906C17.738 21.1156 17.6804 21.0269 17.6416 20.9296C17.6028 20.8323 17.5836 20.7283 17.585 20.6236V19.8048H16.7875C16.6828 19.8034 16.5793 19.7814 16.4831 19.7401C16.3869 19.6987 16.2997 19.6388 16.2267 19.5637C16.1536 19.4887 16.096 19.4 16.0572 19.3027C16.0185 19.2054 15.9992 19.1014 16.0006 18.9967C16.0083 18.7866 16.0945 18.5871 16.2422 18.4375C16.3898 18.2879 16.5882 18.1991 16.7981 18.1886H17.585V17.3911C17.5821 17.1803 17.6616 16.9768 17.8066 16.8238C17.9516 16.6709 18.1506 16.5806 18.3612 16.5723C18.4659 16.5737 18.5694 16.5957 18.6656 16.6371C18.7618 16.6784 18.849 16.7383 18.922 16.8134C18.9951 16.8884 19.0527 16.9771 19.0915 17.0744C19.1302 17.1717 19.1495 17.2757 19.1481 17.3804V18.1992H19.9456C20.0507 18.1992 20.1548 18.2202 20.2517 18.2611C20.3486 18.3019 20.4363 18.3618 20.5096 18.4371C20.583 18.5125 20.6405 18.6017 20.6788 18.6997C20.717 18.7976 20.7353 18.9022 20.7324 19.0073C20.7339 19.1152 20.7137 19.2224 20.673 19.3223C20.6324 19.4223 20.5721 19.5131 20.4958 19.5895C20.4195 19.6658 20.3287 19.726 20.2287 19.7667C20.1287 19.8073 20.0216 19.8275 19.9137 19.8261H19.9562Z" fill="black"/>
</svg>
