<svg width="24" height="24" viewBox="0 0 24 24" fill="none" xmlns="http://www.w3.org/2000/svg">
<path d="M20.5731 6.68336C20.6223 6.81537 20.6393 6.95726 20.6225 7.09716C20.6057 7.23705 20.5556 7.37089 20.4765 7.48749C20.3974 7.60408 20.2915 7.70004 20.1677 7.76733C20.0439 7.83462 19.9058 7.8713 19.7649 7.87429H2.7517C2.57929 7.87378 2.4096 7.83136 2.25724 7.75068C2.10488 7.67001 1.97442 7.55349 1.8771 7.41118C1.77979 7.26887 1.71854 7.10503 1.69862 6.93378C1.67871 6.76253 1.70074 6.58901 1.7628 6.42817C2.08187 5.65619 2.56465 4.96265 3.1778 4.39538C3.79096 3.82812 4.5199 3.40066 5.31431 3.14249V1.4837C5.31431 1.28911 5.39161 1.10249 5.52921 0.964894C5.6668 0.8273 5.85342 0.75 6.04801 0.75C6.2426 0.75 6.42922 0.8273 6.56681 0.964894C6.70441 1.10249 6.78171 1.28911 6.78171 1.4837V2.86602C6.88804 2.86602 6.99437 2.86602 7.11134 2.86602H10.599V1.4837C10.599 1.28911 10.6764 1.10249 10.8139 0.964894C10.9515 0.8273 11.1382 0.75 11.3327 0.75C11.4286 0.74999 11.5235 0.769039 11.6119 0.806039C11.7004 0.84304 11.7805 0.897253 11.8478 0.965526C11.9151 1.0338 11.9681 1.11477 12.0038 1.20373C12.0396 1.29268 12.0572 1.38785 12.0558 1.4837V2.83412H15.1714C15.2777 2.83412 15.384 2.83412 15.501 2.83412V1.4837C15.501 1.28911 15.5783 1.10249 15.7159 0.964894C15.8535 0.8273 16.0401 0.75 16.2347 0.75C16.4293 0.75 16.6159 0.8273 16.7535 0.964894C16.8911 1.10249 16.9684 1.28911 16.9684 1.4837V3.14249C17.7987 3.42012 18.5549 3.88329 19.1795 4.49682C19.804 5.11035 20.2806 5.85812 20.5731 6.68336ZM20.0733 9.33105H2.25193C2.02068 9.33105 1.7989 9.42291 1.63539 9.58643C1.47187 9.74995 1.38 9.97173 1.38 10.203V16.2533C1.38282 17.7828 1.99238 19.2487 3.07489 20.3292C4.15739 21.4097 5.62439 22.0165 7.15387 22.0165H13.3318C12.7734 21.1084 12.4789 20.0628 12.4811 18.9967C12.4761 17.9936 12.7297 17.0062 13.2173 16.1296C13.7049 15.253 14.4102 14.5169 15.2651 13.9922C16.12 13.4675 17.0957 13.172 18.0981 13.134C19.1004 13.0961 20.0957 13.3171 20.9878 13.7758V10.203C20.9879 10.0848 20.964 9.96784 20.9176 9.85918C20.8711 9.75052 20.803 9.65244 20.7175 9.57089C20.632 9.48934 20.5308 9.42603 20.42 9.3848C20.3093 9.34357 20.1913 9.32528 20.0733 9.33105ZM7.72807 17.6569C7.54977 17.6548 7.37609 17.6 7.22886 17.4994C7.08163 17.3989 6.96744 17.257 6.90066 17.0916C6.83388 16.9263 6.81749 16.7449 6.85355 16.5703C6.88962 16.3957 6.97653 16.2356 7.10335 16.1103C7.23016 15.985 7.39122 15.8999 7.56625 15.8659C7.74128 15.8319 7.92246 15.8504 8.08699 15.9191C8.25153 15.9878 8.39206 16.1037 8.49091 16.2521C8.58976 16.4004 8.64252 16.5748 8.64253 16.7531C8.64254 16.8727 8.61881 16.9911 8.57273 17.1014C8.52664 17.2118 8.45911 17.3119 8.37405 17.396C8.289 17.48 8.1881 17.5464 8.07721 17.5912C7.96633 17.636 7.84765 17.6583 7.72807 17.6569ZM7.72807 14.2436C7.54932 14.2415 7.37522 14.1864 7.22778 14.0854C7.08033 13.9843 6.96616 13.8418 6.89971 13.6759C6.83326 13.5099 6.8175 13.328 6.85444 13.1531C6.89138 12.9782 6.97934 12.8182 7.10722 12.6933C7.2351 12.5684 7.39714 12.4842 7.57286 12.4514C7.74858 12.4186 7.93008 12.4386 8.09441 12.5089C8.25875 12.5793 8.39853 12.6968 8.4961 12.8466C8.59366 12.9963 8.64462 13.1717 8.64253 13.3504C8.63697 13.5893 8.53818 13.8164 8.36728 13.9833C8.19639 14.1503 7.96696 14.2437 7.72807 14.2436ZM11.1413 14.2436C10.9631 14.2394 10.7901 14.1826 10.6441 14.0803C10.498 13.978 10.3855 13.8348 10.3207 13.6687C10.2559 13.5026 10.2416 13.321 10.2797 13.1469C10.3178 12.9727 10.4066 12.8137 10.5349 12.6898C10.6631 12.566 10.8252 12.4828 11.0006 12.4509C11.176 12.4189 11.3569 12.4395 11.5206 12.5101C11.6844 12.5807 11.8235 12.6982 11.9206 12.8477C12.0178 12.9972 12.0685 13.1721 12.0664 13.3504C12.0638 13.4733 12.0364 13.5944 11.9859 13.7065C11.9354 13.8186 11.8628 13.9193 11.7725 14.0027C11.6821 14.086 11.5759 14.1504 11.4602 14.1918C11.3444 14.2332 11.2215 14.2508 11.0988 14.2436H11.1413ZM18.372 14.7434C17.5307 14.7434 16.7084 14.9928 16.009 15.4602C15.3095 15.9276 14.7643 16.5918 14.4424 17.369C14.1205 18.1462 14.0363 19.0014 14.2004 19.8265C14.3645 20.6515 14.7696 21.4094 15.3644 22.0042C15.9593 22.5991 16.7171 23.0042 17.5422 23.1683C18.3673 23.3324 19.2224 23.2482 19.9996 22.9262C20.7768 22.6043 21.4411 22.0592 21.9085 21.3597C22.3758 20.6602 22.6253 19.8379 22.6253 18.9967C22.6253 18.4372 22.5149 17.8833 22.3005 17.3666C22.0861 16.8498 21.7718 16.3805 21.3758 15.9854C20.9797 15.5903 20.5095 15.2772 19.9923 15.0641C19.475 14.851 18.9208 14.742 18.3613 14.7434H18.372ZM20.7751 18.6245L18.9568 20.9426C18.8825 21.0382 18.7874 21.1157 18.6787 21.1692C18.57 21.2226 18.4506 21.2506 18.3294 21.2509C18.2082 21.2514 18.0885 21.2237 17.9796 21.1703C17.8708 21.1168 17.7758 21.0388 17.7021 20.9426L16.3942 19.2732C16.3144 19.192 16.2527 19.0948 16.2131 18.9881C16.1735 18.8814 16.1569 18.7676 16.1643 18.654C16.1718 18.5404 16.2031 18.4297 16.2563 18.3291C16.3096 18.2285 16.3834 18.1402 16.4731 18.0701C16.5628 18.0001 16.6663 17.9497 16.7767 17.9224C16.8872 17.8951 17.0022 17.8914 17.1143 17.9116C17.2263 17.9318 17.3327 17.9755 17.4267 18.0397C17.5207 18.1039 17.6 18.1872 17.6595 18.2843L18.3294 19.1562L19.5204 17.6463C19.5839 17.5629 19.6634 17.4931 19.7543 17.4409C19.8451 17.3887 19.9455 17.3552 20.0495 17.3423C20.1535 17.3294 20.2591 17.3374 20.3599 17.3659C20.4608 17.3944 20.5549 17.4427 20.6369 17.508C20.7964 17.6442 20.8959 17.8377 20.9138 18.0466C20.9318 18.2556 20.8666 18.4632 20.7326 18.6245H20.7751Z" fill="black"/>
</svg>
