<svg width="24" height="24" viewBox="0 0 24 24" fill="none" xmlns="http://www.w3.org/2000/svg">
<path d="M1.91184 19.0983H22.1097C21.8539 20.2026 21.2252 21.1893 20.3259 21.8978C19.4267 22.6063 18.3099 22.9947 17.1574 23H6.86421C5.71166 22.9947 4.59487 22.6063 3.69563 21.8978C2.7964 21.1893 2.16768 20.2026 1.91184 19.0983ZM12.0108 12.9277C11.749 12.9252 11.4952 13.0163 11.2967 13.184C11.0981 13.3518 10.9685 13.5848 10.9318 13.8395C10.9709 14.0923 11.1015 14.3228 11.2998 14.4884C11.4981 14.654 11.7506 14.7436 12.0108 14.7407C12.271 14.7436 12.5235 14.654 12.7218 14.4884C12.92 14.3228 13.0507 14.0923 13.0897 13.8395C13.0531 13.5848 12.9234 13.3518 12.7249 13.184C12.5264 13.0163 12.2726 12.9252 12.0108 12.9277ZM12.0108 11.3373C12.202 11.3491 12.3903 11.287 12.5354 11.1641C12.6806 11.0413 12.7711 10.8675 12.7876 10.68C12.7569 10.4994 12.662 10.3353 12.5197 10.217C12.3775 10.0986 12.1972 10.0337 12.0108 10.0337C11.8244 10.0337 11.6441 10.0986 11.5019 10.217C11.3596 10.3353 11.2647 10.4994 11.2339 10.68C11.2505 10.8675 11.341 11.0413 11.4862 11.1641C11.6313 11.287 11.8196 11.3491 12.0108 11.3373ZM22.25 8.36867V17.508H1.75V8.36867C1.75 7.70921 1.88236 7.05622 2.1395 6.44709C2.39665 5.83796 2.77353 5.28464 3.24857 4.81882C3.72361 4.353 4.28748 3.98383 4.9079 3.73243C5.52832 3.48103 6.19311 3.35234 6.86421 3.35373V1.79518C6.86421 1.58429 6.94947 1.38203 7.10122 1.2329C7.25298 1.08378 7.45881 1 7.67342 1C7.88804 1 8.09386 1.08378 8.24562 1.2329C8.39738 1.38203 8.48263 1.58429 8.48263 1.79518V3.35373H15.4958V1.79518C15.4958 1.58429 15.581 1.38203 15.7328 1.2329C15.8846 1.08378 16.0904 1 16.305 1C16.5196 1 16.7254 1.08378 16.8772 1.2329C17.029 1.38203 17.1142 1.58429 17.1142 1.79518V3.35373C17.7871 3.34954 18.4542 3.47616 19.0771 3.72631C19.7001 3.97645 20.2665 4.34519 20.7438 4.81128C21.2211 5.27738 21.6 5.83164 21.8585 6.44217C22.1169 7.05269 22.25 7.70742 22.25 8.36867ZM14.6974 13.8395C14.6954 13.4976 14.6194 13.16 14.4743 12.8492C14.3292 12.5384 14.1183 12.2616 13.8558 12.0371C14.1901 11.653 14.3737 11.1642 14.3737 10.6588C14.3737 10.0345 14.1213 9.43586 13.6721 8.99445C13.2229 8.55304 12.6137 8.30506 11.9784 8.30506C11.3432 8.30506 10.7339 8.55304 10.2847 8.99445C9.83552 9.43586 9.58316 10.0345 9.58316 10.6588C9.58312 11.1642 9.76678 11.653 10.1011 12.0371C9.83853 12.2616 9.62768 12.5384 9.48257 12.8492C9.33746 13.16 9.2614 13.4976 9.25947 13.8395C9.27194 14.1812 9.3532 14.517 9.49856 14.8276C9.64392 15.1383 9.85049 15.4175 10.1063 15.6492C10.3622 15.8808 10.6622 16.0604 10.9891 16.1775C11.316 16.2945 11.6632 16.3467 12.0108 16.3311C12.3566 16.3438 12.7015 16.2895 13.0259 16.1712C13.3503 16.0528 13.6478 15.8728 13.9013 15.6414C14.1548 15.41 14.3594 15.1317 14.5034 14.8225C14.6474 14.5134 14.728 14.1793 14.7405 13.8395H14.6974Z" fill="black"/>
</svg>
