<svg width="24" height="24" viewBox="0 0 24 24" fill="none" xmlns="http://www.w3.org/2000/svg">
<path d="M15.9271 17.171L11.9824 21.1157C10.7759 22.3222 9.13958 23 7.43335 23C5.72712 23 4.09077 22.3222 2.88428 21.1157C1.6778 19.9092 1 18.2729 1 16.5667C1 14.8604 1.6778 13.2241 2.88428 12.0176L6.829 8.07287L15.9271 17.171ZM21.0805 2.88649C20.4835 2.28847 19.7744 1.81403 18.9938 1.49032C18.2133 1.16662 17.3765 1 16.5315 1C15.6864 1 14.8497 1.16662 14.0691 1.49032C13.2885 1.81403 12.5795 2.28847 11.9824 2.88649L8.03769 6.86418L17.1358 15.9623L21.0805 12.0176C21.6786 11.4206 22.153 10.7115 22.4767 9.93088C22.8004 9.1503 22.967 8.31356 22.967 7.46852C22.967 6.62349 22.8004 5.78674 22.4767 5.00616C22.153 4.22558 21.6786 3.51649 21.0805 2.91946V2.88649Z" fill="black"/>
</svg>
