<svg width="24" height="24" viewBox="0 0 24 24" fill="none" xmlns="http://www.w3.org/2000/svg">
<path d="M21.8029 12.0958C21.7637 11.5956 21.583 11.1168 21.282 10.7154C20.9809 10.3139 20.5719 10.0064 20.1026 9.82876C19.9555 9.77563 19.8046 9.73353 19.6513 9.70281C19.4905 9.69198 19.3292 9.69198 19.1685 9.70281H4.82097C4.6448 9.70413 4.46913 9.7217 4.29619 9.75529C4.13045 9.7868 3.96859 9.83607 3.81339 9.90223C3.36782 10.0908 2.98249 10.3979 2.69935 10.7902C2.41622 11.1825 2.24611 11.645 2.20756 12.1273L1.50436 20.3349C1.4885 20.5447 1.51604 20.7556 1.58525 20.9543C1.65446 21.1531 1.76387 21.3354 1.90665 21.49C2.04943 21.6446 2.22253 21.7681 2.41515 21.8529C2.60776 21.9377 2.81578 21.9818 3.02622 21.9827H6.84663C7.23611 21.9833 7.61101 21.8345 7.89412 21.567C8.17723 21.2995 8.347 20.9337 8.36849 20.5448V20.4608C8.39007 20.0701 8.56131 19.7027 8.84667 19.4349C9.13202 19.1672 9.50955 19.0196 9.90085 19.0229H13.7317C14.1105 19.0235 14.4756 19.1643 14.7566 19.4182C15.0377 19.6721 15.2147 20.0211 15.2536 20.3978V20.5973C15.2901 20.9759 15.4661 21.3274 15.7474 21.5835C16.0286 21.8395 16.3951 21.9818 16.7755 21.9827H20.9212C21.1361 21.9892 21.3499 21.9504 21.5487 21.8689C21.7476 21.7874 21.9271 21.665 22.0756 21.5096C22.2241 21.3542 22.3382 21.1693 22.4106 20.9669C22.4829 20.7645 22.5119 20.5492 22.4956 20.3349L21.8029 12.0958ZM8.68336 13.9955H5.53467C5.33982 13.9955 5.15295 13.9181 5.01517 13.7803C4.87738 13.6426 4.79998 13.4557 4.79998 13.2608C4.79998 13.066 4.87738 12.8791 5.01517 12.7413C5.15295 12.6035 5.33982 12.5261 5.53467 12.5261H8.68336C8.87821 12.5261 9.06508 12.6035 9.20287 12.7413C9.34065 12.8791 9.41805 13.066 9.41805 13.2608C9.41805 13.4557 9.34065 13.6426 9.20287 13.7803C9.06508 13.9181 8.87821 13.9955 8.68336 13.9955ZM18.5492 13.9955H15.4006C15.2057 13.9955 15.0188 13.9181 14.881 13.7803C14.7433 13.6426 14.6659 13.4557 14.6659 13.2608C14.6659 13.066 14.7433 12.8791 14.881 12.7413C15.0188 12.6035 15.2057 12.5261 15.4006 12.5261H18.5492C18.7441 12.5261 18.931 12.6035 19.0687 12.7413C19.2065 12.8791 19.2839 13.066 19.2839 13.2608C19.2839 13.4557 19.2065 13.6426 19.0687 13.7803C18.931 13.9181 18.7441 13.9955 18.5492 13.9955ZM21.2361 7.45675C21.2361 7.55412 21.2168 7.65052 21.1792 7.74035C21.1416 7.83018 21.0866 7.91164 21.0172 7.98C20.9479 8.04836 20.8657 8.10226 20.7753 8.13856C20.685 8.17486 20.5883 8.19283 20.4909 8.19144H3.03672C2.93936 8.19283 2.84269 8.17486 2.75234 8.13856C2.66199 8.10226 2.57975 8.04836 2.51041 7.98C2.44107 7.91164 2.38602 7.83018 2.34844 7.74035C2.31086 7.65052 2.29152 7.55412 2.29153 7.45675C2.30226 7.26648 2.38549 7.08755 2.52409 6.95676C2.6627 6.82596 2.84614 6.75324 3.03672 6.75354H4.22272L4.65304 4.44451C4.77296 3.76967 5.12498 3.15797 5.64821 2.71524C6.17144 2.2725 6.83297 2.02658 7.51835 2.02002H16.2507C16.9397 2.02169 17.6062 2.26539 18.1338 2.70855C18.6613 3.15171 19.0164 3.76614 19.137 4.44451L19.5463 6.75354H20.4909C20.6815 6.75324 20.8649 6.82596 21.0036 6.95676C21.1422 7.08755 21.2254 7.26648 21.2361 7.45675Z" fill="black"/>
</svg>
