<svg width="24" height="24" viewBox="0 0 24 24" fill="none" xmlns="http://www.w3.org/2000/svg">
<path d="M7.62327 10.5035H4.65077C3.88144 10.5035 3.14362 10.1979 2.59963 9.65389C2.05563 9.10989 1.75002 8.37208 1.75002 7.60275V4.62C1.75812 3.85601 2.0673 3.12607 2.61042 2.58871C3.15354 2.05135 3.88674 1.74996 4.65077 1.75H7.62327C8.3873 1.74996 9.12049 2.05135 9.66361 2.58871C10.2067 3.12607 10.5159 3.85601 10.524 4.62V7.60275C10.524 8.37208 10.2184 9.10989 9.67441 9.65389C9.13041 10.1979 8.39259 10.5035 7.62327 10.5035ZM22.25 7.6335V4.661C22.2514 4.27921 22.1773 3.9009 22.0322 3.54778C21.887 3.19466 21.6735 2.87368 21.404 2.60323C21.1345 2.33278 20.8143 2.1182 20.4617 1.97178C20.1091 1.82537 19.7311 1.75 19.3493 1.75H16.3768C15.6074 1.75 14.8696 2.05561 14.3256 2.59961C13.7816 3.14361 13.476 3.88142 13.476 4.65075V7.62325C13.476 8.39258 13.7816 9.13039 14.3256 9.67439C14.8696 10.2184 15.6074 10.524 16.3768 10.524H19.3493C20.1168 10.524 20.8531 10.2198 21.3968 9.67802C21.9405 9.13624 22.2473 8.40105 22.25 7.6335ZM10.524 19.339V16.3665C10.524 15.5972 10.2184 14.8594 9.67441 14.3154C9.13041 13.7714 8.39259 13.4657 7.62327 13.4657H4.65077C3.88144 13.4657 3.14362 13.7714 2.59963 14.3154C2.05563 14.8594 1.75002 15.5972 1.75002 16.3665V19.339C1.74867 19.7208 1.8227 20.0991 1.96788 20.4522C2.11305 20.8053 2.3265 21.1263 2.596 21.3968C2.86549 21.6672 3.18572 21.8818 3.53833 22.0282C3.89093 22.1746 4.26897 22.25 4.65077 22.25H7.62327C8.00506 22.25 8.3831 22.1746 8.73571 22.0282C9.08831 21.8818 9.40855 21.6672 9.67804 21.3968C9.94753 21.1263 10.161 20.8053 10.3062 20.4522C10.4513 20.0991 10.5254 19.7208 10.524 19.339ZM22.25 19.38V16.3973C22.25 15.6279 21.9444 14.8901 21.4004 14.3461C20.8564 13.8021 20.1186 13.4965 19.3493 13.4965H16.3768C15.6074 13.4965 14.8696 13.8021 14.3256 14.3461C13.7816 14.8901 13.476 15.6279 13.476 16.3973V19.38C13.4841 20.144 13.7933 20.8739 14.3364 21.4113C14.8795 21.9487 15.6127 22.25 16.3768 22.25H19.3493C20.1133 22.25 20.8465 21.9487 21.3896 21.4113C21.9327 20.8739 22.2419 20.144 22.25 19.38Z" fill="black"/>
</svg>
