<svg width="24" height="24" viewBox="0 0 24 24" fill="none" xmlns="http://www.w3.org/2000/svg">
<path d="M11.75 0.75C9.57441 0.75 7.44767 1.39514 5.63873 2.60383C3.82979 3.81253 2.41989 5.53049 1.58733 7.54048C0.754766 9.55047 0.53693 11.7622 0.961367 13.896C1.3858 16.0298 2.43345 17.9898 3.97183 19.5282C5.51021 21.0665 7.47022 22.1142 9.60401 22.5386C11.7378 22.9631 13.9495 22.7452 15.9595 21.9127C17.9695 21.0801 19.6875 19.6702 20.8962 17.8613C22.1049 16.0523 22.75 13.9256 22.75 11.75C22.75 10.3055 22.4655 8.87506 21.9127 7.54048C21.3599 6.2059 20.5496 4.99327 19.5282 3.97182C18.5067 2.95038 17.2941 2.14013 15.9595 1.58732C14.6249 1.03452 13.1945 0.75 11.75 0.75ZM16.667 15.963C15.9549 16.8505 15.0294 17.5431 13.9771 17.9759C12.9247 18.4088 11.7798 18.5678 10.6493 18.4382C9.51886 18.3085 8.43968 17.8945 7.51262 17.2347C6.58557 16.5748 5.84088 15.6908 5.34815 14.6651C4.85541 13.6394 4.6307 12.5056 4.69501 11.3695C4.75932 10.2335 5.11054 9.13223 5.71588 8.16871C6.32121 7.20519 7.1609 6.41083 8.1565 5.85984C9.1521 5.30886 10.2711 5.01922 11.409 5.018C12.7193 5.01074 14.0021 5.39367 15.094 6.118C15.2662 6.23656 15.387 6.41608 15.4319 6.62028C15.4768 6.82447 15.4426 7.03811 15.336 7.218C15.2158 7.3884 15.0355 7.50695 14.8314 7.54981C14.6273 7.59266 14.4146 7.55665 14.236 7.449C13.4119 6.91143 12.4495 6.62466 11.4655 6.62349C10.4816 6.62232 9.51848 6.9068 8.6931 7.44241C7.86772 7.97801 7.21557 8.7417 6.81581 9.64077C6.41606 10.5398 6.2859 11.5356 6.44113 12.5072C6.59635 13.4788 7.0303 14.3845 7.69028 15.1143C8.35026 15.844 9.20789 16.3665 10.1591 16.6183C11.1102 16.8701 12.1141 16.8403 13.0486 16.5326C13.9832 16.2249 14.8084 15.6526 15.424 14.885C15.5617 14.7167 15.7603 14.6095 15.9766 14.5869C16.1929 14.5642 16.4094 14.6279 16.579 14.764C16.6652 14.8358 16.736 14.9243 16.7872 15.0241C16.8385 15.1239 16.8691 15.233 16.8773 15.3448C16.8855 15.4567 16.8711 15.5691 16.835 15.6753C16.7989 15.7815 16.7417 15.8793 16.667 15.963ZM17.536 11.024C17.2815 11.024 17.0326 10.9485 16.821 10.8071C16.6093 10.6657 16.4444 10.4647 16.347 10.2295C16.2496 9.99434 16.2241 9.73557 16.2737 9.48592C16.3234 9.23626 16.446 9.00694 16.626 8.82695C16.8059 8.64696 17.0353 8.52439 17.2849 8.47473C17.5346 8.42507 17.7933 8.45055 18.0285 8.54796C18.2637 8.64537 18.4647 8.81033 18.6061 9.02198C18.7475 9.23363 18.823 9.48245 18.823 9.737C18.823 10.0783 18.6874 10.4057 18.446 10.647C18.2047 10.8884 17.8773 11.024 17.536 11.024Z" fill="black"/>
</svg>
