<svg width="24" height="24" viewBox="0 0 24 24" fill="none" xmlns="http://www.w3.org/2000/svg">
<path d="M16.4183 1.25H7.58175C5.89168 1.28099 4.28132 1.9742 3.09716 3.18047C1.91301 4.38673 1.24972 6.00965 1.25 7.7V16.3C1.24972 17.9904 1.91301 19.6133 3.09716 20.8195C4.28132 22.0258 5.89168 22.719 7.58175 22.75H16.4183C18.1083 22.719 19.7187 22.0258 20.9028 20.8195C22.087 19.6133 22.7503 17.9904 22.75 16.3V7.7C22.7503 6.00965 22.087 4.38673 20.9028 3.18047C19.7187 1.9742 18.1083 1.28099 16.4183 1.25ZM18.3533 15.225C18.3547 15.3323 18.3349 15.4388 18.2952 15.5385C18.2554 15.6381 18.1964 15.729 18.1216 15.8059C18.0467 15.8827 17.9574 15.9441 17.8588 15.9865C17.7603 16.0288 17.6543 16.0513 17.547 16.0528H14.4188C14.2168 16.0296 14.0305 15.933 13.8952 15.7814C13.7599 15.6297 13.6852 15.4336 13.6852 15.2304C13.6852 15.0272 13.7599 14.831 13.8952 14.6794C14.0305 14.5277 14.2168 14.4311 14.4188 14.408H15.698L13.075 11.4948C13.0549 11.4751 13.0279 11.464 12.9998 11.464C12.9716 11.464 12.9446 11.4751 12.9245 11.4948L11.2583 12.8493C10.9296 13.1244 10.508 13.2632 10.0802 13.2372C9.65236 13.2112 9.25071 13.0224 8.95775 12.7095L6.37775 10.022C6.22795 9.86587 6.14431 9.65787 6.14431 9.4415C6.14431 9.22513 6.22795 9.01713 6.37775 8.861C6.45187 8.78494 6.54046 8.72448 6.63832 8.68321C6.73617 8.64193 6.8413 8.62066 6.9475 8.62066C7.0537 8.62066 7.15883 8.64193 7.25668 8.68321C7.35454 8.72448 7.44313 8.78494 7.51725 8.861L10.0972 11.5485C10.1184 11.566 10.145 11.5755 10.1725 11.5755C10.2 11.5755 10.2266 11.566 10.2478 11.5485L11.9033 10.194C12.2431 9.91894 12.6755 9.78459 13.1114 9.81859C13.5473 9.85258 13.9536 10.0523 14.2468 10.3767L16.7408 13.075V12C16.7408 11.7862 16.8257 11.5811 16.9769 11.4299C17.1281 11.2787 17.3332 11.1938 17.547 11.1938C17.7608 11.1938 17.9659 11.2787 18.1171 11.4299C18.2683 11.5811 18.3533 11.7862 18.3533 12V15.225Z" fill="black"/>
</svg>
