<svg width="24" height="24" viewBox="0 0 24 24" fill="none" xmlns="http://www.w3.org/2000/svg">
<path d="M21.5133 23H2.48279C2.26722 23 2.06048 22.9144 1.90805 22.7619C1.75562 22.6095 1.66998 22.4028 1.66998 22.1872C1.66998 21.9716 1.75562 21.7649 1.90805 21.6124C2.06048 21.46 2.26722 21.3744 2.48279 21.3744H21.5133C21.7289 21.3744 21.9356 21.46 22.0881 21.6124C22.2405 21.7649 22.3261 21.9716 22.3261 22.1872C22.3261 22.4028 22.2405 22.6095 22.0881 22.7619C21.9356 22.9144 21.7289 23 21.5133 23ZM13.266 18.5025V6.98227C13.2661 6.64497 13.1328 6.32133 12.8953 6.08182C12.6578 5.8423 12.3353 5.70631 11.9981 5.70345H10.9143C10.5808 5.71193 10.2638 5.8504 10.031 6.08931C9.79816 6.32822 9.66791 6.64866 9.66801 6.98227V18.5025C9.67897 18.8285 9.81412 19.138 10.0458 19.3677C10.2775 19.5974 10.5882 19.7298 10.9143 19.7379H11.9981C12.328 19.7353 12.6441 19.6053 12.8804 19.3751C13.1167 19.1448 13.2549 18.8322 13.266 18.5025ZM19.4325 18.3724V2.40887C19.4325 2.03521 19.2841 1.67686 19.0199 1.41265C18.7557 1.14843 18.3973 1 18.0237 1H17.2542C16.8806 1 16.5222 1.14843 16.258 1.41265C15.9938 1.67686 15.8454 2.03521 15.8454 2.40887V18.3291C15.8454 18.7027 15.9938 19.0611 16.258 19.3253C16.5222 19.5895 16.8806 19.7379 17.2542 19.7379H18.0237C18.3973 19.7379 18.7557 19.5895 19.0199 19.3253C19.2841 19.0611 19.4325 18.7027 19.4325 18.3291V18.3724ZM7.14289 18.5025V12.3793C7.14289 12.0401 7.00816 11.7149 6.76833 11.475C6.52851 11.2352 6.20324 11.1005 5.86407 11.1005H4.78033C4.44873 11.1117 4.13449 11.2514 3.90396 11.49C3.67343 11.7287 3.54467 12.0475 3.54486 12.3793V18.5025C3.54486 18.8416 3.67959 19.1669 3.91942 19.4067C4.15924 19.6466 4.48451 19.7813 4.82368 19.7813H5.90742C6.23902 19.77 6.55326 19.6304 6.78379 19.3917C7.01432 19.1531 7.14308 18.8342 7.14289 18.5025Z" fill="black"/>
</svg>
