<svg width="24" height="24" viewBox="0 0 24 24" fill="none" xmlns="http://www.w3.org/2000/svg">
<path d="M13.2083 8.2417V2.93052C13.2071 2.69775 13.2577 2.46763 13.3563 2.25676C13.4548 2.04589 13.599 1.85953 13.7783 1.71112C13.9576 1.56271 14.1677 1.45595 14.3933 1.39855C14.6188 1.34115 14.8544 1.33453 15.0828 1.37918C16.9686 1.75035 18.7015 2.6736 20.0615 4.03167C21.4215 5.38973 22.3472 7.12135 22.721 9.0066C22.7654 9.23558 22.7587 9.47156 22.7014 9.69766C22.644 9.92375 22.5374 10.1344 22.3892 10.3145C22.241 10.4946 22.0548 10.6398 21.844 10.7396C21.6332 10.8394 21.4029 10.8914 21.1697 10.8919H15.8585C15.1556 10.8919 14.4815 10.6127 13.9845 10.1157C13.4875 9.61867 13.2083 8.94458 13.2083 8.2417ZM13.2083 15.6968V21.0079C13.2071 21.2407 13.2577 21.4708 13.3563 21.6817C13.4548 21.8926 13.599 22.0789 13.7783 22.2273C13.9576 22.3757 14.1677 22.4825 14.3933 22.5399C14.6188 22.5973 14.8544 22.6039 15.0828 22.5593C16.9686 22.1881 18.7015 21.2649 20.0615 19.9068C21.4215 18.5487 22.3472 16.8171 22.721 14.9319C22.7654 14.7029 22.7587 14.4669 22.7014 14.2408C22.644 14.0147 22.5374 13.8041 22.3892 13.6239C22.241 13.4438 22.0548 13.2987 21.844 13.1989C21.6332 13.099 21.4029 13.047 21.1697 13.0465H15.8585C15.1556 13.0465 14.4815 13.3258 13.9845 13.8228C13.4875 14.3198 13.2083 14.9939 13.2083 15.6968ZM11.9478 3.16753C11.9473 2.91316 11.8898 2.66213 11.7796 2.43291C11.6693 2.20368 11.5091 2.00208 11.3107 1.84292C11.1122 1.68377 10.8807 1.57111 10.633 1.51323C10.3853 1.45535 10.1278 1.45372 9.87936 1.50845C7.44399 2.00298 5.25448 3.32423 3.6818 5.24835C2.10912 7.17247 1.25 9.58112 1.25 12.0662C1.25 14.5513 2.10912 16.9599 3.6818 18.884C5.25448 20.8081 7.44399 22.1294 9.87936 22.6239C10.1247 22.6714 10.3775 22.6642 10.6198 22.603C10.8621 22.5417 11.0879 22.4279 11.2812 22.2695C11.4746 22.1111 11.6306 21.9121 11.7384 21.6867C11.8462 21.4612 11.9029 21.2147 11.9047 20.9648L11.9478 3.16753Z" fill="black"/>
</svg>
