<svg width="24" height="24" viewBox="0 0 24 24" fill="none" xmlns="http://www.w3.org/2000/svg">
<path d="M21.6009 23H2.4001C2.1826 23 1.97401 22.9136 1.82021 22.7598C1.66642 22.606 1.58002 22.3974 1.58002 22.1799C1.58002 21.9624 1.66642 21.7538 1.82021 21.6C1.97401 21.4462 2.1826 21.3598 2.4001 21.3598H21.6009C21.8184 21.3598 22.027 21.4462 22.1808 21.6C22.3346 21.7538 22.421 21.9624 22.421 22.1799C22.421 22.3974 22.3346 22.606 22.1808 22.7598C22.027 22.9136 21.8184 23 21.6009 23ZM19.6546 18.4294V6.98111C19.656 6.81219 19.624 6.64466 19.5603 6.48818C19.4967 6.3317 19.4027 6.18937 19.2838 6.06942C19.1648 5.94946 19.0233 5.85425 18.8674 5.78927C18.7114 5.7243 18.5442 5.69085 18.3752 5.69086H17.2818C17.1129 5.69085 16.9456 5.7243 16.7897 5.78927C16.6338 5.85425 16.4922 5.94946 16.3733 6.06942C16.2544 6.18937 16.1604 6.3317 16.0967 6.48818C16.0331 6.64466 16.001 6.81219 16.0025 6.98111V18.4294C16.0025 18.7687 16.1373 19.0941 16.3772 19.334C16.6171 19.574 16.9425 19.7087 17.2818 19.7087H18.3752C18.5432 19.7087 18.7096 19.6757 18.8648 19.6114C19.02 19.5471 19.1611 19.4528 19.2799 19.334C19.3987 19.2152 19.4929 19.0742 19.5572 18.919C19.6215 18.7638 19.6546 18.5974 19.6546 18.4294ZM13.411 18.2982V2.42147C13.411 2.04636 13.2628 1.68645 12.9986 1.42019C12.7343 1.15392 12.3756 1.00289 12.0005 1H11.2023C10.8253 1 10.4637 1.14976 10.1972 1.41634C9.93057 1.68292 9.78081 2.04447 9.78081 2.42147V18.2982C9.7837 18.6733 9.93473 19.0321 10.201 19.2963C10.4673 19.5605 10.8272 19.7088 11.2023 19.7087H12.0005C12.367 19.6974 12.7146 19.5438 12.9697 19.2805C13.2249 19.0172 13.3675 18.6649 13.3673 18.2982H13.411ZM7.16749 18.4294V12.3718C7.16749 12.0296 7.03156 11.7014 6.78959 11.4594C6.54761 11.2175 6.21943 11.0815 5.87723 11.0815H4.78379C4.4416 11.0815 4.11341 11.2175 3.87144 11.4594C3.62947 11.7014 3.49354 12.0296 3.49354 12.3718V18.4294C3.49353 18.5984 3.52698 18.7656 3.59195 18.9215C3.65693 19.0775 3.75214 19.219 3.8721 19.3379C3.99206 19.4569 4.13438 19.5509 4.29086 19.6145C4.44734 19.6782 4.61487 19.7102 4.78379 19.7087H5.87723C6.21081 19.7002 6.52785 19.5616 6.76072 19.3226C6.99359 19.0836 7.12386 18.7631 7.12375 18.4294H7.16749Z" fill="black"/>
</svg>
