<svg width="24" height="24" viewBox="0 0 24 24" fill="none" xmlns="http://www.w3.org/2000/svg">
<path d="M13.1352 7.8552V2.97005C13.1335 2.71612 13.1883 2.465 13.2958 2.23495C13.4032 2.00491 13.5606 1.80172 13.7564 1.64019C13.9522 1.47865 14.1816 1.36283 14.4277 1.30116C14.6739 1.23948 14.9308 1.23349 15.1796 1.28364C17.0261 1.67853 18.719 2.59946 20.0542 3.93537C21.3894 5.27127 22.3098 6.96512 22.7045 8.81264C22.764 9.06536 22.7652 9.32834 22.7079 9.58158C22.6506 9.83482 22.5364 10.0717 22.3739 10.2741C22.2114 10.4765 22.0049 10.6393 21.7701 10.7499C21.5353 10.8605 21.2785 10.9161 21.019 10.9125H16.1365C15.7373 10.914 15.3419 10.8356 14.9735 10.6818C14.6051 10.5281 14.2712 10.302 13.9915 10.0171C13.7118 9.73216 13.4919 9.39408 13.3448 9.02278C13.1978 8.65149 13.1265 8.25449 13.1352 7.8552ZM16.1365 12.4901C14.9079 12.4901 13.7296 12.0018 12.8609 11.1326C11.9922 10.2634 11.5041 9.08445 11.5041 7.8552V3.29645C11.3192 3.29645 11.1453 3.29645 10.9604 3.29645C9.04092 3.29864 7.16505 3.86932 5.56923 4.93656C3.97342 6.0038 2.72908 7.51983 1.99307 9.29356C1.25706 11.0673 1.06232 13.0193 1.43339 14.9036C1.80447 16.7879 2.72475 18.5201 4.07824 19.8819C5.43173 21.2437 7.15785 22.1741 9.03902 22.5559C10.9202 22.9376 12.8722 22.7537 14.649 22.0272C16.4259 21.3006 17.948 20.0641 19.0235 18.4734C20.0991 16.8827 20.6799 15.009 20.6928 13.0885C20.6928 12.9035 20.6928 12.7295 20.6928 12.5445L16.1365 12.4901Z" fill="black"/>
</svg>
