<svg width="24" height="24" viewBox="0 0 24 24" fill="none" xmlns="http://www.w3.org/2000/svg">
<path d="M16.4183 1.25H7.58175C5.89168 1.28099 4.28132 1.9742 3.09716 3.18047C1.91301 4.38673 1.24972 6.00965 1.25 7.7V16.3C1.24972 17.9904 1.91301 19.6133 3.09716 20.8195C4.28132 22.0258 5.89168 22.719 7.58175 22.75H16.4183C18.1083 22.719 19.7187 22.0258 20.9028 20.8195C22.087 19.6133 22.7503 17.9904 22.75 16.3V7.7C22.7503 6.00965 22.087 4.38673 20.9028 3.18047C19.7187 1.9742 18.1083 1.28099 16.4183 1.25ZM18.3533 12C18.3533 12.2138 18.2683 12.4189 18.1171 12.5701C17.9659 12.7213 17.7608 12.8063 17.547 12.8063C17.3332 12.8063 17.1281 12.7213 16.9769 12.5701C16.8257 12.4189 16.7408 12.2138 16.7408 12V10.925L14.2575 13.6233C13.9644 13.9477 13.5581 14.1474 13.1222 14.1814C12.6862 14.2154 12.2539 14.0811 11.914 13.806L10.2585 12.4515C10.2373 12.434 10.2107 12.4245 10.1833 12.4245C10.1558 12.4245 10.1292 12.434 10.108 12.4515L7.528 15.139C7.45388 15.2151 7.36529 15.2755 7.26743 15.3168C7.16958 15.3581 7.06445 15.3793 6.95825 15.3793C6.85205 15.3793 6.74692 15.3581 6.64907 15.3168C6.55121 15.2755 6.46262 15.2151 6.3885 15.139C6.23871 14.9829 6.15506 14.7749 6.15506 14.5585C6.15506 14.3421 6.23871 14.1341 6.3885 13.978L8.9685 11.2905C9.26282 10.9799 9.6641 10.7928 10.0912 10.7668C10.5183 10.7409 10.9393 10.8781 11.269 11.1508L12.9353 12.5053C12.9553 12.5249 12.9824 12.536 13.0105 12.536C13.0386 12.536 13.0657 12.5249 13.0858 12.5053L15.698 9.635H14.4188C14.2168 9.61188 14.0305 9.51529 13.8952 9.36363C13.7599 9.21197 13.6852 9.01585 13.6852 8.81263C13.6852 8.6094 13.7599 8.41328 13.8952 8.26162C14.0305 8.10996 14.2168 8.01337 14.4188 7.99025H17.547C17.6543 7.99165 17.7603 8.01418 17.8588 8.05654C17.9574 8.0989 18.0467 8.16026 18.1216 8.23712C18.1964 8.31399 18.2554 8.40485 18.2952 8.50452C18.3349 8.60419 18.3547 8.71071 18.3533 8.818V12Z" fill="black"/>
</svg>
