<svg width="24" height="24" viewBox="0 0 24 24" fill="none" xmlns="http://www.w3.org/2000/svg">
<path d="M16.5098 22.75H7.47937C5.82525 22.7443 4.24084 22.0832 3.07322 20.9115C1.90561 19.7398 1.24999 18.1531 1.25 16.499V7.49022C1.25 5.83709 1.90596 4.25151 3.07388 3.08156C4.2418 1.91161 5.82624 1.2529 7.47937 1.25004H16.499C17.3188 1.24719 18.1312 1.40622 18.8895 1.718C19.6478 2.02978 20.337 2.48818 20.9178 3.06691C21.4985 3.64565 21.9593 4.33333 22.2737 5.09052C22.5881 5.84772 22.75 6.65953 22.75 7.4794V16.4882C22.7528 17.3095 22.5935 18.1233 22.2812 18.8828C21.9689 19.6424 21.5097 20.3329 20.9299 20.9147C20.3502 21.4964 19.6613 21.958 18.9028 22.2729C18.1443 22.5879 17.3311 22.75 16.5098 22.75ZM11.6864 15.9907L18.1753 9.50178C18.3767 9.29915 18.4898 9.02505 18.4898 8.73934C18.4898 8.45362 18.3767 8.17952 18.1753 7.97689C18.0747 7.87552 17.9551 7.79507 17.8233 7.74016C17.6915 7.68525 17.5502 7.65699 17.4074 7.65699C17.2646 7.65699 17.1233 7.68525 16.9915 7.74016C16.8597 7.79507 16.7401 7.87552 16.6396 7.97689L10.9185 13.7088L7.39285 10.1615C7.29231 10.0601 7.17269 9.97967 7.04091 9.92476C6.90912 9.86986 6.76776 9.84159 6.62499 9.84159C6.48222 9.84159 6.34087 9.86986 6.20908 9.92476C6.07729 9.97967 5.95767 10.0601 5.85714 10.1615C5.65571 10.3641 5.54265 10.6382 5.54265 10.9239C5.54265 11.2097 5.65571 11.4838 5.85714 11.6864L10.1831 16.0123C10.3857 16.2138 10.6598 16.3268 10.9455 16.3268C11.2312 16.3268 11.5054 16.2138 11.708 16.0123L11.6864 15.9907Z" fill="black"/>
</svg>
