<svg width="24" height="24" viewBox="0 0 24 24" fill="none" xmlns="http://www.w3.org/2000/svg">
<path d="M3.77983 5.08094C4.88166 3.76737 6.28237 2.73724 7.86447 2.07695C9.44656 1.41667 11.1639 1.14548 12.8724 1.28615C14.581 1.42681 16.2309 1.97523 17.6837 2.88539C19.1365 3.79555 20.35 5.04092 21.2222 6.51701C17.9232 6.12435 14.5834 6.24275 11.3205 6.86805C10.201 7.02688 9.16132 7.53844 8.35232 8.32846C7.54332 9.11847 7.00714 10.1458 6.82161 11.2614C5.50937 9.36202 4.48441 7.27947 3.77983 5.08094ZM8.28932 12.123C8.28933 12.8577 8.50729 13.5759 8.91562 14.1867C9.32396 14.7974 9.90429 15.2732 10.5832 15.5539C11.262 15.8346 12.0089 15.9075 12.7292 15.7634C13.4495 15.6193 14.1109 15.2646 14.6296 14.7444C15.1482 14.2241 15.5009 13.5616 15.6429 12.8407C15.785 12.1199 15.7099 11.3731 15.4274 10.6949C15.1448 10.0167 14.6674 9.43764 14.0556 9.03099C13.4438 8.62434 12.7251 8.40839 11.9905 8.4105C11.5036 8.4105 11.0214 8.5066 10.5717 8.6933C10.1219 8.88 9.71344 9.15363 9.36961 9.49851C9.02578 9.84339 8.75338 10.2527 8.568 10.7031C8.38263 11.1535 8.28792 11.636 8.28932 12.123ZM15.2769 7.985C15.9022 8.4792 16.4085 9.10766 16.7583 9.82391C17.1081 10.5402 17.2924 11.3259 17.2977 12.123C17.2949 12.8324 17.1502 13.5341 16.8723 14.1867C15.6825 17.2715 14.0331 20.1586 11.9799 22.7499C13.7207 22.7562 15.4369 22.3388 16.9805 21.5338C18.5241 20.7287 19.8487 19.5602 20.84 18.1289C21.8314 16.6976 22.4597 15.0466 22.6708 13.3183C22.8819 11.59 22.6695 9.83626 22.0518 8.20839C19.8023 7.96342 17.5376 7.88875 15.2769 7.985ZM10.0548 22.5691C11.4676 20.8683 12.7108 19.0335 13.7667 17.0907C13.1986 17.3043 12.5973 17.4159 11.9905 17.4205C11.2726 17.415 10.5633 17.2642 9.90529 16.9772C9.24726 16.6902 8.65415 16.2729 8.1617 15.7504H8.09788C5.78132 13.0586 3.93662 9.99434 2.64182 6.68721C1.79727 8.17895 1.32263 9.85147 1.2577 11.5645C1.19276 13.2776 1.53944 14.9812 2.26864 16.5327C2.99784 18.0841 4.08832 19.438 5.44863 20.4809C6.80895 21.5238 8.39944 22.2253 10.0867 22.5265L10.0548 22.5691Z" fill="black"/>
</svg>
