<svg width="24" height="24" viewBox="0 0 24 24" fill="none" xmlns="http://www.w3.org/2000/svg">
<path d="M21.0978 14.8435C21.0229 15.0488 20.8901 15.2296 20.7145 15.3652C20.539 15.5008 20.3277 15.5858 20.1048 15.6103C18.8542 15.7515 17.6203 16.0083 16.42 16.3772L18.2145 20.5367C18.3143 20.7496 18.3687 20.9799 18.3744 21.2138C18.38 21.4476 18.3368 21.6801 18.2474 21.8973C18.1579 22.1145 18.0241 22.3118 17.8539 22.4774C17.6838 22.6429 17.4809 22.7733 17.2574 22.8605C17.0379 22.951 16.802 22.9984 16.5635 23C16.2099 23.0023 15.8636 22.9017 15.5694 22.7112C15.2751 22.5207 15.0463 22.2489 14.9125 21.931L13.1658 17.7831C12.1849 18.3058 11.2487 18.9041 10.3663 19.5724C10.1543 19.7322 9.89301 19.8182 9.62458 19.8164C9.44229 19.8171 9.26224 19.7774 9.09818 19.7002C8.89683 19.6044 8.72725 19.4555 8.60879 19.2706C8.49034 19.0857 8.42776 18.8722 8.42821 18.6545V4.3864C8.42939 4.15702 8.50046 3.9331 8.63246 3.74287C8.76446 3.55265 8.95148 3.40463 9.16996 3.31746C9.38783 3.22848 9.62796 3.20417 9.86004 3.2476C10.0921 3.29102 10.3058 3.40024 10.474 3.56146L20.8106 13.6816C20.9623 13.8318 21.0692 14.0193 21.1198 14.2239C21.1703 14.4286 21.1627 14.6427 21.0978 14.8435ZM16.5157 4.3864L17.6522 2.35309C17.7208 2.25264 17.7672 2.13947 17.7885 2.02072C17.8097 1.90197 17.8054 1.78022 17.7757 1.66318C17.7461 1.54614 17.6917 1.43635 17.6162 1.34074C17.5406 1.24514 17.4454 1.1658 17.3366 1.10774C17.2279 1.04969 17.1079 1.01418 16.9843 1.00346C16.8607 0.992733 16.7361 1.00703 16.6185 1.04545C16.5008 1.08387 16.3927 1.14557 16.3009 1.22665C16.209 1.30774 16.1355 1.40644 16.085 1.51652L14.8886 3.56146C14.7781 3.76187 14.7539 3.99662 14.8211 4.21435C14.8884 4.43209 15.0417 4.6151 15.2475 4.72335C15.3776 4.79927 15.5265 4.83943 15.6782 4.83954C15.8474 4.84727 16.0155 4.80894 16.1634 4.72887C16.3114 4.64881 16.4334 4.5302 16.5157 4.3864ZM20.1048 8.49951L22.2463 7.45381C22.3515 7.40193 22.4452 7.33042 22.5221 7.24337C22.5989 7.15632 22.6573 7.05543 22.6939 6.94646C22.7306 6.83749 22.7448 6.72257 22.7357 6.60827C22.7266 6.49397 22.6945 6.38252 22.6411 6.28029C22.5877 6.17806 22.514 6.08705 22.4244 6.01246C22.3348 5.93786 22.2309 5.88114 22.1187 5.84554C22.0065 5.80993 21.8881 5.79614 21.7704 5.80495C21.6528 5.81375 21.538 5.84499 21.4327 5.89687L19.3032 6.94257C19.0934 7.04704 18.9344 7.22749 18.8605 7.44491C18.7867 7.66233 18.8038 7.89926 18.9084 8.10447C18.9825 8.24893 19.097 8.37023 19.2387 8.45447C19.3805 8.53872 19.5438 8.58251 19.71 8.58084C19.8478 8.56729 19.9798 8.51925 20.0928 8.44142L20.1048 8.49951ZM5.42533 10.1959C5.42852 10.081 5.40799 9.96672 5.36493 9.8597C5.32187 9.75269 5.25717 9.65515 5.17464 9.57283C5.09211 9.49051 4.99343 9.42509 4.88443 9.38044C4.77543 9.33578 4.65832 9.3128 4.54001 9.31284H2.14728C1.9093 9.31284 1.68108 9.40465 1.51281 9.56807C1.34453 9.73149 1.25 9.95314 1.25 10.1843C1.25 10.4154 1.34453 10.637 1.51281 10.8004C1.68108 10.9639 1.9093 11.0557 2.14728 11.0557H4.54001C4.77385 11.0527 4.99724 10.9611 5.1626 10.8005C5.32796 10.6399 5.42223 10.423 5.42533 10.1959ZM3.11634 17.2718L5.25783 16.2377C5.36489 16.1893 5.46088 16.1205 5.54014 16.0354C5.6194 15.9504 5.68033 15.8508 5.71936 15.7425C5.75838 15.6342 5.77469 15.5195 5.76734 15.405C5.75999 15.2905 5.72913 15.1786 5.67656 15.0758C5.57088 14.8702 5.38677 14.7126 5.16337 14.6367C4.93997 14.5607 4.69488 14.5724 4.4802 14.6692L2.3387 15.7033C2.15892 15.7911 2.01475 15.935 1.92936 16.112C1.84397 16.289 1.82231 16.4887 1.86786 16.679C1.91341 16.8694 2.02353 17.0394 2.18053 17.1616C2.33752 17.2839 2.53227 17.3513 2.7335 17.3531C2.8656 17.3527 2.99609 17.3249 3.11634 17.2718Z" fill="black"/>
</svg>
