<svg width="24" height="24" viewBox="0 0 24 24" fill="none" xmlns="http://www.w3.org/2000/svg">
<path d="M14.3145 19.2831C14.4917 19.2744 14.6678 19.2487 14.8401 19.2064C14.6678 19.2487 14.4917 19.2744 14.3145 19.2831ZM15.2234 19.0969C15.391 19.0483 15.5556 18.9898 15.7162 18.9217C15.5699 18.9883 15.42 19.0468 15.2672 19.0969H15.2234ZM18.0161 16.9066C18.1146 16.7295 18.2024 16.5467 18.2789 16.359C18.202 16.5429 18.1142 16.7221 18.0161 16.8956V16.9066ZM3.47247 17.2789C3.70608 17.4516 3.95541 17.602 4.21717 17.7279C3.95498 17.5985 3.70563 17.4445 3.47247 17.268V17.2789ZM4.85236 17.9908L4.53477 17.8813L4.85236 17.9908ZM13.0769 19.2831C13.3164 19.3176 13.5578 19.3359 13.7997 19.3378H13.9421C13.6541 19.3594 13.3649 19.3594 13.0769 19.3378L5.67372 18.2427L13.0769 19.2831ZM17.8299 17.2023C17.7301 17.3554 17.6204 17.5017 17.5013 17.6403C17.6129 17.5011 17.7153 17.3547 17.808 17.2023H17.8299ZM17.2385 17.9141C17.1071 18.0346 16.9866 18.1551 16.8443 18.2646C16.9647 18.1551 17.0852 18.0346 17.2166 17.9141H17.2385ZM20.8525 7.34593C20.8634 7.52829 20.8634 7.71114 20.8525 7.8935L19.7574 15.2967C19.6422 16.0786 19.3739 16.8302 18.968 17.5083C18.5621 18.1865 18.0265 18.7779 17.3918 19.2489C16.7571 19.7198 16.0357 20.061 15.269 20.2529C14.5024 20.4448 13.7053 20.4837 12.9236 20.3673L5.5204 19.2721C5.18193 19.2153 4.84863 19.1311 4.52382 19.0202C5.08409 19.6526 5.80211 20.125 6.6046 20.3892L13.7012 22.7547C14.9329 23.1586 16.2741 23.0609 17.4343 22.4828C18.5946 21.9048 19.4803 20.8929 19.8997 19.6664L22.2652 12.5698C22.5694 11.6566 22.5976 10.674 22.3463 9.7449C22.095 8.81578 21.5755 7.98134 20.8525 7.34593ZM19.7574 6.59027C19.7574 6.71074 19.7574 6.82026 19.7574 6.94072C19.7793 6.82026 19.7793 6.71074 19.7683 6.59027H19.7574ZM18.6622 15.1324C18.6154 15.4494 18.5384 15.7611 18.4322 16.0633C18.5384 15.7611 18.6154 15.4494 18.6622 15.1324L19.2098 11.4308L18.6622 15.1324ZM16.0886 18.7574L16.5267 18.4836L16.0886 18.7574ZM19.7464 7.72923L18.6513 15.1324C18.4617 16.4217 17.7682 17.583 16.723 18.3613C15.6778 19.1395 14.3664 19.4711 13.0769 19.2831L5.67372 18.1879C4.38138 17.9959 3.2182 17.2985 2.43988 16.2491C1.66156 15.1997 1.3318 13.8841 1.5231 12.5917L2.61825 5.18848C2.8158 3.90382 3.51177 2.7488 4.55526 1.97387C5.59875 1.19894 6.90564 0.866563 8.19257 1.04882L15.5958 2.14397C16.8859 2.33613 18.0473 3.03192 18.8253 4.07887C19.6033 5.12581 19.9346 6.43849 19.7464 7.72923ZM10.6238 6.7436C10.6238 6.3104 10.4953 5.88692 10.2547 5.52673C10.014 5.16654 9.67192 4.8858 9.27169 4.72002C8.87147 4.55424 8.43107 4.51087 8.00619 4.59538C7.58132 4.6799 7.19104 4.8885 6.88472 5.19482C6.57841 5.50114 6.3698 5.89141 6.28529 6.31629C6.20077 6.74117 6.24415 7.18156 6.40993 7.58179C6.57571 7.98201 6.85644 8.32409 7.21664 8.56476C7.57683 8.80544 8.0003 8.9339 8.4335 8.9339C9.0144 8.9339 9.57152 8.70313 9.98228 8.29237C10.393 7.88161 10.6238 7.3245 10.6238 6.7436Z" fill="black"/>
</svg>
