<svg width="24" height="24" viewBox="0 0 24 24" fill="none" xmlns="http://www.w3.org/2000/svg">
<path d="M7.0624 21.3592H5.3947C5.19965 21.3395 5.01353 21.2676 4.85595 21.1509C4.69836 21.0343 4.57514 20.8774 4.49927 20.6966C4.42339 20.5159 4.39767 20.318 4.42482 20.1238C4.45196 19.9297 4.53096 19.7465 4.6535 19.5934L7.0188 17.2281C7.21973 17.0443 7.48221 16.9424 7.75455 16.9424C8.02689 16.9424 8.28936 17.0443 8.4903 17.2281L10.8447 19.5934C10.967 19.7457 11.0461 19.9281 11.0737 20.1214C11.1014 20.3147 11.0766 20.5119 11.002 20.6924C10.9273 20.8729 10.8056 21.03 10.6494 21.1473C10.4933 21.2646 10.3085 21.3378 10.1144 21.3592H7.0624ZM15.5644 16.9229H13.8858C13.6897 16.9431 13.5028 17.016 13.3449 17.134C13.187 17.252 13.0641 17.4105 12.9892 17.5928C12.9142 17.7751 12.8901 17.9743 12.9194 18.1692C12.9487 18.3641 13.0303 18.5474 13.1555 18.6996L15.5099 21.054C15.6054 21.1526 15.7198 21.2309 15.8462 21.2845C15.9725 21.338 16.1084 21.3656 16.2456 21.3656C16.3829 21.3656 16.5188 21.338 16.6451 21.2845C16.7715 21.2309 16.8859 21.1526 16.9814 21.054L19.3467 18.6996C19.4722 18.5467 19.5537 18.3625 19.5825 18.1667C19.6113 17.971 19.5862 17.7711 19.51 17.5885C19.4339 17.4059 19.3094 17.2475 19.1501 17.1303C18.9907 17.013 18.8025 16.9413 18.6055 16.9229H15.5644ZM19.6301 15.6694C20.4974 15.6694 21.3291 15.3249 21.9423 14.7117C22.5556 14.0984 22.9001 13.2667 22.9001 12.3994C22.9001 11.5322 22.5556 10.7004 21.9423 10.0872C21.3291 9.47395 20.4974 9.12943 19.6301 9.12943H19.423C19.556 8.78121 19.6261 8.41215 19.6301 8.03943C19.6301 7.17217 19.2856 6.34043 18.6723 5.72719C18.0591 5.11395 17.2274 4.76943 16.3601 4.76943C15.7068 4.77119 15.069 4.96861 14.5289 5.33623C13.9276 4.30423 13.0039 3.49835 11.8999 3.04251C10.7959 2.58668 9.57273 2.50613 8.4185 2.81327C7.26426 3.12041 6.24288 3.79821 5.51144 4.74245C4.77999 5.68668 4.37899 6.84506 4.3701 8.03943C4.37303 8.40533 4.40951 8.77019 4.4791 9.12943H4.3701C3.50284 9.12943 2.6711 9.47395 2.05786 10.0872C1.44461 10.7004 1.1001 11.5322 1.1001 12.3994C1.1001 13.2667 1.44461 14.0984 2.05786 14.7117C2.6711 15.3249 3.50284 15.6694 4.3701 15.6694H19.6301Z" fill="black"/>
</svg>
