<svg width="24" height="24" viewBox="0 0 24 24" fill="none" xmlns="http://www.w3.org/2000/svg">
<path d="M12.6773 21.509H14.322C14.5144 21.4895 14.6979 21.4186 14.8533 21.3036C15.0088 21.1886 15.1303 21.0338 15.2051 20.8555C15.2799 20.6772 15.3053 20.4821 15.2785 20.2906C15.2518 20.0991 15.1739 19.9184 15.053 19.7675L12.7203 17.4347C12.5227 17.2565 12.2661 17.1578 12 17.1578C11.7339 17.1578 11.4773 17.2565 11.2798 17.4347L8.947 19.7675C8.82615 19.9184 8.74823 20.0991 8.72147 20.2906C8.6947 20.4821 8.72006 20.6772 8.79489 20.8555C8.86972 21.0338 8.99125 21.1886 9.14667 21.3036C9.30208 21.4186 9.48564 21.4895 9.678 21.509H11.3228M19.525 15.36C20.3803 15.36 21.2006 15.0202 21.8054 14.4154C22.4102 13.8106 22.75 12.9903 22.75 12.135C22.75 11.2797 22.4102 10.4594 21.8054 9.85457C21.2006 9.24976 20.3803 8.90999 19.525 8.90999H19.3207C19.4519 8.56656 19.5211 8.20258 19.525 7.83499C19.525 6.97967 19.1852 6.15937 18.5804 5.55457C17.9756 4.94976 17.1553 4.60999 16.3 4.60999C15.6557 4.61173 15.0266 4.80643 14.494 5.16899C13.901 4.15119 12.99 3.3564 11.9012 2.90684C10.8124 2.45728 9.60604 2.37784 8.46769 2.68075C7.32934 2.98366 6.32201 3.65214 5.60063 4.58338C4.87925 5.51462 4.48377 6.65706 4.475 7.83499C4.47789 8.19586 4.51388 8.5557 4.5825 8.90999H4.475C3.61968 8.90999 2.79939 9.24976 2.19458 9.85457C1.58978 10.4594 1.25 11.2797 1.25 12.135C1.25 12.9903 1.58978 13.8106 2.19458 14.4154C2.79939 15.0202 3.61968 15.36 4.475 15.36H19.525Z" fill="black"/>
</svg>
