<svg width="24" height="24" viewBox="0 0 24 24" fill="none" xmlns="http://www.w3.org/2000/svg">
<path d="M20.05 19.7C20.965 19.7 21.8425 19.2931 22.4895 18.5688C23.1365 17.8446 23.5 16.8623 23.5 15.838C23.5 14.8137 23.1365 13.8314 22.4895 13.1072C21.8425 12.3829 20.965 11.976 20.05 11.976H19.8315C19.9718 11.5648 20.0458 11.1289 20.05 10.6887C20.05 9.66444 19.6865 8.68214 19.0395 7.95787C18.3925 7.23361 17.515 6.82673 16.6 6.82673C15.9107 6.82881 15.2378 7.06196 14.668 7.49614C14.0336 6.27732 13.0591 5.32554 11.8943 4.78718C10.7295 4.24882 9.43902 4.1537 8.22125 4.51644C7.00348 4.87918 5.92587 5.67969 5.15417 6.79486C4.38246 7.91004 3.95938 9.27812 3.95 10.6887C3.95366 11.1208 3.99215 11.5517 4.065 11.976H3.95C3.035 11.976 2.15748 12.3829 1.51048 13.1072C0.863481 13.8314 0.5 14.8137 0.5 15.838C0.5 16.8623 0.863481 17.8446 1.51048 18.5688C2.15748 19.2931 3.035 19.7 3.95 19.7H20.05Z" fill="black"/>
</svg>
