<svg width="24" height="24" viewBox="0 0 24 24" fill="none" xmlns="http://www.w3.org/2000/svg">
<path d="M1.34676 5.88325C1.59202 4.58228 2.28349 3.40764 3.30197 2.56185C4.32046 1.71605 5.60212 1.25211 6.92601 1.25H17.074C18.3979 1.25211 19.6796 1.71605 20.698 2.56185C21.7165 3.40764 22.408 4.58228 22.6532 5.88325C22.6806 6.01379 22.6783 6.1488 22.6465 6.27834C22.6148 6.40788 22.5544 6.52866 22.4699 6.63179C22.3853 6.73492 22.2787 6.81779 22.1579 6.87428C22.0371 6.93078 21.9051 6.95947 21.7717 6.95825H2.22826C2.09489 6.95947 1.96295 6.93078 1.84213 6.87428C1.72132 6.81779 1.61471 6.73492 1.53014 6.63179C1.44557 6.52866 1.3852 6.40788 1.35346 6.27834C1.32173 6.1488 1.31944 6.01379 1.34676 5.88325ZM22.75 9.40925V17.074C22.7514 17.8198 22.6056 18.5585 22.3208 19.2478C22.0361 19.9371 21.618 20.5633 21.0907 21.0907C20.5634 21.618 19.9371 22.0361 19.2478 22.3208C18.5585 22.6056 17.8198 22.7514 17.074 22.75H6.92601C6.18023 22.7514 5.44151 22.6056 4.75222 22.3208C4.06294 22.0361 3.43666 21.618 2.90931 21.0907C2.38197 20.5633 1.96393 19.9371 1.67918 19.2478C1.39444 18.5585 1.24859 17.8198 1.25001 17.074V9.40925C1.25001 9.29207 1.27309 9.17605 1.31793 9.0678C1.36277 8.95954 1.42849 8.86118 1.51134 8.77833C1.5942 8.69548 1.69256 8.62975 1.80081 8.58492C1.90906 8.54008 2.02509 8.517 2.14226 8.517H21.8577C21.9749 8.517 22.0909 8.54008 22.1992 8.58492C22.3075 8.62975 22.4058 8.69548 22.4887 8.77833C22.5715 8.86118 22.6372 8.95954 22.6821 9.0678C22.7269 9.17605 22.75 9.29207 22.75 9.40925ZM7.70001 15.225L9.25876 13.7307C9.36007 13.6682 9.44627 13.584 9.51118 13.4842C9.57609 13.3844 9.61808 13.2715 9.63416 13.1535C9.65023 13.0355 9.63998 12.9155 9.60415 12.802C9.56831 12.6884 9.50777 12.5842 9.42688 12.4969C9.346 12.4095 9.24677 12.3412 9.13633 12.2967C9.02588 12.2523 8.90697 12.2328 8.78812 12.2398C8.66927 12.2468 8.55344 12.28 8.44894 12.337C8.34445 12.3941 8.25388 12.4735 8.18376 12.5697L6.03376 14.6337C5.8789 14.7877 5.7902 14.9959 5.78651 15.2142C5.78595 15.3228 5.8076 15.4302 5.85012 15.5301C5.89264 15.6299 5.95513 15.72 6.03376 15.7947L8.18376 17.9447C8.2554 18.0208 8.34211 18.0811 8.43835 18.1219C8.5346 18.1626 8.63827 18.1828 8.74276 18.1812C8.90435 18.1833 9.06284 18.1368 9.19766 18.0476C9.33248 17.9585 9.4374 17.8309 9.49882 17.6815C9.56024 17.532 9.57531 17.3675 9.54209 17.2093C9.50887 17.0512 9.42888 16.9066 9.31251 16.7945L7.70001 15.225ZM18.2673 15.225C18.2636 15.0067 18.1749 14.7984 18.02 14.6445L15.87 12.5805C15.711 12.4824 15.5228 12.4425 15.3377 12.4677C15.1525 12.4929 14.9819 12.5817 14.8549 12.7188C14.728 12.8559 14.6526 13.0329 14.6417 13.2194C14.6307 13.4059 14.6849 13.5905 14.795 13.7415L16.3 15.225L14.7305 16.7622C14.5795 16.9134 14.4947 17.1183 14.4947 17.332C14.4947 17.5456 14.5795 17.7506 14.7305 17.9017C14.8844 18.0566 15.0927 18.1453 15.311 18.149C15.4155 18.1505 15.5192 18.1303 15.6154 18.0896C15.7116 18.0489 15.7984 17.9886 15.87 17.9125L18.02 15.7625C18.1685 15.6218 18.257 15.4293 18.2673 15.225Z" fill="black"/>
</svg>
