<svg width="24" height="24" viewBox="0 0 24 24" fill="none" xmlns="http://www.w3.org/2000/svg">
<path d="M9.34669 4.86605C9.14202 4.86337 8.94648 4.78088 8.80174 4.63614C8.657 4.4914 8.5745 4.29586 8.57183 4.09118V2.02487C8.57183 1.81936 8.65346 1.62227 8.79878 1.47695C8.94409 1.33164 9.14118 1.25 9.34669 1.25C9.5522 1.25 9.74929 1.33164 9.89461 1.47695C10.0399 1.62227 10.1216 1.81936 10.1216 2.02487V4.09118C10.1216 4.29669 10.0399 4.49378 9.89461 4.6391C9.74929 4.78441 9.5522 4.86605 9.34669 4.86605ZM6.08192 4.09118V2.02487C6.08192 1.81936 6.00028 1.62227 5.85496 1.47695C5.70965 1.33164 5.51256 1.25 5.30705 1.25C5.10154 1.25 4.90445 1.33164 4.75913 1.47695C4.61382 1.62227 4.53218 1.81936 4.53218 2.02487V4.09118C4.53218 4.29669 4.61382 4.49378 4.75913 4.6391C4.90445 4.78441 5.10154 4.86605 5.30705 4.86605C5.51256 4.86605 5.70965 4.78441 5.85496 4.6391C6.00028 4.49378 6.08192 4.29669 6.08192 4.09118ZM14.1715 4.18417V2.11785C14.1715 1.91234 14.0899 1.71525 13.9446 1.56994C13.7993 1.42462 13.6022 1.34298 13.3967 1.34298C13.1912 1.34298 12.9941 1.42462 12.8488 1.56994C12.7034 1.71525 12.6218 1.91234 12.6218 2.11785V4.18417C12.6218 4.38967 12.7034 4.58676 12.8488 4.73208C12.9941 4.8774 13.1912 4.95903 13.3967 4.95903C13.6022 4.95903 13.7993 4.8774 13.9446 4.73208C14.0899 4.58676 14.1715 4.38967 14.1715 4.18417ZM17.271 9.34995C17.1714 9.33927 17.071 9.33927 16.9714 9.34995C16.6614 8.58323 16.1327 7.92463 15.4511 7.45617C14.7696 6.98772 13.9653 6.7301 13.1384 6.7154H5.57567C5.01901 6.71539 4.46784 6.82537 3.95381 7.03902C3.43978 7.25267 2.97304 7.56578 2.58038 7.96035C2.18772 8.35493 1.8769 8.8232 1.66576 9.33826C1.45462 9.85332 1.34733 10.405 1.35006 10.9617V11.7985H17.3537V10.9617C18.3695 11.0136 19.3266 11.4536 20.0273 12.191C20.7279 12.9284 21.1186 13.9067 21.1186 14.9238C21.1186 15.941 20.7279 16.9193 20.0273 17.6567C19.3266 18.394 18.3695 18.8341 17.3537 18.886C17.3537 18.886 17.3537 18.8137 17.3537 18.7723C17.3593 18.6863 17.3593 18.6001 17.3537 18.5141V13.3483H1.35006V18.5141C1.35005 19.6357 1.79492 20.7116 2.58708 21.5057C3.37924 22.2998 4.45402 22.7473 5.57567 22.75H13.1384C13.9308 22.7488 14.7069 22.5243 15.3775 22.1022C16.0482 21.68 16.5863 21.0774 16.9301 20.3634C17.0148 20.3923 17.101 20.4164 17.1884 20.4357H17.3743C18.7949 20.3742 20.1368 19.7666 21.1203 18.7397C22.1037 17.7127 22.6527 16.3457 22.6527 14.9238C22.6527 13.5019 22.1037 12.135 21.1203 11.108C20.1368 10.0811 18.7949 9.47346 17.3743 9.41194L17.271 9.34995Z" fill="black"/>
</svg>
