<svg width="24" height="24" viewBox="0 0 24 24" fill="none" xmlns="http://www.w3.org/2000/svg">
<path d="M8.09073 9.76692C8.07988 9.63481 8.07988 9.50203 8.09073 9.36992C8.09073 8.31704 8.50898 7.30727 9.25349 6.56276C9.998 5.81826 11.0078 5.4 12.0607 5.4C13.1135 5.4 14.1233 5.81826 14.8678 6.56276C15.6123 7.30727 16.0306 8.31704 16.0306 9.36992C16.0414 9.50203 16.0414 9.63481 16.0306 9.76692C16.0053 10.1446 15.9236 10.5163 15.788 10.8697C15.7328 11.013 15.6556 11.1343 15.5895 11.2667C15.5233 11.399 15.5123 11.4211 15.4682 11.4872C15.3862 11.6192 15.294 11.7446 15.1925 11.8622C15.1555 11.9162 15.115 11.9678 15.0712 12.0165C14.9581 12.1424 14.8365 12.2603 14.7073 12.3694L14.608 12.4576C14.4639 12.5767 14.3129 12.6871 14.1559 12.7885C13.7158 13.0517 13.229 13.2277 12.7223 13.3068C12.5186 13.3457 12.3121 13.3678 12.1048 13.3729C11.8639 13.3696 11.624 13.3438 11.388 13.2957H11.1674C11.0061 13.2596 10.8476 13.2117 10.6932 13.1524L10.4727 13.0642C10.3183 12.987 10.1639 12.9098 10.0206 12.8216L9.76692 12.6451C9.59769 12.5222 9.43569 12.3897 9.2817 12.2481L9.07218 11.9724L8.8406 11.6967C8.77711 11.6194 8.7182 11.5384 8.66416 11.4541C8.60256 11.3624 8.54729 11.2666 8.49875 11.1674C8.27716 10.7299 8.13881 10.255 8.09073 9.76692ZM13.2957 14.2551C12.8796 14.3745 12.4494 14.4376 12.0165 14.4426C11.0073 14.4368 10.0224 14.132 9.18623 13.5668C8.3501 13.0015 7.70026 12.2011 7.3188 11.2667C6.72929 11.6264 6.24413 12.1341 5.91151 12.7393C5.57889 13.3445 5.41037 14.0262 5.42269 14.7167C5.43501 15.4072 5.62774 16.0824 5.98174 16.6754C6.33574 17.2684 6.8387 17.7584 7.44066 18.0969C8.04263 18.4354 8.72267 18.6105 9.41324 18.6048C10.1038 18.5992 10.7809 18.413 11.3773 18.0648C11.9736 17.7165 12.4685 17.2184 12.8128 16.6197C13.1571 16.021 13.3388 15.3427 13.3398 14.6521C13.3355 14.5225 13.3207 14.3934 13.2957 14.2662V14.2551ZM22.9559 6.53584V17.4862C22.9559 18.9486 22.375 20.351 21.3409 21.385C20.3069 22.4191 18.9044 23 17.4421 23H6.51378C5.7897 23 5.07271 22.8574 4.40375 22.5803C3.73479 22.3032 3.12695 21.8971 2.61495 21.385C1.58091 20.351 1 18.9486 1 17.4862V6.51378C1 5.05144 1.58091 3.64899 2.61495 2.61495C3.64899 1.58091 5.05144 1 6.51378 1H17.4862C18.2103 1 18.9273 1.14262 19.5963 1.41971C20.2652 1.69681 20.873 2.10295 21.385 2.61495C21.8971 3.12695 22.3032 3.73479 22.5803 4.40375C22.8574 5.07271 23 5.7897 23 6.51378L22.9559 6.53584ZM19.6917 14.6632C19.6787 13.7504 19.4186 12.8582 18.939 12.0815C18.4593 11.3048 17.7782 10.6726 16.9679 10.2521C17.1332 9.50893 17.1295 8.73809 16.957 7.99652C16.7846 7.25495 16.4477 6.56159 15.9714 5.96764C15.495 5.37369 14.8914 4.89432 14.2049 4.56492C13.5185 4.23552 12.7669 4.06451 12.0055 4.06451C11.2441 4.06451 10.4925 4.23552 9.80608 4.56492C9.11966 4.89432 8.516 5.37369 8.03965 5.96764C7.56331 6.56159 7.22646 7.25495 7.05398 7.99652C6.88149 8.73809 6.87778 9.50893 7.04311 10.2521C5.87323 10.9131 5.01384 12.0118 4.654 13.3064C4.29415 14.601 4.46333 15.9855 5.12431 17.1554C5.78529 18.3253 6.88393 19.1847 8.17854 19.5445C9.47316 19.9043 10.8577 19.7352 12.0276 19.0742C12.8211 19.5708 13.7381 19.8344 14.6742 19.8351C15.3441 19.8279 16.006 19.6881 16.6216 19.4238C17.2372 19.1594 17.7944 18.7757 18.2609 18.2949C18.7274 17.814 19.094 17.2455 19.3396 16.6222C19.5852 15.9988 19.7049 15.333 19.6917 14.6632ZM16.7143 11.2777C16.2581 12.3839 15.4264 13.2938 14.3654 13.8471C14.4135 14.1166 14.4393 14.3895 14.4426 14.6632C14.4435 15.9976 13.9162 17.2781 12.9759 18.2251C13.499 18.4904 14.0767 18.6301 14.6632 18.6331C15.5307 18.6369 16.3755 18.3556 17.0676 17.8324C17.7597 17.3093 18.2608 16.5733 18.4939 15.7376C18.7269 14.9019 18.679 14.0128 18.3575 13.2071C18.0359 12.4013 17.4586 11.7234 16.7143 11.2777Z" fill="black"/>
</svg>
