<svg width="24" height="24" viewBox="0 0 24 24" fill="none" xmlns="http://www.w3.org/2000/svg">
<path d="M22.5 16.3365V20.2635C22.5 20.8567 22.2644 21.4255 21.8449 21.8449C21.4255 22.2644 20.8567 22.5 20.2635 22.5H9.6375L9.7845 22.3845L18.069 14.1H20.2635C20.8567 14.1 21.4255 14.3356 21.8449 14.7551C22.2644 15.1745 22.5 15.7433 22.5 16.3365ZM18.972 7.8L16.2 5.028C15.7811 4.6125 15.215 4.37936 14.625 4.37936C14.035 4.37936 13.4689 4.6125 13.05 5.028L11.475 6.582V18.3C11.475 18.363 11.475 18.4155 11.475 18.4785L18.972 10.95C19.3875 10.5311 19.6206 9.965 19.6206 9.375C19.6206 8.78499 19.3875 8.21889 18.972 7.8ZM3.7365 1.5H7.6635C8.25666 1.5 8.82552 1.73563 9.24494 2.15506C9.66437 2.57448 9.9 3.14334 9.9 3.7365V18.3C9.9 19.4139 9.4575 20.4822 8.66985 21.2698C7.8822 22.0575 6.81391 22.5 5.7 22.5C4.58609 22.5 3.5178 22.0575 2.73015 21.2698C1.9425 20.4822 1.5 19.4139 1.5 18.3V3.7365C1.5 3.14334 1.73563 2.57448 2.15506 2.15506C2.57448 1.73563 3.14334 1.5 3.7365 1.5ZM5.7 19.875C6.01151 19.875 6.31602 19.7826 6.57502 19.6096C6.83403 19.4365 7.0359 19.1905 7.15511 18.9027C7.27432 18.6149 7.30551 18.2983 7.24474 17.9927C7.18397 17.6872 7.03396 17.4066 6.81369 17.1863C6.59343 16.966 6.31279 16.816 6.00727 16.7553C5.70175 16.6945 5.38507 16.7257 5.09727 16.8449C4.80948 16.9641 4.5635 17.166 4.39044 17.425C4.21737 17.684 4.125 17.9885 4.125 18.3C4.12775 18.7169 4.29457 19.1159 4.58935 19.4107C4.88412 19.7054 5.28313 19.8722 5.7 19.875Z" fill="black"/>
</svg>
