<svg width="24" height="24" viewBox="0 0 24 24" fill="none" xmlns="http://www.w3.org/2000/svg">
<path d="M23 5.048V12.341C23 13.4156 22.5739 14.4464 21.815 15.2073C21.0562 15.9682 20.0266 16.3971 18.952 16.4H18.05V11.659C18.0471 10.1458 17.4447 8.69535 16.3747 7.62534C15.3046 6.55532 13.8542 5.95291 12.341 5.95H7.6V5.048C7.60291 3.97339 8.03184 2.94379 8.79274 2.18496C9.55363 1.42613 10.5844 0.999996 11.659 1H18.952C20.0256 1 21.0552 1.42648 21.8144 2.18563C22.5735 2.94478 23 3.9744 23 5.048ZM16.4 11.648V18.941C16.4 20.0175 15.9724 21.0499 15.2111 21.8111C14.4499 22.5724 13.4175 23 12.341 23H5.048C3.9744 23 2.94478 22.5735 2.18563 21.8144C1.42648 21.0552 1 20.0256 1 18.952V11.659C0.999996 10.5844 1.42613 9.55363 2.18496 8.79274C2.94379 8.03184 3.97339 7.60291 5.048 7.6H12.341C12.874 7.6 13.4019 7.70499 13.8943 7.90897C14.3868 8.11296 14.8342 8.41194 15.2111 8.78885C15.5881 9.16577 15.887 9.61323 16.091 10.1057C16.295 10.5981 16.4 11.126 16.4 11.659V11.648ZM12.924 12.495C12.7693 12.3405 12.5596 12.2537 12.341 12.2537C12.1224 12.2537 11.9127 12.3405 11.758 12.495L8.271 15.85L6.907 14.453C6.75213 14.3467 6.56563 14.2965 6.37833 14.3106C6.19104 14.3247 6.01416 14.4023 5.87693 14.5305C5.73971 14.6588 5.65035 14.83 5.62364 15.0159C5.59692 15.2018 5.63444 15.3913 5.73 15.553L7.666 17.533C7.82207 17.6849 8.03124 17.7698 8.249 17.7698C8.46676 17.7698 8.67593 17.6849 8.832 17.533L12.902 13.606C13.0403 13.4575 13.1191 13.2631 13.1231 13.0602C13.1272 12.8573 13.0563 12.6599 12.924 12.506V12.495Z" fill="black"/>
</svg>
