<svg width="24" height="24" viewBox="0 0 24 24" fill="none" xmlns="http://www.w3.org/2000/svg">
<path d="M12.341 23H5.048C3.9744 23 2.94478 22.5735 2.18563 21.8144C1.42648 21.0552 1 20.0256 1 18.952V11.659C0.999996 10.5844 1.42613 9.55363 2.18496 8.79274C2.94379 8.03184 3.97339 7.60291 5.048 7.6H12.341C12.874 7.6 13.4019 7.70499 13.8943 7.90897C14.3868 8.11296 14.8342 8.41194 15.2111 8.78885C15.5881 9.16577 15.887 9.61323 16.091 10.1057C16.295 10.5981 16.4 11.126 16.4 11.659V18.952C16.3971 20.0266 15.9682 21.0562 15.2073 21.815C14.4464 22.5739 13.4156 23 12.341 23ZM18.941 1H11.659C10.5844 0.999996 9.55363 1.42613 8.79274 2.18496C8.03184 2.94379 7.60291 3.97339 7.6 5.048V5.95H12.341C13.8542 5.95291 15.3046 6.55532 16.3747 7.62534C17.4447 8.69535 18.0471 10.1458 18.05 11.659V16.4H18.952C20.0266 16.3971 21.0562 15.9682 21.815 15.2073C22.5739 14.4464 23 13.4156 23 12.341V5.048C23 3.9744 22.5735 2.94478 21.8144 2.18563C21.0552 1.42648 20.0256 1 18.952 1H18.941Z" fill="black"/>
</svg>
