<svg width="24" height="24" viewBox="0 0 24 24" fill="none" xmlns="http://www.w3.org/2000/svg">
<path d="M17.2262 11.6078C17.2262 11.9386 17.0825 12.2558 16.8266 12.4896C16.5708 12.7235 16.2238 12.8548 15.862 12.8548H11.8829V14.9447L13.2724 17.0808C13.6926 17.7435 13.9107 18.4971 13.904 19.263V22.242C13.904 22.5727 13.7603 22.8899 13.5044 23.1237C13.2486 23.3576 12.9016 23.489 12.5397 23.489C12.1779 23.489 11.8309 23.3576 11.5751 23.1237C11.3192 22.8899 11.1755 22.5727 11.1755 22.242V19.9327C11.1692 19.1586 10.9334 18.4004 10.4933 17.7389L8.97749 15.3373V18.12C8.97193 18.7324 8.8301 19.3374 8.56063 19.8981L7.14584 22.75C6.99675 23.0562 6.72069 23.2958 6.37837 23.416C6.03606 23.5361 5.65553 23.5271 5.32051 23.3908C4.98548 23.2546 4.72341 23.0022 4.59193 22.6893C4.46045 22.3764 4.47034 22.0286 4.61943 21.7224L5.81947 19.3554C6.09605 18.7968 6.23821 18.1904 6.23633 17.5773V14.1711V7.50892C6.23633 7.04958 6.43596 6.60905 6.79131 6.28425C7.14665 5.95944 7.62861 5.77697 8.13114 5.77697H9.98805C10.4906 5.77697 10.9725 5.95944 11.3279 6.28425C11.6832 6.60905 11.8829 7.04958 11.8829 7.50892L12.6408 10.3608H15.862C16.2238 10.3608 16.5708 10.4922 16.8266 10.7261C17.0825 10.9599 17.2262 11.2771 17.2262 11.6078ZM18.1736 4.68007H14.5356C14.2006 4.68007 13.8793 4.80172 13.6424 5.01826C13.4055 5.23479 13.2724 5.52848 13.2724 5.8347V8.14396C13.2724 8.45019 13.4055 8.74387 13.6424 8.96041C13.8793 9.17694 14.2006 9.29859 14.5356 9.29859H18.2368C18.5718 9.29859 18.8931 9.17694 19.13 8.96041C19.3669 8.74387 19.5 8.45019 19.5 8.14396V5.8347C19.5002 5.67809 19.4656 5.52308 19.3982 5.37909C19.3308 5.23511 19.232 5.10515 19.108 4.99715C18.9839 4.88914 18.8371 4.80533 18.6765 4.75082C18.5158 4.69631 18.3448 4.67224 18.1736 4.68007ZM9.07855 5.77697C9.6995 5.77392 10.2939 5.54631 10.7318 5.14388C11.1697 4.74146 11.4155 4.19695 11.4155 3.62936V3.52544H13.2724C13.3919 3.52099 13.5092 3.49505 13.6177 3.4491C13.7262 3.40315 13.8237 3.33809 13.9047 3.25766C13.9856 3.17723 14.0484 3.083 14.0895 2.98035C14.1306 2.87771 14.1491 2.76867 14.144 2.65947C14.1509 2.43974 14.0637 2.22623 13.9009 2.06446C13.7381 1.90268 13.5125 1.80545 13.2724 1.7935H11.2513C11.071 1.40955 10.7714 1.08236 10.3897 0.852453C10.008 0.622541 9.56093 0.5 9.10381 0.5C8.64669 0.5 8.19961 0.622541 7.81791 0.852453C7.43621 1.08236 7.13667 1.40955 6.95636 1.7935C6.84879 2.04765 6.79313 2.31769 6.79214 2.5902V3.62936C6.79192 4.18908 7.03077 4.72676 7.45783 5.1279C7.88489 5.52903 8.46642 5.76193 9.07855 5.77697Z" fill="black"/>
</svg>
