<svg width="24" height="24" viewBox="0 0 24 24" fill="none" xmlns="http://www.w3.org/2000/svg">
<path d="M22.75 6.56524V7.05974H1.25V6.56524C1.25 5.63294 1.62036 4.73882 2.27959 4.07958C2.93883 3.42034 3.83295 3.04999 4.76525 3.04999H19.2348C20.1671 3.04999 21.0612 3.42034 21.7204 4.07958C22.3796 4.73882 22.75 5.63294 22.75 6.56524ZM22.75 9.79024V17.4555C22.7486 17.9157 22.6565 18.3711 22.4791 18.7958C22.3017 19.2204 22.0424 19.606 21.716 19.9304C21.3895 20.2548 21.0024 20.5118 20.5767 20.6866C20.151 20.8614 19.695 20.9507 19.2348 20.9492H4.76525C4.30413 20.9507 3.84726 20.861 3.42083 20.6856C2.99441 20.5101 2.6068 20.2522 2.28024 19.9266C1.95368 19.601 1.69458 19.2142 1.51779 18.7883C1.341 18.3625 1.25 17.9059 1.25 17.4447V9.77949L22.75 9.79024ZM14.2468 17.8317C14.244 17.6188 14.1581 17.4153 14.0075 17.2647C13.8569 17.1141 13.6535 17.0283 13.4405 17.0255H11.8388C11.6249 17.0255 11.4198 17.1104 11.2686 17.2616C11.1174 17.4128 11.0325 17.6179 11.0325 17.8317C11.0325 18.0456 11.1174 18.2506 11.2686 18.4018C11.4198 18.553 11.6249 18.638 11.8388 18.638H13.4405C13.6553 18.6352 13.8604 18.5478 14.0113 18.3949C14.1622 18.242 14.2468 18.0358 14.2468 17.821V17.8317ZM20.6968 17.8317C20.694 17.6188 20.6081 17.4153 20.4575 17.2647C20.3069 17.1141 20.1035 17.0283 19.8905 17.0255H16.085C15.8712 17.0255 15.6661 17.1104 15.5149 17.2616C15.3637 17.4128 15.2788 17.6179 15.2788 17.8317C15.2788 18.0456 15.3637 18.2506 15.5149 18.4018C15.6661 18.553 15.8712 18.638 16.085 18.638H19.9013C20.1161 18.6352 20.3211 18.5478 20.472 18.3949C20.6229 18.242 20.7075 18.0358 20.7075 17.821L20.6968 17.8317Z" fill="black"/>
</svg>
