<svg width="24" height="24" viewBox="0 0 24 24" fill="none" xmlns="http://www.w3.org/2000/svg">
<path d="M20.9486 4.80454L16.5248 8.09365C16.4063 8.18308 16.2685 8.24358 16.1224 8.27032C15.9764 8.29707 15.8261 8.28932 15.6835 8.2477C15.541 8.20607 15.4102 8.13172 15.3015 8.03058C15.1927 7.92943 15.1091 7.80428 15.0573 7.6651L12.9793 2.0404C12.9176 1.81344 12.783 1.61308 12.5962 1.47024C12.4094 1.32739 12.1808 1.25 11.9457 1.25C11.7105 1.25 11.4819 1.32739 11.2951 1.47024C11.1083 1.61308 10.9737 1.81344 10.912 2.0404L8.79114 7.62225C8.73845 7.75802 8.65536 7.87991 8.54825 7.97858C8.44115 8.07724 8.31287 8.15006 8.17326 8.19143C8.03364 8.23281 7.88641 8.24164 7.74285 8.21727C7.5993 8.19289 7.46323 8.13594 7.3451 8.05079L3.06052 4.96525C2.87886 4.7919 2.64209 4.68789 2.39156 4.67138C2.14103 4.65487 1.89266 4.72691 1.68983 4.87492C1.487 5.02293 1.3426 5.2375 1.28184 5.48116C1.22108 5.72482 1.24783 5.98209 1.35741 6.20804L5.64198 18.6574C5.72103 18.8787 5.86618 19.0704 6.05778 19.2064C6.24937 19.3425 6.47815 19.4164 6.71312 19.418H17.1032C17.3409 19.4282 17.5751 19.359 17.7691 19.2212C17.963 19.0835 18.1056 18.8851 18.1744 18.6574L22.6517 6.03662C22.7556 5.81118 22.7779 5.55667 22.715 5.31658C22.652 5.07649 22.5077 4.86571 22.3066 4.72024C22.1055 4.57478 21.8602 4.50366 21.6125 4.51904C21.3648 4.53441 21.1302 4.63533 20.9486 4.80454ZM14.6824 14.8861H9.32671C9.11365 14.8861 8.90931 14.8015 8.75865 14.6508C8.60799 14.5001 8.52335 14.2957 8.52335 14.0826C8.52335 13.8695 8.60799 13.6651 8.75865 13.5144C8.90931 13.3637 9.11365 13.2791 9.32671 13.2791H14.6824C14.8955 13.2791 15.0998 13.3637 15.2505 13.5144C15.4011 13.6651 15.4858 13.8695 15.4858 14.0826C15.4858 14.2957 15.4011 14.5001 15.2505 14.6508C15.0998 14.8015 14.8955 14.8861 14.6824 14.8861ZM17.4888 22.75H6.53103C6.31796 22.75 6.11363 22.6653 5.96297 22.5147C5.81231 22.364 5.72767 22.1596 5.72767 21.9465C5.72767 21.7334 5.81231 21.529 5.96297 21.3783C6.11363 21.2276 6.31796 21.1429 6.53103 21.1429H17.4888C17.7019 21.1429 17.9062 21.2276 18.0569 21.3783C18.2075 21.529 18.2922 21.7334 18.2922 21.9465C18.2922 22.1596 18.2075 22.364 18.0569 22.5147C17.9062 22.6653 17.7019 22.75 17.4888 22.75Z" fill="black"/>
</svg>
