<svg width="24" height="24" viewBox="0 0 24 24" fill="none" xmlns="http://www.w3.org/2000/svg">
<path d="M18.8647 1H5.1355C4.7455 0.999454 4.35975 1.08001 4.00328 1.23644C3.6468 1.39287 3.32759 1.62168 3.06634 1.90801C2.8051 2.19434 2.60768 2.5318 2.48688 2.89847C2.36608 3.26514 2.32462 3.65283 2.36518 4.03638L3.94504 19.0312C3.99986 19.5759 4.21909 20.0917 4.57425 20.5116C4.92941 20.9314 5.40407 21.2359 5.93655 21.3855L11.2324 22.8927C11.734 23.0358 12.2662 23.0358 12.7678 22.8927L18.0859 21.3855C18.6198 21.2331 19.0956 20.9266 19.4524 20.5052C19.8091 20.0838 20.0306 19.5668 20.0885 19.0202L21.635 4.03638C21.6756 3.65283 21.6341 3.26514 21.5133 2.89847C21.3925 2.5318 21.1951 2.19434 20.9339 1.90801C20.6726 1.62168 20.3534 1.39287 19.9969 1.23644C19.6404 1.08001 19.2547 0.999454 18.8647 1ZM16.7731 16.4569C16.7559 16.6187 16.6908 16.7718 16.5858 16.8971C16.4809 17.0224 16.3409 17.1142 16.1834 17.161L12.3116 18.2612C12.2304 18.2726 12.148 18.2726 12.0669 18.2612C11.9856 18.2719 11.9033 18.2719 11.8221 18.2612L7.93919 17.117C7.80627 17.0738 7.68608 16.9991 7.58911 16.8994C7.49213 16.7996 7.42134 16.678 7.3829 16.5449L6.82661 14.5977C6.79464 14.394 6.84089 14.1859 6.95627 14.0143C7.07166 13.8427 7.24782 13.72 7.4501 13.6703C7.65238 13.6206 7.86613 13.6476 8.0493 13.746C8.23247 13.8443 8.37179 14.0069 8.43985 14.2016L8.87376 15.7198L12.078 16.688L15.1598 15.7748L15.5826 11.9134H7.54979C7.43136 11.9269 7.31139 11.9154 7.19773 11.8799C7.08408 11.8443 6.97932 11.7853 6.89033 11.7069C6.80134 11.6285 6.73013 11.5323 6.68137 11.4247C6.63261 11.3172 6.6074 11.2006 6.6074 11.0828C6.6074 10.9649 6.63261 10.8483 6.68137 10.7408C6.73013 10.6332 6.80134 10.537 6.89033 10.4586C6.97932 10.3802 7.08408 10.3212 7.19773 10.2856C7.31139 10.2501 7.43136 10.2387 7.54979 10.2522H15.7272L16.0388 7.3808H6.9935C6.87507 7.3943 6.7551 7.38288 6.64145 7.3473C6.52779 7.31172 6.42304 7.25278 6.33404 7.17434C6.24505 7.09591 6.17384 6.99975 6.12508 6.89219C6.07632 6.78462 6.05111 6.66807 6.05111 6.55019C6.05111 6.43231 6.07632 6.31577 6.12508 6.2082C6.17384 6.10063 6.24505 6.00448 6.33404 5.92604C6.42304 5.84761 6.52779 5.78867 6.64145 5.75309C6.7551 5.7175 6.87507 5.70609 6.9935 5.71959H17.0067C17.1259 5.71927 17.2439 5.74356 17.3531 5.79092C17.4623 5.83828 17.5603 5.90766 17.6409 5.99462C17.7195 6.0822 17.7781 6.18553 17.8127 6.29755C17.8472 6.40956 17.8569 6.52764 17.8411 6.6437L16.7731 16.4569Z" fill="black"/>
</svg>
