<svg width="24" height="24" viewBox="0 0 24 24" fill="none" xmlns="http://www.w3.org/2000/svg">
<path d="M11.1799 23.1171C10.6644 23.0278 10.1682 22.85 9.71321 22.5917L3.97761 19.308C3.28368 18.9074 2.70712 18.3315 2.30565 17.638C1.90417 16.9446 1.69186 16.1579 1.68994 15.3566V8.67964C1.69425 8.20359 1.77178 7.73104 1.9198 7.27858L10.556 12.1276C10.7502 12.2355 10.911 12.3947 11.021 12.5877C11.131 12.7806 11.1859 13.0001 11.1799 13.2221V23.1171ZM11.3989 10.7265C11.5802 10.8312 11.786 10.8863 11.9954 10.8863C12.2048 10.8863 12.4106 10.8312 12.592 10.7265L21.2391 5.779C20.8971 5.36798 20.4859 5.01979 20.0241 4.7501L14.2885 1.46636C13.5937 1.06264 12.8045 0.849976 12.0009 0.849976C11.1973 0.849976 10.408 1.06264 9.71321 1.46636L3.97761 4.7501C3.48695 5.03296 3.05277 5.40405 2.69695 5.84468L11.3989 10.7265ZM13.4348 12.1276C13.2427 12.237 13.0841 12.3967 12.9761 12.5896C12.8681 12.7825 12.8147 13.0012 12.8218 13.2221V23.15C13.3373 23.0606 13.8335 22.8829 14.2885 22.6246L20.0241 19.3408C20.7181 18.9402 21.2946 18.3643 21.6961 17.6709C22.0976 16.9774 22.3099 16.1907 22.3118 15.3894V8.67964C22.3082 8.17222 22.2194 7.66901 22.0491 7.19101L13.4348 12.1276Z" fill="black"/>
</svg>
