<svg width="24" height="24" viewBox="0 0 24 24" fill="none" xmlns="http://www.w3.org/2000/svg">
<path d="M19.6122 4.34239C19.5403 4.34238 19.4691 4.3567 19.4028 4.38452C19.3365 4.41235 19.2765 4.45311 19.2261 4.50443C19.1758 4.55574 19.1362 4.61659 19.1096 4.6834C19.083 4.75021 19.0701 4.82164 19.0715 4.89352V5.26788C19.0701 5.33976 19.083 5.41119 19.1096 5.478C19.1362 5.54481 19.1758 5.60565 19.2261 5.65697C19.2765 5.70829 19.3365 5.74905 19.4028 5.77687C19.4691 5.8047 19.5403 5.81902 19.6122 5.81901C19.9643 5.82989 20.2981 5.97886 20.5413 6.23375C20.7845 6.48864 20.9177 6.82898 20.912 7.18124C20.9162 8.49106 20.4259 9.75421 19.5391 10.7182C18.6522 11.6821 17.4343 12.2758 16.1286 12.3806C17.8529 9.80318 18.7124 6.74397 18.5827 3.64568C18.6055 3.14875 18.4316 2.66284 18.0989 2.29309C17.7661 1.92333 17.3011 1.69947 16.8045 1.66992H7.22733C6.73076 1.69947 6.26578 1.92333 5.93301 2.29309C5.60023 2.66284 5.42641 3.14875 5.44915 3.64568C5.37239 6.76669 6.28611 9.83183 8.05923 12.4014C6.71114 12.3555 5.43364 11.7876 4.49649 10.8174C3.55933 9.84728 3.03587 8.5509 3.03665 7.20204C3.0282 6.84697 3.15981 6.50285 3.40305 6.24405C3.64628 5.98525 3.98159 5.83257 4.33649 5.81901C4.41385 5.81902 4.49043 5.80362 4.56177 5.77371C4.6331 5.74379 4.69777 5.69997 4.75198 5.64479C4.80619 5.58961 4.84887 5.52418 4.87751 5.45232C4.90616 5.38047 4.9202 5.30362 4.91882 5.22628V4.95591C4.9216 4.87806 4.90901 4.80043 4.88176 4.72745C4.85451 4.65447 4.81315 4.58758 4.76003 4.5306C4.70691 4.47362 4.64308 4.42767 4.57219 4.39537C4.5013 4.36308 4.42474 4.34507 4.34689 4.34239C3.61595 4.3506 2.91773 4.64674 2.40378 5.16654C1.88982 5.68634 1.60158 6.38786 1.60163 7.11885C1.58231 7.99236 1.73546 8.86111 2.0523 9.67537C2.36914 10.4896 2.84345 11.2334 3.4481 11.8641C4.05274 12.4948 4.77584 13.0001 5.576 13.3511C6.37616 13.702 7.23767 13.8916 8.11122 13.9092H9.62943C9.83025 14.0626 10.0463 14.1951 10.2742 14.3044C10.4577 14.4003 10.6043 14.5545 10.6908 14.7426C10.7774 14.9308 10.7991 15.1424 10.7525 15.3442C10.2961 17.2943 9.56804 19.1705 8.58956 20.9179C8.45749 21.1276 8.41398 21.3811 8.46856 21.6229C8.52314 21.8646 8.67137 22.0748 8.88073 22.2074C9.01368 22.2846 9.16379 22.3275 9.31747 22.3322H14.808C14.9152 22.3452 15.0239 22.337 15.128 22.308C15.232 22.279 15.3293 22.2298 15.4143 22.1632C15.4993 22.0965 15.5703 22.0138 15.6233 21.9197C15.6763 21.8255 15.7102 21.7219 15.7231 21.6146C15.7452 21.4155 15.7014 21.2146 15.5983 21.0427C14.7637 19.1683 14.1226 17.2136 13.6849 15.209C13.6442 15.0205 13.6634 14.8239 13.7398 14.6468C13.8162 14.4697 13.9461 14.3209 14.1113 14.2212C14.2768 14.1403 14.4336 14.0427 14.5792 13.93H15.8063C16.6828 13.9246 17.5496 13.7456 18.3566 13.4032C19.1635 13.0609 19.8946 12.562 20.5077 11.9355C21.1207 11.3089 21.6035 10.5671 21.9281 9.75283C22.2527 8.9386 22.4128 8.0681 22.399 7.19164C22.4088 6.82007 22.3438 6.45033 22.208 6.10434C22.0722 5.75835 21.8683 5.44314 21.6084 5.17742C21.3485 4.9117 21.0379 4.70087 20.695 4.55744C20.3521 4.414 19.9839 4.34087 19.6122 4.34239Z" fill="black"/>
</svg>
