<svg width="24" height="24" viewBox="0 0 24 24" fill="none" xmlns="http://www.w3.org/2000/svg">
<path d="M22.94 9.32H18.22C17.7774 9.30962 17.3412 9.21213 16.9363 9.03311C16.5314 8.85409 16.1657 8.59704 15.8602 8.27665C15.5547 7.95627 15.3153 7.57882 15.1557 7.16587C14.996 6.75293 14.9194 6.31259 14.93 5.87C14.935 5.82681 14.935 5.78319 14.93 5.74V1L22.94 9.32ZM22.94 10.84H18.22C16.9239 10.8085 15.693 10.2646 14.7971 9.32747C13.9011 8.3903 13.4132 7.13625 13.44 5.84V1H8.53C7.04191 1.00788 5.61702 1.60252 4.56477 2.65477C3.51252 3.70702 2.91788 5.13191 2.91 6.62V13.85C3.5701 13.5646 4.28087 13.415 5 13.41C5.72359 13.4113 6.43983 13.5551 7.10783 13.8332C7.77583 14.1114 8.38251 14.5183 8.89323 15.0309C9.40396 15.5435 9.80872 16.1516 10.0844 16.8207C10.3601 17.4897 10.5013 18.2064 10.5 18.93C10.4995 19.5702 10.3913 20.2057 10.18 20.81H17.32C18.062 20.8139 18.7975 20.6717 19.4845 20.3914C20.1715 20.1111 20.7965 19.6983 21.324 19.1764C21.8514 18.6545 22.2709 18.0339 22.5585 17.3499C22.846 16.6659 22.9961 15.932 23 15.19L22.94 10.84ZM9 19C9 19.7911 8.76541 20.5645 8.32588 21.2223C7.88635 21.8801 7.26164 22.3928 6.53074 22.6955C5.79983 22.9983 4.99556 23.0775 4.21964 22.9231C3.44372 22.7688 2.73098 22.3878 2.17157 21.8284C1.61216 21.269 1.2312 20.5563 1.07686 19.7804C0.92252 19.0044 1.00173 18.2002 1.30448 17.4693C1.60723 16.7384 2.11992 16.1136 2.77772 15.6741C3.43552 15.2346 4.20888 15 5 15C6.06087 15 7.07828 15.4214 7.82843 16.1716C8.57857 16.9217 9 17.9391 9 19ZM7.24 19C7.24402 18.8998 7.22792 18.7999 7.19266 18.7061C7.1574 18.6123 7.10369 18.5265 7.0347 18.4537C6.96572 18.381 6.88286 18.3229 6.79102 18.2827C6.69918 18.2426 6.60022 18.2213 6.5 18.22H3.5C3.30179 18.2276 3.1139 18.3104 2.97458 18.4516C2.83525 18.5927 2.75494 18.7817 2.75 18.98C2.74734 19.0793 2.76445 19.1782 2.80032 19.2708C2.8362 19.3635 2.89012 19.4481 2.95897 19.5198C3.02782 19.5914 3.11022 19.6486 3.20138 19.6882C3.29254 19.7277 3.39065 19.7487 3.49 19.75H6.49C6.58887 19.7513 6.687 19.7329 6.7786 19.6957C6.8702 19.6584 6.95342 19.6032 7.02333 19.5333C7.09324 19.4634 7.14844 19.3802 7.18565 19.2886C7.22287 19.197 7.24135 19.0989 7.24 19Z" fill="black"/>
</svg>
