<svg width="24" height="24" viewBox="0 0 24 24" fill="none" xmlns="http://www.w3.org/2000/svg">
<path d="M9.86881 21.245C9.86881 21.6415 9.75122 22.0292 9.53091 22.3589C9.3106 22.6886 8.99746 22.9456 8.63109 23.0974C8.26472 23.2491 7.86158 23.2888 7.47265 23.2115C7.08372 23.1341 6.72646 22.9432 6.44605 22.6628C6.16565 22.3823 5.97469 22.0251 5.89733 21.6362C5.81996 21.2472 5.85967 20.8441 6.01142 20.4777C6.16318 20.1113 6.42017 19.7982 6.74989 19.5779C7.07961 19.3576 7.46726 19.24 7.86381 19.24C8.39557 19.24 8.90555 19.4512 9.28156 19.8272C9.65757 20.2033 9.86881 20.7132 9.86881 21.245ZM15.8838 19.24C15.4873 19.24 15.0996 19.3576 14.7699 19.5779C14.4402 19.7982 14.1832 20.1113 14.0314 20.4777C13.8797 20.8441 13.84 21.2472 13.9173 21.6362C13.9947 22.0251 14.1857 22.3823 14.4661 22.6628C14.7465 22.9432 15.1037 23.1341 15.4927 23.2115C15.8816 23.2888 16.2847 23.2491 16.6511 23.0974C17.0175 22.9456 17.3306 22.6886 17.5509 22.3589C17.7712 22.0292 17.8888 21.6415 17.8888 21.245C17.8888 20.7132 17.6776 20.2033 17.3016 19.8272C16.9256 19.4512 16.4156 19.24 15.8838 19.24ZM16.1992 6.444C16.2037 7.84731 15.6903 9.20294 14.7574 10.2513L11.8513 13.4953C11.6802 13.6839 11.4716 13.8346 11.2388 13.9378C11.006 14.0409 10.7542 14.0942 10.4996 14.0942C10.245 14.0942 9.99318 14.0409 9.76039 13.9378C9.52759 13.8346 9.31896 13.6839 9.14791 13.4953L6.25305 10.2513C5.6369 9.563 5.19727 8.7353 4.97202 7.83943C4.74677 6.94355 4.74265 6.00635 4.96001 5.10853C5.17736 4.2107 5.60968 3.37917 6.21975 2.68551C6.82981 1.99186 7.59933 1.45689 8.46205 1.12665C9.32476 0.796416 10.2548 0.680819 11.1721 0.789816C12.0894 0.898813 12.9665 1.22914 13.7278 1.75234C14.4891 2.27555 15.1118 2.97595 15.5424 3.79325C15.9729 4.61055 16.1983 5.52024 16.1992 6.444ZM12.6398 6.444C12.6331 6.02222 12.502 5.61181 12.2628 5.26433C12.0236 4.91686 11.6871 4.64781 11.2955 4.49099C10.9039 4.33418 10.4746 4.29659 10.0617 4.38294C9.64884 4.4693 9.27067 4.67575 8.97473 4.97636C8.67879 5.27697 8.47829 5.65833 8.39841 6.07254C8.31853 6.48674 8.36284 6.91532 8.52578 7.30442C8.68871 7.69352 8.96299 8.02579 9.31417 8.2595C9.66535 8.4932 10.0778 8.61791 10.4996 8.61797C10.7835 8.618 11.0646 8.56155 11.3265 8.45189C11.5884 8.34222 11.8258 8.18155 12.025 7.97923C12.2242 7.7769 12.3811 7.53696 12.4867 7.27339C12.5922 7.00982 12.6443 6.72788 12.6398 6.444ZM5.59973 9.3614C5.43234 9.07339 5.28917 8.77198 5.17169 8.46027C5.28917 8.77198 5.43234 9.07339 5.59973 9.3614ZM4.87883 7.37892C4.9359 7.7163 5.02259 8.048 5.1379 8.37016C5.02259 8.048 4.9359 7.7163 4.87883 7.37892ZM9.14791 13.4953C9.23725 13.5906 9.33529 13.6773 9.44078 13.7544C9.33529 13.6773 9.23725 13.5906 9.14791 13.4953L6.25305 10.2513C6.02819 10.0009 5.82824 9.72933 5.65605 9.44024C5.82824 9.72933 6.02819 10.0009 6.25305 10.2513L9.14791 13.4953ZM4.81124 6.20746C4.76977 6.58178 4.76977 6.95954 4.81124 7.33386C4.76977 6.95954 4.76977 6.58178 4.81124 6.20746ZM10.8263 14.0923C10.5956 14.1373 10.3585 14.1373 10.1279 14.0923H10.4996C10.6244 14.0962 10.7493 14.0849 10.8713 14.0585L10.8263 14.0923ZM17.8888 14.2725V11.2087C17.8888 10.9458 17.9933 10.6937 18.1792 10.5078C18.3651 10.3219 18.6172 10.2175 18.8801 10.2175H20.3106L18.9702 7.69431C18.7969 7.37553 18.5625 7.09405 18.2803 6.86597C17.9981 6.6379 17.6737 6.46771 17.3256 6.36515V6.46653C17.3219 8.13076 16.7042 9.73508 15.591 10.9722L12.6961 14.25C12.4198 14.559 12.0812 14.806 11.7026 14.9749C11.3241 15.1438 10.9141 15.2307 10.4996 15.23C10.0865 15.232 9.67781 15.1456 9.30089 14.9766C8.92398 14.8075 8.58761 14.5598 8.31437 14.25L5.40824 10.9947C4.26609 9.72597 3.64636 8.07203 3.67357 6.36515C3.13772 6.56587 2.67644 6.9263 2.3521 7.39771C2.02775 7.86911 1.856 8.42875 1.86006 9.00095V18.4628C1.86302 19.1997 2.1571 19.9057 2.67823 20.4268C3.19935 20.948 3.9053 21.242 4.64228 21.245H4.74366C4.74366 20.4145 5.07357 19.618 5.66083 19.0308C6.24808 18.4435 7.04457 18.1136 7.87507 18.1136C8.70557 18.1136 9.50206 18.4435 10.0893 19.0308C10.6766 19.618 11.0065 20.4145 11.0065 21.245H12.7637C12.7637 20.4145 13.0936 19.618 13.6809 19.0308C14.2681 18.4435 15.0646 18.1136 15.8951 18.1136C16.7256 18.1136 17.5221 18.4435 18.1093 19.0308C18.6966 19.618 19.0265 20.4145 19.0265 21.245H19.3757C20.1088 21.2361 20.809 20.9395 21.3252 20.419C21.8415 19.8985 22.1325 19.1959 22.1354 18.4628V15.23H18.8688C18.6089 15.23 18.3596 15.1267 18.1759 14.943C17.9921 14.7592 17.8888 14.5099 17.8888 14.25V14.2725ZM16.1992 6.47779C16.2005 7.18636 16.0706 7.88905 15.8162 8.55038C16.0748 7.87846 16.2047 7.16392 16.1992 6.444V6.47779ZM15.3769 9.42898C15.2049 9.72166 15.005 9.99703 14.7799 10.2513L13.4057 11.7832L14.7799 10.2513C15.005 9.99703 15.2049 9.72166 15.3769 9.42898Z" fill="black"/>
</svg>
