<svg width="24" height="24" viewBox="0 0 24 24" fill="none" xmlns="http://www.w3.org/2000/svg">
<path d="M22.9824 13.8596L15.5096 21.4815C15.113 21.8625 14.6458 22.1623 14.1342 22.364C13.6791 22.4795 13.2024 22.4795 12.7473 22.364C12.7473 22.364 6.28308 20.725 5.87047 20.9543C5.5635 21.1559 5.2825 21.3946 5.03378 21.6649C4.75771 21.9337 4.38759 22.0842 4.00225 22.0842C3.6169 22.0842 3.24678 21.9337 2.97071 21.6649L0.930573 19.7164C0.654811 19.4393 0.5 19.0643 0.5 18.6734C0.5 18.2825 0.654811 17.9075 0.930573 17.6304C1.82457 16.6906 3.14264 15.3381 4.22002 14.0888C4.55455 13.6477 4.99396 13.2972 5.49836 13.069C6.00275 12.8408 6.55615 12.7423 7.10831 12.7822C7.24919 12.7659 7.39149 12.7659 7.53238 12.7822L14.1571 14.4785C14.3816 14.5354 14.5922 14.637 14.7764 14.7772C14.9607 14.9175 15.1147 15.0935 15.2292 15.2947C15.3437 15.496 15.4164 15.7182 15.4429 15.9483C15.4695 16.1783 15.4492 16.4113 15.3835 16.6333C15.3424 16.8358 15.2599 17.0277 15.1412 17.1969C15.0225 17.366 14.8702 17.5089 14.6937 17.6165C14.5173 17.7241 14.3205 17.7941 14.1158 17.8221C13.911 17.8502 13.7027 17.8356 13.5038 17.7794L10.7072 17.0688C10.5979 17.0313 10.482 17.0168 10.3668 17.0263C10.2516 17.0357 10.1397 17.069 10.038 17.1239C9.93629 17.1788 9.84707 17.2542 9.77595 17.3452C9.70482 17.4363 9.65335 17.5412 9.62476 17.6532C9.59617 17.7651 9.59108 17.8818 9.60983 17.9959C9.62858 18.1099 9.67075 18.2188 9.73368 18.3157C9.79661 18.4127 9.87894 18.4955 9.97548 18.5591C10.072 18.6226 10.1807 18.6654 10.2946 18.6849L13.0912 19.407C13.3531 19.4758 13.6227 19.5105 13.8935 19.5101C14.6093 19.5091 15.3043 19.2697 15.8688 18.8297C16.4334 18.3897 16.8353 17.7741 17.011 17.0803C17.1945 16.3514 17.1341 15.5824 16.8391 14.8911L21.5727 11.51C21.8471 11.3591 22.1648 11.3064 22.4732 11.3606C22.7817 11.4148 23.0624 11.5726 23.269 11.808C23.9223 12.6676 22.9824 13.8596 22.9824 13.8596ZM16.2775 1.54999H14.8104V3.84228C14.8104 4.21009 14.6643 4.56284 14.4042 4.82292C14.1441 5.08301 13.7914 5.22912 13.4236 5.22912H12.5296C12.1618 5.22912 11.809 5.08301 11.5489 4.82292C11.2889 4.56284 11.1427 4.21009 11.1427 3.84228V1.54999H9.68714C9.20381 1.54999 8.74028 1.74199 8.39852 2.08375C8.05676 2.42551 7.86476 2.88904 7.86476 3.37236V9.1031C7.86779 9.58443 8.06113 10.045 8.40256 10.3843C8.74399 10.7236 9.20579 10.914 9.68714 10.914H16.2889C16.7703 10.911 17.2309 10.7176 17.5702 10.3762C17.9094 10.0348 18.0999 9.57298 18.0999 9.09164V3.3609C18.0968 2.87957 17.9035 2.41898 17.5621 2.07969C17.2206 1.7404 16.7588 1.54998 16.2775 1.54999Z" fill="black"/>
</svg>
