<svg width="24" height="24" viewBox="0 0 24 24" fill="none" xmlns="http://www.w3.org/2000/svg">
<path d="M13.2628 14.1245H1.25V5.50749C1.25 4.41547 1.6838 3.36817 2.45598 2.59599C3.22816 1.82382 4.27545 1.39001 5.36747 1.39001H13.2628C13.7357 1.39001 14.1891 1.57785 14.5235 1.91219C14.8578 2.24654 15.0457 2.7 15.0457 3.17284V12.3416C15.0457 12.5758 14.9995 12.8076 14.9099 13.0239C14.8204 13.2402 14.689 13.4367 14.5235 13.6023C14.3579 13.7678 14.1614 13.8992 13.9451 13.9888C13.7288 14.0784 13.497 14.1245 13.2628 14.1245ZM7.61723 18.3693C7.19745 18.3693 6.78711 18.4938 6.43808 18.727C6.08905 18.9602 5.81702 19.2917 5.65638 19.6795C5.49574 20.0673 5.45371 20.494 5.5356 20.9058C5.61749 21.3175 5.81963 21.6956 6.11646 21.9925C6.41328 22.2893 6.79146 22.4914 7.20317 22.5733C7.61487 22.6552 8.04162 22.6132 8.42944 22.4525C8.81726 22.2919 9.14873 22.0199 9.38194 21.6708C9.61516 21.3218 9.73964 20.9115 9.73964 20.4917C9.73964 20.213 9.68474 19.937 9.57808 19.6795C9.47142 19.422 9.31508 19.188 9.118 18.9909C8.92091 18.7938 8.68694 18.6375 8.42944 18.5308C8.17193 18.4242 7.89595 18.3693 7.61723 18.3693ZM16.1069 18.3693C15.6871 18.3693 15.2767 18.4938 14.9277 18.727C14.5787 18.9602 14.3067 19.2917 14.146 19.6795C13.9854 20.0673 13.9433 20.494 14.0252 20.9058C14.1071 21.3175 14.3093 21.6956 14.6061 21.9925C14.9029 22.2893 15.2811 22.4914 15.6928 22.5733C16.1045 22.6552 16.5313 22.6132 16.9191 22.4525C17.3069 22.2919 17.6384 22.0199 17.8716 21.6708C18.1048 21.3218 18.2293 20.9115 18.2293 20.4917C18.2293 20.213 18.1744 19.937 18.0677 19.6795C17.9611 19.422 17.8047 19.188 17.6076 18.9909C17.4105 18.7938 17.1766 18.6375 16.9191 18.5308C16.6616 18.4242 16.3856 18.3693 16.1069 18.3693ZM18.2293 13.0633V9.87965C18.2293 9.5982 18.3411 9.32828 18.5401 9.12927C18.7391 8.93025 19.009 8.81845 19.2905 8.81845H20.808L19.4284 6.14421C19.175 5.66244 18.7928 5.26051 18.3244 4.9832C17.8559 4.70589 17.3197 4.5641 16.7754 4.57363H16.1069V12.3416C16.1069 13.0959 15.8072 13.8193 15.2739 14.3527C14.7405 14.886 14.0171 15.1857 13.2628 15.1857H1.25V17.5415C1.25 18.324 1.56082 19.0744 2.11408 19.6276C2.66734 20.1809 3.41772 20.4917 4.20015 20.4917H4.43361C4.43361 19.6473 4.76903 18.8376 5.36607 18.2405C5.96312 17.6435 6.77288 17.3081 7.61723 17.3081C8.46157 17.3081 9.27134 17.6435 9.86838 18.2405C10.4654 18.8376 10.8008 19.6473 10.8008 20.4917H12.9232C12.9232 19.6473 13.2587 18.8376 13.8557 18.2405C14.4528 17.6435 15.2625 17.3081 16.1069 17.3081C16.9512 17.3081 17.761 17.6435 18.358 18.2405C18.9551 18.8376 19.2905 19.6473 19.2905 20.4917H19.7999C20.5823 20.4917 21.3327 20.1809 21.8859 19.6276C22.4392 19.0744 22.75 18.324 22.75 17.5415V14.1245H19.2799C19.0003 14.1217 18.7331 14.0086 18.5363 13.8099C18.3396 13.6112 18.2293 13.3429 18.2293 13.0633Z" fill="black"/>
</svg>
