<svg width="24" height="24" viewBox="0 0 24 24" fill="none" xmlns="http://www.w3.org/2000/svg">
<path d="M21.3344 5.45799C20.9099 9.51831 19.1029 13.3094 16.2161 16.1961C13.3294 19.0828 9.53833 20.8898 5.47801 21.3144C5.26745 21.7245 4.9275 22.0536 4.51085 22.2508C4.0942 22.4481 3.62413 22.5024 3.1735 22.4053C2.72287 22.3082 2.31685 22.0652 2.01838 21.7139C1.7199 21.3626 1.54565 20.9226 1.52263 20.4622C1.49961 20.0018 1.62911 19.5467 1.89105 19.1674C2.15299 18.788 2.53275 18.5057 2.97144 18.3642C3.41014 18.2226 3.88329 18.2297 4.31753 18.3844C4.75178 18.5391 5.12287 18.8327 5.37328 19.2197C8.91273 18.8215 12.2118 17.2323 14.7294 14.7128C17.247 12.1933 18.8337 8.89301 19.2293 5.35326C18.8423 5.10285 18.5487 4.73176 18.394 4.29751C18.2393 3.86327 18.2322 3.39013 18.3737 2.95143C18.5153 2.51273 18.7976 2.13297 19.1769 1.87103C19.5562 1.60909 20.0114 1.47959 20.4718 1.50261C20.9322 1.52563 21.3721 1.69989 21.7234 1.99836C22.0747 2.29683 22.3177 2.70285 22.4148 3.15348C22.5119 3.60411 22.4576 4.07419 22.2604 4.49083C22.0632 4.90748 21.734 5.24743 21.3239 5.45799H21.3344ZM21.4287 18.5599V11.2287C20.8677 12.5405 20.1654 13.7872 19.334 14.9467V18.5914C18.9347 18.8219 18.6226 19.1778 18.4462 19.6038C18.2697 20.0298 18.2387 20.5021 18.3581 20.9475C18.4774 21.3929 18.7404 21.7864 19.1062 22.0672C19.472 22.3479 19.9202 22.5 20.3813 22.5C20.8424 22.5 21.2907 22.3479 21.6565 22.0672C22.0223 21.7864 22.2853 21.3929 22.4046 20.9475C22.5239 20.5021 22.493 20.0298 22.3165 19.6038C22.1401 19.1778 21.828 18.8219 21.4287 18.5914V18.5599ZM17.5641 5.99212C17.0048 5.32326 16.7038 4.47605 16.7157 3.60424H8.51523C7.21807 3.60424 5.97403 4.11954 5.05679 5.03677C4.13956 5.95401 3.62426 7.19805 3.62426 8.49521V16.6957C4.4817 16.6937 5.31239 16.9941 5.97025 17.544C8.86114 17.04 11.526 15.656 13.601 13.581C15.676 11.506 17.06 8.84112 17.5641 5.95023V5.99212Z" fill="black"/>
</svg>
