<svg width="24" height="24" viewBox="0 0 24 24" fill="none" xmlns="http://www.w3.org/2000/svg">
<path d="M20.6753 9.3125H14.2253C13.6663 9.32928 13.1359 9.56318 12.7466 9.96458C12.3572 10.366 12.1396 10.9033 12.1398 11.4625V20.6C12.1396 21.1592 12.3572 21.6965 12.7466 22.0979C13.1359 22.4993 13.6663 22.7332 14.2253 22.75H20.6753C21.2324 22.7305 21.7601 22.4954 22.1472 22.0943C22.5342 21.6932 22.7504 21.1574 22.7501 20.6V11.4303C22.7421 10.8784 22.5223 10.3508 22.1361 9.95658C21.7499 9.56237 21.2268 9.33176 20.6753 9.3125ZM17.4503 20.9548C17.213 20.959 16.9798 20.8924 16.7805 20.7634C16.5812 20.6345 16.425 20.449 16.3317 20.2307C16.2383 20.0125 16.2123 19.7713 16.2567 19.5382C16.3012 19.305 16.4142 19.0904 16.5813 18.9218C16.7483 18.7532 16.9619 18.6382 17.1946 18.5917C17.4274 18.5451 17.6687 18.5689 17.8879 18.6603C18.107 18.7516 18.2938 18.9061 18.4246 19.1042C18.5554 19.3023 18.6242 19.5349 18.6221 19.7723C18.6235 19.927 18.5942 20.0806 18.536 20.224C18.4777 20.3674 18.3916 20.4978 18.2827 20.6078C18.1737 20.7177 18.0441 20.805 17.9012 20.8645C17.7583 20.9241 17.6051 20.9548 17.4503 20.9548ZM11.1723 21.417H6.92606C6.71223 21.417 6.50715 21.3321 6.35595 21.1809C6.20475 21.0297 6.11981 20.8246 6.11981 20.6108C6.11981 20.3969 6.20475 20.1918 6.35595 20.0406C6.50715 19.8894 6.71223 19.8045 6.92606 19.8045H10.0866V16.9773H5.31356C4.22916 16.9687 3.19241 16.5305 2.43065 15.7587C1.6689 14.9868 1.24433 13.9444 1.25006 12.86V5.335C1.25286 4.25617 1.68119 3.222 2.44203 2.45714C3.20287 1.69228 4.23475 1.25849 5.31356 1.25H17.2138C18.2963 1.26135 19.3303 1.70082 20.0898 2.47235C20.8492 3.24387 21.2723 4.28468 21.2666 5.36725V8.302C21.0716 8.26404 20.8738 8.24246 20.6753 8.2375H14.2253C13.3812 8.25439 12.5774 8.6016 11.9865 9.20459C11.3955 9.80757 11.0646 10.6182 11.0648 11.4625V20.6C11.0695 20.8755 11.1056 21.1496 11.1723 21.417ZM12.2473 21.417C12.2001 21.2951 12.1641 21.1692 12.1398 21.0408C12.1833 21.1687 12.2336 21.2943 12.2903 21.417H12.2473Z" fill="black"/>
</svg>
