<svg width="24" height="24" viewBox="0 0 24 24" fill="none" xmlns="http://www.w3.org/2000/svg">
<path d="M20.646 6.753L16.939 2.628C16.4791 2.1149 15.9161 1.70466 15.2868 1.42412C14.6575 1.14357 13.976 0.999053 13.287 1H7.00597C5.70482 1 4.45696 1.51689 3.53691 2.43694C2.61686 3.35699 2.09998 4.60485 2.09998 5.906V18.094C2.09998 19.3952 2.61686 20.643 3.53691 21.5631C4.45696 22.4831 5.70482 23 7.00597 23H16.994C18.2951 23 19.543 22.4831 20.463 21.5631C21.3831 20.643 21.9 19.3952 21.9 18.094V10.031C21.8974 8.82166 21.4512 7.6553 20.646 6.753ZM9.87697 17.995C9.95426 18.0723 10.0156 18.164 10.0574 18.265C10.0992 18.366 10.1207 18.4742 10.1207 18.5835C10.1207 18.6928 10.0992 18.801 10.0574 18.902C10.0156 19.003 9.95426 19.0947 9.87697 19.172C9.79969 19.2493 9.70794 19.3106 9.60697 19.3524C9.50599 19.3942 9.39777 19.4158 9.28847 19.4158C9.17918 19.4158 9.07096 19.3942 8.96998 19.3524C8.86901 19.3106 8.77726 19.2493 8.69997 19.172L6.49997 16.972C6.34548 16.8173 6.2587 16.6076 6.2587 16.389C6.2587 16.1704 6.34548 15.9607 6.49997 15.806L8.69997 13.606C8.7755 13.5249 8.86658 13.4599 8.96778 13.4148C9.06898 13.3698 9.17823 13.3455 9.289 13.3436C9.39977 13.3416 9.5098 13.362 9.61253 13.4035C9.71526 13.445 9.80858 13.5067 9.88692 13.5851C9.96526 13.6634 10.027 13.7567 10.0685 13.8594C10.11 13.9622 10.1304 14.0722 10.1284 14.183C10.1265 14.2937 10.1022 14.403 10.0571 14.5042C10.012 14.6054 9.94703 14.6965 9.86597 14.772L8.25997 16.4L9.87697 17.995ZM17.5 16.972L15.3 19.172C15.2236 19.2522 15.132 19.3162 15.0304 19.3602C14.9288 19.4042 14.8194 19.4273 14.7087 19.4281C14.598 19.429 14.4883 19.4075 14.386 19.365C14.2838 19.3226 14.1912 19.26 14.1136 19.181C14.0361 19.102 13.9752 19.0082 13.9347 18.9051C13.8942 18.8021 13.8748 18.692 13.8777 18.5813C13.8807 18.4707 13.9058 18.3617 13.9517 18.261C13.9977 18.1603 14.0634 18.0698 14.145 17.995L15.74 16.4L14.112 14.783C14.0347 14.705 13.9735 14.6125 13.932 14.5109C13.8904 14.4092 13.8693 14.3004 13.8698 14.1906C13.8703 14.0808 13.8925 13.9722 13.935 13.8709C13.9774 13.7697 14.0395 13.6778 14.1175 13.6005C14.1955 13.5232 14.2879 13.4621 14.3896 13.4205C14.4912 13.379 14.6001 13.3578 14.7099 13.3583C14.8197 13.3589 14.9283 13.381 15.0295 13.4235C15.1308 13.466 15.2227 13.528 15.3 13.606L17.5 15.806C17.6545 15.9607 17.7412 16.1704 17.7412 16.389C17.7412 16.6076 17.6545 16.8173 17.5 16.972Z" fill="black"/>
</svg>
