<svg width="24" height="24" viewBox="0 0 24 24" fill="none" xmlns="http://www.w3.org/2000/svg">
<path d="M3.28598 13.8293L6.15315 10.9621C6.20549 10.9036 6.26958 10.8568 6.34123 10.8248C6.41289 10.7927 6.4905 10.7761 6.569 10.7761C6.71333 10.7782 6.851 10.8372 6.95202 10.9402L7.73995 11.7282C7.8402 11.8305 7.89636 11.968 7.89636 12.1112C7.89636 12.2544 7.8402 12.3919 7.73995 12.4942L4.67579 15.5584C4.39439 15.8382 4.17723 16.1759 4.0394 16.5481C3.90157 16.9203 3.84635 17.318 3.87758 17.7136C3.90882 18.1092 4.02576 18.4933 4.22028 18.8393C4.41481 19.1852 4.68226 19.4846 5.00409 19.7169C5.55805 20.0846 6.22297 20.2476 6.88421 20.1777C7.54545 20.1078 8.16157 19.8093 8.62636 19.3338L11.603 16.4338C11.7053 16.3336 11.8428 16.2774 11.986 16.2774C12.1292 16.2774 12.2667 16.3336 12.369 16.4338L13.1569 17.2218C13.2082 17.2726 13.2489 17.3332 13.2767 17.3998C13.3045 17.4665 13.3188 17.538 13.3188 17.6103C13.3188 17.6825 13.3045 17.754 13.2767 17.8207C13.2489 17.8874 13.2082 17.9479 13.1569 17.9988L10.0928 21.052C9.60446 21.5401 9.01935 21.9206 8.37512 22.1689C7.73088 22.4173 7.04178 22.528 6.35217 22.494C5.66256 22.46 4.98771 22.282 4.37104 21.9714C3.75437 21.6609 3.20955 21.2246 2.77164 20.6908C1.9877 19.6884 1.60595 18.4296 1.70107 17.1605C1.7962 15.8915 2.36135 14.7037 3.28598 13.8293ZM17.02 13.3259C17.1241 13.4269 17.2634 13.4833 17.4085 13.4833C17.5535 13.4833 17.6928 13.4269 17.7969 13.3259L20.7954 10.2836C21.7019 9.40914 22.2535 8.23072 22.3443 6.97448C22.4352 5.71825 22.059 4.4727 21.2879 3.47684C20.853 2.93729 20.3077 2.49703 19.6886 2.18559C19.0695 1.87416 18.3909 1.69876 17.6985 1.67117C17.0083 1.63651 16.3185 1.74718 15.6737 1.99602C15.029 2.24486 14.4437 2.62632 13.9558 3.11571L10.7713 6.32213C10.6692 6.42382 10.6103 6.56107 10.6071 6.70515C10.6098 6.85256 10.6685 6.99342 10.7713 7.09911L11.5592 7.88703C11.6615 7.98729 11.799 8.04345 11.9422 8.04345C12.0854 8.04345 12.223 7.98729 12.3252 7.88703L15.4551 4.75722C16.0021 4.21217 16.7402 3.90201 17.5124 3.89269C18.0745 3.88871 18.623 4.06516 19.0773 4.39608C19.4043 4.62638 19.6769 4.92556 19.8757 5.27257C20.0746 5.61958 20.195 6.00597 20.2283 6.40452C20.2617 6.80308 20.2073 7.20411 20.069 7.57937C19.9306 7.95463 19.7116 8.29498 19.4275 8.57647L16.2102 11.7938C16.1099 11.8961 16.0537 12.0336 16.0537 12.1769C16.0537 12.3201 16.1099 12.4576 16.2102 12.5599L17.02 13.3259ZM5.55127 7.41647C5.61644 7.20895 5.59657 6.98404 5.49602 6.79116C5.39548 6.59828 5.22248 6.4532 5.01504 6.38779L2.71692 5.66552C2.61422 5.63173 2.50579 5.61884 2.39803 5.62762C2.29026 5.63641 2.18535 5.66668 2.08947 5.71666C1.9936 5.76663 1.9087 5.8353 1.83979 5.91862C1.77088 6.00193 1.71935 6.0982 1.68824 6.20175C1.62439 6.40506 1.64101 6.62512 1.73468 6.81654C1.82835 7.00795 1.99192 7.1561 2.19164 7.23043L4.48975 7.95269C4.56965 7.96338 4.65061 7.96338 4.73051 7.95269C4.90648 7.96178 5.08079 7.91475 5.2283 7.81837C5.37581 7.722 5.4889 7.58127 5.55127 7.41647ZM8.27618 4.73533C8.49143 4.70279 8.68535 4.58716 8.81629 4.41324C8.94724 4.23933 9.00478 4.021 8.97655 3.80514L8.75769 2.2074C8.72515 1.99215 8.60951 1.79823 8.4356 1.66728C8.26168 1.53634 8.04336 1.4788 7.8275 1.50702C7.72075 1.52046 7.61775 1.55503 7.52451 1.60872C7.43127 1.66241 7.34967 1.73414 7.28446 1.81972C7.21926 1.9053 7.17176 2.00301 7.14474 2.10716C7.11773 2.2113 7.11174 2.31978 7.12712 2.42627L7.34599 4.00212C7.3748 4.19646 7.47237 4.37402 7.62097 4.50254C7.76957 4.63105 7.95933 4.70201 8.1558 4.7025L8.27618 4.73533ZM16.8668 21.6101C17.0788 21.5628 17.2639 21.4344 17.3825 21.2524C17.5012 21.0704 17.5438 20.8492 17.5015 20.6361L17.02 18.2833C16.9702 18.0726 16.8413 17.8892 16.66 17.7711C16.4786 17.6529 16.2588 17.609 16.046 17.6486C15.9396 17.6693 15.8384 17.7112 15.7485 17.7718C15.6586 17.8324 15.5818 17.9104 15.5226 18.0013C15.4634 18.0921 15.423 18.1939 15.4039 18.3006C15.3848 18.4073 15.3873 18.5168 15.4113 18.6225L15.8928 20.9754C15.9326 21.1578 16.0335 21.3212 16.1787 21.4386C16.324 21.556 16.5049 21.6203 16.6917 21.621L16.8668 21.6101ZM21.8022 16.3572C21.8521 16.1455 21.8169 15.9227 21.7044 15.7365C21.5919 15.5504 21.411 15.4157 21.2003 15.3614L19.7011 14.9893C19.5934 14.9521 19.4791 14.9377 19.3655 14.9471C19.252 14.9565 19.1416 14.9894 19.0415 15.0438C18.9413 15.0981 18.8536 15.1728 18.7839 15.2629C18.7141 15.353 18.664 15.4567 18.6365 15.5673C18.609 15.6779 18.6049 15.793 18.6244 15.9053C18.6438 16.0176 18.6865 16.1246 18.7496 16.2195C18.8127 16.3144 18.8948 16.3951 18.9908 16.4565C19.0868 16.5179 19.1945 16.5586 19.3071 16.5761L20.8392 16.9591C20.9044 16.9699 20.971 16.9699 21.0362 16.9591C21.2114 16.9538 21.3803 16.8924 21.5182 16.7841C21.656 16.6758 21.7556 16.5262 21.8022 16.3572Z" fill="black"/>
</svg>
