<svg width="24" height="24" viewBox="0 0 24 24" fill="none" xmlns="http://www.w3.org/2000/svg">
<path d="M12 1C9.82441 1 7.69767 1.64514 5.88873 2.85383C4.07979 4.06253 2.66989 5.78049 1.83733 7.79048C1.00477 9.80047 0.78693 12.0122 1.21137 14.146C1.6358 16.2798 2.68345 18.2398 4.22183 19.7782C5.76021 21.3165 7.72022 22.3642 9.85401 22.7886C11.9878 23.2131 14.1995 22.9952 16.2095 22.1627C18.2195 21.3301 19.9375 19.9202 21.1462 18.1113C22.3549 16.3023 23 14.1756 23 12C23 10.5555 22.7155 9.12506 22.1627 7.79048C21.6099 6.4559 20.7996 5.24327 19.7782 4.22182C18.7567 3.20038 17.5441 2.39013 16.2095 1.83732C14.8749 1.28452 13.4445 1 12 1ZM12 17.093C12.0079 17.3987 11.9389 17.7015 11.7993 17.9736C11.6597 18.2457 11.454 18.4784 11.201 18.6503C10.9481 18.8222 10.6561 18.9278 10.3517 18.9575C10.0473 18.9871 9.74035 18.9398 9.459 18.82C8.10979 18.2616 6.95651 17.3156 6.14508 16.1016C5.33366 14.8876 4.90055 13.4602 4.90055 12C4.90055 10.5398 5.33366 9.11241 6.14508 7.89842C6.95651 6.68443 8.10979 5.73839 9.459 5.18C9.73759 5.05836 10.0423 5.00864 10.3451 5.03541C10.6479 5.06218 10.9391 5.16457 11.192 5.33319C11.445 5.50181 11.6515 5.73126 11.7927 6.00048C11.9338 6.26969 12.0051 6.57006 12 6.874V17.093Z" fill="black"/>
</svg>
