<svg width="24" height="24" viewBox="0 0 24 24" fill="none" xmlns="http://www.w3.org/2000/svg">
<path d="M12 1C9.82441 1 7.69767 1.64514 5.88873 2.85383C4.07979 4.06253 2.66989 5.78049 1.83733 7.79048C1.00477 9.80047 0.786929 12.0122 1.21137 14.146C1.6358 16.2798 2.68345 18.2398 4.22183 19.7782C5.76021 21.3165 7.72022 22.3642 9.85401 22.7886C11.9878 23.2131 14.1995 22.9952 16.2095 22.1627C18.2195 21.3301 19.9375 19.9202 21.1462 18.1113C22.3549 16.3023 23 14.1756 23 12C22.9971 9.0835 21.8373 6.28729 19.775 4.22502C17.7127 2.16275 14.9165 1.00289 12 1ZM5.05666 10.6879C5.02615 10.8608 4.93628 11.0176 4.80256 11.1314C4.66883 11.2451 4.49962 11.3087 4.32406 11.3111H4.18191C4.08566 11.294 3.99374 11.258 3.9114 11.2053C3.82906 11.1526 3.75793 11.0842 3.70207 11.0039C3.64621 10.9237 3.60672 10.8332 3.58586 10.7377C3.56501 10.6422 3.56319 10.5435 3.58052 10.4473C3.85988 8.89611 4.56363 7.45267 5.61364 6.27719C6.66365 5.10172 8.01886 4.2402 9.52883 3.78827C9.71577 3.74663 9.91153 3.77659 10.0775 3.87223C10.2434 3.96787 10.3674 4.12225 10.4251 4.30488C10.4828 4.48751 10.4699 4.68513 10.389 4.85873C10.3081 5.03232 10.165 5.16927 9.98807 5.24254C8.74453 5.60838 7.6261 6.31036 6.75599 7.27115C5.88587 8.23195 5.29784 9.41427 5.05666 10.6879ZM8.33698 12C8.33699 11.2808 8.55 10.5777 8.94914 9.97937C9.34828 9.38107 9.91566 8.91438 10.5797 8.63815C11.2438 8.36193 11.9748 8.28856 12.6805 8.42729C13.3862 8.56602 14.035 8.91064 14.5451 9.41768C15.0552 9.92472 15.4037 10.5715 15.5466 11.2763C15.6896 11.9812 15.6206 12.7126 15.3484 13.3783C15.0761 14.044 14.6128 14.6142 14.0169 15.0169C13.421 15.4196 12.7192 15.6368 12 15.6411C11.0343 15.6411 10.1082 15.2575 9.42532 14.5747C8.74247 13.8918 8.35885 12.9657 8.35885 12H8.33698ZM14.7227 20.1243C14.6429 20.1352 14.5619 20.1352 14.4821 20.1243C14.2994 20.1295 14.121 20.0682 13.9801 19.9518C13.8392 19.8354 13.7453 19.6718 13.7159 19.4914C13.6865 19.311 13.7236 19.1261 13.8203 18.971C13.917 18.8159 14.0667 18.7012 14.2416 18.6481C15.3569 18.2665 16.3602 17.6143 17.1616 16.7499C17.9631 15.8854 18.5377 14.8358 18.834 13.6948C18.8985 13.5196 19.0257 13.3745 19.191 13.2876C19.3563 13.2007 19.548 13.1782 19.7289 13.2245C19.9098 13.2707 20.0672 13.3824 20.1705 13.538C20.2738 13.6935 20.3158 13.8819 20.2883 14.0666C19.9449 15.4595 19.2574 16.744 18.2889 17.8024C17.3203 18.8607 16.1017 19.6591 14.7445 20.1243H14.7227Z" fill="black"/>
</svg>
