<svg width="24" height="24" viewBox="0 0 24 24" fill="none" xmlns="http://www.w3.org/2000/svg">
<path d="M20.7748 3.07615H18.5522C18.1058 3.07615 17.6778 3.25345 17.3622 3.56905C17.0466 3.88465 16.8693 4.31269 16.8693 4.75901V4.60025L14.0963 2.35644C13.4773 1.92046 12.7365 1.69084 11.9795 1.70023H6.61338C6.10297 1.70152 5.60624 1.86533 5.19518 2.16791C4.78413 2.47049 4.48012 2.89612 4.32723 3.38309L1.58596 12.3583C1.49815 12.6381 1.47725 12.9347 1.52495 13.224C1.57264 13.5134 1.68761 13.7875 1.86059 14.0243C2.03357 14.2611 2.25972 14.454 2.52086 14.5875C2.782 14.7209 3.07082 14.7912 3.36408 14.7927H7.67178C7.8596 14.7936 8.04488 14.8361 8.21428 14.9172C8.38368 14.9984 8.53298 15.1161 8.65142 15.2618C8.76986 15.4076 8.8545 15.5778 8.89923 15.7603C8.94396 15.9427 8.94768 16.1327 8.91011 16.3168L8.35974 19.492C8.25978 20.0311 8.3498 20.5882 8.61446 21.0685C8.87913 21.5487 9.30207 21.9224 9.81127 22.1258C10.3205 22.3292 10.8844 22.3498 11.4071 22.1842C11.9299 22.0185 12.379 21.6768 12.678 21.2172L16.9116 14.8668V16.1686C16.9116 16.6149 17.0889 17.043 17.4045 17.3586C17.7201 17.6742 18.1482 17.8515 18.5945 17.8515H20.8171C21.2635 17.8515 21.6915 17.6742 22.0071 17.3586C22.3227 17.043 22.5 16.6149 22.5 16.1686V4.75901C22.5001 4.53441 22.4552 4.31206 22.368 4.10508C22.2808 3.89809 22.153 3.71066 21.9922 3.55383C21.8314 3.39699 21.6409 3.27393 21.4318 3.19189C21.2227 3.10985 20.9993 3.0705 20.7748 3.07615Z" fill="black"/>
</svg>
