<svg width="24" height="24" viewBox="0 0 24 24" fill="none" xmlns="http://www.w3.org/2000/svg">
<path d="M13.0157 0.5C12.8044 0.5 12.5951 0.54163 12.3998 0.622512C12.2046 0.703395 12.0271 0.821946 11.8777 0.971398C11.7282 1.12085 11.6097 1.29827 11.5288 1.49354C11.4479 1.68881 11.4063 1.8981 11.4063 2.10945V6.24805H8.95761C7.45448 6.24805 6.01291 6.84517 4.95003 7.90804C3.88716 8.97092 3.29004 10.4125 3.29004 11.9156C3.29004 13.4188 3.88716 14.8603 4.95003 15.9232C6.01291 16.9861 7.45448 17.5832 8.95761 17.5832H13.0157C13.4426 17.5832 13.852 17.4136 14.1538 17.1118C14.4556 16.81 14.6252 16.4006 14.6252 15.9737V2.10945C14.6252 1.6826 14.4556 1.27323 14.1538 0.971398C13.852 0.669567 13.4426 0.5 13.0157 0.5ZM6.50895 11.8696C6.50895 11.2202 6.76693 10.5974 7.22614 10.1382C7.68536 9.67896 8.30819 9.42097 8.95761 9.42097H11.4063V14.2953H8.95761C8.31215 14.2953 7.69278 14.0405 7.23422 13.5863C6.77566 13.132 6.51501 12.5151 6.50895 11.8696ZM15.7058 23.4922C15.3707 23.4908 15.0443 23.3849 14.7722 23.1891C14.5002 22.9933 14.2961 22.7174 14.1883 22.4001C14.1181 22.2009 14.0883 21.9898 14.1007 21.7789C14.1131 21.5681 14.1675 21.3619 14.2606 21.1724C14.3538 20.9829 14.4839 20.8139 14.6432 20.6753C14.8025 20.5367 14.9879 20.4313 15.1885 20.3653C15.8493 20.1626 16.4284 19.7547 16.8418 19.2007C17.2552 18.6467 17.4815 17.9755 17.4877 17.2843V6.93781C17.4877 6.51096 17.6573 6.10159 17.9591 5.79976C18.2609 5.49793 18.6703 5.32836 19.0972 5.32836C19.524 5.32836 19.9334 5.49793 20.2352 5.79976C20.5371 6.10159 20.7066 6.51096 20.7066 6.93781V17.2843C20.7038 18.6436 20.2738 19.9676 19.4776 21.0692C18.6813 22.1707 17.5589 22.9942 16.2691 23.4232C16.0775 23.4903 15.8732 23.5139 15.6713 23.4922H15.7058ZM20.6491 2.10945C20.6468 2.42352 20.552 2.72993 20.3765 2.9904C20.201 3.25088 19.9527 3.45387 19.6625 3.57401C19.3723 3.69415 19.0532 3.72611 18.7449 3.66591C18.4367 3.6057 18.153 3.456 17.9293 3.2355C17.7057 3.015 17.552 2.73348 17.4874 2.42612C17.4228 2.11876 17.4503 1.79918 17.5663 1.50732C17.6823 1.21546 17.8817 0.964265 18.1397 0.785109C18.3977 0.605954 18.7027 0.506787 19.0167 0.5C19.2275 0.499995 19.4363 0.541705 19.6309 0.622728C19.8255 0.70375 20.0022 0.822484 20.1507 0.972088C20.2992 1.12169 20.4167 1.29921 20.4963 1.49441C20.576 1.68961 20.6162 1.89864 20.6147 2.10945H20.6491Z" fill="black"/>
</svg>
