<svg width="24" height="24" viewBox="0 0 24 24" fill="none" xmlns="http://www.w3.org/2000/svg">
<path d="M22.7502 12H17.6762C16.2837 11.9634 14.9622 11.3778 13.9997 10.371C13.0372 9.36415 12.5116 8.01766 12.5377 6.625V1.25H7.25941C5.65032 1.27266 4.11549 1.93074 2.98973 3.08066C1.86397 4.23059 1.23864 5.77905 1.25016 7.38825V16.6118C1.2387 18.2265 1.86845 19.7798 3.00116 20.9306C4.13387 22.0815 5.67695 22.7358 7.29166 22.75H16.7732C18.3775 22.7217 19.9057 22.0608 21.0252 20.9112C22.1446 19.7616 22.7646 18.2163 22.7502 16.6118V12ZM7.79691 12.2903H11.1939C11.3958 12.3134 11.5822 12.41 11.7174 12.5616C11.8527 12.7133 11.9275 12.9094 11.9275 13.1126C11.9275 13.3159 11.8527 13.512 11.7174 13.6636C11.5822 13.8153 11.3958 13.9119 11.1939 13.935H7.79691C7.595 13.9119 7.40866 13.8153 7.27338 13.6636C7.1381 13.512 7.06333 13.3159 7.06333 13.1126C7.06333 12.9094 7.1381 12.7133 7.27338 12.5616C7.40866 12.41 7.595 12.3134 7.79691 12.2903ZM15.6014 18.3318H7.57116C7.37722 18.3002 7.20084 18.2007 7.07356 18.051C6.94627 17.9013 6.87638 17.7112 6.87638 17.5147C6.87638 17.3183 6.94627 17.1282 7.07356 16.9785C7.20084 16.8288 7.37722 16.7293 7.57116 16.6978H15.6014C15.8156 16.7396 16.0055 16.8624 16.1316 17.0405C16.2577 17.2187 16.3103 17.4386 16.2787 17.6545C16.2389 17.8132 16.1536 17.9567 16.0332 18.0675C15.9129 18.1783 15.7628 18.2515 15.6014 18.278V18.3318ZM22.7502 10.3015H17.6762C16.7238 10.2734 15.8205 9.87229 15.161 9.18462C14.5015 8.49695 14.1385 7.57774 14.1502 6.625C14.1551 6.57496 14.1551 6.52454 14.1502 6.4745V1.3145L22.7502 10.3015Z" fill="black"/>
</svg>
