<svg width="24" height="24" viewBox="0 0 24 24" fill="none" xmlns="http://www.w3.org/2000/svg">
<path fill-rule="evenodd" clip-rule="evenodd" d="M13.7 5.45C13.7 6.38888 12.9389 7.15 12 7.15C11.0611 7.15 10.3 6.38888 10.3 5.45C10.3 4.51112 11.0611 3.75 12 3.75C12.9389 3.75 13.7 4.51112 13.7 5.45ZM13.7 11.9996C13.7 12.9385 12.9389 13.6996 12 13.6996C11.0611 13.6996 10.3 12.9385 10.3 11.9996C10.3 11.0607 11.0611 10.2996 12 10.2996C12.9389 10.2996 13.7 11.0607 13.7 11.9996ZM12 20.25C12.9389 20.25 13.7 19.4889 13.7 18.55C13.7 17.6111 12.9389 16.85 12 16.85C11.0611 16.85 10.3 17.6111 10.3 18.55C10.3 19.4889 11.0611 20.25 12 20.25Z" fill="black"/>
</svg>
