<svg width="24" height="24" viewBox="0 0 24 24" fill="none" xmlns="http://www.w3.org/2000/svg">
<path d="M12.0111 1.00001C9.83456 0.99781 7.70629 1.64136 5.89565 2.84921C4.08501 4.05706 2.67339 5.77492 1.83945 7.78536C1.00551 9.7958 0.786743 12.0084 1.21083 14.1433C1.63491 16.2781 2.68278 18.2391 4.22183 19.7782C5.76088 21.3172 7.72191 22.3651 9.85673 22.7892C11.9916 23.2133 14.2042 22.9945 16.2146 22.1605C18.2251 21.3266 19.9429 19.915 21.1508 18.1044C22.3586 16.2937 23.0022 14.1654 23 11.9889C22.9971 9.07537 21.8384 6.28201 19.7782 4.22182C17.718 2.16164 14.9246 1.00294 12.0111 1.00001ZM7.00504 13.2987C6.73236 13.3009 6.46516 13.222 6.23736 13.0721C6.00956 12.9222 5.83142 12.7081 5.72554 12.4568C5.61966 12.2055 5.59082 11.9284 5.64266 11.6607C5.69451 11.3929 5.82472 11.1466 6.01676 10.953C6.2088 10.7594 6.45402 10.6272 6.72132 10.5732C6.98861 10.5192 7.26592 10.5458 7.51807 10.6497C7.77022 10.7535 7.98584 10.9299 8.13757 11.1565C8.28931 11.3831 8.37032 11.6496 8.37033 11.9223C8.3718 12.1025 8.33756 12.2813 8.26961 12.4482C8.20165 12.6151 8.10132 12.7669 7.97439 12.8949C7.84747 13.0228 7.69647 13.1244 7.53009 13.1937C7.36372 13.263 7.18527 13.2987 7.00504 13.2987ZM12.1332 13.2987C11.8605 13.3009 11.5933 13.222 11.3655 13.0721C11.1377 12.9222 10.9596 12.7081 10.8537 12.4568C10.7478 12.2055 10.719 11.9284 10.7708 11.6607C10.8227 11.3929 10.9529 11.1466 11.1449 10.953C11.337 10.7594 11.5822 10.6272 11.8495 10.5732C12.1168 10.5192 12.3941 10.5458 12.6462 10.6497C12.8984 10.7535 13.114 10.9299 13.2657 11.1565C13.4175 11.3831 13.4985 11.6496 13.4985 11.9223C13.4985 12.2854 13.355 12.6338 13.0993 12.8917C12.8436 13.1495 12.4963 13.2958 12.1332 13.2987ZM17.2613 13.2987C16.9906 13.2921 16.7279 13.2059 16.506 13.0507C16.284 12.8955 16.1128 12.6784 16.0137 12.4264C15.9146 12.1744 15.8921 11.8987 15.9489 11.634C16.0057 11.3692 16.1393 11.1271 16.3331 10.9379C16.5268 10.7487 16.7721 10.6209 17.0381 10.5704C17.3042 10.52 17.5792 10.5491 17.8288 10.6542C18.0783 10.7593 18.2914 10.9356 18.4412 11.1612C18.591 11.3868 18.671 11.6515 18.671 11.9223C18.6711 12.1059 18.6344 12.2876 18.5632 12.4568C18.4919 12.626 18.3876 12.7793 18.2562 12.9075C18.1248 13.0358 17.9692 13.1365 17.7983 13.2036C17.6274 13.2708 17.4449 13.3031 17.2613 13.2987Z" fill="black"/>
</svg>
