<svg width="24" height="24" viewBox="0 0 24 24" fill="none" xmlns="http://www.w3.org/2000/svg">
<path d="M11.9447 1C9.77011 1.01094 7.64752 1.6662 5.84515 2.883C4.04278 4.0998 2.64151 5.82353 1.8184 7.83639C0.995289 9.84926 0.787271 12.0609 1.22063 14.192C1.65399 16.323 2.70927 18.2778 4.25315 19.8093C5.79703 21.3409 7.76022 22.3804 9.89467 22.7966C12.0291 23.2129 14.2391 22.9871 16.2453 22.1478C18.2514 21.3086 19.9639 19.8935 21.1661 18.0814C22.3684 16.2693 23.0066 14.1415 23.0001 11.9669C22.9768 9.05019 21.8017 6.26089 19.7309 4.2067C17.6602 2.15251 14.8615 0.999907 11.9447 1ZM12.0111 18.6001C11.7399 18.6001 11.4749 18.5197 11.2495 18.3691C11.024 18.2184 10.8483 18.0043 10.7446 17.7539C10.6408 17.5034 10.6137 17.2277 10.6666 16.9618C10.7194 16.6959 10.85 16.4516 11.0417 16.2599C11.2334 16.0682 11.4777 15.9376 11.7436 15.8847C12.0096 15.8318 12.2852 15.859 12.5357 15.9627C12.7862 16.0665 13.0003 16.2422 13.1509 16.4676C13.3015 16.6931 13.3819 16.9581 13.3819 17.2292C13.3819 17.5928 13.2375 17.9415 12.9804 18.1986C12.7233 18.4557 12.3747 18.6001 12.0111 18.6001ZM12.0111 13.4594C11.7395 13.4594 11.474 13.3787 11.2483 13.2275C11.0227 13.0764 10.847 12.8617 10.7435 12.6105C10.6401 12.3594 10.6136 12.0832 10.6674 11.817C10.7212 11.5508 10.8529 11.3065 11.0457 11.1152C11.2385 10.924 11.4838 10.7943 11.7505 10.7427C12.0171 10.691 12.2931 10.7197 12.5434 10.8252C12.7937 10.9307 13.007 11.1081 13.1563 11.335C13.3056 11.5619 13.3841 11.828 13.3819 12.0996C13.3849 12.2809 13.3515 12.461 13.2838 12.6293C13.2161 12.7976 13.1154 12.9506 12.9877 13.0794C12.86 13.2082 12.7077 13.3101 12.54 13.3791C12.3723 13.4482 12.1925 13.483 12.0111 13.4815V13.4594ZM12.0111 8.32969C11.6475 8.32969 11.2988 8.18526 11.0417 7.92818C10.7846 7.67109 10.6402 7.32241 10.6402 6.95883C10.6402 6.59525 10.7846 6.24657 11.0417 5.98948C11.2988 5.7324 11.6475 5.58797 12.0111 5.58797C12.3747 5.58797 12.7233 5.7324 12.9804 5.98948C13.2375 6.24657 13.3819 6.59525 13.3819 6.95883C13.3819 7.32241 13.2375 7.67109 12.9804 7.92818C12.7233 8.18526 12.3747 8.32969 12.0111 8.32969Z" fill="black"/>
</svg>
