<svg width="24" height="24" viewBox="0 0 24 24" fill="none" xmlns="http://www.w3.org/2000/svg">
<path d="M2.77717 9.69922L10.1301 5.27153C10.4291 5.09305 10.7677 4.99942 11.1123 5C11.4568 5.00059 11.7952 5.09536 12.0935 5.27487C12.3919 5.45437 12.6399 5.71231 12.8126 6.02292C12.9854 6.33353 13.0769 6.68593 13.078 7.04493V16.9551C13.0769 17.3141 12.9854 17.6665 12.8126 17.9771C12.6399 18.2877 12.3919 18.5456 12.0935 18.7251C11.7952 18.9046 11.4568 18.9994 11.1123 19C10.7677 19.0006 10.4291 18.907 10.1301 18.7285L2.77717 14.3008C2.38898 14.0681 2.06652 13.7329 1.84229 13.329C1.61806 12.925 1.5 12.4666 1.5 12C1.5 11.5334 1.61806 11.075 1.84229 10.671C2.06652 10.2671 2.38898 9.9319 2.77717 9.69922ZM19.5521 5.27153L14.7466 8.15765V15.8424L19.5521 18.7285C19.8511 18.907 20.1897 19.0006 20.5343 19C20.8788 18.9994 21.2172 18.9046 21.5155 18.7251C21.8139 18.5456 22.0619 18.2877 22.2346 17.9771C22.4074 17.6665 22.4989 17.3141 22.5 16.9551V7.04493C22.4989 6.68593 22.4074 6.33353 22.2346 6.02292C22.0619 5.71231 21.8139 5.45437 21.5155 5.27487C21.2172 5.09536 20.8788 5.00059 20.5343 5C20.1897 4.99942 19.8511 5.09305 19.5521 5.27153Z" fill="black"/>
</svg>
