<svg width="24" height="24" viewBox="0 0 24 24" fill="none" xmlns="http://www.w3.org/2000/svg">
<path d="M12 1C9.82441 1 7.69767 1.64514 5.88873 2.85383C4.07979 4.06253 2.66989 5.78049 1.83733 7.79048C1.00477 9.80047 0.786929 12.0122 1.21137 14.146C1.6358 16.2798 2.68345 18.2398 4.22183 19.7782C5.76021 21.3165 7.72022 22.3642 9.85401 22.7886C11.9878 23.2131 14.1995 22.9952 16.2095 22.1627C18.2195 21.3301 19.9375 19.9202 21.1462 18.1113C22.3549 16.3023 23 14.1756 23 12C23 10.5555 22.7155 9.12506 22.1627 7.79048C21.6099 6.4559 20.7996 5.24327 19.7782 4.22182C18.7567 3.20038 17.5441 2.39013 16.2095 1.83733C14.8749 1.28452 13.4445 1 12 1ZM8.843 10.57C9.00956 10.4051 9.22921 10.3047 9.46285 10.2866C9.6965 10.2685 9.92901 10.3338 10.119 10.471L8.733 11.868C8.59558 11.6733 8.53127 11.4364 8.55139 11.1989C8.57152 10.9615 8.67478 10.7388 8.843 10.57ZM8.337 16.268C8.06872 16.2677 7.81155 16.1609 7.622 15.971L3.552 11.868C3.3881 11.6719 3.30351 11.4216 3.3149 11.1663C3.32628 10.911 3.4328 10.6692 3.61351 10.4885C3.79422 10.3078 4.03601 10.2013 4.29131 10.1899C4.54662 10.1785 4.79693 10.2631 4.993 10.427L8.293 13.727L13.683 8.337C13.8741 8.14737 14.1327 8.04142 14.4019 8.04245C14.6711 8.04348 14.9289 8.15141 15.1185 8.3425C15.3081 8.53359 15.4141 8.79218 15.4131 9.06139C15.412 9.3306 15.3041 9.58837 15.113 9.778L9.063 15.96C8.96839 16.0568 8.8555 16.1339 8.73088 16.1868C8.60625 16.2396 8.47238 16.2672 8.337 16.268ZM14.343 16.092C14.1533 16.2814 13.8961 16.3878 13.628 16.3878C13.3599 16.3878 13.1027 16.2814 12.913 16.092L11.703 14.882L13.144 13.441L13.628 13.936L19.007 8.568C19.0981 8.45904 19.2109 8.37024 19.3381 8.30725C19.4654 8.24426 19.6044 8.20846 19.7463 8.20214C19.8882 8.19581 20.0298 8.2191 20.1622 8.27051C20.2946 8.32192 20.4148 8.40033 20.5152 8.50075C20.6157 8.60117 20.6941 8.7214 20.7455 8.85379C20.7969 8.98617 20.8202 9.12781 20.8139 9.26969C20.8075 9.41156 20.7717 9.55057 20.7087 9.67785C20.6458 9.80514 20.557 9.91791 20.448 10.009L14.343 16.092Z" fill="black"/>
</svg>
