<svg width="24" height="24" viewBox="0 0 24 24" fill="none" xmlns="http://www.w3.org/2000/svg">
<path fill-rule="evenodd" clip-rule="evenodd" d="M4.1364 19.8865C3.78493 20.238 3.21508 20.238 2.86361 19.8865C2.51214 19.535 2.51214 18.9652 2.86361 18.6137L11.3636 10.1137C11.7151 9.76222 12.2849 9.76222 12.6364 10.1137L21.1364 18.6137C21.4879 18.9652 21.4879 19.535 21.1364 19.8865C20.7849 20.238 20.2151 20.238 19.8636 19.8865L12 12.0229L4.1364 19.8865ZM4.1364 13.8865C3.78493 14.238 3.21508 14.238 2.86361 13.8865C2.51214 13.535 2.51214 12.9652 2.86361 12.6137L11.3636 4.11369C11.7151 3.76222 12.2849 3.76222 12.6364 4.11369L21.1364 12.6137C21.4879 12.9652 21.4879 13.535 21.1364 13.8865C20.7849 14.238 20.2151 14.238 19.8636 13.8865L12 6.02288L4.1364 13.8865Z" fill="black"/>
</svg>
