<svg width="24" height="24" viewBox="0 0 24 24" fill="none" xmlns="http://www.w3.org/2000/svg">
<path d="M21.2235 14.2986L13.8744 18.722C13.5754 18.9032 13.2357 18.9991 12.8897 19C12.5438 19.0009 12.2037 18.9067 11.9037 18.7271C11.6038 18.5474 11.3547 18.2885 11.1815 17.9766C11.0082 17.6647 10.917 17.3107 10.917 16.9503V7.04965C10.917 6.6893 11.0082 6.33531 11.1815 6.02338C11.3547 5.71145 11.6038 5.4526 11.9037 5.27294C12.2037 5.09327 12.5438 4.99913 12.8897 5.00001C13.2357 5.00089 13.5754 5.09676 13.8744 5.27795L21.2235 9.70142C21.6115 9.93388 21.9338 10.2688 22.1579 10.6723C22.382 11.0759 22.5 11.5338 22.5 12C22.5 12.4662 22.382 12.9241 22.1579 13.3277C21.9338 13.7312 21.6115 14.0661 21.2235 14.2986ZM9.24931 8.16131L4.45741 5.27795C4.15835 5.09676 3.8187 5.00089 3.47271 5.00001C3.12673 4.99913 2.78663 5.09327 2.48672 5.27294C2.18681 5.4526 1.93767 5.71145 1.76444 6.02338C1.59121 6.33531 1.49999 6.6893 1.5 7.04965V16.9503C1.49999 17.3107 1.59121 17.6647 1.76444 17.9766C1.93767 18.2885 2.18681 18.5474 2.48672 18.7271C2.78663 18.9067 3.12673 19.0009 3.47271 19C3.8187 18.9991 4.15835 18.9032 4.45741 18.722L9.24931 15.8387V8.16131Z" fill="black"/>
</svg>
