<svg width="24" height="24" viewBox="0 0 24 24" fill="none" xmlns="http://www.w3.org/2000/svg">
<path fill-rule="evenodd" clip-rule="evenodd" d="M4.13639 4.11358C3.78492 3.76211 3.21507 3.76211 2.8636 4.11358C2.51213 4.46505 2.51213 5.0349 2.8636 5.38637L11.3636 13.8864C11.7151 14.2378 12.2849 14.2378 12.6364 13.8864L21.1364 5.38637C21.4879 5.0349 21.4879 4.46505 21.1364 4.11358C20.7849 3.76211 20.2151 3.76211 19.8636 4.11358L12 11.9772L4.13639 4.11358ZM4.13639 10.1136C3.78492 9.76211 3.21507 9.76211 2.8636 10.1136C2.51213 10.4651 2.51213 11.0349 2.8636 11.3864L11.3636 19.8864C11.7151 20.2378 12.2849 20.2378 12.6364 19.8864L21.1364 11.3864C21.4879 11.0349 21.4879 10.4651 21.1364 10.1136C20.7849 9.76211 20.2151 9.76211 19.8636 10.1136L12 17.9772L4.13639 10.1136Z" fill="black"/>
</svg>
