<svg width="24" height="24" viewBox="0 0 24 24" fill="none" xmlns="http://www.w3.org/2000/svg">
<path d="M1.25 7.8075V16.1925C1.25284 17.9308 1.94463 19.5971 3.17379 20.8262C4.40294 22.0554 6.06922 22.7472 7.8075 22.75H16.1925C17.9308 22.7472 19.5971 22.0554 20.8262 20.8262C22.0554 19.5971 22.7472 17.9308 22.75 16.1925V7.8075C22.7472 6.06922 22.0554 4.40294 20.8262 3.17379C19.5971 1.94463 17.9308 1.25284 16.1925 1.25H7.8075C6.06922 1.25284 4.40294 1.94463 3.17379 3.17379C1.94463 4.40294 1.25284 6.06922 1.25 7.8075ZM14.881 10.2585C15.0683 10.0727 15.3213 9.96847 15.5851 9.96847C15.8489 9.96847 16.102 10.0727 16.2893 10.2585C16.4689 10.4467 16.569 10.697 16.5688 10.9573C16.5593 11.228 16.448 11.4853 16.257 11.6775L12.6128 15.225C12.5183 15.3148 12.407 15.3848 12.2851 15.431C12.1633 15.4771 12.0335 15.4985 11.9033 15.4938C11.7723 15.4947 11.6426 15.4684 11.5223 15.4166C11.402 15.3648 11.2938 15.2886 11.2045 15.1928L7.7 11.5163C7.54334 11.3211 7.46558 11.0743 7.48208 10.8245C7.49857 10.5748 7.60813 10.3404 7.78909 10.1675C7.97006 9.99464 8.20928 9.89594 8.45949 9.89089C8.7097 9.88585 8.95271 9.97482 9.1405 10.1403L12 13.075L14.881 10.2585Z" fill="black"/>
</svg>
