<svg width="24" height="24" viewBox="0 0 24 24" fill="none" xmlns="http://www.w3.org/2000/svg">
<path d="M6.03994 18.4079C5.95821 18.5073 5.85185 18.5849 5.73082 18.6334C5.60978 18.682 5.47803 18.7 5.34789 18.6857C5.21775 18.6714 5.09347 18.6253 4.98669 18.5517C4.87991 18.4781 4.79411 18.3794 4.73733 18.2648C4.2536 17.2348 4.00221 16.1164 4 14.9844C4 11.7756 8.4854 5.00016 10.7465 1.86293C10.8864 1.67331 11.0709 1.51879 11.2846 1.4122C11.4983 1.3056 11.7351 1.25 11.9754 1.25C12.2157 1.25 12.4525 1.3056 12.6662 1.4122C12.8799 1.51879 13.0644 1.67331 13.2043 1.86293C13.9539 2.92458 14.9616 4.3918 15.957 5.9783C16.0501 6.10549 16.1002 6.25766 16.1002 6.4137C16.1002 6.56974 16.0501 6.72191 15.957 6.84909L6.03994 18.4079ZM7.02304 20.0779C6.95619 20.1574 6.9068 20.2492 6.8779 20.3479C6.84901 20.4466 6.84124 20.5499 6.85505 20.6516C6.86887 20.7533 6.90398 20.8512 6.95823 20.9392C7.01248 21.0272 7.08472 21.1035 7.1705 21.1634C8.55418 22.1982 10.2533 22.7563 12 22.7499C13.051 22.7515 14.092 22.5517 15.0634 22.162C16.0347 21.7723 16.9173 21.2004 17.6605 20.479C18.4036 19.7576 18.9929 18.9009 19.3943 17.958C19.7958 17.0151 20.0016 16.0046 20 14.9844C19.7108 12.8709 18.97 10.8394 17.8249 9.0201C17.7636 8.92011 17.6793 8.83529 17.5785 8.77233C17.4777 8.70936 17.3633 8.66997 17.2441 8.65725C17.125 8.64453 17.0044 8.65883 16.892 8.69902C16.7795 8.73922 16.6782 8.80421 16.596 8.88889L7.02304 20.0779Z" fill="black"/>
</svg>
