<svg width="24" height="24" viewBox="0 0 24 24" fill="none" xmlns="http://www.w3.org/2000/svg">
<path d="M22.1631 11.5166C22.2946 11.6112 22.4018 11.7357 22.4757 11.8799C22.5495 12.0241 22.5881 12.1838 22.5881 12.3458C22.5881 12.5078 22.5495 12.6674 22.4757 12.8116C22.4018 12.9558 22.2946 13.0803 22.1631 13.1749L17.1335 16.9416L12.005 13.3176L18.3744 8.84806L22.1631 11.5166ZM7.52438 1.19375C7.35023 1.0678 7.14079 1 6.92587 1C6.71095 1 6.50151 1.0678 6.32737 1.19375L1.82483 4.48828C1.69324 4.58406 1.58616 4.7096 1.51234 4.85465C1.43851 4.9997 1.40002 5.16014 1.40002 5.3229C1.40002 5.48566 1.43851 5.64611 1.51234 5.79115C1.58616 5.9362 1.69324 6.06174 1.82483 6.15752L5.63551 8.84806L12.005 4.3565L7.52438 1.19375ZM1.84679 11.5166C1.71528 11.6112 1.60815 11.7357 1.53426 11.8799C1.46036 12.0241 1.42182 12.1838 1.42182 12.3458C1.42182 12.5078 1.46036 12.6674 1.53426 12.8116C1.60815 12.9558 1.71528 13.0803 1.84679 13.1749L6.87646 16.9416L12.005 13.3176L5.63551 8.84806L1.84679 11.5166ZM13.4326 14.328L15.5631 15.8215L13.4326 14.328ZM18.1328 18.2595L17.1774 18.9733L16.2 18.2814L12.005 15.3383L7.80991 18.2814L6.83253 18.9733L5.87711 18.2595L3.91137 16.7879V17.4797C3.91717 17.8313 4.01312 18.1754 4.19002 18.4792C4.36692 18.783 4.61885 19.0363 4.9217 19.2149L11.0276 22.729C11.3327 22.9065 11.6794 23 12.0324 23C12.3854 23 12.7321 22.9065 13.0372 22.729L19.1321 19.2149C19.4366 19.0391 19.6893 18.7861 19.8648 18.4815C20.0402 18.1768 20.1322 17.8313 20.1315 17.4797V16.8208L18.1328 18.2595ZM3.85646 14.7233L6.81056 16.9197L3.85646 14.7233ZM20.0766 14.7233L17.1115 16.9197L20.0766 14.7233ZM22.1192 6.17948C22.2508 6.0837 22.3579 5.95817 22.4317 5.81312C22.5055 5.66807 22.544 5.50762 22.544 5.34486C22.544 5.18211 22.5055 5.02166 22.4317 4.87661C22.3579 4.73156 22.2508 4.60603 22.1192 4.51025L17.6166 1.21571C17.4425 1.08976 17.2331 1.02196 17.0181 1.02196C16.8032 1.02196 16.5938 1.08976 16.4196 1.21571L12.005 4.3565L18.3744 8.84806L22.1192 6.17948Z" fill="black"/>
</svg>
