<svg width="24" height="24" viewBox="0 0 24 24" fill="none" xmlns="http://www.w3.org/2000/svg">
<path d="M18.1307 20.9411C18.1901 21.0268 18.2306 21.124 18.2498 21.2265C18.2689 21.3289 18.2663 21.4343 18.2419 21.5356C18.2176 21.6369 18.1722 21.732 18.1086 21.8146C18.045 21.8972 17.9648 21.9655 17.873 22.0149C16.7827 22.6616 15.5924 23.1225 14.3508 23.3787C14.1818 23.4173 14.0087 23.4354 13.8354 23.4324C13.2489 23.4339 12.6799 23.2329 12.2246 22.8632C11.9289 22.6212 11.6907 22.3164 11.5272 21.971C11.3638 21.6255 11.2792 21.2481 11.2796 20.8659V16.1732C10.5426 16.0141 9.88211 15.6079 9.40753 15.022C8.93295 14.4361 8.67281 13.7057 8.6702 12.9517V10.4604H8.46617C8.25986 10.459 8.05588 10.4166 7.86609 10.3357C7.67629 10.2548 7.50446 10.137 7.36059 9.98917C7.21671 9.8413 7.10366 9.66631 7.02799 9.47437C6.95233 9.28243 6.91557 9.07736 6.91984 8.87109C6.91555 8.66533 6.95238 8.46078 7.02817 8.26944C7.10396 8.0781 7.21718 7.90381 7.3612 7.75679C7.50522 7.60977 7.67714 7.49298 7.86688 7.41326C8.05662 7.33354 8.26037 7.2925 8.46617 7.29255H15.5643C15.7696 7.29247 15.9728 7.33356 16.162 7.41341C16.3512 7.49325 16.5224 7.61022 16.6656 7.75739C16.8087 7.90456 16.9209 8.07895 16.9955 8.27025C17.0701 8.46154 17.1056 8.66585 17.0999 8.87109C17.0999 9.27935 16.9384 9.67105 16.6508 9.96074C16.3631 10.2504 15.9725 10.4146 15.5643 10.4174H15.3602V12.9517C15.3576 13.7057 15.0975 14.4361 14.6229 15.022C14.1483 15.6079 13.4878 16.0141 12.7508 16.1732V20.8122C12.7499 20.9753 12.7862 21.1365 12.8569 21.2835C12.9276 21.4305 13.0309 21.5594 13.1589 21.6605C13.2824 21.7599 13.4263 21.8307 13.5804 21.8678C13.7345 21.905 13.8949 21.9075 14.0501 21.8753C15.1331 21.6519 16.1712 21.249 17.1213 20.6833C17.2896 20.5848 17.49 20.5566 17.679 20.6049C17.868 20.6531 18.0303 20.7739 18.1307 20.9411ZM19.6771 3.50189C18.4722 2.41461 17.0489 1.5973 15.5025 1.10467C13.9561 0.612052 12.3223 0.455489 10.7105 0.645467C9.51725 0.7749 8.35301 1.09769 7.26347 1.60119C7.17002 1.63858 7.08517 1.69463 7.01409 1.76591C6.94302 1.83718 6.88721 1.92219 6.85008 2.01575C6.81295 2.1093 6.79526 2.20944 6.79811 2.31006C6.80096 2.41067 6.82428 2.50966 6.86664 2.60096C6.90901 2.69227 6.96953 2.77398 7.04453 2.84113C7.11952 2.90827 7.2074 2.95942 7.30282 2.99148C7.39824 3.02353 7.49918 3.0358 7.5995 3.02755C7.69982 3.0193 7.7974 2.9907 7.8863 2.94349C8.82866 2.50423 9.83752 2.2248 10.8716 2.11663C12.2762 1.94896 13.7004 2.08355 15.0487 2.51138C16.397 2.93921 17.6382 3.65038 18.6891 4.5972C19.7403 5.54191 20.5802 6.69789 21.1538 7.98952C21.7275 9.28115 22.022 10.6793 22.0181 12.0926C22.0117 13.6277 21.6439 15.1397 20.9442 16.5061C20.8615 16.6847 20.8511 16.8884 20.9151 17.0746C20.9792 17.2607 21.1127 17.4149 21.2878 17.5048C21.3878 17.5549 21.4982 17.5807 21.61 17.5799C21.7494 17.581 21.8861 17.5421 22.0041 17.4678C22.1221 17.3936 22.2163 17.2872 22.2758 17.1611C23.0735 15.5902 23.4927 13.8545 23.5 12.0926C23.5046 10.4721 23.1664 8.86887 22.5075 7.38829C21.8487 5.90772 20.8841 4.58326 19.6771 3.50189ZM7.31716 19.8243C7.311 20.2343 7.21021 20.6374 7.02266 21.0022C6.83511 21.3669 6.56585 21.6833 6.23589 21.9269C5.90593 22.1705 5.52418 22.3345 5.12039 22.4063C4.71661 22.4781 4.3017 22.4556 3.90802 22.3407C3.51434 22.2257 3.15252 22.0214 2.85077 21.7437C2.54903 21.466 2.3155 21.1223 2.1684 20.7394C2.02131 20.3566 1.96462 19.945 2.00275 19.5367C2.04088 19.1283 2.1728 18.7343 2.38823 18.3853C0.930887 16.1653 0.285944 13.5096 0.562701 10.8684C0.72894 9.25994 1.24184 7.70658 2.06608 6.31535C2.10923 6.2207 2.17182 6.1362 2.24979 6.06734C2.32776 5.99848 2.41935 5.94681 2.51861 5.91569C2.61786 5.88457 2.72256 5.87469 2.82589 5.88671C2.92921 5.89873 3.02885 5.93237 3.11831 5.98544C3.20778 6.03852 3.28506 6.10983 3.34514 6.19475C3.40522 6.27966 3.44675 6.37628 3.46702 6.47831C3.48729 6.58033 3.48585 6.68549 3.4628 6.78692C3.43975 6.88835 3.39559 6.9838 3.33321 7.06704C2.634 8.27891 2.20197 9.62627 2.06608 11.0188C1.81912 13.2736 2.34542 15.5453 3.55872 17.4618C3.96299 17.2732 4.40844 17.1901 4.85353 17.2201C5.29862 17.2501 5.72885 17.3924 6.1041 17.6336C6.47935 17.8749 6.7874 18.2072 6.99952 18.5997C7.21164 18.9921 7.32092 19.4319 7.31716 19.878V19.8243ZM5.83526 19.8243C5.83526 19.5907 5.76598 19.3623 5.63619 19.168C5.50639 18.9738 5.32191 18.8224 5.10607 18.733C4.89023 18.6436 4.65273 18.6202 4.42359 18.6657C4.19446 18.7113 3.98398 18.8238 3.81878 18.989C3.65359 19.1542 3.54109 19.3647 3.49551 19.5938C3.44993 19.823 3.47332 20.0605 3.56273 20.2763C3.65213 20.4922 3.80353 20.6766 3.99778 20.8064C4.19203 20.9362 4.42041 21.0055 4.65404 21.0055C4.96732 21.0055 5.26777 20.8811 5.48929 20.6595C5.71081 20.438 5.83526 20.1376 5.83526 19.8243ZM10.1306 7.24959V4.17841C10.1306 4.0811 10.1115 3.98475 10.0742 3.89486C10.037 3.80496 9.98241 3.72328 9.91361 3.65447C9.84481 3.58567 9.76312 3.53109 9.67323 3.49386C9.58333 3.45662 9.48698 3.43745 9.38968 3.43745C9.29238 3.43745 9.19602 3.45662 9.10613 3.49386C9.01623 3.53109 8.93455 3.58567 8.86575 3.65447C8.79694 3.72328 8.74236 3.80496 8.70513 3.89486C8.66789 3.98475 8.64873 4.0811 8.64873 4.17841V7.24959H10.1092C10.1092 7.24959 10.1092 7.27107 10.1092 7.24959H10.1306ZM15.4998 7.24959V4.18914C15.4998 3.99263 15.4218 3.80417 15.2828 3.66521C15.1439 3.52626 14.9554 3.44819 14.7589 3.44819C14.5624 3.44819 14.3739 3.52626 14.235 3.66521C14.096 3.80417 14.0179 3.99263 14.0179 4.18914V7.26033H15.4891C15.4891 7.26033 15.4998 7.27107 15.4998 7.26033V7.24959ZM20.01 18.5357C19.8668 18.5335 19.7262 18.5742 19.6063 18.6524C19.4863 18.7307 19.3924 18.8429 19.3367 18.9748C19.2809 19.1067 19.2657 19.2523 19.2931 19.3928C19.3206 19.5334 19.3893 19.6625 19.4906 19.7638C19.5918 19.8651 19.721 19.9338 19.8616 19.9612C20.0021 19.9886 20.1477 19.9735 20.2796 19.9177C20.4115 19.8619 20.5237 19.7681 20.6019 19.6481C20.6802 19.5282 20.7208 19.3876 20.7187 19.2444C20.7187 19.0564 20.644 18.8762 20.5111 18.7432C20.3782 18.6103 20.1979 18.5357 20.01 18.5357ZM4.96545 4.89788C5.10864 4.9 5.24921 4.85934 5.36916 4.78111C5.4891 4.70288 5.58298 4.59063 5.63876 4.45873C5.69454 4.32684 5.70969 4.18129 5.68227 4.04074C5.65486 3.90018 5.58612 3.771 5.48485 3.66974C5.38359 3.56848 5.25442 3.49974 5.11386 3.47232C4.9733 3.4449 4.82776 3.46005 4.69586 3.51584C4.56397 3.57162 4.45172 3.66549 4.37349 3.78544C4.29525 3.90539 4.25459 4.04595 4.25672 4.18914C4.25949 4.37625 4.33505 4.55491 4.46737 4.68723C4.59968 4.81955 4.77835 4.89511 4.96545 4.89788Z" fill="black"/>
</svg>
