<svg width="24" height="24" viewBox="0 0 24 24" fill="none" xmlns="http://www.w3.org/2000/svg">
<path d="M6.21053 7.26316H3.05263C2.77346 7.26316 2.50572 7.15226 2.30831 6.95485C2.1109 6.75744 2 6.4897 2 6.21053V3.05263C2 2.77346 2.1109 2.50572 2.30831 2.30831C2.50572 2.1109 2.77346 2 3.05263 2H6.21053C6.4897 2 6.75744 2.1109 6.95485 2.30831C7.15226 2.50572 7.26316 2.77346 7.26316 3.05263V6.21053C7.26316 6.4897 7.15226 6.75744 6.95485 6.95485C6.75744 7.15226 6.4897 7.26316 6.21053 7.26316ZM14.6316 6.21053V3.05263C14.6316 2.77346 14.5207 2.50572 14.3233 2.30831C14.1259 2.1109 13.8581 2 13.5789 2H10.4211C10.1419 2 9.87414 2.1109 9.67673 2.30831C9.47932 2.50572 9.36842 2.77346 9.36842 3.05263V6.21053C9.36842 6.4897 9.47932 6.75744 9.67673 6.95485C9.87414 7.15226 10.1419 7.26316 10.4211 7.26316H13.5789C13.8581 7.26316 14.1259 7.15226 14.3233 6.95485C14.5207 6.75744 14.6316 6.4897 14.6316 6.21053ZM20.9474 7.26316H17.7895C17.5103 7.26316 17.2426 7.15226 17.0452 6.95485C16.8477 6.75744 16.7368 6.4897 16.7368 6.21053V3.05263C16.7368 2.77346 16.8477 2.50572 17.0452 2.30831C17.2426 2.1109 17.5103 2 17.7895 2H20.9474C21.2265 2 21.4943 2.1109 21.6917 2.30831C21.8891 2.50572 22 2.77346 22 3.05263V6.21053C22 6.4897 21.8891 6.75744 21.6917 6.95485C21.4943 7.15226 21.2265 7.26316 20.9474 7.26316ZM6.21053 14.6316H3.05263C2.77346 14.6316 2.50572 14.5207 2.30831 14.3233C2.1109 14.1259 2 13.8581 2 13.5789V10.4211C2 10.1419 2.1109 9.87414 2.30831 9.67673C2.50572 9.47932 2.77346 9.36842 3.05263 9.36842H6.21053C6.4897 9.36842 6.75744 9.47932 6.95485 9.67673C7.15226 9.87414 7.26316 10.1419 7.26316 10.4211V13.5789C7.26316 13.8581 7.15226 14.1259 6.95485 14.3233C6.75744 14.5207 6.4897 14.6316 6.21053 14.6316ZM13.5789 14.6316H10.4211C10.1419 14.6316 9.87414 14.5207 9.67673 14.3233C9.47932 14.1259 9.36842 13.8581 9.36842 13.5789V10.4211C9.36842 10.1419 9.47932 9.87414 9.67673 9.67673C9.87414 9.47932 10.1419 9.36842 10.4211 9.36842H13.5789C13.8581 9.36842 14.1259 9.47932 14.3233 9.67673C14.5207 9.87414 14.6316 10.1419 14.6316 10.4211V13.5789C14.6316 13.8581 14.5207 14.1259 14.3233 14.3233C14.1259 14.5207 13.8581 14.6316 13.5789 14.6316ZM20.9474 14.6316H17.7895C17.5103 14.6316 17.2426 14.5207 17.0452 14.3233C16.8477 14.1259 16.7368 13.8581 16.7368 13.5789V10.4211C16.7368 10.1419 16.8477 9.87414 17.0452 9.67673C17.2426 9.47932 17.5103 9.36842 17.7895 9.36842H20.9474C21.2265 9.36842 21.4943 9.47932 21.6917 9.67673C21.8891 9.87414 22 10.1419 22 10.4211V13.5789C22 13.8581 21.8891 14.1259 21.6917 14.3233C21.4943 14.5207 21.2265 14.6316 20.9474 14.6316ZM6.21053 22H3.05263C2.77346 22 2.50572 21.8891 2.30831 21.6917C2.1109 21.4943 2 21.2265 2 20.9474V17.7895C2 17.5103 2.1109 17.2426 2.30831 17.0452C2.50572 16.8477 2.77346 16.7368 3.05263 16.7368H6.21053C6.4897 16.7368 6.75744 16.8477 6.95485 17.0452C7.15226 17.2426 7.26316 17.5103 7.26316 17.7895V20.9474C7.26316 21.2265 7.15226 21.4943 6.95485 21.6917C6.75744 21.8891 6.4897 22 6.21053 22ZM13.5789 22H10.4211C10.1419 22 9.87414 21.8891 9.67673 21.6917C9.47932 21.4943 9.36842 21.2265 9.36842 20.9474V17.7895C9.36842 17.5103 9.47932 17.2426 9.67673 17.0452C9.87414 16.8477 10.1419 16.7368 10.4211 16.7368H13.5789C13.8581 16.7368 14.1259 16.8477 14.3233 17.0452C14.5207 17.2426 14.6316 17.5103 14.6316 17.7895V20.9474C14.6316 21.2265 14.5207 21.4943 14.3233 21.6917C14.1259 21.8891 13.8581 22 13.5789 22ZM20.9474 22H17.7895C17.5103 22 17.2426 21.8891 17.0452 21.6917C16.8477 21.4943 16.7368 21.2265 16.7368 20.9474V17.7895C16.7368 17.5103 16.8477 17.2426 17.0452 17.0452C17.2426 16.8477 17.5103 16.7368 17.7895 16.7368H20.9474C21.2265 16.7368 21.4943 16.8477 21.6917 17.0452C21.8891 17.2426 22 17.5103 22 17.7895V20.9474C22 21.2265 21.8891 21.4943 21.6917 21.6917C21.4943 21.8891 21.2265 22 20.9474 22Z" fill="black"/>
</svg>
