<svg width="24" height="24" viewBox="0 0 24 24" fill="none" xmlns="http://www.w3.org/2000/svg">
<path d="M20.1985 13.05H14.833C14.3548 13.0363 13.9008 12.8367 13.5675 12.4936C13.2341 12.1505 13.0478 11.6909 13.048 11.2125V3.3375C13.0478 2.85913 13.2341 2.39953 13.5675 2.05641C13.9008 1.71328 14.3548 1.51367 14.833 1.5H20.1985C20.6858 1.5 21.1532 1.69359 21.4978 2.03819C21.8424 2.38279 22.036 2.85016 22.036 3.3375V11.2125C22.036 11.6998 21.8424 12.1672 21.4978 12.5118C21.1532 12.8564 20.6858 13.05 20.1985 13.05ZM22.036 20.6625V16.9875C22.036 16.5002 21.8424 16.0328 21.4978 15.6882C21.1532 15.3436 20.6858 15.15 20.1985 15.15H14.9485C14.4611 15.15 13.9937 15.3436 13.6492 15.6882C13.3046 16.0328 13.111 16.5002 13.111 16.9875V20.6625C13.111 21.1498 13.3046 21.6172 13.6492 21.9618C13.9937 22.3064 14.4611 22.5 14.9485 22.5H20.1985C20.6858 22.5 21.1532 22.3064 21.4978 21.9618C21.8424 21.6172 22.036 21.1498 22.036 20.6625ZM10.885 20.6625V3.3375C10.885 2.85016 10.6914 2.38279 10.3468 2.03819C10.0022 1.69359 9.5348 1.5 9.04746 1.5H3.79746C3.31013 1.5 2.84275 1.69359 2.49815 2.03819C2.15355 2.38279 1.95996 2.85016 1.95996 3.3375V20.6625C1.95996 21.1498 2.15355 21.6172 2.49815 21.9618C2.66878 22.1324 2.87134 22.2678 3.09428 22.3601C3.31722 22.4525 3.55616 22.5 3.79746 22.5H9.04746C9.5348 22.5 10.0022 22.3064 10.3468 21.9618C10.6914 21.6172 10.885 21.1498 10.885 20.6625Z" fill="black"/>
</svg>
