<svg width="24" height="24" viewBox="0 0 24 24" fill="none" xmlns="http://www.w3.org/2000/svg">
<path d="M11.2125 21.45H4.3875C3.62169 21.45 2.88724 21.1458 2.34573 20.6043C1.80422 20.0627 1.5 19.3283 1.5 18.5625V5.43749C1.5 4.67168 1.80422 3.93723 2.34573 3.39572C2.88724 2.85421 3.62169 2.54999 4.3875 2.54999H11.2125C11.9783 2.54999 12.7128 2.85421 13.2543 3.39572C13.7958 3.93723 14.1 4.67168 14.1 5.43749V18.5625C14.1 19.3283 13.7958 20.0627 13.2543 20.6043C12.7128 21.1458 11.9783 21.45 11.2125 21.45ZM18.0375 21.45H20.6625C21.1498 21.45 21.6172 21.2564 21.9618 20.9118C22.3064 20.5672 22.5 20.0998 22.5 19.6125V4.38749C22.5 3.90015 22.3064 3.43278 21.9618 3.08818C21.6172 2.74358 21.1498 2.54999 20.6625 2.54999H18.0375C17.5502 2.54999 17.0828 2.74358 16.7382 3.08818C16.3936 3.43278 16.2 3.90015 16.2 4.38749V19.6125C16.2 20.0998 16.3936 20.5672 16.7382 20.9118C17.0828 21.2564 17.5502 21.45 18.0375 21.45Z" fill="black"/>
</svg>
