<svg width="24" height="24" viewBox="0 0 24 24" fill="none" xmlns="http://www.w3.org/2000/svg">
<path d="M9.11794 8.85004H3.868C3.62631 8.85281 3.38648 8.80761 3.16239 8.71704C2.9383 8.62647 2.73441 8.49234 2.56253 8.32241C2.39065 8.15248 2.2542 7.95014 2.16107 7.7271C2.06795 7.50406 2.02 7.26476 2.02002 7.02306V3.3271C2.02002 2.84255 2.2125 2.37786 2.55513 2.03523C2.89775 1.69261 3.36245 1.50012 3.847 1.50012H9.09694C9.33862 1.49734 9.57845 1.54255 9.80254 1.63312C10.0266 1.72369 10.2305 1.85782 10.4024 2.02775C10.5743 2.19768 10.7107 2.40002 10.8039 2.62306C10.897 2.8461 10.9449 3.0854 10.9449 3.3271V7.02306C10.9449 7.26298 10.8977 7.50055 10.8058 7.72221C10.714 7.94387 10.5795 8.14528 10.4098 8.31493C10.2402 8.48458 10.0388 8.61915 9.81709 8.71097C9.59543 8.80278 9.35786 8.85004 9.11794 8.85004ZM10.9449 20.6729V12.777C10.9449 12.5371 10.8977 12.2995 10.8058 12.0778C10.714 11.8562 10.5795 11.6548 10.4098 11.4851C10.2402 11.3155 10.0388 11.1809 9.81709 11.0891C9.59543 10.9973 9.35786 10.95 9.11794 10.95H3.868C3.62631 10.9472 3.38648 10.9924 3.16239 11.083C2.9383 11.1736 2.73441 11.3077 2.56253 11.4776C2.39065 11.6476 2.2542 11.8499 2.16107 12.073C2.06795 12.296 2.02 12.5353 2.02002 12.777V20.6729C2.02002 21.1574 2.2125 21.6221 2.55513 21.9648C2.89775 22.3074 3.36245 22.4999 3.847 22.4999H9.09694C9.33862 22.5027 9.57845 22.4575 9.80254 22.3669C10.0266 22.2763 10.2305 22.1422 10.4024 21.9722C10.5743 21.8023 10.7107 21.6 10.8039 21.3769C10.897 21.1539 10.9449 20.9146 10.9449 20.6729ZM21.9698 11.223V3.3376C21.9698 2.85027 21.7762 2.3829 21.4316 2.03831C21.087 1.69371 20.6196 1.50012 20.1323 1.50012H14.8824C14.395 1.50012 13.9277 1.69371 13.5831 2.03831C13.2385 2.3829 13.0449 2.85027 13.0449 3.3376V11.2125C13.0449 11.6998 13.2385 12.1672 13.5831 12.5118C13.9277 12.8564 14.395 13.05 14.8824 13.05H20.1323C20.6196 13.05 21.087 12.8564 21.4316 12.5118C21.7762 12.1672 21.9698 11.6998 21.9698 11.2125V11.223ZM21.9698 20.6729V16.9769C21.9698 16.4924 21.7773 16.0277 21.4347 15.6851C21.0921 15.3424 20.6274 15.15 20.1428 15.15H14.8929C14.6512 15.1472 14.4114 15.1924 14.1873 15.283C13.9632 15.3735 13.7593 15.5077 13.5874 15.6776C13.4155 15.8475 13.2791 16.0499 13.1859 16.2729C13.0928 16.4959 13.0449 16.7352 13.0449 16.9769V20.6729C13.0449 21.1574 13.2374 21.6221 13.58 21.9648C13.9226 22.3074 14.3873 22.4999 14.8719 22.4999H20.1218C20.3635 22.5027 20.6033 22.4575 20.8274 22.3669C21.0515 22.2763 21.2554 22.1422 21.4273 21.9722C21.5992 21.8023 21.7356 21.6 21.8287 21.3769C21.9219 21.1539 21.9698 20.9146 21.9698 20.6729Z" fill="black"/>
</svg>
