<svg width="24" height="24" viewBox="0 0 24 24" fill="none" xmlns="http://www.w3.org/2000/svg">
<path d="M8.46995 10.5H3.46995C3.00924 10.487 2.57177 10.2948 2.25057 9.96423C1.92937 9.63369 1.74977 9.1909 1.74995 8.73V3.73C1.7604 3.26753 1.95149 2.82754 2.2823 2.5042C2.61312 2.18086 3.05737 1.99988 3.51995 2H8.51995C8.98857 2.00263 9.43726 2.18995 9.76863 2.52132C10.1 2.85269 10.2873 3.30138 10.29 3.77V8.77C10.2769 9.24037 10.078 9.68642 9.73699 10.0106C9.39593 10.3348 8.94038 10.5108 8.46995 10.5ZM21.74 8.73V3.73C21.7297 3.27268 21.5428 2.8371 21.2184 2.51457C20.894 2.19205 20.4573 2.00764 20 2H15C14.5305 2 14.0803 2.18648 13.7484 2.51842C13.4164 2.85036 13.23 3.30057 13.23 3.77V8.77C13.2404 9.23247 13.4315 9.67246 13.7623 9.9958C14.0931 10.3191 14.5374 10.5001 15 10.5H20C20.4642 10.4921 20.9067 10.3022 21.2322 9.97109C21.5577 9.64 21.74 9.19428 21.74 8.73ZM10.24 20.23V15.23C10.227 14.7684 10.0351 14.3298 9.70484 14.007C9.37457 13.6842 8.93177 13.5024 8.46995 13.5H3.46995C3.00052 13.5 2.55031 13.6865 2.21837 14.0184C1.88643 14.3504 1.69995 14.8006 1.69995 15.27V20.27C1.70513 20.5033 1.7564 20.7333 1.85081 20.9467C1.94522 21.1602 2.08091 21.3528 2.25006 21.5136C2.41921 21.6744 2.61849 21.8002 2.83643 21.8836C3.05437 21.9671 3.28667 22.0067 3.51995 22H8.51995C8.97984 21.9845 9.41585 21.7915 9.73653 21.4615C10.0572 21.1315 10.2376 20.6901 10.24 20.23ZM21.74 19.67C21.7374 19.4719 21.6575 19.2826 21.5174 19.1425C21.3773 19.0024 21.1881 18.9226 20.99 18.92H14C13.801 18.92 13.6103 18.999 13.4696 19.1397C13.329 19.2803 13.25 19.4711 13.25 19.67C13.25 19.8689 13.329 20.0597 13.4696 20.2003C13.6103 20.341 13.801 20.42 14 20.42H21C21.1971 20.4174 21.3853 20.3372 21.5238 20.1968C21.6623 20.0565 21.74 19.8672 21.74 19.67ZM21.74 15.83C21.74 15.6311 21.6609 15.4403 21.5203 15.2997C21.3796 15.159 21.1889 15.08 20.99 15.08H14C13.801 15.08 13.6103 15.159 13.4696 15.2997C13.329 15.4403 13.25 15.6311 13.25 15.83C13.25 16.0289 13.329 16.2197 13.4696 16.3603C13.6103 16.501 13.801 16.58 14 16.58H21C21.1963 16.5748 21.383 16.4939 21.521 16.354C21.659 16.2142 21.7374 16.0264 21.74 15.83Z" fill="black"/>
</svg>
