<svg width="24" height="24" viewBox="0 0 24 24" fill="none" xmlns="http://www.w3.org/2000/svg">
<path d="M8.72 10.5H3.72C3.25929 10.487 2.82182 10.2948 2.50062 9.96423C2.17942 9.63369 1.99982 9.1909 2 8.73V3.73C2.01045 3.26753 2.20154 2.82754 2.53235 2.5042C2.86317 2.18086 3.30742 1.99988 3.77 2H8.77C9.23943 2 9.68964 2.18648 10.0216 2.51842C10.3535 2.85036 10.54 3.30057 10.54 3.77V8.77C10.5348 9.00332 10.4836 9.23331 10.3891 9.44674C10.2947 9.66017 10.159 9.85283 9.98989 10.0136C9.82074 10.1744 9.62146 10.3002 9.40352 10.3836C9.18558 10.4671 8.95328 10.5066 8.72 10.5ZM22 8.73V3.73C21.9895 3.26753 21.7985 2.82754 21.4676 2.5042C21.1368 2.18086 20.6926 1.99988 20.23 2H15.23C14.7606 2 14.3104 2.18648 13.9784 2.51842C13.6465 2.85036 13.46 3.30057 13.46 3.77V8.77C13.46 9.23943 13.6465 9.68964 13.9784 10.0216C14.3104 10.3535 14.7606 10.54 15.23 10.54H20.23C20.4658 10.5401 20.6993 10.493 20.9167 10.4015C21.1341 10.3101 21.331 10.1761 21.4959 10.0075C21.6608 9.8389 21.7904 9.63903 21.8769 9.41964C21.9635 9.20026 22.0053 8.96578 22 8.73ZM22 20.23V15.23C22 14.7606 21.8135 14.3104 21.4816 13.9784C21.1496 13.6465 20.6994 13.46 20.23 13.46H15.27C14.8006 13.46 14.3504 13.6465 14.0184 13.9784C13.6865 14.3104 13.5 14.7606 13.5 15.23V20.23C13.5 20.6994 13.6865 21.1496 14.0184 21.4816C14.3504 21.8135 14.8006 22 15.27 22H20.22C20.4533 22.0013 20.6845 21.9565 20.9004 21.8681C21.1163 21.7798 21.3126 21.6496 21.478 21.4851C21.6435 21.3206 21.7747 21.1251 21.8643 20.9097C21.9539 20.6943 22 20.4633 22 20.23ZM10.5 20.23V15.23C10.4895 14.7658 10.297 14.3243 9.96408 14.0007C9.63111 13.6771 9.18431 13.4973 8.72 13.5H3.72C3.25929 13.513 2.82182 13.7052 2.50062 14.0358C2.17942 14.3663 1.99982 14.8091 2 15.27V20.27C2.01045 20.7325 2.20154 21.1725 2.53235 21.4958C2.86317 21.8191 3.30742 22.0001 3.77 22H8.77C9.23071 21.987 9.66818 21.7948 9.98938 21.4642C10.3106 21.1337 10.4902 20.6909 10.49 20.23H10.5Z" fill="black"/>
</svg>
