<svg width="24" height="24" viewBox="0 0 24 24" fill="none" xmlns="http://www.w3.org/2000/svg">
<path d="M20.1579 14.6316H12.2632C11.7746 14.6316 11.3061 14.4375 10.9606 14.092C10.6151 13.7466 10.4211 13.278 10.4211 12.7895V11.2105C10.4211 10.722 10.6151 10.2534 10.9606 9.90796C11.3061 9.5625 11.7746 9.36842 12.2632 9.36842H20.1579C20.6465 9.36842 21.115 9.5625 21.4605 9.90796C21.8059 10.2534 22 10.722 22 11.2105V12.7895C22 13.278 21.8059 13.7466 21.4605 14.092C21.115 14.4375 20.6465 14.6316 20.1579 14.6316ZM22 20.1579V18.5789C22 18.0904 21.8059 17.6218 21.4605 17.2764C21.115 16.9309 20.6465 16.7368 20.1579 16.7368H12.2632C11.7746 16.7368 11.3061 16.9309 10.9606 17.2764C10.6151 17.6218 10.4211 18.0904 10.4211 18.5789V20.1579C10.4211 20.6465 10.6151 21.115 10.9606 21.4605C11.3061 21.8059 11.7746 22 12.2632 22H20.1579C20.6465 22 21.115 21.8059 21.4605 21.4605C21.8059 21.115 22 20.6465 22 20.1579ZM20.1579 7.26316H3.84211C3.35355 7.26316 2.885 7.06908 2.53954 6.72362C2.19408 6.37816 2 5.90961 2 5.42105V3.84211C2 3.35355 2.19408 2.885 2.53954 2.53954C2.885 2.19408 3.35355 2 3.84211 2H20.1579C20.6465 2 21.115 2.19408 21.4605 2.53954C21.8059 2.885 22 3.35355 22 3.84211V5.42105C22 5.90961 21.8059 6.37816 21.4605 6.72362C21.115 7.06908 20.6465 7.26316 20.1579 7.26316ZM6.47368 9.36842H3.84211C3.35355 9.36842 2.885 9.5625 2.53954 9.90796C2.19408 10.2534 2 10.722 2 11.2105V20.1579C2 20.6465 2.19408 21.115 2.53954 21.4605C2.885 21.8059 3.35355 22 3.84211 22H6.47368C6.96224 22 7.43079 21.8059 7.77625 21.4605C8.12171 21.115 8.31579 20.6465 8.31579 20.1579V11.2105C8.31579 10.722 8.12171 10.2534 7.77625 9.90796C7.43079 9.5625 6.96224 9.36842 6.47368 9.36842Z" fill="black"/>
</svg>
