<svg width="24" height="24" viewBox="0 0 24 24" fill="none" xmlns="http://www.w3.org/2000/svg">
<path d="M8.8423 11.125V12.767H2.44099C2.22325 12.767 2.01443 12.6805 1.86046 12.5265C1.70649 12.3725 1.62 12.1637 1.62 11.946C1.62 11.7282 1.70649 11.5194 1.86046 11.3654C2.01443 11.2115 2.22325 11.125 2.44099 11.125H8.8423ZM17.9489 1.25138H13.2714C12.7039 1.23702 12.1391 1.33462 11.6094 1.5386C11.0796 1.74258 10.5952 2.04895 10.1839 2.4402C9.77259 2.83145 9.4424 3.29991 9.2122 3.81881C8.982 4.33772 8.85631 4.8969 8.8423 5.4644V11.179H14.0275L12.2667 9.34254C12.1169 9.18745 12.0332 8.98024 12.0332 8.7646C12.0332 8.54896 12.1169 8.34175 12.2667 8.18666C12.4142 8.05153 12.6069 7.97658 12.8069 7.97658C13.0068 7.97658 13.1996 8.05153 13.347 8.18666L16.4797 11.4274C16.6315 11.5794 16.7167 11.7853 16.7167 12C16.7167 12.2147 16.6315 12.4206 16.4797 12.5725L13.347 15.8133C13.2722 15.889 13.183 15.9491 13.0847 15.9899C12.9864 16.0307 12.8809 16.0515 12.7744 16.051C12.6694 16.0525 12.5653 16.0322 12.4686 15.9913C12.3718 15.9504 12.2847 15.8897 12.2127 15.8133C12.0629 15.6582 11.9791 15.451 11.9791 15.2354C11.9791 15.0197 12.0629 14.8125 12.2127 14.6574L13.9735 12.875H8.8423V18.5896C8.88457 19.7262 9.3733 20.8003 10.2025 21.5789C11.0316 22.3575 12.1343 22.7778 13.2714 22.7486H17.9489C19.0841 22.7749 20.184 22.3533 21.0108 21.575C21.8377 20.7968 22.3249 19.7243 22.3672 18.5896V5.4644C22.3388 4.32019 21.8577 3.23395 21.0294 2.44409C20.201 1.65423 19.0932 1.22528 17.9489 1.25138Z" fill="black"/>
</svg>
