<svg width="24" height="24" viewBox="0 0 24 24" fill="none" xmlns="http://www.w3.org/2000/svg">
<path d="M9.93697 12.8294H15.2276V18.5862C15.1825 19.7173 14.6968 20.786 13.8743 21.5639C13.0519 22.3417 11.9579 22.7672 10.826 22.7493H6.14247C5.0051 22.7699 3.90517 22.3428 3.07978 21.5599C2.25439 20.7771 1.76964 19.7014 1.73001 18.5645V5.403C1.77794 4.27187 2.26631 3.20432 3.0908 2.42845C3.91529 1.65258 5.01051 1.22991 6.14247 1.25073H10.826C11.9561 1.23277 13.0485 1.65672 13.8707 2.43229C14.6928 3.20787 15.1797 4.27378 15.2276 5.403V11.1598H9.93697L11.6608 9.39265C11.8111 9.237 11.8952 9.02905 11.8952 8.81263C11.8952 8.59622 11.8111 8.38826 11.6608 8.23261C11.514 8.09464 11.3201 8.01783 11.1187 8.01783C10.9172 8.01783 10.7234 8.09464 10.5766 8.23261L7.44344 11.485C7.29308 11.6407 7.20903 11.8486 7.20903 12.0651C7.20903 12.2815 7.29308 12.4894 7.44344 12.6451L10.5766 15.7891C10.6497 15.8648 10.7373 15.9249 10.8341 15.9659C10.931 16.0069 11.0352 16.0279 11.1404 16.0276C11.2472 16.0281 11.3531 16.0073 11.4517 15.9663C11.5504 15.9254 11.6399 15.8651 11.715 15.7891C11.8653 15.6334 11.9494 15.4255 11.9494 15.2091C11.9494 14.9927 11.8653 14.7847 11.715 14.6291L9.93697 12.8294ZM21.5399 11.1923H15.2276V12.8294H21.5399C21.7407 12.8062 21.9261 12.71 22.0606 12.5591C22.1951 12.4082 22.2695 12.213 22.2695 12.0109C22.2695 11.8087 22.1951 11.6135 22.0606 11.4626C21.9261 11.3117 21.7407 11.2155 21.5399 11.1923Z" fill="black"/>
</svg>
