<svg width="24" height="24" viewBox="0 0 24 24" fill="none" xmlns="http://www.w3.org/2000/svg">
<path d="M7.92815 12.8251H15.2135V18.5796C15.1682 19.7181 14.6773 20.7933 13.8466 21.5732C13.0159 22.3531 11.9119 22.7754 10.7728 22.7488H6.06068C4.92153 22.7754 3.81759 22.3531 2.98688 21.5732C2.15618 20.7933 1.66526 19.7181 1.62 18.5796V5.46382C1.65409 4.31762 2.14013 3.23141 2.97205 2.4422C3.80398 1.65299 4.91427 1.22484 6.06068 1.25114H10.7728C11.9192 1.22484 13.0295 1.65299 13.8614 2.4422C14.6933 3.23141 15.1794 4.31762 15.2135 5.46382V11.2182H7.92815C7.727 11.2414 7.5414 11.3378 7.40667 11.4889C7.27193 11.6401 7.19748 11.8355 7.19748 12.038C7.19748 12.2405 7.27193 12.4359 7.40667 12.587C7.5414 12.7382 7.727 12.8345 7.92815 12.8577V12.8251ZM22.1308 11.4245L18.9713 8.23246C18.8255 8.09182 18.6309 8.01322 18.4284 8.01322C18.2259 8.01322 18.0312 8.09182 17.8855 8.23246C17.733 8.38514 17.6474 8.59211 17.6474 8.8079C17.6474 9.0237 17.733 9.23066 17.8855 9.38335L19.6553 11.1857H15.2135V12.8251H19.601L17.8312 14.6275C17.6787 14.7802 17.5931 14.9871 17.5931 15.2029C17.5931 15.4187 17.6787 15.6257 17.8312 15.7784C17.9064 15.8545 17.996 15.9148 18.0949 15.9558C18.1937 15.9969 18.2997 16.0177 18.4067 16.0172C18.5122 16.0188 18.6169 15.9984 18.7141 15.9572C18.8113 15.9161 18.8989 15.8552 18.9713 15.7784L22.1308 12.5863C22.2814 12.4304 22.3655 12.2221 22.3655 12.0054C22.3655 11.7887 22.2814 11.5804 22.1308 11.4245Z" fill="black"/>
</svg>
