<svg width="24" height="24" viewBox="0 0 24 24" fill="none" xmlns="http://www.w3.org/2000/svg">
<path d="M22.3437 5.48552V18.623C22.2875 19.7538 21.7917 20.818 20.9622 21.5887C20.1327 22.3594 19.035 22.7757 17.9031 22.7488H13.191C12.05 22.7752 10.9445 22.3515 10.1135 21.5693C9.28248 20.7871 8.79278 19.7091 8.75029 18.5687V12.8251H16.0465C16.2653 12.8251 16.4752 12.7382 16.6299 12.5834C16.7847 12.4287 16.8716 12.2188 16.8716 12C16.8716 11.7811 16.7847 11.5712 16.6299 11.4165C16.4752 11.2617 16.2653 11.1748 16.0465 11.1748H8.75029V5.48552C8.77875 4.3355 9.26231 3.24375 10.0949 2.44989C10.9274 1.65602 12.0409 1.2249 13.191 1.25113H17.9031C19.0531 1.2249 20.1666 1.65602 20.9992 2.44989C21.8317 3.24375 22.3153 4.3355 22.3437 5.48552ZM4.36278 11.1748L6.13253 9.38332C6.28312 9.22745 6.36729 9.01918 6.36729 8.80245C6.36729 8.58572 6.28312 8.37745 6.13253 8.22158C5.98436 8.08577 5.79066 8.01043 5.58966 8.01043C5.38867 8.01043 5.19497 8.08577 5.04679 8.22158L1.89815 11.4788C1.74566 11.6315 1.66 11.8384 1.66 12.0542C1.66 12.27 1.74566 12.477 1.89815 12.6297L5.04679 15.8869C5.12198 15.963 5.2116 16.0234 5.31042 16.0644C5.40923 16.1054 5.51525 16.1263 5.62224 16.1258C5.72777 16.1273 5.83248 16.1069 5.92968 16.0658C6.02689 16.0247 6.11446 15.9637 6.18682 15.8869C6.33741 15.731 6.42158 15.5228 6.42158 15.306C6.42158 15.0893 6.33741 14.881 6.18682 14.7252L4.36278 12.8251H8.75029V11.1748H4.36278Z" fill="black"/>
</svg>
