<svg width="24" height="24" viewBox="0 0 24 24" fill="none" xmlns="http://www.w3.org/2000/svg">
<path d="M17.575 1H6.41851C5.24687 1.01447 4.12819 1.48442 3.30487 2.30802C2.48155 3.13161 2.01993 4.24251 2.02002 5.4V13.221C2.02001 13.5429 2.1487 13.8518 2.3781 14.0805C2.6075 14.3092 2.91903 14.4391 3.24492 14.442H20.7486C21.0745 14.4391 21.386 14.3092 21.6154 14.0805C21.8448 13.8518 21.9735 13.5429 21.9735 13.221V5.4C21.9736 4.24251 21.512 3.13161 20.6887 2.30802C19.8653 1.48442 18.7467 1.01447 17.575 1ZM6.66349 12.297H5.30497C5.08347 12.297 4.87105 12.2101 4.71443 12.0554C4.5578 11.9006 4.46981 11.6908 4.46981 11.472C4.46981 11.2532 4.5578 11.0434 4.71443 10.8886C4.87105 10.7339 5.08347 10.647 5.30497 10.647H6.66349C6.88499 10.647 7.09742 10.7339 7.25404 10.8886C7.41066 11.0434 7.49865 11.2532 7.49865 11.472C7.49865 11.6908 7.41066 11.9006 7.25404 12.0554C7.09742 12.2101 6.88499 12.297 6.66349 12.297ZM6.66349 9.547H5.30497C5.08347 9.547 4.87105 9.46008 4.71443 9.30536C4.5578 9.15065 4.46981 8.9408 4.46981 8.722C4.46981 8.5032 4.5578 8.29335 4.71443 8.13864C4.87105 7.98392 5.08347 7.897 5.30497 7.897H6.66349C6.88499 7.897 7.09742 7.98392 7.25404 8.13864C7.41066 8.29335 7.49865 8.5032 7.49865 8.722C7.49865 8.9408 7.41066 9.15065 7.25404 9.30536C7.09742 9.46008 6.88499 9.547 6.66349 9.547ZM6.66349 6.797H5.30497C5.1953 6.797 5.0867 6.77566 4.98537 6.7342C4.88404 6.69274 4.79198 6.63197 4.71443 6.55536C4.63687 6.47876 4.57536 6.38781 4.53339 6.28771C4.49142 6.18762 4.46981 6.08034 4.46981 5.972C4.46981 5.86366 4.49142 5.75638 4.53339 5.65629C4.57536 5.55619 4.63687 5.46525 4.71443 5.38864C4.79198 5.31203 4.88404 5.25126 4.98537 5.2098C5.0867 5.16834 5.1953 5.147 5.30497 5.147H6.66349C6.88499 5.147 7.09742 5.23392 7.25404 5.38864C7.41066 5.54335 7.49865 5.7532 7.49865 5.972C7.49865 6.1908 7.41066 6.40065 7.25404 6.55536C7.09742 6.71008 6.88499 6.797 6.66349 6.797ZM20.7486 16.125H3.24492C2.92005 16.125 2.6085 16.2525 2.37878 16.4794C2.14907 16.7063 2.02002 17.0141 2.02002 17.335V18.798C2.02002 19.9124 2.46818 20.9812 3.26591 21.7693C3.66091 22.1595 4.12983 22.469 4.64592 22.6801C5.16201 22.8913 5.71515 23 6.27375 23H17.7198C18.8479 23 19.9299 22.5573 20.7276 21.7693C21.5253 20.9812 21.9735 19.9124 21.9735 18.798V17.335C21.9735 17.0141 21.8445 16.7063 21.6147 16.4794C21.385 16.2525 21.0735 16.125 20.7486 16.125ZM17.5193 20.525C17.2991 20.525 17.0838 20.4605 16.9007 20.3396C16.7176 20.2188 16.5748 20.047 16.4906 19.846C16.4063 19.645 16.3842 19.4238 16.4272 19.2104C16.4702 18.997 16.5762 18.801 16.7319 18.6472C16.8877 18.4933 17.0861 18.3886 17.3021 18.3461C17.5181 18.3037 17.742 18.3255 17.9455 18.4087C18.1489 18.492 18.3229 18.633 18.4452 18.8139C18.5676 18.9948 18.6329 19.2074 18.6329 19.425C18.6329 19.7167 18.5156 19.9965 18.3067 20.2028C18.0979 20.4091 17.8147 20.525 17.5193 20.525Z" fill="black"/>
</svg>
