<svg width="24" height="24" viewBox="0 0 24 24" fill="none" xmlns="http://www.w3.org/2000/svg">
<path d="M22.7285 7.60691C22.7031 5.91478 22.0131 4.30056 20.8074 3.11298C19.6018 1.92541 17.9773 1.25982 16.285 1.26001H7.56469C5.87818 1.29375 4.27215 1.98748 3.09149 3.19225C1.91082 4.39701 1.24966 6.01672 1.25 7.70357V16.3809C1.27259 18.0749 1.96142 19.6919 3.16738 20.8817C4.37334 22.0716 5.9994 22.7387 7.69356 22.7385H9.56219V15.221H7.57542C7.43301 15.221 7.29643 15.1645 7.19573 15.0638C7.09503 14.9631 7.03846 14.8265 7.03846 14.6841V12.5577C7.03846 12.4153 7.09503 12.2787 7.19573 12.178C7.29643 12.0773 7.43301 12.0208 7.57542 12.0208H9.56219V8.79897C9.56502 7.79727 9.9642 6.8374 10.6725 6.12908C11.3808 5.42077 12.3407 5.02158 13.3424 5.01875H16.4031C16.5455 5.01875 16.6821 5.07532 16.7828 5.17602C16.8835 5.27672 16.9401 5.4133 16.9401 5.55571V7.70357C16.9401 7.84598 16.8835 7.98256 16.7828 8.08326C16.6821 8.18396 16.5455 8.24053 16.4031 8.24053H14.6096C14.2735 8.24053 13.9512 8.37404 13.7136 8.61169C13.4759 8.84935 13.3424 9.17167 13.3424 9.50776V11.9993H16.285C16.3738 11.9979 16.4616 12.0187 16.5405 12.0596C16.6193 12.1006 16.6868 12.1604 16.7368 12.2339C16.7869 12.3073 16.8179 12.392 16.8271 12.4804C16.8363 12.5688 16.8235 12.6581 16.7897 12.7403L15.9628 14.813C15.9235 14.9147 15.8542 15.0021 15.764 15.0635C15.6739 15.1249 15.5671 15.1574 15.458 15.1566H13.3102V22.6741H16.3816C18.0775 22.6543 19.6972 21.9667 20.8894 20.7604C22.0816 19.5542 22.7501 17.9265 22.75 16.2305L22.7285 7.60691Z" fill="black"/>
</svg>
