<svg width="24" height="24" viewBox="0 0 24 24" fill="none" xmlns="http://www.w3.org/2000/svg">
<path d="M8.91632 7.12558C8.29873 7.52334 7.77613 8.052 7.38552 8.67415C6.99492 9.29629 6.74586 9.99669 6.65597 10.7258C6.65338 10.789 6.62834 10.8492 6.58533 10.8956C6.54233 10.942 6.48418 10.9716 6.42135 10.979C6.35851 10.9864 6.29509 10.9711 6.24249 10.936C6.18989 10.9008 6.15155 10.848 6.13436 10.7871C5.50023 8.66998 5.06044 4.98797 9.41748 4.65045C10.1704 4.11626 11.0341 3.75883 11.9443 3.60476C12.8546 3.4507 13.7878 3.50398 14.6746 3.76063C15.4284 4.02902 16.1148 4.45798 16.6865 5.01784C17.2581 5.57769 17.7013 6.25507 17.9853 7.0031C18.2694 7.75112 18.3875 8.55193 18.3315 9.35011C18.2755 10.1483 18.0468 10.9248 17.6611 11.6258C17.6357 11.6751 17.5961 11.7157 17.5474 11.7422C17.4987 11.7687 17.4432 11.7799 17.388 11.7744C17.3328 11.7689 17.2806 11.7469 17.2381 11.7113C17.1956 11.6756 17.1648 11.628 17.1497 11.5747C16.9042 10.6746 16.1269 9.27342 13.5904 9.44729C12.6799 9.47833 11.7759 9.28238 10.96 8.87708C10.144 8.47178 9.44173 7.86988 8.91632 7.12558ZM18.3668 11.9531C18.2817 12.1319 18.1465 12.2822 17.9777 12.3857C17.8088 12.4892 17.6136 12.5414 17.4156 12.5361C17.182 12.5429 16.9531 12.4695 16.767 12.328C16.5809 12.1866 16.4488 11.9857 16.3928 11.7588C16.2561 11.2556 15.9409 10.8193 15.5062 10.5314C15.0715 10.2435 14.5469 10.1235 14.0302 10.1939H13.2427C12.4004 10.1766 11.5707 9.98606 10.8053 9.63414C10.0398 9.28221 9.35505 8.77645 8.79358 8.14836C8.04811 8.85012 7.58289 9.79875 7.48443 10.8178C7.46381 11.0747 7.34702 11.3142 7.1574 11.4887C6.96778 11.6631 6.71931 11.7596 6.46165 11.7588C6.23209 11.7673 6.00635 11.6982 5.82081 11.5628C5.63527 11.4273 5.50073 11.2334 5.43887 11.0121C5.43887 10.9508 5.43887 10.8894 5.43887 10.8383C5.16805 11.2598 5.05233 11.7624 5.11158 12.2599C5.20363 13.2111 5.80707 13.9271 6.45142 13.8657C6.52872 13.8549 6.60433 13.8342 6.67643 13.8043V14.4078C6.66762 14.9257 6.77196 15.4393 6.98218 15.9128C7.1924 16.3862 7.50342 16.808 7.89354 17.1488L10.3789 19.1944C10.8396 19.5829 11.4189 19.8028 12.0214 19.8177C12.6239 19.8325 13.2134 19.6416 13.6927 19.2762L16.0144 17.5477C16.4415 17.2111 16.7847 16.7801 17.0172 16.2886C17.2497 15.797 17.365 15.2583 17.3543 14.7146V13.8043C17.4299 13.8341 17.5089 13.8547 17.5895 13.8657C18.2338 13.9271 18.8271 13.2111 18.9191 12.2599C18.9569 11.9133 18.9113 11.5626 18.7861 11.2372C18.6723 11.4821 18.546 11.7211 18.4077 11.9531H18.3668ZM22.9591 20.9024V17.5068C22.9591 17.2979 22.8761 17.0976 22.7284 16.9499C22.5807 16.8022 22.3804 16.7193 22.1715 16.7193C21.9627 16.7193 21.7624 16.8022 21.6147 16.9499C21.467 17.0976 21.384 17.2979 21.384 17.5068V20.9024C21.384 21.0191 21.3377 21.1309 21.2552 21.2134C21.1727 21.2959 21.0609 21.3422 20.9442 21.3422H17.8759C17.667 21.3422 17.4667 21.4252 17.319 21.5729C17.1713 21.7206 17.0883 21.9209 17.0883 22.1298C17.0883 22.3386 17.1713 22.5389 17.319 22.6866C17.4667 22.8343 17.667 22.9173 17.8759 22.9173H20.9442C21.4832 22.9201 22.0015 22.71 22.3865 22.3327C22.7714 21.9554 22.9919 21.4414 23 20.9024H22.9591ZM6.87076 22.1298C6.86811 21.9217 6.78428 21.7229 6.63716 21.5758C6.49004 21.4287 6.29126 21.3449 6.08322 21.3422H3.01488C2.95712 21.3422 2.89993 21.3308 2.84657 21.3087C2.79322 21.2866 2.74473 21.2542 2.70389 21.2134C2.66306 21.1726 2.63066 21.1241 2.60856 21.0707C2.58646 21.0174 2.57508 20.9602 2.57508 20.9024V17.5068C2.57508 17.2979 2.49211 17.0976 2.34442 16.9499C2.19672 16.8022 1.99641 16.7193 1.78754 16.7193C1.57867 16.7193 1.37836 16.8022 1.23067 16.9499C1.08297 17.0976 1 17.2979 1 17.5068V20.9024C1 21.4449 1.21551 21.9652 1.59913 22.3489C1.98275 22.7325 2.50304 22.948 3.04556 22.948H6.1139C6.21735 22.944 6.319 22.9197 6.41304 22.8765C6.50709 22.8332 6.59167 22.7718 6.66197 22.6958C6.73227 22.6198 6.78689 22.5307 6.82271 22.4336C6.85854 22.3364 6.87487 22.2332 6.87076 22.1298ZM23 6.48123V3.0856C23 2.54308 22.7845 2.02279 22.4009 1.63917C22.0173 1.25555 21.497 1.04004 20.9544 1.04004H17.8861C17.6772 1.04004 17.4769 1.12301 17.3292 1.2707C17.1815 1.4184 17.0986 1.61871 17.0986 1.82758C17.0986 2.03645 17.1815 2.23676 17.3292 2.38445C17.4769 2.53215 17.6772 2.61512 17.8861 2.61512H20.9544C21.0711 2.61512 21.1829 2.66146 21.2654 2.74393C21.3479 2.82641 21.3942 2.93827 21.3942 3.05492V6.48123C21.3942 6.6901 21.4772 6.89041 21.6249 7.0381C21.7726 7.1858 21.9729 7.26877 22.1818 7.26877C22.3906 7.26877 22.591 7.1858 22.7387 7.0381C22.8863 6.89041 22.9693 6.6901 22.9693 6.48123H23ZM2.64668 6.48123V3.0856C2.64668 2.96896 2.69301 2.85709 2.77549 2.77462C2.85797 2.69214 2.96983 2.6458 3.08647 2.6458H6.15481C6.36368 2.6458 6.56399 2.56283 6.71169 2.41514C6.85938 2.26745 6.94235 2.06713 6.94235 1.85826C6.94235 1.64939 6.85938 1.44908 6.71169 1.30139C6.56399 1.1537 6.36368 1.07072 6.15481 1.07072H3.08647C2.54395 1.07072 2.02366 1.28624 1.64004 1.66985C1.25642 2.05347 1.04091 2.57377 1.04091 3.11628V6.48123C1.04091 6.6901 1.12388 6.89041 1.27158 7.0381C1.41927 7.1858 1.61958 7.26877 1.82845 7.26877C2.03732 7.26877 2.23763 7.1858 2.38533 7.0381C2.53302 6.89041 2.61599 6.6901 2.61599 6.48123H2.64668Z" fill="black"/>
</svg>
