<svg width="24" height="24" viewBox="0 0 24 24" fill="none" xmlns="http://www.w3.org/2000/svg">
<path d="M16.6534 14.5079C16.7069 14.1872 16.7374 13.863 16.7447 13.5379C16.7369 12.8825 16.6291 12.2321 16.4252 11.6091L19.7919 8.26528C20.3291 7.72802 20.631 6.99935 20.631 6.23955C20.631 5.47976 20.3291 4.75109 19.7919 4.21383C19.2546 3.67658 18.5259 3.37475 17.7662 3.37475C17.0064 3.37475 16.2777 3.67658 15.7404 4.21383L12.4194 7.53488L11.689 8.26528C11.4229 8.53128 11.2119 8.84709 11.0679 9.19467C10.9239 9.54224 10.8498 9.91478 10.8498 10.291C10.8498 10.6672 10.9239 11.0398 11.0679 11.3873C11.2119 11.7349 11.4229 12.0507 11.689 12.3167C11.8498 12.4768 11.9774 12.6671 12.0644 12.8767C12.1515 13.0863 12.1963 13.3109 12.1963 13.5379C12.1963 13.7648 12.1515 13.9895 12.0644 14.199C11.9774 14.4086 11.8498 14.5989 11.689 14.759L11.495 14.9416C10.3176 14.386 9.3952 13.4041 8.91426 12.1943C8.43333 10.9846 8.42978 9.63733 8.90432 8.42505C8.9072 8.37564 8.9072 8.3261 8.90432 8.27669C9.17765 7.66851 9.56507 7.11839 10.0456 6.65611L14.097 2.60466C15.0794 1.70634 16.3704 1.22157 17.7013 1.25129C19.0321 1.28101 20.3002 1.82294 21.2415 2.76422C22.1828 3.70551 22.7247 4.9736 22.7544 6.30445C22.7841 7.63529 22.2994 8.92631 21.401 9.90868L17.3496 13.9601C17.1329 14.1614 16.9 14.3446 16.6534 14.5079ZM6.79301 9.94292L2.76438 13.9373C1.79581 14.9044 1.25107 16.2166 1.25 17.5853C1.24893 18.954 1.79162 20.267 2.75868 21.2356C3.72574 22.2042 5.03795 22.7489 6.40665 22.75C7.77535 22.7511 9.08842 22.2084 10.057 21.2413L14.1198 17.1899C14.3246 16.9772 14.5116 16.7482 14.6791 16.5051C14.967 16.0967 15.1903 15.6463 15.341 15.1699C15.5288 14.6462 15.6253 14.0942 15.6263 13.5379C15.6272 13.1891 15.5928 12.8412 15.5236 12.4993C15.4355 12.103 15.2975 11.7196 15.1127 11.3581C14.8662 10.8257 14.5304 10.3393 14.1198 9.9201C13.7001 9.50723 13.214 9.16774 12.6819 8.91579L12.4879 9.10981C12.3271 9.26992 12.1995 9.46022 12.1124 9.66978C12.0253 9.87934 11.9805 10.104 11.9805 10.3309C11.9805 10.5579 12.0253 10.7826 12.1124 10.9921C12.1995 11.2017 12.3271 11.392 12.4879 11.5521C12.9245 11.981 13.2056 12.5432 13.2867 13.1498C13.3524 13.5522 13.3313 13.964 13.2251 14.3576C13.1188 14.7513 12.9297 15.1177 12.6705 15.4323C12.602 15.5008 12.5563 15.5807 12.4879 15.6492L11.7803 16.3568L8.43641 19.6207C7.89916 20.158 7.17048 20.4598 6.41069 20.4598C5.65089 20.4598 4.92222 20.158 4.38496 19.6207C3.84771 19.0835 3.54588 18.3548 3.54588 17.595C3.54588 16.8352 3.84771 16.1066 4.38496 15.5693L7.71742 12.2368C7.6649 12.0762 7.62296 11.9122 7.59188 11.7461C7.59188 11.6206 7.53482 11.495 7.512 11.3695C7.45788 11.0757 7.42735 10.778 7.4207 10.4793C7.41498 10.3767 7.41498 10.2738 7.4207 10.1712C7.43162 9.88731 7.46598 9.60484 7.52341 9.32664C7.2694 9.48886 7.03235 9.67621 6.81583 9.88586L6.79301 9.94292Z" fill="black"/>
</svg>
