<svg width="24" height="24" viewBox="0 0 24 24" fill="none" xmlns="http://www.w3.org/2000/svg">
<path d="M22.778 9.4798H18.058C17.6137 9.46817 17.1761 9.36876 16.7703 9.18728C16.3645 9.00581 15.9987 8.74585 15.6938 8.42239C15.389 8.09894 15.1511 7.71836 14.9939 7.30259C14.8367 6.88681 14.7634 6.44405 14.778 5.9998V1.0698L22.778 9.4798ZM22.778 11.0098H18.058C16.7636 10.9731 15.5359 10.4276 14.641 9.49162C13.7462 8.55561 13.2565 7.30455 13.278 6.0098V1.0498H8.37804C6.87599 1.06301 5.44056 1.67171 4.38688 2.74226C3.3332 3.81282 2.74739 5.25773 2.75804 6.7598V13.8098C3.41336 13.4985 4.12423 13.3212 4.84897 13.2883C5.57371 13.2553 6.29773 13.3674 6.97858 13.618C7.65943 13.8685 8.28341 14.2525 8.81393 14.7473C9.34444 15.2422 9.77081 15.838 10.068 16.4998C10.3988 17.2138 10.5775 17.9887 10.593 18.7754C10.6085 19.562 10.4604 20.3434 10.158 21.0698H17.158C17.9026 21.0633 18.6387 20.9101 19.3241 20.6191C20.0095 20.3281 20.6309 19.905 21.1528 19.3738C21.6746 18.8427 22.0868 18.2139 22.3656 17.5235C22.6445 16.833 22.7846 16.0944 22.778 15.3498V11.0098ZM9.09804 18.8698C9.10868 19.4018 9.01308 19.9305 8.81683 20.4251C8.62058 20.9197 8.32763 21.3701 7.95513 21.7501C7.58264 22.13 7.13807 22.4319 6.64748 22.6379C6.15689 22.8439 5.63013 22.9499 5.09804 22.9498C4.0522 22.898 3.06632 22.446 2.34444 21.6875C1.62257 20.929 1.21997 19.9219 1.21997 18.8748C1.21997 17.8277 1.62257 16.8206 2.34444 16.0621C3.06632 15.3036 4.0522 14.8516 5.09804 14.7998C5.62927 14.7997 6.1552 14.9055 6.64512 15.1108C7.13504 15.3162 7.57915 15.6171 7.95151 15.996C8.32387 16.3749 8.61704 16.8242 8.81389 17.3176C9.01074 17.811 9.10734 18.3387 9.09804 18.8698ZM6.18804 18.8698L6.71804 18.3898C6.87427 18.2639 6.9767 18.0832 7.00456 17.8845C7.03242 17.6857 6.98361 17.4839 6.86804 17.3198C6.75292 17.171 6.58546 17.0717 6.3997 17.042C6.21394 17.0122 6.02384 17.0544 5.86804 17.1598C5.82986 17.1879 5.79614 17.2216 5.76804 17.2598L5.18804 17.7998L4.62804 17.2398C4.49266 17.1125 4.31385 17.0417 4.12804 17.0417C3.94224 17.0417 3.76342 17.1125 3.62804 17.2398C3.48935 17.3834 3.41183 17.5752 3.41183 17.7748C3.41183 17.9744 3.48935 18.1662 3.62804 18.3098L4.13804 18.8198L3.60804 19.3098C3.4687 19.455 3.39089 19.6485 3.39089 19.8498C3.39089 20.0511 3.4687 20.2446 3.60804 20.3898C3.67656 20.4683 3.7611 20.5313 3.85597 20.5744C3.95083 20.6175 4.05383 20.6398 4.15804 20.6398C4.34699 20.6389 4.52882 20.5676 4.66804 20.4398L5.24804 19.8998L5.79804 20.4598C5.86699 20.5306 5.9494 20.5868 6.04043 20.6252C6.13146 20.6636 6.22925 20.6834 6.32804 20.6834C6.42684 20.6834 6.52463 20.6636 6.61565 20.6252C6.70668 20.5868 6.7891 20.5306 6.85804 20.4598C6.99739 20.3146 7.07519 20.1211 7.07519 19.9198C7.07519 19.7185 6.99739 19.525 6.85804 19.3798L6.18804 18.8698Z" fill="black"/>
</svg>
