<svg width="24" height="24" viewBox="0 0 24 24" fill="none" xmlns="http://www.w3.org/2000/svg">
<path d="M22.7179 10.3202H17.6629C16.7106 10.3006 15.8047 9.90483 15.1433 9.21943C14.4819 8.53402 14.1186 7.61467 14.1329 6.66227V1.33L22.7179 10.3202ZM22.7179 11.9519H17.6629C16.2777 11.9183 14.9619 11.3393 14.0013 10.3408C13.0407 9.34231 12.5131 8.005 12.5332 6.61961V1.33H7.27561C6.47923 1.33419 5.69149 1.49537 4.95747 1.80433C4.22345 2.11329 3.55756 2.56396 2.9979 3.13056C2.43824 3.69715 1.9958 4.36854 1.6959 5.10631C1.39601 5.84408 1.24453 6.63374 1.25015 7.43011V16.559C1.24453 17.3553 1.39601 18.145 1.6959 18.8828C1.9958 19.6205 2.43824 20.2919 2.9979 20.8585C3.55756 21.4251 4.22345 21.8758 4.95747 22.1847C5.69149 22.4937 6.47923 22.6549 7.27561 22.6591H16.7244C17.5208 22.6549 18.3085 22.4937 19.0425 22.1847C19.7766 21.8758 20.4424 21.4251 21.0021 20.8585C21.5618 20.2919 22.0042 19.6205 22.3041 18.8828C22.604 18.145 22.7555 17.3553 22.7498 16.559V11.9945L22.7179 11.9519Z" fill="black"/>
</svg>
