<svg width="24" height="24" viewBox="0 0 24 24" fill="none" xmlns="http://www.w3.org/2000/svg">
<path d="M9.89317 5.22195L7.44375 7.32446C7.33218 7.4251 7.24349 7.54849 7.18365 7.68631C7.12381 7.82413 7.0942 7.97318 7.09683 8.12341V10.4467C7.10215 10.6084 7.05622 10.7677 6.96559 10.9017C6.87497 11.0358 6.74429 11.1377 6.59223 11.1931L5.54098 11.5505C5.4338 11.5777 5.32181 11.5801 5.21357 11.5575C5.10533 11.5348 5.00371 11.4877 4.91647 11.4197C4.82923 11.3517 4.75869 11.2647 4.71024 11.1653C4.66178 11.0659 4.6367 10.9567 4.6369 10.8462V8.16546C4.63953 8.01523 4.60992 7.86618 4.55008 7.72836C4.49024 7.59054 4.40155 7.46715 4.28999 7.36651L1.84056 5.264C1.65324 5.09379 1.50397 4.88595 1.40252 4.65406C1.30107 4.42218 1.24973 4.17149 1.25186 3.91839V3.12995C1.23176 2.71786 1.37505 2.31448 1.65061 2.00742C1.92618 1.70037 2.31176 1.51443 2.72362 1.49H9.03114C9.44486 1.51176 9.83312 1.69654 10.1109 2.00389C10.3887 2.31125 10.5334 2.71614 10.5134 3.12995V3.87634C10.5137 4.13217 10.4583 4.385 10.3512 4.61733C10.2441 4.84967 10.0878 5.05596 9.89317 5.22195ZM16.7579 2.67791H11.5016C11.5178 2.82816 11.5178 2.97971 11.5016 3.12995V3.87634C11.5024 4.27291 11.4195 4.66517 11.2582 5.02748C11.097 5.38979 10.8611 5.71398 10.566 5.97885L8.1586 8.16546V10.4887C8.16557 10.8671 8.05227 11.2379 7.83501 11.5477C7.61775 11.8575 7.30774 12.0904 6.94966 12.2128L5.8984 12.5702C5.72841 12.6245 5.55122 12.6528 5.37278 12.6543C5.13591 12.6557 4.90114 12.6098 4.68229 12.5192C4.46343 12.4286 4.26491 12.2951 4.0984 12.1266C3.93189 11.9581 3.80075 11.7581 3.71269 11.5382C3.62463 11.3183 3.58144 11.083 3.58565 10.8462V8.14443L2.66054 7.32446C2.57089 7.7566 2.52859 8.19722 2.53439 8.63852V16.5545C2.53438 18.1317 3.15949 19.6446 4.27277 20.7618C5.38606 21.8791 6.89677 22.5095 8.47397 22.5151H16.7894C18.3702 22.5151 19.8863 21.8871 21.0042 20.7692C22.122 19.6514 22.75 18.1353 22.75 16.5545V8.63852C22.75 7.85576 22.5958 7.08067 22.2963 6.3575C21.9967 5.63432 21.5577 4.97723 21.0042 4.42374C20.4507 3.87024 19.7936 3.43119 19.0704 3.13164C18.3472 2.83209 17.5721 2.67791 16.7894 2.67791H16.7579ZM12.6054 11.4874H17.3045C17.4135 11.4747 17.524 11.4852 17.6287 11.5182C17.7334 11.5512 17.83 11.606 17.912 11.679C17.994 11.752 18.0596 11.8415 18.1045 11.9416C18.1495 12.0418 18.1727 12.1503 18.1727 12.2601C18.1727 12.3699 18.1495 12.4784 18.1045 12.5786C18.0596 12.6787 17.994 12.7682 17.912 12.8412C17.83 12.9142 17.7334 12.969 17.6287 13.002C17.524 13.035 17.4135 13.0455 17.3045 13.0328H12.6369C12.5279 13.0455 12.4174 13.035 12.3127 13.002C12.208 12.969 12.1115 12.9142 12.0295 12.8412C11.9475 12.7682 11.8818 12.6787 11.8369 12.5786C11.792 12.4784 11.7687 12.3699 11.7687 12.2601C11.7687 12.1503 11.792 12.0418 11.8369 11.9416C11.8818 11.8415 11.9475 11.752 12.0295 11.679C12.1115 11.606 12.208 11.5512 12.3127 11.5182C12.4174 11.4852 12.5279 11.4747 12.6369 11.4874H12.6054ZM17.6304 17.406H8.84191C8.65252 17.3838 8.47784 17.2929 8.35107 17.1505C8.2243 17.008 8.15427 16.824 8.15427 16.6333C8.15427 16.4426 8.2243 16.2586 8.35107 16.1161C8.47784 15.9737 8.65252 15.8828 8.84191 15.8606H17.6619C17.771 15.8479 17.8815 15.8584 17.9862 15.8914C18.0909 15.9244 18.1874 15.9792 18.2694 16.0522C18.3514 16.1252 18.417 16.2147 18.462 16.3148C18.5069 16.415 18.5301 16.5235 18.5301 16.6333C18.5301 16.7431 18.5069 16.8516 18.462 16.9518C18.417 17.0519 18.3514 17.1414 18.2694 17.2144C18.1874 17.2874 18.0909 17.3422 17.9862 17.3752C17.8815 17.4082 17.771 17.4187 17.6619 17.406H17.6304Z" fill="black"/>
</svg>
