<svg width="24" height="24" viewBox="0 0 24 24" fill="none" xmlns="http://www.w3.org/2000/svg">
<path d="M14.1909 20.3281C14.0474 20.6039 13.8393 20.8408 13.5843 21.0185L12.1512 22.0645C11.8363 22.3074 11.4587 22.4555 11.0626 22.4914C10.6666 22.5274 10.2685 22.4497 9.91497 22.2674C9.56148 22.0852 9.26726 21.806 9.06679 21.4625C8.86632 21.1191 8.76791 20.7256 8.78308 20.3281V14.8366C8.78182 13.7793 8.36478 12.7649 7.62201 12.0124L3.68902 8.01663C3.26344 7.58471 3.02646 7.00167 3.03004 6.39532V3.79076C3.03555 3.1813 3.28154 2.59867 3.71447 2.16966C4.14739 1.74065 4.73223 1.49998 5.34172 1.5H18.6679C19.281 1.5 19.8689 1.74355 20.3025 2.17707C20.736 2.6106 20.9795 3.19858 20.9795 3.81168V6.3221C20.983 6.65017 20.9157 6.97513 20.7821 7.2748C20.6485 7.57446 20.4518 7.84177 20.2055 8.05847L17.8624 10.1505C17.1335 9.7906 16.3323 9.60103 15.5194 9.5961C14.2132 9.63469 12.9641 10.1395 11.9979 11.0193C11.0317 11.899 10.4123 13.0955 10.2517 14.3923C10.0912 15.6891 10.4002 17.0005 11.1227 18.0893C11.8453 19.1781 12.9336 19.9723 14.1909 20.3281ZM20.1637 18.5709L19.2013 17.6085H19.1386C19.7847 16.7001 20.0659 15.5821 19.9266 14.476C19.7872 13.37 19.2373 12.3567 18.386 11.637C17.5347 10.9172 16.444 10.5437 15.3302 10.5902C14.2164 10.6368 13.1607 11.1001 12.3724 11.8884C11.5842 12.6767 11.1208 13.7323 11.0743 14.8462C11.0277 15.96 11.4013 17.0506 12.121 17.902C12.8407 18.7533 13.854 19.3031 14.96 19.4425C16.0661 19.5819 17.1841 19.3007 18.0926 18.6545V18.7173L19.0549 19.6796C19.202 19.8265 19.4014 19.9091 19.6093 19.9091C19.8172 19.9091 20.0166 19.8265 20.1637 19.6796C20.3043 19.5335 20.3828 19.3385 20.3828 19.1357C20.3828 18.9329 20.3043 18.7379 20.1637 18.5918V18.5709Z" fill="black"/>
</svg>
