<svg width="24" height="24" viewBox="0 0 24 24" fill="none" xmlns="http://www.w3.org/2000/svg">
<path d="M13.7234 20.1207C13.5808 20.481 13.3378 20.7929 13.0233 21.0193L11.6022 22.0643C11.2863 22.3083 10.907 22.4566 10.5093 22.4919C10.1116 22.5271 9.71221 22.4476 9.35826 22.263C9.00432 22.0783 8.71067 21.7961 8.51206 21.4498C8.31345 21.1035 8.2182 20.7075 8.23756 20.3088V14.8229C8.2363 13.7667 7.81969 12.7533 7.07769 12.0016L3.14875 8.00994C2.72075 7.57952 2.48034 6.9973 2.48 6.3903V3.78842C2.48551 3.17959 2.73124 2.59756 3.16372 2.169C3.5962 1.74043 4.18043 1.5 4.78929 1.50002H18.1017C18.4058 1.49865 18.7073 1.55736 18.9886 1.6728C19.27 1.78824 19.5258 1.95812 19.7414 2.1727C19.9569 2.38727 20.128 2.64231 20.2447 2.92317C20.3614 3.20403 20.4215 3.50518 20.4214 3.80932V6.31715C20.4222 6.64447 20.3537 6.96824 20.2205 7.2672C20.0872 7.56616 19.8922 7.83353 19.6482 8.05174L18.4256 9.09667C17.8204 8.9068 17.1895 8.81164 16.5552 8.81454C15.2161 8.81512 13.9157 9.263 12.8602 10.0871C11.8047 10.9111 11.0548 12.0642 10.7295 13.3631C10.4042 14.662 10.5221 16.0324 11.0645 17.2567C11.6069 18.481 12.5427 19.489 13.7234 20.1207ZM21.5186 14.8229C21.5186 15.8046 21.2275 16.7642 20.6821 17.5804C20.1368 18.3966 19.3616 19.0328 18.4546 19.4085C17.5477 19.7842 16.5497 19.8824 15.5869 19.6909C14.6241 19.4994 13.7397 19.0267 13.0455 18.3326C12.3514 17.6384 11.8787 16.754 11.6872 15.7912C11.4956 14.8284 11.5939 13.8304 11.9696 12.9235C12.3453 12.0165 12.9814 11.2413 13.7977 10.696C14.6139 10.1506 15.5735 9.85947 16.5552 9.85947C17.2074 9.85809 17.8534 9.98553 18.4563 10.2345C19.0591 10.4834 19.6068 10.849 20.0679 11.3101C20.5291 11.7713 20.8947 12.319 21.1436 12.9218C21.3926 13.5247 21.52 14.1707 21.5186 14.8229ZM19.0317 13.0465C18.8904 12.8951 18.6954 12.8048 18.4885 12.7951C18.2816 12.7853 18.079 12.8568 17.9241 12.9943L15.7506 14.9692L14.9565 14.2586C14.8824 14.1789 14.7926 14.1154 14.6927 14.0723C14.5928 14.0291 14.485 14.0073 14.3762 14.0081C14.2674 14.0089 14.16 14.0324 14.0607 14.077C13.9615 14.1216 13.8726 14.1864 13.7998 14.2672C13.727 14.3481 13.6718 14.4432 13.6377 14.5465C13.6037 14.6499 13.5915 14.7592 13.602 14.8675C13.6125 14.9758 13.6455 15.0807 13.6988 15.1756C13.7521 15.2704 13.8245 15.3532 13.9115 15.4185L15.2281 16.5993C15.3699 16.7321 15.5564 16.8067 15.7506 16.8083C15.9477 16.8053 16.137 16.7311 16.2835 16.5993L18.9794 14.1646C19.134 14.0229 19.2262 13.8258 19.236 13.6163C19.2458 13.4068 19.1724 13.202 19.0317 13.0465Z" fill="black"/>
</svg>
