<svg width="24" height="24" viewBox="0 0 24 24" fill="none" xmlns="http://www.w3.org/2000/svg">
<path d="M12.1692 20.9048C11.9786 20.907 11.7927 20.8462 11.6403 20.7319C11.4539 20.5921 11.3302 20.3845 11.2959 20.1541C11.2616 19.9237 11.3196 19.6891 11.4572 19.5012C12.2457 18.4544 12.81 17.2564 13.1151 15.982C13.1766 15.7608 13.3217 15.5723 13.5197 15.4561C13.7177 15.3399 13.9531 15.3052 14.1762 15.3594C14.3993 15.4135 14.5926 15.5522 14.7153 15.7461C14.838 15.9401 14.8806 16.1742 14.834 16.399C14.4785 17.9023 13.8211 19.3177 12.9015 20.5589C12.8152 20.6701 12.7039 20.7593 12.5767 20.8194C12.4494 20.8795 12.3098 20.9087 12.1692 20.9048ZM9.61624 18.9723C10.9176 17.525 11.6416 15.6499 11.6505 13.7037V9.29958C11.6372 9.1761 11.65 9.0512 11.6882 8.93301C11.7263 8.81482 11.7889 8.70599 11.8719 8.61359C11.9549 8.52118 12.0564 8.44729 12.1698 8.3967C12.2832 8.34611 12.4061 8.31997 12.5302 8.31997C12.6544 8.31997 12.7772 8.34611 12.8907 8.3967C13.0041 8.44729 13.1056 8.52118 13.1886 8.61359C13.2716 8.70599 13.3342 8.81482 13.3723 8.93301C13.4105 9.0512 13.4233 9.1761 13.41 9.29958V13.1036C13.41 13.3382 13.5033 13.5633 13.6692 13.7293C13.8352 13.8952 14.0602 13.9884 14.2949 13.9884C14.5296 13.9884 14.7547 13.8952 14.9206 13.7293C15.0866 13.5633 15.1798 13.3382 15.1798 13.1036V9.29958C15.138 8.62525 14.8407 7.99223 14.3484 7.52951C13.8561 7.06679 13.2059 6.80918 12.5302 6.80918C11.8546 6.80918 11.2044 7.06679 10.7121 7.52951C10.2198 7.99223 9.92249 8.62525 9.88069 9.29958V13.7037C9.87537 15.2023 9.32598 16.6481 8.33469 17.7721C8.25235 17.8564 8.18791 17.9565 8.14522 18.0664C8.10254 18.1762 8.0825 18.2936 8.0863 18.4114C8.0901 18.5291 8.11766 18.645 8.16734 18.7518C8.21701 18.8587 8.28777 18.9544 8.37537 19.0333C8.53314 19.1789 8.74045 19.2589 8.95512 19.257C9.07912 19.2586 9.20205 19.234 9.31595 19.1849C9.42984 19.1359 9.53215 19.0634 9.61624 18.9723ZM7.21587 16.3888C7.45153 16.3783 7.67404 16.2773 7.83701 16.1067C7.99997 15.9362 8.09081 15.7093 8.09058 15.4734V9.29958C8.08833 8.77192 8.18136 8.24819 8.3652 7.75358C8.42033 7.64277 8.4516 7.52163 8.45699 7.39798C8.46238 7.27432 8.44177 7.15092 8.39649 7.03573C8.35122 6.92054 8.28228 6.81613 8.19413 6.72924C8.10599 6.64236 8.0006 6.57493 7.88477 6.53131C7.76894 6.4877 7.64525 6.46887 7.52169 6.47604C7.39813 6.48321 7.27745 6.51622 7.16744 6.57294C7.05743 6.62965 6.96055 6.70882 6.88304 6.80532C6.80554 6.90181 6.74914 7.0135 6.71749 7.13315C6.46205 7.82689 6.33121 8.56031 6.33099 9.29958V15.5548C6.33227 15.6674 6.35607 15.7786 6.401 15.8819C6.44592 15.9852 6.51106 16.0784 6.59257 16.1561C6.67408 16.2339 6.77032 16.2945 6.87562 16.3344C6.98092 16.3744 7.09315 16.3929 7.2057 16.3888H7.21587ZM9.85017 5.81091C10.2905 5.48561 10.787 5.24425 11.3148 5.09894C11.54 5.03477 11.7312 4.88488 11.8472 4.68142C11.9631 4.47796 11.9948 4.23714 11.9352 4.01063C11.9089 3.89688 11.8603 3.78947 11.7923 3.69457C11.7243 3.59968 11.6382 3.51919 11.5389 3.45773C11.4396 3.39628 11.3292 3.35508 11.2139 3.3365C11.0986 3.31793 10.9808 3.32235 10.8673 3.34951C10.1315 3.55809 9.44141 3.90311 8.83307 4.36662C8.64639 4.50313 8.52058 4.7073 8.48256 4.93542C8.44454 5.16354 8.49734 5.39747 8.62965 5.58715C8.71281 5.69416 8.81919 5.78089 8.94076 5.8408C9.06233 5.9007 9.19592 5.93222 9.33145 5.93296C9.5131 5.95087 9.69556 5.90794 9.85017 5.81091ZM17.987 18.362C18.4666 16.8732 18.7103 15.3186 18.7092 13.7545V9.29958C18.7103 8.01579 18.3112 6.76356 17.5675 5.71717C16.8237 4.67078 15.7722 3.88228 14.5594 3.4614C14.4492 3.42293 14.3325 3.40664 14.216 3.41346C14.0995 3.42027 13.9855 3.45006 13.8806 3.50111C13.7757 3.55216 13.6819 3.62346 13.6046 3.7109C13.5273 3.79835 13.4681 3.90021 13.4304 4.01063C13.3551 4.22429 13.3636 4.45855 13.4542 4.66618C13.5448 4.87381 13.7107 5.03936 13.9186 5.12945C14.7865 5.42835 15.5393 5.99096 16.0718 6.73863C16.6043 7.48631 16.8898 8.38168 16.8885 9.29958V13.7037C16.891 15.0851 16.6747 16.4582 16.2478 17.7721C16.18 17.9947 16.2015 18.2349 16.3079 18.4418C16.4142 18.6488 16.5969 18.8062 16.8173 18.8807C16.9083 18.8955 17.001 18.8955 17.092 18.8807C17.2832 18.8987 17.4751 18.8525 17.6371 18.7494C17.7992 18.6462 17.9223 18.492 17.987 18.3111V18.362ZM23.0726 21.0166V17.5381C23.0726 17.3277 22.989 17.1259 22.8402 16.9772C22.6914 16.8284 22.4896 16.7448 22.2792 16.7448C22.0688 16.7448 21.867 16.8284 21.7182 16.9772C21.5695 17.1259 21.4859 17.3277 21.4859 17.5381V20.9658C21.4859 21.0818 21.4398 21.193 21.3578 21.275C21.2757 21.3571 21.1645 21.4031 21.0485 21.4031H17.987C17.7766 21.4031 17.5748 21.4867 17.426 21.6355C17.2773 21.7843 17.1937 21.9861 17.1937 22.1965C17.1937 22.4069 17.2773 22.6087 17.426 22.7575C17.5748 22.9062 17.7766 22.9898 17.987 22.9898H21.0383C21.5637 22.9714 22.0615 22.7504 22.4274 22.3731C22.7934 21.9958 22.999 21.4914 23.0014 20.9658L23.0726 21.0166ZM6.79885 22.1965C6.79885 22.0923 6.77833 21.9891 6.73847 21.8929C6.6986 21.7966 6.64016 21.7092 6.56649 21.6355C6.49282 21.5618 6.40536 21.5034 6.30911 21.4635C6.21286 21.4237 6.1097 21.4031 6.00551 21.4031H2.95419C2.89676 21.4031 2.83989 21.3918 2.78683 21.3699C2.73376 21.3479 2.68555 21.3157 2.64494 21.275C2.60433 21.2344 2.57211 21.1862 2.55013 21.1332C2.52815 21.0801 2.51684 21.0232 2.51684 20.9658V17.5381C2.49466 17.3419 2.40099 17.1607 2.25372 17.0292C2.10645 16.8976 1.91589 16.8249 1.71841 16.8249C1.52093 16.8249 1.33037 16.8976 1.1831 17.0292C1.03583 17.1607 0.942166 17.3419 0.919983 17.5381V20.9658C0.919983 21.5053 1.1343 22.0227 1.51579 22.4042C1.89728 22.7857 2.41469 23 2.95419 23H6.00551C6.11056 23 6.21456 22.9792 6.31148 22.9387C6.4084 22.8981 6.49631 22.8388 6.57012 22.7641C6.64392 22.6893 6.70214 22.6006 6.74141 22.5032C6.78068 22.4058 6.8002 22.3015 6.79885 22.1965ZM23.0014 6.45169V3.03421C23.0014 2.49471 22.787 1.9773 22.4055 1.59581C22.0241 1.21432 21.5066 1 20.9671 1H17.987C17.7766 1 17.5748 1.08358 17.426 1.23236C17.2773 1.38115 17.1937 1.58294 17.1937 1.79334C17.1937 2.00375 17.2773 2.20554 17.426 2.35432C17.5748 2.5031 17.7766 2.58669 17.987 2.58669H21.0383C21.1543 2.58669 21.2656 2.63276 21.3476 2.71478C21.4296 2.7968 21.4757 2.90805 21.4757 3.02404V6.45169C21.4757 6.6621 21.5593 6.86389 21.7081 7.01267C21.8568 7.16145 22.0586 7.24503 22.269 7.24503C22.4794 7.24503 22.6812 7.16145 22.83 7.01267C22.9788 6.86389 23.0624 6.6621 23.0624 6.45169H23.0014ZM2.53718 6.45169V3.03421C2.53718 2.91822 2.58326 2.80697 2.66528 2.72495C2.7473 2.64293 2.85854 2.59686 2.97454 2.59686H6.02585C6.23626 2.59686 6.43805 2.51327 6.58683 2.36449C6.73561 2.21571 6.8192 2.01392 6.8192 1.80351C6.8192 1.59311 6.73561 1.39132 6.58683 1.24254C6.43805 1.09376 6.23626 1.01017 6.02585 1.01017H2.97454C2.43503 1.01017 1.91762 1.22449 1.53613 1.60598C1.15464 1.98747 0.940325 2.50488 0.940325 3.04438V6.45169C0.962508 6.64791 1.05617 6.8291 1.20344 6.96066C1.35072 7.09222 1.54128 7.16494 1.73875 7.16494C1.93623 7.16494 2.12679 7.09222 2.27406 6.96066C2.42133 6.8291 2.515 6.64791 2.53718 6.45169Z" fill="black"/>
</svg>
