<svg width="24" height="24" viewBox="0 0 24 24" fill="none" xmlns="http://www.w3.org/2000/svg">
<path d="M12 1C9.82441 1 7.69767 1.64514 5.88873 2.85383C4.07979 4.06253 2.66989 5.78049 1.83733 7.79048C1.00477 9.80047 0.78693 12.0122 1.21137 14.146C1.6358 16.2798 2.68345 18.2398 4.22183 19.7782C5.76021 21.3165 7.72022 22.3642 9.85401 22.7886C11.9878 23.2131 14.1995 22.9952 16.2095 22.1627C18.2195 21.3301 19.9375 19.9202 21.1462 18.1113C22.3549 16.3023 23 14.1756 23 12C23 10.5555 22.7155 9.12506 22.1627 7.79048C21.6099 6.4559 20.7996 5.24327 19.7782 4.22182C18.7567 3.20038 17.5441 2.39013 16.2095 1.83732C14.8749 1.28452 13.4445 1 12 1ZM16.312 12.143L11.252 18.006C11.1792 18.0849 11.0846 18.1402 10.9802 18.165C10.8758 18.1897 10.7664 18.1828 10.6659 18.145C10.5655 18.1072 10.4786 18.0402 10.4165 17.9528C10.3543 17.8653 10.3197 17.7613 10.317 17.654V12.814H8.117C8.01692 12.8127 7.91928 12.7829 7.83547 12.7282C7.75166 12.6735 7.68512 12.5961 7.64361 12.505C7.60211 12.4139 7.58735 12.3129 7.60105 12.2138C7.61475 12.1146 7.65635 12.0214 7.721 11.945L12.847 6.005C12.9198 5.92613 13.0144 5.87077 13.1188 5.84601C13.2232 5.82126 13.3327 5.82823 13.4331 5.86604C13.5335 5.90384 13.6204 5.97076 13.6825 6.05823C13.7447 6.1457 13.7793 6.24973 13.782 6.357V11.285H15.982C16.0727 11.3017 16.1576 11.3415 16.2286 11.4004C16.2995 11.4593 16.3542 11.5355 16.3873 11.6216C16.4204 11.7077 16.4309 11.8008 16.4177 11.8921C16.4045 11.9834 16.3681 12.0698 16.312 12.143Z" fill="black"/>
</svg>
