<svg width="24" height="24" viewBox="0 0 24 24" fill="none" xmlns="http://www.w3.org/2000/svg">
<path d="M17.0985 5.68565H13.8687C13.3078 5.685 12.7599 5.51649 12.2956 5.20182C11.8313 4.88716 11.4717 4.44073 11.2633 3.92001L10.9295 3.01565C10.7211 2.49492 10.3615 2.04849 9.89721 1.73383C9.43289 1.41916 8.88502 1.25066 8.32412 1.25H6.17089C4.86313 1.25 3.60894 1.7695 2.68422 2.69423C1.75949 3.61895 1.23999 4.87314 1.23999 6.1809V17.087C1.24281 18.5843 1.8374 20.0198 2.89415 21.0806C3.95091 22.1414 5.38414 22.7415 6.88145 22.75H17.0985C18.6033 22.75 20.0464 22.1522 21.1105 21.0882C22.1745 20.0242 22.7723 18.581 22.7723 17.0762V11.3594C22.7723 9.85464 22.1745 8.4115 21.1105 7.34746C20.0464 6.28342 18.6033 5.68565 17.0985 5.68565ZM15.5051 13.6311C15.3721 13.7826 15.1853 13.8764 14.9843 13.8925C14.7833 13.9086 14.5839 13.8457 14.4285 13.7172L13.1581 12.6406V16.947C13.1358 17.1355 13.0451 17.3093 12.9032 17.4353C12.7613 17.5614 12.5781 17.631 12.3883 17.631C12.1985 17.631 12.0153 17.5614 11.8735 17.4353C11.7316 17.3093 11.6409 17.1355 11.6186 16.947V12.5437L10.1328 13.7387C9.99343 13.8443 9.82319 13.901 9.64835 13.9002C9.53393 13.9006 9.42096 13.8746 9.31825 13.8242C9.21554 13.7738 9.12586 13.7003 9.05622 13.6095C8.99172 13.5318 8.94353 13.4418 8.91451 13.345C8.88549 13.2482 8.87622 13.1466 8.88727 13.0461C8.89832 12.9457 8.92945 12.8485 8.97882 12.7603C9.02819 12.6722 9.09478 12.5948 9.17464 12.5329L11.9092 10.3797L12.0169 10.3259H12.1138C12.1884 10.3105 12.2653 10.3105 12.3399 10.3259C12.4357 10.3271 12.5304 10.3453 12.6198 10.3797H12.7059L12.8351 10.4551L15.3759 12.6083C15.5212 12.7319 15.615 12.9054 15.6389 13.0946C15.6628 13.2839 15.6151 13.4752 15.5051 13.6311Z" fill="black"/>
</svg>
