<svg width="24" height="24" viewBox="0 0 24 24" fill="none" xmlns="http://www.w3.org/2000/svg">
<path d="M8.491 16.4H14.75V20.8H5.191C4.66295 20.8 4.15654 20.5902 3.78315 20.2169C3.40977 19.8435 3.2 19.337 3.2 18.809V7.6H2.991C2.46295 7.6 1.95654 7.39023 1.58315 7.01685C1.20977 6.64347 1 6.13705 1 5.609V5.191C1 4.66295 1.20977 4.15654 1.58315 3.78315C1.95654 3.40977 2.46295 3.2 2.991 3.2H3.2V2.991C3.2 2.46295 3.40977 1.95654 3.78315 1.58315C4.15654 1.20977 4.66295 1 5.191 1H5.609C5.87046 1 6.12936 1.0515 6.37092 1.15156C6.61248 1.25161 6.83197 1.39827 7.01685 1.58315C7.20173 1.76803 7.34839 1.98752 7.44844 2.22908C7.5485 2.47064 7.6 2.72954 7.6 2.991V15.509C7.6 15.7453 7.69387 15.9719 7.86097 16.139C8.02806 16.3061 8.25469 16.4 8.491 16.4ZM21.009 16.4H20.8V5.191C20.8 4.66295 20.5902 4.15654 20.2169 3.78315C19.8435 3.40977 19.337 3.2 18.809 3.2H9.25V7.6H15.509C15.7453 7.6 15.9719 7.69387 16.139 7.86097C16.3061 8.02806 16.4 8.25469 16.4 8.491V21.009C16.4 21.537 16.6098 22.0435 16.9832 22.4169C17.3565 22.7902 17.863 23 18.391 23H18.809C19.337 23 19.8435 22.7902 20.2169 22.4169C20.5902 22.0435 20.8 21.537 20.8 21.009V20.8H21.009C21.537 20.8 22.0435 20.5902 22.4169 20.2169C22.7902 19.8435 23 19.337 23 18.809V18.391C23 17.863 22.7902 17.3565 22.4169 16.9832C22.0435 16.6098 21.537 16.4 21.009 16.4Z" fill="black"/>
</svg>
