<svg width="24" height="24" viewBox="0 0 24 24" fill="none" xmlns="http://www.w3.org/2000/svg">
<path d="M10.8625 0.57081C8.75431 0.817574 6.78844 1.75993 5.27568 3.24892C3.76291 4.73792 2.78954 6.68862 2.50941 8.79268C2.32162 10.1546 2.43017 11.5409 2.82766 12.857C3.22516 14.173 3.9022 15.3877 4.81249 16.4179L10.612 22.9095C10.7765 23.0951 10.9786 23.2438 11.2049 23.3456C11.4312 23.4474 11.6765 23.5 11.9246 23.5C12.1727 23.5 12.418 23.4474 12.6443 23.3456C12.8705 23.2438 13.0726 23.0951 13.2372 22.9095L19.1322 16.4179C20.4288 14.9711 21.2532 13.1632 21.4952 11.2356C21.7372 9.30791 21.3853 7.35231 20.4865 5.62994C19.5877 3.90757 18.1848 2.50042 16.4651 1.59643C14.7455 0.692437 12.7909 0.334635 10.8625 0.57081ZM16.7455 12.5039C16.7455 12.8203 16.6198 13.1239 16.396 13.3477C16.1722 13.5714 15.8687 13.6972 15.5522 13.6972H13.1656V10.1173C13.1656 9.80077 13.0399 9.49725 12.8161 9.27346C12.5923 9.04967 12.2888 8.92395 11.9723 8.92395C11.6558 8.92395 11.3523 9.04967 11.1285 9.27346C10.9047 9.49725 10.779 9.80077 10.779 10.1173V13.6972H8.39241C8.07592 13.6972 7.7724 13.5714 7.54861 13.3477C7.32483 13.1239 7.1991 12.8203 7.1991 12.5039V9.16261C7.19817 8.69931 7.30559 8.24221 7.51279 7.82782C7.71998 7.41343 8.02121 7.05323 8.39241 6.776L11.2325 4.63998C11.4472 4.4829 11.7063 4.39823 11.9723 4.39823C12.2384 4.39823 12.4975 4.4829 12.7122 4.63998L15.5522 6.776C15.9234 7.05323 16.2247 7.41343 16.4319 7.82782C16.6391 8.24221 16.7465 8.69931 16.7455 9.16261V12.5039Z" fill="black"/>
</svg>
