<svg width="24" height="24" viewBox="0 0 24 24" fill="none" xmlns="http://www.w3.org/2000/svg">
<path d="M11.982 0.900176C9.25346 0.89478 6.61667 1.89109 4.56588 3.70234C2.51509 5.51359 1.1911 8.01542 0.842104 10.7388C0.493109 13.4623 1.14307 16.2203 2.67015 18.4959C4.19722 20.7716 6.49657 22.4086 9.13715 23.1V20.4756L8.59528 20.4188L7.79377 20.3392L7.33092 20.2824C7.11318 20.2807 6.89808 20.2343 6.69874 20.1461C6.32944 19.955 6.03218 19.6479 5.85207 19.2713C5.7673 19.0495 5.66145 18.8364 5.53598 18.6351C5.2674 18.212 4.94053 17.8295 4.56514 17.4989C4.53031 17.465 4.50262 17.4244 4.48371 17.3795C4.4648 17.3346 4.45505 17.2864 4.45505 17.2376C4.45505 17.1889 4.4648 17.1406 4.48371 17.0957C4.50262 17.0508 4.53031 17.0102 4.56514 16.9763C4.62124 16.9115 4.69722 16.8674 4.78105 16.8509C4.86489 16.8344 4.95178 16.8466 5.02798 16.8854C5.51069 17.1479 5.95201 17.481 6.3375 17.8739C6.55397 18.0872 6.74699 18.3233 6.91323 18.5783C6.99966 18.6754 7.11413 18.743 7.24061 18.7714H7.46639H7.81635L8.59528 18.6578L9.35164 18.5783C9.59046 17.8869 10.0512 17.2953 10.6612 16.8968C10.0362 16.8198 9.42007 16.6828 8.82106 16.4878C7.80584 16.2259 6.91274 15.6168 6.29485 14.7649C5.67695 13.913 5.37275 12.8712 5.43438 11.8183C5.44768 10.76 5.84983 9.74419 6.56328 8.96665C6.28799 8.02489 6.25305 7.02849 6.46168 6.06954C6.47869 6.0061 6.50796 5.94667 6.54781 5.89463C6.58766 5.84259 6.63732 5.79897 6.69393 5.76626C6.75055 5.73355 6.81302 5.71239 6.87777 5.704C6.94252 5.6956 7.00827 5.70014 7.07128 5.71734C8.02428 5.89543 8.89505 6.37742 9.55484 7.09205C11.3895 6.49455 13.3647 6.49455 15.1993 7.09205C15.8442 6.38789 16.6937 5.90676 17.6264 5.71734C17.7536 5.68564 17.8879 5.70457 18.0015 5.7702C18.1151 5.83582 18.1991 5.94306 18.236 6.06954C18.4413 6.98503 18.4181 7.93745 18.1683 8.84168C18.9646 9.62738 19.4226 10.6962 19.4439 11.8183C19.4439 14.3064 17.8748 16.3628 14.2059 16.8854C14.6703 17.1812 15.0526 17.5906 15.3171 18.0753C15.5817 18.5601 15.7198 19.1045 15.7186 19.6576V22.8387C18.2263 21.962 20.3434 20.2181 21.6931 17.9175C23.0427 15.6169 23.5373 12.9089 23.0888 10.2757C22.6403 7.64244 21.2778 5.25482 19.2439 3.53794C17.2099 1.82105 14.6366 0.886327 11.982 0.900176Z" fill="black"/>
</svg>
