<svg width="24" height="24" viewBox="0 0 24 24" fill="none" xmlns="http://www.w3.org/2000/svg">
<path d="M2.66129 22.005L2.25018 22.2052C2.19868 22.235 2.14013 22.2505 2.08064 22.25C2.02114 22.2495 1.96285 22.2331 1.91183 22.2024C1.86081 22.1718 1.81891 22.128 1.79049 22.0757C1.76207 22.0234 1.74815 21.9644 1.7502 21.9049V2.04991C1.74901 1.99237 1.76271 1.9355 1.78997 1.88482C1.81722 1.83415 1.85711 1.79139 1.90575 1.76071C1.9679 1.74643 2.03248 1.74643 2.09463 1.76071H2.25018L2.66129 1.98317L12.661 11.9941L2.66129 22.005ZM15.9943 8.6571L7.36117 4.30793L13.8388 10.8817L15.9943 8.6571ZM13.8277 13.1843L7.36117 19.6802L16.0054 15.331L13.8277 13.1843ZM22.0608 12.3166C22.1191 12.2918 22.1684 12.2497 22.2022 12.196C22.2359 12.1424 22.2525 12.0797 22.2497 12.0163C22.2518 11.9517 22.235 11.8878 22.2015 11.8325C22.1679 11.7772 22.1191 11.7329 22.0608 11.7049L17.6165 9.48022L15.0276 11.9941L17.5387 14.5747L22.0608 12.3166Z" fill="black"/>
</svg>
