<svg width="24" height="24" viewBox="0 0 24 24" fill="none" xmlns="http://www.w3.org/2000/svg">
<path d="M21.9212 22.7497H7.70991C6.86686 22.7582 6.03047 22.5997 5.249 22.2833C4.46753 21.9669 3.75646 21.4988 3.15681 20.9062C2.55717 20.3135 2.08082 19.608 1.75527 18.8303C1.42971 18.0526 1.26139 17.2181 1.26001 16.375V2.06699C1.26001 1.85031 1.34608 1.6425 1.4993 1.48929C1.65251 1.33608 1.86032 1.25 2.077 1.25C2.29368 1.25 2.50148 1.33608 2.65469 1.48929C2.80791 1.6425 2.89399 1.85031 2.89399 2.06699V16.375C2.89535 17.0035 3.0214 17.6256 3.26484 18.205C3.50828 18.7845 3.86427 19.3099 4.31219 19.7508C4.76011 20.1917 5.29107 20.5394 5.8743 20.7737C6.45753 21.008 7.08144 21.1242 7.70991 21.1157H21.9212C22.1379 21.1157 22.3457 21.2018 22.4989 21.355C22.6521 21.5082 22.7382 21.716 22.7382 21.9327C22.7382 22.1494 22.6521 22.3572 22.4989 22.5104C22.3457 22.6636 22.1379 22.7497 21.9212 22.7497ZM4.53871 16.375C4.53434 16.7917 4.61354 17.205 4.77163 17.5905C4.92972 17.976 5.16349 18.326 5.45913 18.6196C5.75477 18.9132 6.10627 19.1446 6.49286 19.3001C6.87946 19.4555 7.29329 19.5319 7.70991 19.5247H19.3842C19.8718 19.5247 20.3393 19.3311 20.6841 18.9863C21.0288 18.6416 21.2225 18.174 21.2225 17.6865V8.01165C21.2196 7.25229 20.916 6.525 20.378 5.98905C19.84 5.4531 19.1116 5.15219 18.3523 5.15219C16.5552 5.15039 14.8309 5.86177 13.5578 7.13016L9.13964 11.5483C8.70622 11.982 8.16447 12.2915 7.57081 12.4446C6.97715 12.5978 6.35329 12.5889 5.76419 12.4191H5.65669C5.5293 12.3883 5.39661 12.3867 5.26851 12.4144C5.14041 12.4421 5.02022 12.4983 4.91688 12.5789C4.81354 12.6595 4.72973 12.7624 4.6717 12.8799C4.61367 12.9974 4.58291 13.1265 4.58171 13.2576L4.53871 16.375Z" fill="black"/>
</svg>
