<svg width="24" height="24" viewBox="0 0 24 24" fill="none" xmlns="http://www.w3.org/2000/svg">
<path d="M16.4183 1.25H7.58175C5.89168 1.28099 4.28132 1.9742 3.09716 3.18047C1.91301 4.38673 1.24972 6.00965 1.25 7.7V16.3C1.24972 17.9904 1.91301 19.6133 3.09716 20.8195C4.28132 22.0258 5.89168 22.719 7.58175 22.75H16.4183C18.1083 22.719 19.7187 22.0258 20.9028 20.8195C22.087 19.6133 22.7503 17.9904 22.75 16.3V7.7C22.7503 6.00965 22.087 4.38673 20.9028 3.18047C19.7187 1.9742 18.1083 1.28099 16.4183 1.25ZM10.2263 16.4828C10.2394 16.5957 10.2284 16.7102 10.1942 16.8186C10.1599 16.927 10.1031 17.027 10.0274 17.1119C9.95181 17.1969 9.85906 17.2648 9.7553 17.3113C9.65153 17.3579 9.5391 17.3819 9.42537 17.3819C9.31165 17.3819 9.19922 17.3579 9.09545 17.3113C8.99169 17.2648 8.89894 17.1969 8.82331 17.1119C8.74767 17.027 8.69085 16.927 8.65659 16.8186C8.62233 16.7102 8.61139 16.5957 8.6245 16.4828V12.5805C8.61139 12.4675 8.62233 12.3531 8.65659 12.2446C8.69085 12.1362 8.74767 12.0362 8.82331 11.9513C8.89894 11.8664 8.99169 11.7984 9.09545 11.7519C9.19922 11.7054 9.31165 11.6813 9.42537 11.6813C9.5391 11.6813 9.65153 11.7054 9.7553 11.7519C9.85906 11.7984 9.95181 11.8664 10.0274 11.9513C10.1031 12.0362 10.1599 12.1362 10.1942 12.2446C10.2284 12.3531 10.2394 12.4675 10.2263 12.5805V16.4828ZM16.257 16.4828C16.2701 16.5957 16.2592 16.7102 16.2249 16.8186C16.1906 16.927 16.1338 17.027 16.0582 17.1119C15.9826 17.1969 15.8898 17.2648 15.786 17.3113C15.6823 17.3579 15.5698 17.3819 15.4561 17.3819C15.3424 17.3819 15.23 17.3579 15.1262 17.3113C15.0224 17.2648 14.9297 17.1969 14.8541 17.1119C14.7784 17.027 14.7216 16.927 14.6873 16.8186C14.6531 16.7102 14.6421 16.5957 14.6553 16.4828V6.87225C14.6421 6.75929 14.6531 6.64483 14.6873 6.53639C14.7216 6.42795 14.7784 6.32799 14.8541 6.24307C14.9297 6.15815 15.0224 6.09019 15.1262 6.04365C15.23 5.99712 15.3424 5.97306 15.4561 5.97306C15.5698 5.97306 15.6823 5.99712 15.786 6.04365C15.8898 6.09019 15.9826 6.15815 16.0582 6.24307C16.1338 6.32799 16.1906 6.42795 16.2249 6.53639C16.2592 6.64483 16.2701 6.75929 16.257 6.87225V16.4828Z" fill="black"/>
</svg>
