<svg width="24" height="24" viewBox="0 0 24 24" fill="none" xmlns="http://www.w3.org/2000/svg">
<path d="M16.4183 1.25H7.58175C5.89168 1.28099 4.28132 1.9742 3.09717 3.18047C1.91301 4.38673 1.24972 6.00965 1.25 7.7V16.3C1.2489 17.3719 1.51099 18.4276 2.01325 19.3745C2.54779 20.3895 3.34844 21.2398 4.3294 21.8345C5.31036 22.4291 6.43465 22.7456 7.58175 22.75H16.4183C17.5665 22.7446 18.6915 22.4265 19.6726 21.8299C20.6536 21.2333 21.4537 20.3807 21.9868 19.3638C22.4873 18.4201 22.7493 17.3682 22.75 16.3V7.7C22.7503 6.00965 22.087 4.38673 20.9028 3.18047C19.7187 1.9742 18.1083 1.28099 16.4183 1.25ZM21.1375 14.15H17.5685C16.9161 14.1437 16.2795 13.9484 15.7358 13.5878C15.192 13.2272 14.7644 12.7168 14.5048 12.1182L13.5695 9.96825C13.4792 9.75292 13.3255 9.57018 13.1288 9.4443C12.9322 9.31843 12.7019 9.25539 12.4685 9.26355C12.2352 9.27172 12.0098 9.35071 11.8224 9.49003C11.6351 9.62934 11.4945 9.82239 11.4195 10.0435L9.2695 16.171C9.19929 16.3942 9.0627 16.5906 8.87794 16.7342C8.69318 16.8777 8.46904 16.9615 8.23544 16.9743C8.00183 16.9872 7.76985 16.9285 7.57047 16.8061C7.37108 16.6837 7.21376 16.5034 7.1195 16.2893L6.7755 15.569C6.50529 14.9956 6.07811 14.5105 5.54348 14.1699C5.00884 13.8293 4.38864 13.6473 3.75475 13.6448H2.8625V7.7C2.8539 6.4378 3.3456 5.22359 4.23004 4.32304C5.11447 3.42249 6.31961 2.90893 7.58175 2.89475H16.4183C17.6804 2.90893 18.8855 3.42249 19.77 4.32304C20.6544 5.22359 21.1461 6.4378 21.1375 7.7V14.15Z" fill="black"/>
</svg>
