<svg width="24" height="24" viewBox="0 0 24 24" fill="none" xmlns="http://www.w3.org/2000/svg">
<path d="M12 1C9.82441 1 7.69767 1.64514 5.88873 2.85383C4.07979 4.06253 2.66989 5.78049 1.83733 7.79048C1.00477 9.80047 0.78693 12.0122 1.21137 14.146C1.6358 16.2798 2.68345 18.2398 4.22183 19.7782C5.76021 21.3165 7.72022 22.3642 9.85401 22.7886C11.9878 23.2131 14.1995 22.9952 16.2095 22.1627C18.2195 21.3301 19.9375 19.9202 21.1462 18.1113C22.3549 16.3023 23 14.1756 23 12C23 10.5555 22.7155 9.12506 22.1627 7.79048C21.6099 6.4559 20.7996 5.24327 19.7782 4.22182C18.7567 3.20038 17.5441 2.39013 16.2095 1.83732C14.8749 1.28452 13.4445 1 12 1ZM12.759 17.027C12.5251 17.1304 12.2722 17.1837 12.0165 17.1837C11.7608 17.1837 11.5079 17.1304 11.274 17.027C9.668 16.257 5.983 14.068 6.038 10.328C6.03093 9.53736 6.28943 8.76722 6.77209 8.14096C7.25475 7.5147 7.93364 7.06856 8.7 6.874C9.62969 6.62221 10.6203 6.73228 11.472 7.182C11.6392 7.27854 11.8289 7.32937 12.022 7.32937C12.2151 7.32937 12.4048 7.27854 12.572 7.182C13.0389 6.93666 13.5511 6.78959 14.0771 6.74986C14.603 6.71014 15.1315 6.77859 15.63 6.951C16.317 7.19044 16.9136 7.63564 17.3387 8.22607C17.7638 8.8165 17.9968 9.52351 18.006 10.251C17.885 14.431 14.343 16.4 12.759 17.027Z" fill="black"/>
</svg>
