<svg width="24" height="24" viewBox="0 0 24 24" fill="none" xmlns="http://www.w3.org/2000/svg">
<path d="M21.0369 7.75918L14.9275 2.45184C14.1143 1.75388 13.0777 1.37012 12.0056 1.37012C10.9336 1.37012 9.89697 1.75388 9.08379 2.45184L2.96382 7.75918C2.45977 8.19955 2.05655 8.74317 1.78154 9.35309C1.50654 9.96301 1.3662 10.6249 1.37007 11.2939V20.1784C1.37002 20.8204 1.6231 21.4366 2.07452 21.8935C2.52594 22.3505 3.13936 22.6114 3.78194 22.6197H7.39442C7.71839 22.6254 8.04024 22.5664 8.34106 22.4461C8.64189 22.3258 8.91563 22.1467 9.14623 21.9193C9.37683 21.6919 9.55964 21.4207 9.68393 21.1218C9.80823 20.8228 9.8715 20.5021 9.87003 20.1784V15.5928C9.86167 15.0663 10.0375 14.5534 10.3673 14.1425C10.697 13.7317 11.16 13.4488 11.6763 13.3425C11.9871 13.2824 12.3074 13.2924 12.6138 13.3718C12.9203 13.4512 13.2051 13.598 13.4475 13.8014C13.6898 14.0049 13.8836 14.2599 14.0147 14.5478C14.1458 14.8357 14.2108 15.1492 14.205 15.4654V20.1784C14.2021 20.8176 14.4514 21.4322 14.8988 21.8892C15.3463 22.3461 15.9559 22.6086 16.5956 22.6197H20.2081C20.8507 22.6114 21.4641 22.3505 21.9155 21.8935C22.3669 21.4366 22.62 20.8204 22.62 20.1784V11.2833C22.6223 10.6171 22.4822 9.9582 22.2092 9.35048C21.9362 8.74275 21.5365 8.20024 21.0369 7.75918Z" fill="black"/>
</svg>
