<svg width="24" height="24" viewBox="0 0 24 24" fill="none" xmlns="http://www.w3.org/2000/svg">
<path d="M20.3644 7.13602L14.917 2.33324C14.1306 1.63539 13.1157 1.25 12.0643 1.25C11.0129 1.25 9.99803 1.63539 9.21165 2.33324L3.72123 7.06081C2.9481 7.72663 2.32727 8.55099 1.90087 9.47794C1.47448 10.4049 1.2525 11.4127 1.25 12.433L1.26074 18.4499C1.26074 19.5898 1.71355 20.683 2.51954 21.4889C3.32553 22.2949 4.41869 22.7477 5.55853 22.7477C7.90083 22.7477 16.0989 22.7477 18.4519 22.7477C19.577 22.748 20.6573 22.307 21.4609 21.5195C22.2645 20.732 22.7272 19.6608 22.7497 18.5359V12.4975C22.7592 11.4852 22.5511 10.4826 22.1396 9.5576C21.7281 8.63261 21.1227 7.8068 20.3644 7.13602ZM16.303 19.7071H7.70743C7.49371 19.7071 7.28874 19.6222 7.13762 19.471C6.98649 19.3199 6.90159 19.1149 6.90159 18.9012C6.90159 18.6875 6.98649 18.4825 7.13762 18.3314C7.28874 18.1803 7.49371 18.0954 7.70743 18.0954H16.303C16.5167 18.0954 16.7217 18.1803 16.8728 18.3314C17.0239 18.4825 17.1088 18.6875 17.1088 18.9012C17.1088 19.1149 17.0239 19.3199 16.8728 19.471C16.7217 19.6222 16.5167 19.7071 16.303 19.7071Z" fill="black"/>
</svg>
