<svg width="24" height="24" viewBox="0 0 24 24" fill="none" xmlns="http://www.w3.org/2000/svg">
<path d="M13.846 1.4128C16.3388 1.84709 18.5985 3.1464 20.2272 5.08201C21.8559 7.01761 22.7492 9.46543 22.75 11.9946C22.75 12.2768 22.75 12.5481 22.75 12.8194C21.2919 12.1618 19.944 11.2832 18.754 10.2147C18.8883 9.94096 18.9589 9.64041 18.9604 9.33556C18.9604 8.81457 18.7533 8.31491 18.3847 7.94651C18.0161 7.57812 17.5162 7.37115 16.9949 7.37115C16.777 7.37272 16.5606 7.40937 16.3543 7.47968C15.0859 5.66423 14.2298 3.59361 13.846 1.4128ZM8.22121 2.30275C8.22585 3.26361 8.28021 4.22358 8.38409 5.17882C8.73615 5.28083 9.05242 5.47973 9.29677 5.75282C9.54113 6.02591 9.70374 6.36217 9.76602 6.72321C9.8283 7.08425 9.78774 7.45552 9.64899 7.79463C9.51023 8.13374 9.27887 8.42701 8.98131 8.64096C9.47098 10.6873 10.1999 12.669 11.153 14.5451H11.3702C11.8257 14.5461 12.2669 14.7043 12.6191 14.9931C12.9713 15.2818 13.2129 15.6833 13.303 16.1296C14.5684 16.3173 15.846 16.4116 17.1253 16.4118C18.7685 16.4053 20.4077 16.2491 22.0225 15.9451C22.205 15.4751 22.3538 14.9928 22.4677 14.5016C20.6203 13.7132 18.9231 12.6117 17.451 11.2457C17.2945 11.2841 17.1343 11.3059 16.9732 11.3108C16.4491 11.3108 15.9464 11.1027 15.5758 10.7323C15.2052 10.3619 14.997 9.85944 14.997 9.33556C14.9987 9.08655 15.0466 8.84001 15.1381 8.60841C13.5785 6.42506 12.5589 3.90333 12.1629 1.25H12.0109C10.7271 1.25614 9.45479 1.49137 8.25379 1.9446C8.22121 2.05313 8.22121 2.22678 8.22121 2.30275ZM14.7364 22.381C13.5641 21.162 12.4996 19.8438 11.5548 18.4413H11.3811C10.9364 18.4411 10.5048 18.291 10.156 18.0153C9.80725 17.7396 9.56171 17.3543 9.45909 16.9219C6.58833 16.1324 3.85619 14.9061 1.35859 13.2861C1.66927 15.8926 2.92476 18.2949 4.88762 20.0388C6.85048 21.7827 9.38464 22.7472 12.0109 22.75C13.5076 22.7414 14.9863 22.4236 16.3543 21.8166C15.8186 22.0447 15.267 22.2333 14.7038 22.381H14.7364ZM17.1361 18.0398C15.7588 18.0377 14.3834 17.9362 13.0207 17.7359C14.0181 19.1836 15.1526 20.532 16.4086 21.7624C18.329 20.9006 19.9529 19.4926 21.0778 17.7142C19.7612 17.9033 18.4336 18.0048 17.1035 18.018L17.1361 18.0398ZM9.70884 15.3699C8.68741 13.3358 7.90404 11.1908 7.37424 8.97741C6.94048 8.87519 6.55369 8.6302 6.27602 8.2818C5.99834 7.93341 5.8459 7.50183 5.84318 7.05641C5.84298 6.72401 5.92763 6.39705 6.08915 6.10647C6.25066 5.8159 6.48368 5.57132 6.76616 5.39589C6.67929 4.50593 6.58157 3.60512 6.58157 2.70432C5.05401 3.58815 3.76822 4.83504 2.8382 6.33444C1.90818 7.83383 1.36266 9.53942 1.25 11.3C3.81521 13.1315 6.67655 14.5082 9.70884 15.3699Z" fill="black"/>
</svg>
