<svg width="24" height="24" viewBox="0 0 24 24" fill="none" xmlns="http://www.w3.org/2000/svg">
<path d="M10.293 10.0972L11.1745 12.7525H9.12122L10.293 10.0972ZM22.7737 16.3C22.7738 17.9977 22.1046 19.627 20.9112 20.8344C19.7179 22.0419 18.0965 22.7302 16.399 22.75H7.66997C5.97228 22.7501 4.343 22.0809 3.13553 20.8875C1.92806 19.6941 1.23978 18.0728 1.21997 16.3753V7.7C1.21963 6.01147 1.88145 4.39014 3.0633 3.18417C4.24515 1.9782 5.85278 1.28377 7.54097 1.25H16.27C17.9677 1.24988 19.5969 1.9191 20.8044 3.11248C22.0119 4.30586 22.7002 5.92718 22.72 7.62475L22.7737 16.3ZM14.0447 16.3L11.1637 7.614C11.115 7.45943 11.0196 7.32373 10.8906 7.22557C10.7616 7.1274 10.6054 7.07157 10.4435 7.06575C10.2816 7.05633 10.1208 7.09659 9.98245 7.18112C9.84412 7.26566 9.73492 7.39043 9.66947 7.53875L5.81022 16.2248C5.75803 16.3228 5.72666 16.4305 5.71808 16.5413C5.70949 16.652 5.72388 16.7633 5.76033 16.8682C5.79678 16.9731 5.85452 17.0694 5.92991 17.1509C6.00531 17.2325 6.09674 17.2976 6.19847 17.3421C6.30021 17.3867 6.41005 17.4097 6.52111 17.4099C6.63217 17.41 6.74206 17.3871 6.84388 17.3428C6.9457 17.2984 7.03726 17.2335 7.11282 17.1521C7.18838 17.0707 7.24631 16.9746 7.28297 16.8698L8.35797 14.365H11.669L12.4752 16.8053C12.5292 16.965 12.6318 17.1037 12.7687 17.2021C12.9056 17.3004 13.0699 17.3534 13.2385 17.3535C13.3238 17.369 13.4112 17.369 13.4965 17.3535C13.6043 17.3245 13.7049 17.2734 13.7919 17.2034C13.8789 17.1335 13.9505 17.0462 14.002 16.9472C14.0536 16.8481 14.084 16.7395 14.0913 16.6281C14.0987 16.5167 14.0828 16.405 14.0447 16.3ZM17.861 10.6778C17.861 10.4639 17.776 10.2588 17.6248 10.1076C17.4736 9.95644 17.2686 9.8715 17.0547 9.8715C16.8409 9.8715 16.6358 9.95644 16.4846 10.1076C16.3334 10.2588 16.2485 10.4639 16.2485 10.6778V16.558C16.2485 16.7718 16.3334 16.9769 16.4846 17.1281C16.6358 17.2793 16.8409 17.3643 17.0547 17.3643C17.2686 17.3643 17.4736 17.2793 17.6248 17.1281C17.776 16.9769 17.861 16.7718 17.861 16.558V10.6778ZM18.119 7.88275C18.119 7.67014 18.0559 7.4623 17.9378 7.28551C17.8197 7.10873 17.6518 6.97094 17.4554 6.88958C17.2589 6.80822 17.0428 6.78693 16.8342 6.82841C16.6257 6.86988 16.4342 6.97227 16.2838 7.12261C16.1335 7.27295 16.0311 7.4645 15.9896 7.67303C15.9481 7.88156 15.9694 8.0977 16.0508 8.29414C16.1322 8.49057 16.27 8.65846 16.4467 8.77658C16.6235 8.8947 16.8314 8.95775 17.044 8.95775C17.1861 8.95776 17.3267 8.9296 17.4579 8.87491C17.589 8.82021 17.708 8.74006 17.8079 8.6391C17.9079 8.53813 17.9869 8.41836 18.0402 8.28669C18.0936 8.15502 18.1204 8.01407 18.119 7.872V7.88275Z" fill="black"/>
</svg>
