<svg width="24" height="24" viewBox="0 0 24 24" fill="none" xmlns="http://www.w3.org/2000/svg">
<path d="M20.0477 5.02705L14.0081 1.53508C13.3964 1.18447 12.7036 1 11.9986 1C11.2935 1 10.6007 1.18447 9.98904 1.53508L3.94948 5.02705C3.33769 5.37897 2.82969 5.8862 2.47683 6.49744C2.12397 7.10868 1.93876 7.80225 1.93995 8.50803V15.492C1.93876 16.1977 2.12397 16.8913 2.47683 17.5026C2.82969 18.1138 3.33769 18.621 3.94948 18.973L9.98904 22.4649C10.6007 22.8155 11.2935 23 11.9986 23C12.7036 23 13.3964 22.8155 14.0081 22.4649L20.0477 18.973C20.6595 18.621 21.1675 18.1138 21.5203 17.5026C21.8732 16.8913 22.0584 16.1977 22.0572 15.492V8.50803C22.0584 7.80225 21.8732 7.10868 21.5203 6.49744C21.1675 5.8862 20.6595 5.37897 20.0477 5.02705ZM10.9005 7.32208C10.9005 7.03085 11.0162 6.75154 11.2221 6.54561C11.428 6.33967 11.7073 6.22398 11.9986 6.22398C12.2898 6.22398 12.5691 6.33967 12.775 6.54561C12.981 6.75154 13.0967 7.03085 13.0967 7.32208V12.4392C13.0967 12.7305 12.981 13.0098 12.775 13.2157C12.5691 13.4217 12.2898 13.5373 11.9986 13.5373C11.7073 13.5373 11.428 13.4217 11.2221 13.2157C11.0162 13.0098 10.9005 12.7305 10.9005 12.4392V7.32208ZM11.9986 17.776C11.7276 17.776 11.4626 17.6958 11.2371 17.5454C11.0117 17.3951 10.8357 17.1814 10.7315 16.9312C10.6273 16.681 10.5995 16.4056 10.6516 16.1396C10.7037 15.8737 10.8333 15.6291 11.0242 15.4367C11.215 15.2443 11.4586 15.1127 11.7241 15.0585C11.9897 15.0043 12.2653 15.0299 12.5163 15.1321C12.7673 15.2343 12.9824 15.4086 13.1346 15.6328C13.2867 15.8571 13.369 16.1214 13.3712 16.3924C13.3727 16.5736 13.3382 16.7533 13.2699 16.9211C13.2016 17.0889 13.1007 17.2415 12.9731 17.3701C12.8455 17.4987 12.6937 17.6008 12.5264 17.6705C12.3591 17.7402 12.1798 17.776 11.9986 17.776Z" fill="black"/>
</svg>
