<svg width="24" height="24" viewBox="0 0 24 24" fill="none" xmlns="http://www.w3.org/2000/svg">
<path d="M12 1C9.82441 1 7.69767 1.64514 5.88873 2.85383C4.07979 4.06253 2.66989 5.78049 1.83733 7.79048C1.00477 9.80047 0.78693 12.0122 1.21137 14.146C1.6358 16.2798 2.68345 18.2398 4.22183 19.7782C5.76021 21.3165 7.72022 22.3642 9.85401 22.7886C11.9878 23.2131 14.1995 22.9952 16.2095 22.1627C18.2195 21.3301 19.9375 19.9202 21.1462 18.1113C22.3549 16.3023 23 14.1756 23 12C23 10.5555 22.7155 9.12506 22.1627 7.79048C21.6099 6.4559 20.7996 5.24327 19.7782 4.22182C18.7567 3.20038 17.5441 2.39013 16.2095 1.83732C14.8749 1.28452 13.4445 1 12 1ZM12 17.786C11.7083 17.786 11.4285 17.6701 11.2222 17.4638C11.0159 17.2575 10.9 16.9777 10.9 16.686V11.56C10.9 11.2683 11.0159 10.9885 11.2222 10.7822C11.4285 10.5759 11.7083 10.46 12 10.46C12.2917 10.46 12.5715 10.5759 12.7778 10.7822C12.9841 10.9885 13.1 11.2683 13.1 11.56V16.686C13.1 16.9777 12.9841 17.2575 12.7778 17.4638C12.5715 17.6701 12.2917 17.786 12 17.786ZM12 8.986C11.7285 8.98599 11.4631 8.90562 11.2372 8.75501C11.0114 8.6044 10.8351 8.3903 10.7308 8.1397C10.6264 7.88909 10.5985 7.61319 10.6507 7.34677C10.7028 7.08035 10.8327 6.83534 11.0239 6.64261C11.2151 6.44988 11.4591 6.31806 11.7251 6.26377C11.9911 6.20948 12.2672 6.23515 12.5186 6.33753C12.77 6.43992 12.9855 6.61444 13.1379 6.83911C13.2903 7.06378 13.3728 7.32853 13.375 7.6C13.3722 7.96482 13.2267 8.31406 12.9698 8.57306C12.7129 8.83205 12.3648 8.98026 12 8.986Z" fill="black"/>
</svg>
