<svg width="24" height="24" viewBox="0 0 24 24" fill="none" xmlns="http://www.w3.org/2000/svg">
<path d="M19.046 16.2704H13.2224V10.1816C14.2955 9.84853 15.2135 9.14179 15.81 8.18965C16.4065 7.23752 16.6419 6.1031 16.4734 4.99226C16.305 3.88141 15.7438 2.86777 14.8919 2.13528C14.04 1.40279 12.9536 1 11.8301 1C10.7066 1 9.62025 1.40279 8.76831 2.13528C7.91637 2.86777 7.35526 3.88141 7.18681 4.99226C7.01835 6.1031 7.25372 7.23752 7.8502 8.18965C8.44668 9.14179 9.36474 9.84853 10.4378 10.1816V16.2704H7.9404V15.5189C7.94042 15.301 7.85462 15.0919 7.70157 14.9368C7.54853 14.7817 7.34056 14.6931 7.12267 14.6902H6.2718C6.05391 14.6931 5.84594 14.7817 5.6929 14.9368C5.53985 15.0919 5.45405 15.301 5.45407 15.5189V16.2704H4.95681C4.26809 16.2704 3.60758 16.5439 3.12058 17.0309C2.63358 17.5179 2.35999 18.1785 2.35999 18.8672V20.4142C2.36291 21.101 2.63779 21.7587 3.12447 22.2433C3.61116 22.7279 4.27 23 4.95681 23H19.046C19.7328 23 20.3916 22.7279 20.8783 22.2433C21.365 21.7587 21.6399 21.101 21.6428 20.4142V18.8672C21.6428 18.5262 21.5756 18.1885 21.4451 17.8734C21.3146 17.5584 21.1233 17.2721 20.8822 17.0309C20.6411 16.7898 20.3548 16.5985 20.0397 16.468C19.7247 16.3375 19.387 16.2704 19.046 16.2704ZM9.8521 4.28076C9.8521 4.08188 9.91108 3.88746 10.0216 3.72209C10.1321 3.55672 10.2891 3.42784 10.4729 3.35173C10.6566 3.27562 10.8588 3.2557 11.0539 3.2945C11.2489 3.3333 11.4281 3.42908 11.5687 3.56971C11.7094 3.71034 11.8051 3.88952 11.8439 4.08458C11.8827 4.27964 11.8628 4.48183 11.7867 4.66558C11.7106 4.84932 11.5817 5.00637 11.4163 5.11687C11.251 5.22736 11.0566 5.28634 10.8577 5.28634C10.591 5.28634 10.3352 5.18039 10.1466 4.99181C9.95805 4.80323 9.8521 4.54746 9.8521 4.28076Z" fill="black"/>
</svg>
