<svg width="24" height="24" viewBox="0 0 24 24" fill="none" xmlns="http://www.w3.org/2000/svg">
<path d="M18.8647 1H5.1355C4.7455 0.999454 4.35975 1.08001 4.00328 1.23644C3.6468 1.39287 3.32759 1.62168 3.06634 1.90801C2.8051 2.19434 2.60768 2.5318 2.48688 2.89847C2.36608 3.26514 2.32462 3.65283 2.36518 4.03638L3.94504 19.0312C3.99986 19.5759 4.21909 20.0917 4.57425 20.5116C4.92941 20.9314 5.40407 21.2359 5.93655 21.3855L11.2324 22.8927C11.734 23.0358 12.2662 23.0358 12.7678 22.8927L18.0859 21.3855C18.6198 21.2331 19.0956 20.9266 19.4524 20.5052C19.8091 20.0838 20.0306 19.5668 20.0885 19.0202L21.635 4.03638C21.6756 3.65283 21.6341 3.26514 21.5133 2.89847C21.3925 2.5318 21.1951 2.19434 20.9339 1.90801C20.6726 1.62168 20.3534 1.39287 19.9969 1.23644C19.6404 1.08001 19.2547 0.999454 18.8647 1ZM11.1879 16.996C11.1879 17.1257 11.1578 17.2536 11.1 17.3699C11.0421 17.4863 10.958 17.5879 10.8541 17.6671C10.7101 17.7749 10.5342 17.8329 10.3535 17.8321C10.2723 17.8428 10.1899 17.8428 10.1087 17.8321L6.6486 16.809C6.43532 16.7453 6.25607 16.6009 6.14982 16.4073C6.04357 16.2136 6.01891 15.9864 6.08119 15.7748C6.14315 15.5648 6.28698 15.3876 6.48102 15.2824C6.67506 15.1772 6.90343 15.1525 7.11588 15.2138L9.50793 15.9179V7.30379C9.49427 7.18668 9.50582 7.06805 9.5418 6.95567C9.57778 6.84329 9.63739 6.7397 9.71671 6.6517C9.79604 6.56371 9.89328 6.49329 10.0021 6.44507C10.1108 6.39686 10.2287 6.37193 10.3479 6.37193C10.4671 6.37193 10.585 6.39686 10.6938 6.44507C10.8026 6.49329 10.8998 6.56371 10.9791 6.6517C11.0585 6.7397 11.1181 6.84329 11.154 6.95567C11.19 7.06805 11.2016 7.18668 11.1879 7.30379V16.996ZM17.2515 7.82085L14.3588 8.27191V12.0014L16.7953 11.6933C16.9142 11.6756 17.0355 11.6839 17.1508 11.7175C17.2661 11.7511 17.3725 11.8093 17.4627 11.8879C17.5528 11.9665 17.6244 12.0637 17.6725 12.1727C17.7206 12.2816 17.744 12.3996 17.741 12.5184V15.8188C17.741 15.9974 17.6824 16.1711 17.5741 16.3139C17.4658 16.4567 17.3135 16.561 17.1402 16.6109L13.8025 17.5791C13.5965 17.6179 13.3833 17.5797 13.2043 17.4718C13.0252 17.364 12.8931 17.1942 12.8335 16.9955C12.7739 16.7967 12.7911 16.5832 12.8817 16.3962C12.9724 16.2093 13.13 16.0623 13.3241 15.9839L16.0944 15.1918V13.4976L13.6578 13.7946C13.5404 13.8125 13.4204 13.804 13.3067 13.7698C13.1931 13.7355 13.0887 13.6763 13.0014 13.5966C12.9106 13.521 12.8376 13.4267 12.7877 13.3203C12.7377 13.2138 12.7119 13.0978 12.7121 12.9805V7.60082C12.71 7.40143 12.7809 7.208 12.9118 7.05632C13.0427 6.90463 13.2247 6.80496 13.4242 6.77572L17.0178 6.21465C17.2387 6.18272 17.4634 6.23729 17.6442 6.36674C17.825 6.49619 17.9475 6.69029 17.9858 6.90774C18.0078 7.12454 17.9434 7.3413 17.8063 7.51185C17.6691 7.68241 17.4701 7.79327 17.2515 7.82085Z" fill="black"/>
</svg>
