<svg width="24" height="24" viewBox="0 0 24 24" fill="none" xmlns="http://www.w3.org/2000/svg">
<path d="M15.1175 10.4412C15.1196 10.7504 15.0297 11.0533 14.8593 11.3113C14.6888 11.5692 14.4455 11.7707 14.1602 11.89C13.875 12.0093 13.5607 12.0411 13.2573 11.9813C12.954 11.9215 12.6752 11.7728 12.4566 11.5542C12.2379 11.3355 12.0893 11.0568 12.0295 10.7534C11.9697 10.4501 12.0014 10.1358 12.1208 9.8505C12.2401 9.56525 12.4415 9.32192 12.6995 9.15146C12.9575 8.981 13.2603 8.89112 13.5695 8.89325C13.9801 8.89325 14.3738 9.05634 14.6641 9.34664C14.9544 9.63695 15.1175 10.0307 15.1175 10.4412ZM22.75 6.797V17.203C22.7514 17.9318 22.6089 18.6538 22.3306 19.3274C22.0524 20.001 21.6438 20.6131 21.1285 21.1285C20.6131 21.6438 20.0011 22.0524 19.3274 22.3306C18.6538 22.6089 17.9318 22.7514 17.203 22.75H6.79701C6.06817 22.7514 5.34622 22.6089 4.67259 22.3306C3.99896 22.0524 3.3869 21.6438 2.87153 21.1285C2.35616 20.6131 1.94763 20.001 1.66937 19.3274C1.3911 18.6538 1.24859 17.9318 1.25001 17.203V6.797C1.25001 5.32584 1.83442 3.91494 2.87469 2.87468C3.91495 1.83441 5.32585 1.25 6.79701 1.25H17.203C18.6742 1.25 20.0851 1.83441 21.1253 2.87468C22.1656 3.91494 22.75 5.32584 22.75 6.797ZM18.2995 10.4412C18.2415 9.22437 17.7173 8.07653 16.8356 7.23585C15.9539 6.39517 14.7824 5.92618 13.5641 5.92618C12.3459 5.92618 11.1744 6.39517 10.2927 7.23585C9.41098 8.07653 8.88675 9.22437 8.82876 10.4412C8.83204 10.9264 8.90814 11.4084 9.05451 11.871L5.93701 14.9885C5.8432 15.0853 5.7738 15.2031 5.73454 15.3321C5.69529 15.4611 5.68731 15.5976 5.71126 15.7302L6.02301 17.3105C6.05361 17.4713 6.13123 17.6195 6.24604 17.7362C6.36085 17.8529 6.5077 17.933 6.66801 17.9662L8.26976 18.278C8.40077 18.3038 8.53615 18.2967 8.66374 18.2573C8.79133 18.2179 8.90714 18.1475 9.00076 18.0522L9.71026 17.375L8.56001 16.3C8.40902 16.1488 8.32422 15.9439 8.32422 15.7302C8.32422 15.5166 8.40902 15.3117 8.56001 15.1605C8.71118 15.0095 8.9161 14.9247 9.12976 14.9247C9.34341 14.9247 9.54833 15.0095 9.69951 15.1605L10.882 16.2892L12.1505 15.0315C12.6191 15.1838 13.1091 15.26 13.6018 15.2572C14.2275 15.2531 14.8462 15.1248 15.422 14.8798C15.9978 14.6349 16.5193 14.2781 16.9562 13.8301C17.3931 13.3822 17.7369 12.852 17.9674 12.2703C18.198 11.6886 18.3109 11.0669 18.2995 10.4412Z" fill="black"/>
</svg>
