<svg width="24" height="24" viewBox="0 0 24 24" fill="none" xmlns="http://www.w3.org/2000/svg">
<path d="M20.8 20.7165H3.2C2.61652 20.7165 2.05695 20.4847 1.64437 20.0722C1.23178 19.6596 1 19.1 1 18.5165H23C23 19.1 22.7682 19.6596 22.3556 20.0722C21.9431 20.4847 21.3835 20.7165 20.8 20.7165ZM21.9 16.8665V4.53502C21.8971 4.20041 21.7629 3.88032 21.5263 3.6437C21.2897 3.40709 20.9696 3.27289 20.635 3.27002H3.365C3.03039 3.27289 2.7103 3.40709 2.47368 3.6437C2.23707 3.88032 2.10287 4.20041 2.1 4.53502V16.8665H21.9Z" fill="black"/>
</svg>
