<svg width="24" height="24" viewBox="0 0 24 24" fill="none" xmlns="http://www.w3.org/2000/svg">
<path d="M9.88459 18.068V22.75C9.69563 22.736 9.51076 22.6879 9.3389 22.6081L1.90669 18.3736C1.74285 18.2816 1.60553 18.1489 1.50802 17.9883C1.41051 17.8277 1.35611 17.6447 1.3501 17.4569V3.45464L1.50289 3.56377L5.46455 5.8993L5.56277 15.4924L9.84093 18.068M18.3972 13.1678V8.36579L14.3155 5.92112C14.2213 6.08745 14.1723 6.27563 14.1737 6.46681V10.6904L18.4409 13.1678H18.3972ZM13.5734 11.6399L13.1041 11.3234L9.97189 13.0914L6.69779 14.914L9.88459 16.8348L16.2473 13.1896L13.5734 11.6399ZM6.55592 5.88838L6.63231 13.648L9.42621 12.1092L9.97189 11.8145V4.17494C9.98327 4.07704 9.98327 3.97816 9.97189 3.88027C9.94968 3.78771 9.91283 3.69929 9.86276 3.61834L6.55592 5.30996V5.88838ZM6.0648 4.36047L8.82596 2.85438L6.13028 1.38104C5.96939 1.29419 5.78926 1.24916 5.60643 1.25007C5.42202 1.24781 5.24063 1.29694 5.08257 1.39195L3.48918 2.27596L2.39781 2.85438L5.53003 4.65514L6.0648 4.36047ZM10.976 22.0734L11.0633 22.248L17.9061 18.2645C17.9836 18.2124 18.0566 18.154 18.1244 18.0899C18.2256 17.9879 18.3056 17.8669 18.3599 17.734C18.4142 17.601 18.4417 17.4586 18.4409 17.315V13.1678L10.9214 17.4569L10.976 22.0734ZM22.5335 5.93204C22.4883 5.85272 22.4333 5.77939 22.3698 5.71376C22.3032 5.6437 22.2259 5.58475 22.1406 5.53915L18.9866 3.69474C18.8203 3.60046 18.6321 3.55154 18.4409 3.55286C18.2497 3.55154 18.0615 3.60046 17.8952 3.69474L15.2868 5.21174L19.0302 7.39447L19.5432 7.68914L22.5663 5.8993L22.5335 5.93204ZM20.067 8.66045L19.5323 8.98786V12.5239L22.1406 11.0069L22.2061 10.9523C22.4303 10.7933 22.5862 10.5556 22.6427 10.2866C22.6533 10.2142 22.6533 10.1407 22.6427 10.0683V7.12163L20.067 8.66045Z" fill="black"/>
</svg>
