<svg width="24" height="24" viewBox="0 0 24 24" fill="none" xmlns="http://www.w3.org/2000/svg">
<path d="M16.1925 1.25H7.8075C6.06922 1.25284 4.40294 1.94463 3.17379 3.17379C1.94463 4.40294 1.25284 6.06922 1.25 7.8075V16.1925C1.25284 17.9308 1.94463 19.5971 3.17379 20.8262C4.40294 22.0554 6.06922 22.7472 7.8075 22.75H16.1925C17.9308 22.7472 19.5971 22.0554 20.8262 20.8262C22.0554 19.5971 22.7472 17.9308 22.75 16.1925V7.8075C22.7472 6.06922 22.0554 4.40294 20.8262 3.17379C19.5971 1.94463 17.9308 1.25284 16.1925 1.25ZM13.7415 14.881C13.9273 15.0683 14.0315 15.3213 14.0315 15.5851C14.0315 15.8489 13.9273 16.102 13.7415 16.2893C13.5533 16.4689 13.303 16.569 13.0428 16.5688C12.772 16.5593 12.5147 16.448 12.3225 16.257L8.775 12.6128C8.68521 12.5183 8.61519 12.407 8.56904 12.2851C8.52289 12.1633 8.50154 12.0335 8.50625 11.9033C8.50532 11.7723 8.5316 11.6426 8.58341 11.5223C8.63522 11.402 8.71144 11.2938 8.80725 11.2045L12.4838 7.7C12.6789 7.54334 12.9257 7.46558 13.1755 7.48208C13.4252 7.49857 13.6596 7.60813 13.8325 7.78909C14.0054 7.97006 14.1041 8.20928 14.1091 8.45949C14.1142 8.7097 14.0252 8.95271 13.8597 9.1405L10.925 12L13.7415 14.881Z" fill="black"/>
</svg>
