<svg width="24" height="24" viewBox="0 0 24 24" fill="none" xmlns="http://www.w3.org/2000/svg">
<path d="M18.8231 1H5.17691C4.31746 0.999877 3.49237 1.33019 2.87942 1.91976C2.26647 2.50933 1.91474 3.31097 1.90002 4.15192V16.2324C1.90002 17.0829 2.24527 17.8986 2.8598 18.5C3.47434 19.1014 4.30783 19.4393 5.17691 19.4393H6.45625C6.79991 19.4369 7.14027 19.505 7.45535 19.6393C7.77043 19.7736 8.05322 19.9711 8.28547 20.219L10.1932 22.2398C10.427 22.48 10.7082 22.6712 11.0197 22.8019C11.3312 22.9326 11.6667 23 12.0056 23C12.3446 23 12.68 22.9326 12.9916 22.8019C13.3031 22.6712 13.5843 22.48 13.818 22.2398L15.8492 20.1531C16.0814 19.9163 16.3602 19.728 16.6688 19.5997C16.9775 19.4713 17.3095 19.4055 17.6448 19.4063H18.767C19.1992 19.4136 19.6286 19.3371 20.0305 19.1813C20.4324 19.0254 20.7988 18.7933 21.1086 18.4983C21.4184 18.2033 21.6655 17.8512 21.8356 17.4623C22.0058 17.0734 22.0956 16.6554 22.1 16.2324V4.15192C22.0853 3.31097 21.7336 2.50933 21.1206 1.91976C20.5077 1.33019 19.6826 0.999877 18.8231 1ZM17.2071 10.1043L15.8156 14.4972C15.7423 14.7344 15.5943 14.9428 15.3928 15.0927C15.1912 15.2426 14.9464 15.3263 14.6934 15.3319H12C11.6216 15.3343 11.2522 15.2189 10.9451 15.0024L9.53114 13.9042V13.8273C9.53114 14.0487 9.44128 14.261 9.28133 14.4175C9.12138 14.574 8.90445 14.662 8.67825 14.662H7.51114C7.28494 14.662 7.068 14.574 6.90805 14.4175C6.7481 14.261 6.65825 14.0487 6.65825 13.8273V8.18242C6.65825 7.96105 6.7481 7.74876 6.90805 7.59223C7.068 7.4357 7.28494 7.34776 7.51114 7.34776H8.63336C8.85956 7.34776 9.07649 7.4357 9.23644 7.59223C9.39639 7.74876 9.48625 7.96105 9.48625 8.18242V8.81939L11.6072 5.67846C11.7605 5.46342 11.9828 5.3047 12.2388 5.22754C12.4948 5.15039 12.7699 5.15923 13.0202 5.25266C13.2704 5.34609 13.4816 5.51875 13.6201 5.74317C13.7586 5.96758 13.8164 6.23087 13.7844 6.49115L13.5038 8.06161C13.4876 8.15069 13.4913 8.24216 13.5146 8.3297C13.538 8.41725 13.5804 8.49881 13.6391 8.56874C13.6978 8.63868 13.7712 8.69534 13.8544 8.73482C13.9376 8.7743 14.0286 8.79566 14.121 8.79743H16.3094C16.4636 8.79465 16.6163 8.82898 16.7538 8.8974C16.8914 8.96583 17.0097 9.06626 17.0983 9.18987C17.187 9.31348 17.2432 9.4565 17.2622 9.60637C17.2812 9.75623 17.2623 9.90836 17.2071 10.0494V10.1043Z" fill="black"/>
</svg>
