<svg width="24" height="24" viewBox="0 0 24 24" fill="none" xmlns="http://www.w3.org/2000/svg">
<path d="M22.789 10.3101L21.1911 8.68911C21.0797 8.57995 20.9916 8.44925 20.9323 8.30497C20.873 8.1607 20.8437 8.00587 20.8462 7.8499V5.5507C20.8447 5.23571 20.781 4.92412 20.6587 4.63383C20.5364 4.34354 20.358 4.08027 20.1336 3.85915C19.9093 3.63802 19.6435 3.4634 19.3515 3.34531C19.0595 3.22722 18.747 3.16799 18.432 3.17102H16.1328C15.9768 3.17347 15.822 3.14416 15.6777 3.08487C15.5335 3.02558 15.4028 2.93755 15.2936 2.82614L13.6842 1.2052C13.2358 0.757315 12.628 0.505737 11.9942 0.505737C11.3605 0.505737 10.7527 0.757315 10.3043 1.2052L8.68338 2.80315C8.57421 2.91456 8.44351 3.00259 8.29924 3.06188C8.15496 3.12117 8.00013 3.15048 7.84417 3.14803H5.54496C5.22997 3.14953 4.91838 3.21325 4.62809 3.33553C4.3378 3.45781 4.07454 3.63624 3.85341 3.86057C3.63228 4.0849 3.45766 4.35071 3.33957 4.64272C3.22148 4.93474 3.16225 5.24722 3.16528 5.56219V7.8614C3.16774 8.01736 3.13843 8.17219 3.07914 8.31647C3.01984 8.46074 2.93181 8.59144 2.8204 8.70061L1.19946 10.3101C0.751578 10.7584 0.5 11.3662 0.5 12C0.5 12.6337 0.751578 13.2415 1.19946 13.6899L2.79741 15.3108C2.90882 15.42 2.99685 15.5507 3.05614 15.695C3.11543 15.8392 3.14474 15.9941 3.14229 16.15V18.4492C3.14379 18.7642 3.20751 19.0758 3.32979 19.3661C3.45207 19.6564 3.6305 19.9197 3.85483 20.1408C4.07916 20.3619 4.34497 20.5365 4.63699 20.6546C4.92901 20.7727 5.24148 20.832 5.55646 20.8289H7.85566C8.01163 20.8265 8.16646 20.8558 8.31073 20.9151C8.45501 20.9744 8.58571 21.0624 8.69487 21.1738L10.3158 22.7947C10.7642 23.2426 11.372 23.4942 12.0057 23.4942C12.6395 23.4942 13.2473 23.2426 13.6956 22.7947L15.3051 21.1968C15.4143 21.0854 15.545 20.9974 15.6892 20.9381C15.8335 20.8788 15.9883 20.8495 16.1443 20.8519H18.4435C19.0777 20.8519 19.6859 20.6 20.1343 20.1516C20.5828 19.7031 20.8347 19.0949 20.8347 18.4607V16.1615C20.8322 16.0056 20.8615 15.8507 20.9208 15.7065C20.9801 15.5622 21.0682 15.4315 21.1796 15.3223L22.8005 13.7014C23.0233 13.4784 23.1997 13.2136 23.3198 12.9222C23.4398 12.6308 23.5011 12.3185 23.5 12.0033C23.4989 11.6882 23.4356 11.3763 23.3135 11.0857C23.1915 10.7951 23.0133 10.5315 22.789 10.3101ZM17.5008 11.8045L16.0753 16.4604C15.9987 16.7077 15.8467 16.9249 15.6406 17.0816C15.4345 17.2382 15.1845 17.3265 14.9257 17.3341H12.1092C11.7259 17.3312 11.3528 17.2108 11.0401 16.9893L9.59156 15.8396V15.7592C9.59156 15.9909 9.49951 16.2131 9.33566 16.377C9.17181 16.5408 8.94958 16.6329 8.71787 16.6329H7.56826C7.33654 16.6329 7.11432 16.5408 6.95047 16.377C6.78661 16.2131 6.69456 15.9909 6.69456 15.7592V9.85021C6.69456 9.61849 6.78661 9.39627 6.95047 9.23242C7.11432 9.06857 7.33654 8.97651 7.56826 8.97651H8.71787C8.94958 8.97651 9.17181 9.06857 9.33566 9.23242C9.49951 9.39627 9.59156 9.61849 9.59156 9.85021V10.517L11.7643 7.22912C11.9148 6.98574 12.1462 6.8031 12.4179 6.71321C12.6896 6.62332 12.9842 6.63191 13.2502 6.73748C13.5162 6.84306 13.7366 7.03887 13.8727 7.29061C14.0087 7.54235 14.0519 7.83395 13.9945 8.11431L13.7071 9.75825C13.6904 9.85244 13.6944 9.94916 13.719 10.0416C13.7436 10.1341 13.7881 10.22 13.8495 10.2934C13.9108 10.3668 13.9875 10.4259 14.0741 10.4665C14.1608 10.5071 14.2552 10.5283 14.3509 10.5285H16.5926C16.7438 10.5342 16.8917 10.5746 17.0248 10.6465C17.158 10.7184 17.2728 10.8199 17.3606 10.9432C17.4483 11.0664 17.5066 11.2082 17.5309 11.3575C17.5552 11.5069 17.5449 11.6598 17.5008 11.8045Z" fill="black"/>
</svg>
