<svg width="24" height="24" viewBox="0 0 24 24" fill="none" xmlns="http://www.w3.org/2000/svg">
<path d="M18.9178 1.00008H5.04198C4.17281 1.00263 3.33884 1.33108 2.71684 1.91582C2.09483 2.50057 1.73369 3.29563 1.70996 4.13249V16.2225C1.70996 17.0737 2.06101 17.89 2.68589 18.4918C3.31076 19.0937 4.15827 19.4318 5.04198 19.4318H6.34284C6.69185 19.4321 7.03709 19.5015 7.35707 19.6357C7.67705 19.77 7.96494 19.9662 8.20283 20.2122L10.1427 22.2345C10.3721 22.4687 10.6473 22.6568 10.9525 22.788C11.2577 22.9193 11.5868 22.991 11.9209 22.9992C12.2551 23.0074 12.5876 22.9518 12.8993 22.8356C13.211 22.7195 13.4958 22.5451 13.7372 22.3224C13.7704 22.296 13.801 22.2665 13.8285 22.2345L15.8939 20.1462C16.1315 19.9112 16.4153 19.7241 16.7288 19.5958C17.0422 19.4675 17.379 19.4006 17.7196 19.3989H18.8607C19.3012 19.4105 19.7396 19.338 20.1507 19.1854C20.5618 19.0328 20.9375 18.8031 21.2558 18.5098C21.5742 18.2164 21.829 17.8651 22.0055 17.4763C22.182 17.0875 22.2767 16.6688 22.284 16.2445V4.15447C22.2661 3.30805 21.9028 2.50248 21.2727 1.91213C20.6427 1.32178 19.7967 0.994124 18.9178 1.00008ZM12.3793 14.7937C12.255 14.8454 12.121 14.8721 11.9856 14.8721C11.8502 14.8721 11.7162 14.8454 11.5919 14.7937C10.3709 14.2551 6.68517 12.3647 6.74222 8.96848C6.74056 8.30836 6.9625 7.66574 7.37437 7.13811C7.78625 6.61049 8.36556 6.22668 9.02443 6.0449C9.47537 5.92739 9.94683 5.90189 10.4086 5.97002C10.8704 6.03816 11.3123 6.19843 11.706 6.44058C11.7734 6.48961 11.8555 6.51614 11.9399 6.51614C12.0244 6.51614 12.1065 6.48961 12.1739 6.44058C12.6033 6.18164 13.0871 6.01775 13.5903 5.96073C14.0935 5.90371 14.6036 5.95498 15.0837 6.11085C15.6861 6.32172 16.2081 6.70344 16.5809 7.20571C16.9537 7.70797 17.1597 8.30723 17.1719 8.92452C17.1491 12.7274 13.6002 14.354 12.3793 14.7937Z" fill="black"/>
</svg>
