<svg width="24" height="24" viewBox="0 0 24 24" fill="none" xmlns="http://www.w3.org/2000/svg">
<path d="M17.074 5.65754H13.9242C13.3645 5.65544 12.8181 5.48661 12.3547 5.1726C11.8914 4.85859 11.5321 4.41364 11.3227 3.89454L10.925 2.99154C10.7178 2.47477 10.3599 2.0323 9.89787 1.7217C9.43581 1.41111 8.89097 1.24676 8.33423 1.25005H6.18424C5.53767 1.24864 4.89717 1.37459 4.29928 1.62071C3.70139 1.86683 3.15784 2.22831 2.69965 2.6845C2.24147 3.14069 1.87762 3.68266 1.62889 4.27946C1.38016 4.87627 1.25141 5.51622 1.25 6.16279V17.0848C1.25 17.8296 1.39689 18.5672 1.68227 19.2552C1.96764 19.9433 2.3859 20.5683 2.91311 21.0945C3.44031 21.6207 4.06611 22.0378 4.75469 22.3218C5.44327 22.6059 6.18111 22.7514 6.92598 22.75H17.074C17.8188 22.7514 18.5567 22.6059 19.2452 22.3218C19.9338 22.0378 20.5596 21.6207 21.0868 21.0945C21.614 20.5683 22.0323 19.9433 22.3177 19.2552C22.6031 18.5672 22.7499 17.8296 22.7499 17.0848V11.3335C22.7514 10.5877 22.6055 9.84902 22.3208 9.15974C22.036 8.47046 21.618 7.84418 21.0906 7.31683C20.5633 6.78949 19.937 6.37145 19.2477 6.08671C18.5585 5.80197 17.8197 5.65612 17.074 5.65754ZM12.774 15.6443C12.503 15.8339 12.1802 15.9356 11.8495 15.9356C11.5187 15.9356 11.196 15.8339 10.925 15.6443C10.0112 15.0423 8.77498 14.0318 8.77498 12.8923C8.74808 12.6599 8.76741 12.4245 8.83184 12.1997C8.89627 11.9748 9.00454 11.7649 9.15042 11.5821C9.29629 11.3992 9.47689 11.2471 9.68182 11.1343C9.88675 11.0215 10.112 10.9504 10.3445 10.925C10.6219 10.9309 10.8926 11.0107 11.1289 11.1563C11.3651 11.3018 11.5582 11.5077 11.6882 11.7528C11.6986 11.7749 11.7132 11.7947 11.7313 11.811C11.7495 11.8274 11.7707 11.8399 11.7937 11.8479C11.8168 11.8559 11.8412 11.8593 11.8655 11.8577C11.8899 11.8561 11.9136 11.8497 11.9355 11.8388C11.9737 11.8215 12.0042 11.791 12.0215 11.7528C12.1541 11.5029 12.3523 11.2939 12.5947 11.1481C12.8371 11.0023 13.1146 10.9252 13.3975 10.925C13.6278 10.9414 13.8526 11.003 14.059 11.1066C14.2654 11.2101 14.4494 11.3533 14.6002 11.5282C14.751 11.703 14.8659 11.9059 14.938 12.1252C15.0102 12.3446 15.0383 12.576 15.0207 12.8063C15.0207 13.8813 13.72 14.9885 12.7955 15.6443H12.774Z" fill="black"/>
</svg>
