<svg width="24" height="24" viewBox="0 0 24 24" fill="none" xmlns="http://www.w3.org/2000/svg">
<path d="M18.5468 9.25875H18.751V7.0765C18.7453 5.5311 18.1282 4.05078 17.0344 2.95902C15.9406 1.86726 14.4592 1.25283 12.9138 1.25H11.0863C9.54084 1.25283 8.05939 1.86726 6.96561 2.95902C5.87184 4.05078 5.25468 5.5311 5.249 7.0765V9.28025H5.45325C4.34219 9.28024 3.27633 9.72012 2.48868 10.5037C1.70103 11.2874 1.25568 12.351 1.25 13.462V18.5575C1.25285 19.6704 1.69694 20.7368 2.4849 21.5227C3.27285 22.3086 4.34034 22.75 5.45325 22.75H18.5468C19.6597 22.75 20.7271 22.3086 21.5151 21.5227C22.3031 20.7368 22.7472 19.6704 22.75 18.5575V13.462C22.75 12.3472 22.3072 11.2781 21.5189 10.4899C20.7306 9.70159 19.6615 9.25875 18.5468 9.25875ZM6.8615 7.10875C6.8615 5.98828 7.30661 4.9137 8.0989 4.1214C8.89119 3.32911 9.96578 2.884 11.0863 2.884H12.9138C14.0342 2.884 15.1088 3.32911 15.9011 4.1214C16.6934 4.9137 17.1385 5.98828 17.1385 7.10875V9.25875H6.8615V7.10875ZM7.7 16.6763C7.48739 16.6763 7.27955 16.6132 7.10276 16.4951C6.92598 16.377 6.78819 16.2091 6.70683 16.0126C6.62547 15.8162 6.60418 15.6001 6.64566 15.3915C6.68714 15.183 6.78952 14.9915 6.93986 14.8411C7.0902 14.6908 7.28175 14.5884 7.49028 14.5469C7.69881 14.5054 7.91495 14.5267 8.11139 14.6081C8.30782 14.6894 8.47571 14.8272 8.59383 15.004C8.71195 15.1808 8.775 15.3886 8.775 15.6013C8.775 15.8864 8.66174 16.1598 8.46014 16.3614C8.25854 16.563 7.98511 16.6763 7.7 16.6763ZM12 16.6763C11.7874 16.6763 11.5795 16.6132 11.4028 16.4951C11.226 16.377 11.0882 16.2091 11.0068 16.0126C10.9255 15.8162 10.9042 15.6001 10.9457 15.3915C10.9871 15.183 11.0895 14.9915 11.2399 14.8411C11.3902 14.6908 11.5817 14.5884 11.7903 14.5469C11.9988 14.5054 12.215 14.5267 12.4114 14.6081C12.6078 14.6894 12.7757 14.8272 12.8938 15.004C13.012 15.1808 13.075 15.3886 13.075 15.6013C13.075 15.8864 12.9617 16.1598 12.7601 16.3614C12.5585 16.563 12.2851 16.6763 12 16.6763ZM16.3 16.6763C16.0874 16.6763 15.8795 16.6132 15.7028 16.4951C15.526 16.377 15.3882 16.2091 15.3068 16.0126C15.2255 15.8162 15.2042 15.6001 15.2457 15.3915C15.2871 15.183 15.3895 14.9915 15.5399 14.8411C15.6902 14.6908 15.8817 14.5884 16.0903 14.5469C16.2988 14.5054 16.515 14.5267 16.7114 14.6081C16.9078 14.6894 17.0757 14.8272 17.1938 15.004C17.312 15.1808 17.375 15.3886 17.375 15.6013C17.375 15.8864 17.2617 16.1598 17.0601 16.3614C16.8585 16.563 16.5851 16.6763 16.3 16.6763Z" fill="black"/>
</svg>
