<svg width="24" height="24" viewBox="0 0 24 24" fill="none" xmlns="http://www.w3.org/2000/svg">
<path d="M13.7523 16.0098C13.7523 16.3563 13.6495 16.6951 13.4569 16.9832C13.2644 17.2714 12.9907 17.496 12.6706 17.6286C12.3504 17.7612 11.9981 17.7959 11.6582 17.7283C11.3183 17.6607 11.006 17.4938 10.761 17.2488C10.5159 17.0037 10.349 16.6915 10.2814 16.3516C10.2138 16.0117 10.2485 15.6594 10.3811 15.3392C10.5138 15.019 10.7383 14.7453 11.0265 14.5528C11.3147 14.3603 11.6534 14.2575 12 14.2575C12.4647 14.2575 12.9104 14.4421 13.239 14.7707C13.5676 15.0993 13.7523 15.545 13.7523 16.0098ZM22.75 13.462V18.5575C22.7472 19.6704 22.3031 20.7368 21.5151 21.5227C20.7271 22.3086 19.6597 22.75 18.5468 22.75H5.45325C4.34034 22.75 3.27285 22.3086 2.4849 21.5227C1.69694 20.7368 1.25285 19.6704 1.25 18.5575V13.462C1.25161 12.3847 1.66789 11.3493 2.41248 10.5707C3.15707 9.79207 4.17281 9.32997 5.249 9.28025V7.0765C5.25468 5.5311 5.87184 4.05078 6.96561 2.95902C8.05939 1.86726 9.54084 1.25283 11.0863 1.25H12.9138C14.461 1.25284 15.9441 1.86875 17.0382 2.96283C18.1323 4.05691 18.7482 5.53999 18.751 7.08725V9.28025C19.8272 9.32997 20.8429 9.79207 21.5875 10.5707C22.3321 11.3493 22.7484 12.3847 22.75 13.462ZM6.8615 7.0765V9.2265H17.1385V7.0765C17.1385 5.95603 16.6934 4.88145 15.9011 4.08915C15.1088 3.29686 14.0342 2.85175 12.9138 2.85175H11.0863C9.96578 2.85175 8.89119 3.29686 8.0989 4.08915C7.30661 4.88145 6.8615 5.95603 6.8615 7.0765ZM15.3648 16.0098C15.3648 15.3443 15.1674 14.6937 14.7977 14.1404C14.428 13.5871 13.9025 13.1558 13.2876 12.9011C12.6728 12.6465 11.9963 12.5798 11.3436 12.7097C10.6909 12.8395 10.0913 13.1599 9.62076 13.6305C9.15019 14.1011 8.82973 14.7006 8.6999 15.3533C8.57007 16.006 8.63671 16.6826 8.89138 17.2974C9.14605 17.9122 9.57732 18.4377 10.1306 18.8074C10.684 19.1772 11.3345 19.3745 12 19.3745C12.8924 19.3745 13.7482 19.02 14.3792 18.389C15.0103 17.758 15.3648 16.9021 15.3648 16.0098Z" fill="black"/>
</svg>
