<svg width="24" height="24" viewBox="0 0 24 24" fill="none" xmlns="http://www.w3.org/2000/svg">
<path d="M20.7168 12.5169H19.9423L13.7344 6.88774C14.1141 6.59525 14.4038 6.2108 14.573 5.77489C14.7422 5.33898 14.7846 4.86774 14.6959 4.41081C14.6071 3.95388 14.3904 3.52817 14.0686 3.17851C13.7469 2.82886 13.3319 2.56821 12.8674 2.42402V1.32458C12.8674 1.10589 12.7761 0.896152 12.6135 0.741514C12.4509 0.586875 12.2304 0.5 12.0004 0.5C11.7705 0.5 11.5499 0.586875 11.3873 0.741514C11.2247 0.896152 11.1334 1.10589 11.1334 1.32458V3.12766C11.1334 3.34635 11.2247 3.55609 11.3873 3.71072C11.5499 3.86536 11.7705 3.95224 12.0004 3.95224C12.2672 3.95224 12.523 4.05301 12.7116 4.23239C12.9002 4.41177 13.0062 4.65507 13.0062 4.90875C13.0049 5.09046 12.9487 5.26798 12.8441 5.42006C12.7395 5.57215 12.5911 5.69236 12.4166 5.76631C12.2904 5.69574 12.1468 5.65853 12.0004 5.65853C11.8541 5.65853 11.7104 5.69574 11.5843 5.76631C11.4097 5.69236 11.2613 5.57215 11.1567 5.42006C11.0522 5.26798 10.9959 5.09046 10.9947 4.90875C10.9947 4.69006 10.9033 4.48032 10.7407 4.32568C10.5781 4.17104 10.3576 4.08417 10.1277 4.08417C9.89772 4.08417 9.67719 4.17104 9.51459 4.32568C9.35199 4.48032 9.26065 4.69006 9.26065 4.90875C9.26239 5.29224 9.35349 5.67059 9.52739 6.01659C9.7013 6.36258 9.95368 6.66761 10.2664 6.90973L4.09323 12.4729H3.28402C2.94569 12.4729 2.62105 12.5999 2.38073 12.8264C2.14042 13.0529 2.00388 13.3605 2.00083 13.6823V22.2356C1.99462 22.3996 2.02321 22.563 2.08491 22.7162C2.14661 22.8694 2.24014 23.0091 2.35992 23.1272C2.4797 23.2452 2.62327 23.339 2.78204 23.4031C2.94082 23.4671 3.11154 23.5001 3.28402 23.5H20.7168C21.0571 23.5 21.3835 23.3714 21.6242 23.1426C21.8648 22.9137 22 22.6033 22 22.2796V13.7262C21.997 13.4045 21.8604 13.0969 21.6201 12.8704C21.3798 12.6439 21.0551 12.5169 20.7168 12.5169ZM6.32435 20.9493C6.32435 21.168 6.23301 21.3777 6.07041 21.5324C5.90781 21.687 5.68728 21.7739 5.45734 21.7739C5.22739 21.7739 5.00686 21.687 4.84426 21.5324C4.68167 21.3777 4.59032 21.168 4.59032 20.9493V14.8037C4.59032 14.585 4.68167 14.3753 4.84426 14.2206C5.00686 14.066 5.22739 13.9791 5.45734 13.9791C5.68728 13.9791 5.90781 14.066 6.07041 14.2206C6.23301 14.3753 6.32435 14.585 6.32435 14.8037V20.9493ZM10.6826 20.9493C10.6826 21.168 10.5912 21.3777 10.4286 21.5324C10.266 21.687 10.0455 21.7739 9.81554 21.7739C9.58559 21.7739 9.36506 21.687 9.20246 21.5324C9.03987 21.3777 8.94852 21.168 8.94852 20.9493V14.8037C8.94852 14.585 9.03987 14.3753 9.20246 14.2206C9.36506 14.066 9.58559 13.9791 9.81554 13.9791C10.0455 13.9791 10.266 14.066 10.4286 14.2206C10.5912 14.3753 10.6826 14.585 10.6826 14.8037V20.9493ZM15.0523 20.9493C15.0523 21.168 14.961 21.3777 14.7984 21.5324C14.6358 21.687 14.4152 21.7739 14.1853 21.7739C13.9554 21.7739 13.7348 21.687 13.5722 21.5324C13.4096 21.3777 13.3183 21.168 13.3183 20.9493V14.8037C13.3183 14.585 13.4096 14.3753 13.5722 14.2206C13.7348 14.066 13.9554 13.9791 14.1853 13.9791C14.4152 13.9791 14.6358 14.066 14.7984 14.2206C14.961 14.3753 15.0523 14.585 15.0523 14.8037V20.9493ZM6.56712 12.5169L12.0004 7.59138L17.4337 12.5169H6.56712ZM19.4105 20.9493C19.4105 21.168 19.3192 21.3777 19.1566 21.5324C18.994 21.687 18.7734 21.7739 18.5435 21.7739C18.3136 21.7739 18.093 21.687 17.9304 21.5324C17.7678 21.3777 17.6765 21.168 17.6765 20.9493V14.8037C17.6765 14.585 17.7678 14.3753 17.9304 14.2206C18.093 14.066 18.3136 13.9791 18.5435 13.9791C18.7734 13.9791 18.994 14.066 19.1566 14.2206C19.3192 14.3753 19.4105 14.585 19.4105 14.8037V20.9493Z" fill="black"/>
</svg>
