<svg width="24" height="24" viewBox="0 0 24 24" fill="none" xmlns="http://www.w3.org/2000/svg">
<path d="M12.3878 21.5541C12.1944 21.6419 11.9961 21.7179 11.7939 21.7819C11.5234 21.8892 11.2233 21.8892 10.9527 21.7819C8.89901 20.8456 0.12758 16.5691 0.251296 8.52216C0.253798 7.0274 0.740915 5.57569 1.63638 4.39432C2.53184 3.21295 3.7851 2.36862 5.19991 1.99353C6.25702 1.70759 7.3641 1.67295 8.43632 1.89226C9.50854 2.11157 10.5174 2.57902 11.3857 3.25877C12.3286 2.52532 13.4338 2.04112 14.6035 1.84911C15.7732 1.6571 16.9711 1.7632 18.0911 2.15801C19.3716 2.62384 20.4816 3.48013 21.2714 4.61135C22.0611 5.74258 22.4927 7.09431 22.5077 8.48421C22.5007 8.94968 22.4677 9.41436 22.4087 9.87597C22.1458 9.73324 21.8729 9.6106 21.5922 9.50905C20.8338 9.23715 20.0272 9.13485 19.2269 9.20906C18.4265 9.28327 17.6511 9.53227 16.9529 9.93923C15.6613 9.17672 14.1287 8.96319 12.6847 9.34457C11.5663 9.63688 10.575 10.3017 9.86711 11.2342C9.15922 12.1666 8.77507 13.3136 8.77529 14.4941C8.803 15.8764 9.14363 17.2332 9.77042 18.4582C10.3972 19.6832 11.2931 20.7429 12.3878 21.5541ZM16.9529 12.2799L16.3838 11.8371C15.7438 11.3276 14.9556 11.0515 14.1445 11.0526C13.807 11.0573 13.471 11.0997 13.1424 11.1792C12.427 11.3822 11.7969 11.8207 11.3497 12.4267C10.9024 13.0328 10.6629 13.7727 10.6681 14.532C10.5815 19.2008 15.9755 21.7819 17.0642 22.25C17.9921 21.8831 23.25 19.7828 23.25 14.4435C23.2265 13.7468 23.0011 13.0729 22.6024 12.5075C22.2037 11.9421 21.6497 11.5106 21.0107 11.2677C20.4253 11.0542 19.7968 10.9944 19.1829 11.0939C18.5691 11.1933 17.9894 11.4489 17.4972 11.8371L16.9529 12.2799Z" fill="black"/>
</svg>
