<svg width="24" height="24" viewBox="0 0 24 24" fill="none" xmlns="http://www.w3.org/2000/svg">
<path d="M7.43125 8.14075C7.42912 7.85115 7.51305 7.56743 7.6724 7.3256C7.83175 7.08376 8.05933 6.8947 8.32628 6.7824C8.59323 6.67009 8.88752 6.6396 9.17183 6.69479C9.45613 6.74999 9.71764 6.88837 9.92318 7.0924C10.1287 7.29643 10.269 7.55691 10.3263 7.8408C10.3836 8.12469 10.3553 8.4192 10.245 8.68697C10.1346 8.95475 9.94725 9.18372 9.7066 9.34484C9.46595 9.50597 9.18286 9.59199 8.89325 9.592C8.70177 9.59342 8.5119 9.55693 8.33458 9.48463C8.15726 9.41233 7.99601 9.30566 7.8601 9.17076C7.7242 9.03586 7.61634 8.87539 7.54274 8.69861C7.46914 8.52184 7.43124 8.33224 7.43125 8.14075ZM22.75 7.7V16.4075C22.722 18.0902 22.0375 19.6953 20.8424 20.8803C19.6474 22.0652 18.0366 22.7362 16.3538 22.75H7.7C5.99863 22.7501 4.36614 22.0779 3.15806 20.8799C1.94998 19.6819 1.26418 18.0551 1.25 16.3538V7.7C1.25 5.98935 1.92955 4.34877 3.13916 3.13916C4.34877 1.92955 5.98935 1.25 7.7 1.25H16.4075C18.0994 1.2782 19.7125 1.97019 20.899 3.17675C22.0855 4.38332 22.7502 6.00782 22.75 7.7ZM6.0015 10.7208L7.96875 12.9353C8.08468 13.0641 8.22642 13.1672 8.38477 13.2377C8.54311 13.3083 8.71452 13.3447 8.88788 13.3447C9.06123 13.3447 9.23264 13.3083 9.39098 13.2377C9.54933 13.1672 9.69107 13.0641 9.807 12.9353L11.785 10.7208C12.4227 10.0128 12.7751 9.09352 12.774 8.14075C12.7753 7.51131 12.6235 6.89099 12.3316 6.3333C12.0398 5.77561 11.6166 5.29728 11.0987 4.93956C10.5808 4.58184 9.98363 4.35547 9.35873 4.27998C8.73383 4.20448 8.09994 4.28212 7.51173 4.5062C6.92352 4.73028 6.39864 5.09407 5.98237 5.56621C5.56609 6.03835 5.2709 6.60466 5.12226 7.2163C4.97362 7.82795 4.97599 8.46657 5.12917 9.07709C5.28234 9.68761 5.58173 10.2517 6.0015 10.7208ZM15.5153 14.0318L22.6533 6.625C22.5519 6.02058 22.3636 5.434 22.0942 4.8835L5.45325 22.191L5.36725 22.32C5.94476 22.5516 6.55334 22.6965 7.17325 22.75L14.3973 15.225L20.0303 20.9548C20.1739 21.0975 20.3655 21.1818 20.5678 21.1912C20.8682 20.9214 21.1451 20.6265 21.3955 20.3097C21.3901 20.1265 21.3128 19.9528 21.1805 19.826L15.5153 14.0318Z" fill="black"/>
</svg>
