<svg width="24" height="24" viewBox="0 0 24 24" fill="none" xmlns="http://www.w3.org/2000/svg">
<path d="M17.291 1H6.709C5.19488 1 3.74277 1.60148 2.67213 2.67213C1.60148 3.74277 1 5.19488 1 6.709V17.291C1 18.8051 1.60148 20.2572 2.67213 21.3279C3.74277 22.3985 5.19488 23 6.709 23H17.291C18.8051 23 20.2572 22.3985 21.3279 21.3279C22.3985 20.2572 23 18.8051 23 17.291V6.709C23 5.19488 22.3985 3.74277 21.3279 2.67213C20.2572 1.60148 18.8051 1 17.291 1ZM1.891 7.523C1.89388 6.02815 2.48747 4.59504 3.54243 3.53596C4.59738 2.47688 6.02818 1.87771 7.523 1.869H9.437C9.6558 1.869 9.86565 1.95592 10.0204 2.11064C10.1751 2.26535 10.262 2.4752 10.262 2.694C10.262 2.9128 10.1751 3.12265 10.0204 3.27736C9.86565 3.43208 9.6558 3.519 9.437 3.519H7.523C6.46107 3.519 5.44264 3.94085 4.69174 4.69174C3.94085 5.44264 3.519 6.46107 3.519 7.523V9.503C3.519 9.7218 3.43208 9.93165 3.27736 10.0864C3.12265 10.2411 2.9128 10.328 2.694 10.328C2.4752 10.328 2.26535 10.2411 2.11064 10.0864C1.95592 9.93165 1.869 9.7218 1.869 9.503L1.891 7.523ZM9.591 22.131H7.523C6.02436 22.1281 4.58793 21.5315 3.52823 20.4718C2.46853 19.4121 1.87191 17.9756 1.869 16.477V14.486C1.869 14.2672 1.95592 14.0574 2.11064 13.9026C2.26535 13.7479 2.4752 13.661 2.694 13.661C2.9128 13.661 3.12265 13.7479 3.27736 13.9026C3.43208 14.0574 3.519 14.2672 3.519 14.486V16.477C3.519 17.5389 3.94085 18.5574 4.69174 19.3083C5.44264 20.0592 6.46107 20.481 7.523 20.481H9.58C9.7988 20.481 10.0086 20.5679 10.1634 20.7226C10.3181 20.8774 10.405 21.0872 10.405 21.306C10.405 21.5248 10.3181 21.7346 10.1634 21.8894C10.0086 22.0441 9.7988 22.131 9.58 22.131H9.591ZM22.142 16.477C22.1391 17.9756 21.5425 19.4121 20.4828 20.4718C19.4231 21.5315 17.9866 22.1281 16.488 22.131H14.563C14.3442 22.131 14.1344 22.0441 13.9796 21.8894C13.8249 21.7346 13.738 21.5248 13.738 21.306C13.738 21.0872 13.8249 20.8774 13.9796 20.7226C14.1344 20.5679 14.3442 20.481 14.563 20.481H16.477C17.5389 20.481 18.5574 20.0592 19.3083 19.3083C20.0592 18.5574 20.481 17.5389 20.481 16.477V14.343C20.481 14.1242 20.5679 13.9144 20.7226 13.7596C20.8774 13.6049 21.0872 13.518 21.306 13.518C21.5248 13.518 21.7346 13.6049 21.8894 13.7596C22.0441 13.9144 22.131 14.1242 22.131 14.343L22.142 16.477ZM22.142 9.349C22.142 9.5678 22.0551 9.77765 21.9004 9.93236C21.7456 10.0871 21.5358 10.174 21.317 10.174C21.0982 10.174 20.8884 10.0871 20.7336 9.93236C20.5789 9.77765 20.492 9.5678 20.492 9.349V7.523C20.492 6.46107 20.0702 5.44264 19.3193 4.69174C18.5684 3.94085 17.5499 3.519 16.488 3.519H14.42C14.2012 3.519 13.9914 3.43208 13.8366 3.27736C13.6819 3.12265 13.595 2.9128 13.595 2.694C13.595 2.4752 13.6819 2.26535 13.8366 2.11064C13.9914 1.95592 14.2012 1.869 14.42 1.869H16.477C17.9756 1.87191 19.4121 2.46853 20.4718 3.52823C21.5315 4.58793 22.1281 6.02436 22.131 7.523L22.142 9.349Z" fill="black"/>
</svg>
