<svg width="24" height="24" viewBox="0 0 24 24" fill="none" xmlns="http://www.w3.org/2000/svg">
<path d="M12.252 1.06995C10.7165 1.06778 9.21468 1.52044 7.9361 2.37082C6.65752 3.22119 5.65943 4.43119 5.06775 5.84817C4.47607 7.26515 4.3173 8.82562 4.61147 10.3327C4.90565 11.8398 5.63959 13.2261 6.7207 14.3165C7.80182 15.407 9.18167 16.1528 10.6862 16.46C12.1907 16.7671 13.7525 16.6218 15.1745 16.0423C16.5965 15.4628 17.8151 14.4752 18.6764 13.204C19.5378 11.9328 20.0033 10.4349 20.0144 8.89943C20.0218 7.87484 19.8265 6.85889 19.4398 5.91003C19.0532 4.96117 18.4828 4.0981 17.7614 3.37048C17.04 2.64285 16.1819 2.06501 15.2364 1.67021C14.2909 1.2754 13.2766 1.0714 12.252 1.06995ZM15.82 8.54151L14.8246 9.5146C14.7417 9.59646 14.68 9.69732 14.6449 9.80843C14.6098 9.91953 14.6024 10.0375 14.6232 10.1521L14.8581 11.5279C14.8797 11.6594 14.8642 11.7942 14.8134 11.9174C14.7625 12.0405 14.6783 12.147 14.5702 12.2249C14.4621 12.3028 14.3344 12.3489 14.2015 12.3582C14.0686 12.3674 13.9358 12.3394 13.8179 12.2773L12.5764 11.6286C12.475 11.5737 12.3616 11.545 12.2464 11.545C12.1312 11.545 12.0178 11.5737 11.9165 11.6286L10.6749 12.2773C10.5578 12.3409 10.4251 12.3701 10.2921 12.3613C10.1591 12.3525 10.0313 12.3063 9.9236 12.2278C9.81587 12.1493 9.73259 12.0419 9.68344 11.918C9.63429 11.7942 9.62129 11.6589 9.64593 11.5279L9.88081 10.1521C9.90481 10.041 9.90317 9.92577 9.87604 9.81531C9.84891 9.70485 9.79699 9.60202 9.72422 9.5146L8.72876 8.54151C8.63374 8.44855 8.56648 8.33097 8.53452 8.20194C8.50256 8.07291 8.50715 7.93753 8.54779 7.81097C8.58843 7.68441 8.66351 7.57166 8.76462 7.48536C8.86572 7.39906 8.98886 7.34261 9.12023 7.32235L10.5072 7.12102C10.622 7.10495 10.731 7.06082 10.8246 6.99254C10.9183 6.92425 10.9937 6.83392 11.044 6.72955L11.6592 5.47683C11.7181 5.3564 11.8096 5.25492 11.9233 5.18394C12.037 5.11295 12.1683 5.07532 12.3024 5.07532C12.4364 5.07532 12.5677 5.11295 12.6814 5.18394C12.7951 5.25492 12.8866 5.3564 12.9455 5.47683L13.5607 6.72955C13.6118 6.83333 13.6874 6.92317 13.7809 6.99135C13.8744 7.05953 13.9831 7.10402 14.0975 7.12102L15.4845 7.32235C15.6113 7.35065 15.7281 7.41295 15.8222 7.50257C15.9163 7.59219 15.9843 7.70574 16.0188 7.83105C16.0533 7.95636 16.053 8.08869 16.018 8.21386C15.983 8.33902 15.9145 8.45229 15.82 8.54151ZM22.2626 19.2791L20.6855 19.4692C20.4533 19.5 20.2366 19.603 20.066 19.7635C19.8954 19.9241 19.7796 20.1341 19.7348 20.364L19.4551 21.9187C19.414 22.1168 19.32 22.2999 19.183 22.4488C19.046 22.5976 18.8713 22.7065 18.6773 22.7639C18.4834 22.8212 18.2775 22.825 18.0816 22.7746C17.8857 22.7243 17.7071 22.6218 17.5649 22.478L13.5383 18.1941C14.8223 18.0083 16.0546 17.5611 17.1589 16.8801C18.2632 16.199 19.216 15.2986 19.9585 14.2347L22.9337 17.3888C23.0791 17.5385 23.1797 17.7258 23.2243 17.9297C23.2688 18.1336 23.2554 18.3458 23.1855 18.5425C23.1157 18.7392 22.9923 18.9123 22.8292 19.0425C22.6661 19.1727 22.4698 19.2546 22.2626 19.2791ZM10.5295 18.1606L6.36873 22.5675C6.23062 22.7142 6.05545 22.8208 5.86172 22.8762C5.66799 22.9316 5.4629 22.9336 5.26812 22.882C5.07335 22.8305 4.89611 22.7273 4.75515 22.5833C4.61419 22.4393 4.51473 22.26 4.46729 22.0641L4.18766 20.5094C4.14285 20.2795 4.02698 20.0695 3.85641 19.9089C3.68583 19.7484 3.46915 19.6454 3.23694 19.6146L1.65986 19.3797C1.47122 19.3439 1.29497 19.2601 1.14809 19.1365C1.00121 19.0128 0.888637 18.8534 0.821216 18.6736C0.753795 18.4938 0.733794 18.2997 0.763139 18.1099C0.792484 17.9202 0.870186 17.7412 0.988765 17.5901L4.34425 14.0333C5.04639 15.0971 5.95619 16.008 7.01907 16.7115C8.08195 17.4149 9.27599 17.8964 10.5295 18.127V18.1606Z" fill="black"/>
</svg>
