<svg width="24" height="24" viewBox="0 0 24 24" fill="none" xmlns="http://www.w3.org/2000/svg">
<path d="M16.293 1.3999H7.75999C6.07322 1.3999 4.45553 2.06997 3.26279 3.2627C2.07006 4.45543 1.39999 6.07313 1.39999 7.7599V16.3459C1.4278 18.0142 2.11013 19.6048 3.29986 20.7747C4.48959 21.9446 6.09142 22.6001 7.75999 22.5999H16.346C18.0052 22.5723 19.5879 21.8973 20.7563 20.719C21.9248 19.5406 22.5864 17.9523 22.6 16.2929V7.7599C22.6001 6.08227 21.9373 4.47256 20.756 3.28134C19.5747 2.09012 17.9706 1.41388 16.293 1.3999ZM18.2752 17.0031H5.72479C5.51395 17.0031 5.31174 16.9193 5.16264 16.7703C5.01355 16.6212 4.92979 16.419 4.92979 16.2081C4.92979 15.9973 5.01355 15.795 5.16264 15.646C5.31174 15.4969 5.51395 15.4131 5.72479 15.4131H18.2752C18.486 15.4131 18.6883 15.4969 18.8373 15.646C18.9864 15.795 19.0702 15.9973 19.0702 16.2081C19.0702 16.419 18.9864 16.6212 18.8373 16.7703C18.6883 16.9193 18.486 17.0031 18.2752 17.0031ZM18.2752 12.7631H5.72479C5.51395 12.7631 5.31174 12.6793 5.16264 12.5303C5.01355 12.3812 4.92979 12.179 4.92979 11.9681C4.92979 11.7573 5.01355 11.555 5.16264 11.406C5.31174 11.2569 5.51395 11.1731 5.72479 11.1731H18.2752C18.486 11.1731 18.6883 11.2569 18.8373 11.406C18.9864 11.555 19.0702 11.7573 19.0702 11.9681C19.0702 12.179 18.9864 12.3812 18.8373 12.5303C18.6883 12.6793 18.486 12.7631 18.2752 12.7631ZM18.2752 8.5231H5.72479C5.51395 8.5231 5.31174 8.43934 5.16264 8.29025C5.01355 8.14116 4.92979 7.93895 4.92979 7.7281C4.92979 7.51726 5.01355 7.31504 5.16264 7.16595C5.31174 7.01686 5.51395 6.9331 5.72479 6.9331H18.2752C18.486 6.9331 18.6883 7.01686 18.8373 7.16595C18.9864 7.31504 19.0702 7.51726 19.0702 7.7281C19.0702 7.93895 18.9864 8.14116 18.8373 8.29025C18.6883 8.43934 18.486 8.5231 18.2752 8.5231Z" fill="black"/>
</svg>
