<svg width="24" height="24" viewBox="0 0 24 24" fill="none" xmlns="http://www.w3.org/2000/svg">
<path d="M17.061 1.5H6.93899C5.49648 1.5 4.11305 2.07303 3.09304 3.09304C2.07303 4.11305 1.5 5.49648 1.5 6.93899V21.45C1.5 21.7284 1.61062 21.9955 1.80754 22.1924C2.00445 22.3893 2.27152 22.5 2.55 22.5H17.04C17.756 22.5027 18.4655 22.3641 19.1278 22.092C19.7901 21.8199 20.3922 21.4197 20.8995 20.9144C21.4068 20.409 21.8093 19.8085 22.0839 19.1472C22.3586 18.486 22.5 17.777 22.5 17.061V6.93899C22.5 6.22473 22.3593 5.51747 22.0859 4.85758C21.8126 4.19769 21.412 3.5981 20.9069 3.09304C20.4019 2.58799 19.8023 2.18735 19.1424 1.91402C18.4825 1.64068 17.7752 1.5 17.061 1.5ZM13.6695 15.4125H7.00199C6.79313 15.4125 6.59283 15.3295 6.44514 15.1818C6.29746 15.0341 6.21449 14.8338 6.21449 14.625C6.21449 14.4161 6.29746 14.2158 6.44514 14.0681C6.59283 13.9204 6.79313 13.8375 7.00199 13.8375H13.6695C13.8783 13.8375 14.0786 13.9204 14.2263 14.0681C14.374 14.2158 14.457 14.4161 14.457 14.625C14.457 14.8338 14.374 15.0341 14.2263 15.1818C14.0786 15.3295 13.8783 15.4125 13.6695 15.4125ZM16.998 10.1625H7.00199C6.79313 10.1625 6.59283 10.0795 6.44514 9.93183C6.29746 9.78415 6.21449 9.58384 6.21449 9.37499C6.21449 9.16613 6.29746 8.96582 6.44514 8.81814C6.59283 8.67046 6.79313 8.58749 7.00199 8.58749H16.998C17.2068 8.58749 17.4071 8.67046 17.5548 8.81814C17.7025 8.96582 17.7855 9.16613 17.7855 9.37499C17.7855 9.58384 17.7025 9.78415 17.5548 9.93183C17.4071 10.0795 17.2068 10.1625 16.998 10.1625Z" fill="black"/>
</svg>
