<svg width="24" height="24" viewBox="0 0 24 24" fill="none" xmlns="http://www.w3.org/2000/svg">
<path d="M17.061 1.5H6.93899C5.49648 1.5 4.11305 2.07303 3.09304 3.09304C2.07303 4.11305 1.5 5.49648 1.5 6.93899V21.45C1.5 21.7284 1.61062 21.9955 1.80754 22.1924C2.00445 22.3893 2.27152 22.5 2.55 22.5H17.04C17.756 22.5027 18.4655 22.3641 19.1278 22.092C19.7901 21.8199 20.3922 21.4197 20.8995 20.9144C21.4068 20.409 21.8093 19.8085 22.0839 19.1472C22.3586 18.486 22.5 17.777 22.5 17.061V6.93899C22.5 6.22473 22.3593 5.51747 22.0859 4.85758C21.8126 4.19769 21.412 3.5981 20.9069 3.09304C20.4019 2.58799 19.8023 2.18735 19.1424 1.91402C18.4825 1.64068 17.7752 1.5 17.061 1.5ZM12 16.851C11.7652 17.1683 11.4335 17.4005 11.055 17.5125L8.60849 18.3C8.3837 18.3573 8.14864 18.3614 7.92199 18.312C7.69534 18.2625 7.48336 18.1608 7.3029 18.015C7.12245 17.8692 6.97851 17.6834 6.88252 17.4722C6.78654 17.261 6.74116 17.0303 6.74999 16.7985V14.1525C6.75471 13.7573 6.87919 13.3729 7.10699 13.05L10.047 9.08099C10.4327 10.1281 11.1105 11.0427 12 11.7165C12.8663 12.3887 13.9099 12.7938 15.003 12.882L12 16.851ZM16.8615 10.278L16.0845 11.328C15.5124 11.4438 14.9219 11.4333 14.3542 11.2973C13.7866 11.1612 13.2555 10.903 12.798 10.5405C12.3283 10.1817 11.9396 9.72785 11.6573 9.20856C11.3751 8.68928 11.2056 8.11626 11.16 7.52699L11.937 6.47699C12.0905 6.26424 12.2853 6.0846 12.5098 5.9488C12.7343 5.813 12.9838 5.72381 13.2435 5.68657C13.5032 5.64933 13.7677 5.6648 14.0213 5.73205C14.2749 5.7993 14.5124 5.91695 14.7195 6.07799L16.473 7.43249C16.8919 7.7643 17.1686 8.24335 17.2466 8.77204C17.3246 9.30073 17.1982 9.83929 16.893 10.278H16.8615Z" fill="black"/>
</svg>
