<svg width="24" height="24" viewBox="0 0 24 24" fill="none" xmlns="http://www.w3.org/2000/svg">
<path d="M13.4385 3.26582L21.0195 2.32082C21.2028 2.29714 21.389 2.31243 21.566 2.36571C21.743 2.41898 21.9067 2.50903 22.0465 2.62996C22.1862 2.75089 22.2989 2.89997 22.377 3.06745C22.4552 3.23493 22.4971 3.41702 22.5 3.60182V9.63932C22.5 9.98741 22.3617 10.3213 22.1156 10.5674C21.8694 10.8135 21.5356 10.9518 21.1875 10.9518H13.596C13.2479 10.9518 12.9141 10.8135 12.6679 10.5674C12.4218 10.3213 12.2835 9.98741 12.2835 9.63932V4.56782C12.2837 4.24717 12.4014 3.9377 12.6142 3.69784C12.8269 3.45797 13.1202 3.30429 13.4385 3.26582ZM10.1835 9.63932V5.16632C10.1835 4.97974 10.1438 4.79531 10.0669 4.6253C9.99008 4.4553 9.87786 4.30364 9.73776 4.18043C9.59766 4.05722 9.4329 3.9653 9.25447 3.91079C9.07604 3.85628 8.88804 3.84043 8.703 3.86432L2.655 4.65182C2.34198 4.68955 2.05301 4.8387 1.84092 5.072C1.62884 5.30529 1.50782 5.60713 1.5 5.92232V9.63932C1.5 9.98741 1.63828 10.3213 1.88442 10.5674C2.13056 10.8135 2.4644 10.9518 2.8125 10.9518H8.85C9.02412 10.9546 9.19705 10.9227 9.35872 10.858C9.5204 10.7933 9.66757 10.6971 9.79168 10.5749C9.91579 10.4527 10.0144 10.3071 10.0816 10.1465C10.1489 9.98586 10.1835 9.81346 10.1835 9.63932ZM12.2835 14.3643V19.4253C12.2812 19.7478 12.3976 20.0598 12.6107 20.3019C12.8237 20.5439 13.1184 20.6991 13.4385 20.7378L21.0195 21.6828C21.2028 21.7065 21.389 21.6912 21.566 21.6379C21.743 21.5847 21.9067 21.4946 22.0465 21.3737C22.1862 21.2527 22.2989 21.1037 22.377 20.9362C22.4552 20.7687 22.4971 20.5866 22.5 20.4018V14.3643C22.5 14.0162 22.3617 13.6824 22.1156 13.4362C21.8694 13.1901 21.5356 13.0518 21.1875 13.0518H13.596C13.2479 13.0518 12.9141 13.1901 12.6679 13.4362C12.4218 13.6824 12.2835 14.0162 12.2835 14.3643ZM8.85 13.0518H2.8125C2.4644 13.0518 2.13056 13.1901 1.88442 13.4362C1.63828 13.6824 1.5 14.0162 1.5 14.3643V18.0813C1.50782 18.3965 1.62884 18.6983 1.84092 18.9316C2.05301 19.1649 2.34198 19.3141 2.655 19.3518L8.703 20.1078C8.88804 20.1317 9.07604 20.1159 9.25447 20.0613C9.4329 20.0068 9.59766 19.9149 9.73776 19.7917C9.87786 19.6685 9.99008 19.5168 10.0669 19.3468C10.1438 19.1768 10.1835 18.9924 10.1835 18.8058V14.3643C10.1835 14.1902 10.1489 14.0178 10.0816 13.8571C10.0144 13.6965 9.91579 13.5509 9.79168 13.4287C9.66757 13.3066 9.5204 13.2103 9.35872 13.1456C9.19705 13.0809 9.02412 13.049 8.85 13.0518Z" fill="black"/>
</svg>
