<svg width="24" height="24" viewBox="0 0 24 24" fill="none" xmlns="http://www.w3.org/2000/svg">
<path d="M15.6533 13.5454L21.6708 15.4457C22.0047 15.5324 22.3011 15.7256 22.515 15.9961C22.7289 16.2666 22.8487 16.5996 22.8561 16.9444C22.8635 17.2892 22.7582 17.627 22.5561 17.9065C22.354 18.1859 22.0661 18.3918 21.7364 18.4927L20.0217 19.1152C19.8055 19.1903 19.6093 19.314 19.4484 19.4769C19.2874 19.6397 19.166 19.8373 19.0934 20.0544L18.46 21.769C18.3546 22.0839 18.1529 22.3576 17.8835 22.5516C17.614 22.7455 17.2904 22.8499 16.9584 22.8499C16.6263 22.8499 16.3027 22.7455 16.0333 22.5516C15.7638 22.3576 15.5621 22.0839 15.4567 21.769L13.5783 15.6314C13.4826 15.342 13.4691 15.0317 13.5391 14.7351C13.6091 14.4384 13.76 14.167 13.9749 13.9509C14.1899 13.7348 14.4605 13.5825 14.7568 13.5109C15.0531 13.4394 15.3634 13.4513 15.6533 13.5454ZM12.0165 16.0682C11.8659 15.5792 11.832 15.0618 11.9173 14.5573C12.0026 14.0529 12.2049 13.5754 12.508 13.1632C12.8086 12.7517 13.2011 12.416 13.6542 12.1828C14.1073 11.9496 14.6086 11.8254 15.1181 11.8199C15.4561 11.8202 15.7918 11.8755 16.112 11.9837L20.677 13.4253V6.18456C20.6784 5.523 20.5492 4.86767 20.2967 4.25618C20.0442 3.6447 19.6734 3.08912 19.2056 2.62132C18.7378 2.15352 18.1822 1.78273 17.5707 1.53022C16.9593 1.27772 16.3039 1.14847 15.6424 1.14991H6.18465C4.84938 1.14991 3.5688 1.68035 2.62462 2.62453C1.68044 3.56871 1.15 4.84929 1.15 6.18456V15.6641C1.15864 16.9947 1.69254 18.268 2.63547 19.2069C3.57841 20.1457 4.85403 20.6741 6.18465 20.6769H13.4254L12.0165 16.0682Z" fill="black"/>
</svg>
