<svg width="24" height="24" viewBox="0 0 24 24" fill="none" xmlns="http://www.w3.org/2000/svg">
<path d="M5.09746 3.23879C5.34188 3.08312 5.62423 3.00074 5.9123 3.00106C6.18297 2.99087 6.45163 3.05228 6.69221 3.17936L16.6681 9.12255V14.5665L5.02762 6.983V16.7061L9.95155 19.6064L6.59909 21.5676C6.35881 21.7107 6.08566 21.786 5.80753 21.786C5.5294 21.786 5.25625 21.7107 5.01598 21.5676L1.76828 19.5826C1.53341 19.4413 1.33888 19.2397 1.20408 18.9978C1.06928 18.7559 0.998924 18.4821 1.00001 18.2038V6.66207C1.00088 6.38712 1.07092 6.11701 1.20341 5.87765C1.3359 5.63829 1.52641 5.4377 1.75664 5.29514L5.09746 3.23879ZM18.484 21.5557L21.7317 19.5826C21.9666 19.4413 22.1611 19.2397 22.2959 18.9978C22.4307 18.7559 22.5011 18.4821 22.5 18.2038V6.66207C22.4991 6.38712 22.4291 6.11701 22.2966 5.87765C22.1641 5.63829 21.9736 5.4377 21.7434 5.29514L18.4025 3.23879C18.1591 3.09245 17.8818 3.01528 17.5993 3.01528C17.3169 3.01528 17.0396 3.09245 16.7962 3.23879L13.4903 5.16438L18.4142 8.06466V17.7877L6.77369 10.2042V15.6363L16.8427 21.5795C17.0927 21.7278 17.3775 21.804 17.6666 21.7998C17.9557 21.7956 18.2382 21.7112 18.484 21.5557Z" fill="black"/>
</svg>
