<svg width="24" height="24" viewBox="0 0 24 24" fill="none" xmlns="http://www.w3.org/2000/svg">
<path d="M18.1729 10.2303C18.1745 10.1128 18.1526 9.99611 18.1087 9.88707C18.0648 9.77803 17.9996 9.6788 17.917 9.59515C17.8345 9.51149 17.7361 9.44507 17.6276 9.39974C17.5192 9.35441 17.4028 9.33107 17.2852 9.33108H6.74788C6.50938 9.33108 6.28066 9.42582 6.11201 9.59446C5.94337 9.7631 5.84863 9.99183 5.84863 10.2303C5.84863 10.4688 5.94337 10.6975 6.11201 10.8662C6.28066 11.0348 6.50938 11.1296 6.74788 11.1296H17.2852C17.4028 11.1296 17.5192 11.1062 17.6276 11.0609C17.7361 11.0156 17.8345 10.9492 17.917 10.8655C17.9996 10.7818 18.0648 10.6826 18.1087 10.5736C18.1526 10.4645 18.1745 10.3479 18.1729 10.2303ZM14.4607 15.8564C14.4622 15.7398 14.4407 15.6241 14.3975 15.5158C14.3543 15.4075 14.2902 15.3088 14.2088 15.2253C14.1275 15.1418 14.0304 15.0751 13.9233 15.0291C13.8162 14.9831 13.701 14.9586 13.5845 14.9571H6.80552C6.56703 14.9571 6.3383 15.0519 6.16966 15.2205C6.00102 15.3892 5.90627 15.6179 5.90627 15.8564C5.90627 16.0949 6.00102 16.3236 6.16966 16.4923C6.3383 16.6609 6.56703 16.7556 6.80552 16.7556H13.5845C13.701 16.7541 13.8162 16.7297 13.9233 16.6837C14.0304 16.6377 14.1275 16.571 14.2088 16.4875C14.2902 16.404 14.3543 16.3053 14.3975 16.197C14.4407 16.0887 14.4622 15.973 14.4607 15.8564ZM22.5308 8.62782V17.1476C22.54 17.9747 22.3857 18.7954 22.0769 19.5627C21.7681 20.33 21.3109 21.0288 20.7314 21.619C20.1519 22.2092 19.4616 22.6791 18.7001 23.0019C17.9386 23.3247 17.1208 23.494 16.2937 23.5H7.69324C6.02577 23.4969 4.42764 22.8324 3.24964 21.6522C2.07164 20.4721 1.41003 18.8727 1.41003 17.2053V8.62782C1.40966 7.09492 1.96967 5.61475 2.98465 4.466C3.99962 3.31725 5.39953 2.57918 6.92081 2.39073V3.47444C6.92081 3.70376 7.01191 3.92369 7.17406 4.08584C7.33622 4.248 7.55615 4.3391 7.78547 4.3391C8.0148 4.3391 8.23472 4.248 8.39688 4.08584C8.55904 3.92369 8.65013 3.70376 8.65013 3.47444V2.32155H15.3369V3.47444C15.3369 3.70376 15.4279 3.92369 15.5901 4.08584C15.7523 4.248 15.9722 4.3391 16.2015 4.3391C16.4308 4.3391 16.6508 4.248 16.8129 4.08584C16.9751 3.92369 17.0662 3.70376 17.0662 3.47444V2.39073C18.5884 2.57679 19.9898 3.31417 21.0052 4.46344C22.0207 5.61271 22.5798 7.09422 22.577 8.62782H22.5308ZM7.69324 2.33308C7.43606 2.31581 7.178 2.31581 6.92081 2.33308V1.36466C6.92081 1.13534 7.01191 0.915409 7.17406 0.753254C7.33622 0.591098 7.55615 0.5 7.78547 0.5C8.0148 0.5 8.23472 0.591098 8.39688 0.753254C8.55904 0.915409 8.65013 1.13534 8.65013 1.36466V2.33308H7.69324ZM16.2937 2.33308H15.3369V1.36466C15.3369 1.13534 15.4279 0.915409 15.5901 0.753254C15.7523 0.591098 15.9722 0.5 16.2015 0.5C16.4308 0.5 16.6508 0.591098 16.8129 0.753254C16.9751 0.915409 17.0662 1.13534 17.0662 1.36466V2.39073C16.8103 2.3539 16.5522 2.33464 16.2937 2.33308Z" fill="black"/>
</svg>
