<svg width="24" height="24" viewBox="0 0 24 24" fill="none" xmlns="http://www.w3.org/2000/svg">
<path d="M15.6841 20.1799C15.4225 20.1595 15.1624 20.1229 14.9054 20.0702L10.595 19.0831C9.22692 18.7694 8.03927 17.9257 7.2928 16.7371C6.54633 15.5485 6.30206 14.1122 6.61363 12.7437L7.87494 7.25975L6.61363 12.7437C6.30206 14.1122 6.54633 15.5485 7.2928 16.7371C8.03927 17.9257 9.22692 18.7694 10.595 19.0831L14.8944 20.0702C15.1551 20.123 15.4188 20.1596 15.6841 20.1799ZM8.47817 4.91262C8.53301 4.79198 8.57688 4.67133 8.63172 4.56165C8.57688 4.67133 8.53301 4.82488 8.47817 4.91262ZM10.3427 20.1799C9.52207 19.9938 8.74641 19.6471 8.06051 19.1596C7.3746 18.6722 6.79203 18.0537 6.34641 17.3399C5.9008 16.6261 5.60097 15.8311 5.46424 15.0008C5.3275 14.1705 5.35656 13.3214 5.54974 12.5024L7.18396 5.37328C7.18396 5.19779 7.29364 5.04424 7.34848 4.87972L4.78199 5.61457C4.1214 5.80508 3.50483 6.12393 2.96754 6.55288C2.43025 6.98184 1.98278 7.51249 1.65071 8.11449C1.31864 8.71649 1.10849 9.37805 1.03226 10.0613C0.956028 10.7446 1.01522 11.4362 1.20646 12.0966L3.1039 18.6773C3.29222 19.3401 3.60933 19.9593 4.0371 20.4994C4.46488 21.0395 4.99493 21.49 5.59694 21.8252C6.19896 22.1603 6.86113 22.3735 7.54559 22.4525C8.23005 22.5315 8.92338 22.4749 9.58593 22.2858L13.9731 21.0135L10.3427 20.1799ZM22.868 8.95978L21.2229 16.1218C21.0688 16.7988 20.7829 17.4388 20.3814 18.0052C19.98 18.5717 19.4709 19.0535 18.8832 19.4233C18.2956 19.793 17.6409 20.0433 16.9564 20.1599C16.272 20.2766 15.5713 20.2573 14.8944 20.1032L10.595 19.0831C9.22692 18.7694 8.03927 17.9257 7.2928 16.7371C6.54633 15.5485 6.30206 14.1122 6.61363 12.7437L8.25881 5.58167C8.57973 4.22256 9.42538 3.04565 10.6111 2.30792C11.7968 1.57019 13.2262 1.33158 14.5873 1.64419L18.8867 2.6313C19.5637 2.78538 20.2037 3.0713 20.7701 3.47274C21.3366 3.87417 21.8184 4.38325 22.1881 4.97091C22.5578 5.55858 22.8082 6.21331 22.9248 6.89772C23.0415 7.58213 23.0222 8.28282 22.868 8.95978ZM14.9383 12.8753L11.8782 12.0747C11.6674 12.0214 11.444 12.0538 11.2569 12.1648C11.0699 12.2758 10.9344 12.4563 10.8801 12.6669C10.8522 12.7714 10.8455 12.8803 10.8603 12.9874C10.8751 13.0945 10.9111 13.1976 10.9663 13.2906C11.0215 13.3835 11.0946 13.4646 11.1816 13.5289C11.2685 13.5932 11.3674 13.6394 11.4724 13.665L14.5215 14.4657H14.7299C14.9131 14.4624 15.0903 14.3997 15.2347 14.2869C15.3791 14.1741 15.483 14.0174 15.5305 13.8405C15.5742 13.6344 15.5371 13.4193 15.4269 13.2398C15.3167 13.0602 15.1418 12.9297 14.9383 12.8753ZM18.1299 9.14623L12.964 7.81912C12.7532 7.76584 12.5298 7.79824 12.3427 7.90923C12.1557 8.02022 12.0202 8.20077 11.966 8.41138C11.9124 8.62365 11.9445 8.84847 12.0553 9.03728C12.1661 9.22608 12.3468 9.36371 12.5582 9.42043L17.7131 10.7366C17.7822 10.7468 17.8524 10.7468 17.9215 10.7366C18.1177 10.7316 18.3057 10.6565 18.4515 10.5251C18.5972 10.3936 18.6912 10.2144 18.7163 10.0197C18.7415 9.82503 18.6962 9.62778 18.5887 9.46358C18.4811 9.29937 18.3184 9.17903 18.1299 9.12429V9.14623Z" fill="black"/>
</svg>
