<svg width="24" height="24" viewBox="0 0 24 24" fill="none" xmlns="http://www.w3.org/2000/svg">
<path d="M20.9874 8.1268C20.2525 8.2657 19.4963 8.24544 18.7699 8.06739C18.0435 7.88935 17.3637 7.55765 16.7763 7.09466C16.1823 6.63966 15.6914 6.06418 15.3356 5.406C14.9799 4.74783 14.7673 4.02185 14.712 3.27573L15.2487 2.55323H7.59018C6.78427 2.55456 5.98659 2.7153 5.24307 3.02621C4.49954 3.33711 3.82487 3.79202 3.25789 4.36476C2.69091 4.93749 2.24283 5.61673 1.93946 6.36335C1.63608 7.10998 1.4834 7.90925 1.49021 8.71513V16.8587C1.48749 17.6625 1.64312 18.459 1.9482 19.2026C2.25329 19.9462 2.70185 20.6225 3.26829 21.1927C3.83472 21.763 4.50794 22.2161 5.24949 22.5262C5.99104 22.8363 6.78641 22.9973 7.59018 23H16.126C17.7439 22.9864 19.2906 22.3327 20.4279 21.1818C21.5652 20.031 22.2005 18.4767 22.195 16.8587V8.71513C22.1943 8.10655 22.1039 7.5014 21.9267 6.9192L20.9874 8.1268ZM15.7132 15.0938C15.4149 15.4991 14.9899 15.7933 14.5055 15.9298L11.3369 16.8897C11.0963 16.961 10.844 16.9842 10.5944 16.9579C10.3449 16.9317 10.103 16.8565 9.88249 16.7367C9.66201 16.6168 9.46732 16.4547 9.30953 16.2596C9.15175 16.0645 9.03397 15.8402 8.96293 15.5995C8.92238 15.434 8.90159 15.2642 8.901 15.0938V11.7083C8.91167 11.2028 9.07741 10.7128 9.37579 10.3046L13.1638 5.26777C13.6442 6.59824 14.4969 7.76262 15.6203 8.62223C16.7447 9.47063 18.0869 9.98245 19.4908 10.0982L15.7132 15.0938ZM21.906 6.83662H21.9886C22.3988 6.29071 22.5768 5.60495 22.484 4.92846C22.3912 4.25196 22.0351 3.63945 21.4932 3.22412L19.2224 1.52108C18.9551 1.31752 18.6502 1.16881 18.3252 1.08351C18.0002 0.998215 17.6615 0.978005 17.3287 1.02405C16.9958 1.07009 16.6754 1.18147 16.3857 1.3518C16.0961 1.52212 15.8429 1.74802 15.6409 2.01651L15.1868 2.58419H16.126C17.4335 2.58471 18.7059 3.00673 19.7546 3.78764C20.8032 4.56854 21.5722 5.66671 21.9473 6.9192L21.906 6.83662Z" fill="black"/>
</svg>
