<svg width="24" height="24" viewBox="0 0 24 24" fill="none" xmlns="http://www.w3.org/2000/svg">
<path d="M19.525 7.7C21.3061 7.7 22.75 6.25612 22.75 4.475C22.75 2.69388 21.3061 1.25 19.525 1.25C17.7439 1.25 16.3 2.69388 16.3 4.475C16.3 6.25612 17.7439 7.7 19.525 7.7Z" fill="black"/>
<path d="M19.525 9.3125C18.2429 9.30966 17.0141 8.79908 16.1075 7.89249C15.2009 6.9859 14.6903 5.75711 14.6875 4.475C14.6983 3.72645 14.8822 2.99056 15.225 2.325H6.625C5.19946 2.325 3.83231 2.89129 2.8243 3.8993C1.81629 4.90731 1.25 6.27446 1.25 7.7V17.375C1.25 18.8005 1.81629 20.1677 2.8243 21.1757C3.83231 22.1837 5.19946 22.75 6.625 22.75H16.3C17.7255 22.75 19.0927 22.1837 20.1007 21.1757C21.1087 20.1677 21.675 18.8005 21.675 17.375V8.775C21.0094 9.11776 20.2736 9.30173 19.525 9.3125ZM9.38775 18.3855C9.09798 18.5678 8.7626 18.6645 8.42025 18.6645C8.0779 18.6645 7.74252 18.5678 7.45275 18.3855C6.79056 18.0327 6.23077 17.5148 5.82771 16.8819C5.42464 16.249 5.19196 15.5228 5.15225 14.7735C5.14151 14.3229 5.28014 13.8814 5.54653 13.5177C5.81292 13.1541 6.1921 12.8889 6.625 12.7632C6.93229 12.6754 7.25636 12.6638 7.56916 12.7293C7.88196 12.7949 8.17408 12.9357 8.42025 13.1395C8.68751 12.9194 9.0076 12.7729 9.34886 12.7144C9.69012 12.656 10.0407 12.6876 10.366 12.8062C10.7559 12.9496 11.09 13.2134 11.32 13.5594C11.55 13.9053 11.6639 14.3155 11.6452 14.7305C11.6291 15.4857 11.4112 16.2228 11.0143 16.8654C10.6173 17.5081 10.0558 18.0329 9.38775 18.3855Z" fill="black"/>
</svg>
