<svg width="24" height="24" viewBox="0 0 24 24" fill="none" xmlns="http://www.w3.org/2000/svg">
<path fill-rule="evenodd" clip-rule="evenodd" d="M12.8172 4.12313V2.0566C12.8172 1.84267 12.7293 1.63751 12.5729 1.48625C12.4166 1.33498 12.2045 1.25 11.9833 1.25C11.7622 1.25 11.5501 1.33498 11.3937 1.48625C11.2373 1.63751 11.1495 1.84267 11.1495 2.0566V4.09997C11.1444 4.11912 11.1432 4.139 11.146 4.15848C10.6366 4.23611 10.1372 4.37484 9.65964 4.57285C8.54902 5.01545 7.60188 5.77125 6.94154 6.74186C6.28121 7.71246 5.93827 8.8529 5.95738 10.0147V10.0792C5.96621 11.957 5.34601 13.787 4.18964 15.2952L3.45586 16.3061C3.15744 16.6988 2.99761 17.1739 3.00003 17.6612C3.00003 18.2659 3.24835 18.8458 3.69037 19.2734C4.1324 19.701 4.73191 19.9412 5.35702 19.9412H18.6429C18.9524 19.9412 19.2589 19.8822 19.5449 19.7676C19.8308 19.653 20.0907 19.4851 20.3095 19.2734C20.5284 19.0617 20.702 18.8103 20.8205 18.5337C20.9389 18.2571 20.9999 17.9606 20.9999 17.6612V17.5967C21.0046 17.1372 20.865 16.6872 20.5996 16.3061L19.8436 15.2307C18.8467 13.7669 18.3277 12.047 18.3538 10.2943V10.1007C18.3508 9.10378 18.0925 8.12311 17.6019 7.24636C17.1113 6.36961 16.4038 5.62413 15.5425 5.07654C14.7235 4.55578 13.7897 4.22945 12.8172 4.12313ZM9.84863 20.9521C9.92311 21.4513 10.181 21.9077 10.5751 22.2379C10.9692 22.568 11.4731 22.7497 11.9944 22.7497C12.5157 22.7497 13.0196 22.568 13.4137 22.2379C13.8078 21.9077 14.0657 21.4513 14.1401 20.9521H9.84863Z" fill="black"/>
</svg>
