<svg width="24" height="24" viewBox="0 0 24 24" fill="none" xmlns="http://www.w3.org/2000/svg">
<path d="M13.575 4.39501C13.575 4.70651 13.4826 5.01102 13.3096 5.27003C13.1365 5.52904 12.8905 5.73091 12.6027 5.85012C12.3149 5.96933 11.9983 6.00052 11.6927 5.93974C11.3872 5.87897 11.1066 5.72897 10.8863 5.5087C10.666 5.28843 10.516 5.00779 10.4553 4.70227C10.3945 4.39675 10.4257 4.08007 10.5449 3.79228C10.6641 3.50449 10.866 3.25851 11.125 3.08544C11.384 2.91238 11.6885 2.82001 12 2.82001C12.4177 2.82001 12.8183 2.98594 13.1137 3.28131C13.4091 3.57668 13.575 3.97729 13.575 4.39501ZM12 7.54501C11.6885 7.54501 11.384 7.63738 11.125 7.81044C10.866 7.98351 10.6641 8.22949 10.5449 8.51728C10.4257 8.80508 10.3945 9.12176 10.4553 9.42728C10.516 9.7328 10.666 10.0134 10.8863 10.2337C11.1066 10.454 11.3872 10.604 11.6927 10.6647C11.9983 10.7255 12.3149 10.6943 12.6027 10.5751C12.8905 10.4559 13.1365 10.254 13.3096 9.99503C13.4826 9.73602 13.575 9.43151 13.575 9.12001C13.5722 8.70411 13.4051 8.3062 13.11 8.0131C12.8149 7.71999 12.4159 7.5555 12 7.55551V7.54501ZM7.5375 5.18251C7.22599 5.18251 6.92148 5.27488 6.66248 5.44794C6.40347 5.62101 6.2016 5.86699 6.08239 6.15478C5.96318 6.44257 5.93199 6.75925 5.99276 7.06477C6.05353 7.3703 6.20354 7.65093 6.42381 7.8712C6.64407 8.09147 6.92471 8.24147 7.23023 8.30224C7.53575 8.36302 7.85243 8.33183 8.14023 8.21262C8.42802 8.09341 8.674 7.89154 8.84706 7.63253C9.02013 7.37352 9.1125 7.06901 9.1125 6.75751C9.1125 6.33979 8.94656 5.93918 8.65119 5.64381C8.35582 5.34844 7.95522 5.18251 7.5375 5.18251ZM16.4625 5.18251C16.151 5.18251 15.8465 5.27488 15.5875 5.44794C15.3285 5.62101 15.1266 5.86699 15.0074 6.15478C14.8882 6.44257 14.857 6.75925 14.9178 7.06477C14.9785 7.3703 15.1285 7.65093 15.3488 7.8712C15.5691 8.09147 15.8497 8.24147 16.1552 8.30224C16.4608 8.36302 16.7774 8.33183 17.0652 8.21262C17.353 8.09341 17.599 7.89154 17.7721 7.63253C17.9451 7.37352 18.0375 7.06901 18.0375 6.75751C18.0375 6.33979 17.8716 5.93918 17.5762 5.64381C17.2808 5.34844 16.8802 5.18251 16.4625 5.18251ZM16.4625 9.64501C16.151 9.64501 15.8465 9.73738 15.5875 9.91044C15.3285 10.0835 15.1266 10.3295 15.0074 10.6173C14.8882 10.9051 14.857 11.2218 14.9178 11.5273C14.9785 11.8328 15.1285 12.1134 15.3488 12.3337C15.5691 12.554 15.8497 12.704 16.1552 12.7647C16.4608 12.8255 16.7774 12.7943 17.0652 12.6751C17.353 12.5559 17.599 12.354 17.7721 12.095C17.9451 11.836 18.0375 11.5315 18.0375 11.22C18.0347 10.8041 17.8676 10.4062 17.5725 10.1131C17.2774 9.81999 16.8784 9.6555 16.4625 9.65551V9.64501ZM20.925 7.54501C20.6135 7.54501 20.309 7.63738 20.05 7.81044C19.791 7.98351 19.5891 8.22949 19.4699 8.51728C19.3507 8.80508 19.3195 9.12176 19.3803 9.42728C19.441 9.7328 19.591 10.0134 19.8113 10.2337C20.0316 10.454 20.3122 10.604 20.6177 10.6647C20.9233 10.7255 21.2399 10.6943 21.5277 10.5751C21.8155 10.4559 22.0615 10.254 22.2346 9.99503C22.4076 9.73602 22.5 9.43151 22.5 9.12001C22.5 8.70229 22.3341 8.30168 22.0387 8.00631C21.7433 7.71094 21.3427 7.54501 20.925 7.54501ZM12 11.745C11.6885 11.745 11.384 11.8374 11.125 12.0104C10.866 12.1835 10.6641 12.4295 10.5449 12.7173C10.4257 13.0051 10.3945 13.3218 10.4553 13.6273C10.516 13.9328 10.666 14.2134 10.8863 14.4337C11.1066 14.654 11.3872 14.804 11.6927 14.8647C11.9983 14.9255 12.3149 14.8943 12.6027 14.7751C12.8905 14.6559 13.1365 14.454 13.3096 14.195C13.4826 13.936 13.575 13.6315 13.575 13.32C13.575 12.9023 13.4091 12.5017 13.1137 12.2063C12.8183 11.9109 12.4177 11.745 12 11.745ZM7.5375 9.64501C7.22599 9.64501 6.92148 9.73738 6.66248 9.91044C6.40347 10.0835 6.2016 10.3295 6.08239 10.6173C5.96318 10.9051 5.93199 11.2218 5.99276 11.5273C6.05353 11.8328 6.20354 12.1134 6.42381 12.3337C6.64407 12.554 6.92471 12.704 7.23023 12.7647C7.53575 12.8255 7.85243 12.7943 8.14023 12.6751C8.42802 12.5559 8.674 12.354 8.84706 12.095C9.02013 11.836 9.1125 11.5315 9.1125 11.22C9.10973 10.8041 8.94257 10.4062 8.6475 10.1131C8.35243 9.81999 7.9534 9.6555 7.5375 9.65551V9.64501ZM3.075 7.54501C2.76349 7.54501 2.45898 7.63738 2.19998 7.81044C1.94097 7.98351 1.7391 8.22949 1.61989 8.51728C1.50068 8.80508 1.46949 9.12176 1.53026 9.42728C1.59104 9.7328 1.74104 10.0134 1.96131 10.2337C2.18158 10.454 2.46221 10.604 2.76773 10.6647C3.07325 10.7255 3.38993 10.6943 3.67773 10.5751C3.96552 10.4559 4.2115 10.254 4.38456 9.99503C4.55763 9.73602 4.65 9.43151 4.65 9.12001C4.65 8.70229 4.48406 8.30168 4.18869 8.00631C3.89332 7.71094 3.49272 7.54501 3.075 7.54501ZM3.075 12.27C2.86733 12.27 2.66432 12.3316 2.49165 12.447C2.31898 12.5623 2.1844 12.7263 2.10493 12.9182C2.02545 13.1101 2.00466 13.3212 2.04518 13.5249C2.08569 13.7285 2.18569 13.9156 2.33254 14.0625C2.47938 14.2093 2.66648 14.3093 2.87016 14.3498C3.07384 14.3903 3.28496 14.3696 3.47682 14.2901C3.66868 14.2106 3.83267 14.076 3.94804 13.9034C4.06342 13.7307 4.125 13.5277 4.125 13.32C4.125 13.0415 4.01438 12.7745 3.81746 12.5775C3.62055 12.3806 3.35348 12.27 3.075 12.27ZM7.5375 14.37C7.32983 14.37 7.12682 14.4316 6.95415 14.547C6.78148 14.6623 6.6469 14.8263 6.56743 15.0182C6.48795 15.2101 6.46716 15.4212 6.50768 15.6249C6.54819 15.8285 6.64819 16.0156 6.79504 16.1625C6.94188 16.3093 7.12898 16.4093 7.33266 16.4498C7.53634 16.4903 7.74746 16.4696 7.93932 16.3901C8.13118 16.3106 8.29517 16.176 8.41054 16.0034C8.52592 15.8307 8.5875 15.6277 8.5875 15.42C8.58473 15.1434 8.47289 14.879 8.27627 14.6843C8.07966 14.4897 7.81417 14.3805 7.5375 14.3805V14.37ZM7.5375 14.37C7.32983 14.37 7.12682 14.4316 6.95415 14.547C6.78148 14.6623 6.6469 14.8263 6.56743 15.0182C6.48795 15.2101 6.46716 15.4212 6.50768 15.6249C6.54819 15.8285 6.64819 16.0156 6.79504 16.1625C6.94188 16.3093 7.12898 16.4093 7.33266 16.4498C7.53634 16.4903 7.74746 16.4696 7.93932 16.3901C8.13118 16.3106 8.29517 16.176 8.41054 16.0034C8.52592 15.8307 8.5875 15.6277 8.5875 15.42C8.58473 15.1434 8.47289 14.879 8.27627 14.6843C8.07966 14.4897 7.81417 14.3805 7.5375 14.3805V14.37ZM12 16.47C11.7923 16.47 11.5893 16.5316 11.4167 16.647C11.244 16.7623 11.1094 16.9263 11.0299 17.1182C10.9505 17.3101 10.9297 17.5212 10.9702 17.7249C11.0107 17.9285 11.1107 18.1156 11.2575 18.2625C11.4044 18.4093 11.5915 18.5093 11.7952 18.5498C11.9988 18.5903 12.21 18.5696 12.4018 18.4901C12.5937 18.4106 12.7577 18.276 12.873 18.1034C12.9884 17.9307 13.05 17.7277 13.05 17.52C13.05 17.2415 12.9394 16.9745 12.7425 16.7775C12.5455 16.5806 12.2785 16.47 12 16.47ZM12 16.47C11.7923 16.47 11.5893 16.5316 11.4167 16.647C11.244 16.7623 11.1094 16.9263 11.0299 17.1182C10.9505 17.3101 10.9297 17.5212 10.9702 17.7249C11.0107 17.9285 11.1107 18.1156 11.2575 18.2625C11.4044 18.4093 11.5915 18.5093 11.7952 18.5498C11.9988 18.5903 12.21 18.5696 12.4018 18.4901C12.5937 18.4106 12.7577 18.276 12.873 18.1034C12.9884 17.9307 13.05 17.7277 13.05 17.52C13.05 17.2415 12.9394 16.9745 12.7425 16.7775C12.5455 16.5806 12.2785 16.47 12 16.47ZM16.4625 14.37C16.2548 14.37 16.0518 14.4316 15.8792 14.547C15.7065 14.6623 15.5719 14.8263 15.4924 15.0182C15.413 15.2101 15.3922 15.4212 15.4327 15.6249C15.4732 15.8285 15.5732 16.0156 15.72 16.1625C15.8669 16.3093 16.054 16.4093 16.2577 16.4498C16.4613 16.4903 16.6725 16.4696 16.8643 16.3901C17.0562 16.3106 17.2202 16.176 17.3355 16.0034C17.4509 15.8307 17.5125 15.6277 17.5125 15.42C17.5097 15.1434 17.3979 14.879 17.2013 14.6843C17.0047 14.4897 16.7392 14.3805 16.4625 14.3805V14.37ZM16.4625 14.37C16.2548 14.37 16.0518 14.4316 15.8792 14.547C15.7065 14.6623 15.5719 14.8263 15.4924 15.0182C15.413 15.2101 15.3922 15.4212 15.4327 15.6249C15.4732 15.8285 15.5732 16.0156 15.72 16.1625C15.8669 16.3093 16.054 16.4093 16.2577 16.4498C16.4613 16.4903 16.6725 16.4696 16.8643 16.3901C17.0562 16.3106 17.2202 16.176 17.3355 16.0034C17.4509 15.8307 17.5125 15.6277 17.5125 15.42C17.5097 15.1434 17.3979 14.879 17.2013 14.6843C17.0047 14.4897 16.7392 14.3805 16.4625 14.3805V14.37ZM20.925 12.27C20.7173 12.27 20.5143 12.3316 20.3417 12.447C20.169 12.5623 20.0344 12.7263 19.9549 12.9182C19.8755 13.1101 19.8547 13.3212 19.8952 13.5249C19.9357 13.7285 20.0357 13.9156 20.1825 14.0625C20.3294 14.2093 20.5165 14.3093 20.7202 14.3498C20.9238 14.3903 21.135 14.3696 21.3268 14.2901C21.5187 14.2106 21.6827 14.076 21.798 13.9034C21.9134 13.7307 21.975 13.5277 21.975 13.32C21.975 13.0415 21.8644 12.7745 21.6675 12.5775C21.4705 12.3806 21.2035 12.27 20.925 12.27ZM20.925 12.27C20.7173 12.27 20.5143 12.3316 20.3417 12.447C20.169 12.5623 20.0344 12.7263 19.9549 12.9182C19.8755 13.1101 19.8547 13.3212 19.8952 13.5249C19.9357 13.7285 20.0357 13.9156 20.1825 14.0625C20.3294 14.2093 20.5165 14.3093 20.7202 14.3498C20.9238 14.3903 21.135 14.3696 21.3268 14.2901C21.5187 14.2106 21.6827 14.076 21.798 13.9034C21.9134 13.7307 21.975 13.5277 21.975 13.32C21.975 13.0415 21.8644 12.7745 21.6675 12.5775C21.4705 12.3806 21.2035 12.27 20.925 12.27ZM3.075 12.27C2.86733 12.27 2.66432 12.3316 2.49165 12.447C2.31898 12.5623 2.1844 12.7263 2.10493 12.9182C2.02545 13.1101 2.00466 13.3212 2.04518 13.5249C2.08569 13.7285 2.18569 13.9156 2.33254 14.0625C2.47938 14.2093 2.66648 14.3093 2.87016 14.3498C3.07384 14.3903 3.28496 14.3696 3.47682 14.2901C3.66868 14.2106 3.83267 14.076 3.94804 13.9034C4.06342 13.7307 4.125 13.5277 4.125 13.32C4.125 13.0415 4.01438 12.7745 3.81746 12.5775C3.62055 12.3806 3.35348 12.27 3.075 12.27ZM20.925 15.6825C20.7692 15.6825 20.617 15.7287 20.4875 15.8152C20.358 15.9018 20.257 16.0247 20.1974 16.1686C20.1378 16.3125 20.1222 16.4709 20.1526 16.6236C20.183 16.7764 20.258 16.9167 20.3682 17.0269C20.4783 17.137 20.6186 17.212 20.7714 17.2424C20.9241 17.2728 21.0825 17.2572 21.2264 17.1976C21.3703 17.138 21.4932 17.037 21.5798 16.9075C21.6663 16.778 21.7125 16.6258 21.7125 16.47C21.7098 16.262 21.6259 16.0633 21.4788 15.9162C21.3317 15.7691 21.133 15.6852 20.925 15.6825ZM16.4625 18.0555C16.3063 18.0555 16.1536 18.102 16.0239 18.189C15.8942 18.276 15.7933 18.3996 15.734 18.5441C15.6747 18.6886 15.6597 18.8475 15.691 19.0005C15.7222 19.1536 15.7983 19.2939 15.9095 19.4036C16.0207 19.5133 16.162 19.5874 16.3154 19.6166C16.4689 19.6458 16.6275 19.6287 16.7712 19.5675C16.9149 19.5063 17.0372 19.4037 17.1224 19.2728C17.2077 19.142 17.2521 18.9887 17.25 18.8325C17.2472 18.6255 17.1631 18.4279 17.0157 18.2824C16.8683 18.137 16.6696 18.0555 16.4625 18.0555ZM12 20.4075C11.8442 20.4075 11.692 20.4537 11.5625 20.5402C11.433 20.6268 11.3321 20.7497 11.2724 20.8936C11.2128 21.0375 11.1972 21.1959 11.2276 21.3486C11.258 21.5014 11.333 21.6417 11.4432 21.7519C11.5533 21.862 11.6936 21.937 11.8464 21.9674C11.9991 21.9978 12.1575 21.9822 12.3014 21.9226C12.4453 21.863 12.5683 21.762 12.6548 21.6325C12.7413 21.503 12.7875 21.3508 12.7875 21.195C12.7848 20.987 12.7009 20.7883 12.5538 20.6412C12.4067 20.4941 12.208 20.4102 12 20.4075ZM7.5375 18.045C7.38175 18.045 7.22949 18.0912 7.09999 18.1777C6.97049 18.2643 6.86955 18.3872 6.80995 18.5311C6.75034 18.675 6.73475 18.8334 6.76513 18.9861C6.79552 19.1389 6.87052 19.2792 6.98065 19.3894C7.09079 19.4995 7.23111 19.5745 7.38387 19.6049C7.53663 19.6353 7.69497 19.6197 7.83886 19.5601C7.98276 19.5005 8.10575 19.3995 8.19228 19.27C8.27881 19.1405 8.325 18.9883 8.325 18.8325C8.32228 18.6245 8.23844 18.4258 8.09134 18.2787C7.94424 18.1316 7.74551 18.0477 7.5375 18.045ZM3.075 15.6825C2.91925 15.6825 2.76699 15.7287 2.63749 15.8152C2.50799 15.9018 2.40705 16.0247 2.34745 16.1686C2.28784 16.3125 2.27225 16.4709 2.30263 16.6236C2.33302 16.7764 2.40802 16.9167 2.51815 17.0269C2.62829 17.137 2.76861 17.212 2.92137 17.2424C3.07413 17.2728 3.23247 17.2572 3.37636 17.1976C3.52026 17.138 3.64325 17.037 3.72978 16.9075C3.81631 16.778 3.8625 16.6258 3.8625 16.47C3.85978 16.262 3.77594 16.0633 3.62884 15.9162C3.48174 15.7691 3.28301 15.6852 3.075 15.6825Z" fill="black"/>
</svg>
