<svg width="24" height="24" viewBox="0 0 24 24" fill="none" xmlns="http://www.w3.org/2000/svg">
<path d="M20.228 5.46078H3.728C3.00047 5.47254 2.30665 5.77501 1.79628 6.30292C1.28591 6.83084 0.999908 7.54186 1 8.28254V13.299C1 13.8929 1.23178 14.4626 1.64437 14.8825C2.05695 15.3025 2.61652 15.5385 3.2 15.5385H20.8C21.3835 15.5385 21.9431 15.3025 22.3556 14.8825C22.7682 14.4626 23 13.8929 23 13.299V8.28254C23 7.53416 22.708 6.81644 22.1881 6.28725C21.6682 5.75807 20.9632 5.46078 20.228 5.46078ZM13.925 14.1724H10.812C10.5932 14.1724 10.3834 14.0839 10.2286 13.9264C10.0739 13.7689 9.987 13.5553 9.987 13.3326C9.987 13.1099 10.0739 12.8962 10.2286 12.7388C10.3834 12.5813 10.5932 12.4928 10.812 12.4928H13.925C14.1438 12.4928 14.3536 12.5813 14.5084 12.7388C14.6631 12.8962 14.75 13.1099 14.75 13.3326C14.75 13.5553 14.6631 13.7689 14.5084 13.9264C14.3536 14.0839 14.1438 14.1724 13.925 14.1724ZM2.573 15.4377C2.40903 15.387 2.25055 15.3195 2.1 15.2361C2.25272 15.3148 2.4108 15.3821 2.573 15.4377ZM21.9 15.2361C21.7494 15.3195 21.591 15.387 21.427 15.4377C21.5892 15.3821 21.7473 15.3148 21.9 15.2361ZM2.65 15.4601C2.82953 15.5089 3.01422 15.5352 3.2 15.5385C3.01383 15.5407 2.82841 15.5143 2.65 15.4601ZM21.9 17.0389V19.8977C21.9 20.4917 21.6682 21.0613 21.2556 21.4813C20.8431 21.9013 20.2835 22.1372 19.7 22.1372H4.3C3.71652 22.1372 3.15694 21.9013 2.74436 21.4813C2.33178 21.0613 2.1 20.4917 2.1 19.8977V17.0389C2.45551 17.1556 2.82649 17.216 3.2 17.2181H20.8C21.1735 17.216 21.5445 17.1556 21.9 17.0389ZM20.8 15.5385C20.9858 15.5352 21.1705 15.5089 21.35 15.4601C21.1716 15.5143 20.9862 15.5407 20.8 15.5385ZM15.63 6.30059C15.4112 6.30059 15.2014 6.21211 15.0466 6.05462C14.8919 5.89712 14.805 5.68351 14.805 5.46078V4.72175C14.805 4.42478 14.6891 4.13996 14.4828 3.92997C14.2765 3.71998 13.9967 3.60201 13.705 3.60201H11.065C10.7733 3.60201 10.4935 3.71998 10.2872 3.92997C10.0809 4.13996 9.965 4.42478 9.965 4.72175V5.42719C9.965 5.64992 9.87808 5.86353 9.72336 6.02102C9.56865 6.17852 9.3588 6.267 9.14 6.267C8.9212 6.267 8.71135 6.17852 8.55664 6.02102C8.40192 5.86353 8.315 5.64992 8.315 5.42719V4.72175C8.315 3.97337 8.60705 3.25565 9.1269 2.72647C9.64675 2.19729 10.3518 1.89999 11.087 1.89999H13.694C14.4273 1.90296 15.1295 2.20155 15.647 2.73042C16.1645 3.25928 16.455 3.97531 16.455 4.72175V5.42719C16.4594 5.54027 16.4414 5.6531 16.4019 5.7589C16.3625 5.86469 16.3024 5.96128 16.2253 6.04286C16.1483 6.12444 16.0558 6.18932 15.9535 6.23361C15.8512 6.2779 15.7412 6.30068 15.63 6.30059Z" fill="black"/>
</svg>
