<svg width="24" height="24" viewBox="0 0 24 24" fill="none" xmlns="http://www.w3.org/2000/svg">
<path d="M21.3824 8.34439L15.1497 2.11164C14.5001 1.46379 13.6201 1.09998 12.7027 1.09998C11.7853 1.09998 10.9053 1.46379 10.2557 2.11164L1.76167 10.6057C1.11382 11.2553 0.75 12.1353 0.75 13.0527C0.75 13.9701 1.11382 14.8501 1.76167 15.4997L7.99441 21.7324C8.64398 22.3803 9.52396 22.7441 10.4414 22.7441C11.3588 22.7441 12.2388 22.3803 12.8883 21.7324L21.3824 13.2383C22.0303 12.5888 22.3941 11.7088 22.3941 10.7914C22.3941 9.87393 22.0303 8.99396 21.3824 8.34439ZM20.3136 10.8082C20.2535 11.0059 20.123 11.1747 19.9467 11.2825C19.7704 11.3903 19.5607 11.4297 19.3573 11.3933C13.8582 10.4407 8.22216 10.6245 2.79671 11.9333L11.6058 3.12418C11.7532 2.97587 11.9285 2.85818 12.1216 2.77786C12.3147 2.69755 12.5217 2.6562 12.7308 2.6562C12.94 2.6562 13.147 2.69755 13.3401 2.77786C13.5332 2.85818 13.7085 2.97587 13.8559 3.12418L19.8749 9.18817C20.09 9.39166 20.2448 9.6506 20.3223 9.93645C20.3997 10.2223 20.3967 10.524 20.3136 10.8082ZM23.25 20.3824C23.25 21.0507 22.9845 21.6917 22.5119 22.1643C22.0393 22.6369 21.3983 22.9024 20.7299 22.9024C20.0615 22.9024 19.4205 22.6369 18.9479 22.1643C18.4753 21.6917 18.2098 21.0507 18.2098 20.3824C18.362 19.0372 18.9191 17.77 19.8074 16.7485C19.9107 16.5976 20.0492 16.4743 20.2109 16.389C20.3726 16.3038 20.5527 16.2592 20.7355 16.2592C20.9183 16.2592 21.0984 16.3038 21.2601 16.389C21.4219 16.4743 21.5604 16.5976 21.6637 16.7485C22.5604 17.7634 23.1154 19.0347 23.25 20.3824Z" fill="black"/>
</svg>
