<svg width="24" height="24" viewBox="0 0 24 24" fill="none" xmlns="http://www.w3.org/2000/svg">
<path d="M19.7116 10.995L15.3774 19.3309C14.8607 20.3987 14.062 21.3049 13.0675 21.9516C12.0731 22.5983 10.9208 22.9608 9.73519 23C8.86315 23.0021 8.00357 22.7929 7.23001 22.3903C6.52697 22.0235 5.91083 21.5101 5.4232 20.8848C4.93556 20.2595 4.58779 19.5368 4.40336 18.7656C3.99582 17.1555 4.20539 15.4513 4.99086 13.988L9.02576 6.22854L10.3227 3.74553C10.8547 2.60464 11.8175 1.72127 12.9998 1.28907C14.1821 0.856861 15.4876 0.911092 16.63 1.43987C17.7195 2.07283 18.5149 3.11059 18.8429 4.3272C19.171 5.5438 19.0051 6.84073 18.3814 7.93562L16.3085 11.904L14.1692 15.8724C13.8911 16.4253 13.4676 16.8918 12.9441 17.2219C12.4207 17.552 11.8171 17.7331 11.1984 17.7457C10.7354 17.7487 10.2787 17.6383 9.86821 17.4243C9.49257 17.2307 9.16331 16.9581 8.90307 16.6251C8.64283 16.2922 8.45779 15.9068 8.36067 15.4955C8.13662 14.6673 8.23156 13.7852 8.6267 13.0236L11.7526 7.00449C11.8541 6.80751 12.0296 6.6589 12.2406 6.59134C12.4516 6.52378 12.6808 6.5428 12.8778 6.64423C13.0747 6.74565 13.2233 6.92117 13.2909 7.13217C13.3585 7.34317 13.3394 7.57237 13.238 7.76934L10.101 13.7884C9.89241 14.1872 9.8372 14.6486 9.94581 15.0854C9.98734 15.2676 10.0671 15.4389 10.1799 15.588C10.2926 15.737 10.4358 15.8604 10.5998 15.95C10.9825 16.1062 11.4112 16.1067 11.7942 15.9513C12.1773 15.796 12.4846 15.4972 12.6505 15.1186L14.3798 11.7932L16.8184 7.09317C17.2374 6.39346 17.3641 5.55698 17.1712 4.76459C16.9783 3.9722 16.4812 3.28757 15.7875 2.85874C15.037 2.53695 14.1901 2.52277 13.4293 2.81925C12.6684 3.11572 12.0544 3.69914 11.7194 4.44388L9.33614 9.07736L6.40973 14.6974C5.81901 15.7971 5.65707 17.0767 5.95525 18.2889C6.08538 18.8305 6.3284 19.3386 6.66842 19.7799C7.00843 20.2211 7.43777 20.5856 7.92836 20.8495C9.01658 21.3278 10.2498 21.3561 11.3588 20.9282C12.4679 20.5004 13.3626 19.6512 13.8477 18.566L18.1819 10.2302C18.2855 10.0398 18.4586 9.89671 18.665 9.83064C18.8715 9.76458 19.0955 9.78063 19.2904 9.87547C19.3928 9.91976 19.4853 9.98424 19.5624 10.0651C19.6394 10.1459 19.6993 10.2414 19.7386 10.3458C19.7779 10.4503 19.7958 10.5617 19.7912 10.6732C19.7865 10.7847 19.7595 10.8942 19.7116 10.995Z" fill="black"/>
</svg>
