<svg width="24" height="24" viewBox="0 0 24 24" fill="none" xmlns="http://www.w3.org/2000/svg">
<path d="M4.54578 9.46571L10.0494 12.6355C10.4085 12.855 10.7045 13.1642 10.908 13.5326C11.1116 13.9011 11.2158 14.3162 11.2104 14.7371V21.0882C11.2078 21.5124 11.0941 21.9284 10.8806 22.2949C10.6671 22.6614 10.3612 22.9655 9.99357 23.177C9.62589 23.3884 9.20921 23.4998 8.78506 23.5C8.36092 23.5002 7.94413 23.3893 7.57623 23.1782L2.1191 20.0084C1.7607 19.7881 1.46541 19.4787 1.26195 19.1105C1.05849 18.7422 0.953785 18.3276 0.958009 17.9068V11.5557C0.965015 11.1383 1.07959 10.7297 1.29066 10.3695C1.50173 10.0093 1.80215 9.70969 2.16288 9.49955C2.52361 9.28942 2.93246 9.1759 3.34989 9.16997C3.76732 9.16404 4.17923 9.26591 4.54578 9.46571ZM19.4077 9.46571L18.1189 10.2088V13.2741C18.119 13.5031 18.0288 13.7228 17.868 13.8858C17.7072 14.0488 17.4887 14.1419 17.2597 14.1449C17.0308 14.1449 16.811 14.0548 16.648 13.894C16.4851 13.7332 16.392 13.5146 16.3889 13.2857V11.2074L13.9042 12.6355C13.545 12.855 13.2491 13.1642 13.0455 13.5326C12.8419 13.9011 12.7377 14.3162 12.7431 14.7371V21.0882C12.7457 21.5124 12.8594 21.9284 13.0729 22.2949C13.2864 22.6614 13.5923 22.9655 13.96 23.177C14.3276 23.3884 14.7443 23.4998 15.1685 23.5C15.5926 23.5002 16.0094 23.3893 16.3773 23.1782L21.8809 20.0084C22.2393 19.7881 22.5346 19.4787 22.738 19.1105C22.9415 18.7422 23.0462 18.3276 23.042 17.9068V11.5557C23.0394 11.1315 22.9256 10.7155 22.7121 10.349C22.4986 9.98253 22.1928 9.67841 21.8251 9.46696C21.4574 9.25552 21.0407 9.14413 20.6166 9.14392C20.1924 9.1437 19.7756 9.25465 19.4077 9.46571ZM18.6879 3.99697L13.1379 0.827194C12.7715 0.612928 12.3547 0.5 11.9303 0.5C11.5059 0.5 11.0891 0.612928 10.7228 0.827194L7.85489 2.52239L18.1073 8.52523L18.6995 8.1769C19.0653 7.96371 19.3687 7.65809 19.5791 7.29069C19.7896 6.92328 19.8997 6.507 19.8985 6.08359C19.8974 5.66018 19.7849 5.24452 19.5724 4.87829C19.3599 4.51206 19.0549 4.20813 18.6879 3.99697ZM16.3657 9.51216L6.17131 3.53254L5.3121 4.03181C4.94569 4.24398 4.6415 4.54876 4.43003 4.91557C4.21856 5.28239 4.10724 5.69836 4.10724 6.12177C4.10724 6.54518 4.21856 6.96115 4.43003 7.32797C4.6415 7.69479 4.94569 7.99956 5.3121 8.21173L10.8157 11.3815C11.1832 11.5924 11.5995 11.7033 12.0232 11.7033C12.4469 11.7033 12.8632 11.5924 13.2307 11.3815L16.4121 9.53538L16.3657 9.51216Z" fill="black"/>
</svg>
