<svg width="24" height="24" viewBox="0 0 24 24" fill="none" xmlns="http://www.w3.org/2000/svg">
<path d="M7.09823 10.9386C5.74591 10.9386 4.44897 11.483 3.49274 12.4521C2.5365 13.4211 1.99929 14.7355 1.99929 16.106C2.00568 16.9189 2.20296 17.7186 2.5748 18.4389L0.802253 19.9436C0.668677 20.0594 0.573143 20.2137 0.52842 20.3859C0.483696 20.5582 0.491913 20.7402 0.551973 20.9075C0.612034 21.0749 0.721075 21.2198 0.864524 21.3226C1.00797 21.4255 1.179 21.4816 1.35473 21.4834C1.55082 21.5009 1.74667 21.4472 1.90721 21.3317L3.59919 19.897C4.20486 20.4741 4.94087 20.8921 5.74281 21.1142C6.54476 21.3364 7.3882 21.3559 8.19935 21.1712C9.01049 20.9866 9.76461 20.6032 10.3957 20.0548C11.0268 19.5064 11.5157 18.8096 11.8196 18.0253C12.1235 17.2411 12.233 16.3933 12.1388 15.5562C12.0445 14.7191 11.7492 13.9182 11.2788 13.2235C10.8084 12.5288 10.1772 11.9616 9.44032 11.5714C8.7035 11.1812 7.88354 10.9799 7.05219 10.9852L7.09823 10.9386ZM7.09823 19.5237C6.43074 19.526 5.77759 19.3275 5.22148 18.9534C4.66537 18.5793 4.23133 18.0463 3.97431 17.422C3.7173 16.7977 3.64887 16.1101 3.77769 15.4464C3.90651 14.7827 4.2268 14.1726 4.69798 13.6934C5.16916 13.2143 5.77005 12.8876 6.42455 12.7548C7.07905 12.622 7.75772 12.689 8.37462 12.9473C8.99152 13.2056 9.51891 13.6437 9.88999 14.206C10.2611 14.7683 10.4592 15.4295 10.4592 16.106C10.4592 17.0104 10.1054 17.878 9.47546 18.5186C8.8455 19.1592 7.99066 19.5206 7.09823 19.5237ZM23.5 6.80927V17.1908C23.5 17.7698 23.3875 18.3432 23.1688 18.8781C22.9502 19.4131 22.6297 19.8992 22.2257 20.3086C21.8217 20.718 21.3421 21.0428 20.8142 21.2644C20.2863 21.486 19.7206 21.6 19.1492 21.6H10.1829C10.9389 21.1982 11.6054 20.6435 12.1413 19.9701C12.6772 19.2967 13.071 18.519 13.2984 17.6852C13.5258 16.8514 13.5819 15.9791 13.4633 15.1224C13.3446 14.2657 13.0538 13.4428 12.6087 12.7046C12.1636 11.9664 11.5738 11.3287 10.8757 10.8308C10.1776 10.3329 9.38607 9.98555 8.55017 9.81016C7.71427 9.63477 6.85175 9.63511 6.01598 9.81114C5.18021 9.98718 4.38899 10.3352 3.69127 10.8336V6.80927C3.69127 5.63987 4.14965 4.51837 4.96558 3.69147C5.78151 2.86458 6.88815 2.40004 8.04205 2.40004H10.0563V7.75411C10.0563 8.04056 10.112 8.3242 10.2201 8.58885C10.3283 8.85349 10.4869 9.09396 10.6867 9.29651C10.8866 9.49906 11.1239 9.65973 11.385 9.76935C11.6461 9.87897 11.926 9.93539 12.2087 9.93539H14.9711C15.543 9.9354 16.0916 9.70596 16.4971 9.29722C16.9026 8.88848 17.1319 8.33369 17.135 7.75411V2.40004H19.1377C19.71 2.39851 20.277 2.51142 20.8062 2.73232C21.3354 2.95322 21.8164 3.27775 22.2216 3.68734C22.6268 4.09693 22.9484 4.58352 23.1677 5.11923C23.3871 5.65495 23.5 6.22926 23.5 6.80927Z" fill="black"/>
</svg>
