<svg width="24" height="24" viewBox="0 0 24 24" fill="none" xmlns="http://www.w3.org/2000/svg">
<path d="M1.20017 7.51308V16.5201C1.20017 17.6658 1.6553 18.7646 2.46544 19.5747C3.27558 20.3849 4.37437 20.84 5.52008 20.84H12.5291V3.14997H5.52008C4.94913 3.14994 4.38383 3.2631 3.85688 3.48289C3.32993 3.70268 2.85178 4.02475 2.45007 4.43048C2.04835 4.83621 1.73106 5.31754 1.51652 5.84666C1.30198 6.37577 1.19446 6.94216 1.20017 7.51308ZM8.67362 10.9366C8.88722 10.9366 9.09602 11 9.27362 11.1186C9.45122 11.2373 9.58965 11.406 9.67139 11.6033C9.75313 11.8006 9.77452 12.0178 9.73284 12.2273C9.69117 12.4368 9.58832 12.6292 9.43728 12.7803C9.28624 12.9313 9.09381 13.0342 8.88431 13.0758C8.67482 13.1175 8.45767 13.0961 8.26033 13.0144C8.06299 12.9326 7.89432 12.7942 7.77565 12.6166C7.65698 12.439 7.59364 12.2302 7.59364 12.0166C7.59364 11.7302 7.70742 11.4555 7.90996 11.2529C8.11249 11.0504 8.38719 10.9366 8.67362 10.9366ZM5.90887 12.0166C5.90887 12.2302 5.84553 12.439 5.72686 12.6166C5.60819 12.7942 5.43952 12.9326 5.24218 13.0144C5.04484 13.0961 4.8277 13.1175 4.6182 13.0758C4.40871 13.0342 4.21627 12.9313 4.06523 12.7803C3.9142 12.6292 3.81134 12.4368 3.76967 12.2273C3.728 12.0178 3.74938 11.8006 3.83112 11.6033C3.91287 11.406 4.05129 11.2373 4.22889 11.1186C4.40649 11 4.6153 10.9366 4.82889 10.9366C5.11532 10.9366 5.39002 11.0504 5.59255 11.2529C5.79509 11.4555 5.90887 11.7302 5.90887 12.0166ZM22.7997 7.51308V16.5201C22.7997 17.6658 22.3446 18.7646 21.5345 19.5747C20.7243 20.3849 19.6255 20.84 18.4798 20.84H15.8555V21.92C15.8555 22.1348 15.7701 22.3408 15.6182 22.4927C15.4663 22.6446 15.2603 22.73 15.0455 22.73C14.8307 22.73 14.6246 22.6446 14.4727 22.4927C14.3208 22.3408 14.2355 22.1348 14.2355 21.92V20.84V3.14997V2.06999C14.2355 1.85517 14.3208 1.64915 14.4727 1.49725C14.6246 1.34535 14.8307 1.26001 15.0455 1.26001C15.2603 1.26001 15.4663 1.34535 15.6182 1.49725C15.7701 1.64915 15.8555 1.85517 15.8555 2.06999V3.14997H18.4798C19.0508 3.14994 19.6161 3.2631 20.143 3.48289C20.67 3.70268 21.1481 4.02475 21.5498 4.43048C21.9515 4.83621 22.2688 5.31754 22.4834 5.84666C22.6979 6.37577 22.8054 6.94216 22.7997 7.51308Z" fill="black"/>
</svg>
