<svg width="24" height="24" viewBox="0 0 24 24" fill="none" xmlns="http://www.w3.org/2000/svg">
<path d="M6.23548 20.4H4.01954C3.88568 20.3993 3.75346 20.3708 3.63146 20.3162C3.50946 20.2617 3.40043 20.1823 3.31143 20.0833C3.22243 19.9842 3.15547 19.8678 3.1149 19.7415C3.07432 19.6151 3.06104 19.4817 3.07592 19.35L5.59932 4.11451C5.72595 3.3874 6.1063 2.72739 6.67403 2.24958C7.24176 1.77177 7.96085 1.50649 8.70587 1.50001H13.6042C14.2851 1.49863 14.9596 1.63007 15.5891 1.88683C16.2187 2.14359 16.791 2.52064 17.2734 2.99644C17.7559 3.47225 18.1389 4.0375 18.4008 4.65992C18.6626 5.28234 18.7981 5.94974 18.7995 6.62401V6.75001C18.7799 8.43124 18.0903 10.0367 16.8809 11.2167C15.6715 12.3967 14.0403 13.0557 12.3425 13.05H9.16178C8.92675 13.0548 8.70102 13.1418 8.52447 13.2955C8.34791 13.4492 8.23191 13.6598 8.19695 13.89L7.25332 19.56C7.2052 19.7937 7.0782 20.0042 6.8932 20.1568C6.70821 20.3095 6.47624 20.3953 6.23548 20.4ZM20.1354 8.54551C19.7165 10.2811 18.72 11.8265 17.3065 12.9331C15.8929 14.0397 14.1444 14.643 12.3425 14.646H9.6601L8.80129 19.812C8.69673 20.3808 8.40097 20.8979 7.96208 21.2791C7.5232 21.6604 6.967 21.8834 6.38391 21.912C6.43613 22.073 6.53565 22.215 6.66973 22.3197C6.80382 22.4245 6.9664 22.4872 7.13669 22.5H10.4765C10.7121 22.4912 10.938 22.4048 11.1185 22.2546C11.299 22.1043 11.4238 21.8988 11.4731 21.6705L12.2471 17.4705C12.3025 17.146 12.4726 16.8517 12.7271 16.64C12.9816 16.4284 13.3038 16.3134 13.6361 16.3155H14.8872C15.6393 16.3566 16.3922 16.2503 17.1027 16.0027C17.8133 15.7551 18.4675 15.3711 19.0279 14.8726C19.5884 14.3742 20.044 13.7711 20.3687 13.098C20.6933 12.4249 20.8807 11.695 20.92 10.95V10.887C20.9119 10.0445 20.6376 9.22565 20.1354 8.54551Z" fill="black"/>
</svg>
