<svg width="24" height="24" viewBox="0 0 24 24" fill="none" xmlns="http://www.w3.org/2000/svg">
<path d="M22.0926 5.01022L19.0098 1.92745C18.8094 1.71953 18.5691 1.55415 18.3034 1.4412C18.0376 1.32824 17.7518 1.27002 17.463 1.27002C17.1743 1.27002 16.8885 1.32824 16.6227 1.4412C16.3569 1.55415 16.1167 1.71953 15.9163 1.92745L13.5962 4.23684L3.54225 14.2907L2.00623 18.931L1.32953 20.9504C1.28908 21.0721 1.26382 21.1984 1.25434 21.3263C1.25434 21.3263 1.25434 21.4015 1.25434 21.4445C1.24855 21.5267 1.24855 21.6093 1.25434 21.6915C1.25434 21.6915 1.25434 21.7775 1.25434 21.8204C1.27655 21.8876 1.30533 21.9523 1.34027 22.0138L1.40472 22.1319L1.53361 22.3038L1.61954 22.4005L1.80215 22.5401L1.89882 22.6046L2.17809 22.7227H2.32847C2.43887 22.739 2.55106 22.739 2.66145 22.7227C2.80456 22.7239 2.94663 22.6985 3.08037 22.6475L5.09974 21.9708L9.74001 20.4348L19.7939 10.3809L22.0926 8.10373C22.3005 7.90333 22.4659 7.66307 22.5788 7.39731C22.6918 7.13155 22.75 6.84574 22.75 6.55697C22.75 6.2682 22.6918 5.9824 22.5788 5.71663C22.4659 5.45087 22.3005 5.21061 22.0926 5.01022ZM3.83226 20.7463L3.28445 20.1985L4.26192 17.2768L6.75391 19.7688L3.83226 20.7463ZM21.0184 6.96514L19.8476 8.14669L15.8733 4.23684L17.0549 3.06603C17.1072 3.01055 17.1705 2.96661 17.2408 2.93701C17.3111 2.90742 17.3868 2.89283 17.463 2.89417C17.5376 2.89366 17.6114 2.90868 17.6798 2.93827C17.7483 2.96786 17.8098 3.01137 17.8605 3.06603L20.954 6.1488C21.0616 6.25741 21.1219 6.4041 21.1219 6.55697C21.1219 6.70984 21.0616 6.85653 20.954 6.96514H21.0184Z" fill="black"/>
</svg>
