<svg width="24" height="24" viewBox="0 0 24 24" fill="none" xmlns="http://www.w3.org/2000/svg">
<path d="M14.8755 12.22C14.8755 12.951 14.6554 13.6656 14.2431 14.2734C13.8308 14.8812 13.2448 15.3549 12.5592 15.6347C11.8736 15.9144 11.1192 15.9876 10.3914 15.845C9.66354 15.7024 8.99498 15.3504 8.47024 14.8335C7.9455 14.3166 7.58814 13.658 7.44337 12.9411C7.29859 12.2241 7.3729 11.481 7.65688 10.8056C7.94087 10.1303 8.42179 9.55302 9.03882 9.1469C9.65584 8.74078 10.3813 8.52401 11.1234 8.52401C12.1185 8.52401 13.0728 8.91341 13.7765 9.60655C14.4802 10.2997 14.8755 11.2398 14.8755 12.22ZM11.1234 17.203C8.55497 17.203 6.47792 18.501 6.47792 20.107C6.47792 21.713 8.55497 23 11.1234 23C13.6918 23 15.7688 21.702 15.7688 20.107C15.7688 18.512 13.6918 17.203 11.1234 17.203ZM17.0419 1.00002C16.4163 1.00002 15.8049 1.18288 15.285 1.52543C14.765 1.86798 14.36 2.35481 14.1211 2.92428C13.8823 3.49375 13.8203 4.12023 13.9432 4.72439C14.066 5.32855 14.3681 5.88321 14.8112 6.31813C15.2543 6.75305 15.8184 7.04866 16.4322 7.16753C17.046 7.2864 17.6817 7.22319 18.259 6.98588C18.8363 6.74858 19.329 6.34787 19.6749 5.83449C20.0208 5.32112 20.2043 4.71817 20.2021 4.10202C20.2021 3.69373 20.1203 3.28946 19.9613 2.91239C19.8024 2.53532 19.5694 2.19287 19.2758 1.90468C18.9822 1.61648 18.6337 1.38822 18.2504 1.23298C17.867 1.07774 17.4563 0.998572 17.0419 1.00002ZM5.17138 1.00002C4.5454 0.997844 3.93286 1.17885 3.41145 1.52007C2.89004 1.86129 2.48326 2.34736 2.24268 2.91663C2.00211 3.48591 1.93858 4.11273 2.06017 4.71762C2.18175 5.32251 2.48296 5.8782 2.9256 6.31422C3.36824 6.75024 3.93237 7.04695 4.54643 7.16671C5.1605 7.28648 5.79684 7.2239 6.37476 6.98693C6.95267 6.74995 7.44612 6.34924 7.79252 5.83563C8.13892 5.32202 8.32267 4.71864 8.32046 4.10202C8.32046 3.27932 7.98869 2.49031 7.39812 1.90857C6.80755 1.32684 6.00657 1.00002 5.17138 1.00002ZM16.8632 9.61301C16.5058 9.61301 16.1597 9.61301 15.8135 9.66801C16.3391 10.5672 16.5767 11.6018 16.495 12.6363C16.4133 13.6707 16.0161 14.6567 15.3556 15.465C15.8559 15.5626 16.3644 15.6141 16.8744 15.619C19.7108 15.619 22 14.266 22 12.616C22 10.966 19.6996 9.61301 16.8632 9.61301Z" fill="black"/>
</svg>
