<svg width="24" height="24" viewBox="0 0 24 24" fill="none" xmlns="http://www.w3.org/2000/svg">
<path d="M10.551 9.85C10.551 10.1978 10.4128 10.5314 10.1668 10.7774C9.92089 11.0233 9.5873 11.1615 9.23947 11.1615H7.91722V8.52775H9.23947C9.41261 8.52774 9.58403 8.56202 9.74386 8.6286C9.90368 8.69518 10.0487 8.79275 10.1707 8.91567C10.2926 9.0386 10.389 9.18445 10.4542 9.34481C10.5195 9.50517 10.5524 9.67687 10.551 9.85ZM22.7737 16.3C22.7738 17.9977 22.1046 19.627 20.9112 20.8344C19.7179 22.0419 18.0965 22.7302 16.399 22.75H7.66997C5.97228 22.7501 4.343 22.0809 3.13553 20.8875C1.92806 19.6941 1.23978 18.0728 1.21997 16.3753V7.7C1.21963 6.01147 1.88145 4.39014 3.0633 3.18417C4.24515 1.9782 5.85278 1.28377 7.54097 1.25H16.27C17.9677 1.24988 19.5969 1.9191 20.8044 3.11248C22.0119 4.30586 22.7002 5.92718 22.72 7.62475L22.7737 16.3ZM12.1635 9.85C12.1649 9.46511 12.0903 9.08373 11.944 8.72773C11.7977 8.37173 11.5825 8.04813 11.3109 7.77547C11.0392 7.50281 10.7164 7.28647 10.3609 7.13885C10.0055 6.99123 9.62436 6.91525 9.23947 6.91525H7.08947C6.88306 6.92068 6.68659 7.00511 6.54059 7.15112C6.39458 7.29712 6.31016 7.49359 6.30472 7.7V16.3C6.30472 16.5138 6.38966 16.7189 6.54087 16.8701C6.69207 17.0213 6.89714 17.1063 7.11097 17.1063C7.3248 17.1063 7.52987 17.0213 7.68108 16.8701C7.83228 16.7189 7.91722 16.5138 7.91722 16.3V12.7633H9.23947C10.0131 12.7633 10.7552 12.4567 11.3033 11.9106C11.8513 11.3646 12.1606 10.6236 12.1635 9.85ZM15.0122 12.2903C15.0122 12.1534 15.0666 12.0222 15.1634 11.9254C15.2601 11.8286 15.3914 11.7743 15.5282 11.7743H16.8612C17.0751 11.7743 17.2801 11.6893 17.4313 11.5381C17.5825 11.3869 17.6675 11.1818 17.6675 10.968C17.6675 10.7542 17.5825 10.5491 17.4313 10.3979C17.2801 10.2467 17.0751 10.1618 16.8612 10.1618H15.5282C14.958 10.1618 14.4111 10.3883 14.0079 10.7915C13.6047 11.1947 13.3782 11.7415 13.3782 12.3118C13.3782 12.882 13.6047 13.4288 14.0079 13.832C14.4111 14.2352 14.958 14.4618 15.5282 14.4618C15.6708 14.4618 15.8075 14.5184 15.9083 14.6192C16.0091 14.72 16.0657 14.8567 16.0657 14.9993C16.0657 15.1418 16.0091 15.2785 15.9083 15.3793C15.8075 15.4801 15.6708 15.5368 15.5282 15.5368H14.206C13.9921 15.5368 13.7871 15.6217 13.6359 15.7729C13.4847 15.9241 13.3997 16.1292 13.3997 16.343C13.3997 16.5568 13.4847 16.7619 13.6359 16.9131C13.7871 17.0643 13.9921 17.1493 14.206 17.1493H15.5282C16.0984 17.1493 16.6453 16.9227 17.0485 16.5195C17.4517 16.1163 17.6782 15.5695 17.6782 14.9993C17.6782 14.429 17.4517 13.8822 17.0485 13.479C16.6453 13.0758 16.0984 12.8493 15.5282 12.8493C15.4557 12.8496 15.3839 12.8347 15.3175 12.8055C15.2511 12.7763 15.1916 12.7334 15.143 12.6796C15.0943 12.6259 15.0575 12.5625 15.0349 12.4935C15.0124 12.4246 15.0047 12.3516 15.0122 12.2795V12.2903Z" fill="black"/>
</svg>
