<svg width="24" height="24" viewBox="0 0 24 24" fill="none" xmlns="http://www.w3.org/2000/svg">
<path d="M19.802 19.7958C17.7999 21.7844 15.11 22.9302 12.2868 22.9969C9.46361 23.0636 6.7224 22.0462 4.62835 20.1543C2.53431 18.2625 1.24707 15.6405 1.03203 12.829C0.816999 10.0174 1.69057 7.23065 3.47262 5.04325L5.04933 6.61759L16.6817 18.2435C16.7842 18.3466 16.9061 18.4286 17.0405 18.4844C17.1748 18.5403 17.3189 18.5691 17.4645 18.5691C17.6101 18.5691 17.7542 18.5403 17.8885 18.4844C18.0229 18.4286 18.1448 18.3466 18.2473 18.2435C18.3507 18.1411 18.4327 18.0193 18.4887 17.8852C18.5447 17.751 18.5735 17.6071 18.5735 17.4618C18.5735 17.3165 18.5447 17.1726 18.4887 17.0384C18.4327 16.9042 18.3507 16.7825 18.2473 16.6801L5.01625 3.46891C7.20694 1.68953 9.99789 0.817274 12.8137 1.03198C15.6294 1.2467 18.2554 2.532 20.1501 4.62291C22.0447 6.71381 23.0637 9.4509 22.9969 12.2698C22.9301 15.0888 21.7826 17.7747 19.791 19.7738L19.802 19.7958Z" fill="black"/>
</svg>
