<svg width="24" height="24" viewBox="0 0 24 24" fill="none" xmlns="http://www.w3.org/2000/svg">
<path d="M6.25002 5.10001V4.23751C6.2485 3.74627 6.34414 3.25958 6.53143 2.80544C6.71872 2.3513 6.99396 1.93868 7.34132 1.59132C7.68868 1.24396 8.10131 0.968714 8.55544 0.781425C9.00958 0.594136 9.49628 0.498499 9.98752 0.500018H14.0125C14.5038 0.498499 14.9904 0.594136 15.4446 0.781425C15.8987 0.968714 16.3113 1.24396 16.6587 1.59132C17.0061 1.93868 17.2813 2.3513 17.4686 2.80544C17.6559 3.25958 17.7515 3.74627 17.75 4.23751V5.10001H6.25002ZM17.75 14.5875H6.25002C6.02127 14.5875 5.80189 14.6784 5.64014 14.8401C5.47839 15.0019 5.38752 15.2213 5.38752 15.45C5.38752 15.6788 5.47839 15.8981 5.64014 16.0599C5.80189 16.2216 6.02127 16.3125 6.25002 16.3125H7.40002V19.958C7.40002 20.8974 7.77319 21.7983 8.43745 22.4626C9.1017 23.1268 10.0026 23.5 10.942 23.5H13.058C13.9974 23.5 14.8983 23.1268 15.5626 22.4626C16.2268 21.7983 16.6 20.8974 16.6 19.958V16.3125H17.75C17.9788 16.3125 18.1981 16.2216 18.3599 16.0599C18.5216 15.8981 18.6125 15.6788 18.6125 15.45C18.6125 15.2213 18.5216 15.0019 18.3599 14.8401C18.1981 14.6784 17.9788 14.5875 17.75 14.5875ZM22.35 9.47001V15.68C22.35 16.534 22.0108 17.353 21.4069 17.9569C20.803 18.5608 19.984 18.9 19.13 18.9H17.75V17.4625C18.2838 17.4625 18.7956 17.2505 19.1731 16.8731C19.5505 16.4956 19.7625 15.9838 19.7625 15.45C19.7625 14.9163 19.5505 14.4044 19.1731 14.027C18.7956 13.6495 18.2838 13.4375 17.75 13.4375H6.25002C5.71627 13.4375 5.20439 13.6495 4.82697 14.027C4.44955 14.4044 4.23752 14.9163 4.23752 15.45C4.23752 15.9838 4.44955 16.4956 4.82697 16.8731C5.20439 17.2505 5.71627 17.4625 6.25002 17.4625V18.9H4.87002C4.01696 18.897 3.1997 18.5568 2.59649 17.9535C1.99328 17.3503 1.65305 16.5331 1.65002 15.68V9.47001C1.65305 8.61695 1.99328 7.79969 2.59649 7.19648C3.1997 6.59327 4.01696 6.25304 4.87002 6.25001H19.13C19.5529 6.25001 19.9716 6.3333 20.3623 6.49512C20.7529 6.65694 21.1079 6.89412 21.4069 7.19313C21.7059 7.49213 21.9431 7.8471 22.1049 8.23777C22.2667 8.62844 22.35 9.04716 22.35 9.47001ZM10.5625 10.85C10.5595 10.6222 10.4677 10.4045 10.3066 10.2434C10.1455 10.0823 9.92784 9.99049 9.70002 9.98751H6.25002C6.02127 9.98751 5.80189 10.0784 5.64014 10.2401C5.47839 10.4019 5.38752 10.6213 5.38752 10.85C5.38752 11.0788 5.47839 11.2981 5.64014 11.4599C5.80189 11.6216 6.02127 11.7125 6.25002 11.7125H9.70002C9.92784 11.7095 10.1455 11.6177 10.3066 11.4566C10.4677 11.2955 10.5595 11.0778 10.5625 10.85Z" fill="black"/>
</svg>
