<svg width="24" height="24" viewBox="0 0 24 24" fill="none" xmlns="http://www.w3.org/2000/svg">
<path d="M14.4229 17.1571H14.2962C14.1205 17.1391 13.9545 17.0676 13.8207 16.9523C13.6869 16.837 13.5916 16.6835 13.5478 16.5123L11.8553 10.1221L10.3124 14.7277C10.262 14.8804 10.1699 15.0159 10.0466 15.1191C9.92334 15.2223 9.77368 15.289 9.61452 15.3118C9.45536 15.3345 9.29301 15.3123 9.14575 15.2478C8.99849 15.1833 8.87218 15.0789 8.78103 14.9464L6.96183 12.2522L5.46501 13.0582C5.33789 13.1273 5.19523 13.163 5.05051 13.1618H1.63086C1.40184 13.1618 1.18219 13.0708 1.02024 12.9089C0.858298 12.7469 0.767318 12.5273 0.767318 12.2982C0.767318 12.0692 0.858298 11.8496 1.02024 11.6876C1.18219 11.5257 1.40184 11.4347 1.63086 11.4347H4.83174L6.82366 10.3639C7.01465 10.2546 7.24018 10.2223 7.45418 10.2736C7.66817 10.325 7.85448 10.4561 7.97505 10.6402L9.31067 12.5746L11.1759 6.84063C11.2313 6.66573 11.341 6.51301 11.489 6.40462C11.637 6.29623 11.8157 6.2378 11.9992 6.2378C12.1826 6.2378 12.3613 6.29623 12.5094 6.40462C12.6574 6.51301 12.767 6.66573 12.8224 6.84063L14.6531 13.749L15.5628 11.8377C15.6308 11.6902 15.7395 11.5653 15.8762 11.4776C16.0129 11.3898 16.1718 11.343 16.3342 11.3426H22.356C22.585 11.3426 22.8047 11.4336 22.9666 11.5955C23.1285 11.7575 23.2195 11.9771 23.2195 12.2061C23.2195 12.4352 23.1285 12.6548 22.9666 12.8167C22.8047 12.9787 22.585 13.0697 22.356 13.0697H16.8869L15.2058 16.616C15.1414 16.7721 15.0333 16.9063 14.8943 17.0023C14.7554 17.0983 14.5917 17.1521 14.4229 17.1571ZM1.63086 10.2372H4.5439L6.23645 9.30461C6.52971 9.14522 6.85832 9.06208 7.1921 9.06282C7.52696 9.06014 7.85737 9.13955 8.15444 9.2941C8.4515 9.44866 8.70617 9.67365 8.89617 9.94939L10.0476 6.49521C10.1788 6.08452 10.4391 5.72714 10.7896 5.47614C11.1402 5.22515 11.5624 5.09395 11.9934 5.10202H12.074C12.506 5.1172 12.9217 5.2709 13.2596 5.54043C13.5976 5.80996 13.8399 6.18103 13.9508 6.59883L15.1022 10.7208C15.4633 10.408 15.9254 10.2362 16.4033 10.2372H22.356C22.6461 10.2381 22.9326 10.3009 23.1965 10.4215C23.644 8.98296 23.5955 7.43585 23.0587 6.02823C22.5219 4.6206 21.528 3.43401 20.2363 2.65872C18.9446 1.88344 17.4299 1.56438 15.9353 1.75271C14.4406 1.94104 13.0524 2.62585 11.9934 3.69732C10.7269 2.43735 9.01312 1.73005 7.22665 1.73005C5.44017 1.73005 3.72635 2.43735 2.45987 3.69732C1.59736 4.56087 0.987066 5.64358 0.69487 6.8286C0.402674 8.01362 0.439668 9.25593 0.80186 10.4215C1.06219 10.3025 1.34466 10.2398 1.63086 10.2372ZM17.6007 14.2671L16.2306 17.1571C16.0661 17.5006 15.8083 17.7908 15.4865 17.9944C15.1648 18.198 14.7921 18.3069 14.4114 18.3085H14.2962C13.8807 18.2829 13.4831 18.1298 13.1576 17.8703C12.8321 17.6107 12.5945 17.2572 12.477 16.8578L11.7631 14.1865L11.4523 15.1307C11.3343 15.4855 11.12 15.8004 10.8333 16.0404C10.5466 16.2803 10.1988 16.4358 9.8288 16.4893H9.54095C9.21296 16.4895 8.89 16.4086 8.60076 16.254C8.31152 16.0993 8.06495 15.8756 7.88294 15.6027L6.59338 13.7145L6.00617 14.0253C5.7129 14.1847 5.38429 14.2679 5.05051 14.2671H3.48461L11.1759 21.9584C11.283 22.0664 11.4103 22.152 11.5506 22.2105C11.6909 22.2689 11.8414 22.299 11.9934 22.299C12.1454 22.299 12.2959 22.2689 12.4362 22.2105C12.5765 22.152 12.7039 22.0664 12.8109 21.9584L20.5022 14.2671H17.6007Z" fill="black"/>
</svg>
