<svg width="24" height="24" viewBox="0 0 24 24" fill="none" xmlns="http://www.w3.org/2000/svg">
<path d="M18.2859 7.11111C18.2859 5.49034 17.6236 3.93596 16.4447 2.7899C15.2659 1.64385 13.667 1 11.9998 1C10.3327 1 8.73383 1.64385 7.55497 2.7899C6.37612 3.93596 5.71384 5.49034 5.71384 7.11111C5.09329 7.13444 4.48493 7.28569 3.92905 7.55486C3.37317 7.82402 2.88246 8.20495 2.48945 8.6724C2.09643 9.13984 1.81007 9.68315 1.64935 10.2663C1.48862 10.8495 1.45719 11.4592 1.55715 12.0551L2.81435 19.4214C2.97892 20.4211 3.50516 21.3309 4.29834 21.9869C5.09152 22.643 6.09953 23.0022 7.14093 23H16.7342C17.7645 23.0005 18.7622 22.649 19.5531 22.007C20.3439 21.3649 20.8775 20.4732 21.0608 19.4875L22.4312 12.1211C22.5418 11.5213 22.5188 10.9053 22.3637 10.3149C22.2086 9.72442 21.9251 9.17317 21.5322 8.69832C21.1393 8.22347 20.6462 7.83607 20.0862 7.56227C19.5261 7.28846 18.9122 7.13461 18.2859 7.11111ZM11.9998 2.5966C13.2254 2.5966 14.4008 3.06991 15.2674 3.91242C16.1341 4.75492 16.6209 5.8976 16.6209 7.08909H7.37878C7.37878 5.8976 7.86564 4.75492 8.73226 3.91242C9.59888 3.06991 10.7743 2.5966 11.9998 2.5966ZM6.54065 12.2753C6.31664 12.2753 6.09766 12.2107 5.9114 12.0897C5.72515 11.9687 5.57998 11.7967 5.49425 11.5955C5.40853 11.3943 5.3861 11.1729 5.4298 10.9594C5.4735 10.7458 5.58137 10.5496 5.73977 10.3956C5.89817 10.2416 6.09998 10.1367 6.31969 10.0942C6.53939 10.0517 6.76712 10.0735 6.97408 10.1569C7.18104 10.2402 7.35793 10.3814 7.48238 10.5624C7.60684 10.7435 7.67326 10.9564 7.67326 11.1742C7.67326 11.4662 7.55394 11.7463 7.34153 11.9528C7.12912 12.1593 6.84104 12.2753 6.54065 12.2753ZM17.459 12.2753C17.235 12.2753 17.0161 12.2107 16.8298 12.0897C16.6435 11.9687 16.4984 11.7967 16.4126 11.5955C16.3269 11.3943 16.3045 11.1729 16.3482 10.9594C16.3919 10.7458 16.4998 10.5496 16.6582 10.3956C16.8166 10.2416 17.0184 10.1367 17.2381 10.0942C17.4578 10.0517 17.6855 10.0735 17.8925 10.1569C18.0994 10.2402 18.2763 10.3814 18.4008 10.5624C18.5252 10.7435 18.5917 10.9564 18.5917 11.1742C18.5917 11.4662 18.4723 11.7463 18.2599 11.9528C18.0475 12.1593 17.7594 12.2753 17.459 12.2753Z" fill="black"/>
</svg>
