<svg width="24" height="24" viewBox="0 0 24 24" fill="none" xmlns="http://www.w3.org/2000/svg">
<path d="M22.7945 10.3092L21.1957 8.68748C21.0842 8.57826 20.9962 8.44749 20.9368 8.30315C20.8775 8.1588 20.8482 8.00389 20.8507 7.84785V5.54749C20.8491 5.23234 20.7854 4.9206 20.6631 4.63016C20.5407 4.33973 20.3622 4.07633 20.1378 3.85509C19.9133 3.63386 19.6474 3.45914 19.3552 3.34099C19.063 3.22284 18.7504 3.16358 18.4353 3.16662H16.1349C15.9789 3.16907 15.824 3.13975 15.6796 3.08043C15.5353 3.02111 15.4045 2.93303 15.2953 2.82156L13.685 1.19981C13.2364 0.751704 12.6283 0.5 11.9943 0.5C11.3602 0.5 10.7521 0.751704 10.3035 1.19981L8.68175 2.79856C8.57252 2.91003 8.44176 2.99811 8.29741 3.05743C8.15306 3.11675 7.99816 3.14607 7.84211 3.14362H5.54175C5.22661 3.14512 4.91486 3.20887 4.62443 3.33121C4.33399 3.45355 4.07059 3.63207 3.84935 3.85651C3.62812 4.08095 3.45341 4.3469 3.33526 4.63906C3.21711 4.93123 3.15785 5.24386 3.16088 5.55899V7.85935C3.16334 8.01539 3.13401 8.1703 3.07469 8.31465C3.01537 8.459 2.9273 8.58976 2.81583 8.69898L1.19407 10.3092C0.745967 10.7578 0.494263 11.3659 0.494263 12C0.494263 12.6341 0.745967 13.2422 1.19407 13.6908L2.79282 15.3125C2.90429 15.4217 2.99237 15.5525 3.05169 15.6969C3.11101 15.8412 3.14033 15.9961 3.13788 16.1521V18.4525C3.13938 18.7677 3.20313 19.0794 3.32547 19.3698C3.44781 19.6603 3.62633 19.9237 3.85077 20.1449C4.07522 20.3661 4.34116 20.5409 4.63332 20.659C4.92549 20.7772 5.23812 20.8364 5.55326 20.8334H7.85362C8.00966 20.8309 8.16457 20.8603 8.30891 20.9196C8.45326 20.9789 8.58402 21.067 8.69325 21.1784L10.315 22.8002C10.7636 23.2483 11.3717 23.5 12.0058 23.5C12.6398 23.5 13.2479 23.2483 13.6965 22.8002L15.3068 21.2014C15.416 21.09 15.5468 21.0019 15.6911 20.9426C15.8355 20.8833 15.9904 20.8539 16.1464 20.8564H18.4468C19.0813 20.8564 19.6898 20.6043 20.1384 20.1557C20.5871 19.707 20.8391 19.0985 20.8391 18.464V16.1637C20.8367 16.0076 20.866 15.8527 20.9253 15.7084C20.9847 15.564 21.0727 15.4332 21.1842 15.324L22.806 13.7023C23.0288 13.4792 23.2054 13.2142 23.3255 12.9227C23.4456 12.6311 23.5069 12.3187 23.5058 12.0034C23.5047 11.688 23.4413 11.376 23.3192 11.0853C23.1972 10.7945 23.0188 10.5308 22.7945 10.3092ZM11.9943 18.3605C11.8237 18.3605 11.6569 18.3099 11.515 18.2151C11.3731 18.1203 11.2626 17.9856 11.1973 17.828C11.132 17.6703 11.1149 17.4969 11.1482 17.3296C11.1815 17.1622 11.2636 17.0085 11.3843 16.8879C11.5049 16.7672 11.6586 16.6851 11.826 16.6518C11.9933 16.6185 12.1668 16.6356 12.3244 16.7009C12.482 16.7662 12.6167 16.8767 12.7115 17.0186C12.8063 17.1605 12.8569 17.3272 12.8569 17.4979C12.8539 17.7257 12.7621 17.9434 12.6009 18.1045C12.4398 18.2657 12.2221 18.3575 11.9943 18.3605ZM13.5585 12.3451C13.3405 12.4638 13.1595 12.6405 13.0357 12.8557C12.9119 13.0709 12.85 13.3161 12.8569 13.5642V14.5074C12.8569 14.7362 12.766 14.9556 12.6042 15.1174C12.4425 15.2791 12.223 15.37 11.9943 15.37C11.7655 15.37 11.5461 15.2791 11.3843 15.1174C11.2225 14.9556 11.1316 14.7362 11.1316 14.5074V13.5642C11.1359 13.0013 11.2947 12.4504 11.5909 11.9717C11.8871 11.493 12.3091 11.1049 12.8109 10.8498C13.1122 10.704 13.369 10.4802 13.5546 10.2016C13.7402 9.92295 13.8478 9.59974 13.8662 9.26549C13.8846 8.93124 13.8133 8.59815 13.6594 8.30082C13.5056 8.0035 13.275 7.75277 12.9916 7.5747C12.7081 7.39663 12.3821 7.2977 12.0475 7.28819C11.7129 7.27869 11.3818 7.35895 11.0887 7.52064C10.7956 7.68234 10.5511 7.91956 10.3807 8.20768C10.2102 8.4958 10.12 8.8243 10.1195 9.15905C10.1195 9.38784 10.0286 9.60725 9.86681 9.76903C9.70504 9.93081 9.48562 10.0217 9.25683 10.0217C9.02805 10.0217 8.80864 9.93081 8.64686 9.76903C8.48509 9.60725 8.3942 9.38784 8.3942 9.15905C8.38623 8.6237 8.49892 8.09342 8.72392 7.60758C8.94893 7.12174 9.28045 6.6928 9.6939 6.35262C10.084 6.01942 10.5408 5.77345 11.0337 5.63118C11.5266 5.4889 12.0442 5.45361 12.5518 5.52768C13.0595 5.60174 13.5454 5.78344 13.9771 6.06061C14.4088 6.33778 14.7763 6.70401 15.0549 7.13477C15.3335 7.56552 15.5169 8.05086 15.5926 8.55824C15.6684 9.06563 15.6349 9.58335 15.4943 10.0767C15.3537 10.5701 15.1093 11.0277 14.7774 11.4189C14.4455 11.8101 14.0339 12.1259 13.57 12.3451H13.5585Z" fill="black"/>
</svg>
