<svg width="24" height="24" viewBox="0 0 24 24" fill="none" xmlns="http://www.w3.org/2000/svg">
<path d="M16.4075 1.25H7.614C5.9183 1.27261 4.29973 1.96213 3.10866 3.1693C1.91758 4.37647 1.24985 6.00415 1.25 7.7V16.3C1.24977 17.9922 1.91454 19.6167 3.101 20.8232C4.28745 22.0298 5.90055 22.7218 7.5925 22.75H16.4075C18.0994 22.7218 19.7125 22.0298 20.899 20.8232C22.0855 19.6167 22.7502 17.9922 22.75 16.3V7.7C22.7502 6.00782 22.0855 4.38332 20.899 3.17675C19.7125 1.97019 18.0994 1.2782 16.4075 1.25ZM9.15125 13.2685L7.3345 16.2355C7.2706 16.3364 7.18564 16.4222 7.08544 16.4872C6.98524 16.5521 6.87217 16.5946 6.754 16.6118H6.625C6.42148 16.6129 6.22527 16.5359 6.07675 16.3968L4.6255 15.1175C4.46144 14.9672 4.36113 14.7599 4.34513 14.538C4.32914 14.3161 4.39869 14.0965 4.5395 13.9243C4.61056 13.8413 4.69733 13.7733 4.79481 13.724C4.89229 13.6748 4.99855 13.6453 5.10747 13.6373C5.21639 13.6293 5.32582 13.643 5.42944 13.6774C5.53307 13.7119 5.62884 13.7666 5.71125 13.8383L6.44225 14.494L7.7645 12.344C7.8754 12.1703 8.04859 12.0457 8.24852 11.9957C8.44844 11.9457 8.65991 11.9742 8.8395 12.0753C8.94065 12.1308 9.0294 12.2065 9.10034 12.2975C9.17128 12.3886 9.22291 12.4931 9.25209 12.6048C9.28126 12.7165 9.28737 12.8329 9.27003 12.947C9.25269 13.0612 9.21228 13.1705 9.15125 13.2685ZM9.15125 7.141L7.3345 10.108C7.2706 10.2089 7.18564 10.2947 7.08544 10.3597C6.98524 10.4246 6.87217 10.4671 6.754 10.4843H6.625C6.42148 10.4854 6.22527 10.4084 6.07675 10.2693L4.6255 8.97925C4.46218 8.83083 4.36217 8.6253 4.34616 8.40519C4.33015 8.18508 4.39937 7.96724 4.5395 7.79675C4.60981 7.71305 4.696 7.6441 4.79309 7.59388C4.89019 7.54367 4.99627 7.51319 5.10521 7.50419C5.21415 7.4952 5.3238 7.50787 5.42782 7.54148C5.53184 7.57508 5.62817 7.62896 5.71125 7.7L6.44225 8.3665L7.7645 6.2165C7.8754 6.04281 8.04859 5.91817 8.24852 5.86819C8.44844 5.81821 8.65991 5.84668 8.8395 5.94775C8.94065 6.00335 9.0294 6.07898 9.10034 6.17003C9.17128 6.26108 9.22291 6.36563 9.25209 6.47731C9.28126 6.58898 9.28737 6.70543 9.27003 6.81954C9.25269 6.93365 9.21228 7.04303 9.15125 7.141ZM18.4608 15.741H12C11.8115 15.7099 11.6401 15.6129 11.5165 15.4672C11.3928 15.3215 11.325 15.1366 11.325 14.9455C11.325 14.7544 11.3928 14.5695 11.5165 14.4238C11.6401 14.2782 11.8115 14.1811 12 14.15H18.45C18.6638 14.15 18.8689 14.2349 19.0201 14.3861C19.1713 14.5373 19.2563 14.7424 19.2563 14.9563C19.2563 15.1701 19.1713 15.3752 19.0201 15.5264C18.8689 15.6776 18.6638 15.7625 18.45 15.7625L18.4608 15.741ZM18.45 9.85H12C11.7862 9.85 11.5811 9.76506 11.4299 9.61385C11.2787 9.46265 11.1938 9.25758 11.1938 9.04375C11.1938 8.82992 11.2787 8.62485 11.4299 8.47365C11.5811 8.32244 11.7862 8.2375 12 8.2375H18.45C18.6638 8.2375 18.8689 8.32244 19.0201 8.47365C19.1713 8.62485 19.2563 8.82992 19.2563 9.04375C19.2563 9.25758 19.1713 9.46265 19.0201 9.61385C18.8689 9.76506 18.6638 9.85 18.45 9.85Z" fill="black"/>
</svg>
