<svg width="24" height="24" viewBox="0 0 24 24" fill="none" xmlns="http://www.w3.org/2000/svg">
<path d="M15.639 23.25H8.36076V12.3101C8.35926 12.0227 8.41478 11.7378 8.52409 11.4719C8.63341 11.2061 8.79435 10.9645 8.99761 10.7613C9.20087 10.558 9.44242 10.3971 9.70827 10.2877C9.97413 10.1784 10.259 10.1229 10.5465 10.1244H13.4533C13.7407 10.1229 14.0256 10.1784 14.2915 10.2877C14.5573 10.3971 14.7989 10.558 15.0021 10.7613C15.2054 10.9645 15.3663 11.2061 15.4756 11.4719C15.585 11.7378 15.6405 12.0227 15.639 12.3101V23.25ZM7.2341 14.4958H3.24572C2.95869 14.4958 2.67446 14.5524 2.40928 14.6622C2.1441 14.7721 1.90314 14.9331 1.70018 15.136C1.49722 15.339 1.33622 15.5799 1.22638 15.8451C1.11653 16.1103 1.06 16.3945 1.06 16.6816V23.25H7.2341V14.4958ZM15.639 17.7744V23.25V17.7744ZM20.754 17.7744H16.7656V23.25H22.9397V19.9601C22.9397 19.3805 22.7095 18.8245 22.2996 18.4146C21.8897 18.0047 21.3337 17.7744 20.754 17.7744ZM14.5799 6.96976L14.4785 5.8431C14.4661 5.72089 14.4797 5.59743 14.5186 5.4809C14.5574 5.36436 14.6206 5.2574 14.7039 5.1671L15.4925 4.32211C15.5943 4.20873 15.6649 4.07083 15.6973 3.92193C15.7297 3.77304 15.7229 3.61828 15.6774 3.47284C15.632 3.32739 15.5495 3.19627 15.4381 3.09233C15.3266 2.98839 15.1901 2.91522 15.0419 2.87998L13.9152 2.62085C13.7942 2.59523 13.6801 2.54369 13.581 2.46978C13.4818 2.39587 13.3998 2.30135 13.3406 2.19272L12.7773 1.18999C12.7016 1.05643 12.5919 0.945325 12.4593 0.868026C12.3267 0.790728 12.1759 0.75 12.0224 0.75C11.8689 0.75 11.7182 0.790728 11.5855 0.868026C11.4529 0.945325 11.3432 1.05643 11.2675 1.18999L10.6817 2.18145C10.6184 2.28786 10.5336 2.3799 10.4327 2.45168C10.3318 2.52346 10.2171 2.5734 10.0958 2.59832L8.96915 2.82365C8.82704 2.85764 8.69565 2.92652 8.58687 3.02407C8.47808 3.12163 8.39534 3.24476 8.34613 3.38234C8.29691 3.51992 8.28278 3.6676 8.305 3.81202C8.32723 3.95643 8.38512 4.09303 8.47342 4.20944L9.23955 5.07697C9.32339 5.16654 9.38614 5.27374 9.42317 5.39071C9.46022 5.50768 9.47062 5.63145 9.45362 5.75296L9.31842 6.87962C9.29992 7.03123 9.32177 7.18503 9.38176 7.32548C9.44175 7.46593 9.53776 7.58806 9.66008 7.67951C9.7824 7.77097 9.92669 7.82851 10.0784 7.84632C10.2301 7.86413 10.3838 7.84158 10.5239 7.78095L11.583 7.33029C11.6965 7.27999 11.8194 7.254 11.9435 7.254C12.0677 7.254 12.1905 7.27999 12.3041 7.33029L13.3519 7.82602C13.4893 7.88939 13.6409 7.9157 13.7917 7.90234C13.9425 7.88897 14.0871 7.83639 14.2113 7.74982C14.3354 7.66325 14.4348 7.54571 14.4994 7.40887C14.5641 7.27202 14.5919 7.12064 14.5799 6.96976Z" fill="black"/>
</svg>
