<svg width="24" height="24" viewBox="0 0 24 24" fill="none" xmlns="http://www.w3.org/2000/svg">
<path d="M23.25 11.9886C23.25 10.2514 21.7849 8.7235 19.4512 7.68746C19.7233 5.14443 19.1267 3.1142 17.6302 2.2456C16.1337 1.37699 14.093 1.87932 12 3.37583C9.90698 1.87932 7.87674 1.37699 6.38023 2.2456C4.88372 3.1142 4.28721 5.14443 4.54884 7.68746C2.21512 8.73397 0.75 10.2514 0.75 11.9886C0.75 13.7258 2.20465 15.2537 4.53837 16.2898C4.53837 16.384 4.53837 16.4886 4.53837 16.5933C4.32907 19.084 4.99884 20.9154 6.42209 21.7316C6.93783 22.0269 7.52322 22.1787 8.11744 22.1712C9.46057 22.0883 10.7477 21.6033 11.8116 20.7793L12.0419 20.6119L12.2721 20.7793C13.336 21.6033 14.6232 22.0883 15.9663 22.1712C16.5637 22.1775 17.1521 22.0259 17.6721 21.7316C19.0849 20.9154 19.7651 19.084 19.5453 16.5933C19.5453 16.4886 19.5453 16.384 19.5453 16.2898C21.7953 15.2537 23.25 13.7258 23.25 11.9886ZM15.9244 3.38629C16.2383 3.38073 16.5484 3.45644 16.8244 3.60606C17.6302 4.07699 18.0279 5.3642 17.8709 7.12234C16.9797 6.83932 16.0659 6.63276 15.1395 6.5049C14.555 5.75984 13.9148 5.06017 13.2244 4.41188C14.0146 3.81673 14.9589 3.46079 15.9453 3.38629H15.9244ZM17.3895 14.0816C17.5196 14.4943 17.6279 14.9135 17.714 15.3375C17.305 15.4739 16.8894 15.5891 16.4686 15.6828C16.6256 15.4316 16.793 15.17 16.95 14.8979C17.107 14.6258 17.2326 14.3014 17.3895 14.0816ZM15.5895 14.0816C15.2018 14.7512 14.7755 15.3976 14.3128 16.0177C13.5455 16.1139 12.7733 16.1663 12 16.1747C11.2271 16.1732 10.4549 16.1278 9.68721 16.0386C9.22622 15.4101 8.8 14.7568 8.41046 14.0816C8.0237 13.4036 7.67434 12.7049 7.36395 11.9886C7.67432 11.2724 8.02368 10.5736 8.41046 9.89559C8.80486 9.23122 9.23454 8.58844 9.69767 7.97001C10.4618 7.87574 11.2302 7.81985 12 7.80257C12.7691 7.80595 13.5375 7.84787 14.3023 7.92815C14.7667 8.56016 15.1964 9.21694 15.5895 9.89559C15.9763 10.5736 16.3257 11.2724 16.636 11.9886C16.3257 12.7049 15.9763 13.4036 15.5895 14.0816ZM12 18.5921C11.686 18.3095 11.3721 18.0061 11.0686 17.6816H12H12.9314C12.6279 18.0061 12.314 18.2677 12 18.5921ZM7.05 14.8456C7.20698 15.1177 7.37442 15.3793 7.5314 15.6305C7.11063 15.5368 6.69496 15.4215 6.28605 15.2851C6.37386 14.8788 6.48214 14.4771 6.61047 14.0816C6.71512 14.3189 6.86163 14.5735 7.05 14.8456ZM6.61047 9.94792C6.48488 9.50839 6.36977 9.08978 6.28605 8.69211C6.69432 8.55359 7.1101 8.43829 7.5314 8.34676C7.37442 8.59792 7.20698 8.85955 7.05 9.13164C6.89302 9.40374 6.76744 9.67583 6.61047 9.94792ZM12 5.40606C12.3035 5.67815 12.607 5.97118 12.9105 6.2956H12H11.0895C11.393 5.97118 11.6965 5.70955 12 5.40606ZM16.95 9.13164C16.793 8.85955 16.6256 8.59792 16.4686 8.34676C16.8899 8.43829 17.3057 8.55359 17.714 8.69211C17.6302 9.08978 17.5151 9.50839 17.3895 9.94792C17.2326 9.67583 17.107 9.40374 16.95 9.13164ZM7.16512 3.61653C7.43681 3.46546 7.74387 3.3896 8.05465 3.39676C9.03233 3.48322 9.96519 3.8462 10.7442 4.44327C10.0659 5.08268 9.43623 5.7718 8.86047 6.5049C7.92351 6.631 6.99917 6.83757 6.09767 7.12234C5.95116 5.3642 6.34884 4.07699 7.16512 3.61653ZM2.31977 11.9886C2.31977 11.0468 3.2407 10.063 4.81047 9.28862C5.0234 10.209 5.3068 11.1117 5.65814 11.9886C5.30565 12.8687 5.02224 13.775 4.81047 14.6991C3.2407 13.9142 2.31977 12.92 2.31977 11.9886ZM7.16512 20.3607C6.32791 19.8793 5.9407 18.6026 6.05581 16.8444C6.97077 17.1345 7.90918 17.3446 8.86047 17.4723C9.4421 18.2199 10.0825 18.9198 10.7756 19.5654C9.28953 20.5491 7.9814 20.8421 7.16512 20.3607ZM16.8453 20.3607C16.0186 20.8421 14.7523 20.5386 13.2558 19.5654C13.9489 18.9198 14.5893 18.2199 15.1709 17.4723C16.1113 17.3462 17.0391 17.1396 17.9442 16.8549C18.0593 18.613 17.6721 19.8898 16.8453 20.3607ZM19.1895 14.6782C18.9767 13.7611 18.6933 12.8619 18.3419 11.9886C18.6927 11.1151 18.9761 10.2159 19.1895 9.29908C20.7593 10.0735 21.6802 11.0572 21.6802 11.9991C21.6802 12.9409 20.7593 13.9142 19.1895 14.6886V14.6782ZM13.8942 11.9886C13.8942 12.3633 13.7831 12.7295 13.575 13.041C13.3668 13.3525 13.071 13.5953 12.7249 13.7386C12.3788 13.882 11.9979 13.9195 11.6305 13.8464C11.263 13.7733 10.9255 13.5929 10.6606 13.328C10.3957 13.0631 10.2153 12.7256 10.1422 12.3582C10.0691 11.9907 10.1066 11.6099 10.25 11.2637C10.3934 10.9176 10.6361 10.6218 10.9476 10.4137C11.2591 10.2055 11.6254 10.0944 12 10.0944C12.5024 10.0944 12.9842 10.294 13.3394 10.6492C13.6946 11.0045 13.8942 11.4862 13.8942 11.9886Z" fill="black"/>
</svg>
