<svg width="24" height="24" viewBox="0 0 24 24" fill="none" xmlns="http://www.w3.org/2000/svg">
<path d="M16.1925 1.25H7.8075C6.06922 1.25284 4.40294 1.94463 3.17379 3.17379C1.94463 4.40294 1.25284 6.06922 1.25 7.8075V16.1925C1.25284 17.9308 1.94463 19.5971 3.17379 20.8262C4.40294 22.0554 6.06922 22.7472 7.8075 22.75H16.1925C17.9308 22.7472 19.5971 22.0554 20.8262 20.8262C22.0554 19.5971 22.7472 17.9308 22.75 16.1925V7.8075C22.7472 6.06922 22.0554 4.40294 20.8262 3.17379C19.5971 1.94463 17.9308 1.25284 16.1925 1.25ZM15.1175 12.6128L11.6345 16.3C11.5442 16.3953 11.4359 16.4719 11.316 16.5253C11.196 16.5788 11.0667 16.6081 10.9355 16.6116C10.8042 16.6151 10.6735 16.5927 10.5509 16.5457C10.4283 16.4987 10.3162 16.428 10.2209 16.3376C10.1256 16.2473 10.049 16.139 9.99556 16.0191C9.9421 15.8992 9.91279 15.7699 9.90929 15.6386C9.9058 15.5073 9.92819 15.3767 9.9752 15.2541C10.0222 15.1314 10.0929 15.0193 10.1833 14.924L12.989 12L10.065 9.15125C9.87255 8.96878 9.76047 8.71734 9.75342 8.45223C9.74636 8.18712 9.84491 7.93007 10.0274 7.73763C10.2098 7.54518 10.4613 7.4331 10.7264 7.42604C10.9915 7.41899 11.2486 7.51753 11.441 7.7L15.096 11.1938C15.1918 11.2845 15.2686 11.3934 15.3221 11.514C15.3756 11.6346 15.4046 11.7646 15.4076 11.8965C15.4106 12.0284 15.3875 12.1596 15.3395 12.2826C15.2916 12.4055 15.2198 12.5177 15.1283 12.6128H15.1175Z" fill="black"/>
</svg>
