<svg width="24" height="24" viewBox="0 0 24 24" fill="none" xmlns="http://www.w3.org/2000/svg">
<path fill-rule="evenodd" clip-rule="evenodd" d="M6.06569 7.93433C6.37811 8.24675 6.37811 8.75328 6.06569 9.0657L3.93137 11.2H20.0686L17.9343 9.0657C17.6219 8.75328 17.6219 8.24675 17.9343 7.93433C18.2467 7.62191 18.7533 7.62191 19.0657 7.93433L22.5657 11.4343C22.8781 11.7467 22.8781 12.2533 22.5657 12.5657L19.0657 16.0657C18.7533 16.3781 18.2467 16.3781 17.9343 16.0657C17.6219 15.7533 17.6219 15.2467 17.9343 14.9343L20.0686 12.8H3.93137L6.06569 14.9343C6.37811 15.2467 6.37811 15.7533 6.06569 16.0657C5.75327 16.3781 5.24673 16.3781 4.93432 16.0657L1.43432 12.5657C1.1219 12.2533 1.1219 11.7467 1.43432 11.4343L4.93432 7.93433C5.24673 7.62191 5.75327 7.62191 6.06569 7.93433Z" fill="black"/>
</svg>
