<svg width="24" height="24" viewBox="0 0 24 24" fill="none" xmlns="http://www.w3.org/2000/svg">
<path d="M20.775 1.02788L16.8749 1.74197C14.9154 2.25934 13.1317 3.29543 11.7114 4.74118C10.6995 5.8562 9.80835 7.07511 9.0528 8.37757C5.17472 7.61953 1 13.9915 1 13.9915L5.99867 14.1013L5.86684 14.387C5.73656 14.6651 5.69722 14.9772 5.75441 15.2789C5.81161 15.5806 5.96242 15.8567 6.18544 16.0678L6.7677 16.6281L7.86631 17.7267L8.40463 18.2431C8.62903 18.4577 8.91515 18.5965 9.22263 18.6399C9.53011 18.6832 9.84344 18.629 10.1185 18.4848L10.8765 18.0673L11.294 23.0001C11.294 23.0001 17.5011 18.4738 16.4684 14.6506C17.4814 13.9677 18.4401 13.2074 19.3358 12.3765C20.8321 10.8782 21.8427 8.96412 22.2361 6.88346L22.9722 3.22509C23.0179 2.97959 23.0143 2.72744 22.9614 2.48337C22.9086 2.2393 22.8076 2.00821 22.6644 1.80363C22.5212 1.59905 22.3386 1.42507 22.1274 1.29187C21.9161 1.15867 21.6805 1.06892 21.4341 1.02788C21.216 0.990789 20.9931 0.990789 20.775 1.02788ZM18.2042 8.92688C18.0038 9.13481 17.7643 9.30119 17.4995 9.41651C17.2348 9.53182 16.9498 9.5938 16.6611 9.5989C16.3723 9.604 16.0854 9.55212 15.8167 9.44624C15.548 9.34035 15.3028 9.18253 15.0952 8.98181C14.6804 8.57933 14.4408 8.02963 14.4285 7.45179C14.4162 6.87396 14.632 6.31453 15.0292 5.89471C15.4377 5.50266 15.9818 5.28343 16.548 5.28273C17.1142 5.28203 17.6588 5.49991 18.0682 5.89095C18.4777 6.28199 18.7204 6.81599 18.7457 7.38161C18.771 7.94722 18.5771 8.50079 18.2042 8.92688Z" fill="black"/>
</svg>
