<svg width="24" height="24" viewBox="0 0 24 24" fill="none" xmlns="http://www.w3.org/2000/svg">
<path d="M21.9142 16.1307L22.7727 15.03C22.8884 14.8741 22.958 14.6889 22.9734 14.4954C22.9888 14.3019 22.9495 14.108 22.86 13.9358C22.7704 13.7636 22.6343 13.6201 22.467 13.5216C22.2998 13.4231 22.1082 13.3736 21.9142 13.3788H16.0802V12.5643C16.0802 12.3453 15.9932 12.1353 15.8384 11.9805C15.6836 11.8257 15.4736 11.7387 15.2547 11.7387C15.0357 11.7387 14.8257 11.8257 14.6709 11.9805C14.5161 12.1353 14.4291 12.3453 14.4291 12.5643V21.3702H7.60448C6.68266 21.394 5.78894 21.0518 5.11861 20.4186C4.44827 19.7854 4.05584 18.9126 4.02705 17.991C4.03846 17.5332 4.14014 17.0821 4.32627 16.6638C4.51239 16.2454 4.7793 15.8678 5.11168 15.5529C5.44405 15.2379 5.83536 14.9916 6.26313 14.8282C6.69091 14.6648 7.14674 14.5875 7.60448 14.6007H9.25559C9.58512 14.623 9.91572 14.5773 10.2269 14.4665C10.538 14.3558 10.8231 14.1822 11.0644 13.9567C11.3057 13.7312 11.4981 13.4585 11.6296 13.1555C11.7612 12.8526 11.829 12.5258 11.829 12.1955C11.829 11.8652 11.7612 11.5385 11.6296 11.2355C11.4981 10.9326 11.3057 10.6599 11.0644 10.4343C10.8231 10.2088 10.538 10.0353 10.2269 9.92451C9.91572 9.81374 9.58512 9.7681 9.25559 9.7904H7.40634L8.70522 8.3154C9.26569 7.67989 9.63087 6.89616 9.75695 6.05825C9.88303 5.22034 9.76466 4.36385 9.41603 3.59155C9.0674 2.81925 8.50333 2.16395 7.7915 1.70429C7.07967 1.24462 6.25033 1.00012 5.40298 1.00012C4.55564 1.00012 3.7263 1.24462 3.01447 1.70429C2.30264 2.16395 1.73857 2.81925 1.38994 3.59155C1.04131 4.36385 0.922936 5.22034 1.04902 6.05825C1.1751 6.89616 1.54028 7.67989 2.10075 8.3154L4.55541 11.0673C4.65327 11.176 4.77181 11.2641 4.90411 11.3264C5.03641 11.3888 5.17981 11.4242 5.32593 11.4305H9.17854C9.28209 11.4246 9.38579 11.4393 9.48359 11.4739C9.58138 11.5084 9.67132 11.5621 9.74816 11.6318C9.825 11.7014 9.8872 11.7857 9.93115 11.8797C9.97509 11.9736 9.99989 12.0754 10.0041 12.179C9.99985 12.2831 9.97512 12.3854 9.93131 12.4799C9.88751 12.5744 9.82549 12.6594 9.74881 12.73C9.67214 12.8005 9.5823 12.8552 9.48444 12.891C9.38659 12.9268 9.28264 12.943 9.17854 12.9385H7.60448C6.24482 12.9149 4.93121 13.431 3.95125 14.3739C2.9713 15.3167 2.40485 16.6094 2.37593 17.9689C2.40485 19.3285 2.9713 20.6212 3.95125 21.564C4.93121 22.5068 6.24482 23.023 7.60448 22.9993H15.3097C15.4185 23.0008 15.5265 22.9805 15.6274 22.9395C15.7282 22.8986 15.8198 22.8378 15.8968 22.7608C15.9737 22.6839 16.0345 22.5923 16.0754 22.4915C16.1164 22.3906 16.1367 22.2826 16.1353 22.1738V18.8716H21.9142C22.1092 18.8712 22.3002 18.8157 22.4651 18.7114C22.63 18.6072 22.7621 18.4585 22.8461 18.2824C22.9301 18.1064 22.9626 17.9101 22.9399 17.7164C22.9172 17.5226 22.8401 17.3393 22.7177 17.1874L21.9142 16.1307ZM3.78489 5.38742C3.78276 5.05901 3.87863 4.73742 4.06022 4.46377C4.24182 4.19013 4.5009 3.97685 4.80434 3.85122C5.10778 3.72558 5.44179 3.69329 5.76368 3.75847C6.08556 3.82365 6.3807 3.98335 6.61135 4.21714C6.842 4.45093 6.9977 4.7482 7.05852 5.07094C7.11935 5.39367 7.08255 5.72722 6.95282 6.02893C6.8231 6.33065 6.60634 6.58682 6.33027 6.7647C6.05419 6.94258 5.73134 7.03409 5.40298 7.02753C4.97273 7.01893 4.56283 6.84269 4.26059 6.53634C3.95836 6.23 3.78767 5.81775 3.78489 5.38742Z" fill="black"/>
</svg>
