<svg width="24" height="24" viewBox="0 0 24 24" fill="none" xmlns="http://www.w3.org/2000/svg">
<path d="M23 14.154V19.5773C23 20.1607 22.7682 20.7203 22.3556 21.1329C21.9431 21.5455 21.3835 21.7773 20.8 21.7773C20.8 22.069 20.6841 22.3488 20.4778 22.5551C20.2715 22.7614 19.9917 22.8773 19.7 22.8773C19.4083 22.8773 19.1285 22.7614 18.9222 22.5551C18.7159 22.3488 18.6 22.069 18.6 21.7773H5.4C5.4 22.069 5.28411 22.3488 5.07782 22.5551C4.87153 22.7614 4.59174 22.8773 4.3 22.8773C4.00826 22.8773 3.72847 22.7614 3.52218 22.5551C3.31589 22.3488 3.2 22.069 3.2 21.7773C2.61652 21.7773 2.05695 21.5455 1.64437 21.1329C1.23178 20.7203 1 20.1607 1 19.5773V14.154C1 13.5705 1.23178 13.011 1.64437 12.5984C2.05695 12.1858 2.61652 11.954 3.2 11.954H20.8C21.3835 11.954 21.9431 12.1858 22.3556 12.5984C22.7682 13.011 23 13.5705 23 14.154ZM5.4 16.2773C5.18244 16.2773 4.96977 16.3418 4.78887 16.4626C4.60798 16.5835 4.46699 16.7553 4.38373 16.9563C4.30048 17.1573 4.27869 17.3785 4.32114 17.5919C4.36358 17.8052 4.46835 18.0012 4.62218 18.1551C4.77602 18.3089 4.97202 18.4137 5.1854 18.4561C5.39878 18.4986 5.61995 18.4768 5.82095 18.3935C6.02195 18.3103 6.19375 18.1693 6.31462 17.9884C6.43549 17.8075 6.5 17.5948 6.5 17.3773C6.5 17.0855 6.38411 16.8057 6.17782 16.5994C5.97153 16.3932 5.69174 16.2773 5.4 16.2773ZM9.8 16.2773C9.58244 16.2773 9.36977 16.3418 9.18887 16.4626C9.00798 16.5835 8.86699 16.7553 8.78373 16.9563C8.70048 17.1573 8.67869 17.3785 8.72114 17.5919C8.76358 17.8052 8.86835 18.0012 9.02218 18.1551C9.17602 18.3089 9.37202 18.4137 9.5854 18.4561C9.79878 18.4986 10.02 18.4768 10.221 18.3935C10.422 18.3103 10.5937 18.1693 10.7146 17.9884C10.8355 17.8075 10.9 17.5948 10.9 17.3773C10.9 17.0855 10.7841 16.8057 10.5778 16.5994C10.3715 16.3932 10.0917 16.2773 9.8 16.2773ZM14.2 16.2773C13.9824 16.2773 13.7698 16.3418 13.5889 16.4626C13.408 16.5835 13.267 16.7553 13.1837 16.9563C13.1005 17.1573 13.0787 17.3785 13.1211 17.5919C13.1636 17.8052 13.2683 18.0012 13.4222 18.1551C13.576 18.3089 13.772 18.4137 13.9854 18.4561C14.1988 18.4986 14.42 18.4768 14.621 18.3935C14.822 18.3103 14.9937 18.1693 15.1146 17.9884C15.2355 17.8075 15.3 17.5948 15.3 17.3773C15.3 17.0855 15.1841 16.8057 14.9778 16.5994C14.7715 16.3932 14.4917 16.2773 14.2 16.2773ZM18.435 11.954V1.955C18.435 1.7362 18.3481 1.52636 18.1934 1.37164C18.0386 1.21692 17.8288 1.13 17.61 1.13C17.3912 1.13 17.1814 1.21692 17.0266 1.37164C16.8719 1.52636 16.785 1.7362 16.785 1.955V11.954H18.435Z" fill="black"/>
</svg>
