<svg width="24" height="24" viewBox="0 0 24 24" fill="none" xmlns="http://www.w3.org/2000/svg">
<path d="M16.0871 21.8885L14.988 20.9873C14.6724 20.74 14.4186 20.4225 14.2469 20.06C14.0753 19.6976 13.9903 19.3001 13.9989 18.8992V15.3053C13.9995 14.9755 14.0952 14.6528 14.2745 14.376C14.4539 14.0992 14.7092 13.88 15.01 13.7447L17.8236 12.4368C18.0483 12.3362 18.2917 12.2842 18.5379 12.2842C18.7841 12.2842 19.0276 12.3362 19.2523 12.4368L21.9669 13.6238C22.2745 13.7646 22.5352 13.9905 22.7183 14.2749C22.9014 14.5593 22.9992 14.8902 23 15.2284V18.8332C22.9944 19.2212 22.9039 19.6033 22.7349 19.9527C22.5659 20.302 22.3226 20.6101 22.0219 20.8554L20.714 21.8885C20.0582 22.4157 19.242 22.703 18.4005 22.703C17.5591 22.703 16.7429 22.4157 16.0871 21.8885ZM12.3284 18.8772V15.2943C12.3345 14.6513 12.5225 14.0232 12.8707 13.4825C13.2188 12.9418 13.7128 12.5107 14.2957 12.239L17.1092 10.9422C17.5781 10.7302 18.0895 10.6287 18.6039 10.6454C19.0735 10.6405 19.5386 10.738 19.9667 10.9312L20.6371 11.2279L20.747 10.5685C20.8523 9.97837 20.8 9.37092 20.5955 8.80745C20.3909 8.24399 20.0413 7.74447 19.582 7.35932L13.2626 2.10594C12.6627 1.6009 11.908 1.3167 11.124 1.3007C10.34 1.2847 9.57428 1.53787 8.95435 2.01802L2.36016 7.10654C1.88816 7.46599 1.5168 7.94105 1.28193 8.48587C1.04706 9.03068 0.956622 9.62684 1.01933 10.2168L1.88757 17.6243C1.98714 18.4607 2.39011 19.2315 3.02009 19.7905C3.65007 20.3496 4.46328 20.6581 5.30556 20.6576H12.6691C12.4278 20.0997 12.3115 19.4958 12.3284 18.8882V18.8772Z" fill="black"/>
</svg>
