<svg width="24" height="24" viewBox="0 0 24 24" fill="none" xmlns="http://www.w3.org/2000/svg">
<path d="M5.90476 19.1281C6.17474 19.1296 6.44384 19.1591 6.70773 19.2161C7.38958 19.3501 8.0245 19.6603 8.54937 20.1157C9.07424 20.5711 9.47079 21.1559 9.69962 21.812C9.74647 21.9444 9.76139 22.0859 9.74316 22.2251C9.72494 22.3643 9.67408 22.4972 9.59473 22.613C9.51538 22.7288 9.40979 22.8242 9.28657 22.8915C9.16334 22.9587 9.02597 22.9959 8.88565 23H2.95687C2.81468 22.9994 2.6747 22.9647 2.54864 22.8989C2.42259 22.8331 2.31411 22.7381 2.23227 22.6218C2.15044 22.5055 2.09763 22.3713 2.07826 22.2304C2.05888 22.0896 2.0735 21.9461 2.1209 21.812C2.34359 21.1573 2.73569 20.5732 3.25735 20.1192C3.779 19.6652 4.4116 19.3574 5.09079 19.2271C5.35807 19.1667 5.63079 19.1335 5.90476 19.1281ZM12.7465 11.0875C13.1205 10.7465 13.4945 10.4165 13.8465 10.1195C13.9302 10.0473 13.999 9.95924 14.0487 9.86045C14.0985 9.76167 14.1283 9.65405 14.1365 9.54373C14.1447 9.43342 14.131 9.32258 14.0964 9.21754C14.0617 9.1125 14.0067 9.01531 13.9345 8.93153C13.8622 8.84775 13.7742 8.77902 13.6754 8.72925C13.5766 8.67949 13.469 8.64967 13.3587 8.6415C13.2484 8.63333 13.1376 8.64696 13.0325 8.68163C12.9275 8.7163 12.8303 8.77131 12.7465 8.84353C12.4935 9.06353 12.0535 9.43751 11.5146 9.94349L11.7895 10.2075L5.58577 3.92672C5.52597 3.86065 5.45298 3.80784 5.37151 3.7717C5.29005 3.73555 5.20191 3.71688 5.11279 3.71688C5.02367 3.71688 4.93554 3.73555 4.85407 3.7717C4.77261 3.80784 4.69962 3.86065 4.63981 3.92672C2.3079 6.89661 3.08887 11.8354 6.47674 15.5313C5.67133 16.595 5.18323 17.8648 5.06879 19.1941C5.34441 19.1433 5.62457 19.1211 5.90476 19.1281C6.17474 19.1296 6.44384 19.1591 6.70773 19.2161C6.76529 18.3111 7.09503 17.4446 7.6537 16.7302C11.3166 19.8651 16.0684 20.5031 18.9393 18.2372C19.0056 18.1764 19.0586 18.1024 19.0948 18.0201C19.1311 17.9377 19.1498 17.8487 19.1498 17.7587C19.1498 17.6687 19.1311 17.5797 19.0948 17.4973C19.0586 17.4149 19.0056 17.341 18.9393 17.2802L12.7465 11.0875ZM13.6045 6.50062C13.9015 6.50062 16.4974 6.69862 16.3984 9.19552C16.3939 9.30388 16.4109 9.41204 16.4484 9.51383C16.4858 9.61562 16.5429 9.70903 16.6165 9.78871C16.69 9.8684 16.7786 9.9328 16.877 9.97824C16.9755 10.0237 17.082 10.0492 17.1903 10.0535C17.4062 10.0535 17.6132 9.96773 17.7659 9.81508C17.9185 9.66243 18.0043 9.4554 18.0043 9.23952C18.047 8.70757 17.9802 8.17252 17.808 7.66739C17.6359 7.16226 17.362 6.69778 17.0033 6.30263C16.089 5.42505 14.8917 4.90241 13.6265 4.82869C13.5171 4.81954 13.4069 4.83324 13.3031 4.86892C13.1993 4.9046 13.104 4.96149 13.0233 5.03596C12.9426 5.11043 12.8783 5.20087 12.8344 5.30153C12.7906 5.40218 12.7681 5.51086 12.7685 5.62066C12.7609 5.73446 12.7769 5.84861 12.8157 5.95589C12.8544 6.06317 12.915 6.16126 12.9935 6.24395C13.0721 6.32664 13.1669 6.39215 13.2721 6.43633C13.3773 6.48051 13.4904 6.5024 13.6045 6.50062ZM13.6925 1.00083C13.4767 0.991268 13.2654 1.06452 13.1018 1.2056C12.9382 1.34669 12.8347 1.54494 12.8125 1.7598C12.8035 1.87083 12.8171 1.98253 12.8525 2.08817C12.8878 2.1938 12.9442 2.29118 13.0182 2.37444C13.0922 2.45769 13.1823 2.5251 13.2831 2.57259C13.3838 2.62008 13.4932 2.64668 13.6045 2.65077C13.8795 2.65077 20.2042 3.21175 20.2922 9.25052C20.298 9.46548 20.3874 9.6697 20.5415 9.81969C20.6956 9.96968 20.9022 10.0536 21.1172 10.0535C21.3341 10.0477 21.5399 9.95676 21.6902 9.80029C21.8405 9.64383 21.9231 9.43445 21.9202 9.21752C21.7772 3.20075 16.4754 1.20982 13.6815 1.00083H13.6925Z" fill="black"/>
</svg>
