<svg width="24" height="24" viewBox="0 0 24 24" fill="none" xmlns="http://www.w3.org/2000/svg">
<path d="M13.9709 22.5394L9.52174 20.0354C9.28154 19.9028 9.01162 19.8332 8.73723 19.8332C8.46283 19.8332 8.19291 19.9028 7.95271 20.0354L3.50356 22.5394C3.26774 22.6757 3.00052 22.7482 2.72817 22.7498C2.45583 22.7515 2.18774 22.6822 1.95028 22.5489C1.71282 22.4155 1.51416 22.2226 1.37385 21.9892C1.23353 21.7558 1.1564 21.4898 1.15002 21.2176V9.21346C1.16419 8.19493 1.58168 7.22359 2.31097 6.51244C3.04025 5.80129 4.02179 5.40838 5.04035 5.41986H12.4341C13.4471 5.41693 14.4204 5.81363 15.1427 6.52387C15.865 7.23411 16.278 8.20056 16.2922 9.21346V21.2176C16.2829 21.4852 16.2052 21.7459 16.0667 21.975C15.9281 22.2041 15.7332 22.394 15.5005 22.5265C15.2678 22.659 15.0051 22.7297 14.7374 22.732C14.4696 22.7342 14.2058 22.668 13.9709 22.5394Z" fill="black"/>
<path d="M18.9466 1.25024H11.5529C10.7525 1.24513 9.97026 1.48838 9.31392 1.94647C8.65759 2.40456 8.15948 3.05494 7.88825 3.80797H12.4341C13.8747 3.79645 15.2614 4.35479 16.2921 5.3613C17.3228 6.36781 17.9138 7.74091 17.9365 9.18134V16.9405L20.4834 18.3698C20.72 18.5065 20.9882 18.579 21.2615 18.5801C21.5347 18.5813 21.8035 18.5111 22.0412 18.3765C22.279 18.2418 22.4775 18.0475 22.6171 17.8126C22.7566 17.5777 22.8324 17.3104 22.837 17.0372V5.04384C22.8228 4.02532 22.4053 3.05398 21.676 2.34283C20.9467 1.63168 19.9652 1.23876 18.9466 1.25024Z" fill="black"/>
</svg>
