<svg width="24" height="24" viewBox="0 0 24 24" fill="none" xmlns="http://www.w3.org/2000/svg">
<path d="M19.125 3.45816L13.6625 1.09555C13.137 0.867854 12.566 0.75 11.9881 0.75C11.4103 0.75 10.8392 0.867854 10.3137 1.09555L4.875 3.45816C4.16779 3.75937 3.56744 4.24768 3.14612 4.86438C2.7248 5.48109 2.50044 6.19995 2.5 6.93457V15.2037C2.49985 15.7704 2.633 16.33 2.88977 16.8418C3.14654 17.3536 3.52047 17.8048 3.98438 18.1626L9.435 22.3815C10.1539 22.943 11.0565 23.25 11.9881 23.25C12.9198 23.25 13.8224 22.943 14.5413 22.3815L19.9919 18.1626C20.4601 17.807 20.8386 17.3568 21.0995 16.8449C21.3605 16.3329 21.4973 15.7722 21.5 15.2037V6.93457C21.4996 6.19995 21.2752 5.48109 20.8539 4.86438C20.4326 4.24768 19.8322 3.75937 19.125 3.45816ZM12 6.00077C12.589 6.003 13.1641 6.1705 13.6527 6.48214C14.1413 6.79378 14.5215 7.23558 14.7453 7.75177C14.969 8.26796 15.0264 8.83539 14.91 9.38243C14.7937 9.92946 14.5089 10.4316 14.0916 10.8254C13.6742 11.2192 13.1431 11.487 12.5653 11.5951C11.9874 11.7031 11.3887 11.6465 10.8448 11.4325C10.3008 11.2184 9.83601 10.8565 9.50901 10.3923C9.18202 9.9282 9.0075 9.38268 9.0075 8.82465C9.01064 8.07468 9.32731 7.35644 9.88817 6.82718C10.449 6.29792 11.2084 6.00077 12 6.00077ZM12 17.9938C9.54187 17.9938 7.55875 16.7338 7.55875 15.1699C7.55875 13.6061 9.54187 12.3573 12 12.3573C14.4581 12.3573 16.4412 13.6174 16.4412 15.1699C16.4412 16.7225 14.4581 17.9938 12 17.9938Z" fill="black"/>
</svg>
