<svg width="24" height="24" viewBox="0 0 24 24" fill="none" xmlns="http://www.w3.org/2000/svg">
<path d="M19.9753 5.16862L14.0247 1.78061C13.4084 1.43292 12.7104 1.25 12 1.25C11.2896 1.25 10.5916 1.43292 9.97525 1.78061L4.02475 5.16862C3.40888 5.516 2.89724 6.01745 2.54167 6.62215C2.1861 7.22685 1.99923 7.91331 2 8.61199V15.388C1.99923 16.0867 2.1861 16.7732 2.54167 17.3779C2.89724 17.9825 3.40888 18.484 4.02475 18.8314L9.97525 22.2194C10.5916 22.5671 11.2896 22.75 12 22.75C12.7104 22.75 13.4084 22.5671 14.0247 22.2194L19.9753 18.8314C20.5911 18.484 21.1028 17.9825 21.4583 17.3779C21.8139 16.7732 22.0008 16.0867 22 15.388V8.61199C22.0008 7.91331 21.8139 7.22685 21.4583 6.62215C21.1028 6.01745 20.5911 5.516 19.9753 5.16862ZM12 15.543C11.2881 15.543 10.5921 15.3352 10.0002 14.9459C9.40826 14.5566 8.94689 14.0033 8.67445 13.3559C8.40201 12.7085 8.33073 11.9961 8.46962 11.3088C8.6085 10.6215 8.95133 9.99021 9.45473 9.49471C9.95814 8.99921 10.5995 8.66177 11.2978 8.52506C11.996 8.38835 12.7198 8.45852 13.3775 8.72668C14.0352 8.99484 14.5974 9.44896 14.9929 10.0316C15.3884 10.6143 15.5995 11.2993 15.5995 12C15.5995 12.9397 15.2203 13.8408 14.5453 14.5053C13.8702 15.1697 12.9547 15.543 12 15.543Z" fill="black"/>
</svg>
