<svg width="24" height="24" viewBox="0 0 24 24" fill="none" xmlns="http://www.w3.org/2000/svg">
<path d="M12.0669 22.9999C10.6167 23.0028 9.18316 22.6913 7.86496 22.0869C7.66829 21.9915 7.51611 21.8237 7.44026 21.6187C7.36441 21.4137 7.37075 21.1873 7.45796 20.9869C7.55121 20.7883 7.71882 20.6343 7.92461 20.5581C8.1304 20.482 8.35788 20.4898 8.55795 20.5799C9.63032 21.0679 10.7927 21.3268 11.9708 21.34C13.1489 21.3533 14.3168 21.1206 15.3999 20.6569C15.6003 20.5811 15.8221 20.5851 16.0196 20.6681C16.2171 20.751 16.3752 20.9067 16.4613 21.1028C16.5474 21.299 16.5549 21.5207 16.4822 21.7223C16.4096 21.9238 16.2623 22.0897 16.0709 22.1859C14.8065 22.7299 13.4434 23.007 12.0669 22.9999ZM21.3179 12.8249C21.4264 12.814 21.5318 12.7816 21.6277 12.7296C21.7237 12.6777 21.8084 12.6072 21.877 12.5223C21.9455 12.4374 21.9965 12.3397 22.0271 12.2349C22.0576 12.1302 22.067 12.0204 22.0549 11.9119C21.9103 10.5365 21.4841 9.20553 20.8028 8.00194C20.1215 6.79835 19.1997 5.74789 18.0949 4.91599C17.9175 4.80576 17.7052 4.76593 17.4999 4.80436C17.2946 4.84278 17.1111 4.95667 16.9856 5.1236C16.86 5.29054 16.8015 5.49842 16.8216 5.70633C16.8416 5.91424 16.9388 6.10712 17.0939 6.24698C18.0133 6.94146 18.7806 7.81715 19.3482 8.81991C19.9158 9.82267 20.2717 10.9312 20.3939 12.0769C20.4155 12.2812 20.5115 12.4703 20.6637 12.6083C20.8159 12.7463 21.0135 12.8234 21.2189 12.8249H21.3179ZM3.71799 12.0769C3.8444 10.9041 4.2163 9.77106 4.80949 8.75145C5.40269 7.73184 6.20388 6.84853 7.16096 6.15898C7.26342 6.10083 7.35243 6.02168 7.42215 5.92672C7.49188 5.83176 7.54075 5.72313 7.56555 5.60796C7.59036 5.49279 7.59054 5.37368 7.56609 5.25844C7.54164 5.14319 7.49311 5.03442 7.42368 4.93924C7.35425 4.84407 7.26548 4.76464 7.16321 4.70617C7.06093 4.6477 6.94745 4.61151 6.83021 4.59997C6.71297 4.58842 6.59461 4.60179 6.48289 4.63919C6.37118 4.67659 6.26863 4.73718 6.18197 4.81699C5.04605 5.64764 4.09693 6.70726 3.39589 7.92744C2.69486 9.14762 2.25748 10.5013 2.112 11.9009C2.09981 12.0094 2.10925 12.1192 2.13979 12.2239C2.17032 12.3287 2.22134 12.4264 2.28989 12.5113C2.35843 12.5962 2.44315 12.6667 2.53912 12.7186C2.63509 12.7706 2.74042 12.803 2.849 12.8139H2.93699C3.13493 12.8049 3.32322 12.7258 3.46828 12.5908C3.61334 12.4558 3.70573 12.2737 3.72899 12.0769H3.71799ZM12.0119 1.00002C11.3788 1.00002 10.76 1.18775 10.2336 1.53948C9.70716 1.89121 9.29689 2.39113 9.05461 2.97604C8.81234 3.56094 8.74895 4.20455 8.87246 4.82548C8.99597 5.4464 9.30083 6.01676 9.7485 6.46443C10.1962 6.91209 10.7665 7.21696 11.3875 7.34047C12.0084 7.46398 12.652 7.40059 13.2369 7.15831C13.8218 6.91604 14.3217 6.50576 14.6734 5.97936C15.0252 5.45297 15.2129 4.83409 15.2129 4.201C15.2144 3.78023 15.1326 3.36333 14.9722 2.97432C14.8119 2.5853 14.5761 2.23185 14.2786 1.93432C13.9811 1.63679 13.6276 1.40107 13.2386 1.24072C12.8496 1.08037 12.4327 0.998566 12.0119 1.00002ZM4.31198 14.1999C3.67843 14.1977 3.05847 14.3836 2.53063 14.734C2.00279 15.0844 1.5908 15.5836 1.34684 16.1683C1.10287 16.753 1.03791 17.397 1.16018 18.0186C1.28244 18.6403 1.58644 19.2117 2.03366 19.6604C2.48088 20.1092 3.05122 20.4151 3.67245 20.5395C4.29368 20.664 4.93785 20.6012 5.52339 20.3593C6.10893 20.1173 6.60951 19.707 6.96173 19.1804C7.31394 18.6538 7.50196 18.0345 7.50196 17.4009C7.50197 16.5539 7.16623 15.7413 6.56831 15.1414C5.97039 14.5414 5.15903 14.2028 4.31198 14.1999ZM19.7119 14.1999C19.0788 14.1999 18.4599 14.3877 17.9335 14.7394C17.4071 15.0911 16.9968 15.591 16.7546 16.1759C16.5123 16.7608 16.4489 17.4045 16.5724 18.0254C16.6959 18.6463 17.0008 19.2167 17.4484 19.6643C17.8961 20.112 18.4665 20.4169 19.0874 20.5404C19.7083 20.6639 20.3519 20.6005 20.9368 20.3582C21.5217 20.1159 22.0217 19.7057 22.3734 19.1793C22.7251 18.6529 22.9129 18.034 22.9129 17.4009C22.9143 16.9801 22.8325 16.5632 22.6722 16.1742C22.5118 15.7852 22.2761 15.4318 21.9785 15.1342C21.681 14.8367 21.3276 14.601 20.9386 14.4406C20.5495 14.2803 20.1326 14.1985 19.7119 14.1999Z" fill="black"/>
</svg>
