<svg width="24" height="24" viewBox="0 0 24 24" fill="none" xmlns="http://www.w3.org/2000/svg">
<path d="M19.125 3.45816L13.6625 1.09555C13.137 0.867854 12.566 0.75 11.9881 0.75C11.4103 0.75 10.8392 0.867854 10.3137 1.09555L4.875 3.45816C4.16779 3.75937 3.56744 4.24768 3.14612 4.86438C2.7248 5.48109 2.50044 6.19995 2.5 6.93457V15.2037C2.49985 15.7704 2.633 16.33 2.88977 16.8418C3.14654 17.3536 3.52047 17.8048 3.98438 18.1626L9.435 22.3815C10.1539 22.943 11.0565 23.25 11.9881 23.25C12.9198 23.25 13.8224 22.943 14.5413 22.3815L19.9919 18.1626C20.4601 17.807 20.8386 17.3568 21.0995 16.8449C21.3605 16.3329 21.4973 15.7722 21.5 15.2037V6.93457C21.4996 6.19995 21.2752 5.48109 20.8539 4.86438C20.4326 4.24768 19.8322 3.75937 19.125 3.45816ZM16.0138 10.3097L11.05 14.8887C10.9681 14.9683 10.8703 15.0315 10.7622 15.0747C10.6541 15.1179 10.5379 15.1402 10.4206 15.1402C10.3033 15.1402 10.1872 15.1179 10.0791 15.0747C9.97099 15.0315 9.87312 14.9683 9.79125 14.8887L7.9625 13.1223C7.79715 12.9612 7.70614 12.7445 7.70948 12.5198C7.71282 12.2951 7.81024 12.0808 7.98031 11.9242C8.15038 11.7675 8.37917 11.6813 8.61634 11.6845C8.85352 11.6876 9.07965 11.7799 9.245 11.941L10.4325 13.0661L14.7669 9.07216C14.8423 8.96802 14.9414 8.88125 15.057 8.81825C15.1725 8.75524 15.3015 8.71761 15.4344 8.70814C15.5673 8.69866 15.7008 8.71757 15.825 8.76348C15.9492 8.80939 16.0609 8.88113 16.1519 8.9734C16.243 9.06567 16.311 9.17613 16.3509 9.29662C16.3909 9.4171 16.4018 9.54455 16.3828 9.66957C16.3639 9.79458 16.3155 9.91396 16.2414 10.0189C16.1672 10.1239 16.0691 10.2117 15.9544 10.276L16.0138 10.3097Z" fill="black"/>
</svg>
