<svg width="24" height="24" viewBox="0 0 24 24" fill="none" xmlns="http://www.w3.org/2000/svg">
<path d="M20.2545 16.6308C20.2545 17.5621 19.9784 18.4724 19.461 19.2468C18.9436 20.0211 18.2082 20.6246 17.3478 20.981C16.4874 21.3374 15.5407 21.4306 14.6273 21.2489C13.7139 21.0673 12.8749 20.6188 12.2164 19.9603C11.5579 19.3018 11.1094 18.4628 10.9277 17.5494C10.746 16.636 10.8393 15.6892 11.1957 14.8289C11.5521 13.9685 12.1556 13.2331 12.9299 12.7157C13.7042 12.1983 14.6146 11.9221 15.5459 11.9221C16.7947 11.9221 17.9924 12.4182 18.8754 13.3013C19.7584 14.1843 20.2545 15.382 20.2545 16.6308ZM9.1985 16.6308C9.19286 15.4218 9.53262 14.2363 10.1778 13.2138C10.823 12.1914 11.7468 11.3744 12.8405 10.8591C13.9342 10.3438 15.1523 10.1516 16.3516 10.3051C17.5508 10.4586 18.6813 10.9514 19.61 11.7255V7.01684C19.6089 6.30222 19.4024 5.60297 19.015 5.00248C18.6276 4.40199 18.0756 3.9256 17.425 3.63011L12.3995 1.33588C11.9142 1.11454 11.387 1 10.8536 1C10.3202 1 9.79306 1.11454 9.30775 1.33588L4.31506 3.63011C3.66357 3.92449 3.11087 4.40062 2.72329 5.00136C2.33572 5.6021 2.12974 6.30192 2.13008 7.01684V15.0467C2.12663 15.5958 2.24428 16.139 2.47465 16.6375C2.70502 17.136 3.04245 17.5776 3.46292 17.9308L8.47746 22.0277C9.07154 22.5119 9.80049 22.801 10.5649 22.8558C11.3294 22.9105 12.0921 22.7282 12.7491 22.3336C11.6847 21.8083 10.7882 20.996 10.1608 19.9883C9.53345 18.9807 9.20014 17.8178 9.1985 16.6308ZM20.7789 20.815C20.5628 20.815 20.3516 20.8791 20.172 20.9991C19.9923 21.1192 19.8523 21.2898 19.7696 21.4894C19.6869 21.6891 19.6653 21.9087 19.7074 22.1206C19.7496 22.3326 19.8536 22.5272 20.0064 22.68C20.1592 22.8328 20.3539 22.9369 20.5658 22.979C20.7777 23.0212 20.9974 22.9995 21.197 22.9168C21.3966 22.8342 21.5673 22.6941 21.6873 22.5145C21.8073 22.3348 21.8714 22.1236 21.8714 21.9075C21.8714 21.6178 21.7563 21.3399 21.5514 21.135C21.3466 20.9301 21.0687 20.815 20.7789 20.815Z" fill="black"/>
</svg>
