<svg width="24" height="24" viewBox="0 0 24 24" fill="none" xmlns="http://www.w3.org/2000/svg">
<path d="M22.1808 3.20023L2.95927 22.3337C2.883 22.4109 2.79207 22.4721 2.69181 22.5137C2.59156 22.5553 2.48401 22.5765 2.37546 22.576C2.26683 22.5771 2.15909 22.5563 2.05875 22.5146C1.95841 22.473 1.86755 22.4114 1.79166 22.3337C1.63695 22.1788 1.55005 21.9688 1.55005 21.7499C1.55005 21.5309 1.63695 21.321 1.79166 21.1661L4.76577 18.1919L4.56749 18.0267C4.13718 17.6765 3.79032 17.2347 3.55214 16.7336C3.31396 16.2325 3.19045 15.6846 3.19059 15.1297V7.04454C3.19312 6.32716 3.40223 5.6257 3.79292 5.02404C4.18361 4.42238 4.73933 3.94599 5.39364 3.65185L10.4386 1.33865C10.9279 1.11549 11.4595 1 11.9973 1C12.5351 1 13.0666 1.11549 13.5559 1.33865L18.6119 3.65185C18.7842 3.73039 18.9499 3.82248 19.1076 3.92723L21.0242 2.0216C21.1007 1.94131 21.1925 1.87723 21.2942 1.83316C21.3959 1.7891 21.5055 1.76596 21.6163 1.76512C21.7272 1.76428 21.8371 1.78576 21.9395 1.82828C22.0418 1.8708 22.1346 1.93349 22.2122 2.01261C22.2899 2.09173 22.3508 2.18567 22.3914 2.28883C22.432 2.39199 22.4514 2.50226 22.4484 2.61308C22.4455 2.72389 22.4203 2.83299 22.3743 2.93386C22.3284 3.03473 22.2626 3.12532 22.1808 3.20023ZM7.24419 20.2188L9.62348 22.1574C10.2904 22.7023 11.1251 23 11.9862 23C12.8474 23 13.6821 22.7023 14.349 22.1574L19.405 18.0267C19.8293 17.6732 20.1699 17.2301 20.4023 16.7291C20.6346 16.2282 20.753 15.6819 20.7489 15.1297V7.04454C20.7543 6.95283 20.7543 6.86087 20.7489 6.76916L7.24419 20.2188Z" fill="black"/>
</svg>
