<svg width="24" height="24" viewBox="0 0 24 24" fill="none" xmlns="http://www.w3.org/2000/svg">
<path d="M9.44688 22.377L3.99625 18.159C3.53017 17.8024 3.15398 17.3518 2.89513 16.84C2.63628 16.3282 2.50129 15.7682 2.5 15.2007V6.93329C2.50044 6.19883 2.7248 5.48011 3.14612 4.86353C3.56744 4.24696 4.16779 3.75875 4.875 3.4576L10.3375 1.09548C10.863 0.86783 11.434 0.75 12.0119 0.75C12.5897 0.75 13.1608 0.86783 13.6862 1.09548L19.125 3.4576C19.8322 3.75875 20.4326 4.24696 20.8539 4.86353C21.2752 5.48011 21.4996 6.19883 21.5 6.93329V15.2007C21.5001 15.7673 21.367 16.3268 21.1102 16.8385C20.8535 17.3502 20.4795 17.8013 20.0156 18.159L14.565 22.377C13.8452 22.9413 12.9402 23.25 12.0059 23.25C11.0717 23.25 10.1666 22.9413 9.44688 22.377Z" fill="black"/>
</svg>
