<svg width="24" height="24" viewBox="0 0 24 24" fill="none" xmlns="http://www.w3.org/2000/svg">
<path d="M12.5738 22.8336H4.81102C3.80116 22.8308 2.83347 22.4283 2.11938 21.7143C1.40529 21.0002 1.00286 20.0325 1 19.0226V9.56002C1 8.54927 1.40152 7.57992 2.11622 6.86522C2.83093 6.15051 3.80028 5.749 4.81102 5.749H9.6939C10.2285 5.74705 10.7574 5.85791 11.2462 6.07432C11.735 6.29073 12.1726 6.60783 12.5305 7.0049L15.4104 10.2529C16.0394 10.9509 16.3867 11.8577 16.3848 12.7972V19.0659C16.3734 20.0691 15.9669 21.0274 15.2534 21.7328C14.5399 22.4381 13.5771 22.8337 12.5738 22.8336ZM22.0256 5.64073L19.1457 2.3927C18.7851 2.00778 18.349 1.70141 17.8647 1.49276C17.3803 1.28411 16.8581 1.17767 16.3307 1.1801H11.4262C10.5592 1.17367 9.71565 1.46138 9.0333 1.99625C8.35094 2.53112 7.8701 3.28155 7.66929 4.12498H9.6939C10.4574 4.12205 11.2129 4.28067 11.9108 4.59042C12.6086 4.90017 13.2331 5.35404 13.7431 5.92222L16.623 9.17026C17.5201 10.1691 18.014 11.4656 18.0089 12.8081V18.3081H19.189C20.1997 18.3081 21.1691 17.9065 21.8838 17.1918C22.5985 16.4771 23 15.5078 23 14.497V8.18502C22.9998 7.24583 22.6528 6.33978 22.0256 5.64073Z" fill="black"/>
</svg>
