<svg width="24" height="24" viewBox="0 0 24 24" fill="none" xmlns="http://www.w3.org/2000/svg">
<path d="M20.9517 6.63375L17.1136 2.415C16.6375 1.89024 16.0546 1.47067 15.403 1.18376C14.7514 0.896838 14.0459 0.749031 13.3325 0.750005H6.82944C5.48229 0.750005 4.19032 1.27863 3.23774 2.2196C2.28515 3.16056 1.75 4.43678 1.75 5.7675V18.2325C1.75 19.5632 2.28515 20.8394 3.23774 21.7804C4.19032 22.7214 5.48229 23.25 6.82944 23.25H17.1706C18.5177 23.25 19.8097 22.7214 20.7623 21.7804C21.7148 20.8394 22.25 19.5632 22.25 18.2325V9.98625C22.2473 8.74943 21.7854 7.55655 20.9517 6.63375ZM11.4306 19.3125H9.61972C8.74075 19.3125 7.89778 18.9676 7.27625 18.3536C6.65473 17.7397 6.30556 16.907 6.30556 16.0388V14.8125H11.4306V19.3125ZM11.4306 13.6875H6.30556V12.4613C6.30556 11.593 6.65473 10.7603 7.27625 10.1464C7.89778 9.53241 8.74075 9.1875 9.61972 9.1875H11.4306V13.6875ZM17.6944 16.0388C17.6944 16.907 17.3453 17.7397 16.7237 18.3536C16.1022 18.9676 15.2592 19.3125 14.3803 19.3125H12.5694V14.8125H17.6944V16.0388ZM17.6944 13.6875H12.5694V9.1875H14.3803C15.2592 9.1875 16.1022 9.53241 16.7237 10.1464C17.3453 10.7603 17.6944 11.593 17.6944 12.4613V13.6875Z" fill="black"/>
</svg>
