<svg width="24" height="24" viewBox="0 0 24 24" fill="none" xmlns="http://www.w3.org/2000/svg">
<path d="M14.6446 10.9255C14.0316 10.9255 13.4437 10.6821 13.0103 10.2489C12.5769 9.81567 12.3334 9.22808 12.3334 8.6154V3.83398C12.3334 3.22129 12.5769 2.6337 13.0103 2.20047C13.4437 1.76724 14.0316 1.52385 14.6446 1.52385C15.2586 1.52385 15.8475 1.76689 16.2827 2.19982C16.7178 2.63274 16.9637 3.22031 16.9666 3.83398V8.64763C16.9553 9.25569 16.7057 9.83503 16.2715 10.261C15.8372 10.687 15.253 10.9256 14.6446 10.9255ZM11.6669 20.166V15.3953C11.6683 15.0911 11.6095 14.7895 11.494 14.508C11.3785 14.2265 11.2085 13.9705 10.9937 13.7549C10.779 13.5392 10.5237 13.3681 10.2426 13.2513C9.96148 13.1346 9.66006 13.0745 9.35564 13.0745C8.74167 13.0745 8.15269 13.3175 7.71755 13.7504C7.2824 14.1834 7.03651 14.7709 7.03367 15.3846V20.1875C7.03651 20.8012 7.2824 21.3887 7.71755 21.8217C8.15269 22.2546 8.74167 22.4976 9.35564 22.4976C9.96676 22.4976 10.553 22.2557 10.9861 21.8248C11.4193 21.3939 11.664 20.8091 11.6669 20.1983V20.166ZM8.4419 6.78879H3.5722C3.26505 6.78733 2.96069 6.84708 2.67691 6.96455C2.39313 7.08201 2.13562 7.25484 1.91943 7.47293C1.70324 7.69101 1.53271 7.94998 1.41781 8.2347C1.30291 8.51942 1.24594 8.82417 1.25023 9.13115C1.25023 9.74383 1.49373 10.3314 1.92717 10.7647C2.36061 11.1979 2.94848 11.4413 3.56145 11.4413H8.38815C9.00113 11.4413 9.58899 11.1979 10.0224 10.7647C10.4559 10.3314 10.6994 9.74383 10.6994 9.13115C10.6994 8.51846 10.4559 7.93087 10.0224 7.49764C9.58899 7.06441 9.00113 6.82102 8.38815 6.82102L8.4419 6.78879ZM20.4818 12.5695H15.6121C14.9991 12.5695 14.4112 12.8129 13.9778 13.2461C13.5444 13.6793 13.3008 14.2669 13.3008 14.8796C13.3008 15.4923 13.5444 16.0799 13.9778 16.5131C14.4112 16.9463 14.9991 17.1897 15.6121 17.1897H20.428C21.0373 17.1926 21.6231 16.9549 22.0579 16.5283C22.4928 16.1017 22.7415 15.5208 22.75 14.9118C22.75 14.6076 22.6899 14.3063 22.573 14.0253C22.4562 13.7443 22.285 13.4892 22.0693 13.2745C21.8535 13.0599 21.5974 12.8899 21.3158 12.7745C21.0341 12.659 20.7324 12.6003 20.428 12.6017L20.4818 12.5695ZM1.49747 14.9333C1.47483 15.2213 1.51491 15.5107 1.61495 15.7817C1.71499 16.0527 1.87261 16.2988 2.07696 16.5031C2.28131 16.7073 2.52752 16.8649 2.79864 16.9649C3.06976 17.0648 3.35935 17.1049 3.64745 17.0823C4.17187 17.0256 4.6553 16.7723 5.00038 16.3736C5.34546 15.9748 5.52656 15.4602 5.50718 14.9333V13.4505C5.50861 13.4026 5.50057 13.3548 5.48352 13.3099C5.46646 13.265 5.44072 13.224 5.40778 13.189C5.37483 13.1541 5.33532 13.126 5.29151 13.1064C5.2477 13.0867 5.20044 13.0759 5.15243 13.0745H3.62595C3.10247 13.0606 2.59294 13.2441 2.1986 13.5885C1.80426 13.9329 1.55397 14.413 1.49747 14.9333ZM8.8504 1.25523C8.56272 1.23444 8.27393 1.27577 8.00365 1.37641C7.73337 1.47705 7.48792 1.63465 7.28397 1.8385C7.08002 2.04236 6.92234 2.28769 6.82165 2.55784C6.72096 2.828 6.67962 3.11665 6.70042 3.40419C6.76681 3.91172 7.01227 4.37891 7.39262 4.72165C7.77297 5.06439 8.26323 5.26018 8.77515 5.27378H10.3016C10.3986 5.27378 10.4915 5.23529 10.5601 5.16678C10.6286 5.09826 10.6671 5.00534 10.6671 4.90845V3.40419C10.6875 2.88392 10.5124 2.37486 10.1762 1.97716C9.83997 1.57946 9.36702 1.32193 8.8504 1.25523ZM15.1391 22.7448C15.4268 22.7656 15.7155 22.7242 15.9858 22.6236C16.2561 22.5229 16.5016 22.3653 16.7055 22.1615C16.9095 21.9576 17.0671 21.7123 17.1678 21.4422C17.2685 21.172 17.3099 20.8834 17.2891 20.5958C17.216 20.0795 16.9577 19.6073 16.5621 19.2673C16.1665 18.9272 15.6608 18.7426 15.1391 18.7477H13.6556C13.5587 18.7477 13.4657 18.7862 13.3972 18.8547C13.3286 18.9232 13.2901 19.0161 13.2901 19.113V20.5958C13.2705 21.121 13.4501 21.6342 13.7929 22.0327C14.1358 22.4312 14.6166 22.6855 15.1391 22.7448ZM22.5028 9.1204C22.5254 8.83244 22.4853 8.54299 22.3853 8.272C22.2852 8.00101 22.1276 7.75491 21.9233 7.55066C21.7189 7.34641 21.4727 7.18887 21.2016 7.08887C20.9305 6.98888 20.6409 6.94882 20.3528 6.97145C19.8303 7.03068 19.3495 7.285 19.0066 7.68349C18.6638 8.08197 18.4842 8.59519 18.5038 9.1204V10.6032C18.5038 10.6512 18.5132 10.6987 18.5316 10.743C18.55 10.7873 18.5769 10.8276 18.6108 10.8615C18.6448 10.8954 18.6851 10.9223 18.7294 10.9407C18.7738 10.9591 18.8213 10.9685 18.8693 10.9685H20.385C20.905 10.9799 21.4105 10.7966 21.8023 10.4547C22.1941 10.1128 22.4439 9.63692 22.5028 9.1204Z" fill="black"/>
</svg>
