<svg width="24" height="24" viewBox="0 0 24 24" fill="none" xmlns="http://www.w3.org/2000/svg">
<path d="M18.45 4.475V19.6325C18.4221 20.4691 18.07 21.262 17.4682 21.8437C16.8664 22.4255 16.062 22.7505 15.225 22.75H8.775C7.92891 22.7501 7.11666 22.4177 6.51338 21.8245C5.91009 21.2313 5.5641 20.4247 5.55 19.5788V4.475C5.55 3.61968 5.88978 2.79939 6.49458 2.19458C7.09939 1.58978 7.91968 1.25 8.775 1.25H15.225C16.0803 1.25 16.9006 1.58978 17.5054 2.19458C18.1102 2.79939 18.45 3.61968 18.45 4.475ZM3.94825 4.82975H3.62575C2.99566 4.82975 2.39138 5.08005 1.94584 5.52559C1.5003 5.97113 1.25 6.57541 1.25 7.2055V16.7945C1.25 17.4246 1.5003 18.0289 1.94584 18.4744C2.39138 18.9199 2.99566 19.1702 3.62575 19.1702H3.94825V4.82975ZM20.3743 4.82975H20.0518V19.1702H20.3743C21.0043 19.1702 21.6086 18.9199 22.0542 18.4744C22.4997 18.0289 22.75 17.4246 22.75 16.7945V7.2055C22.75 6.57541 22.4997 5.97113 22.0542 5.52559C21.6086 5.08005 21.0043 4.82975 20.3743 4.82975Z" fill="black"/>
</svg>
