<svg width="24" height="24" viewBox="0 0 24 24" fill="none" xmlns="http://www.w3.org/2000/svg">
<path d="M17.9205 2.35999H5.5795C4.36494 2.35999 3.20013 2.84247 2.3413 3.70129C1.48248 4.56011 1 5.72493 1 6.93949V17.0555C1 18.27 1.48248 19.4349 2.3413 20.2937C3.20013 21.1525 4.36494 21.635 5.5795 21.635H17.9205C18.5219 21.635 19.1174 21.5165 19.673 21.2864C20.2286 21.0562 20.7335 20.7189 21.1587 20.2937C21.5839 19.8684 21.9213 19.3636 22.1514 18.808C22.3815 18.2524 22.5 17.6569 22.5 17.0555V6.93949C22.5 5.72493 22.0175 4.56011 21.1587 3.70129C20.2999 2.84247 19.1351 2.35999 17.9205 2.35999ZM17.641 8.70248L14.1042 11.7017C13.4464 12.2635 12.6097 12.5722 11.7446 12.5722C10.8795 12.5722 10.0428 12.2635 9.385 11.7017L5.7515 8.70248C5.58756 8.55993 5.48697 8.35809 5.47185 8.14137C5.45673 7.92465 5.52832 7.7108 5.67088 7.54686C5.81343 7.38292 6.01527 7.28233 6.23199 7.26721C6.44871 7.25209 6.66256 7.32368 6.8265 7.46624L10.46 10.487C10.8275 10.7998 11.2943 10.9715 11.7769 10.9715C12.2594 10.9715 12.7263 10.7998 13.0938 10.487L16.6412 7.48774C16.8047 7.35027 17.0155 7.28229 17.2285 7.29837C17.4415 7.31444 17.6398 7.41329 17.7808 7.57374C17.9061 7.74411 17.9614 7.95601 17.9354 8.16591C17.9095 8.37582 17.8041 8.56781 17.641 8.70248Z" fill="black"/>
</svg>
