<svg width="24" height="24" viewBox="0 0 24 24" fill="none" xmlns="http://www.w3.org/2000/svg">
<path d="M16.9347 8.26986L8.54768 1.11829C8.34612 0.922275 8.1068 0.766782 7.84339 0.660693C7.57998 0.554604 7.29765 0.5 7.01252 0.5C6.72739 0.5 6.44505 0.554604 6.18165 0.660693C5.91824 0.766782 5.67892 0.922275 5.47736 1.11829L4.73625 1.83859C4.53457 2.03449 4.37459 2.26709 4.26543 2.5231C4.15628 2.77912 4.1001 3.05352 4.1001 3.33065C4.1001 3.60777 4.15628 3.88218 4.26543 4.13819C4.37459 4.3942 4.53457 4.6268 4.73625 4.8227L11.5882 10.4822C11.7898 10.6781 11.9498 10.9107 12.059 11.1667C12.1681 11.4227 12.2243 11.6972 12.2243 11.9743C12.2243 12.2514 12.1681 12.5258 12.059 12.7818C11.9498 13.0378 11.7898 13.2704 11.5882 13.4663L4.73625 19.1773C4.53457 19.3732 4.37459 19.6058 4.26543 19.8618C4.15628 20.1178 4.1001 20.3922 4.1001 20.6694C4.1001 20.9465 4.15628 21.2209 4.26543 21.4769C4.37459 21.7329 4.53457 21.9655 4.73625 22.1614L5.47736 22.8817C5.67892 23.0777 5.91824 23.2332 6.18165 23.3393C6.44505 23.4454 6.72739 23.5 7.01252 23.5C7.29765 23.5 7.57998 23.4454 7.84339 23.3393C8.1068 23.2332 8.34612 23.0777 8.54768 22.8817L16.9877 15.6787L19.2639 13.4663C19.4656 13.2704 19.6256 13.0378 19.7348 12.7818C19.8439 12.5258 19.9001 12.2514 19.9001 11.9743C19.9001 11.6972 19.8439 11.4227 19.7348 11.1667C19.6256 10.9107 19.4656 10.6781 19.2639 10.4822L16.9347 8.26986Z" fill="black"/>
</svg>
