<svg width="24" height="24" viewBox="0 0 24 24" fill="none" xmlns="http://www.w3.org/2000/svg">
<path d="M18.8908 2.8625C19.4858 2.86533 20.0556 3.10295 20.4763 3.52368C20.8971 3.94442 21.1347 4.51425 21.1375 5.10925V18.8908C21.1347 19.4858 20.8971 20.0556 20.4763 20.4763C20.0556 20.8971 19.4858 21.1347 18.8908 21.1375H5.10925C4.51425 21.1347 3.94442 20.8971 3.52368 20.4763C3.10295 20.0556 2.86533 19.4858 2.8625 18.8908V5.10925C2.86533 4.51425 3.10295 3.94442 3.52368 3.52368C3.94442 3.10295 4.51425 2.86533 5.10925 2.8625H18.8908ZM18.8908 1.25H5.10925C4.08571 1.25 3.1041 1.6566 2.38035 2.38035C1.6566 3.1041 1.25 4.08571 1.25 5.10925V18.8908C1.25 19.9143 1.6566 20.8959 2.38035 21.6197C3.1041 22.3434 4.08571 22.75 5.10925 22.75H18.8908C19.9143 22.75 20.8959 22.3434 21.6197 21.6197C22.3434 20.8959 22.75 19.9143 22.75 18.8908V5.10925C22.75 4.08571 22.3434 3.1041 21.6197 2.38035C20.8959 1.6566 19.9143 1.25 18.8908 1.25ZM15.9668 9.678C15.9668 9.28071 15.8097 8.89952 15.5298 8.61759C15.2498 8.33565 14.8698 8.17584 14.4725 8.173H13.4943C13.097 8.17584 12.7169 8.33565 12.437 8.61759C12.1571 8.89952 12 9.28071 12 9.678V22.75H15.9668V9.678Z" fill="black"/>
</svg>
