<svg width="24" height="24" viewBox="0 0 24 24" fill="none" xmlns="http://www.w3.org/2000/svg">
<path d="M18.9856 12.5502H14.7507C14.351 12.5388 13.9575 12.4486 13.5928 12.2847C13.2281 12.1208 12.8993 11.8865 12.6254 11.5952C12.3515 11.3039 12.1378 10.9614 11.9966 10.5873C11.8554 10.2132 11.7896 9.81488 11.8028 9.41524V4.96033L18.9856 12.5502ZM18.9856 13.9252H14.7507C14.17 13.9124 13.5976 13.7847 13.0665 13.5496C12.5354 13.3144 12.0561 12.9764 11.6562 12.5551C11.2564 12.1338 10.9439 11.6375 10.7369 11.0948C10.5298 10.5521 10.4322 9.97382 10.4498 9.39324V4.99332H6.04988C4.70488 5.00494 3.4191 5.54815 2.47318 6.50437C1.52725 7.4606 0.998011 8.75219 1.00097 10.0972V17.7971C0.987854 18.471 1.10837 19.1409 1.35555 19.768C1.60273 20.3951 1.97168 20.967 2.4411 21.4508C2.91052 21.9345 3.47112 22.3205 4.09052 22.5864C4.70991 22.8523 5.37585 22.9929 6.04988 23H14.0137C14.684 22.9928 15.3463 22.8537 15.9628 22.5905C16.5793 22.3274 17.1379 21.9454 17.6067 21.4663C18.0756 20.9872 18.4454 20.4205 18.6953 19.7985C18.9451 19.1765 19.0699 18.5114 19.0626 17.8411V13.9252H18.9856ZM17.6217 1.0004H10.4608C9.52258 0.988872 8.59837 1.22862 7.78406 1.69477C6.96976 2.16091 6.29503 2.83647 5.82988 3.65135C6.0953 3.60752 6.36385 3.58544 6.63286 3.58535H14.3327C15.0868 3.58823 15.8329 3.73961 16.5284 4.03083C17.2239 4.32206 17.8553 4.74743 18.3864 5.28266C18.9176 5.81788 19.3381 6.45249 19.624 7.15024C19.9099 7.84798 20.0555 8.59521 20.0526 9.34925V17.2801C20.0436 17.7543 19.9846 18.2262 19.8766 18.6881C20.8061 18.253 21.5931 17.5632 22.146 16.6986C22.699 15.8341 22.9953 14.8304 23.0006 13.8042V6.4233C23.0078 5.71745 22.8758 5.0171 22.612 4.36234C22.3483 3.70758 21.958 3.11128 21.4634 2.60757C20.9689 2.10385 20.3799 1.70262 19.7301 1.42684C19.0803 1.15106 18.3825 1.00615 17.6767 1.0004H17.6217Z" fill="black"/>
</svg>
