<svg width="24" height="24" viewBox="0 0 24 24" fill="none" xmlns="http://www.w3.org/2000/svg">
<path d="M17.0401 1H6.9599C5.97597 1 5.03234 1.39403 4.3366 2.09542C3.64086 2.79681 3.25 3.74809 3.25 4.74V19.26C3.25 20.2519 3.64086 21.2032 4.3366 21.9046C5.03234 22.606 5.97597 23 6.9599 23H17.0401C17.5273 23 18.0097 22.9033 18.4598 22.7153C18.9099 22.5274 19.3189 22.2519 19.6634 21.9046C20.0079 21.5573 20.2812 21.145 20.4676 20.6912C20.654 20.2375 20.75 19.7511 20.75 19.26V4.74C20.75 3.74809 20.3591 2.79681 19.6634 2.09542C18.9677 1.39403 18.024 1 17.0401 1ZM12 5.73C12.2961 5.73001 12.5856 5.81868 12.8316 5.98476C13.0777 6.15084 13.2693 6.38686 13.3821 6.66287C13.4949 6.93888 13.5239 7.24245 13.4653 7.53507C13.4067 7.8277 13.2633 8.09619 13.0531 8.30651C12.843 8.51682 12.5756 8.65947 12.2849 8.71637C11.9942 8.77327 11.6933 8.74185 11.4203 8.6261C11.1474 8.51035 10.9147 8.31549 10.7517 8.06622C10.5888 7.81695 10.503 7.52452 10.5051 7.226C10.5051 7.02861 10.5439 6.83318 10.6191 6.65095C10.6944 6.46873 10.8047 6.30332 10.9436 6.16426C11.0826 6.0252 11.2475 5.91523 11.4288 5.8407C11.6101 5.76617 11.8042 5.72855 12 5.73ZM12 18.6C11.3763 18.6 10.7666 18.4136 10.2481 18.0642C9.72948 17.7149 9.3253 17.2184 9.08663 16.6376C8.84795 16.0567 8.7855 15.4175 8.90718 14.8008C9.02885 14.1841 9.32919 13.6177 9.7702 13.1731C10.2112 12.7285 10.7731 12.4257 11.3848 12.3031C11.9965 12.1804 12.6305 12.2434 13.2068 12.484C13.783 12.7246 14.2755 13.1321 14.622 13.6548C14.9685 14.1776 15.1534 14.7923 15.1534 15.421C15.1534 16.2641 14.8212 17.0727 14.2298 17.6689C13.6384 18.2651 12.8363 18.6 12 18.6Z" fill="black"/>
</svg>
