<svg width="24" height="24" viewBox="0 0 24 24" fill="none" xmlns="http://www.w3.org/2000/svg">
<path d="M12 1C9.82441 1 7.69767 1.64514 5.88873 2.85383C4.07979 4.06253 2.66989 5.78049 1.83733 7.79048C1.00477 9.80047 0.78693 12.0122 1.21137 14.146C1.6358 16.2798 2.68345 18.2398 4.22183 19.7782C5.76021 21.3165 7.72022 22.3642 9.85401 22.7886C11.9878 23.2131 14.1995 22.9952 16.2095 22.1627C18.2195 21.3301 19.9375 19.9202 21.1462 18.1113C22.3549 16.3023 23 14.1756 23 12C23 10.5555 22.7155 9.12506 22.1627 7.79048C21.6099 6.4559 20.7996 5.24327 19.7782 4.22182C18.7567 3.20038 17.5441 2.39013 16.2095 1.83732C14.8749 1.28452 13.4445 1 12 1ZM15.773 16.631C15.6969 16.7419 15.5952 16.8328 15.4764 16.896C15.3577 16.9592 15.2255 16.9928 15.091 16.994C14.925 16.9903 14.764 16.9366 14.629 16.84C13.7619 16.2746 12.7782 15.9127 11.7515 15.7812C10.7247 15.6498 9.68154 15.7523 8.7 16.081C8.49954 16.1426 8.28313 16.1256 8.09478 16.0334C7.90642 15.9411 7.76026 15.7806 7.68601 15.5845C7.61176 15.3884 7.61499 15.1713 7.69505 14.9775C7.77511 14.7836 7.92599 14.6276 8.117 14.541C9.35259 14.1129 10.6703 13.9755 11.9676 14.1396C13.2649 14.3037 14.5069 14.7648 15.597 15.487C15.6842 15.5502 15.7579 15.63 15.814 15.7219C15.8701 15.8138 15.9074 15.9159 15.9238 16.0223C15.9401 16.1287 15.9352 16.2372 15.9094 16.3417C15.8835 16.4462 15.8371 16.5445 15.773 16.631ZM17.082 13.463C17.0076 13.5789 16.9049 13.674 16.7837 13.7394C16.6625 13.8048 16.5267 13.8384 16.389 13.837C16.2293 13.8358 16.0731 13.7901 15.938 13.705C14.8066 12.8889 13.4872 12.3722 12.1024 12.203C10.7177 12.0337 9.31267 12.2174 8.018 12.737C7.92141 12.7857 7.81608 12.8147 7.70817 12.8222C7.60026 12.8297 7.49194 12.8156 7.38952 12.7808C7.28711 12.746 7.19266 12.6911 7.1117 12.6194C7.03074 12.5476 6.96489 12.4605 6.918 12.363C6.82267 12.1674 6.80848 11.942 6.87853 11.736C6.94858 11.53 7.09719 11.36 7.292 11.263C8.84739 10.6184 10.5415 10.3811 12.2141 10.5736C13.8868 10.766 15.4827 11.3819 16.851 12.363C17.0193 12.4848 17.1362 12.665 17.179 12.8684C17.2217 13.0717 17.1871 13.2837 17.082 13.463ZM18.479 10.669C18.4022 10.7637 18.3048 10.8397 18.1943 10.8911C18.0837 10.9426 17.9629 10.9682 17.841 10.966C17.6519 10.9674 17.4685 10.9011 17.324 10.779C12.517 6.874 6.324 9.393 6.247 9.426C6.14661 9.46789 6.03894 9.4896 5.93016 9.48988C5.82137 9.49016 5.7136 9.46902 5.61299 9.42765C5.51237 9.38628 5.4209 9.3255 5.34377 9.24878C5.26665 9.17205 5.2054 9.08089 5.1635 8.9805C5.12161 8.8801 5.09991 8.77244 5.09962 8.66365C5.09934 8.55487 5.12048 8.44709 5.16185 8.34648C5.20322 8.24587 5.264 8.15439 5.34072 8.07727C5.41745 8.00015 5.50861 7.93889 5.609 7.897C5.895 7.776 12.781 4.96 18.369 9.503C18.4531 9.57209 18.5228 9.65715 18.5739 9.75328C18.625 9.84941 18.6566 9.9547 18.6668 10.0631C18.677 10.1715 18.6657 10.2808 18.6335 10.3848C18.6012 10.4888 18.5487 10.5854 18.479 10.669Z" fill="black"/>
</svg>
