<svg width="24" height="24" viewBox="0 0 24 24" fill="none" xmlns="http://www.w3.org/2000/svg">
<path d="M23 11.6464C22.9098 8.88924 21.7869 6.2666 19.854 4.29841L20.173 3.86941C20.2662 3.73975 20.393 3.6379 20.5397 3.57479C20.6864 3.51168 20.8475 3.48969 21.0058 3.51117C21.164 3.53264 21.3135 3.59678 21.438 3.69671C21.5626 3.79664 21.6577 3.92859 21.713 4.07841C22.5997 6.50153 23.0359 9.06637 23 11.6464ZM23 11.6464C22.769 16.2884 19.986 20.7104 9.65699 19.4564C9.5839 19.4426 9.51791 19.4038 9.47043 19.3465C9.42295 19.2893 9.39697 19.2173 9.39697 19.1429C9.39697 19.0685 9.42295 18.9965 9.47043 18.9392C9.51791 18.882 9.5839 18.8431 9.65699 18.8294C12.418 18.0484 17.874 15.8044 19.557 9.9414C18.4332 12.5356 16.4859 14.6871 14.0162 16.0631C11.5466 17.4391 8.69229 17.9629 5.89499 17.5534C5.59545 17.5118 5.31615 17.3784 5.09552 17.1716C4.8749 16.9648 4.72379 16.6946 4.663 16.3984C4.146 14.1984 3.662 9.0064 9.72299 8.1594C15.784 7.31241 18.204 6.36641 19.854 4.29841C18.0689 2.478 15.7069 1.33421 13.1718 1.06261C10.6367 0.791011 8.08596 1.40847 5.95575 2.80941C3.82554 4.21036 2.24813 6.30778 1.49323 8.74306C0.738327 11.1783 0.85282 13.8002 1.81713 16.1604C2.78144 18.5206 4.53568 20.4726 6.77991 21.6825C9.02413 22.8924 11.619 23.2852 14.1207 22.7936C16.6225 22.3021 18.8758 20.9567 20.4954 18.9876C22.115 17.0185 23.0003 14.548 23 11.9984C23 11.9104 23 11.7784 23 11.6464Z" fill="black"/>
</svg>
