<svg width="24" height="24" viewBox="0 0 24 24" fill="none" xmlns="http://www.w3.org/2000/svg">
<path d="M16.5043 1.25H7.49575C5.83927 1.25 4.25064 1.90803 3.07934 3.07934C1.90803 4.25064 1.25 5.83927 1.25 7.49575V16.5043C1.25 18.1607 1.90803 19.7494 3.07934 20.9207C4.25064 22.092 5.83927 22.75 7.49575 22.75H16.5043C18.1607 22.75 19.7494 22.092 20.9207 20.9207C22.092 19.7494 22.75 18.1607 22.75 16.5043V7.49575C22.75 5.83927 22.092 4.25064 20.9207 3.07934C19.7494 1.90803 18.1607 1.25 16.5043 1.25ZM8.775 16.1065C8.88129 16.2798 8.91819 16.4868 8.87832 16.6862C8.83846 16.8855 8.72476 17.0624 8.56 17.1815C8.4248 17.2678 8.26883 17.3161 8.1085 17.3213C7.97573 17.3208 7.84519 17.2871 7.72877 17.2233C7.61235 17.1594 7.51377 17.0675 7.442 16.9558L4.432 12.5053C4.3455 12.3725 4.29944 12.2175 4.29944 12.0591C4.29944 11.9007 4.3455 11.7457 4.432 11.613L7.3775 7.012C7.49173 6.84191 7.66643 6.72169 7.8661 6.67577C8.06577 6.62984 8.27544 6.66166 8.4525 6.76475C8.62057 6.88064 8.73917 7.05526 8.78493 7.25422C8.83069 7.45319 8.8003 7.66207 8.69975 7.83975L6.01225 12.086L8.775 16.1065ZM14.0103 7.6355L11.8065 16.7408C11.7607 16.935 11.6463 17.1061 11.4843 17.2226C11.3223 17.3392 11.1237 17.3933 10.925 17.375C10.8609 17.3853 10.7956 17.3853 10.7315 17.375C10.6287 17.3511 10.5318 17.3069 10.4462 17.2451C10.3607 17.1833 10.2883 17.1051 10.2333 17.0151C10.1782 16.925 10.1417 16.8249 10.1257 16.7206C10.1097 16.6163 10.1147 16.5099 10.1403 16.4075L12.2903 7.30225C12.3401 7.09412 12.4707 6.91434 12.6531 6.80245C12.8356 6.69056 13.055 6.65573 13.2631 6.70563C13.4713 6.75552 13.651 6.88605 13.7629 7.0685C13.8748 7.25095 13.9096 7.47037 13.8597 7.6785L14.0103 7.6355ZM19.6755 12.5483L16.6655 16.9988C16.5937 17.1105 16.4951 17.2024 16.3787 17.2663C16.2623 17.3301 16.1318 17.3638 15.999 17.3643C15.8387 17.3591 15.6827 17.3108 15.5475 17.2245C15.3827 17.1054 15.269 16.9285 15.2292 16.7292C15.1893 16.5298 15.2262 16.3228 15.3325 16.1495L18.0415 12.129L15.225 7.88275C15.1258 7.70573 15.0951 7.49843 15.1387 7.30025C15.1823 7.10206 15.2972 6.9268 15.4615 6.80775C15.6392 6.7072 15.8481 6.67681 16.047 6.72257C16.246 6.76833 16.4206 6.88693 16.5365 7.055L19.5465 11.699C19.636 11.8199 19.6904 11.9632 19.7037 12.113C19.717 12.2629 19.6886 12.4135 19.6218 12.5483H19.6755Z" fill="black"/>
</svg>
