<svg width="24" height="24" viewBox="0 0 24 24" fill="none" xmlns="http://www.w3.org/2000/svg">
<path d="M16.3538 1.25H7.7C5.98935 1.25 4.34877 1.92955 3.13916 3.13916C1.92955 4.34877 1.25 5.98935 1.25 7.7V16.4075C1.2782 18.0994 1.97019 19.7125 3.17675 20.899C4.38332 22.0855 6.00782 22.7502 7.7 22.75H16.4075C18.0902 22.722 19.6953 22.0375 20.8803 20.8424C22.0652 19.6474 22.7362 18.0366 22.75 16.3538V7.7C22.7501 5.99863 22.0779 4.36614 20.8799 3.15806C19.6819 1.94998 18.0551 1.26418 16.3538 1.25ZM4.604 12.5375H12.4623C12.6761 12.5375 12.8812 12.6224 13.0324 12.7736C13.1836 12.9248 13.2685 13.1299 13.2685 13.3438C13.2685 13.5576 13.1836 13.7627 13.0324 13.9139C12.8812 14.0651 12.6761 14.15 12.4623 14.15H4.604C4.39017 14.15 4.1851 14.0651 4.0339 13.9139C3.88269 13.7627 3.79775 13.5576 3.79775 13.3438C3.79775 13.1299 3.88269 12.9248 4.0339 12.7736C4.1851 12.6224 4.39017 12.5375 4.604 12.5375ZM8.05475 17.9125H4.604C4.39017 17.9125 4.1851 17.8276 4.0339 17.6764C3.88269 17.5252 3.79775 17.3201 3.79775 17.1063C3.79775 16.8924 3.88269 16.6873 4.0339 16.5361C4.1851 16.3849 4.39017 16.3 4.604 16.3H8.05475C8.26858 16.3 8.47365 16.3849 8.62485 16.5361C8.77606 16.6873 8.861 16.8924 8.861 17.1063C8.861 17.3201 8.77606 17.5252 8.62485 17.6764C8.47365 17.8276 8.26858 17.9125 8.05475 17.9125ZM19.396 17.9125H11.5378C11.3239 17.9125 11.1188 17.8276 10.9676 17.6764C10.8164 17.5252 10.7315 17.3201 10.7315 17.1063C10.7315 16.8924 10.8164 16.6873 10.9676 16.5361C11.1188 16.3849 11.3239 16.3 11.5378 16.3H19.396C19.6098 16.3 19.8149 16.3849 19.9661 16.5361C20.1173 16.6873 20.2022 16.8924 20.2022 17.1063C20.2022 17.3201 20.1173 17.5252 19.9661 17.6764C19.8149 17.8276 19.6098 17.9125 19.396 17.9125ZM19.396 14.1393H15.9453C15.7314 14.1393 15.5263 14.0543 15.3751 13.9031C15.2239 13.7519 15.139 13.5468 15.139 13.333C15.139 13.1192 15.2239 12.9141 15.3751 12.7629C15.5263 12.6117 15.7314 12.5268 15.9453 12.5268H19.396C19.6098 12.5268 19.8149 12.6117 19.9661 12.7629C20.1173 12.9141 20.2022 13.1192 20.2022 13.333C20.2022 13.5468 20.1173 13.7519 19.9661 13.9031C19.8149 14.0543 19.6098 14.1393 19.396 14.1393Z" fill="black"/>
</svg>
