<svg width="24" height="24" viewBox="0 0 24 24" fill="none" xmlns="http://www.w3.org/2000/svg">
<path d="M3.38406 7.69616C3.61227 7.68723 3.83904 7.736 4.04331 7.83795C4.24759 7.9399 4.42274 8.09172 4.55251 8.27932L6.69077 11.4167C6.74414 11.5762 6.78324 11.7401 6.80761 11.9066C6.80948 12.1105 6.74827 12.3101 6.63234 12.478C6.63234 12.478 5.8378 13.4111 5.59242 13.6444C5.5221 13.7049 5.47453 13.7876 5.45754 13.8788C5.44055 13.9699 5.45516 14.0641 5.49895 14.1459C6.64223 15.8815 8.12457 17.3691 9.85726 18.5196C9.94571 18.5646 10.0467 18.5787 10.1441 18.5596C10.2416 18.5406 10.3298 18.4895 10.3947 18.4146C10.7661 18.0488 11.1561 17.7023 11.5632 17.3766C11.7217 17.2854 11.8994 17.2326 12.082 17.2224C12.2647 17.2123 12.4472 17.2451 12.6148 17.3183L15.7813 19.4759C15.9447 19.6331 16.0934 19.8048 16.2253 19.9891C16.3473 20.5711 16.2668 21.1773 15.9969 21.7074C15.7271 22.2376 15.2842 22.66 14.7414 22.9049C12.942 23.9546 11.236 23.5697 8.64207 22.1118C5.66068 20.3327 3.20841 17.7923 1.53791 14.7524C-0.00443733 11.7316 0.264305 9.79552 1.73655 8.43094C2.1756 7.99079 2.76267 7.72896 3.38406 7.69616ZM17.7092 10.332V8.82748L16.6226 10.332H17.7092ZM13.7482 0.5C11.7512 0.500758 9.79884 1.08998 8.13595 2.19378C6.47307 3.29758 5.17364 4.86684 4.40061 6.70479C4.86221 6.90782 5.26435 7.22493 5.56906 7.62618L7.69563 10.7636L7.77742 10.8919L7.83584 11.0435C7.911 11.2794 7.96572 11.5213 7.99943 11.7666C8.03428 12.2651 7.89378 12.76 7.60215 13.1662C7.60215 13.2362 7.20488 13.6444 6.90109 13.9943C7.79904 15.1908 8.86557 16.2514 10.0676 17.1433C10.3537 16.871 10.654 16.6141 10.9673 16.3735C11.3079 16.1285 11.7159 15.9942 12.1357 15.9887C12.4767 15.9883 12.8143 16.0557 13.1289 16.1869H13.2341L13.3159 16.2452L16.4824 18.4146H16.5525V18.4729C16.7902 18.693 17.0018 18.9396 17.1834 19.2077C17.3004 19.4084 17.3759 19.6305 17.4054 19.8608C19.5115 18.9496 21.2446 17.3507 22.3202 15.3267C23.3958 13.3026 23.7501 10.9737 23.3248 8.72217C22.8995 6.47065 21.7199 4.43037 19.9797 2.93628C18.2395 1.4422 16.0421 0.58309 13.7482 0.5ZM13.8183 12.9446C13.8183 13.0281 13.7851 13.1082 13.7259 13.1672C13.6667 13.2263 13.5865 13.2595 13.5028 13.2595H9.61188C9.52821 13.2595 9.44797 13.2263 9.38881 13.1672C9.32964 13.1082 9.2964 13.0281 9.2964 12.9446V12.4431C9.29697 12.3598 9.33058 12.2801 9.38988 12.2215L10.0325 11.5916C11.5632 10.1338 12.1942 9.39898 12.1942 8.62921C12.2119 8.51025 12.2015 8.3888 12.1637 8.27459C12.1259 8.16037 12.0619 8.05659 11.9767 7.97154C11.8915 7.8865 11.7875 7.82256 11.6731 7.78487C11.5587 7.74717 11.437 7.73676 11.3178 7.75447C10.908 7.77161 10.5164 7.92798 10.2078 8.19767C10.1658 8.21742 10.1199 8.22767 10.0734 8.22767C10.027 8.22767 9.98108 8.21742 9.93905 8.19767C9.8915 8.19 9.8469 8.16971 9.8099 8.13894C9.7729 8.10816 9.74486 8.06802 9.72873 8.02273L9.47167 7.45123C9.44035 7.3891 9.43139 7.3181 9.44628 7.25015C9.46117 7.1822 9.49901 7.12142 9.55346 7.07801C10.095 6.6294 10.7777 6.38574 11.4814 6.38989C11.7688 6.36432 12.0583 6.4008 12.3302 6.49686C12.6022 6.59292 12.8503 6.74631 13.0576 6.94659C13.2649 7.14687 13.4266 7.38935 13.5316 7.65756C13.6367 7.92576 13.6826 8.2134 13.6664 8.50092C13.6664 9.76054 12.755 10.7636 11.5398 11.9299H13.5028C13.5865 11.9299 13.6667 11.9631 13.7259 12.0221C13.7851 12.0812 13.8183 12.1613 13.8183 12.2448V12.9446ZM19.9643 11.2884C19.9643 11.3719 19.9311 11.452 19.8719 11.5111C19.8128 11.5701 19.7325 11.6033 19.6488 11.6033H19.1114V12.9446C19.1114 13.0281 19.0781 13.1082 19.019 13.1672C18.9598 13.2263 18.8795 13.2595 18.7959 13.2595H18.0364C17.9527 13.2595 17.8725 13.2263 17.8133 13.1672C17.7541 13.1082 17.7209 13.0281 17.7209 12.9446V11.6033H15.1854C15.1037 11.6003 15.0265 11.5658 14.9698 11.5071C14.9132 11.4483 14.8815 11.3699 14.8816 11.2884V10.7519C14.864 10.6909 14.864 10.6263 14.8816 10.5653L17.6041 6.68147C17.6337 6.64129 17.6724 6.60871 17.7171 6.5864C17.7618 6.5641 17.8112 6.55271 17.8611 6.55317H18.7491C18.8328 6.55317 18.9131 6.58635 18.9722 6.6454C19.0314 6.70446 19.0646 6.78456 19.0646 6.86808V10.367H19.6021C19.6858 10.367 19.766 10.4002 19.8252 10.4593C19.8843 10.5183 19.9176 10.5984 19.9176 10.6819L19.9643 11.2884Z" fill="black"/>
</svg>
