<svg width="24" height="24" viewBox="0 0 24 24" fill="none" xmlns="http://www.w3.org/2000/svg">
<path d="M18.3232 10.9632H5.89796C4.65759 10.9632 3.46802 10.4704 2.59095 9.59335C1.71388 8.71628 1.22114 7.52671 1.22114 6.28634C1.22667 5.04864 1.72151 3.86336 2.59768 2.98914C3.47386 2.11493 4.66024 1.62275 5.89796 1.62H18.3232C19.5609 1.62275 20.7473 2.11493 21.6235 2.98914C22.4996 3.86336 22.9945 5.04864 23 6.28634C23 6.90051 22.879 7.50867 22.644 8.07608C22.409 8.6435 22.0645 9.15907 21.6302 9.59335C21.1959 10.0276 20.6803 10.3721 20.1129 10.6072C19.5455 10.8422 18.9374 10.9632 18.3232 10.9632ZM15.7494 6.28634C15.7494 6.79954 15.9016 7.3012 16.1867 7.7279C16.4718 8.15461 16.877 8.48718 17.3511 8.68357C17.8253 8.87996 18.347 8.93135 18.8503 8.83123C19.3537 8.73111 19.816 8.48398 20.1789 8.1211C20.5418 7.75822 20.7889 7.29588 20.889 6.79255C20.9891 6.28922 20.9377 5.76751 20.7413 5.29338C20.545 4.81925 20.2124 4.41401 19.7857 4.1289C19.359 3.84378 18.8573 3.6916 18.3441 3.6916C17.6559 3.6916 16.996 3.96498 16.5094 4.45159C16.0227 4.93819 15.7494 5.59818 15.7494 6.28634ZM18.3441 14.5205C19.1904 14.5205 20.0021 14.8567 20.6006 15.4551C21.199 16.0536 21.5352 16.8652 21.5352 17.7116C21.5352 18.5579 21.199 19.3696 20.6006 19.968C20.0021 20.5665 19.1904 20.9027 18.3441 20.9027H5.89796C5.05162 20.9027 4.23995 20.5665 3.6415 19.968C3.04305 19.3696 2.70684 18.5579 2.70684 17.7116C2.70684 16.8652 3.04305 16.0536 3.6415 15.4551C4.23995 14.8567 5.05162 14.5205 5.89796 14.5205H18.3232M18.3232 13.0348H5.89796C5.26588 13.0048 4.6343 13.1035 4.04146 13.3248C3.44862 13.546 2.90684 13.8853 2.44894 14.3221C1.99103 14.7588 1.62652 15.2839 1.37747 15.8656C1.12841 16.4473 1 17.0736 1 17.7063C1 18.3391 1.12841 18.9653 1.37747 19.5471C1.62652 20.1288 1.99103 20.6539 2.44894 21.0906C2.90684 21.5274 3.44862 21.8666 4.04146 22.0879C4.6343 22.3092 5.26588 22.4078 5.89796 22.3779H18.3232C19.5239 22.3211 20.6567 21.8041 21.4863 20.9342C22.316 20.0644 22.7789 18.9084 22.7789 17.7063C22.7789 16.5043 22.316 15.3483 21.4863 14.4785C20.6567 13.6086 19.5239 13.0916 18.3232 13.0348ZM4.18208 17.8685C4.16958 18.2848 4.28161 18.6954 4.50381 19.0477C4.72601 19.3999 5.04829 19.6779 5.42938 19.8459C5.81047 20.014 6.23304 20.0645 6.643 19.991C7.05296 19.9175 7.43165 19.7233 7.73061 19.4333C8.02957 19.1433 8.23519 18.7707 8.32115 18.3632C8.40711 17.9556 8.3695 17.5317 8.21314 17.1457C8.05677 16.7597 7.78876 16.4291 7.44342 16.1962C7.09808 15.9634 6.69111 15.8389 6.27461 15.8388C5.73034 15.8385 5.2074 16.0503 4.81673 16.4293C4.42606 16.8082 4.19841 17.3245 4.18208 17.8685Z" fill="black"/>
</svg>
