<svg width="24" height="24" viewBox="0 0 24 24" fill="none" xmlns="http://www.w3.org/2000/svg">
<path d="M16.2705 2.04762H13.2743C13.2743 1.76977 13.3847 1.50331 13.5811 1.30684C13.7776 1.11037 14.0441 1 14.3219 1H18.0934C18.2354 0.999823 18.3761 1.02855 18.5067 1.08445C18.6374 1.14034 18.7553 1.22223 18.8533 1.32512C18.9513 1.42802 19.0273 1.54978 19.0768 1.68299C19.1262 1.8162 19.1481 1.95808 19.141 2.1V2.77048C18.2601 2.29201 17.2729 2.04339 16.2705 2.04762ZM22.4724 8.33333V16.7143C22.4726 18.3634 21.8248 19.9465 20.6686 21.1223C19.5123 22.2982 17.9403 22.9725 16.2914 23H7.72192C6.06942 22.978 4.49207 22.306 3.33133 21.1296C2.1706 19.9532 1.51987 18.3669 1.52002 16.7143V8.33333C1.51987 6.68068 2.1706 5.09445 3.33133 3.91803C4.49207 2.74161 6.06942 2.06966 7.72192 2.04762H13.2743V7.95619C13.2734 8.10402 13.3038 8.25037 13.3635 8.38562C13.4232 8.52086 13.5109 8.64194 13.6207 8.74089C13.7305 8.83984 13.8601 8.91443 14.0008 8.95974C14.1415 9.00506 14.2902 9.02008 14.4372 9.00381C14.6127 8.98265 14.7811 8.92174 14.9295 8.82572L15.5476 8.32286C15.7243 8.17634 15.9467 8.09616 16.1762 8.09616C16.4058 8.09616 16.6281 8.17634 16.8048 8.32286L17.4124 8.82572C17.5289 8.90696 17.6606 8.96368 17.7997 8.99242C17.9388 9.02116 18.0822 9.02133 18.2214 8.99292C18.3605 8.9645 18.4924 8.9081 18.6091 8.82713C18.7257 8.74616 18.8247 8.64231 18.9 8.52191C18.9946 8.36513 19.0553 8.19025 19.0781 8.00857V2.77048C20.09 3.30361 20.9393 4.09977 21.5367 5.07508C22.134 6.0504 22.4573 7.16877 22.4724 8.31238V8.33333ZM7.04097 12.5238C7.03815 12.7388 7.12013 12.9462 7.26916 13.1011C7.4182 13.256 7.62227 13.3459 7.83716 13.3514H13.18C13.3821 13.3286 13.5688 13.2321 13.7043 13.0804C13.8398 12.9287 13.9147 12.7324 13.9147 12.529C13.9147 12.3256 13.8398 12.1294 13.7043 11.9777C13.5688 11.826 13.3821 11.7295 13.18 11.7067H7.80573C7.60179 11.7197 7.41013 11.8087 7.26857 11.9561C7.127 12.1035 7.0458 12.2986 7.04097 12.5029V12.5238ZM16.3648 16.7143C16.3676 16.6075 16.3491 16.5012 16.3105 16.4016C16.2718 16.302 16.2138 16.211 16.1397 16.134C16.0656 16.057 15.977 15.9955 15.879 15.953C15.7809 15.9106 15.6754 15.888 15.5686 15.8867H7.10383C6.90172 15.9095 6.71509 16.006 6.57959 16.1577C6.44408 16.3094 6.36918 16.5056 6.36918 16.709C6.36918 16.9124 6.44408 17.1087 6.57959 17.2604C6.71509 17.4121 6.90172 17.5086 7.10383 17.5314H15.5686C15.6791 17.5303 15.7883 17.5065 15.8893 17.4615C15.9902 17.4164 16.0808 17.3511 16.1555 17.2696C16.2302 17.188 16.2873 17.092 16.3233 16.9875C16.3593 16.8829 16.3734 16.7721 16.3648 16.6619V16.7143Z" fill="black"/>
</svg>
