<svg width="24" height="24" viewBox="0 0 24 24" fill="none" xmlns="http://www.w3.org/2000/svg">
<path d="M16.555 1.875V3C16.555 3.29837 16.4365 3.58452 16.2255 3.7955C16.0145 4.00647 15.7283 4.125 15.43 4.125H9.06248C8.76411 4.125 8.47796 4.00647 8.26698 3.7955C8.05601 3.58452 7.93748 3.29837 7.93748 3V1.875C7.93748 1.57663 8.05601 1.29048 8.26698 1.0795C8.47796 0.868526 8.76411 0.75 9.06248 0.75H15.4525C15.7469 0.75589 16.0273 0.877012 16.2335 1.08736C16.4396 1.2977 16.555 1.58049 16.555 1.875ZM17.68 2.82V3C17.68 3.59674 17.4429 4.16903 17.021 4.59099C16.599 5.01295 16.0267 5.25 15.43 5.25H9.06248C8.46574 5.25 7.89345 5.01295 7.47149 4.59099C7.04953 4.16903 6.81248 3.59674 6.81248 3V2.7075C5.33719 2.91333 3.98567 3.64445 3.0061 4.76662C2.02652 5.88879 1.48465 7.32668 1.47998 8.81625V17.0513C1.47998 18.6953 2.13306 20.2719 3.29555 21.4344C4.45804 22.5969 6.03472 23.25 7.67873 23.25H16.3187C17.9627 23.25 19.5394 22.5969 20.7019 21.4344C21.8644 20.2719 22.5175 18.6953 22.5175 17.0513V8.81625C22.5159 7.41793 22.0415 6.06122 21.1715 4.96653C20.3015 3.87184 19.0868 3.10347 17.725 2.78625L17.68 2.82ZM15.655 16.3875C15.5192 16.5473 15.3287 16.6509 15.1207 16.6779C14.9127 16.705 14.7021 16.6536 14.53 16.5338L9.82748 12.9V15.6562C9.82748 15.88 9.73859 16.0946 9.58035 16.2529C9.42212 16.4111 9.20751 16.5 8.98373 16.5C8.75995 16.5 8.54534 16.4111 8.38711 16.2529C8.22888 16.0946 8.13998 15.88 8.13998 15.6562V11.1562C8.14224 10.9965 8.18862 10.8406 8.27399 10.7055C8.35937 10.5705 8.4804 10.4618 8.62373 10.3912L8.79248 10.3238L13.0112 9.3C13.0783 9.28888 13.1467 9.28888 13.2137 9.3C13.4133 9.30982 13.603 9.39018 13.7489 9.52676C13.8948 9.66334 13.9875 9.84727 14.0104 10.0458C14.0334 10.2443 13.9851 10.4446 13.8742 10.6108C13.7634 10.7771 13.5971 10.8986 13.405 10.9537L10.8737 11.55L15.5425 15.1725C15.7198 15.3084 15.8359 15.5091 15.8654 15.7306C15.895 15.952 15.8355 16.1761 15.7 16.3538L15.655 16.3875Z" fill="black"/>
</svg>
