<svg width="24" height="24" viewBox="0 0 24 24" fill="none" xmlns="http://www.w3.org/2000/svg">
<path d="M8.08494 3.01815V1.88407C8.08442 1.59472 8.19452 1.31612 8.3927 1.10529C8.59087 0.894464 8.86214 0.76736 9.15097 0.75H15.3997C15.6865 0.770125 15.955 0.898435 16.1508 1.10897C16.3466 1.31951 16.4551 1.59656 16.4544 1.88407V3.01815C16.4551 3.30566 16.3466 3.58271 16.1508 3.79324C15.955 4.00378 15.6865 4.13209 15.3997 4.15222H9.15097C8.86214 4.13486 8.59087 4.00775 8.3927 3.79693C8.19452 3.5861 8.08442 3.30749 8.08494 3.01815ZM22.2041 8.85862V17.0466C22.2177 17.8479 22.0732 18.644 21.779 19.3894C21.4848 20.1348 21.0466 20.815 20.4895 21.391C19.9324 21.9671 19.2673 22.4278 18.5321 22.7467C17.797 23.0657 17.0062 23.2367 16.2049 23.25H7.81276C6.19654 23.2291 4.65467 22.5677 3.52563 21.411C2.3966 20.2543 1.77268 18.6969 1.79084 17.0806V8.89264C1.76703 7.41858 2.27578 5.98539 3.22367 4.85626C4.17156 3.72713 5.49496 2.97783 6.95087 2.74597V3.01815C6.9506 3.60809 7.1802 4.17492 7.59096 4.59838C8.00171 5.02184 8.56129 5.26859 9.15097 5.28629H15.3997C15.9874 5.26571 16.5441 5.01769 16.9525 4.59454C17.3608 4.17139 17.5888 3.60619 17.5885 3.01815V2.82535C18.9206 3.17194 20.0986 3.95408 20.935 5.04735C21.7714 6.14061 22.2181 7.48218 22.2041 8.85862ZM8.42516 13.2021L11.1243 16.5363C11.2028 16.6318 11.3015 16.7088 11.4132 16.7617C11.525 16.8146 11.647 16.8422 11.7707 16.8425C11.8994 16.8416 12.026 16.8104 12.1403 16.7512C12.2547 16.6921 12.3534 16.6068 12.4284 16.5023L16.1255 11.5237C16.2348 11.3464 16.2798 11.137 16.253 10.9305C16.2261 10.724 16.1291 10.533 15.9781 10.3896C15.8027 10.2688 15.588 10.2192 15.3775 10.2508C15.1669 10.2823 14.9762 10.3928 14.844 10.5597L11.782 14.6764L9.72935 12.1361C9.5924 11.9744 9.39938 11.8706 9.18903 11.8453C8.97869 11.8201 8.76658 11.8753 8.59527 12C8.4212 12.1424 8.30706 12.3451 8.27555 12.5679C8.24403 12.7906 8.29744 13.017 8.42516 13.2021Z" fill="black"/>
</svg>
