<svg width="24" height="24" viewBox="0 0 24 24" fill="none" xmlns="http://www.w3.org/2000/svg">
<path d="M7.99485 2.81855V1.65927C7.99431 1.3635 8.10686 1.0787 8.30944 0.863187C8.51202 0.647675 8.78932 0.517746 9.08457 0.5H15.4722C15.7653 0.520572 16.0398 0.651734 16.2399 0.86695C16.4401 1.08217 16.551 1.36537 16.5503 1.65927V2.81855C16.551 3.11245 16.4401 3.39566 16.2399 3.61087C16.0398 3.82609 15.7653 3.95725 15.4722 3.97782H9.08457C8.78932 3.96008 8.51202 3.83015 8.30944 3.61464C8.10686 3.39912 7.99431 3.11433 7.99485 2.81855ZM22.4278 8.78881V17.1588C22.4416 17.9778 22.294 18.7916 21.9932 19.5536C21.6925 20.3156 21.2446 21.0109 20.6751 21.5997C20.1056 22.1886 19.4257 22.6595 18.6742 22.9855C17.9227 23.3116 17.1143 23.4864 16.2953 23.5H7.71662C6.06448 23.4786 4.48834 22.8025 3.33422 21.6201C2.1801 20.4377 1.54231 18.8457 1.56088 17.1935V8.82359C1.53654 7.31677 2.05659 5.85174 3.02555 4.69751C3.9945 3.54329 5.34731 2.77734 6.83557 2.54032V2.81855C6.8353 3.4216 7.07001 4.00103 7.48989 4.4339C7.90977 4.86677 8.48178 5.11901 9.08457 5.1371H15.4722C16.0729 5.11606 16.642 4.86253 17.0594 4.42997C17.4768 3.99742 17.7099 3.41966 17.7096 2.81855V2.62147C19.0713 2.97576 20.2755 3.77529 21.1305 4.89284C21.9854 6.0104 22.4421 7.38179 22.4278 8.78881ZM16.075 16.0691L16.0054 11.3624C16.0054 11.2442 15.982 11.1272 15.9364 11.0181C15.8908 10.909 15.824 10.8101 15.7399 10.7271C15.6558 10.644 15.556 10.5785 15.4464 10.5344C15.3367 10.4902 15.2194 10.4682 15.1012 10.4698C14.8623 10.4758 14.6353 10.575 14.4685 10.7461C14.3018 10.9172 14.2085 11.1467 14.2086 11.3856V14.2258L9.33961 10.4698C9.15052 10.316 8.90811 10.2437 8.6657 10.2687C8.42329 10.2937 8.20074 10.414 8.04702 10.6031C7.89329 10.7922 7.82097 11.0346 7.84597 11.277C7.87097 11.5194 7.99124 11.7419 8.18033 11.8957L12.9681 15.6053L10.4757 16.1154C10.2416 16.1682 10.0376 16.3107 9.90757 16.5123C9.77749 16.7139 9.73173 16.9585 9.78013 17.1935C9.82055 17.3971 9.93062 17.5802 10.0914 17.7114C10.2522 17.8425 10.4537 17.9136 10.6612 17.9123H10.8467L15.2635 16.9965L15.391 16.9385H15.4954C15.6038 16.8773 15.7016 16.799 15.7852 16.7067C15.8332 16.6303 15.8721 16.5486 15.9011 16.4632C15.9011 16.4632 15.9011 16.3821 15.9011 16.3357C15.9011 16.2893 16.075 16.127 16.075 16.0691Z" fill="black"/>
</svg>
