<svg width="24" height="24" viewBox="0 0 24 24" fill="none" xmlns="http://www.w3.org/2000/svg">
<path d="M8.10948 3.00904V1.87952C8.10877 1.59316 8.21686 1.31722 8.41188 1.10753C8.60689 0.897839 8.87427 0.770044 9.15993 0.75H15.3949C15.6805 0.770044 15.9479 0.897839 16.1429 1.10753C16.3379 1.31722 16.446 1.59316 16.4453 1.87952V3.00904C16.4545 3.15218 16.4346 3.2957 16.3868 3.43093C16.339 3.56616 16.2642 3.69031 16.1671 3.79587C16.07 3.90143 15.9525 3.98621 15.8217 4.04511C15.6909 4.10401 15.5496 4.1358 15.4062 4.13855H9.17122C8.88356 4.12126 8.61338 3.99467 8.41599 3.78469C8.21861 3.57471 8.10896 3.29722 8.10948 3.00904ZM22.172 8.85994V17.0377C22.1963 18.6518 21.582 20.2101 20.463 21.3736C19.3439 22.5371 17.8107 23.2115 16.1968 23.25H7.83839C6.22163 23.2203 4.68255 22.551 3.55834 21.3886C2.43414 20.2263 1.81647 18.6658 1.84065 17.0489V8.85994C1.81889 7.39406 2.32485 5.96922 3.26624 4.84536C4.20762 3.72151 5.52168 2.97355 6.96866 2.73795V3.00904C6.96866 3.60817 7.20667 4.18276 7.63032 4.60642C8.05397 5.03007 8.62857 5.26807 9.2277 5.26807H15.3949C15.9822 5.25044 16.5395 5.00468 16.9486 4.58292C17.3577 4.16117 17.5864 3.59661 17.5861 3.00904V2.82831C18.9118 3.17788 20.0828 3.95995 20.9135 5.05053C21.7442 6.14111 22.1871 7.47779 22.172 8.84864V8.85994ZM6.15541 12.0226C6.15236 12.2513 6.23957 12.4721 6.39813 12.637C6.5567 12.8019 6.77385 12.8977 7.00255 12.9036H12.1644C12.2781 12.9022 12.3904 12.8781 12.4948 12.8329C12.5991 12.7877 12.6934 12.7222 12.7722 12.6402C12.8511 12.5583 12.9128 12.4615 12.9539 12.3554C12.995 12.2494 13.0146 12.1363 13.0116 12.0226C13.0146 11.9095 12.9949 11.7969 12.9537 11.6915C12.9125 11.5861 12.8506 11.49 12.7716 11.4089C12.6926 11.3278 12.5982 11.2634 12.4939 11.2194C12.3897 11.1755 12.2776 11.1528 12.1644 11.1529H6.96866C6.74695 11.1645 6.53837 11.2616 6.38673 11.4238C6.23509 11.586 6.15218 11.8006 6.15541 12.0226ZM17.4506 16.0889C17.4506 15.8601 17.3605 15.6406 17.1999 15.4778C17.0392 15.315 16.8209 15.2221 16.5922 15.2191H6.96866C6.75363 15.2436 6.55513 15.3463 6.41101 15.5078C6.26689 15.6692 6.18723 15.8781 6.18723 16.0945C6.18723 16.3109 6.26689 16.5198 6.41101 16.6812C6.55513 16.8427 6.75363 16.9454 6.96866 16.9699H16.6486C16.8795 16.97 17.1015 16.8807 17.2679 16.7206C17.4343 16.5605 17.5322 16.3422 17.541 16.1114L17.4506 16.0889Z" fill="black"/>
</svg>
