<svg width="24" height="24" viewBox="0 0 24 24" fill="none" xmlns="http://www.w3.org/2000/svg">
<path d="M12.8031 3.4053V1.31024C12.8031 1.09535 12.7173 0.889264 12.5645 0.737314C12.4117 0.585365 12.2044 0.5 11.9883 0.5C11.7723 0.5 11.565 0.585365 11.4122 0.737314C11.2594 0.889264 11.1736 1.09535 11.1736 1.31024V3.4053C9.20302 3.56898 6.2885 4.45608 4.93949 5.8939C3.59048 7.33172 2.82782 9.21734 2.79999 11.1836V20.0268C2.79989 20.4888 2.89247 20.946 3.07231 21.3719C3.25214 21.7978 3.5156 22.1838 3.84728 22.5071C4.17896 22.8305 4.57218 23.0848 5.00392 23.2552C5.43566 23.4256 6.97296 23.5085 7.43736 23.4993H16.5626C17.027 23.5085 18.5643 23.4256 18.9961 23.2552C19.4278 23.0848 19.821 22.8305 20.1527 22.5071C20.4844 22.1838 20.7478 21.7978 20.9277 21.3719C21.1075 20.946 21.2001 20.4888 21.2 20.0268V11.1836C21.1716 9.21366 20.4057 7.32499 19.0519 5.88662C17.698 4.44824 14.7778 3.56351 12.8031 3.4053ZM11.1736 5.24571V6.22957C11.1736 6.44446 11.2594 6.65055 11.4122 6.8025C11.565 6.95445 11.7723 7.03981 11.9883 7.03981C12.2044 7.03981 12.4117 6.95445 12.5645 6.8025C12.7173 6.65055 12.8031 6.44446 12.8031 6.22957V5.24571C13.0801 5.38085 13.3138 5.58987 13.4782 5.84945C13.6426 6.10903 13.7313 6.40894 13.7343 6.71572C13.7343 7.17619 13.5503 7.61781 13.2229 7.94342C12.8955 8.26903 12.4514 8.45195 11.9883 8.45195C11.5253 8.45195 11.0812 8.26903 10.7538 7.94342C10.4264 7.61781 10.2424 7.17619 10.2424 6.71572C10.2441 6.40865 10.3322 6.10818 10.4967 5.84836C10.6613 5.58855 10.8958 5.37977 11.1736 5.24571ZM13.3152 19.9805V20.7098C13.3137 20.7751 13.2993 20.8396 13.2727 20.8994C13.2462 20.9592 13.208 21.0132 13.1605 21.0583C13.1129 21.1035 13.0569 21.1389 12.9955 21.1625C12.9342 21.1861 12.8688 21.1974 12.8031 21.1959H12.1047C12.0396 21.1974 11.9748 21.186 11.9141 21.1623C11.8534 21.1385 11.7982 21.103 11.7515 21.0577C11.7049 21.0124 11.6678 20.9583 11.6425 20.8985C11.6173 20.8388 11.6042 20.7746 11.6042 20.7098V20.0037C10.9319 19.8604 10.3072 19.5498 9.78851 19.1008C9.69949 19.0227 9.64212 18.915 9.62713 18.7978C9.61214 18.6807 9.64054 18.5621 9.70703 18.4642L10.161 17.8045C10.2028 17.75 10.2554 17.7045 10.3154 17.6706C10.3754 17.6368 10.4416 17.6154 10.5101 17.6077C10.6507 17.5889 10.7931 17.6264 10.9059 17.7119C11.3054 18.0855 11.8248 18.3069 12.3724 18.3369C13.0708 18.3369 13.1523 17.9897 13.1523 17.6771C13.1523 17.1447 12.71 16.89 11.9302 16.5196C11.1503 16.1493 9.91654 15.5358 9.91654 14.1005C9.91219 13.5942 10.0749 13.1004 10.3797 12.6948C10.6846 12.2892 11.1147 11.9942 11.6042 11.855V11.1142C11.6042 11.0493 11.6173 10.9852 11.6425 10.9254C11.6678 10.8657 11.7049 10.8116 11.7515 10.7663C11.7982 10.721 11.8534 10.6854 11.9141 10.6617C11.9748 10.6379 12.0396 10.6265 12.1047 10.628H12.8031C12.8688 10.6265 12.9342 10.6378 12.9955 10.6614C13.0569 10.6851 13.1129 10.7204 13.1605 10.7656C13.208 10.8107 13.2462 10.8648 13.2727 10.9246C13.2993 10.9844 13.3137 11.0488 13.3152 11.1142V11.8318C13.8898 11.9895 14.4094 12.3019 14.8167 12.7347C14.9002 12.8245 14.9465 12.9423 14.9465 13.0645C14.9465 13.1868 14.9002 13.3046 14.8167 13.3944L14.3046 13.9384C14.207 14.0327 14.0794 14.0901 13.9438 14.1005C13.8753 14.1053 13.8066 14.0955 13.7423 14.0715C13.678 14.0475 13.6197 14.01 13.5713 13.9616C13.4415 13.8073 13.2796 13.6829 13.0967 13.597C12.9138 13.511 12.7144 13.4656 12.5121 13.4639C12.4282 13.452 12.3426 13.4586 12.2615 13.4831C12.1803 13.5075 12.1055 13.5493 12.0423 13.6056C11.9791 13.6618 11.9291 13.7311 11.8956 13.8086C11.8622 13.8861 11.8461 13.9699 11.8487 14.0542C11.8487 14.4362 12.1862 14.6329 12.9544 14.9918C13.7226 15.3506 15.0961 15.9988 15.0961 17.6308C15.1191 18.1671 14.9542 18.6946 14.6293 19.1232C14.3045 19.5519 13.84 19.8549 13.3152 19.9805Z" fill="black"/>
</svg>
