<svg width="24" height="24" viewBox="0 0 24 24" fill="none" xmlns="http://www.w3.org/2000/svg">
<path d="M19.8233 14.6807V18.0742C19.8259 18.7998 19.6102 19.5094 19.2042 20.1108C18.7982 20.7122 18.2207 21.1776 17.5468 21.4465L13.4917 22.638C12.6315 22.9836 11.6711 22.9836 10.8109 22.638L6.51122 21.404C5.83046 21.1382 5.24583 20.6731 4.83392 20.0694C4.422 19.4658 4.20201 18.7518 4.20274 18.021V14.7339L9.24711 17.4253C10.0757 17.9828 11.0516 18.2806 12.0503 18.2806C13.0489 18.2806 15.0161 17.9828 15.8447 17.4253L19.8233 14.6807ZM21.4297 5.87228L14.6957 1.61702C14.1311 1.26209 12.4842 1.07913 11.8174 1.09046C11.1506 1.1018 10.5015 1.30693 9.94923 1.68085L2.51128 6.03185C2.04613 6.34417 1.66497 6.76614 1.40141 7.26056C1.13786 7.75497 1 8.30664 1 8.86692C1 9.42719 1.13786 9.97886 1.40141 10.4733C1.66497 10.9677 2.04613 11.3897 2.51128 11.702L10.1088 16.0955C10.674 16.4783 11.341 16.6829 12.0237 16.6829C12.7063 16.6829 14.3645 16.4783 14.9298 16.0955L21.3127 11.7339V15.0743C21.3127 15.2859 21.3967 15.4888 21.5464 15.6384C21.696 15.7881 21.8989 15.8721 22.1105 15.8721C22.3221 15.8721 22.5251 15.7881 22.6747 15.6384C22.8243 15.4888 22.9084 15.2859 22.9084 15.0743V9.5318C23.071 8.84379 23.0162 8.12225 22.7513 7.46676C22.4864 6.81127 22.0247 6.25415 21.4297 5.87228Z" fill="black"/>
</svg>
