<svg width="24" height="24" viewBox="0 0 24 24" fill="none" xmlns="http://www.w3.org/2000/svg">
<path d="M6.93376 8.44511C7.50422 9.00674 7.90173 9.72022 8.07914 10.501C7.04702 10.967 5.88417 11.0562 4.79309 10.7529C3.70201 10.4497 2.75184 9.7732 2.10803 8.84134C1.46422 7.90948 1.16757 6.78126 1.26974 5.65315C1.3719 4.52504 1.86641 3.46851 2.66715 2.66755C3.46789 1.86659 4.52412 1.37194 5.65191 1.26974C6.77971 1.16755 7.90761 1.46428 8.83921 2.10827C9.7708 2.75226 10.4471 3.7027 10.7502 4.79409C11.0534 5.88547 10.9643 7.04865 10.4984 8.08106C9.71784 7.90359 9.00457 7.50598 8.44309 6.93536L7.71519 6.19654C7.71519 6.19654 7.71519 6.19654 7.71519 6.11088C7.71519 5.79322 7.62102 5.48269 7.44458 5.21857C7.26815 4.95444 7.01738 4.74858 6.72398 4.62702C6.43058 4.50546 6.10774 4.47365 5.79627 4.53562C5.4848 4.59759 5.19869 4.75056 4.97414 4.97518C4.74958 5.1998 4.59665 5.48599 4.5347 5.79754C4.47274 6.1091 4.50454 6.43204 4.62607 6.72552C4.7476 7.019 4.9534 7.26984 5.21745 7.44632C5.48151 7.62281 5.79195 7.71701 6.10952 7.71701H6.19515L6.93376 8.44511ZM7.71519 17.8035C7.71519 17.8035 7.71519 17.8035 7.71519 17.8891C7.71519 18.2068 7.62102 18.5173 7.44458 18.7814C7.26815 19.0456 7.01738 19.2514 6.72398 19.373C6.43058 19.4945 6.10774 19.5264 5.79627 19.4644C5.4848 19.4024 5.19869 19.2494 4.97414 19.0248C4.74958 18.8002 4.59665 18.514 4.5347 18.2025C4.47274 17.8909 4.50454 17.568 4.62607 17.2745C4.7476 16.981 4.9534 16.7302 5.21745 16.5537C5.48151 16.3772 5.79195 16.283 6.10952 16.283H6.19515L6.93376 15.5442C7.50246 14.9855 7.89983 14.2759 8.07914 13.499C7.04702 13.033 5.88417 12.9438 4.79309 13.2471C3.70201 13.5503 2.75184 14.2268 2.10803 15.1587C1.46422 16.0905 1.16757 17.2187 1.26974 18.3468C1.3719 19.475 1.86641 20.5315 2.66715 21.3325C3.46789 22.1334 4.52412 22.6281 5.65191 22.7303C6.77971 22.8324 7.90761 22.5357 8.83921 21.8917C9.7708 21.2477 10.4471 20.2973 10.7502 19.2059C11.0534 18.1145 10.9643 16.9514 10.4984 15.9189C9.71784 16.0964 9.00457 16.494 8.44309 17.0646L7.71519 17.8035ZM16.2788 6.19654C16.2788 6.19654 16.2788 6.19654 16.2788 6.11088C16.2788 5.79322 16.3729 5.48269 16.5494 5.21857C16.7258 4.95444 16.9766 4.74858 17.27 4.62702C17.5634 4.50546 17.8862 4.47365 18.1977 4.53562C18.5092 4.59759 18.7953 4.75056 19.0198 4.97518C19.2444 5.1998 19.3973 5.48599 19.4593 5.79754C19.5212 6.1091 19.4894 6.43204 19.3679 6.72552C19.2464 7.019 19.0406 7.26984 18.7765 7.44632C18.5125 7.62281 18.202 7.71701 17.8844 7.71701H17.7988L17.0602 8.45582C16.4897 9.01745 16.0922 9.73093 15.9148 10.5117C16.946 10.979 18.1083 11.0698 19.1995 10.7684C20.2908 10.467 21.2418 9.79232 21.887 8.8619C22.5323 7.93148 22.831 6.80419 22.7311 5.67622C22.6312 4.54826 22.1391 3.49103 21.3404 2.68855C20.5417 1.88607 19.4869 1.38914 18.3597 1.28425C17.2325 1.17937 16.1043 1.47316 15.1713 2.1145C14.2383 2.75584 13.5596 3.70413 13.2535 4.79431C12.9473 5.88449 13.033 7.04755 13.4956 8.08106C14.2761 7.90359 14.9894 7.50598 15.5509 6.93536L16.2788 6.19654ZM17.8844 13.0707C17.2051 13.073 16.5338 13.2189 15.9148 13.499C16.0922 14.2798 16.4897 14.9933 17.0602 15.5549L17.7988 16.2937H17.8844C18.2025 16.2937 18.5133 16.3882 18.7776 16.5651C19.0419 16.7421 19.2477 16.9936 19.3689 17.2877C19.4901 17.5818 19.5213 17.9053 19.4584 18.2171C19.3956 18.529 19.2416 18.8151 19.016 19.0393C18.7904 19.2635 18.5033 19.4156 18.1911 19.4764C17.8789 19.5371 17.5557 19.5038 17.2625 19.3806C16.9693 19.2574 16.7193 19.0499 16.5442 18.7843C16.369 18.5188 16.2767 18.2072 16.2788 17.8891C16.2788 17.8891 16.2788 17.8356 16.2788 17.8035L15.5402 17.0646C14.9787 16.494 14.2654 16.0964 13.4849 15.9189C13.06 16.8675 12.9532 17.9281 13.1803 18.9424C13.4075 19.9567 13.9564 20.8703 14.7453 21.5469C15.5341 22.2235 16.5206 22.6268 17.5574 22.6966C18.5942 22.7664 19.6257 22.499 20.4981 21.9342C21.3705 21.3694 22.0369 20.5376 22.3979 19.5629C22.7588 18.5882 22.795 17.5229 22.5011 16.5259C22.2071 15.529 21.5987 14.6538 20.7666 14.0311C19.9346 13.4084 18.9236 13.0715 17.8844 13.0707ZM15.9148 13.499C15.8883 13.4039 15.8669 13.3074 15.8506 13.2099C15.7435 12.4069 15.7435 11.5931 15.8506 10.7901C15.8669 10.6926 15.8883 10.5961 15.9148 10.501C14.8407 10.0159 13.9805 9.15548 13.4956 8.08106L13.2066 8.1453C12.4037 8.25238 11.5902 8.25238 10.7874 8.1453L10.4984 8.08106C10.0135 9.15548 9.15326 10.0159 8.07914 10.501C8.10564 10.5961 8.12708 10.6926 8.14337 10.7901C8.25041 11.5931 8.25041 12.4069 8.14337 13.2099C8.12708 13.3074 8.10564 13.4039 8.07914 13.499C9.15326 13.9841 10.0135 14.8445 10.4984 15.9189L10.7874 15.8547C11.5902 15.7476 12.4037 15.7476 13.2066 15.8547L13.4956 15.9189C13.9805 14.8445 14.8407 13.9841 15.9148 13.499Z" fill="black"/>
</svg>
