<svg width="24" height="24" viewBox="0 0 24 24" fill="none" xmlns="http://www.w3.org/2000/svg">
<path d="M22.9307 13.5277H20.3727V10.4723H22.9307C23.1562 10.4467 23.3643 10.3389 23.5154 10.1697C23.6665 10.0004 23.75 9.78141 23.75 9.55451C23.75 9.3276 23.6665 9.10864 23.5154 8.93936C23.3643 8.77009 23.1562 8.66236 22.9307 8.63671H20.3727V7.10901C20.3602 6.20121 19.99 5.335 19.3425 4.69859C18.695 4.06218 17.8226 3.70699 16.9147 3.71019H15.3633V1.0693C15.3376 0.843848 15.2299 0.635726 15.0606 0.484621C14.8914 0.333516 14.6724 0.25 14.4455 0.25C14.2186 0.25 13.9996 0.333516 13.8303 0.484621C13.6611 0.635726 13.5533 0.843848 13.5277 1.0693V3.71019H10.4723V1.0693C10.4467 0.843848 10.3389 0.635726 10.1697 0.484621C10.0004 0.333516 9.78141 0.25 9.55451 0.25C9.3276 0.25 9.10864 0.333516 8.93936 0.484621C8.77009 0.635726 8.66236 0.843848 8.63671 1.0693V3.71019H7.08533C6.17744 3.70699 5.30497 4.06218 4.65747 4.69859C4.00997 5.335 3.63977 6.20121 3.6273 7.10901V8.63671H1.0693C0.843848 8.66236 0.635726 8.77009 0.484621 8.93936C0.333516 9.10864 0.25 9.3276 0.25 9.55451C0.25 9.78141 0.333516 10.0004 0.484621 10.1697C0.635726 10.3389 0.843848 10.4467 1.0693 10.4723H3.6273V13.5277H1.0693C0.843848 13.5533 0.635726 13.6611 0.484621 13.8303C0.333516 13.9996 0.25 14.2186 0.25 14.4455C0.25 14.6724 0.333516 14.8914 0.484621 15.0606C0.635726 15.2299 0.843848 15.3376 1.0693 15.3633H3.6273V16.9502C3.6273 17.8673 3.99162 18.7469 4.64013 19.3954C5.28864 20.0439 6.1682 20.4082 7.08533 20.4082H8.63671V22.9307C8.66236 23.1562 8.77009 23.3643 8.93936 23.5154C9.10864 23.6665 9.3276 23.75 9.55451 23.75C9.78141 23.75 10.0004 23.6665 10.1697 23.5154C10.3389 23.3643 10.4467 23.1562 10.4723 22.9307V20.4082H13.5277V22.9307C13.5533 23.1562 13.6611 23.3643 13.8303 23.5154C13.9996 23.6665 14.2186 23.75 14.4455 23.75C14.6724 23.75 14.8914 23.6665 15.0606 23.5154C15.2299 23.3643 15.3376 23.1562 15.3633 22.9307V20.4082H16.9147C17.8318 20.4082 18.7114 20.0439 19.3599 19.3954C20.0084 18.7469 20.3727 17.8673 20.3727 16.9502V15.3633H22.9307C23.1562 15.3376 23.3643 15.2299 23.5154 15.0606C23.6665 14.8914 23.75 14.6724 23.75 14.4455C23.75 14.2186 23.6665 13.9996 23.5154 13.8303C23.3643 13.6611 23.1562 13.5533 22.9307 13.5277ZM16.1567 14.5106C16.1568 14.7438 16.1103 14.9747 16.02 15.1897C15.9297 15.4047 15.7974 15.5995 15.6309 15.7627C15.4644 15.9259 15.2669 16.0543 15.0502 16.1403C14.8334 16.2262 14.6017 16.2681 14.3685 16.2633H9.38279C8.91794 16.2633 8.47214 16.0787 8.14344 15.75C7.81475 15.4213 7.63009 14.9755 7.63009 14.5106V9.48937C7.63009 9.2592 7.67542 9.03129 7.7635 8.81864C7.85159 8.606 7.98069 8.41278 8.14344 8.25003C8.3062 8.08727 8.49941 7.95817 8.71206 7.87009C8.92471 7.78201 9.15262 7.73667 9.38279 7.73667H14.3685C14.5987 7.73667 14.8266 7.78201 15.0392 7.87009C15.2519 7.95817 15.4451 8.08727 15.6079 8.25003C15.7706 8.41278 15.8997 8.606 15.9878 8.81864C16.0759 9.03129 16.1212 9.2592 16.1212 9.48937L16.1567 14.5106Z" fill="black"/>
</svg>
