<svg width="24" height="24" viewBox="0 0 24 24" fill="none" xmlns="http://www.w3.org/2000/svg">
<path d="M13.254 8.33012V6.79288H15.6789L19.0132 4.054C19.0079 3.97109 19.0079 3.88792 19.0132 3.80501C19.0132 3.31405 19.2082 2.84319 19.5554 2.49603C19.9026 2.14887 20.3734 1.95383 20.8644 1.95383C21.3553 1.95383 21.8262 2.14887 22.1734 2.49603C22.5205 2.84319 22.7156 3.31405 22.7156 3.80501C22.71 4.0448 22.657 4.28112 22.5597 4.50035C22.4624 4.71958 22.3227 4.9174 22.1486 5.08242C21.9745 5.24744 21.7695 5.37639 21.5454 5.46186C21.3213 5.54732 21.0825 5.58762 20.8427 5.58041C20.5129 5.57756 20.1891 5.49195 19.9009 5.33142L16.48 8.14608C16.3373 8.26538 16.1572 8.33055 15.9712 8.33012H13.254ZM7.31071 11.8484C7.3335 10.4865 7.89574 9.18924 8.87402 8.24141C9.85229 7.29357 11.1667 6.77262 12.5287 6.79288H13.254V1.25017H11.4353C11.2476 1.2473 11.0612 1.28143 10.8867 1.35061C10.7123 1.41979 10.5531 1.52266 10.4184 1.65335C10.2837 1.78403 10.1761 1.93998 10.1017 2.11227C10.0272 2.28456 9.98746 2.46983 9.98464 2.6575V3.88079C9.33471 4.05992 8.70661 4.31044 8.11181 4.62776L7.22411 3.77253C6.94778 3.5066 6.57918 3.35804 6.19567 3.35804C5.81217 3.35804 5.44357 3.5066 5.16724 3.77253L3.86817 5.02831C3.73292 5.15767 3.62527 5.31309 3.55173 5.4852C3.47819 5.6573 3.44028 5.84252 3.44028 6.02967C3.44028 6.21683 3.47819 6.40205 3.55173 6.57415C3.62527 6.74626 3.73292 6.90168 3.86817 7.03104L4.74504 7.88627C4.41651 8.45551 4.15841 9.06259 3.97642 9.69415H2.72065C2.34064 9.69125 1.9749 9.8387 1.70316 10.1044C1.43142 10.37 1.27572 10.7323 1.27002 11.1123V12.8877C1.27572 13.2677 1.43142 13.63 1.70316 13.8956C1.9749 14.1613 2.34064 14.3088 2.72065 14.3059H3.97642C4.15841 14.9374 4.41651 15.5445 4.74504 16.1137L3.86817 16.969C3.73292 17.0983 3.62527 17.2537 3.55173 17.4258C3.47819 17.5979 3.44028 17.7832 3.44028 17.9703C3.44028 18.1575 3.47819 18.3427 3.55173 18.5148C3.62527 18.6869 3.73292 18.8423 3.86817 18.9717L5.16724 20.2275C5.44357 20.4934 5.81217 20.642 6.19567 20.642C6.57918 20.642 6.94778 20.4934 7.22411 20.2275L8.11181 19.3722C8.70661 19.6896 9.33471 19.9401 9.98464 20.1192V21.3425C9.98746 21.5302 10.0272 21.7154 10.1017 21.8877C10.1761 22.06 10.2837 22.216 10.4184 22.3467C10.5531 22.4773 10.7123 22.5802 10.8867 22.6494C11.0612 22.7186 11.2476 22.7527 11.4353 22.7498H13.254V16.8932H12.5287C11.1685 16.9135 9.85575 16.394 8.87778 15.4485C7.89981 14.503 7.33633 13.2085 7.31071 11.8484ZM8.90208 11.8484C8.92761 12.7884 9.32267 13.6803 10.0016 14.3309C10.6805 14.9814 11.5885 15.3381 12.5287 15.3235H13.254V13.4831C13.0259 13.5016 12.7965 13.4726 12.5802 13.398C12.364 13.3235 12.1655 13.2049 11.9973 13.0498C11.8291 12.8947 11.6949 12.7064 11.6031 12.4969C11.5113 12.2873 11.4639 12.061 11.4639 11.8322C11.4639 11.6034 11.5113 11.3771 11.6031 11.1676C11.6949 10.958 11.8291 10.7697 11.9973 10.6146C12.1655 10.4595 12.364 10.3409 12.5802 10.2664C12.7965 10.1918 13.0259 10.1628 13.254 10.1813V8.33012H12.5287C12.0595 8.32296 11.5935 8.40828 11.1574 8.58123C10.7212 8.75418 10.3233 9.01135 9.98658 9.33807C9.64981 9.66479 9.3807 10.0546 9.19462 10.4854C9.00854 10.9161 8.90913 11.3793 8.90208 11.8484ZM20.8103 17.7159C20.4219 17.7143 20.043 17.8355 19.7277 18.0623L16.7939 15.5508C16.6467 15.4236 16.4581 15.3543 16.2635 15.3559H13.254V16.8932H16.0037L18.9915 19.448V19.5022C18.9786 19.8708 19.0761 20.2349 19.2715 20.5477C19.4668 20.8605 19.7512 21.1079 20.0881 21.258C20.4251 21.4081 20.7991 21.4542 21.1624 21.3903C21.5257 21.3263 21.8616 21.1554 22.127 20.8992C22.3924 20.6431 22.5753 20.3136 22.6521 19.9528C22.729 19.5921 22.6963 19.2166 22.5583 18.8745C22.4203 18.5325 22.1833 18.2394 21.8776 18.033C21.5719 17.8266 21.2116 17.7161 20.8427 17.7159H20.8103ZM13.1241 11.8593C13.128 12.0126 13.1811 12.1607 13.2756 12.2815V13.5156C13.5819 13.5181 13.8831 13.4367 14.1465 13.2802C14.4098 13.1237 14.6253 12.8981 14.7696 12.6279H19.3704H19.4787C19.6382 12.8449 19.8471 13.0209 20.088 13.1414C20.3289 13.2618 20.595 13.3233 20.8644 13.3207C21.0924 13.3392 21.3218 13.3102 21.5381 13.2357C21.7544 13.1611 21.9529 13.0425 22.1211 12.8874C22.2893 12.7323 22.4235 12.544 22.5153 12.3345C22.6071 12.1249 22.6545 11.8986 22.6545 11.6698C22.6545 11.441 22.6071 11.2147 22.5153 11.0052C22.4235 10.7956 22.2893 10.6073 22.1211 10.4522C21.9529 10.2971 21.7544 10.1786 21.5381 10.104C21.3218 10.0294 21.0924 10.0004 20.8644 10.0189C20.5189 10.0152 20.1806 10.1167 19.8943 10.3101C19.6081 10.5035 19.3876 10.7796 19.2622 11.1015H14.7479C14.6036 10.8312 14.3882 10.6056 14.1248 10.4492C13.8615 10.2927 13.5603 10.2113 13.254 10.2138V11.4479C13.1693 11.5684 13.1239 11.712 13.1241 11.8593Z" fill="black"/>
</svg>
