<svg width="24" height="24" viewBox="0 0 24 24" fill="none" xmlns="http://www.w3.org/2000/svg">
<path d="M17.1234 0.5H13.2412V1.71053C13.2412 2.03158 13.1091 2.33948 12.8738 2.5665C12.6385 2.79352 12.3194 2.92105 11.9867 2.92105C11.654 2.92105 11.3349 2.79352 11.0996 2.5665C10.8643 2.33948 10.7321 2.03158 10.7321 1.71053V0.5H6.85002C5.93503 0.5 5.05751 0.850727 4.41051 1.47503C3.76351 2.09932 3.40002 2.94606 3.40002 3.82895V20.1711C3.40002 21.0539 3.76351 21.9007 4.41051 22.525C4.73087 22.8341 5.11119 23.0793 5.52977 23.2466C5.94834 23.4139 6.39696 23.5 6.85002 23.5H17.1234C18.0384 23.5 18.9159 23.1493 19.5629 22.525C20.2099 21.9007 20.5734 21.0539 20.5734 20.1711V3.82895C20.5734 2.94606 20.2099 2.09932 19.5629 1.47503C18.9159 0.850727 18.0384 0.5 17.1234 0.5ZM15.7503 14.6268L12.9401 17.6774C12.8226 17.8022 12.6792 17.9019 12.5194 17.9702C12.3595 18.0384 12.1866 18.0737 12.0118 18.0737C11.837 18.0737 11.6641 18.0384 11.5042 17.9702C11.3443 17.9019 11.201 17.8022 11.0834 17.6774L8.22305 14.6268C7.58428 13.928 7.16807 13.0661 7.02437 12.1446C6.88067 11.2231 7.01559 10.2812 7.41293 9.43187C7.81027 8.58254 8.45316 7.86189 9.26444 7.35638C10.0757 6.85087 11.021 6.58199 11.9867 6.58199C12.9524 6.58199 13.8977 6.85087 14.7089 7.35638C15.5202 7.86189 16.1631 8.58254 16.5605 9.43187C16.9578 10.2812 17.0927 11.2231 16.949 12.1446C16.8053 13.0661 16.3891 13.928 15.7503 14.6268ZM13.8685 11.3947C13.8685 11.7539 13.7581 12.1049 13.5514 12.4035C13.3446 12.7021 13.0507 12.9349 12.7068 13.0723C12.363 13.2097 11.9846 13.2457 11.6196 13.1756C11.2545 13.1056 10.9192 12.9326 10.656 12.6787C10.3929 12.4248 10.2136 12.1012 10.141 11.749C10.0684 11.3968 10.1057 11.0317 10.2481 10.6999C10.3905 10.3681 10.6317 10.0845 10.9412 9.88496C11.2507 9.68544 11.6145 9.57895 11.9867 9.57895C12.4848 9.58212 12.9615 9.77444 13.3137 10.1143C13.6659 10.4541 13.8652 10.9141 13.8685 11.3947Z" fill="black"/>
</svg>
