<svg width="24" height="24" viewBox="0 0 24 24" fill="none" xmlns="http://www.w3.org/2000/svg">
<path d="M16.3538 1.25H7.7C5.98935 1.25 4.34877 1.92955 3.13916 3.13916C1.92955 4.34877 1.25 5.98935 1.25 7.7V16.4075C1.2782 18.0994 1.97019 19.7125 3.17675 20.899C4.38332 22.0855 6.00782 22.7502 7.7 22.75H16.4075C18.0902 22.722 19.6953 22.0375 20.8803 20.8424C22.0652 19.6474 22.7362 18.0366 22.75 16.3538V7.7C22.7501 5.99863 22.0779 4.36614 20.8799 3.15806C19.6819 1.94998 18.0551 1.26418 16.3538 1.25ZM19.0735 13.3008H6.625C6.41117 13.3008 6.2061 13.2158 6.0549 13.0646C5.90369 12.9134 5.81875 12.7083 5.81875 12.4945C5.81875 12.2807 5.90369 12.0756 6.0549 11.9244C6.2061 11.7732 6.41117 11.6883 6.625 11.6883H19.0735C19.2873 11.6883 19.4924 11.7732 19.6436 11.9244C19.7948 12.0756 19.8798 12.2807 19.8798 12.4945C19.8798 12.7083 19.7948 12.9134 19.6436 13.0646C19.4924 13.2158 19.2873 13.3008 19.0735 13.3008ZM11.3658 6.023H14.6445C14.8583 6.023 15.0634 6.10794 15.2146 6.25915C15.3658 6.41035 15.4508 6.61542 15.4508 6.82925C15.4508 7.04308 15.3658 7.24815 15.2146 7.39936C15.0634 7.55056 14.8583 7.6355 14.6445 7.6355H11.3658C11.0149 7.63272 10.6727 7.74447 10.391 7.95379C10.1094 8.16312 9.90377 8.45859 9.80528 8.79538C9.7068 9.13217 9.72086 9.49189 9.84534 9.81996C9.96981 10.148 10.1979 10.4265 10.495 10.6133H8.44175C8.24232 10.1896 8.13951 9.72697 8.14075 9.25875C8.13934 8.83433 8.22171 8.41381 8.38315 8.0213C8.54458 7.62878 8.78191 7.27199 9.08152 6.97138C9.38113 6.67077 9.73713 6.43226 10.1291 6.26951C10.5211 6.10677 10.9413 6.023 11.3658 6.023ZM13.1825 17.375H9.9575C9.74367 17.375 9.5386 17.2901 9.38739 17.1389C9.23619 16.9877 9.15125 16.7826 9.15125 16.5688C9.15125 16.3549 9.23619 16.1498 9.38739 15.9986C9.5386 15.8474 9.74367 15.7625 9.9575 15.7625H13.1825C13.5647 15.7602 13.9339 15.6231 14.2249 15.3753C14.516 15.1275 14.7102 14.785 14.7735 14.408H16.386C16.3213 15.2141 15.9561 15.9666 15.3627 16.5161C14.7694 17.0656 13.9912 17.3722 13.1825 17.375Z" fill="black"/>
</svg>
