<svg width="24" height="24" viewBox="0 0 24 24" fill="none" xmlns="http://www.w3.org/2000/svg">
<path d="M21.6226 4.41835H8.32061C8.0879 4.41835 7.86472 4.3259 7.70017 4.16135C7.53562 3.9968 7.44318 3.77362 7.44318 3.54091C7.44318 3.3082 7.53562 3.08502 7.70017 2.92047C7.86472 2.75592 8.0879 2.66347 8.32061 2.66347H21.6226C21.8553 2.66347 22.0785 2.75592 22.243 2.92047C22.4076 3.08502 22.5 3.3082 22.5 3.54091C22.5 3.77362 22.4076 3.9968 22.243 4.16135C22.0785 4.3259 21.8553 4.41835 21.6226 4.41835ZM16.4632 9.39049C16.4602 9.15872 16.3668 8.9373 16.2029 8.7734C16.039 8.6095 15.8176 8.51609 15.5858 8.51306H8.32061C8.0879 8.51306 7.86472 8.6055 7.70017 8.77005C7.53562 8.9346 7.44318 9.15778 7.44318 9.39049C7.44318 9.6232 7.53562 9.84638 7.70017 10.0109C7.86472 10.1755 8.0879 10.2679 8.32061 10.2679H15.5858C15.8176 10.2649 16.039 10.1715 16.2029 10.0076C16.3668 9.84369 16.4602 9.62226 16.4632 9.39049ZM22.5 15.2401C22.5 15.0074 22.4076 14.7842 22.243 14.6196C22.0785 14.4551 21.8553 14.3626 21.6226 14.3626H8.32061C8.0879 14.3626 7.86472 14.4551 7.70017 14.6196C7.53562 14.7842 7.44318 15.0074 7.44318 15.2401C7.44318 15.4728 7.53562 15.696 7.70017 15.8605C7.86472 16.0251 8.0879 16.1175 8.32061 16.1175H21.6226C21.8553 16.1175 22.0785 16.0251 22.243 15.8605C22.4076 15.696 22.5 15.4728 22.5 15.2401ZM16.4632 21.0897C16.4602 20.8579 16.3668 20.6365 16.2029 20.4726C16.039 20.3087 15.8176 20.2152 15.5858 20.2122H8.32061C8.0879 20.2122 7.86472 20.3047 7.70017 20.4692C7.53562 20.6338 7.44318 20.8569 7.44318 21.0897C7.44318 21.3224 7.53562 21.5455 7.70017 21.7101C7.86472 21.8746 8.0879 21.9671 8.32061 21.9671H15.5858C15.8176 21.9641 16.039 21.8706 16.2029 21.7067C16.3668 21.5428 16.4602 21.3214 16.4632 21.0897ZM3.02089 2.02002C2.72009 2.02002 2.42604 2.10922 2.17593 2.27634C1.92582 2.44345 1.73088 2.68098 1.61577 2.95889C1.50066 3.2368 1.47054 3.5426 1.52922 3.83762C1.58791 4.13265 1.73276 4.40364 1.94546 4.61634C2.15816 4.82904 2.42916 4.97389 2.72418 5.03258C3.0192 5.09126 3.32501 5.06114 3.60291 4.94603C3.88082 4.83092 4.11835 4.63598 4.28547 4.38587C4.45258 4.13576 4.54178 3.84171 4.54178 3.54091C4.54178 3.13755 4.38155 2.7507 4.09632 2.46548C3.8111 2.18026 3.42426 2.02002 3.02089 2.02002ZM3.02089 13.7192C2.72009 13.7192 2.42604 13.8084 2.17593 13.9755C1.92582 14.1426 1.73088 14.3801 1.61577 14.6581C1.50066 14.936 1.47054 15.2418 1.52922 15.5368C1.58791 15.8318 1.73276 16.1028 1.94546 16.3155C2.15816 16.5282 2.42916 16.6731 2.72418 16.7317C3.0192 16.7904 3.32501 16.7603 3.60291 16.6452C3.88082 16.5301 4.11835 16.3351 4.28547 16.085C4.45258 15.8349 4.54178 15.5409 4.54178 15.2401C4.54178 14.8367 4.38155 14.4499 4.09632 14.1646C3.8111 13.8794 3.42426 13.7192 3.02089 13.7192Z" fill="black"/>
</svg>
