<svg width="24" height="24" viewBox="0 0 24 24" fill="none" xmlns="http://www.w3.org/2000/svg">
<path d="M21.6711 4.53778H2.32895C2.1091 4.53778 1.89825 4.45044 1.74279 4.29498C1.58734 4.13953 1.5 3.92868 1.5 3.70883C1.5 3.48898 1.58734 3.27813 1.74279 3.12268C1.89825 2.96722 2.1091 2.87988 2.32895 2.87988H21.6711C21.8909 2.87988 22.1017 2.96722 22.2572 3.12268C22.4127 3.27813 22.5 3.48898 22.5 3.70883C22.5 3.92868 22.4127 4.13953 22.2572 4.29498C22.1017 4.45044 21.8909 4.53778 21.6711 4.53778ZM22.5 9.23515C22.5 9.0153 22.4127 8.80445 22.2572 8.64899C22.1017 8.49353 21.8909 8.4062 21.6711 8.4062H2.32895C2.1091 8.4062 1.89825 8.49353 1.74279 8.64899C1.58734 8.80445 1.5 9.0153 1.5 9.23515C1.5 9.455 1.58734 9.66584 1.74279 9.8213C1.89825 9.97676 2.1091 10.0641 2.32895 10.0641H21.6711C21.8909 10.0641 22.1017 9.97676 22.2572 9.8213C22.4127 9.66584 22.5 9.455 22.5 9.23515ZM22.5 14.7615C22.5 14.5416 22.4127 14.3308 22.2572 14.1753C22.1017 14.0198 21.8909 13.9325 21.6711 13.9325H2.32895C2.1091 13.9325 1.89825 14.0198 1.74279 14.1753C1.58734 14.3308 1.5 14.5416 1.5 14.7615C1.5 14.9813 1.58734 15.1922 1.74279 15.3476C1.89825 15.5031 2.1091 15.5904 2.32895 15.5904H21.6711C21.8909 15.5904 22.1017 15.5031 22.2572 15.3476C22.4127 15.1922 22.5 14.9813 22.5 14.7615ZM13.7132 20.2878C13.7132 20.0679 13.6258 19.8571 13.4704 19.7016C13.3149 19.5462 13.1041 19.4588 12.8842 19.4588H2.32895C2.1091 19.4588 1.89825 19.5462 1.74279 19.7016C1.58734 19.8571 1.5 20.0679 1.5 20.2878C1.5 20.5076 1.58734 20.7185 1.74279 20.8739C1.89825 21.0294 2.1091 21.1167 2.32895 21.1167H12.8842C13.1041 21.1167 13.3149 21.0294 13.4704 20.8739C13.6258 20.7185 13.7132 20.5076 13.7132 20.2878Z" fill="black"/>
</svg>
