<svg width="24" height="24" viewBox="0 0 24 24" fill="none" xmlns="http://www.w3.org/2000/svg">
<path d="M9.08084 9.99928C9.08366 9.78521 9.17068 9.58087 9.32306 9.4305C9.47544 9.28012 9.68091 9.19582 9.89499 9.19584H11.2448V7.78179C11.2448 7.5687 11.3294 7.36435 11.4801 7.21367C11.6308 7.063 11.8351 6.97835 12.0482 6.97835C12.2613 6.97835 12.4656 7.063 12.6163 7.21367C12.767 7.36435 12.8516 7.5687 12.8516 7.78179V9.19584H14.18C14.3931 9.19584 14.5974 9.28049 14.7481 9.43116C14.8988 9.58183 14.9834 9.78619 14.9834 9.99928C14.9834 10.2124 14.8988 10.4167 14.7481 10.5674C14.5974 10.7181 14.3931 10.8027 14.18 10.8027H9.89499C9.68091 10.8027 9.47544 10.7184 9.32306 10.5681C9.17068 10.4177 9.08366 10.2133 9.08084 9.99928ZM14.18 12.4096H9.89499C9.68191 12.4096 9.47755 12.4942 9.32688 12.6449C9.1762 12.7956 9.09156 12.9999 9.09156 13.213C9.09156 13.4261 9.1762 13.6305 9.32688 13.7811C9.47755 13.9318 9.68191 14.0165 9.89499 14.0165H11.2448V16.2232C11.2448 16.4363 11.3294 16.6407 11.4801 16.7914C11.6308 16.942 11.8351 17.0267 12.0482 17.0267C12.2613 17.0267 12.4656 16.942 12.6163 16.7914C12.767 16.6407 12.8516 16.4363 12.8516 16.2232V14.0165H14.18C14.3931 14.0165 14.5974 13.9318 14.7481 13.7811C14.8988 13.6305 14.9834 13.4261 14.9834 13.213C14.9834 12.9999 14.8988 12.7956 14.7481 12.6449C14.5974 12.4942 14.3931 12.4096 14.18 12.4096ZM22.75 7.71751V16.2875C22.75 17.9922 22.0728 19.6271 20.8674 20.8325C19.662 22.0378 18.0272 22.715 16.3225 22.715H7.6775C5.97282 22.715 4.33796 22.0378 3.13257 20.8325C1.92718 19.6271 1.25 17.9922 1.25 16.2875V7.71751C1.25 6.01283 1.92718 4.37797 3.13257 3.17258C4.33796 1.96719 5.97282 1.29001 7.6775 1.29001H16.3975C18.0891 1.30975 19.7048 1.99563 20.894 3.19889C22.0832 4.40215 22.7501 6.02575 22.75 7.71751ZM17.3937 7.6211C17.3995 7.35445 17.3519 7.08934 17.2537 6.84133C17.1556 6.59332 17.009 6.36739 16.8224 6.17681C16.6358 5.98623 16.413 5.83483 16.1671 5.73149C15.9213 5.62815 15.6572 5.57495 15.3905 5.57501H8.68448C8.15319 5.57501 7.64366 5.78607 7.26798 6.16175C6.8923 6.53743 6.68124 7.04696 6.68124 7.57825V16.4268C6.68124 16.6898 6.73306 16.9503 6.83373 17.1934C6.9344 17.4364 7.08196 17.6573 7.26798 17.8433C7.45399 18.0293 7.67483 18.1769 7.91787 18.2775C8.16092 18.3782 8.42141 18.43 8.68448 18.43H15.3905C15.6536 18.43 15.9141 18.3782 16.1571 18.2775C16.4002 18.1769 16.621 18.0293 16.807 17.8433C16.993 17.6573 17.1406 17.4364 17.2413 17.1934C17.3419 16.9503 17.3937 16.6898 17.3937 16.4268V7.6211Z" fill="black"/>
</svg>
