<svg width="24" height="24" viewBox="0 0 24 24" fill="none" xmlns="http://www.w3.org/2000/svg">
<path d="M21.3426 7.16544C21.2775 6.94861 21.1544 6.75368 20.9866 6.60167C20.8188 6.44967 20.6127 6.34637 20.3905 6.30291C19.8035 6.18689 19.2421 5.96686 18.7326 5.6532H18.6542C18.0789 5.28007 17.5842 4.79538 17.1994 4.2278C16.8146 3.66022 16.5475 3.02125 16.4138 2.34867C16.4138 2.34867 16.4138 2.25906 16.4138 2.21425C16.3444 1.93121 16.1795 1.6808 15.9468 1.50529C15.7141 1.32978 15.4281 1.23993 15.1368 1.2509H13.6806C13.3835 1.2509 13.0986 1.36892 12.8885 1.57899C12.6784 1.78906 12.5604 2.07399 12.5604 2.37108V15.9589C12.5545 16.7809 12.2238 17.5672 11.6404 18.1464C11.0571 18.7256 10.2684 19.0506 9.44633 19.0505C8.96404 19.0546 8.48779 18.9432 8.05731 18.7257C7.54255 18.4666 7.1098 18.0697 6.80722 17.5792C6.50463 17.0888 6.34408 16.5239 6.34343 15.9477C6.3591 15.1487 6.67593 14.3851 7.2305 13.8098C7.78508 13.2345 8.53647 12.8898 9.33431 12.8448C9.62159 12.8304 9.89232 12.706 10.0904 12.4975C10.2885 12.289 10.3988 12.0122 10.3985 11.7246V10.2907C10.4091 10.2164 10.4091 10.141 10.3985 10.0667C10.3461 9.80988 10.2053 9.57955 10.0007 9.4158C9.79598 9.25206 9.54036 9.16528 9.2783 9.17057C9.08435 9.15774 8.88976 9.15774 8.69581 9.17057C7.30393 9.31955 5.99196 9.89449 4.93902 10.8169C3.88608 11.7393 3.14349 12.9642 2.81264 14.3244C2.48179 15.6845 2.57881 17.1137 3.09044 18.4166C3.60207 19.7196 4.50339 20.8329 5.67132 21.6046C6.94585 22.4625 8.47583 22.8578 10.0064 22.7247C11.7321 22.5382 13.3263 21.7153 14.4779 20.4166C15.6295 19.118 16.2558 17.4368 16.2346 15.7012V8.44245C17.3955 9.28011 18.7468 9.81525 20.1664 9.9995C20.3145 10.0101 20.4632 9.99123 20.6039 9.9439C20.7446 9.89656 20.8745 9.82173 20.986 9.72376C21.0975 9.62578 21.1885 9.50662 21.2535 9.37319C21.3186 9.23976 21.3565 9.09473 21.365 8.94653V7.4903C21.3702 7.38151 21.3627 7.27249 21.3426 7.16544Z" fill="black"/>
</svg>
