<svg width="24" height="24" viewBox="0 0 24 24" fill="none" xmlns="http://www.w3.org/2000/svg">
<path fill-rule="evenodd" clip-rule="evenodd" d="M11.9999 23.7498C17.8133 23.7498 22.526 19.0372 22.526 13.2238C22.526 7.41042 17.8133 2.69775 11.9999 2.69775C6.18655 2.69775 1.47388 7.41042 1.47388 13.2238C1.47388 19.0372 6.18655 23.7498 11.9999 23.7498ZM13.1175 12.3053V7.46493C13.1175 7.23945 13.0256 7.0232 12.8621 6.86376C12.6986 6.70432 12.4768 6.61475 12.2455 6.61475C12.0143 6.61475 11.7925 6.70432 11.6289 6.86376C11.4654 7.0232 11.3735 7.23945 11.3735 7.46493V12.3053C11.3735 12.5308 11.4654 12.747 11.6289 12.9065C11.7925 13.0659 12.0143 13.1555 12.2455 13.1555C12.4768 13.1555 12.6986 13.0659 12.8621 12.9065C13.0256 12.747 13.1175 12.5308 13.1175 12.3053Z" fill="black"/>
<path d="M16.5476 0.815874C16.5885 0.924932 16.6063 1.04092 16.6 1.15686V1.13419C16.591 1.35373 16.4952 1.56134 16.3326 1.71349C16.1701 1.86565 15.9534 1.95054 15.7281 1.95037H8.74967C8.5184 1.95037 8.29661 1.86079 8.13308 1.70135C7.96955 1.54191 7.87769 1.32567 7.87769 1.10018C7.87769 0.8747 7.96955 0.658453 8.13308 0.499013C8.29661 0.339573 8.5184 0.25 8.74967 0.25H15.7281C15.8471 0.251366 15.9647 0.276186 16.0737 0.322967C16.1827 0.369749 16.2808 0.437527 16.3623 0.522231C16.4437 0.606935 16.5068 0.706816 16.5476 0.815874Z" fill="black"/>
</svg>
