<svg width="24" height="24" viewBox="0 0 24 24" fill="none" xmlns="http://www.w3.org/2000/svg">
<path d="M4.93407 8.48588L16.7284 2.11382C17.1955 1.86378 17.7194 1.73873 18.2491 1.7508C18.7787 1.76287 19.2963 1.91165 19.7516 2.18271C20.2068 2.45377 20.5843 2.83791 20.8473 3.29784C21.1103 3.75776 21.25 4.27787 21.2528 4.8077V19.1751C21.253 19.7063 21.1155 20.2286 20.8537 20.6909C20.5918 21.1532 20.2147 21.5398 19.759 21.8129C19.3032 22.0859 18.7845 22.2362 18.2534 22.2491C17.7222 22.262 17.1968 22.1369 16.7284 21.8862L4.93407 15.6005C4.277 15.2671 3.7251 14.7582 3.33959 14.1303C2.95407 13.5024 2.75 12.78 2.75 12.0432C2.75 11.3064 2.95407 10.584 3.33959 9.95605C3.7251 9.32814 4.277 8.81927 4.93407 8.48588Z" fill="black"/>
</svg>
