<svg width="24" height="24" viewBox="0 0 24 24" fill="none" xmlns="http://www.w3.org/2000/svg">
<path d="M13.991 2.98999H10.009C7.61966 2.98999 5.32819 3.93915 3.63868 5.62867C1.94916 7.31818 1 9.60966 1 11.999C1 14.3883 1.94916 16.6798 3.63868 18.3693C5.32819 20.0588 7.61966 21.008 10.009 21.008H13.991C16.3803 21.008 18.6718 20.0588 20.3613 18.3693C22.0508 16.6798 23 14.3883 23 11.999C23 9.60966 22.0508 7.31818 20.3613 5.62867C18.6718 3.93915 16.3803 2.98999 13.991 2.98999ZM9.954 16.806C8.99006 16.8059 8.04789 16.5193 7.24719 15.9826C6.44649 15.4459 5.8234 14.6833 5.45708 13.7917C5.09075 12.9 4.99774 11.9197 5.18984 10.975C5.38194 10.0304 5.85049 9.16426 6.53597 8.48654C7.22145 7.80882 8.09291 7.35015 9.03964 7.1688C9.98637 6.98746 10.9656 7.09162 11.853 7.46807C12.7404 7.84451 13.4959 8.47623 14.0235 9.28299C14.551 10.0897 14.8269 11.0351 14.816 11.999C14.8015 13.2789 14.2829 14.5015 13.3727 15.4014C12.4624 16.3014 11.234 16.8061 9.954 16.806Z" fill="black"/>
</svg>
