<svg width="24" height="24" viewBox="0 0 24 24" fill="none" xmlns="http://www.w3.org/2000/svg">
<path d="M13.991 2.98999H10.009C7.61966 2.98999 5.32819 3.93915 3.63868 5.62867C1.94916 7.31818 1 9.60966 1 11.999C1 14.3883 1.94916 16.6798 3.63868 18.3693C5.32819 20.0588 7.61966 21.008 10.009 21.008H13.991C16.3803 21.008 18.6718 20.0588 20.3613 18.3693C22.0508 16.6798 23 14.3883 23 11.999C23 9.60966 22.0508 7.31818 20.3613 5.62867C18.6718 3.93915 16.3803 2.98999 13.991 2.98999ZM13.991 16.806C13.0295 16.7951 12.0928 16.4992 11.2994 15.956C10.506 15.4127 9.89147 14.6463 9.53359 13.7538C9.17571 12.8613 9.09051 11.8827 9.28878 10.9418C9.48705 10.0009 9.95987 9.13989 10.6475 8.46768C11.3351 7.79547 12.2065 7.34225 13.1517 7.16532C14.0969 6.98839 15.0733 7.09569 15.9575 7.47368C16.8416 7.85166 17.5939 8.48333 18.1191 9.28883C18.6443 10.0943 18.9188 11.0375 18.908 11.999C18.8935 13.2789 18.3749 14.5015 17.4647 15.4014C16.5544 16.3014 15.326 16.8061 14.046 16.806H13.991Z" fill="black"/>
</svg>
