<svg width="24" height="24" viewBox="0 0 24 24" fill="none" xmlns="http://www.w3.org/2000/svg">
<path d="M22.6857 7.61425C22.6604 5.92549 21.9717 4.31449 20.7684 3.12928C19.5652 1.94407 17.9439 1.27981 16.255 1.28H7.55209C5.86895 1.31367 4.26613 2.00602 3.08781 3.20838C1.9095 4.41075 1.24966 6.02723 1.25 7.71071V16.3707C1.27254 18.0614 1.96 19.6751 3.16356 20.8626C4.36712 22.0501 5.98993 22.7158 7.68071 22.7157H16.3943C18.0868 22.6959 19.7033 22.0097 20.8931 20.8059C22.0829 19.602 22.7501 17.9776 22.75 16.285L22.6857 7.61425ZM17.0588 13.7234H15.001C14.5783 13.7235 14.1726 13.557 13.8717 13.2601C13.5708 12.9633 13.399 12.5598 13.3933 12.1372V7.44276C13.3933 7.02107 13.5601 6.61649 13.8573 6.31731C14.1544 6.01813 14.5579 5.84863 14.9796 5.8458H17.0481C17.2568 5.84296 17.464 5.88162 17.6576 5.95952C17.8512 6.03743 18.0275 6.15303 18.1761 6.29961C18.3246 6.4462 18.4426 6.62084 18.5231 6.81341C18.6036 7.00597 18.6451 7.21261 18.6451 7.42133V12.1265C18.6465 12.3348 18.6068 12.5413 18.5284 12.7343C18.45 12.9273 18.3344 13.103 18.1881 13.2513C18.0418 13.3995 17.8677 13.5176 17.6758 13.5986C17.4838 13.6796 17.2779 13.722 17.0695 13.7234H17.0588ZM8.75249 18.9644H6.7161C6.50548 18.9645 6.29694 18.9228 6.10249 18.8419C5.90803 18.7609 5.73151 18.6424 5.58307 18.4929C5.43464 18.3435 5.31724 18.1662 5.23761 17.9712C5.15799 17.7762 5.11773 17.5674 5.11914 17.3568V7.43204C5.11914 7.22283 5.16052 7.01568 5.24091 6.82253C5.32129 6.62938 5.43909 6.45403 5.58752 6.30659C5.73596 6.15916 5.91209 6.04254 6.10578 5.96346C6.29947 5.88437 6.50689 5.84439 6.7161 5.8458H8.75249C8.9617 5.84439 9.16912 5.88437 9.36281 5.96346C9.5565 6.04254 9.73264 6.15916 9.88107 6.30659C10.0295 6.45403 10.1473 6.62938 10.2277 6.82253C10.3081 7.01568 10.3495 7.22283 10.3495 7.43204V17.3568C10.3509 17.5674 10.3106 17.7762 10.231 17.9712C10.1514 18.1662 10.034 18.3435 9.88552 18.4929C9.73709 18.6424 9.56056 18.7609 9.36611 18.8419C9.17165 18.9228 8.96311 18.9645 8.75249 18.9644Z" fill="black"/>
</svg>
