<svg width="24" height="24" viewBox="0 0 24 24" fill="none" xmlns="http://www.w3.org/2000/svg">
<path d="M22.6858 5.97976C22.6689 4.7317 22.1598 3.54083 21.2693 2.66628C20.3787 1.79173 19.1788 1.3043 17.9306 1.31005H5.95182C4.69818 1.31852 3.4991 1.82394 2.61765 2.71541C1.7362 3.60688 1.24436 4.81159 1.25005 6.06524L1.31416 18.012C1.33106 19.2601 1.84018 20.4509 2.73073 21.3255C3.62129 22.2 4.82121 22.6875 6.06936 22.6817H18.0482C19.3018 22.6732 20.5009 22.1678 21.3824 21.2764C22.2638 20.3849 22.7556 19.1802 22.75 17.9265L22.6858 5.97976ZM14.8852 12.8828C14.8852 13.0245 14.8289 13.1604 14.7287 13.2606C14.6285 13.3608 14.4926 13.4171 14.3509 13.4171H12.7373V19.1233C12.7373 19.265 12.681 19.4009 12.5808 19.5011C12.4806 19.6013 12.3447 19.6576 12.203 19.6576H11.2947C11.153 19.6576 11.0171 19.6013 10.9169 19.5011C10.8167 19.4009 10.7604 19.265 10.7604 19.1233V13.4171H9.15757C9.01586 13.4171 8.87997 13.3608 8.77977 13.2606C8.67957 13.1604 8.62328 13.0245 8.62328 12.8828V12.1134C8.62328 11.9717 8.67957 11.8358 8.77977 11.7356C8.87997 11.6354 9.01586 11.5791 9.15757 11.5791H14.3509C14.4917 11.5819 14.626 11.639 14.7257 11.7387C14.8253 11.8383 14.8824 11.9726 14.8852 12.1134V12.8828ZM17.5673 19.7645C16.8411 19.774 16.1254 19.5896 15.4943 19.2302C15.3974 19.168 15.3232 19.0761 15.2827 18.9682C15.2423 18.8604 15.2378 18.7424 15.2699 18.6318L15.505 17.8731C15.5267 17.7931 15.5671 17.7195 15.6228 17.6582C15.6785 17.5969 15.748 17.5497 15.8255 17.5205C15.8991 17.4861 15.9794 17.4683 16.0606 17.4683C16.1419 17.4683 16.2221 17.4861 16.2957 17.5205C16.6975 17.7682 17.1594 17.9012 17.6314 17.9052C17.92 17.9052 18.5718 17.841 18.5718 17.2426C18.5718 16.9969 18.5718 16.719 17.5887 16.345C17.0544 16.1634 15.3981 15.5756 15.3981 13.8659C15.4166 13.5216 15.5047 13.1845 15.6571 12.8752C15.8094 12.5658 16.0228 12.2905 16.2844 12.0658C16.546 11.8411 16.8504 11.6718 17.1793 11.5679C17.5081 11.4641 17.8546 11.4279 18.1978 11.4616C18.8287 11.4459 19.4534 11.5892 20.0144 11.8783C20.1208 11.9424 20.202 12.0409 20.2448 12.1575C20.2875 12.2741 20.2892 12.4018 20.2495 12.5195L20.0037 13.2568C19.9776 13.3291 19.9364 13.395 19.883 13.4502C19.8296 13.5055 19.7651 13.5488 19.6938 13.5774C19.6239 13.6114 19.5471 13.6291 19.4694 13.6291C19.3916 13.6291 19.3149 13.6114 19.245 13.5774C18.9174 13.3988 18.5495 13.3068 18.1764 13.3102C17.5994 13.3102 17.3857 13.5774 17.3857 13.8232C17.3857 14.0689 17.4605 14.2933 18.4542 14.678C19.0427 14.8075 19.5717 15.1284 19.9584 15.5905C20.3451 16.0526 20.5677 16.6299 20.5914 17.2319C20.5487 18.4822 19.6404 19.7645 17.5673 19.7645Z" fill="black"/>
</svg>
