<svg width="24" height="24" viewBox="0 0 24 24" fill="none" xmlns="http://www.w3.org/2000/svg">
<path d="M13.9808 11.7946C13.9474 12.777 13.6752 13.7342 13.19 14.5756C12.7048 15.417 12.0226 16.1147 11.2081 16.6028C10.0008 17.2501 8.63826 17.5103 7.29061 17.351C6.51221 17.3452 5.7492 17.1231 5.07944 16.7076C4.40967 16.292 3.85712 15.6977 3.47814 14.9854C3.42655 14.9011 3.39697 14.8041 3.39235 14.7041C3.38773 14.6042 3.40824 14.5046 3.45182 14.4155C3.49541 14.3265 3.56054 14.2509 3.64072 14.1964C3.72091 14.142 3.81333 14.1105 3.90875 14.1052C4.29865 14.0972 4.68636 14.0419 5.06405 13.9401C4.19197 13.7423 3.39538 13.2783 2.7748 12.6066C2.15422 11.9349 1.73748 11.0857 1.57716 10.1662C1.56017 10.0743 1.5663 9.97939 1.59494 9.89076C1.62358 9.80213 1.67374 9.72284 1.74049 9.66067C1.80725 9.59851 1.8883 9.55561 1.97567 9.53621C2.06305 9.51681 2.15374 9.52156 2.23883 9.55C2.63143 9.68973 3.04254 9.76399 3.45714 9.77006C2.67686 9.1919 2.08641 8.37503 1.76675 7.43146C1.44709 6.48789 1.41389 5.46383 1.67168 4.49971C1.71135 4.38046 1.77919 4.27367 1.86887 4.18928C1.95855 4.1049 2.06716 4.04567 2.18459 4.01711C2.30201 3.98856 2.42442 3.9916 2.54042 4.02596C2.65641 4.06033 2.76222 4.12489 2.84798 4.21364C5.10041 6.70528 8.1788 8.19767 11.4497 8.3837C13.1196 8.47172 13.9388 10.2322 13.9808 11.7946ZM21.7633 3.89456C20.9492 3.81765 20.1288 3.86211 19.3267 4.02659C18.8106 3.44615 18.1642 3.00991 17.4464 2.75746C16.7285 2.505 15.9619 2.44433 15.216 2.58095C14.4701 2.71756 13.7685 3.04713 13.175 3.53976C12.5815 4.03239 12.1148 4.67247 11.8173 5.40194C11.638 5.84327 11.5247 6.31086 11.4812 6.7883C14.0543 6.92033 15.4617 9.41797 15.5142 11.8166C15.4878 13.0881 15.1493 14.331 14.5312 15.4256C13.9131 16.5202 13.0363 17.4296 11.9853 18.0662C10.757 18.7891 9.35961 19.136 7.95228 19.0674H7.2381C6.55452 19.0195 5.88177 18.8637 5.24259 18.6053C5.01006 18.7248 4.77167 18.8313 4.52841 18.9244C3.90065 19.1111 3.25689 19.2327 2.60642 19.2875C2.4894 19.3067 2.38129 19.3646 2.29782 19.4526C2.21435 19.5407 2.15986 19.6543 2.14229 19.7771C2.12472 19.8998 2.14498 20.0252 2.20011 20.135C2.25525 20.2449 2.3424 20.3334 2.44888 20.3878C4.06815 21.1157 5.81212 21.4901 7.57419 21.488C9.28342 21.4983 10.9776 21.1528 12.5583 20.4716C14.1391 19.7904 15.575 18.7871 16.7826 17.5199C17.9903 16.2527 18.9457 14.7468 19.5933 13.0897C20.241 11.4326 20.568 9.65718 20.5555 7.86657C20.5555 7.65752 20.5555 7.44846 20.5555 7.25041C21.249 6.65078 21.8573 5.95055 22.362 5.17088C22.4407 5.05167 22.4876 4.9126 22.4979 4.76805C22.5081 4.62349 22.4814 4.47868 22.4203 4.34858C22.3593 4.21848 22.2662 4.10781 22.1507 4.02799C22.0352 3.94818 21.9015 3.90211 21.7633 3.89456Z" fill="black"/>
</svg>
