<svg width="24" height="24" viewBox="0 0 24 24" fill="none" xmlns="http://www.w3.org/2000/svg">
<path d="M21.0533 1.25H4.6058C4.41188 1.25 4.221 1.29812 4.05027 1.39006C3.87954 1.48199 3.73429 1.61486 3.62755 1.77675L2.0043 4.217C1.87428 4.40724 1.80323 4.63159 1.80005 4.862V18.2672C1.80005 18.578 1.9235 18.876 2.14325 19.0958C2.36299 19.3155 2.66103 19.439 2.9718 19.439H4.8423C5.15121 19.439 5.44763 19.5609 5.66707 19.7784C5.88651 19.9958 6.01121 20.2911 6.01404 20.6V21.5782C6.01404 21.889 6.1375 22.187 6.35724 22.4068C6.57699 22.6265 6.87503 22.75 7.18579 22.75H8.61554C8.80848 22.7512 8.99872 22.7047 9.16938 22.6147C9.34003 22.5246 9.48582 22.3939 9.59379 22.234L11.131 19.9442C11.2397 19.785 11.3856 19.6547 11.5561 19.5648C11.7266 19.4749 11.9165 19.428 12.1093 19.4282H16.3125C16.6229 19.4266 16.9202 19.3031 17.1403 19.0842L21.8488 14.3865C22.0639 14.1639 22.1868 13.8682 22.1928 13.5587V2.411C22.1901 2.1076 22.0699 1.81707 21.8573 1.60053C21.6448 1.384 21.3566 1.25834 21.0533 1.25ZM10.6903 12.7202C10.6903 12.9312 10.6065 13.1336 10.4573 13.2827C10.3081 13.4319 10.1058 13.5157 9.89479 13.5157H9.04554C8.83456 13.5157 8.63222 13.4319 8.48304 13.2827C8.33385 13.1336 8.25004 12.9312 8.25004 12.7202V6.88299C8.25004 6.67201 8.33385 6.46968 8.48304 6.32049C8.63222 6.17131 8.83456 6.08749 9.04554 6.08749H9.86254C10.0735 6.08749 10.2759 6.17131 10.425 6.32049C10.5742 6.46968 10.658 6.67201 10.658 6.88299L10.6903 12.7202ZM16.8393 12.7202C16.8365 12.9322 16.7503 13.1345 16.5994 13.2834C16.4485 13.4323 16.245 13.5158 16.033 13.5157H15.2375C15.0266 13.5157 14.8242 13.4319 14.675 13.2827C14.5258 13.1336 14.442 12.9312 14.442 12.7202V6.91524C14.442 6.70426 14.5258 6.50193 14.675 6.35274C14.8242 6.20356 15.0266 6.11975 15.2375 6.11975H16.0868C16.2988 6.11973 16.5022 6.20319 16.6531 6.35208C16.804 6.50096 16.8902 6.70328 16.893 6.91524L16.8393 12.7202Z" fill="black"/>
</svg>
