<svg width="24" height="24" viewBox="0 0 24 24" fill="none" xmlns="http://www.w3.org/2000/svg">
<path d="M20.3363 2.70001H7.86006C7.25345 2.70461 6.66353 2.89916 6.1732 3.25632C5.68286 3.61348 5.31675 4.1153 5.12632 4.69125H16.14C17.3604 4.69125 18.5307 5.17603 19.3936 6.03892C20.2565 6.90182 20.7413 8.07216 20.7413 9.29249V16.5152C21.4285 16.4236 22.06 16.088 22.5205 15.5697C22.981 15.0513 23.2399 14.3848 23.25 13.6915V5.65875C23.25 5.27611 23.1746 4.89722 23.0282 4.54371C22.8818 4.1902 22.6672 3.86899 22.3966 3.59843C22.126 3.32786 21.8048 3.11324 21.4513 2.96681C21.0978 2.82038 20.7189 2.74501 20.3363 2.74501V2.70001ZM16.14 6.37875H3.66383C2.89105 6.37875 2.14993 6.68573 1.6035 7.23216C1.05707 7.77859 0.750087 8.51972 0.750087 9.29249V9.60749H19.0538V9.29249C19.0538 8.51972 18.7468 7.77859 18.2004 7.23216C17.6539 6.68573 16.9128 6.37875 16.14 6.37875ZM19.0538 11.8012V16.3012C19.0538 17.074 18.7468 19.9081 18.2004 20.4546C17.6539 21.001 16.9128 21.308 16.14 21.308H3.66383C3.27929 21.308 2.89855 21.2319 2.54356 21.084C2.18858 20.9362 1.86637 20.7196 1.59551 20.4466C1.32464 20.1737 1.11049 19.8498 0.965391 19.4937C0.820292 19.1376 0.747117 16.6632 0.750087 16.2787V11.7787L19.0538 11.8012ZM7.72506 14.9737C7.72506 14.7499 7.63617 14.5353 7.47793 14.3771C7.3197 14.2189 7.10509 14.13 6.88131 14.13H3.64133C3.41755 14.13 3.20294 14.2189 3.04471 14.3771C2.88647 14.5353 2.79758 14.7499 2.79758 14.9737C2.79758 15.1975 2.88647 15.4121 3.04471 15.5703C3.20294 15.7286 3.41755 15.8175 3.64133 15.8175H6.88131C6.99212 15.8175 7.10183 15.7956 7.2042 15.7532C7.30657 15.7108 7.39958 15.6487 7.47793 15.5703C7.55628 15.492 7.61843 15.399 7.66083 15.2966C7.70324 15.1942 7.72506 15.0845 7.72506 14.9737ZM17.0063 14.9737C17.0063 14.7499 16.9174 14.5353 16.7591 14.3771C16.6009 14.2189 16.3863 14.13 16.1625 14.13H14.8013C14.5775 14.13 14.3629 14.2189 14.2047 14.3771C14.0464 14.5353 13.9575 14.7499 13.9575 14.9737C13.9575 15.1975 14.0464 15.4121 14.2047 15.5703C14.3629 15.7286 14.5775 15.8175 14.8013 15.8175H16.1625C16.2733 15.8175 16.383 15.7956 16.4854 15.7532C16.5878 15.7108 16.6808 15.6487 16.7591 15.5703C16.8375 15.492 16.8996 15.399 16.942 15.2966C16.9845 15.1942 17.0063 15.0845 17.0063 14.9737Z" fill="black"/>
</svg>
