<svg width="24" height="24" viewBox="0 0 24 24" fill="none" xmlns="http://www.w3.org/2000/svg">
<path fill-rule="evenodd" clip-rule="evenodd" d="M3.87001 14.3837C4.31184 14.3837 4.67001 14.7419 4.67001 15.1837L4.67001 18.2021L18.2021 4.67001L15.1837 4.67001C14.7419 4.67001 14.3837 4.31184 14.3837 3.87001C14.3837 3.42818 14.7419 3.07001 15.1837 3.07001L20.1335 3.07001C20.5753 3.07001 20.9335 3.42818 20.9335 3.87001V8.81975C20.9335 9.26158 20.5753 9.61975 20.1335 9.61975C19.6916 9.61976 19.3335 9.26158 19.3335 8.81975L19.3335 5.80138L5.80138 19.3335H8.81976C9.26158 19.3335 9.61975 19.6916 9.61975 20.1335C9.61975 20.5753 9.26158 20.9335 8.81975 20.9335H3.87001C3.42818 20.9335 3.07001 20.5753 3.07001 20.1335V15.1837C3.07001 14.7419 3.42818 14.3837 3.87001 14.3837Z" fill="black"/>
</svg>
