<svg width="24" height="24" viewBox="0 0 24 24" fill="none" xmlns="http://www.w3.org/2000/svg">
<path d="M14.2 6.30188V1L17.1259 4.13493L22.9998 10.3278H17.8079C17.3196 10.3136 16.8388 10.2032 16.3932 10.0031C15.9475 9.803 15.5457 9.51702 15.2106 9.16152C14.8756 8.80602 14.6138 8.38798 14.4404 7.93127C14.267 7.47457 14.1853 6.98817 14.2 6.49988C14.195 6.43397 14.195 6.36779 14.2 6.30188ZM22.9998 16.7186C23.0144 18.368 22.374 19.9557 21.2191 21.1333C20.0642 22.3109 18.4892 22.9821 16.8399 22.9995H7.16011C5.5108 22.9821 3.93581 22.3109 2.78091 21.1333C1.626 19.9557 0.985584 18.368 1.00025 16.7186V7.28086C0.985584 5.63153 1.626 4.04378 2.78091 2.86619C3.93581 1.6886 5.5108 1.01742 7.16011 1H12.561V6.30188C12.4859 7.73336 12.9807 9.13633 13.9371 10.2041C14.8935 11.2718 16.2338 11.9174 17.6649 11.9998H22.9998V16.7186ZM8.59008 14.4087C8.69009 14.3731 8.78204 14.318 8.86062 14.2465C8.93919 14.1751 9.00283 14.0889 9.04784 13.9927C9.09285 13.8965 9.11834 13.7924 9.12284 13.6863C9.12735 13.5803 9.11077 13.4743 9.07407 13.3747C9.04064 13.2754 8.98784 13.1837 8.91873 13.105C8.84962 13.0262 8.76557 12.9619 8.67144 12.9159C8.57731 12.8699 8.47499 12.843 8.37039 12.8368C8.26579 12.8305 8.161 12.8452 8.06209 12.8797L7.5121 13.0777C7.85374 12.5031 8.39985 12.0788 9.04107 11.8898C9.37214 11.7881 9.7205 11.7551 10.0648 11.7929C10.409 11.8308 10.7419 11.9386 11.043 12.1098C11.1356 12.1635 11.2381 12.1979 11.3444 12.2109C11.4506 12.2239 11.5584 12.2153 11.6612 12.1855C11.764 12.1556 11.8597 12.1053 11.9425 12.0375C12.0253 11.9696 12.0935 11.8857 12.143 11.7908C12.2454 11.6024 12.2694 11.3811 12.2097 11.1752C12.15 10.9692 12.0114 10.7951 11.824 10.6908C11.3392 10.4215 10.8056 10.2516 10.2544 10.1912C9.70312 10.1307 9.14536 10.1808 8.61372 10.3385C8.08209 10.4963 7.58727 10.7585 7.15823 11.1099C6.7292 11.4612 6.37458 11.8946 6.11513 12.3847C6.10391 12.4318 6.10391 12.4807 6.11513 12.5277L5.86214 11.8568C5.83315 11.7473 5.78134 11.6452 5.7101 11.5572C5.63887 11.4691 5.54982 11.3972 5.4488 11.346C5.34778 11.2948 5.23708 11.2656 5.12396 11.2602C5.01084 11.2548 4.89787 11.2735 4.79246 11.3148C4.68705 11.3562 4.59159 11.4194 4.51233 11.5003C4.43308 11.5812 4.37183 11.6779 4.33261 11.7842C4.2934 11.8904 4.27709 12.0037 4.28477 12.1167C4.29245 12.2297 4.32394 12.3398 4.37717 12.4397L5.25715 14.7937C5.31064 14.9452 5.41081 15.0758 5.54324 15.1667C5.67568 15.2576 5.83355 15.3042 5.99413 15.2997C6.08077 15.3216 6.17149 15.3216 6.25813 15.2997L8.59008 14.4087ZM14.9809 17.8626L14.2 15.3547C14.1343 15.1544 13.9926 14.9879 13.8053 14.8912C13.6181 14.7945 13.4003 14.7752 13.199 14.8377L10.9 15.7837C10.7978 15.8258 10.7049 15.8878 10.6268 15.966C10.5487 16.0442 10.4869 16.1372 10.4449 16.2395C10.403 16.3418 10.3817 16.4514 10.3824 16.562C10.3832 16.6726 10.4058 16.7819 10.449 16.8836C10.4867 16.9816 10.5434 17.0711 10.616 17.147C10.6886 17.2228 10.7755 17.2835 10.8717 17.3255C10.9679 17.3674 11.0715 17.3898 11.1764 17.3914C11.2814 17.393 11.3856 17.3737 11.483 17.3346L11.967 17.1366C11.6299 17.727 11.0737 18.1608 10.419 18.3441C9.76426 18.5273 9.06371 18.4452 8.46908 18.1156C8.38129 18.0549 8.28167 18.0133 8.17673 17.9937C8.07179 17.9741 7.96389 17.9768 7.86008 18.0017C7.75627 18.0266 7.65888 18.0732 7.57428 18.1383C7.48967 18.2034 7.41976 18.2856 7.3691 18.3796C7.26765 18.566 7.24191 18.7843 7.29722 18.9891C7.35252 19.194 7.48464 19.3696 7.6661 19.4796H7.6001C8.2136 19.828 8.90752 20.01 9.61305 20.0076C10.365 20.0043 11.1022 19.7982 11.7469 19.411C12.3915 19.0238 12.9198 18.4699 13.276 17.8076L13.441 18.3026C13.4873 18.4671 13.587 18.6115 13.7244 18.713C13.8618 18.8146 14.0291 18.8676 14.2 18.8636H14.4419C14.5458 18.8334 14.6425 18.7828 14.7266 18.7148C14.8106 18.6468 14.8803 18.5627 14.9315 18.4675C14.9827 18.3722 15.0144 18.2678 15.0248 18.1601C15.0352 18.0525 15.024 17.9439 14.9919 17.8406L14.9809 17.8626Z" fill="black"/>
</svg>
