<svg width="24" height="24" viewBox="0 0 24 24" fill="none" xmlns="http://www.w3.org/2000/svg">
<path d="M17.2158 5.52591H13.9042C13.3315 5.5269 12.7718 5.35591 12.2975 5.03511C11.8232 4.7143 11.4561 4.25845 11.2439 3.72661L10.9348 2.79936C10.7199 2.26489 10.3491 1.80746 9.87071 1.48656C9.39232 1.16566 8.82842 0.996146 8.25238 1.00007H6.04466C4.70763 1.00298 3.42619 1.53541 2.48077 2.48083C1.53534 3.42626 1.00292 4.70769 1 6.04472V17.2158C1.00866 18.7453 1.61934 20.2099 2.69985 21.2924C3.78035 22.375 5.24373 22.9885 6.77321 23.0001H17.2158C18.7472 22.9914 20.2134 22.3792 21.2962 21.2963C22.3791 20.2134 22.9913 18.7472 23 17.2158V11.3322C23 9.79611 22.3913 8.32259 21.3072 7.23432C20.2231 6.14606 18.7519 5.53175 17.2158 5.52591ZM8.16407 14.5003C8.0066 14.495 7.85404 14.4442 7.72477 14.3541C7.5955 14.264 7.49505 14.1384 7.43552 13.9925L6.51932 11.7075C6.44613 11.5129 6.45327 11.2971 6.53918 11.1076C6.62509 10.9182 6.78273 10.7707 6.97742 10.6975C7.17211 10.6243 7.3879 10.6315 7.57731 10.7174C7.76673 10.8033 7.91427 10.9609 7.98746 11.1556L8.24134 11.7959C8.23013 11.7524 8.23013 11.7068 8.24134 11.6634C8.77254 10.7016 9.66255 9.98886 10.7172 9.68073C11.7719 9.3726 12.9056 9.49407 13.871 10.0186C13.9598 10.0661 14.0384 10.1307 14.102 10.2087C14.1657 10.2866 14.2133 10.3765 14.2421 10.473C14.2708 10.5695 14.2801 10.6707 14.2695 10.7708C14.2589 10.8709 14.2285 10.968 14.1801 11.0563C14.1307 11.1518 14.0622 11.2361 13.9788 11.3039C13.8954 11.3718 13.7989 11.4218 13.6954 11.4508C13.5919 11.4798 13.4835 11.4871 13.3769 11.4724C13.2704 11.4577 13.1681 11.4213 13.0763 11.3653C12.7775 11.2005 12.4488 11.097 12.1095 11.061C11.7702 11.025 11.4271 11.0572 11.1004 11.1556C10.4905 11.3335 9.96525 11.7254 9.62117 12.2595L10.1621 12.0718C10.2592 12.0323 10.3631 12.0124 10.4679 12.0133C10.5727 12.0141 10.6763 12.0357 10.7728 12.0767C10.8692 12.1177 10.9566 12.1774 11.0298 12.2524C11.1031 12.3273 11.1608 12.416 11.1997 12.5134C11.2348 12.609 11.2507 12.7107 11.2464 12.8125C11.2421 12.9143 11.2177 13.0142 11.1746 13.1066C11.1315 13.1989 11.0706 13.2818 10.9953 13.3505C10.9201 13.4192 10.832 13.4723 10.7361 13.5068L8.35173 14.3568C8.29449 14.4112 8.23158 14.4593 8.16407 14.5003ZM16.6197 17.9444H16.3768C16.2105 17.9455 16.0481 17.8937 15.9132 17.7965C15.7782 17.6993 15.6777 17.5616 15.6262 17.4035L15.4717 16.9067C14.9272 17.858 14.0303 18.5568 12.9748 18.8521C11.9193 19.1475 10.79 19.0157 9.83091 18.4853C9.73144 18.4631 9.63734 18.4215 9.55403 18.3628C9.47071 18.3041 9.39982 18.2296 9.34544 18.1434C9.29107 18.0572 9.25427 17.9611 9.23718 17.8606C9.22009 17.7602 9.22304 17.6573 9.24586 17.558C9.28349 17.3551 9.39966 17.1752 9.56913 17.0574C9.7386 16.9396 9.9477 16.8934 10.151 16.9288C10.333 16.9639 10.497 17.0615 10.6147 17.2048C11.2014 17.5195 11.8864 17.5977 12.5289 17.4232C13.1715 17.2487 13.7228 16.8348 14.0697 16.2665L13.584 16.4542C13.4885 16.4933 13.3861 16.5129 13.2829 16.5118C13.1797 16.5107 13.0777 16.4889 12.9831 16.4477C12.8884 16.4066 12.8029 16.3469 12.7317 16.2721C12.6605 16.1974 12.605 16.1092 12.5685 16.0126C12.4955 15.8192 12.5008 15.6049 12.5833 15.4153C12.6657 15.2257 12.8188 15.0756 13.01 14.9971L15.3502 14.0919C15.4474 14.048 15.5527 14.0253 15.6593 14.0253C15.7659 14.0253 15.8713 14.048 15.9684 14.0919C16.0659 14.1351 16.1528 14.199 16.2233 14.279C16.2938 14.359 16.3462 14.4534 16.3768 14.5555L17.1716 16.973C17.2 17.073 17.2082 17.1777 17.1958 17.2809C17.1833 17.3841 17.1505 17.4839 17.0991 17.5743C17.0477 17.6647 16.9789 17.744 16.8966 17.8075C16.8143 17.871 16.7201 17.9176 16.6197 17.9444Z" fill="black"/>
</svg>
