<svg width="24" height="24" viewBox="0 0 24 24" fill="none" xmlns="http://www.w3.org/2000/svg">
<path d="M21.8781 15.1985C21.6322 15.0614 21.3436 15.022 21.07 15.0884C20.7963 15.1547 20.5578 15.3218 20.402 15.5563L19.2837 14.9189H19.1495C19.5008 13.99 19.679 13.0046 19.6751 12.0114C19.6747 11.0369 19.4966 10.0705 19.1495 9.15986H19.2837L20.402 8.52245C20.5648 8.74634 20.8049 8.90187 21.0758 8.95896C21.3467 9.01604 21.6291 8.97062 21.8684 8.83147C22.1077 8.69233 22.287 8.46936 22.3714 8.2057C22.4558 7.94205 22.4394 7.65645 22.3254 7.40418L21.2071 5.54786C21.0503 5.32308 20.8163 5.16373 20.5497 5.10009C20.2831 5.03646 20.0024 5.07296 19.7609 5.20266C19.5194 5.33237 19.334 5.54624 19.2398 5.80367C19.1457 6.06109 19.1494 6.34413 19.2502 6.59903L18.1319 7.24762H18.0648C16.8842 5.62141 15.1142 4.52168 13.1332 4.18358V2.98703C13.4298 2.98703 13.7143 2.86922 13.924 2.6595C14.1337 2.44979 14.2515 2.16535 14.2515 1.86877C14.2515 1.57219 14.1337 1.28775 13.924 1.07804C13.7143 0.868321 13.4298 0.750504 13.1332 0.750504H10.9638C10.6672 0.741606 10.3793 0.85089 10.1632 1.05431C9.94724 1.25774 9.82089 1.53864 9.812 1.83522C9.8031 2.1318 9.91238 2.41977 10.1158 2.63578C10.3192 2.85179 10.6001 2.97814 10.8967 2.98703V4.18358C9.89515 4.32106 8.93077 4.65572 8.05934 5.16821C7.18791 5.6807 6.42673 6.36085 5.81979 7.16935L5.73033 7.09107L4.75744 6.53193C4.83835 6.40466 4.89268 6.26233 4.91715 6.11351C4.94163 5.96469 4.93575 5.81245 4.89987 5.66597C4.86399 5.51948 4.79885 5.38176 4.70836 5.2611C4.61788 5.14044 4.50392 5.03933 4.37334 4.96385C4.24277 4.88838 4.09828 4.84009 3.94856 4.82191C3.79884 4.80372 3.64699 4.81601 3.50214 4.85803C3.3573 4.90005 3.22245 4.97094 3.10571 5.06643C2.98896 5.16192 2.89275 5.28003 2.82284 5.41367L1.70457 7.34827C1.6067 7.51777 1.55504 7.70999 1.55474 7.90572C1.55445 8.10145 1.60553 8.29383 1.70288 8.46363C1.80023 8.63343 1.94044 8.7747 2.10951 8.87333C2.27857 8.97196 2.47056 9.02449 2.66628 9.02567C2.86333 9.02645 3.05709 8.97515 3.22793 8.87696C3.39878 8.77877 3.54065 8.63719 3.63917 8.46653L4.61206 9.02567L4.74625 9.08158C4.38559 10.0164 4.19986 11.0095 4.1983 12.0114C4.20076 13.0169 4.38644 14.0136 4.74625 14.9525H4.61206L3.63917 15.5116C3.56926 15.378 3.47304 15.2599 3.3563 15.1644C3.23956 15.0689 3.10471 14.998 2.95987 14.956C2.81502 14.9139 2.66317 14.9017 2.51345 14.9198C2.36373 14.938 2.21924 14.9863 2.08867 15.0618C1.95809 15.1373 1.84413 15.2384 1.75365 15.359C1.66316 15.4797 1.59802 15.6174 1.56214 15.7639C1.52626 15.9104 1.52038 16.0626 1.54486 16.2114C1.56933 16.3603 1.62366 16.5026 1.70457 16.6299L2.82284 18.5645C2.92136 18.7351 3.06323 18.8767 3.23408 18.9749C3.40492 19.0731 3.59868 19.1244 3.79573 19.1236C3.98783 19.123 4.17655 19.0729 4.34368 18.9782C4.47182 18.9052 4.58424 18.8075 4.67446 18.6908C4.76469 18.5741 4.83094 18.4407 4.8694 18.2983C4.90786 18.1559 4.91776 18.0073 4.89855 17.8611C4.87933 17.7148 4.83138 17.5738 4.75744 17.4462L5.73033 16.8871L5.81979 16.8088C6.42476 17.6259 7.18612 18.3146 8.05961 18.8348C8.9331 19.3551 9.90129 19.6965 10.9079 19.8393C10.9079 19.8393 10.9079 19.8393 10.9079 19.8952V21.0135C10.6113 21.0135 10.3269 21.1313 10.1172 21.341C9.90745 21.5507 9.78963 21.8352 9.78963 22.1317C9.78963 22.4283 9.90745 22.7128 10.1172 22.9225C10.3269 23.1322 10.6113 23.25 10.9079 23.25H13.1444C13.441 23.25 13.7254 23.1322 13.9352 22.9225C14.1449 22.7128 14.2627 22.4283 14.2627 22.1317C14.2627 21.8352 14.1449 21.5507 13.9352 21.341C13.7254 21.1313 13.441 21.0135 13.1444 21.0135V19.8952C13.1444 19.8952 13.1444 19.8952 13.1444 19.8169C15.1389 19.4977 16.9271 18.4047 18.1207 16.7752H18.1878L19.3061 17.4127C19.1578 17.6707 19.1181 17.977 19.1957 18.2644C19.2733 18.5517 19.4618 18.7964 19.7198 18.9447C19.9779 19.093 20.2842 19.1327 20.5715 19.0551C20.8588 18.9775 21.1036 18.7889 21.2518 18.5309L22.3701 16.6746C22.4958 16.4128 22.5147 16.1124 22.4229 15.8369C22.3311 15.5615 22.1357 15.3325 21.8781 15.1985ZM13.5358 9.14867C13.5358 8.88106 13.6152 8.61945 13.7639 8.39693C13.9125 8.17442 14.1239 8.00099 14.3711 7.89857C14.6184 7.79616 14.8904 7.76936 15.1529 7.82157C15.4154 7.87378 15.6565 8.00265 15.8457 8.19189C16.0349 8.38112 16.1638 8.62222 16.216 8.8847C16.2682 9.14717 16.2414 9.41924 16.139 9.66648C16.0366 9.91373 15.8632 10.1251 15.6407 10.2737C15.4181 10.4224 15.1565 10.5018 14.8889 10.5018C14.5301 10.5018 14.1859 10.3592 13.9321 10.1055C13.6784 9.85171 13.5358 9.50754 13.5358 9.14867ZM16.242 14.248C16.1576 14.317 16.0604 14.3687 15.9559 14.4002C15.8515 14.4316 15.7419 14.4422 15.6334 14.4313C15.5249 14.4204 15.4196 14.3882 15.3235 14.3366C15.2274 14.285 15.1425 14.215 15.0734 14.1305C15.0044 14.0461 14.9527 13.9489 14.9212 13.8445C14.8898 13.74 14.8792 13.6305 14.8901 13.5219C14.901 13.4134 14.9332 13.3081 14.9848 13.212C15.0364 13.116 15.1064 13.031 15.1909 12.962C15.363 12.825 15.5815 12.7602 15.8005 12.781C16.0195 12.8019 16.2218 12.9068 16.365 13.0738C16.5034 13.2462 16.5682 13.4663 16.5451 13.6862C16.5221 13.9061 16.4132 14.108 16.242 14.248Z" fill="black"/>
</svg>
