<svg width="24" height="24" viewBox="0 0 24 24" fill="none" xmlns="http://www.w3.org/2000/svg">
<path d="M12.0393 22.9999C11.9045 23.0007 11.7715 22.9679 11.6525 22.9045C11.5335 22.8411 11.432 22.7492 11.3573 22.6369L1.57838 7.95204C1.47073 7.77344 1.43472 7.5607 1.47757 7.35662C1.52043 7.15253 1.63898 6.97225 1.80938 6.85204C1.98726 6.74174 2.2008 6.70419 2.40565 6.74721C2.61049 6.79023 2.79089 6.9105 2.90937 7.08304L11.9953 20.7339L21.0152 7.21504C21.1363 7.03271 21.3249 6.90593 21.5394 6.86261C21.7539 6.81929 21.9769 6.86297 22.1592 6.98404C22.3416 7.10511 22.4683 7.29366 22.5117 7.5082C22.555 7.72274 22.5113 7.9457 22.3902 8.12803L12.7213 22.6369C12.6473 22.7499 12.546 22.8424 12.4268 22.9058C12.3076 22.9693 12.1743 23.0017 12.0393 22.9999ZM18.1443 3.46407L12.5673 11.824C12.5029 11.9263 12.4136 12.0105 12.3078 12.0689C12.202 12.1273 12.0832 12.158 11.9623 12.158C11.8415 12.158 11.7226 12.1273 11.6168 12.0689C11.511 12.0105 11.4217 11.9263 11.3573 11.824L5.78035 3.46407C5.70755 3.37538 5.61476 3.30522 5.50959 3.25933C5.40443 3.21344 5.28989 3.19313 5.17536 3.20007H3.72337C3.59538 3.20117 3.46995 3.23608 3.35981 3.30128C3.24966 3.36648 3.15871 3.45964 3.09617 3.57131C3.03363 3.68299 3.00173 3.80921 3.0037 3.93719C3.00566 4.06517 3.04143 4.19036 3.10737 4.30006L11.3683 17.192C11.4335 17.2965 11.5243 17.3828 11.6321 17.4426C11.7398 17.5024 11.8611 17.5338 11.9843 17.5338C12.1076 17.5338 12.2288 17.5024 12.3365 17.4426C12.4443 17.3828 12.5351 17.2965 12.6003 17.192L20.9713 4.30006C21.0372 4.19036 21.073 4.06517 21.0749 3.93719C21.0769 3.80921 21.045 3.68299 20.9825 3.57131C20.9199 3.45964 20.829 3.36648 20.7188 3.30128C20.6087 3.23608 20.4832 3.20117 20.3553 3.20007H18.7493C18.6347 3.19313 18.5202 3.21344 18.415 3.25933C18.3099 3.30522 18.2171 3.37538 18.1443 3.46407ZM13.2713 3.20007V1.73708C13.2684 1.54061 13.1883 1.35317 13.0484 1.21526C12.9084 1.07736 12.7198 1.00006 12.5233 1.00008H11.4233C11.3256 0.998624 11.2286 1.01661 11.1379 1.05299C11.0472 1.08938 10.9647 1.14343 10.8951 1.21201C10.8254 1.2806 10.7702 1.36234 10.7325 1.45248C10.6947 1.54262 10.6753 1.63936 10.6753 1.73708V3.20007L7.71634 2.10007L11.3023 7.49004C11.3746 7.59895 11.4726 7.68829 11.5878 7.7501C11.703 7.8119 11.8316 7.84424 11.9623 7.84424C12.093 7.84424 12.2217 7.8119 12.3368 7.7501C12.452 7.68829 12.5501 7.59895 12.6223 7.49004L16.2083 2.10007L13.2713 3.20007Z" fill="black"/>
</svg>
