<svg width="24" height="24" viewBox="0 0 24 24" fill="none" xmlns="http://www.w3.org/2000/svg">
<path d="M1 9.69989C1.00291 8.61945 1.43416 7.58426 2.19918 6.8213C2.9642 6.05834 4.00055 5.62989 5.081 5.62989C4.00055 5.62989 2.9642 6.05834 2.19918 6.8213C1.43416 7.58426 1.00291 8.61945 1 9.69989ZM5.059 4.52989H15.102C14.8556 3.79393 14.3844 3.15387 13.7548 2.69996C13.1253 2.24605 12.3691 2.00119 11.593 1.99989H4.729C4.23982 1.99845 3.75516 2.09355 3.3028 2.27975C2.85045 2.46595 2.43928 2.73958 2.09286 3.08497C1.74645 3.43037 1.4716 3.84072 1.28406 4.29253C1.09653 4.74434 0.999998 5.22871 1 5.71789V6.56489C1.47822 5.93501 2.09514 5.42378 2.80288 5.07087C3.51062 4.71795 4.29015 4.53284 5.081 4.52989H5.059ZM19.634 16.1349H21.977C22.2483 16.1349 22.5085 16.0271 22.7004 15.8353C22.8922 15.6434 23 15.3832 23 15.1119V12.6479C23 12.3766 22.8922 12.1164 22.7004 11.9245C22.5085 11.7327 22.2483 11.6249 21.977 11.6249H19.634C19.3404 11.6248 19.0498 11.6835 18.7792 11.7975C18.5086 11.9114 18.2636 12.0784 18.0586 12.2886C17.8536 12.4987 17.6927 12.7478 17.5854 13.0211C17.4781 13.2944 17.4267 13.5864 17.434 13.8799C17.4267 14.1734 17.4781 14.4654 17.5854 14.7387C17.6927 15.012 17.8536 15.2611 18.0586 15.4712C18.2636 15.6814 18.5086 15.8483 18.7792 15.9623C19.0498 16.0763 19.3404 16.135 19.634 16.1349ZM17.434 13.9349C17.434 14.5184 17.6658 15.0779 18.0784 15.4905C18.4909 15.9031 19.0505 16.1349 19.634 16.1349H20.8V11.6249H19.634C19.3367 11.6189 19.0413 11.6731 18.7656 11.7845C18.4899 11.8958 18.2396 12.0618 18.0299 12.2726C17.8201 12.4834 17.6553 12.7345 17.5453 13.0107C17.4353 13.287 17.3825 13.5827 17.39 13.8799L17.434 13.9349ZM16.334 13.9349C16.334 14.8101 16.6817 15.6495 17.3005 16.2683C17.9194 16.8872 18.7588 17.2349 19.634 17.2349H20.8V18.0489C20.8 19.1293 20.3716 20.1657 19.6086 20.9307C18.8456 21.6957 17.8104 22.127 16.73 22.1299H5.081C3.99865 22.1299 2.96063 21.6999 2.1953 20.9346C1.42996 20.1693 1 19.1312 1 18.0489V9.71089C1 8.62855 1.42996 7.59053 2.1953 6.82519C2.96063 6.05986 3.99865 5.62989 5.081 5.62989H16.763C17.8377 5.64148 18.8645 6.07655 19.6203 6.84064C20.3761 7.60472 20.8001 8.63613 20.8 9.71089V10.5249H19.634C19.1923 10.5189 18.7539 10.6017 18.3447 10.7684C17.9356 10.935 17.5641 11.1821 17.2523 11.495C16.9404 11.8079 16.6945 12.1802 16.5292 12.5898C16.364 12.9995 16.2826 13.4382 16.29 13.8799L16.334 13.9349ZM12.748 10.5579C12.748 10.3391 12.6611 10.1292 12.5064 9.97453C12.3516 9.81981 12.1418 9.73289 11.923 9.73289H5.103C4.8842 9.73289 4.67435 9.81981 4.51964 9.97453C4.36492 10.1292 4.278 10.3391 4.278 10.5579C4.278 10.7767 4.36492 10.9865 4.51964 11.1413C4.67435 11.296 4.8842 11.3829 5.103 11.3829H11.879C11.9921 11.3831 12.1041 11.3601 12.208 11.3153C12.3118 11.2704 12.4053 11.2047 12.4827 11.1221C12.5601 11.0396 12.6196 10.9421 12.6577 10.8355C12.6958 10.729 12.7115 10.6158 12.704 10.5029L12.748 10.5579Z" fill="black"/>
</svg>
