<svg width="24" height="24" viewBox="0 0 24 24" fill="none" xmlns="http://www.w3.org/2000/svg">
<path d="M9.30474 3.0001H15.4432C15.7343 3.00377 16.0195 3.08221 16.2715 3.2279C16.5235 3.3736 16.7339 3.58164 16.8823 3.83206L23.403 15.0747C23.4665 15.1799 23.5 15.3004 23.5 15.4232C23.5 15.546 23.4665 15.6665 23.403 15.7717L19.6704 21.1569C19.6126 21.244 19.534 21.3152 19.4418 21.3643C19.3495 21.4133 19.2465 21.4387 19.142 21.438H12.5876C12.4829 21.4397 12.3795 21.4148 12.2871 21.3657C12.1947 21.3165 12.1163 21.2447 12.0592 21.1569L8.6864 16.2889C8.61907 16.1916 8.57948 16.0778 8.57188 15.9597C8.56428 15.8416 8.58895 15.7237 8.64325 15.6186C8.69754 15.5135 8.77942 15.4251 8.88011 15.3629C8.98079 15.3008 9.09649 15.2672 9.2148 15.2658H14.229C14.3423 15.2634 14.453 15.2315 14.5502 15.1733C14.6474 15.1151 14.7278 15.0326 14.7834 14.9339C14.839 14.8351 14.868 14.7236 14.8673 14.6103C14.8667 14.497 14.8366 14.3858 14.7799 14.2877L8.74261 3.98946C8.68265 3.89025 8.65022 3.77686 8.64866 3.66095C8.6471 3.54504 8.67646 3.43082 8.73373 3.33003C8.79099 3.22925 8.87408 3.14555 8.97445 3.08756C9.07482 3.02957 9.18883 2.99938 9.30474 3.0001ZM4.87515 9.50958L1.1426 14.9623C1.04976 15.0959 1 15.2548 1 15.4176C1 15.5803 1.04976 15.7392 1.1426 15.8729L4.38048 20.37C4.4602 20.4768 4.56542 20.5621 4.68655 20.6178C4.80768 20.6736 4.94085 20.6981 5.0739 20.6892C5.20694 20.6802 5.33563 20.6381 5.4482 20.5666C5.56078 20.4952 5.65365 20.3966 5.71835 20.28L11.4858 10.4652C11.5637 10.3349 11.6055 10.1862 11.6069 10.0343C11.6082 9.88252 11.5691 9.73308 11.4935 9.60139C11.418 9.46971 11.3087 9.36054 11.1769 9.28512C11.0451 9.2097 10.8956 9.17076 10.7438 9.1723H5.50474C5.38063 9.17489 5.2589 9.20679 5.14948 9.26541C5.04006 9.32402 4.94606 9.40769 4.87515 9.50958Z" fill="black"/>
</svg>
