<svg width="24" height="24" viewBox="0 0 24 24" fill="none" xmlns="http://www.w3.org/2000/svg">
<path d="M14.1498 20.6033C14.1498 21.0279 14.0239 21.4429 13.788 21.7959C13.5521 22.149 13.2169 22.4241 12.8246 22.5866C12.4323 22.7491 12.0007 22.7916 11.5843 22.7088C11.1679 22.6259 10.7854 22.4215 10.4851 22.1212C10.1849 21.821 9.98045 21.4385 9.89762 21.0221C9.81479 20.6057 9.8573 20.174 10.0198 19.7818C10.1823 19.3895 10.4574 19.0542 10.8104 18.8183C11.1635 18.5825 11.5785 18.4566 12.0031 18.4566C12.5724 18.4566 13.1185 18.6827 13.5211 19.0853C13.9236 19.4879 14.1498 20.0339 14.1498 20.6033ZM8.3322 14.9896L9.26602 16.4172C10.0772 15.8785 11.0293 15.5912 12.0031 15.5912C12.9768 15.5912 13.9289 15.8785 14.7402 16.4172L15.674 14.9896C15.758 14.8619 15.8138 14.7178 15.8376 14.5668C15.8614 14.4158 15.8527 14.2614 15.8121 14.1141C15.7714 13.9667 15.6998 13.8298 15.6019 13.7124C15.5041 13.5949 15.3822 13.4998 15.2446 13.4332C14.2317 12.9796 13.1344 12.7451 12.0246 12.7451C10.9147 12.7451 9.81739 12.9796 8.80448 13.4332C8.66328 13.4957 8.53723 13.5879 8.43491 13.7035C8.33259 13.8191 8.25642 13.9554 8.21159 14.1032C8.16676 14.2509 8.15432 14.4066 8.17514 14.5595C8.19595 14.7125 8.24952 14.8592 8.3322 14.9896ZM2.05303 5.32935L3.00833 6.79986C5.68128 5.04841 8.80743 4.11543 12.0031 4.11543C15.1988 4.11543 18.3249 5.04841 20.9979 6.79986L21.9531 5.32935C22.035 5.20504 22.0902 5.06507 22.115 4.91831C22.1399 4.77155 22.134 4.62123 22.0977 4.47688C22.0613 4.33253 21.9953 4.19732 21.9039 4.07984C21.8125 3.96236 21.6977 3.86517 21.5667 3.79445C18.6552 2.12715 15.3583 1.25 12.0031 1.25C8.64791 1.25 5.35103 2.12715 2.43944 3.79445C2.30379 3.86475 2.1847 3.96321 2.09016 4.08324C1.99561 4.20327 1.92778 4.3421 1.8912 4.49045C1.85462 4.63881 1.85013 4.79326 1.87804 4.94348C1.90595 5.0937 1.96561 5.23624 2.05303 5.36155V5.32935ZM5.18725 10.138L6.14254 11.587C7.88597 10.4508 9.92209 9.84589 12.0031 9.84589C14.0841 9.84589 16.1202 10.4508 17.8636 11.587L18.8189 10.138C18.8977 10.0151 18.9505 9.87744 18.9742 9.73343C18.9979 9.58942 18.992 9.44208 18.9569 9.30042C18.9217 9.15877 18.858 9.02577 18.7697 8.90956C18.6814 8.79336 18.5703 8.69638 18.4433 8.62457C16.4656 7.55361 14.2521 6.99275 12.0031 6.99275C9.75408 6.99275 7.54057 7.55361 5.56293 8.62457C5.43128 8.69612 5.31608 8.79444 5.22473 8.9132C5.13337 9.03196 5.0679 9.16853 5.03251 9.31412C4.99713 9.45972 4.99261 9.6111 5.01926 9.75855C5.04591 9.90599 5.10313 10.0462 5.18725 10.1702V10.138Z" fill="black"/>
</svg>
