<svg width="24" height="24" viewBox="0 0 24 24" fill="none" xmlns="http://www.w3.org/2000/svg">
<path d="M1.71079 6.20639C1.63021 6.1052 1.57073 5.98888 1.53586 5.86432C1.50098 5.73975 1.49142 5.60946 1.50773 5.48114C1.52404 5.35281 1.5659 5.22906 1.63083 5.11718C1.69577 5.0053 1.78246 4.90757 1.88579 4.82975C1.97912 4.75975 11.569 -2.3568 22.0688 4.82975C22.1775 4.90221 22.2704 4.99591 22.3419 5.10522C22.4135 5.21453 22.4621 5.33718 22.485 5.4658C22.5079 5.59441 22.5045 5.72632 22.4751 5.8536C22.4457 5.98088 22.3908 6.10088 22.3138 6.20639C22.2198 6.33797 22.0954 6.44487 21.9511 6.518C21.8069 6.59113 21.6472 6.62831 21.4855 6.62639C21.2781 6.62627 21.0753 6.56544 20.9021 6.45139C18.3015 4.61493 15.196 3.62895 12.0123 3.62895C8.8286 3.62895 5.72305 4.61493 3.12243 6.45139C2.90162 6.6026 2.63049 6.66161 2.36681 6.61585C2.10313 6.57008 1.86774 6.42317 1.71079 6.20639ZM17.6822 11.4213C17.8426 11.4227 18.001 11.3864 18.1448 11.3155C18.2887 11.2446 18.4139 11.141 18.5105 11.013C18.643 10.8037 18.6902 10.5516 18.6424 10.3085C18.5947 10.0655 18.4556 9.84998 18.2538 9.70633C16.4128 8.43295 14.2275 7.75081 11.9889 7.75081C9.75044 7.75081 7.56508 8.43295 5.72405 9.70633C5.61972 9.78203 5.53198 9.87828 5.46623 9.98915C5.40048 10.1 5.3581 10.2232 5.34171 10.351C5.32532 10.4789 5.33526 10.6087 5.37092 10.7326C5.40657 10.8565 5.4672 10.9717 5.54906 11.0713C5.71622 11.2771 5.95653 11.4103 6.21966 11.4429C6.48279 11.4755 6.74834 11.4051 6.9607 11.2463C8.45044 10.2163 10.2186 9.66451 12.0298 9.66451C13.8409 9.66451 15.6091 10.2163 17.0989 11.2463C17.2698 11.3651 17.4741 11.4264 17.6822 11.4213ZM9.14233 14.7929C9.05132 14.883 8.97908 14.9902 8.92977 15.1083C8.88047 15.2265 8.85508 15.3532 8.85508 15.4812C8.85508 15.6093 8.88047 15.736 8.92977 15.8542C8.97908 15.9723 9.05132 16.0795 9.14233 16.1696C9.3274 16.3589 9.57783 16.4705 9.8424 16.4813C10.107 16.4921 10.3657 16.4015 10.5656 16.2279C10.9784 15.8508 11.5173 15.6417 12.0764 15.6417C12.6356 15.6417 13.1745 15.8508 13.5873 16.2279C13.7687 16.3758 13.9948 16.458 14.2289 16.4612C14.3768 16.4634 14.5234 16.4332 14.6585 16.3727C14.7935 16.3122 14.9137 16.223 15.0106 16.1112C15.0952 16.0136 15.1593 15.8999 15.1988 15.7769C15.2383 15.6539 15.2525 15.5241 15.2405 15.3955C15.2285 15.2668 15.1906 15.142 15.129 15.0284C15.0674 14.9148 14.9835 14.8148 14.8822 14.7346C14.0858 14.0366 13.0601 13.6567 12.0011 13.6674C10.9422 13.6782 9.9244 14.0789 9.14233 14.7929ZM21.4855 20.4162H3.1691C2.90919 20.4162 2.65993 20.5194 2.47614 20.7032C2.29236 20.887 2.18911 21.1362 2.18911 21.3961C2.18911 21.656 2.29236 21.9053 2.47614 22.0891C2.65993 22.2729 2.90919 22.3761 3.1691 22.3761H21.4855C21.7454 22.3761 21.9946 22.2729 22.1784 22.0891C22.3622 21.9053 22.4654 21.656 22.4654 21.3961C22.4654 21.1362 22.3622 20.887 22.1784 20.7032C21.9946 20.5194 21.7454 20.4162 21.4855 20.4162Z" fill="black"/>
</svg>
