<svg width="24" height="24" viewBox="0 0 24 24" fill="none" xmlns="http://www.w3.org/2000/svg">
<path d="M20.793 7.62269L17.6988 10.717C17.456 10.9636 17.1429 11.129 16.8025 11.1905C16.462 11.2521 16.1108 11.2068 15.7971 11.0608C14.5337 10.4658 13.5187 9.44698 12.9284 8.18138C12.7792 7.86835 12.7321 7.51636 12.7938 7.17512C12.8555 6.83389 13.0229 6.52066 13.2722 6.27969L16.3558 3.18541C16.5057 3.02519 16.6067 2.82539 16.6468 2.60961C16.6868 2.39384 16.6643 2.1711 16.5818 1.96773C16.4993 1.76435 16.3604 1.58884 16.1813 1.46192C16.0023 1.335 15.7907 1.26198 15.5714 1.25148C14.5149 1.23017 13.4663 1.43866 12.4982 1.86253C11.5301 2.28641 10.6657 2.91554 9.96477 3.70642C9.26382 4.49729 8.74306 5.43101 8.43853 6.44298C8.134 7.45494 8.05297 8.52099 8.20104 9.56736C8.26655 10.0644 8.2152 10.5699 8.05107 11.0437C7.88693 11.5174 7.61455 11.9463 7.25557 12.2963L2.25959 17.2816C1.65839 17.8496 1.29856 18.627 1.25457 19.453C1.21057 20.2789 1.48577 21.0902 2.02323 21.7189C2.30732 22.0358 2.65314 22.2914 3.0395 22.47C3.42586 22.6486 3.84462 22.7464 4.27011 22.7575C4.69561 22.7686 5.11889 22.6926 5.51401 22.5344C5.90912 22.3761 6.26776 22.1388 6.56795 21.837L11.6821 16.7336C12.0311 16.3727 12.4596 16.0983 12.9333 15.9323C13.4071 15.7663 13.9132 15.7133 14.4111 15.7774C15.4591 15.9289 16.5275 15.8504 17.5421 15.5475C18.5567 15.2445 19.4932 14.7243 20.2866 14.023C21.0799 13.3216 21.7111 12.456 22.1362 11.4862C22.5613 10.5164 22.7703 9.46567 22.7485 8.40701C22.7416 8.18351 22.6698 7.96686 22.5417 7.78358C22.4136 7.6003 22.2349 7.45835 22.0273 7.37511C21.8198 7.29188 21.5925 7.27096 21.3733 7.31494C21.1541 7.35891 20.9524 7.46586 20.793 7.62269ZM11.0052 14.4559L5.07453 20.3866C4.87472 20.5771 4.60925 20.6833 4.33319 20.6833C4.05713 20.6833 3.79167 20.5771 3.59185 20.3866C3.4045 20.1873 3.3002 19.9241 3.3002 19.6506C3.3002 19.3771 3.4045 19.1139 3.59185 18.9147L9.5333 12.9732C9.73256 12.7859 9.99576 12.6816 10.2693 12.6816C10.5428 12.6816 10.806 12.7859 11.0052 12.9732C11.1957 13.173 11.302 13.4385 11.302 13.7146C11.302 13.9906 11.1957 14.2561 11.0052 14.4559Z" fill="black"/>
</svg>
