<svg width="24" height="24" viewBox="0 0 24 24" fill="none" xmlns="http://www.w3.org/2000/svg">
<path d="M1.63699 2.96195C3.0779 2.38832 4.63829 2.17986 6.17925 2.35514C7.72021 2.53043 9.19392 3.08401 10.4692 3.96662C12.2477 5.3222 13.7183 7.03966 14.7841 9.00557C15.8498 10.9715 16.4864 13.1411 16.6517 15.3712C16.6517 15.3712 15.2717 12.7547 10.5244 11.6065C5.77708 10.4583 1.21746 8.94577 1.63699 2.96195ZM12.3239 14.0022C11.8713 14.6757 11.3303 15.4043 10.6789 16.2102C9.89316 17.1338 9.34064 18.2326 9.06783 19.4141C8.79502 20.5956 8.8099 21.8254 9.11123 23C10.6355 22.9139 12.1048 22.4002 13.3505 21.5176C14.5963 20.635 15.5682 19.4193 16.1549 18.0098C15.814 17.1171 15.3 16.3006 14.6426 15.6072C13.9852 14.9138 13.1972 14.3571 12.3239 13.9691V14.0022ZM18.109 14.0684C18.2676 14.0207 18.4093 13.9288 18.5175 13.8035C20.9795 10.9882 25.0644 5.0596 19.8755 1.18447C19.7688 1.10605 19.6469 1.05081 19.5176 1.02229C19.3883 0.99377 19.2545 0.992606 19.1247 1.01887C18.1416 1.17881 17.226 1.62073 16.4891 2.29098C15.7522 2.96122 15.2257 3.83097 14.9736 4.79464C14.8731 5.19229 14.8139 5.59925 14.797 6.00906C16.5179 8.38618 17.6528 11.1363 18.109 14.0353V14.0684Z" fill="black"/>
</svg>
