<svg width="24" height="24" viewBox="0 0 24 24" fill="none" xmlns="http://www.w3.org/2000/svg">
<path d="M8.48475 5.56999C7.82087 5.20143 7.13105 4.88167 6.42075 4.61324C7.4893 3.45279 8.67043 2.4013 9.94675 1.47424C10.6231 1.34087 11.3106 1.27247 12 1.26999C12.7001 1.27193 13.3984 1.34032 14.0855 1.47424C12.0111 2.53047 10.1201 3.91337 8.48475 5.56999ZM12 8.14999C14.0354 6.22061 16.5118 4.81822 19.2132 4.06499C18.5631 3.4654 17.8409 2.94902 17.0632 2.52774C14.5606 3.45851 12.2796 4.90106 10.366 6.76324C10.9368 7.19383 11.4823 7.65684 12 8.14999ZM6.625 20.62C6.625 20.8493 6.625 21.0751 6.625 21.2972C5.78004 20.8235 5.00567 20.2337 4.3245 19.545C4.04992 18.4965 3.38954 17.5904 2.4755 17.008C2.02926 16.1606 1.70017 15.2565 1.49725 14.3205C2.94457 14.6236 4.24379 15.4149 5.17729 16.5617C6.1108 17.7085 6.6219 19.1413 6.625 20.62ZM10.5273 9.71949C8.49117 7.77281 5.94562 6.44227 3.185 5.88174C2.75825 6.50913 2.39798 7.17924 2.11 7.88124C4.82085 8.2831 7.33077 9.5456 9.2695 11.4825C9.64808 10.8668 10.0683 10.2778 10.5273 9.71949ZM1.45425 9.95599C1.32033 10.6359 1.25193 11.327 1.25 12.02V12.0845C2.46922 12.2387 3.64124 12.6523 4.6871 13.2976C5.73296 13.943 6.62837 14.8049 7.313 15.8255C7.55051 15.0243 7.84509 14.2411 8.1945 13.482C6.45695 11.5189 4.05775 10.2638 1.45425 9.95599ZM10.925 20.62C10.9298 17.5319 12.0423 14.5479 14.0603 12.2104C16.0783 9.87281 18.8679 8.33673 21.9223 7.88124C21.6343 7.17582 21.2741 6.50214 20.8472 5.87099C17.4419 6.55835 14.3792 8.40263 12.1788 11.0909C9.97843 13.7792 8.7758 17.146 8.775 20.62C8.775 21.1897 8.775 21.7487 8.87175 22.3077C9.60075 22.5237 10.35 22.6642 11.1078 22.727C10.9922 22.0305 10.9311 21.326 10.925 20.62ZM19.6755 19.545C19.9501 18.4965 20.6105 17.5904 21.5245 17.008C21.9707 16.1606 22.2998 15.2565 22.5028 14.3205C21.0554 14.6236 19.7562 15.4149 18.8227 16.5617C17.8892 17.7085 17.3781 19.1413 17.375 20.62C17.375 20.8493 17.375 21.0751 17.375 21.2972C18.22 20.8235 18.9943 20.2337 19.6755 19.545ZM15.225 20.62C15.2269 18.5266 15.9923 16.5059 17.3776 14.9365C18.7629 13.3671 20.6731 12.3569 22.75 12.0952V12.02C22.7481 11.327 22.6797 10.6359 22.5457 9.95599C21.079 10.1326 19.6644 10.6097 18.3903 11.3574C17.1161 12.105 16.0098 13.1073 15.1402 14.3017C14.2707 15.496 13.6567 16.8567 13.3365 18.299C13.0163 19.7412 12.9968 21.2339 13.2793 22.684C14.0102 22.6063 14.7309 22.4513 15.4292 22.2217C15.3117 21.6953 15.2433 21.1591 15.225 20.62Z" fill="black"/>
</svg>
