<svg width="24" height="24" viewBox="0 0 24 24" fill="none" xmlns="http://www.w3.org/2000/svg">
<path d="M23 12C23 14.1756 22.3549 16.3023 21.1462 18.1113C19.9375 19.9202 18.2195 21.3301 16.2095 22.1627C14.1995 22.9952 11.9878 23.2131 9.85401 22.7886C7.72022 22.3642 5.76021 21.3165 4.22183 19.7782C2.68345 18.2398 1.6358 16.2798 1.21137 14.146C0.78693 12.0122 1.00477 9.80047 1.83733 7.79048C2.66989 5.78049 4.07979 4.06253 5.88873 2.85383C7.69767 1.64514 9.82441 1 12 1C13.4445 1 14.8749 1.28452 16.2095 1.83732C17.5441 2.39013 18.7567 3.20038 19.7782 4.22182C20.7996 5.24327 21.6099 6.4559 22.1627 7.79048C22.7155 9.12506 23 10.5555 23 12ZM12 5.4C10.6946 5.4 9.4186 5.78708 8.33324 6.5123C7.24787 7.23752 6.40194 8.26829 5.9024 9.47429C5.40286 10.6803 5.27216 12.0073 5.52682 13.2876C5.78148 14.5679 6.41007 15.7439 7.3331 16.6669C8.25612 17.5899 9.43213 18.2185 10.7124 18.4732C11.9927 18.7278 13.3197 18.5971 14.5257 18.0976C15.7317 17.5981 16.7625 16.7521 17.4877 15.6668C18.2129 14.5814 18.6 13.3054 18.6 12C18.6 10.2496 17.9046 8.57083 16.6669 7.33309C15.4292 6.09535 13.7504 5.4 12 5.4Z" fill="black"/>
</svg>
