<svg width="24" height="24" viewBox="0 0 24 24" fill="none" xmlns="http://www.w3.org/2000/svg">
<path d="M12 1C9.82441 1 7.69767 1.64514 5.88873 2.85383C4.07979 4.06253 2.66989 5.78049 1.83733 7.79048C1.00477 9.80047 0.78693 12.0122 1.21137 14.146C1.6358 16.2798 2.68345 18.2398 4.22183 19.7782C5.76021 21.3165 7.72022 22.3642 9.85401 22.7886C11.9878 23.2131 14.1995 22.9952 16.2095 22.1627C18.2195 21.3301 19.9375 19.9202 21.1462 18.1113C22.3549 16.3023 23 14.1756 23 12C23 10.5555 22.7155 9.12506 22.1627 7.79048C21.6099 6.4559 20.7996 5.24327 19.7782 4.22182C18.7567 3.20038 17.5441 2.39013 16.2095 1.83732C14.8749 1.28452 13.4445 1 12 1ZM16.4 15.3C16.4 15.5917 16.2841 15.8715 16.0778 16.0778C15.8715 16.2841 15.5917 16.4 15.3 16.4H8.7C8.40826 16.4 8.12848 16.2841 7.92219 16.0778C7.7159 15.8715 7.6 15.5917 7.6 15.3V8.7C7.6 8.40826 7.7159 8.12847 7.92219 7.92218C8.12848 7.71589 8.40826 7.6 8.7 7.6H15.3C15.5917 7.6 15.8715 7.71589 16.0778 7.92218C16.2841 8.12847 16.4 8.40826 16.4 8.7V15.3Z" fill="black"/>
</svg>
