<svg width="24" height="24" viewBox="0 0 24 24" fill="none" xmlns="http://www.w3.org/2000/svg">
<path d="M21.1519 9.46173H11.9945V1.35197C11.9608 1.10233 11.8524 0.868195 11.6831 0.679371C11.5139 0.490546 11.2913 0.355567 11.0439 0.291609C10.7965 0.227652 10.5353 0.237609 10.2936 0.320213C10.0519 0.402817 9.84069 0.554333 9.68675 0.755479L1.71543 12.6473C1.60525 12.8402 1.54825 13.0582 1.55009 13.2795C1.55194 13.5009 1.61256 13.7179 1.72594 13.9091C1.83932 14.1002 2.00153 14.2589 2.19644 14.3692C2.39136 14.4796 2.61221 14.5379 2.83707 14.5383H11.9945V22.648C12.0282 22.8977 12.1366 23.1318 12.3059 23.3206C12.4751 23.5095 12.6976 23.6444 12.9451 23.7084C13.1925 23.7724 13.4537 23.7624 13.6954 23.6798C13.9371 23.5972 14.1483 23.4457 14.3022 23.2445L22.2736 11.3527C22.3837 11.1598 22.4407 10.9418 22.4389 10.7205C22.4371 10.4991 22.3764 10.2821 22.263 10.0909C22.1497 9.89977 21.9875 9.74113 21.7925 9.63076C21.5976 9.52038 21.3768 9.46211 21.1519 9.46173Z" fill="black"/>
</svg>
