<svg width="24" height="24" viewBox="0 0 24 24" fill="none" xmlns="http://www.w3.org/2000/svg">
<path d="M13.0995 23H10.8995C10.6077 23 10.3279 22.8841 10.1216 22.6778C9.91536 22.4715 9.79947 22.1917 9.79947 21.9V18.6C9.79947 18.3083 9.91536 18.0285 10.1216 17.8222C10.3279 17.6159 10.6077 17.5 10.8995 17.5H13.0995C13.3912 17.5 13.671 17.6159 13.8773 17.8222C14.0836 18.0285 14.1995 18.3083 14.1995 18.6V21.9C14.1995 22.1917 14.0836 22.4715 13.8773 22.6778C13.671 22.8841 13.3912 23 13.0995 23ZM18.8195 10.603L21.6685 8.953C21.9201 8.80789 22.1041 8.56916 22.1803 8.28889C22.2566 8.00863 22.2189 7.70958 22.0755 7.457L20.9755 5.543C20.9027 5.41787 20.8059 5.30834 20.6907 5.22068C20.5755 5.13302 20.4442 5.06896 20.3042 5.03217C20.1642 4.99538 20.0183 4.98659 19.8749 5.00629C19.7315 5.026 19.5934 5.07381 19.4685 5.147L16.6195 6.797C16.3679 6.94211 16.1839 7.18084 16.1076 7.46111C16.0314 7.74137 16.0691 8.04042 16.2125 8.293L17.3125 10.207C17.3852 10.3321 17.482 10.4417 17.5972 10.5293C17.7124 10.617 17.8438 10.681 17.9838 10.7178C18.1238 10.7546 18.2697 10.7634 18.4131 10.7437C18.5565 10.724 18.6946 10.6762 18.8195 10.603ZM7.37947 6.797L4.53047 5.147C4.40557 5.07381 4.26747 5.026 4.12406 5.00629C3.98065 4.98659 3.83476 4.99538 3.69476 5.03217C3.55476 5.06896 3.4234 5.13302 3.3082 5.22068C3.19301 5.30834 3.09625 5.41787 3.02347 5.543L1.92347 7.457C1.78006 7.70958 1.74236 8.00863 1.81861 8.28889C1.89486 8.56916 2.07886 8.80789 2.33047 8.953L5.17947 10.603C5.30436 10.6762 5.44247 10.724 5.58587 10.7437C5.72928 10.7634 5.87517 10.7546 6.01517 10.7178C6.15517 10.681 6.28653 10.617 6.40173 10.5293C6.51693 10.4417 6.61369 10.3321 6.68647 10.207L7.78647 8.293C7.92988 8.04042 7.96757 7.74137 7.89132 7.46111C7.81507 7.18084 7.63107 6.94211 7.37947 6.797ZM13.0995 6.5H10.8995C10.6077 6.5 10.3279 6.38411 10.1216 6.17782C9.91536 5.97153 9.79947 5.69174 9.79947 5.4V2.1C9.79947 1.80826 9.91536 1.52847 10.1216 1.32218C10.3279 1.11589 10.6077 1 10.8995 1H13.0995C13.3912 1 13.671 1.11589 13.8773 1.32218C14.0836 1.52847 14.1995 1.80826 14.1995 2.1V5.4C14.1995 5.69174 14.0836 5.97153 13.8773 6.17782C13.671 6.38411 13.3912 6.5 13.0995 6.5ZM4.53047 18.853L7.37947 17.203C7.63107 17.0579 7.81507 16.8192 7.89132 16.5389C7.96757 16.2586 7.92988 15.9596 7.78647 15.707L6.68647 13.793C6.61369 13.6679 6.51693 13.5583 6.40173 13.4707C6.28653 13.383 6.15517 13.319 6.01517 13.2822C5.87517 13.2454 5.72928 13.2366 5.58587 13.2563C5.44247 13.276 5.30436 13.3238 5.17947 13.397L2.33047 15.047C2.07886 15.1921 1.89486 15.4308 1.81861 15.7111C1.74236 15.9914 1.78006 16.2904 1.92347 16.543L3.02347 18.457C3.09625 18.5821 3.19301 18.6917 3.3082 18.7793C3.4234 18.867 3.55476 18.931 3.69476 18.9678C3.83476 19.0046 3.98065 19.0134 4.12406 18.9937C4.26747 18.974 4.40557 18.9262 4.53047 18.853ZM21.6685 15.047L18.8195 13.397C18.6946 13.3238 18.5565 13.276 18.4131 13.2563C18.2697 13.2366 18.1238 13.2454 17.9838 13.2822C17.8438 13.319 17.7124 13.383 17.5972 13.4707C17.482 13.5583 17.3852 13.6679 17.3125 13.793L16.2125 15.707C16.0691 15.9596 16.0314 16.2586 16.1076 16.5389C16.1839 16.8192 16.3679 17.0579 16.6195 17.203L19.4685 18.853C19.5934 18.9262 19.7315 18.974 19.8749 18.9937C20.0183 19.0134 20.1642 19.0046 20.3042 18.9678C20.4442 18.931 20.5755 18.867 20.6907 18.7793C20.8059 18.6917 20.9027 18.5821 20.9755 18.457L22.0755 16.543C22.2189 16.2904 22.2566 15.9914 22.1803 15.7111C22.1041 15.4308 21.9201 15.1921 21.6685 15.047Z" fill="black"/>
</svg>
