<svg width="24" height="24" viewBox="0 0 24 24" fill="none" xmlns="http://www.w3.org/2000/svg">
<path d="M12.0001 1C13.931 1.00008 15.8279 1.50845 17.5001 2.47401L15.1791 6.50003H8.82104L6.50003 2.47401C8.17223 1.50845 10.0691 1.00008 12.0001 1ZM23.0001 12.0001C23.0001 13.9309 22.4918 15.8278 21.5263 17.4999C20.5609 19.1721 19.1723 20.5607 17.5001 21.5261L15.1791 17.5001L18.3471 12.0001H23.0001ZM5.65303 12.0001L8.82104 17.5001L6.50003 21.5261C4.82785 20.5607 3.43925 19.1721 2.4738 17.4999C1.50834 15.8278 1.00005 13.9309 1 12.0001H5.65303ZM18.3471 10.9001H22.9341C22.7756 9.35259 22.2907 7.85634 21.5114 6.51008C20.7321 5.16381 19.6761 3.99814 18.4131 3.09001L16.1361 7.05003L15.8171 7.60004L17.7091 10.9001H18.3471ZM14.2001 18.0501L13.8921 17.5001H10.0861L9.77805 18.0501L7.49004 22.0211C8.90607 22.6662 10.444 23 12.0001 23C13.5561 23 15.0941 22.6662 16.5101 22.0211L14.2001 18.0501ZM5.65303 10.9001H6.29103L8.18304 7.60004L7.86404 7.05003L5.58703 3.09001C4.32406 3.99814 3.26807 5.16381 2.48875 6.51008C1.70943 7.85634 1.22451 9.35259 1.066 10.9001H5.65303Z" fill="black"/>
</svg>
