<svg width="24" height="24" viewBox="0 0 24 24" fill="none" xmlns="http://www.w3.org/2000/svg">
<path d="M1.22 9.82224C1.69451 7.45962 2.928 5.31788 4.73177 3.72467C6.53555 2.13145 8.81029 1.17449 11.208 1.00018L8.546 3.6468L11.054 6.54705C10.2371 6.69186 9.46353 7.02004 8.79109 7.50702C8.11865 7.99399 7.5648 8.62714 7.171 9.35908L3.794 12.4027L1.22 9.82224ZM20.184 11.5205L16.983 14.2333C16.6148 15.0524 16.0526 15.769 15.3452 16.3206C14.6377 16.8722 13.8066 17.2421 12.924 17.3982L15.454 20.2874L12.781 23.0002C15.1807 22.8282 17.4579 21.8723 19.2639 20.2789C21.0699 18.6855 22.305 16.5425 22.78 14.1781L20.184 11.5205ZM14.2 1.1656C16.5567 1.64129 18.6931 2.87787 20.2823 4.68617C21.8716 6.49447 22.8261 8.77491 23 11.1786L20.316 8.52098L17.412 10.9912C17.2524 10.1383 16.8942 9.33531 16.3667 8.6474C15.8391 7.95949 15.1571 7.40611 14.376 7.03226L11.56 3.72399L14.2 1.1656ZM12.44 20.1992L9.536 16.8909C8.75996 16.5001 8.08725 15.9307 7.57295 15.2292C7.05864 14.5276 6.71734 13.714 6.577 12.8548L3.706 15.4463L1 12.7666C1.17387 15.1703 2.12844 17.4508 3.71767 19.2591C5.3069 21.0674 7.44328 22.3039 9.8 22.7796L12.44 20.1992Z" fill="black"/>
</svg>
