<svg width="24" height="24" viewBox="0 0 24 24" fill="none" xmlns="http://www.w3.org/2000/svg">
<path d="M11.9437 4.51991L18.4225 8.25981V15.7396L11.9437 19.4795L5.46488 15.7396V8.25981L11.9437 4.51991ZM11.9437 1C11.6205 1.00315 11.303 1.08629 11.0197 1.24199L3.14395 5.82887C2.86307 5.98975 2.62968 6.22198 2.46743 6.50207C2.30517 6.78215 2.2198 7.10014 2.21997 7.42383V16.5756C2.2198 16.8993 2.30517 17.2173 2.46743 17.4973C2.62968 17.7774 2.86307 18.0097 3.14395 18.1705L11.0747 22.7574C11.3567 22.9164 11.675 23 11.9987 23C12.3224 23 12.6407 22.9164 12.9227 22.7574L20.8535 18.1705C21.1343 18.0097 21.3677 17.7774 21.53 17.4973C21.6922 17.2173 21.7776 16.8993 21.7774 16.5756V7.42383C21.7776 7.10014 21.6922 6.78215 21.53 6.50207C21.3677 6.22198 21.1343 5.98975 20.8535 5.82887L12.8677 1.24199C12.5844 1.08629 12.267 1.00315 11.9437 1ZM11.9437 10.1628C11.5804 10.1628 11.2252 10.2705 10.9232 10.4723C10.6211 10.6742 10.3856 10.9611 10.2466 11.2967C10.1076 11.6324 10.0712 12.0017 10.1421 12.3581C10.2129 12.7144 10.3879 13.0417 10.6448 13.2986C10.9017 13.5555 11.229 13.7305 11.5853 13.8014C11.9417 13.8722 12.311 13.8359 12.6467 13.6968C12.9823 13.5578 13.2692 13.3223 13.4711 13.0203C13.6729 12.7182 13.7807 12.363 13.7807 11.9997C13.7807 11.7585 13.7331 11.5196 13.6408 11.2967C13.5485 11.0739 13.4132 10.8714 13.2426 10.7008C13.0721 10.5302 12.8695 10.3949 12.6467 10.3026C12.4238 10.2103 12.1849 10.1628 11.9437 10.1628Z" fill="black"/>
</svg>
