<svg width="24" height="24" viewBox="0 0 24 24" fill="none" xmlns="http://www.w3.org/2000/svg">
<path d="M16.6944 4.95833L22.9028 11.1667C23.0128 11.2758 23.1002 11.4056 23.1597 11.5487C23.2193 11.6917 23.25 11.8451 23.25 12C23.25 12.1549 23.2193 12.3083 23.1597 12.4513C23.1002 12.5944 23.0128 12.7242 22.9028 12.8333L19.0417 16.6944L12 9.65278L16.6944 4.95833ZM1.09715 12.8333L7.30556 19.0417L12 14.3472L4.95833 7.30556L1.09715 11.1667C0.987151 11.2758 0.899842 11.4056 0.840259 11.5487C0.780676 11.6917 0.75 11.8451 0.75 12C0.75 12.1549 0.780676 12.3083 0.840259 12.4513C0.899842 12.5944 0.987151 12.7242 1.09715 12.8333ZM19.0417 16.6944L12.8333 22.9028C12.7242 23.0128 12.5944 23.1002 12.4513 23.1597C12.3083 23.2193 12.1549 23.25 12 23.25C11.8451 23.25 11.6917 23.2193 11.5487 23.1597C11.4056 23.1002 11.2758 23.0128 11.1667 22.9028L7.30556 19.0417L14.3472 12L19.0417 16.6944ZM11.1667 1.09715L4.95833 7.30556L9.65278 12L16.6944 4.95833L12.8333 1.09715C12.7242 0.987151 12.5944 0.899842 12.4513 0.840259C12.3083 0.780676 12.1549 0.75 12 0.75C11.8451 0.75 11.6917 0.780676 11.5487 0.840259C11.4056 0.899842 11.2758 0.987151 11.1667 1.09715Z" fill="black"/>
</svg>
