<svg width="24" height="24" viewBox="0 0 24 24" fill="none" xmlns="http://www.w3.org/2000/svg">
<path d="M19.7919 23H4.19885C4.00216 22.9852 3.8129 22.9202 3.65005 22.8113C3.4872 22.7025 3.35648 22.5537 3.271 22.3799C3.18553 22.206 3.14831 22.0133 3.16307 21.8209C3.17783 21.6286 3.24405 21.4434 3.3551 21.284L10.2066 13.2C10.4166 12.9309 10.6872 12.7128 10.9975 12.5627C11.3077 12.4126 11.6492 12.3345 11.9954 12.3345C12.3415 12.3345 12.683 12.4126 12.9932 12.5627C13.3035 12.7128 13.5741 12.9309 13.7841 13.2L20.6469 21.306C20.7526 21.4658 20.8141 21.6498 20.8254 21.8399C20.8367 22.0299 20.7973 22.2196 20.7111 22.3903C20.625 22.561 20.495 22.707 20.3338 22.8138C20.1727 22.9207 19.986 22.9848 19.7919 23ZM19.7919 1H4.19885C4.00216 1.01476 3.8129 1.07982 3.65005 1.18867C3.4872 1.29752 3.35648 1.44632 3.271 1.62015C3.18553 1.79399 3.14831 1.98674 3.16307 2.17908C3.17783 2.37142 3.24405 2.55658 3.3551 2.716L10.2066 10.8C10.4166 11.0691 10.6872 11.2872 10.9975 11.4373C11.3077 11.5874 11.6492 11.6655 11.9954 11.6655C12.3415 11.6655 12.683 11.5874 12.9932 11.4373C13.3035 11.2872 13.5741 11.0691 13.7841 10.8L20.6469 2.694C20.7526 2.53415 20.8141 2.35021 20.8254 2.16015C20.8367 1.97009 20.7973 1.78042 20.7111 1.6097C20.625 1.43898 20.495 1.29305 20.3338 1.18618C20.1727 1.07931 19.986 1.01516 19.7919 1Z" fill="black"/>
</svg>
