<svg width="24" height="24" viewBox="0 0 24 24" fill="none" xmlns="http://www.w3.org/2000/svg">
<path d="M6.2 4.1C6.2 4.51534 6.07684 4.92135 5.84609 5.2667C5.61534 5.61204 5.28736 5.8812 4.90364 6.04015C4.51991 6.19909 4.09767 6.24068 3.69031 6.15965C3.28295 6.07862 2.90877 5.87861 2.61508 5.58492C2.32139 5.29123 2.12138 4.91705 2.04035 4.50969C1.95932 4.10233 2.00091 3.68009 2.15985 3.29636C2.3188 2.91264 2.58796 2.58466 2.9333 2.35391C3.27865 2.12316 3.68466 2 4.1 2C4.65696 2 5.1911 2.22125 5.58493 2.61508C5.97875 3.0089 6.2 3.54305 6.2 4.1ZM12.5 10.4C12.0847 10.4 11.6786 10.5232 11.3333 10.7539C10.988 10.9847 10.7188 11.3126 10.5599 11.6964C10.4009 12.0801 10.3593 12.5023 10.4404 12.9097C10.5214 13.317 10.7214 13.6912 11.0151 13.9849C11.3088 14.2786 11.683 14.4786 12.0903 14.5596C12.4977 14.6407 12.9199 14.5991 13.3036 14.4401C13.6874 14.2812 14.0153 14.012 14.2461 13.6667C14.4768 13.3214 14.6 12.9153 14.6 12.5C14.6 11.943 14.3788 11.4089 13.9849 11.0151C13.5911 10.6212 13.057 10.4 12.5 10.4ZM6.2 12.5C6.2 12.9153 6.07684 13.3214 5.84609 13.6667C5.61534 14.012 5.28736 14.2812 4.90364 14.4401C4.51991 14.5991 4.09767 14.6407 3.69031 14.5596C3.28295 14.4786 2.90877 14.2786 2.61508 13.9849C2.32139 13.6912 2.12138 13.317 2.04035 12.9097C1.95932 12.5023 2.00091 12.0801 2.15985 11.6964C2.3188 11.3126 2.58796 10.9847 2.9333 10.7539C3.27865 10.5232 3.68466 10.4 4.1 10.4C4.65696 10.4 5.1911 10.6212 5.58493 11.0151C5.97875 11.4089 6.2 11.943 6.2 12.5ZM23 12.5C23 12.9153 22.8768 13.3214 22.6461 13.6667C22.4153 14.012 22.0874 14.2812 21.7036 14.4401C21.3199 14.5991 20.8977 14.6407 20.4903 14.5596C20.0829 14.4786 19.7088 14.2786 19.4151 13.9849C19.1214 13.6912 18.9214 13.317 18.8403 12.9097C18.7593 12.5023 18.8009 12.0801 18.9599 11.6964C19.1188 11.3126 19.388 10.9847 19.7333 10.7539C20.0786 10.5232 20.4847 10.4 20.9 10.4C21.457 10.4 21.9911 10.6212 22.3849 11.0151C22.7787 11.4089 23 11.943 23 12.5ZM14.6 4.1C14.6 4.51534 14.4768 4.92135 14.2461 5.2667C14.0153 5.61204 13.6874 5.8812 13.3036 6.04015C12.9199 6.19909 12.4977 6.24068 12.0903 6.15965C11.683 6.07862 11.3088 5.87861 11.0151 5.58492C10.7214 5.29123 10.5214 4.91705 10.4404 4.50969C10.3593 4.10233 10.4009 3.68009 10.5599 3.29636C10.7188 2.91264 10.988 2.58466 11.3333 2.35391C11.6786 2.12316 12.0847 2 12.5 2C13.057 2 13.5911 2.22125 13.9849 2.61508C14.3788 3.0089 14.6 3.54305 14.6 4.1ZM23 4.1C23 4.51534 22.8768 4.92135 22.6461 5.2667C22.4153 5.61204 22.0874 5.8812 21.7036 6.04015C21.3199 6.19909 20.8977 6.24068 20.4903 6.15965C20.0829 6.07862 19.7088 5.87861 19.4151 5.58492C19.1214 5.29123 18.9214 4.91705 18.8403 4.50969C18.7593 4.10233 18.8009 3.68009 18.9599 3.29636C19.1188 2.91264 19.388 2.58466 19.7333 2.35391C20.0786 2.12316 20.4847 2 20.9 2C21.457 2 21.9911 2.22125 22.3849 2.61508C22.7787 3.0089 23 3.54305 23 4.1ZM14.6 20.9C14.6 21.3153 14.4768 21.7214 14.2461 22.0667C14.0153 22.412 13.6874 22.6812 13.3036 22.8401C12.9199 22.9991 12.4977 23.0407 12.0903 22.9596C11.683 22.8786 11.3088 22.6786 11.0151 22.3849C10.7214 22.0912 10.5214 21.717 10.4404 21.3097C10.3593 20.9023 10.4009 20.4801 10.5599 20.0964C10.7188 19.7126 10.988 19.3847 11.3333 19.1539C11.6786 18.9232 12.0847 18.8 12.5 18.8C13.057 18.8 13.5911 19.0212 13.9849 19.4151C14.3788 19.8089 14.6 20.343 14.6 20.9ZM6.2 20.9C6.2 21.3153 6.07684 21.7214 5.84609 22.0667C5.61534 22.412 5.28736 22.6812 4.90364 22.8401C4.51991 22.9991 4.09767 23.0407 3.69031 22.9596C3.28295 22.8786 2.90877 22.6786 2.61508 22.3849C2.32139 22.0912 2.12138 21.717 2.04035 21.3097C1.95932 20.9023 2.00091 20.4801 2.15985 20.0964C2.3188 19.7126 2.58796 19.3847 2.9333 19.1539C3.27865 18.9232 3.68466 18.8 4.1 18.8C4.65696 18.8 5.1911 19.0212 5.58493 19.4151C5.97875 19.8089 6.2 20.343 6.2 20.9ZM23 20.9C23 21.3153 22.8768 21.7214 22.6461 22.0667C22.4153 22.412 22.0874 22.6812 21.7036 22.8401C21.3199 22.9991 20.8977 23.0407 20.4903 22.9596C20.0829 22.8786 19.7088 22.6786 19.4151 22.3849C19.1214 22.0912 18.9214 21.717 18.8403 21.3097C18.7593 20.9023 18.8009 20.4801 18.9599 20.0964C19.1188 19.7126 19.388 19.3847 19.7333 19.1539C20.0786 18.9232 20.4847 18.8 20.9 18.8C21.457 18.8 21.9911 19.0212 22.3849 19.4151C22.7787 19.8089 23 20.343 23 20.9Z" fill="black"/>
</svg>
