<svg width="24" height="24" viewBox="0 0 24 24" fill="none" xmlns="http://www.w3.org/2000/svg">
<path d="M22.9174 11.2017L12.7983 1.08258C12.6938 0.977197 12.5694 0.893552 12.4324 0.83647C12.2954 0.779388 12.1484 0.75 12 0.75C11.8516 0.75 11.7046 0.779388 11.5676 0.83647C11.4306 0.893552 11.3062 0.977197 11.2017 1.08258L1.08258 11.2017C0.977197 11.3062 0.893552 11.4306 0.83647 11.5676C0.779388 11.7046 0.75 11.8516 0.75 12C0.75 12.1484 0.779388 12.2954 0.83647 12.4324C0.893552 12.5694 0.977197 12.6938 1.08258 12.7983L11.2017 22.9174C11.3062 23.0228 11.4306 23.1064 11.5676 23.1635C11.7046 23.2206 11.8516 23.25 12 23.25C12.1484 23.25 12.2954 23.2206 12.4324 23.1635C12.5694 23.1064 12.6938 23.0228 12.7983 22.9174L22.9174 12.7983C23.0228 12.6938 23.1064 12.5694 23.1635 12.4324C23.2206 12.2954 23.25 12.1484 23.25 12C23.25 11.8516 23.2206 11.7046 23.1635 11.5676C23.1064 11.4306 23.0228 11.3062 22.9174 11.2017ZM12 6.6481L15.1032 9.7513H8.8968L12 6.6481ZM12 17.3519L8.8968 14.2487H15.1032L12 17.3519Z" fill="black"/>
</svg>
