<svg width="24" height="24" viewBox="0 0 24 24" fill="none" xmlns="http://www.w3.org/2000/svg">
<path d="M4.423 12.4521C4.60097 12.145 4.8565 11.8901 5.164 11.713C5.47149 11.5358 5.82015 11.4425 6.17504 11.4425C6.52993 11.4425 6.87858 11.5358 7.18608 11.713C7.49357 11.8901 7.74911 12.145 7.92708 12.4521L9.64499 15.41L11.3515 18.3794C11.532 18.6874 11.6279 19.0377 11.6294 19.3947C11.631 19.7517 11.5381 20.1027 11.3602 20.4123C11.1823 20.7218 10.9258 20.9788 10.6166 21.1573C10.3074 21.3357 9.95648 21.4293 9.59948 21.4284H2.77335C2.41802 21.4281 2.06903 21.3343 1.76142 21.1565C1.45381 20.9786 1.19841 20.7229 1.02088 20.4151C0.843343 20.1073 0.749924 19.7582 0.75 19.4029C0.750076 19.0476 0.843645 18.6985 1.02131 18.3908L2.71647 15.41L4.423 12.4521ZM22.9787 18.3908L18.701 10.9844L14.4347 3.57809C14.2551 3.27126 13.9984 3.01677 13.6901 2.83991C13.3817 2.66306 13.0324 2.57001 12.6769 2.57001C12.3214 2.57001 11.9721 2.66306 11.6638 2.83991C11.3554 3.01677 11.0987 3.27126 10.9192 3.57809L6.9828 10.4042C7.38843 10.5072 7.76897 10.6913 8.1014 10.9455C8.43383 11.1997 8.71125 11.5187 8.91687 11.8832L10.6234 14.8526L12.3413 17.8219C12.6211 18.302 12.7686 18.8477 12.7686 19.4033C12.7686 19.959 12.6211 20.5047 12.3413 20.9847C12.2412 21.1427 12.127 21.2912 12 21.4284H21.2267C21.582 21.4281 21.931 21.3343 22.2386 21.1565C22.5462 20.9786 22.8016 20.7229 22.9791 20.4151C23.1567 20.1073 23.2501 19.7582 23.25 19.4029C23.2499 19.0476 23.1564 18.6985 22.9787 18.3908Z" fill="black"/>
</svg>
