<svg width="24" height="24" viewBox="0 0 24 24" fill="none" xmlns="http://www.w3.org/2000/svg">
<path d="M21.675 14.877L16.3 17.9838C15.9731 18.1725 15.6024 18.2718 15.225 18.2718C14.8476 18.2718 14.4768 18.1725 14.15 17.9838L8.77499 14.877C8.45316 14.6913 8.18496 14.4253 7.99656 14.105C7.80815 13.7847 7.70598 13.4211 7.7 13.0495V6.81454C7.69849 6.43569 7.79712 6.06317 7.9859 5.73469C8.17467 5.40622 8.4469 5.13346 8.77499 4.94404L14.15 1.84804C14.4768 1.65934 14.8476 1.56 15.225 1.56C15.6024 1.56 15.9731 1.65934 16.3 1.84804L21.675 4.94404C22.0031 5.13346 22.2753 5.40622 22.4641 5.73469C22.6529 6.06317 22.7515 6.43569 22.75 6.81454V13.0495C22.744 13.4211 22.6418 13.7847 22.4534 14.105C22.265 14.4253 21.9968 14.6913 21.675 14.877ZM8.23749 15.8123C7.75164 15.5318 7.34735 15.1294 7.06456 14.6449C6.78177 14.1604 6.63026 13.6105 6.625 13.0495V9.08279C6.24739 9.08346 5.87662 9.18356 5.55 9.37304L2.325 11.2328C2.00471 11.4176 1.73749 11.6819 1.54918 12.0001C1.36087 12.3184 1.25782 12.6798 1.25 13.0495V16.7798C1.25039 17.1568 1.34991 17.5271 1.5386 17.8535C1.72728 18.18 1.99848 18.451 2.325 18.6395L5.55 20.5745C5.87684 20.7632 6.24759 20.8626 6.625 20.8626C7.0024 20.8626 7.37315 20.7632 7.7 20.5745L10.925 18.7148C11.269 18.5107 11.5514 18.2172 11.742 17.8655L8.23749 15.8123ZM20.6 18.4245C20.19 18.1878 19.7134 18.0931 19.2441 18.1549C18.7748 18.2168 18.339 18.4318 18.0043 18.7666C17.6697 19.1014 17.4549 19.5373 17.3933 20.0067C17.3317 20.476 17.4267 20.9526 17.6636 21.3624C17.9005 21.7723 18.266 22.0925 18.7035 22.2733C19.141 22.4542 19.6259 22.4857 20.083 22.3628C20.5402 22.2399 20.944 21.9696 21.2319 21.5938C21.5197 21.218 21.6755 20.7577 21.675 20.2843C21.6746 19.9072 21.5751 19.537 21.3864 19.2105C21.1977 18.8841 20.9265 18.613 20.6 18.4245Z" fill="black"/>
</svg>
