<svg width="24" height="24" viewBox="0 0 24 24" fill="none" xmlns="http://www.w3.org/2000/svg">
<path d="M16.4754 16.1175C16.5592 15.7709 16.6017 15.4156 16.602 15.059C16.6084 14.2498 16.3936 13.4541 15.9807 12.7581C15.5772 12.0592 14.997 11.4787 14.2983 11.0748C13.5996 10.6709 12.807 10.4579 12 10.4571C11.7612 10.4681 11.5232 10.4912 11.2867 10.5261C6.68473 11.1129 3.54389 15.1856 1.18539 19.1433L10.7115 2.58773C10.8413 2.36058 11.0288 2.17178 11.2551 2.04047C11.4814 1.90916 11.7384 1.84 12 1.84C12.2616 1.84 12.5186 1.90916 12.7449 2.04047C12.9712 2.17178 13.1587 2.36058 13.2885 2.58773L13.6337 3.19749C15.8541 7.14367 17.7525 11.8032 16.4754 16.1175ZM23.2978 19.9716L13.6337 3.19749C15.8541 7.14367 17.7525 11.8032 16.4754 16.1175C16.4719 16.1673 16.4719 16.2173 16.4754 16.2671C16.3824 16.6195 16.2472 16.9594 16.0727 17.2795C15.6675 18.0006 15.0753 18.5992 14.3586 19.0122C13.6419 19.4252 12.8271 19.6374 12 19.6265C10.982 19.6304 9.99265 19.2898 9.1928 18.6601C12.4257 21.7664 17.5109 22.1691 22.0093 22.1691C22.2709 22.1702 22.5282 22.1022 22.7551 21.9719C22.982 21.8416 23.1704 21.6536 23.3012 21.427C23.432 21.2004 23.5006 20.9432 23.5 20.6816C23.4994 20.42 23.4297 20.1631 23.2978 19.9371V19.9716ZM10.1132 22.1691H1.99073C1.72909 22.1702 1.47179 22.1022 1.24491 21.9719C1.01803 21.8416 0.829636 21.6536 0.698819 21.427C0.568002 21.2004 0.499413 20.9432 0.500004 20.6816C0.500595 20.42 0.570344 20.1631 0.702183 19.9371L1.18539 19.1088C3.54389 15.1511 6.66172 11.0553 11.2867 10.4916C8.21489 10.9288 6.68473 14.0696 7.17944 16.8883C7.34301 17.9591 7.69763 18.9918 8.22639 19.9371C8.72102 20.785 9.35948 21.5402 10.1132 22.1691Z" fill="black"/>
</svg>
