<svg width="24" height="24" viewBox="0 0 24 24" fill="none" xmlns="http://www.w3.org/2000/svg">
<path d="M11.9669 1.00001C9.98399 1.00169 8.03861 1.54164 6.3374 2.56251C4.63619 3.58338 3.2427 5.04703 2.30497 6.79795C1.36724 8.54887 0.920311 10.5217 1.01165 12.5067C1.103 14.4918 1.72921 16.415 2.82375 18.072L9.00331 14.497V6.97301L17.6964 12L4.28358 19.799C5.56419 21.0755 7.13934 22.0155 8.86933 22.5358C10.5993 23.056 12.4307 23.1403 14.201 22.7813C15.9713 22.4223 17.6258 21.631 19.0179 20.4775C20.4099 19.3241 21.4964 17.8443 22.181 16.1692C22.8656 14.4942 23.1272 12.6757 22.9425 10.8751C22.7578 9.07442 22.1325 7.34729 21.1222 5.84684C20.1119 4.3464 18.7477 3.119 17.1507 2.27352C15.5536 1.42804 13.773 0.990608 11.9669 1.00001Z" fill="black"/>
</svg>
