<svg width="24" height="24" viewBox="0 0 24 24" fill="none" xmlns="http://www.w3.org/2000/svg">
<path d="M1.76553 12.1084L2.58093 10.2815C2.69532 10.0448 2.89572 9.86065 3.14123 9.76666C3.38675 9.67268 3.65887 9.67592 3.90208 9.77572L4.82069 10.1783C5.81843 10.6475 6.90744 10.8909 8.01003 10.8909C9.11262 10.8909 10.2016 10.6475 11.1994 10.1783C12.7066 9.47956 14.3479 9.11762 16.0092 9.11762C17.6705 9.11762 19.3118 9.47956 20.819 10.1783L21.7273 10.5808C21.9658 10.6934 22.1522 10.893 22.2482 11.1387C22.3442 11.3844 22.3424 11.6575 22.2434 11.9019L21.428 13.7288C21.3136 13.9655 21.1132 14.1497 20.8677 14.2437C20.6221 14.3376 20.35 14.3344 20.1068 14.2346L19.2295 13.8321C18.2317 13.3628 17.1427 13.1195 16.0401 13.1195C14.9376 13.1195 13.8485 13.3628 12.8508 13.8321C11.3436 14.5308 9.70227 14.8927 8.04099 14.8927C6.37972 14.8927 4.73839 14.5308 3.23118 13.8321L2.32289 13.4295C2.0769 13.3245 1.88131 13.128 1.77734 12.8815C1.67337 12.6351 1.66913 12.3579 1.76553 12.1084ZM2.2816 20.541L3.18989 20.9436C4.69785 21.6396 6.33889 22 7.99971 22C9.66053 22 11.3016 21.6396 12.8095 20.9436C13.8073 20.4743 14.8963 20.231 15.9989 20.231C17.1015 20.231 18.1905 20.4743 19.1882 20.9436L20.1068 21.3564C20.35 21.4562 20.6221 21.4595 20.8677 21.3655C21.1132 21.2715 21.3136 21.0874 21.428 20.8507L22.2434 19.0238C22.3424 18.7793 22.3442 18.5062 22.2482 18.2605C22.1522 18.0148 21.9658 17.8152 21.7273 17.7026L20.819 17.2898C19.3118 16.5911 17.6705 16.2291 16.0092 16.2291C14.3479 16.2291 12.7066 16.5911 11.1994 17.2898C10.2016 17.759 9.11262 18.0024 8.01003 18.0024C6.90744 18.0024 5.81843 17.759 4.82069 17.2898L3.90208 16.8872C3.65887 16.7874 3.38675 16.7842 3.14123 16.8782C2.89572 16.9722 2.69532 17.1563 2.58093 17.393L1.76553 19.2302C1.6695 19.4734 1.66937 19.744 1.76516 19.9874C1.86096 20.2307 2.04553 20.4286 2.2816 20.541ZM2.2816 6.3077L3.18989 6.72056C4.6971 7.41925 6.33843 7.78119 7.99971 7.78119C9.66099 7.78119 11.3023 7.41925 12.8095 6.72056C13.8073 6.25127 14.8963 6.00795 15.9989 6.00795C17.1015 6.00795 18.1905 6.25127 19.1882 6.72056L20.1068 7.1231C20.35 7.2229 20.6221 7.22614 20.8677 7.13215C21.1132 7.03817 21.3136 6.85404 21.428 6.61734L22.2434 4.78012C22.3424 4.53566 22.3442 4.26255 22.2482 4.01686C22.1522 3.77116 21.9658 3.57154 21.7273 3.45897L20.819 3.05643C19.311 2.36044 17.67 2 16.0092 2C14.3484 2 12.7073 2.36044 11.1994 3.05643C10.1969 3.53367 9.10084 3.78216 7.99055 3.78395C6.88025 3.78573 5.78343 3.54076 4.7794 3.06675L3.86079 2.65389C3.61758 2.55409 3.34546 2.55085 3.09995 2.64484C2.85443 2.73882 2.65403 2.92295 2.53964 3.15965L1.76553 4.98655C1.66645 5.231 1.66471 5.50412 1.76069 5.74981C1.85666 5.9955 2.04306 6.19513 2.2816 6.3077Z" fill="black"/>
</svg>
