<svg width="24" height="24" viewBox="0 0 24 24" fill="none" xmlns="http://www.w3.org/2000/svg">
<path d="M7.6675 12.8838H11.075V18.384C11.0719 18.6718 10.9554 18.9467 10.7508 19.1491C10.5462 19.3515 10.27 19.465 9.98225 19.465H6.939C6.09188 19.4635 5.25336 19.2951 4.4713 18.9695C3.68925 18.6439 2.97899 18.1674 2.38108 17.5673C1.78316 16.9672 1.3093 16.2552 0.986545 15.472C0.663791 14.6888 0.498466 12.8496 0.500011 12.0025C0.498466 11.1554 0.663791 9.31624 0.986545 8.53301C1.3093 7.74978 1.78316 7.03779 2.38108 6.43769C2.97899 5.83759 3.68925 5.36114 4.4713 5.03554C5.25336 4.70993 6.09188 4.54155 6.939 4.54001H10.0058C10.2935 4.53999 10.5697 4.65351 10.7743 4.8559C10.9789 5.0583 11.0954 5.33323 11.0985 5.62101V11.1213H7.6675C7.43378 11.1213 7.20963 11.2141 7.04437 11.3794C6.8791 11.5446 6.78625 11.7688 6.78625 12.0025C6.78625 12.2362 6.8791 12.4604 7.04437 12.6256C7.20963 12.7909 7.43378 12.8838 7.6675 12.8838ZM17.561 4.54001H14.506C14.2193 4.54001 13.9443 4.6539 13.7416 4.85663C13.5389 5.05935 13.425 5.33431 13.425 5.62101V11.1213H16.95C17.1837 11.1213 17.4079 11.2141 17.5731 11.3794C17.7384 11.5446 17.8312 11.7688 17.8312 12.0025C17.8312 12.2362 17.7384 12.4604 17.5731 12.6256C17.4079 12.7909 17.1837 12.8838 16.95 12.8838H13.425V18.384C13.425 18.6707 13.5389 18.9457 13.7416 19.1484C13.9443 19.3511 14.2193 19.465 14.506 19.465H17.561C18.4081 19.4635 19.2466 19.2951 20.0287 18.9695C20.8107 18.6439 21.521 18.1674 22.1189 17.5673C22.7168 16.9672 23.1907 16.2552 23.5135 15.472C23.8362 14.6888 24.0015 12.8496 24 12.0025C24.0015 11.1554 23.8362 9.31624 23.5135 8.53301C23.1907 7.74978 22.7168 7.03779 22.1189 6.43769C21.521 5.83759 20.8107 5.36114 20.0287 5.03554C19.2466 4.70993 18.4081 4.54155 17.561 4.54001ZM11.075 11.1213V12.8838H13.425V11.1213H11.075Z" fill="black"/>
</svg>
