<svg width="24" height="24" viewBox="0 0 24 24" fill="none" xmlns="http://www.w3.org/2000/svg">
<path d="M11.9972 23.5L21.7944 13.9435C21.9476 18.2675 18.9531 22.0395 11.9972 23.5ZM20.58 9.378C19.9444 8.119 19.1525 6.941 18.2221 5.8705L11.9972 12V17.75L20.58 9.378ZM8.62532 2.961C7.56936 3.84599 6.59495 4.81954 5.71327 5.8705L11.9972 12V6.25L8.62532 2.961ZM11.9972 0.5V6.25L15.369 2.961C14.3095 2.05987 13.1824 1.23725 11.9972 0.5ZM2.19995 13.9435L11.9972 23.5V17.75L3.41429 9.378C2.69047 10.8016 2.277 12.3562 2.19995 13.9435Z" fill="black"/>
</svg>
