<svg width="24" height="24" viewBox="0 0 24 24" fill="none" xmlns="http://www.w3.org/2000/svg">
<path d="M21.675 9.85H14.15V2.325C14.15 2.03989 14.0367 1.76646 13.8351 1.56486C13.6335 1.36326 13.3601 1.25 13.075 1.25H10.925C10.6399 1.25 10.3665 1.36326 10.1649 1.56486C9.96326 1.76646 9.85 2.03989 9.85 2.325V9.85H2.325C2.03989 9.85 1.76646 9.96326 1.56486 10.1649C1.36326 10.3665 1.25 10.6399 1.25 10.925V13.075C1.25 13.3601 1.36326 13.6335 1.56486 13.8351C1.76646 14.0367 2.03989 14.15 2.325 14.15H9.85V21.675C9.85 21.9601 9.96326 22.2335 10.1649 22.4351C10.3665 22.6367 10.6399 22.75 10.925 22.75H13.075C13.3601 22.75 13.6335 22.6367 13.8351 22.4351C14.0367 22.2335 14.15 21.9601 14.15 21.675V14.15H21.675C21.9601 14.15 22.2335 14.0367 22.4351 13.8351C22.6367 13.6335 22.75 13.3601 22.75 13.075V10.925C22.75 10.6399 22.6367 10.3665 22.4351 10.1649C22.2335 9.96326 21.9601 9.85 21.675 9.85Z" fill="black"/>
</svg>
