<svg width="24" height="24" viewBox="0 0 24 24" fill="none" xmlns="http://www.w3.org/2000/svg">
<path d="M7.79664 2.54323C7.54505 2.52634 7.2926 2.52634 7.041 2.54323V1.59586C7.041 1.37153 7.13012 1.15638 7.28875 0.997748C7.44738 0.839118 7.66253 0.75 7.88687 0.75C8.1112 0.75 8.32635 0.839118 8.48498 0.997748C8.64361 1.15638 8.73273 1.37153 8.73273 1.59586V2.54323H7.79664ZM16.9658 2.54323V1.59586C16.9658 1.37153 16.8767 1.15638 16.7181 0.997748C16.5594 0.839118 16.3443 0.75 16.1199 0.75C15.8956 0.75 15.6805 0.839118 15.5218 0.997748C15.3632 1.15638 15.2741 1.37153 15.2741 1.59586V2.54323H16.2102C16.463 2.54475 16.7155 2.5636 16.9658 2.59962V2.54323ZM22.3568 8.70113V17.0357C22.3657 17.8486 22.2134 18.6551 21.9085 19.4087C21.6036 20.1623 21.1522 20.8479 20.5806 21.4258C20.0089 22.0038 19.3283 22.4626 18.5781 22.7757C17.8279 23.0888 17.0231 23.25 16.2102 23.25H7.79664C6.16542 23.247 4.60203 22.5969 3.44964 21.4424C2.29725 20.2879 1.65002 18.7233 1.65002 17.0921V8.70113C1.64966 7.20155 2.1975 5.75356 3.19041 4.62979C4.18332 3.50601 5.5528 2.78398 7.041 2.59962V3.65977C7.041 3.88411 7.13012 4.09926 7.28875 4.25789C7.44738 4.41652 7.66253 4.50564 7.88687 4.50564C8.1112 4.50564 8.32635 4.41652 8.48498 4.25789C8.64361 4.09926 8.73273 3.88411 8.73273 3.65977V2.53196H15.2741V3.65977C15.2741 3.88411 15.3632 4.09926 15.5218 4.25789C15.6805 4.41652 15.8956 4.50564 16.1199 4.50564C16.3443 4.50564 16.5594 4.41652 16.7181 4.25789C16.8767 4.09926 16.9658 3.88411 16.9658 3.65977V2.59962C18.455 2.78164 19.8259 3.50299 20.8192 4.62728C21.8126 5.75157 22.3596 7.20086 22.3568 8.70113ZM15.3869 12.9417C15.3884 12.8366 15.3691 12.7321 15.3303 12.6344C15.2914 12.5367 15.2336 12.4476 15.1603 12.3722C15.087 12.2968 14.9996 12.2366 14.903 12.1949C14.8064 12.1533 14.7026 12.1312 14.5974 12.1297H12.7929V10.3365C12.793 10.2299 12.7715 10.1244 12.7297 10.0263C12.6879 9.92826 12.6267 9.83968 12.5498 9.76591C12.4729 9.69214 12.3818 9.63472 12.2821 9.59709C12.1824 9.55947 12.0761 9.54242 11.9696 9.54699C11.7562 9.5558 11.5548 9.64834 11.4092 9.80455C11.2635 9.96077 11.1853 10.1681 11.1914 10.3816V12.1071H9.44326C9.23088 12.1071 9.02721 12.1915 8.87704 12.3417C8.72687 12.4918 8.64251 12.6955 8.64251 12.9079C8.64251 13.1203 8.72687 13.3239 8.87704 13.4741C9.02721 13.6243 9.23088 13.7086 9.44326 13.7086H11.2478V15.5019C11.2536 15.7103 11.3406 15.9082 11.4901 16.0536C11.6397 16.1989 11.84 16.2802 12.0485 16.2801C12.1537 16.2772 12.2573 16.2535 12.3533 16.2106C12.4493 16.1676 12.536 16.1061 12.6082 16.0297C12.6805 15.9532 12.737 15.8633 12.7745 15.765C12.812 15.6667 12.8297 15.5619 12.8267 15.4568V13.7199H14.5636C14.6687 13.7229 14.7735 13.7052 14.8718 13.6677C14.9701 13.6302 15.06 13.5737 15.1365 13.5014C15.2129 13.4292 15.2744 13.3425 15.3174 13.2465C15.3603 13.1505 15.3839 13.0469 15.3869 12.9417Z" fill="black"/>
</svg>
