<svg width="24" height="24" viewBox="0 0 24 24" fill="none" xmlns="http://www.w3.org/2000/svg">
<path d="M8.70375 16.5H4.125C3.22989 16.5 2.37145 16.1444 1.73851 15.5115C1.10558 14.8786 0.75 14.0201 0.75 13.125V4.125C0.75 3.22989 1.10558 2.37145 1.73851 1.73851C2.37145 1.10558 3.22989 0.75 4.125 0.75H10.3012C11.1964 0.75 12.0548 1.10558 12.6877 1.73851C13.3207 2.37145 13.6762 3.22989 13.6762 4.125V5.82375C12.3484 5.83859 11.0803 6.37804 10.1488 7.32437C9.21718 8.2707 8.69773 9.54709 8.70375 10.875V16.5ZM23.25 10.875V19.875C23.25 20.7701 22.8944 21.6286 22.2615 22.2615C21.6286 22.8944 20.7701 23.25 19.875 23.25H13.7325C12.8374 23.25 11.9789 22.8944 11.346 22.2615C10.7131 21.6286 10.3575 20.7701 10.3575 19.875V10.875C10.3575 9.97989 10.7131 9.12145 11.346 8.48851C11.9789 7.85558 12.8374 7.5 13.7325 7.5H19.875C20.7701 7.5 21.6286 7.85558 22.2615 8.48851C22.8944 9.12145 23.25 9.97989 23.25 10.875ZM19.74 15.375C19.74 15.1512 19.6511 14.9366 19.4929 14.7784C19.3346 14.6201 19.12 14.5312 18.8962 14.5312H17.9062V13.5413C17.9062 13.3175 17.8174 13.1029 17.6591 12.9446C17.5009 12.7864 17.2863 12.6975 17.0625 12.6975C16.8387 12.6975 16.6241 12.7864 16.4659 12.9446C16.3076 13.1029 16.2188 13.3175 16.2188 13.5413V14.5312H15.2288C15.005 14.5312 14.7904 14.6201 14.6321 14.7784C14.4739 14.9366 14.385 15.1512 14.385 15.375C14.385 15.5988 14.4739 15.8134 14.6321 15.9716C14.7904 16.1299 15.005 16.2188 15.2288 16.2188H16.2188V17.2087C16.2188 17.4325 16.3076 17.6471 16.4659 17.8054C16.6241 17.9636 16.8387 18.0525 17.0625 18.0525C17.2863 18.0525 17.5009 17.9636 17.6591 17.8054C17.8174 17.6471 17.9062 17.4325 17.9062 17.2087V16.2188H18.8962C19.12 16.2188 19.3346 16.1299 19.4929 15.9716C19.6511 15.8134 19.74 15.5988 19.74 15.375Z" fill="black"/>
</svg>
