<svg width="24" height="24" viewBox="0 0 24 24" fill="none" xmlns="http://www.w3.org/2000/svg">
<path d="M15.963 22.75H4.75285C3.91666 22.75 3.11472 22.4238 2.52345 21.8432C1.93218 21.2626 1.60001 20.4751 1.60001 19.654V4.346C1.60001 3.52489 1.93218 2.73741 2.52345 2.1568C3.11472 1.57618 3.91666 1.25 4.75285 1.25H15.963C16.7991 1.25 17.6011 1.57618 18.1923 2.1568C18.7836 2.73741 19.1158 3.52489 19.1158 4.346V19.654C19.1158 20.4751 18.7836 21.2626 18.1923 21.8432C17.6011 22.4238 16.7991 22.75 15.963 22.75ZM10.3579 6.625C9.92486 6.625 9.50155 6.7511 9.14149 6.98734C8.78144 7.22359 8.50081 7.55937 8.33509 7.95223C8.16937 8.34509 8.12602 8.77739 8.2105 9.19444C8.29498 9.6115 8.50351 9.9946 8.80971 10.2953C9.11591 10.596 9.50604 10.8007 9.93076 10.8837C10.3555 10.9666 10.7957 10.9241 11.1958 10.7613C11.5958 10.5986 11.9378 10.323 12.1784 9.96948C12.419 9.61591 12.5474 9.20023 12.5474 8.775C12.5474 8.20478 12.3167 7.65792 11.9061 7.25472C11.4955 6.85152 10.9386 6.625 10.3579 6.625ZM13.9377 16.3C14.1189 16.3107 14.3 16.2771 14.4647 16.202C14.6293 16.1269 14.7724 16.0128 14.881 15.8699C14.9896 15.727 15.0603 15.5599 15.0867 15.3835C15.1131 15.2071 15.0945 15.027 15.0324 14.8595C14.6307 13.9808 13.9715 13.2396 13.1389 12.7303C12.3064 12.221 11.3382 11.9668 10.3579 12C9.38461 11.9737 8.42506 12.23 7.5994 12.7367C6.77374 13.2435 6.11867 13.9781 5.71622 14.8488C5.43159 15.5475 6.0118 16.3 7.39116 16.3H13.9377ZM21.3053 10.925H20.2105V15.225H21.3053C21.5956 15.225 21.8741 15.1117 22.0794 14.9101C22.2847 14.7085 22.4 14.4351 22.4 14.15V12C22.4 11.7149 22.2847 11.4415 22.0794 11.2399C21.8741 11.0383 21.5956 10.925 21.3053 10.925ZM21.3053 4.475H20.2105V8.775H21.3053C21.5956 8.775 21.8741 8.66174 22.0794 8.46014C22.2847 8.25854 22.4 7.98511 22.4 7.7V5.55C22.4 5.26489 22.2847 4.99146 22.0794 4.78986C21.8741 4.58826 21.5956 4.475 21.3053 4.475Z" fill="black"/>
</svg>
