<svg width="24" height="24" viewBox="0 0 24 24" fill="none" xmlns="http://www.w3.org/2000/svg">
<path d="M21.3633 10.5651L14.689 7.66225C14.5692 7.60949 14.4672 7.52337 14.395 7.41418C14.3229 7.305 14.2837 7.17735 14.2821 7.04649V3.41796C14.2875 3.17382 14.2435 2.93112 14.1528 2.70439C14.0621 2.47767 13.9266 2.27158 13.7543 2.09849L13.0726 1.43875C12.9365 1.29978 12.7739 1.18938 12.5946 1.11401C12.4152 1.03864 12.2226 0.999817 12.028 0.999817C11.8335 0.999817 11.6409 1.03864 11.4615 1.11401C11.2821 1.18938 11.1196 1.29978 10.9835 1.43875L10.3237 2.09849C10.1475 2.26973 10.0079 2.47498 9.91342 2.7018C9.81891 2.92861 9.77146 3.17225 9.77395 3.41796V6.98052C9.77306 7.10872 9.73662 7.23415 9.66867 7.34286C9.60073 7.45157 9.50395 7.5393 9.38911 7.59627L2.58285 10.5651C2.40841 10.6422 2.26032 10.7687 2.15679 10.9288C2.05325 11.089 1.99879 11.276 2.00008 11.4667V13.7868C1.99897 13.9502 2.03882 14.1114 2.11599 14.2555C2.19317 14.3996 2.30521 14.522 2.44189 14.6117C2.57857 14.7014 2.73553 14.7554 2.89845 14.7688C3.06136 14.7822 3.22504 14.7545 3.37453 14.6884L8.87231 12.3024C8.97476 12.2563 9.08713 12.2368 9.19911 12.2455C9.31109 12.2542 9.41909 12.2908 9.51321 12.3521C9.60733 12.4134 9.68456 12.4973 9.7378 12.5962C9.79104 12.6951 9.81859 12.8058 9.81793 12.9181V16.4917C9.81922 16.5932 9.79708 16.6936 9.75321 16.7852C9.70935 16.8767 9.64495 16.9569 9.56504 17.0195L6.97008 19.1196C6.86129 19.2094 6.77343 19.3218 6.71265 19.4491C6.65187 19.5763 6.61964 19.7153 6.61822 19.8563V22.0554C6.61846 22.235 6.66981 22.4108 6.76628 22.5622C6.86274 22.7137 7.00033 22.8345 7.16295 22.9106C7.32558 22.9868 7.50651 23.015 7.6846 22.9921C7.86268 22.9691 8.03056 22.896 8.1686 22.7812L11.3573 20.1752C11.522 20.0413 11.7278 19.9681 11.9401 19.9681C12.1524 19.9681 12.3582 20.0413 12.5228 20.1752L15.7226 22.7812C15.8608 22.8927 16.0276 22.963 16.2039 22.9841C16.3802 23.0053 16.559 22.9763 16.7196 22.9006C16.8802 22.8248 17.0163 22.7054 17.1122 22.5559C17.2081 22.4065 17.26 22.233 17.2619 22.0554V19.8563C17.2605 19.7153 17.2283 19.5763 17.1675 19.4491C17.1067 19.3218 17.0189 19.2094 16.9101 19.1196L14.535 17.1734C14.4553 17.1131 14.3909 17.0349 14.347 16.9452C14.3031 16.8554 14.2808 16.7566 14.2821 16.6566V12.9841C14.2824 12.8719 14.3104 12.7614 14.3637 12.6626C14.4169 12.5638 14.4937 12.4797 14.5872 12.4177C14.6808 12.3557 14.7882 12.3177 14.8999 12.3072C15.0117 12.2967 15.1243 12.3139 15.2278 12.3574L20.5716 14.6884C20.7211 14.7545 20.8848 14.7822 21.0477 14.7688C21.2106 14.7554 21.3676 14.7014 21.5042 14.6117C21.6409 14.522 21.753 14.3996 21.8301 14.2555C21.9073 14.1114 21.9472 13.9502 21.946 13.7868V11.4667C21.9473 11.276 21.8929 11.089 21.7893 10.9288C21.6858 10.7687 21.5377 10.6422 21.3633 10.5651V10.5651Z" fill="black"/>
</svg>
