<svg width="24" height="24" viewBox="0 0 24 24" fill="none" xmlns="http://www.w3.org/2000/svg">
<path d="M17.8694 10.9077V17.7929C17.8663 18.4391 17.6074 19.0577 17.1495 19.5135C16.6915 19.9692 16.0716 20.2251 15.4255 20.2251H8.5637C7.91756 20.2251 7.29771 19.9692 6.83972 19.5135C6.38173 19.0577 6.12288 18.4391 6.11977 17.7929V10.9077C6.12288 10.2615 6.38173 9.64292 6.83972 9.18713C7.29771 8.73135 7.91756 8.47547 8.5637 8.47548H15.4255C16.0716 8.47547 16.6915 8.73135 17.1495 9.18713C17.6074 9.64292 17.8663 10.2615 17.8694 10.9077ZM3.76985 16.3007V11.6009C3.76985 11.2893 3.64606 10.9904 3.42571 10.7701C3.20536 10.5497 2.9065 10.4259 2.59488 10.4259C2.28327 10.4259 1.98441 10.5497 1.76406 10.7701C1.54371 10.9904 1.41992 11.2893 1.41992 11.6009V16.3007C1.41992 16.6124 1.54371 16.9112 1.76406 17.1316C1.98441 17.3519 2.28327 17.4757 2.59488 17.4757C2.9065 17.4757 3.20536 17.3519 3.42571 17.1316C3.64606 16.9112 3.76985 16.6124 3.76985 16.3007ZM8.5637 20.2251V22.575C8.5637 22.8867 8.68749 23.1855 8.90784 23.4059C9.12818 23.6262 9.42704 23.75 9.73866 23.75C10.0503 23.75 10.3491 23.6262 10.5695 23.4059C10.7898 23.1855 10.9136 22.8867 10.9136 22.575V20.2251H8.5637ZM15.4255 20.2251H13.1696V22.575C13.1696 22.8867 13.2933 23.1855 13.5137 23.4059C13.734 23.6262 14.0329 23.75 14.3445 23.75C14.6561 23.75 14.955 23.6262 15.1753 23.4059C15.3957 23.1855 15.5195 22.8867 15.5195 22.575V20.2251H15.4255ZM22.5693 16.3007V11.6009C22.5693 11.2893 22.4455 10.9904 22.2251 10.7701C22.0048 10.5497 21.7059 10.4259 21.3943 10.4259C21.0827 10.4259 20.7838 10.5497 20.5635 10.7701C20.3431 10.9904 20.2193 11.2893 20.2193 11.6009V16.3007C20.2193 16.6124 20.3431 16.9112 20.5635 17.1316C20.7838 17.3519 21.0827 17.4757 21.3943 17.4757C21.7059 17.4757 22.0048 17.3519 22.2251 17.1316C22.4455 16.9112 22.5693 16.6124 22.5693 16.3007ZM14.1448 6.81878C14.697 6.82862 15.2314 6.62321 15.6349 6.24604C16.0384 5.86886 16.2793 5.3495 16.3067 4.79785C16.2975 4.19043 16.1686 3.59079 15.9273 3.03329C15.6859 2.47579 15.337 1.97139 14.9004 1.54898C14.4638 1.12658 13.9481 0.794472 13.383 0.571696C12.8178 0.34892 12.2142 0.239852 11.6068 0.250742C10.9995 0.239852 10.3959 0.34892 9.83072 0.571696C9.26556 0.794472 8.7499 1.12658 8.31331 1.54898C7.87671 1.97139 7.52776 2.47579 7.28644 3.03329C7.04512 3.59079 6.91618 4.19043 6.907 4.79785C6.93437 5.3495 7.1753 5.86886 7.57879 6.24604C7.98228 6.62321 8.51669 6.82862 9.06893 6.81878H14.1448Z" fill="black"/>
</svg>
