<svg width="24" height="24" viewBox="0 0 24 24" fill="none" xmlns="http://www.w3.org/2000/svg">
<path d="M12.0189 7.68595L14.2226 12.2918H9.92531L12.0189 7.68595ZM21.5501 7.25622L20.7237 16.6772C20.6684 17.27 20.4727 17.8411 20.1527 18.3432C19.8326 18.8452 19.3976 19.2638 18.8835 19.5641L13.8921 22.4951C13.3192 22.8259 12.6693 23 12.0079 23C11.3464 23 10.6965 22.8259 10.1236 22.4951L5.12114 19.5641C4.61385 19.2593 4.18575 18.8389 3.87172 18.3372C3.5577 17.8355 3.36662 17.2668 3.31407 16.6772L2.46563 7.25622C2.39113 6.44796 2.58353 5.63755 3.01336 4.94901C3.4432 4.26048 4.0868 3.73175 4.84567 3.44374L10.6746 1.23999C11.5346 0.920004 12.4811 0.920004 13.3411 1.23999L19.17 3.44374C19.9257 3.73633 20.5661 4.26605 20.9952 4.95344C21.4244 5.64083 21.619 6.44882 21.5501 7.25622ZM17.9029 16.2255L12.7571 5.37201C12.6969 5.22271 12.5908 5.09639 12.4542 5.01124C12.3175 4.92609 12.1574 4.88651 11.9968 4.89821C11.8399 4.89819 11.6864 4.94408 11.5552 5.03023C11.424 5.11638 11.3209 5.23901 11.2586 5.38303L7.87583 12.7986L6.31116 16.2365C6.26534 16.3362 6.23982 16.444 6.23611 16.5537C6.23239 16.6633 6.25055 16.7726 6.28953 16.8752C6.3285 16.9778 6.38752 17.0716 6.46312 17.1511C6.53872 17.2306 6.62941 17.2943 6.72988 17.3384C6.8359 17.3911 6.95306 17.4175 7.07146 17.4155C7.22965 17.4149 7.38435 17.3689 7.51717 17.2829C7.64998 17.197 7.75534 17.0747 7.82073 16.9307L9.17604 13.9556H14.9939L16.4153 16.9417C16.4551 17.0493 16.5167 17.1475 16.5965 17.23C16.6762 17.3125 16.7723 17.3775 16.8785 17.4209C16.9848 17.4642 17.0989 17.485 17.2135 17.4818C17.3282 17.4786 17.441 17.4516 17.5447 17.4024C17.6484 17.3533 17.7407 17.2831 17.8157 17.1963C17.8908 17.1095 17.947 17.0081 17.9807 16.8984C18.0143 16.7887 18.0248 16.6732 18.0114 16.5592C17.9981 16.4453 17.9611 16.3354 17.9029 16.2365V16.2255Z" fill="black"/>
</svg>
