<svg width="24" height="24" viewBox="0 0 24 24" fill="none" xmlns="http://www.w3.org/2000/svg">
<path d="M15.9507 3.89348C15.2944 4.72582 14.3848 5.33087 13.3542 5.62063C13.2197 5.66053 13.0774 5.668 12.9394 5.64239C12.8013 5.61678 12.6716 5.55886 12.5612 5.47353C12.4508 5.3882 12.363 5.27798 12.3053 5.15223C12.2475 5.02648 12.2215 4.88891 12.2294 4.75118C12.3513 3.74095 12.7666 2.7865 13.426 2.00183C14.0841 1.23203 14.9389 0.648079 15.9028 0.309921C16.0485 0.253865 16.2067 0.236726 16.3614 0.260249C16.516 0.283772 16.6615 0.347116 16.7831 0.443833C16.9047 0.540549 16.998 0.667181 17.0536 0.810834C17.1091 0.954487 17.1249 1.11003 17.0993 1.26162C16.9362 2.22494 16.5243 3.13109 15.9028 3.89348H15.9507ZM20.1146 9.76816C20.239 9.64958 20.3356 9.50589 20.3978 9.34702C20.4601 9.18815 20.4864 9.0179 20.475 8.84805C20.4637 8.6782 20.4148 8.51281 20.3319 8.36332C20.249 8.21382 20.1341 8.0838 19.9949 7.98225C19.1638 7.31187 18.1466 6.90248 17.0754 6.80732C15.4481 6.70157 14.1319 7.74726 12.5645 7.74726C10.997 7.74726 10.0278 6.80732 8.29284 6.80732C7.3364 6.86607 6.40967 7.15648 5.59539 7.65263C4.78111 8.14878 4.10463 8.83522 3.62636 9.65066C1.97514 12.0945 2.26231 16.7003 4.88272 20.7186C5.82798 22.1402 7.08434 23.7499 8.73556 23.7499C10.1953 23.7499 10.6022 22.8217 12.5884 22.8217C14.5746 22.8217 14.9815 23.7616 16.4053 23.7499C18.0566 23.7499 19.3727 21.964 20.318 20.5423C20.6843 20.0094 21.0122 19.4519 21.2992 18.8739C21.4132 18.6189 21.4312 18.3325 21.3501 18.0657C21.2691 17.7988 21.0941 17.5689 20.8564 17.417C20.2265 17.0138 19.6972 16.4764 19.308 15.8447C18.9188 15.2129 18.6797 14.5031 18.6084 13.7681C18.5371 13.0331 18.6355 12.2917 18.8963 11.5992C19.157 10.9067 19.5735 10.2808 20.1146 9.76816Z" fill="black"/>
</svg>
