<svg width="24" height="24" viewBox="0 0 24 24" fill="none" xmlns="http://www.w3.org/2000/svg">
<path d="M16.5296 1.25H7.45958C6.19812 1.25279 4.98913 1.74948 4.09714 2.63139C3.20514 3.5133 2.70278 4.70862 2.69995 5.95583V20.8559C2.70266 21.1877 2.79305 21.513 2.96214 21.7996C3.13123 22.0862 3.37316 22.3241 3.66394 22.4898C3.95472 22.6554 4.28424 22.743 4.61983 22.744C4.95542 22.7449 5.28543 22.659 5.57712 22.495L11.032 19.4071C11.325 19.2411 11.6569 19.1537 11.9946 19.1537C12.3323 19.1537 12.6642 19.2411 12.9572 19.4071L18.4121 22.495C18.7041 22.6616 19.0352 22.7496 19.3723 22.75C19.7095 22.7504 20.0408 22.6633 20.3332 22.4973C20.6256 22.3314 20.8688 22.0924 21.0385 21.8043C21.2081 21.5163 21.2983 21.1892 21.3 20.8559V5.95583C21.2971 4.70679 20.7933 3.50987 19.899 2.62766C19.0047 1.74545 17.7929 1.25 16.5296 1.25ZM15.8665 9.14945L11.5882 13.3794C11.4354 13.5245 11.2331 13.6075 11.0213 13.6121C10.8171 13.6114 10.6213 13.5317 10.4758 13.39L8.78586 11.7932C8.66929 11.6452 8.60952 11.4612 8.61716 11.2738C8.6248 11.0864 8.69936 10.9078 8.82759 10.7696C8.95582 10.6314 9.12944 10.5426 9.31761 10.519C9.50578 10.4953 9.69634 10.5384 9.85544 10.6405L10.9785 11.698L14.722 8.02851C14.79 7.93062 14.8793 7.84906 14.9833 7.78984C15.0874 7.73062 15.2036 7.69525 15.3233 7.68634C15.443 7.67743 15.5632 7.69521 15.6751 7.73837C15.787 7.78152 15.8876 7.84895 15.9696 7.93568C16.0516 8.02241 16.1128 8.12623 16.1488 8.23948C16.1848 8.35274 16.1946 8.47253 16.1775 8.59004C16.1604 8.70754 16.1169 8.81976 16.0501 8.91841C15.9833 9.01706 15.895 9.09963 15.7916 9.16002L15.8665 9.14945Z" fill="black"/>
</svg>
