<svg width="24" height="24" viewBox="0 0 24 24" fill="none" xmlns="http://www.w3.org/2000/svg">
<path fill-rule="evenodd" clip-rule="evenodd" d="M1.77566 4.50781C2.32371 4.24569 2.98049 4.4775 3.2426 5.02556L8.09574 15.173L14.4997 9.196C14.7267 8.98415 15.0326 8.87809 15.342 8.90399C15.6514 8.92989 15.9355 9.08533 16.1241 9.33196L20.6503 15.2508V13.5002C20.6503 12.8926 21.1427 12.4002 21.7503 12.4002C22.3578 12.4002 22.8503 12.8926 22.8503 13.5002V18.5002C22.8503 19.1077 22.3578 19.6002 21.7503 19.6002H16.2503C15.6427 19.6002 15.1503 19.1077 15.1503 18.5002C15.1503 17.8926 15.6427 17.4002 16.2503 17.4002H19.5243L15.1136 11.6323L8.50081 17.8043C8.24471 18.0433 7.89009 18.1461 7.54588 18.081C7.20168 18.0159 6.90905 17.7908 6.75791 17.4748L1.25791 5.97476C0.995794 5.4267 1.2276 4.76992 1.77566 4.50781Z" fill="black"/>
</svg>
