<svg width="24" height="24" viewBox="0 0 24 24" fill="none" xmlns="http://www.w3.org/2000/svg">
<path d="M17.505 14.6065C17.4315 14.533 17.3443 14.4747 17.2483 14.435C17.1524 14.3952 17.0495 14.3748 16.9456 14.3748C16.8417 14.3748 16.7389 14.3952 16.6429 14.435C16.5469 14.4747 16.4597 14.533 16.3863 14.6065C16.3128 14.6799 16.2545 14.7671 16.2148 14.8631C16.175 14.9591 16.1546 15.0619 16.1546 15.1658C16.1546 15.2697 16.175 15.3725 16.2148 15.4685C16.2545 15.5645 16.3128 15.6517 16.3863 15.7251L18.131 17.4699H7.13913C6.81261 17.4913 6.48517 17.4455 6.17707 17.3353C5.86897 17.2251 5.58677 17.0528 5.34793 16.8291C5.10909 16.6054 4.91871 16.3351 4.78855 16.0349C4.65839 15.7347 4.59123 15.4109 4.59123 15.0837C4.59123 14.7565 4.65839 14.4327 4.78855 14.1325C4.91871 13.8323 5.10909 13.562 5.34793 13.3383C5.58677 13.1146 5.86897 12.9423 6.17707 12.8321C6.48517 12.7219 6.81261 12.6761 7.13913 12.6975H16.9302H16.9918C17.5134 12.6887 18.0281 12.5773 18.5067 12.3696C18.9852 12.1619 19.4182 11.862 19.7808 11.487C20.1434 11.112 20.4286 10.6692 20.6201 10.184C20.8116 9.69874 20.9057 9.18053 20.8969 8.65893C20.8882 8.13734 20.7768 7.62258 20.5691 7.14405C20.3614 6.66551 20.0615 6.23257 19.6864 5.86995C19.3114 5.50732 18.8687 5.22211 18.3834 5.0306C17.8982 4.83909 17.38 4.74503 16.8584 4.75379H5.82544L7.57019 3.00905C7.7199 2.8607 7.80454 2.65896 7.8055 2.4482C7.80647 2.23744 7.72367 2.03494 7.57532 1.88523C7.42697 1.73552 7.22523 1.65087 7.01447 1.64991C6.80371 1.64895 6.60121 1.73175 6.4515 1.8801L3.37254 4.95905C3.22496 5.11036 3.14055 5.3122 3.13649 5.52353C3.14255 5.73443 3.22667 5.93557 3.37254 6.088L6.4515 9.16696C6.52419 9.24176 6.61115 9.30121 6.70723 9.34181C6.8033 9.38241 6.90654 9.40333 7.01084 9.40333C7.11514 9.40333 7.21839 9.38241 7.31446 9.34181C7.41054 9.30121 7.49749 9.24176 7.57019 9.16696C7.64498 9.09427 7.70444 9.00731 7.74504 8.91124C7.78564 8.81516 7.80656 8.71192 7.80656 8.60762C7.80656 8.50332 7.78564 8.40008 7.74504 8.304C7.70444 8.20793 7.64498 8.12097 7.57019 8.04827L5.82544 6.32406H16.8584C17.4926 6.32406 18.1008 6.576 18.5493 7.02446C18.9978 7.47292 19.2497 8.08116 19.2497 8.71538C19.2497 9.3496 18.9978 9.95784 18.5493 10.4063C18.1008 10.8548 17.4926 11.1067 16.8584 11.1067H7.00571C5.95231 11.1244 4.94908 11.5598 4.21672 12.3172C3.48437 13.0746 3.08287 14.0919 3.10057 15.1453C3.11826 16.1987 3.55369 17.2019 4.31107 17.9343C5.06845 18.6666 6.08573 19.0681 7.13913 19.0504H18.1413L16.3965 20.7952C16.323 20.8686 16.2646 20.9557 16.2248 21.0517C16.185 21.1477 16.1645 21.2506 16.1645 21.3545C16.1645 21.4584 16.185 21.5613 16.2248 21.6573C16.2646 21.7533 16.323 21.8404 16.3965 21.9138C16.546 22.0642 16.749 22.1491 16.961 22.1499C17.0644 22.1493 17.1667 22.1281 17.2618 22.0875C17.357 22.047 17.4431 21.988 17.5152 21.9138L20.5942 18.8349C20.6677 18.7615 20.7261 18.6743 20.7659 18.5783C20.8057 18.4823 20.8262 18.3795 20.8262 18.2755C20.8262 18.1716 20.8057 18.0688 20.7659 17.9728C20.7261 17.8768 20.6677 17.7896 20.5942 17.7162L17.505 14.6065Z" fill="black"/>
</svg>
