<svg width="24" height="24" viewBox="0 0 24 24" fill="none" xmlns="http://www.w3.org/2000/svg">
<path d="M18.2894 2.70001H8.81553C8.18984 2.71002 7.57224 2.8432 6.99802 3.09192C6.4238 3.34065 5.90421 3.70006 5.46891 4.14963C5.03362 4.5992 4.69115 5.13012 4.46107 5.71206C4.23099 6.294 4.1178 6.91557 4.12797 7.54126V13.0302L2.40445 11.2518C2.25007 11.0976 2.0408 11.011 1.82262 11.011C1.60443 11.011 1.39517 11.0976 1.24079 11.2518C1.0866 11.4062 1 11.6154 1 11.8336C1 12.0518 1.0866 12.2611 1.24079 12.4154L4.4134 15.7088C4.48936 15.7896 4.58127 15.8538 4.68331 15.8973C4.78535 15.9407 4.8953 15.9625 5.0062 15.9613C5.11701 15.9619 5.22676 15.9398 5.32871 15.8963C5.43066 15.8529 5.52264 15.7891 5.59901 15.7088L8.76064 12.4154C8.9122 12.2597 8.99699 12.0509 8.99699 11.8336C8.99699 11.6163 8.9122 11.4075 8.76064 11.2518C8.60627 11.0976 8.397 11.011 8.17881 11.011C7.96063 11.011 7.75136 11.0976 7.59699 11.2518L5.71977 13.151V7.54126C5.70802 6.7075 6.02727 5.90309 6.60755 5.30429C7.18783 4.70549 7.98182 4.36114 8.81553 4.3467H18.2894C19.1212 4.36401 19.9124 4.70961 20.4903 5.3081C21.0683 5.90659 21.386 6.70937 21.3742 7.54126V17.3226C21.386 18.1534 21.0679 18.955 20.4897 19.5518C19.9114 20.1485 19.1203 20.4917 18.2894 20.5061H8.81553C8.18561 20.5045 7.5713 20.3101 7.05515 19.949C6.53901 19.5879 6.14579 19.0774 5.92835 18.4862C5.89185 18.3875 5.83599 18.297 5.76404 18.2201C5.6921 18.1432 5.60552 18.0815 5.50939 18.0386C5.41326 17.9956 5.30953 17.9723 5.20426 17.97C5.099 17.9677 4.99434 17.9864 4.89643 18.0251C4.79439 18.0672 4.70171 18.129 4.62375 18.2071C4.54578 18.2852 4.48408 18.378 4.44222 18.4801C4.40036 18.5822 4.37917 18.6916 4.37988 18.8019C4.38058 18.9123 4.40317 19.0214 4.44633 19.1229C4.77537 20.0225 5.37328 20.7989 6.15888 21.3469C6.94447 21.8948 7.87967 22.1877 8.83749 22.1858H18.3114C18.939 22.1758 19.5584 22.0419 20.1341 21.7918C20.7097 21.5417 21.2303 21.1803 21.6659 20.7284C22.1015 20.2765 22.4435 19.743 22.6723 19.1585C22.901 18.574 23.0121 17.9501 22.999 17.3226V7.54126C23.0077 6.91413 22.8928 6.29143 22.6608 5.70872C22.4288 5.12601 22.0843 4.5947 21.647 4.14513C21.2097 3.69557 20.6881 3.33656 20.112 3.0886C19.5359 2.84065 18.9166 2.7086 18.2894 2.70001Z" fill="black"/>
</svg>
