<svg width="24" height="24" viewBox="0 0 24 24" fill="none" xmlns="http://www.w3.org/2000/svg">
<path fill-rule="evenodd" clip-rule="evenodd" d="M4.25 5.31066L10.9393 12L4.25 18.6893V15C4.25 14.5858 3.91421 14.25 3.5 14.25C3.08579 14.25 2.75 14.5858 2.75 15V20.5C2.75 20.9142 3.08579 21.25 3.5 21.25H9C9.41421 21.25 9.75 20.9142 9.75 20.5C9.75 20.0858 9.41421 19.75 9 19.75H5.31066L12 13.0607L18.6893 19.75H15C14.5858 19.75 14.25 20.0858 14.25 20.5C14.25 20.9142 14.5858 21.25 15 21.25H20.5C20.9142 21.25 21.25 20.9142 21.25 20.5V15C21.25 14.5858 20.9142 14.25 20.5 14.25C20.0858 14.25 19.75 14.5858 19.75 15V18.6893L13.0607 12L19.75 5.31066V9C19.75 9.41421 20.0858 9.75 20.5 9.75C20.9142 9.75 21.25 9.41421 21.25 9V3.5C21.25 3.08579 20.9142 2.75 20.5 2.75H15C14.5858 2.75 14.25 3.08579 14.25 3.5C14.25 3.91421 14.5858 4.25 15 4.25H18.6893L12 10.9393L5.31066 4.25H9C9.41421 4.25 9.75 3.91421 9.75 3.5C9.75 3.08579 9.41421 2.75 9 2.75H3.5C3.08579 2.75 2.75 3.08579 2.75 3.5V9C2.75 9.41421 3.08579 9.75 3.5 9.75C3.91421 9.75 4.25 9.41421 4.25 9V5.31066Z" fill="black"/>
</svg>
