<svg width="24" height="24" viewBox="0 0 24 24" fill="none" xmlns="http://www.w3.org/2000/svg">
<path fill-rule="evenodd" clip-rule="evenodd" d="M1.89895 6.89893C1.56701 7.23088 1.56701 7.76907 1.89895 8.10102C2.2309 8.43296 2.76909 8.43296 3.10103 8.10102L6.14999 5.05206L6.14999 21C6.14999 21.4694 6.53055 21.85 6.99999 21.85C7.46944 21.85 7.84999 21.4694 7.84999 21L7.84999 5.05206L10.899 8.10102C11.2309 8.43296 11.7691 8.43296 12.101 8.10102C12.433 7.76907 12.433 7.23088 12.101 6.89893L7.60103 2.39894C7.26909 2.06699 6.7309 2.06699 6.39895 2.39894L1.89895 6.89893ZM11.899 17.101C11.567 16.7691 11.567 16.2309 11.899 15.8989C12.2309 15.567 12.7691 15.567 13.101 15.8989L16.15 18.9479V2.99998C16.15 2.53053 16.5306 2.14997 17 2.14997C17.4694 2.14997 17.85 2.53053 17.85 2.99998L17.85 18.9479L20.899 15.8989C21.2309 15.567 21.7691 15.567 22.101 15.8989C22.433 16.2309 22.433 16.7691 22.101 17.101L17.601 21.601C17.2691 21.933 16.7309 21.933 16.399 21.601L11.899 17.101Z" fill="black"/>
</svg>
