<svg width="24" height="24" viewBox="0 0 24 24" fill="none" xmlns="http://www.w3.org/2000/svg">
<path d="M12.0029 9.70883L13.2432 12.3618H10.7625L12.0029 9.70883ZM22.7869 13.6825L21.1905 15.3133C21.0792 15.4224 20.9913 15.5529 20.932 15.6971C20.8728 15.8412 20.8435 15.9959 20.846 16.1517V18.4486C20.846 19.0821 20.5943 19.6897 20.1463 20.1377C19.6983 20.5857 19.0907 20.8374 18.4572 20.8374H16.1603C16.0045 20.8349 15.8498 20.8642 15.7057 20.9234C15.5615 20.9827 15.431 21.0706 15.3219 21.1819L13.7026 22.8012C13.2547 23.2487 12.6474 23.5 12.0143 23.5C11.3812 23.5 10.774 23.2487 10.3261 22.8012L8.6953 21.1934C8.58624 21.0821 8.45567 20.9942 8.31154 20.9349C8.16741 20.8757 8.01273 20.8464 7.85692 20.8489H5.56001C5.24534 20.8474 4.93406 20.7837 4.64406 20.6615C4.35406 20.5394 4.09105 20.3611 3.87015 20.137C3.64924 19.9129 3.47479 19.6474 3.35682 19.3557C3.23885 19.0639 3.17968 18.7518 3.1827 18.4371V16.1402C3.18516 15.9844 3.15588 15.8297 3.09664 15.6856C3.03741 15.5414 2.94947 15.4109 2.83817 15.3018L1.21884 13.694C0.771407 13.2461 0.520081 12.6388 0.520081 12.0057C0.520081 11.3726 0.771407 10.7654 1.21884 10.3175L2.8152 8.69819C2.9265 8.58913 3.01444 8.45856 3.07367 8.31443C3.13291 8.1703 3.16219 8.01562 3.15974 7.85981V5.5629C3.16123 5.24822 3.22489 4.93695 3.34705 4.64695C3.46921 4.35695 3.64746 4.09394 3.87156 3.87303C4.09567 3.65213 4.36121 3.47768 4.65294 3.35971C4.94467 3.24174 5.25683 3.18256 5.5715 3.18559H7.86841C8.02394 3.18353 8.17743 3.14988 8.31957 3.08671C8.46171 3.02354 8.58954 2.93215 8.6953 2.81809L10.3146 1.19876C10.7625 0.751327 11.3697 0.5 12.0029 0.5C12.636 0.5 13.2432 0.751327 13.6911 1.19876L15.3104 2.81809C15.4195 2.92939 15.55 3.01733 15.6942 3.07656C15.8383 3.1358 15.993 3.16508 16.1488 3.16262H18.4457C18.7604 3.16412 19.0716 3.22778 19.3616 3.34994C19.6516 3.47209 19.9147 3.65035 20.1356 3.87445C20.3565 4.09856 20.5309 4.3641 20.6489 4.65583C20.7669 4.94756 20.826 5.25972 20.823 5.57438V7.8713C20.8205 8.0271 20.8498 8.18178 20.9091 8.32591C20.9683 8.47004 21.0562 8.60061 21.1675 8.70967L22.7869 10.329C23.2308 10.7764 23.4799 11.3812 23.4799 12.0115C23.4799 12.6418 23.2308 13.2465 22.7869 13.694V13.6825ZM16.8149 15.9794L12.7838 7.32004C12.7059 7.18141 12.5925 7.06601 12.4553 6.9857C12.318 6.9054 12.1619 6.86307 12.0029 6.86307C11.8438 6.86307 11.6877 6.9054 11.5504 6.9857C11.4132 7.06601 11.2998 7.18141 11.2219 7.32004L7.19082 15.9679C7.14073 16.0702 7.11169 16.1814 7.10543 16.2951C7.09918 16.4088 7.11582 16.5226 7.15439 16.6297C7.19295 16.7368 7.25265 16.8351 7.32993 16.9187C7.40721 17.0023 7.5005 17.0695 7.60426 17.1164C7.70678 17.1649 7.81786 17.1927 7.93114 17.1981C8.04442 17.2036 8.15766 17.1866 8.26437 17.1482C8.37107 17.1098 8.46914 17.0507 8.55295 16.9743C8.63675 16.8979 8.70464 16.8056 8.75272 16.7029L9.9586 14.1074H14.0471L15.253 16.7029C15.3239 16.8501 15.4347 16.9744 15.5728 17.0617C15.7108 17.149 15.8706 17.1958 16.0339 17.1968C16.161 17.199 16.2869 17.1715 16.4014 17.1164C16.5056 17.0683 16.5991 17 16.6765 16.9153C16.7539 16.8307 16.8136 16.7314 16.8521 16.6234C16.8906 16.5153 16.9072 16.4007 16.9008 16.2861C16.8944 16.1716 16.8652 16.0595 16.8149 15.9564V15.9794Z" fill="black"/>
</svg>
