<svg width="24" height="24" viewBox="0 0 24 24" fill="none" xmlns="http://www.w3.org/2000/svg">
<path d="M12.53 3.68327C12.3282 3.63776 12.1213 3.61462 11.9137 3.61433C12.121 3.61888 12.3274 3.64197 12.53 3.68327ZM9.14033 2.59171C10.0036 2.12023 10.9872 1.87415 11.9877 1.87932C12.9382 1.8792 13.8725 2.10881 14.6994 2.54575L19.2108 4.93569V3.78668C19.185 2.89675 18.7833 2.05231 18.0932 1.43694C17.403 0.821577 16.4802 0.485044 15.5253 0.50051H8.45007C7.49532 0.500464 6.57913 0.851633 5.90057 1.47771C5.22201 2.10379 4.83591 2.95419 4.82617 3.84413V4.99314L9.14033 2.59171ZM4.82617 6.95795L7.05721 5.75149L4.82617 6.95795ZM10.9893 3.72923H11.3097H10.9893ZM12.8505 3.72923C13.1475 3.80243 13.4333 3.91054 13.701 4.05095C13.43 3.90565 13.14 3.79365 12.8382 3.71774L12.8505 3.72923ZM18.5205 6.57878L19.1492 6.91199L18.5205 6.57878ZM21.75 16.7705C21.7503 17.3646 21.5859 17.9486 21.2728 18.466C20.9596 18.9834 20.5083 19.4165 19.9627 19.7235L13.8859 23.0441C13.3335 23.3427 12.7063 23.5 12.0678 23.5C11.4293 23.5 10.8021 23.3427 10.2497 23.0441L4.0866 19.8154C3.53222 19.5224 3.07051 19.0983 2.74806 18.5859C2.42561 18.0735 2.25381 17.4909 2.25 16.8969V10.336C2.24924 9.74612 2.4109 9.16589 2.71952 8.65088C3.02814 8.13586 3.47338 7.7033 4.01265 7.39457L10.0894 4.06244C10.6442 3.77046 11.2705 3.61703 11.9076 3.61703C12.5446 3.61703 13.1709 3.77046 13.7257 4.06244L19.8887 7.29116C20.44 7.5904 20.8988 8.01747 21.2206 8.53088C21.5425 9.04429 21.7163 9.62657 21.7253 10.2211L21.75 16.7705ZM15.1432 11.8987L13.9106 11.5425C13.7191 11.4956 13.5526 11.3853 13.4422 11.2323L12.7149 10.2326C12.6359 10.1236 12.5294 10.0343 12.4048 9.97263C12.2801 9.91091 12.1411 9.87864 12 9.87864C11.8589 9.87864 11.7199 9.91091 11.5952 9.97263C11.4706 10.0343 11.3641 10.1236 11.2851 10.2326L10.5455 11.2208C10.4327 11.3717 10.2671 11.4814 10.0771 11.531L8.8445 11.8757C8.70834 11.9107 8.58349 11.9763 8.48089 12.0668C8.37829 12.1573 8.30108 12.2699 8.25605 12.3947C8.21103 12.5195 8.19955 12.6526 8.22263 12.7825C8.24571 12.9124 8.30264 13.035 8.38843 13.1396L9.16498 14.0933C9.28581 14.2421 9.35078 14.4238 9.34988 14.6104V15.8168C9.34609 15.947 9.37626 16.076 9.43779 16.1929C9.49932 16.3098 9.59037 16.411 9.70312 16.4879C9.81587 16.5647 9.94694 16.6149 10.0851 16.6341C10.2232 16.6533 10.3643 16.641 10.4962 16.5981L11.7288 16.2075C11.916 16.1443 12.121 16.1443 12.3082 16.2075L13.5408 16.6096C13.6734 16.6548 13.8158 16.669 13.9556 16.6509C14.0955 16.6328 14.2284 16.583 14.3428 16.5059C14.4571 16.4288 14.5495 16.3267 14.6117 16.2085C14.6738 16.0904 14.704 15.9598 14.6994 15.8283V14.6793C14.6879 14.4932 14.7492 14.3094 14.872 14.1622L15.6609 13.2086C15.7585 13.1 15.8237 12.9693 15.8497 12.8298C15.8758 12.6902 15.8619 12.5467 15.8093 12.4138C15.7568 12.2808 15.6675 12.1632 15.5505 12.0727C15.4336 11.9823 15.293 11.9223 15.1432 11.8987Z" fill="black"/>
</svg>
