<svg width="24" height="24" viewBox="0 0 24 24" fill="none" xmlns="http://www.w3.org/2000/svg">
<path d="M22.756 7.1911C22.7734 7.79678 22.55 8.38467 22.1349 8.82602C21.7197 9.26738 21.1466 9.52624 20.541 9.5459H3.46596C2.86035 9.52624 2.28721 9.26738 1.87205 8.82602C1.4569 8.38467 1.23356 7.79678 1.25094 7.1911C1.23356 6.58541 1.4569 5.99752 1.87205 5.55617C2.28721 5.11481 2.86035 4.85596 3.46596 4.83629H4.99282L7.0143 1.61054C7.1268 1.43832 7.30163 1.31636 7.5021 1.27025C7.70257 1.22414 7.91311 1.25746 8.08955 1.36323C8.26985 1.48202 8.39661 1.66653 8.4428 1.87744C8.489 2.08835 8.45099 2.30896 8.33686 2.49224L6.90677 4.83629H17.0464L15.5733 2.50299C15.4752 2.3247 15.4461 2.11651 15.4918 1.91817C15.5374 1.71983 15.6544 1.54524 15.8206 1.42774C15.9977 1.32463 16.2074 1.2928 16.4072 1.33874C16.6069 1.38467 16.7816 1.50492 16.8959 1.67505L18.9173 4.90081H20.498C21.0998 4.90929 21.6741 5.15432 22.0966 5.58292C22.5192 6.01151 22.7561 6.58922 22.756 7.1911ZM3.72403 11.1803H20.2937L19.0249 19.6748C18.9051 20.5161 18.49 21.2875 17.8537 21.8509C17.2174 22.4143 16.4015 22.733 15.5518 22.75H8.55191C7.70825 22.73 6.8984 22.4143 6.26366 21.8582C5.62893 21.3021 5.2096 20.5407 5.07884 19.707L3.72403 11.1803ZM9.24007 16.406L11.0895 18.2877C11.2374 18.4199 11.4288 18.4931 11.6271 18.4931C11.8255 18.4931 12.0169 18.4199 12.1648 18.2877L16.0787 14.6749C16.2377 14.529 16.3326 14.3262 16.3427 14.1107C16.3528 13.8951 16.2772 13.6844 16.1324 13.5243C16.0583 13.4483 15.9697 13.3878 15.8718 13.3465C15.7739 13.3052 15.6688 13.2839 15.5626 13.2839C15.4563 13.2839 15.3512 13.3052 15.2533 13.3465C15.1554 13.3878 15.0668 13.4483 14.9927 13.5243L11.6486 16.6103L10.3798 15.2232C10.2286 15.0722 10.0237 14.9874 9.80996 14.9874C9.59625 14.9874 9.39128 15.0722 9.24007 15.2232C9.0838 15.3804 8.99608 15.593 8.99608 15.8146C8.99608 16.0362 9.0838 16.2489 9.24007 16.406Z" fill="black"/>
</svg>
