<svg width="24" height="24" viewBox="0 0 24 24" fill="none" xmlns="http://www.w3.org/2000/svg">
<path d="M22.7491 7.18842C22.7577 7.48926 22.7069 7.78886 22.5997 8.07007C22.4925 8.35128 22.331 8.60861 22.1243 8.82733C21.9177 9.04606 21.67 9.2219 21.3954 9.3448C21.1208 9.46771 20.8247 9.53527 20.524 9.54363H3.47599C3.17529 9.53527 2.87917 9.46771 2.60458 9.3448C2.32998 9.2219 2.08229 9.04606 1.87565 8.82733C1.66901 8.60861 1.50748 8.35128 1.40029 8.07007C1.2931 7.78886 1.24234 7.48926 1.25093 7.18842C1.24234 6.88757 1.2931 6.58798 1.40029 6.30677C1.50748 6.02555 1.66901 5.76823 1.87565 5.5495C2.08229 5.33078 2.32998 5.15494 2.60458 5.03203C2.87917 4.90913 3.17529 4.84156 3.47599 4.83321H4.99161L7.01243 1.6069C7.12665 1.43674 7.30134 1.31647 7.50099 1.27053C7.70065 1.22458 7.9103 1.25641 8.08734 1.35955C8.17769 1.41744 8.25575 1.49258 8.31707 1.58066C8.3784 1.66875 8.42178 1.76806 8.44473 1.87292C8.46769 1.97778 8.46978 2.08613 8.45088 2.1918C8.43197 2.29747 8.39245 2.39837 8.33457 2.48876L6.90494 4.83321H17.0413L15.5794 2.49951C15.4802 2.32241 15.4495 2.11503 15.4931 1.91677C15.5367 1.7185 15.6516 1.54317 15.8159 1.42407C15.993 1.32094 16.2026 1.28911 16.4023 1.33505C16.6019 1.38099 16.7766 1.50126 16.8908 1.67142L18.9224 4.89774H20.4918C21.0934 4.90621 21.6675 5.15129 22.0899 5.57996C22.5123 6.00863 22.7491 6.58644 22.7491 7.18842ZM3.73397 11.1783H20.2875L19.0191 19.6742C18.8994 20.5158 18.4844 21.2872 17.8483 21.8507C17.2123 22.4142 16.3966 22.733 15.5472 22.75H8.54955C7.70679 22.7317 6.89753 22.4163 6.26436 21.8596C5.63118 21.3028 5.21472 20.5404 5.08835 19.7065L3.73397 11.1783ZM13.6984 17.7062C13.6984 17.9201 13.7833 18.1253 13.9345 18.2765C14.0857 18.4278 14.2907 18.5128 14.5045 18.5128C14.7183 18.5128 14.9234 18.4278 15.0746 18.2765C15.2258 18.1253 15.3107 17.9201 15.3107 17.7062V13.7701C15.3107 13.5562 15.2258 13.351 15.0746 13.1998C14.9234 13.0485 14.7183 12.9635 14.5045 12.9635C14.2907 12.9635 14.0857 13.0485 13.9345 13.1998C13.7833 13.351 13.6984 13.5562 13.6984 13.7701V17.7062ZM8.68929 17.7062C8.68929 17.9201 8.77422 18.1253 8.92541 18.2765C9.0766 18.4278 9.28166 18.5128 9.49547 18.5128C9.70928 18.5128 9.91433 18.4278 10.0655 18.2765C10.2167 18.1253 10.3016 17.9201 10.3016 17.7062V13.7701C10.3016 13.5562 10.2167 13.351 10.0655 13.1998C9.91433 13.0485 9.70928 12.9635 9.49547 12.9635C9.28166 12.9635 9.0766 13.0485 8.92541 13.1998C8.77422 13.351 8.68929 13.5562 8.68929 13.7701V17.7062Z" fill="black"/>
</svg>
