<svg width="24" height="24" viewBox="0 0 24 24" fill="none" xmlns="http://www.w3.org/2000/svg">
<path d="M11.5968 22.9725L10.1284 21.4924C10.0378 21.4034 9.96589 21.2973 9.91678 21.1803C9.86768 21.0632 9.84239 20.9376 9.84239 20.8106C9.84239 20.6837 9.86768 20.558 9.91678 20.441C9.96589 20.3239 10.0378 20.2178 10.1284 20.1288L20.1277 10.1295C20.2167 10.0389 20.3228 9.967 20.4398 9.9179C20.5569 9.86879 20.6826 9.8435 20.8095 9.8435C20.9365 9.8435 21.0621 9.86879 21.1792 9.9179C21.2962 9.967 21.4023 10.0389 21.4913 10.1295L22.9714 11.5979C23.1494 11.7826 23.2489 12.029 23.2489 12.2855C23.2489 12.542 23.1494 12.7885 22.9714 12.9731L12.972 22.9725C12.7874 23.1505 12.5409 23.25 12.2844 23.25C12.0279 23.25 11.7814 23.1505 11.5968 22.9725V22.9725ZM8.40355 18.4157L18.4262 8.41631C18.6063 8.23509 18.7073 7.99 18.7073 7.73454C18.7073 7.47908 18.6063 7.23399 18.4262 7.05276L16.9461 5.57267C16.7649 5.39262 16.5198 5.29156 16.2643 5.29156C16.0089 5.29156 15.7638 5.39262 15.5826 5.57267L5.58321 15.5953C5.4923 15.6853 5.42013 15.7924 5.37088 15.9104C5.32162 16.0284 5.29626 16.1551 5.29626 16.2829C5.29626 16.4108 5.32162 16.5375 5.37088 16.6555C5.42013 16.7735 5.4923 16.8806 5.58321 16.9705L7.05165 18.439C7.23539 18.6124 7.47971 18.7071 7.73235 18.7028C7.98499 18.6984 8.2259 18.5954 8.40355 18.4157V18.4157ZM8.40355 9.32535L13.8577 3.87115C13.9487 3.7812 14.0208 3.67411 14.0701 3.55609C14.1193 3.43806 14.1447 3.31144 14.1447 3.18355C14.1447 3.05566 14.1193 2.92904 14.0701 2.81101C14.0208 2.69299 13.9487 2.5859 13.8577 2.49595L12.401 1.02751C12.2163 0.849479 11.9698 0.75 11.7134 0.75C11.4569 0.75 11.2104 0.849479 11.0258 1.02751L5.57156 6.48171C5.39353 6.66634 5.29405 6.91282 5.29405 7.16931C5.29405 7.42579 5.39353 7.67228 5.57156 7.85691L7.05165 9.32535C7.1404 9.41415 7.24577 9.48459 7.36176 9.53265C7.47774 9.58071 7.60205 9.60545 7.7276 9.60545C7.85314 9.60545 7.97746 9.58071 8.09344 9.53265C8.20942 9.48459 8.3148 9.41415 8.40355 9.32535V9.32535ZM2.49483 9.55843L1.03805 11.0269C0.947139 11.1168 0.874969 11.2239 0.825714 11.3419C0.77646 11.46 0.751099 11.5866 0.751099 11.7145C0.751099 11.8424 0.77646 11.969 0.825714 12.087C0.874969 12.205 0.947139 12.3121 1.03805 12.4021L2.50649 13.8705C2.69112 14.0485 2.93761 14.148 3.19409 14.148C3.45057 14.148 3.69706 14.0485 3.88169 13.8705L5.35013 12.4021C5.52816 12.2174 5.62764 11.971 5.62764 11.7145C5.62764 11.458 5.52816 11.2115 5.35013 11.0269L3.87004 9.55843C3.78108 9.46787 3.67498 9.39594 3.55792 9.34684C3.44087 9.29774 3.3152 9.27245 3.18826 9.27245C3.06132 9.27245 2.93566 9.29774 2.8186 9.34684C2.70154 9.39594 2.59544 9.46787 2.50649 9.55843H2.49483Z" fill="black"/>
</svg>
