<svg width="24" height="24" viewBox="0 0 24 24" fill="none" xmlns="http://www.w3.org/2000/svg">
<path d="M14.2595 12.5517L12.5144 14.3193C12.4427 14.3971 12.3556 14.4592 12.2587 14.5016C12.1618 14.5441 12.0572 14.566 11.9514 14.566C11.8456 14.566 11.741 14.5441 11.6441 14.5016C11.5472 14.4592 11.4602 14.3971 11.3885 14.3193L9.75595 12.5517C9.67965 12.4791 9.61889 12.3918 9.57737 12.295C9.53586 12.1982 9.51445 12.094 9.51445 11.9887C9.51445 11.8834 9.53586 11.7792 9.57737 11.6825C9.61889 11.5857 9.67965 11.4984 9.75595 11.4258L11.4448 9.68069C11.5165 9.6029 11.6035 9.54082 11.7004 9.49836C11.7973 9.45589 11.9019 9.43397 12.0077 9.43397C12.1135 9.43397 12.2181 9.45589 12.315 9.49836C12.4119 9.54082 12.499 9.6029 12.5707 9.68069L14.2595 11.4483C14.3323 11.5205 14.3901 11.6065 14.4296 11.7012C14.4691 11.7959 14.4894 11.8974 14.4894 12C14.4894 12.1026 14.4691 12.2041 14.4296 12.2988C14.3901 12.3935 14.3323 12.4795 14.2595 12.5517V12.5517ZM5.5339 11.4258L3.8113 9.66943C3.73961 9.59164 3.65257 9.52956 3.55568 9.4871C3.45879 9.44464 3.35415 9.42271 3.24836 9.42271C3.14258 9.42271 3.03794 9.44464 2.94105 9.4871C2.84416 9.52956 2.75712 9.59164 2.68542 9.66943L0.974086 11.4371C0.825578 11.5868 0.742249 11.7891 0.742249 12C0.742249 12.2109 0.825578 12.4132 0.974086 12.5629L2.7192 14.3193C2.78996 14.3986 2.8767 14.4621 2.97371 14.5056C3.07073 14.5491 3.17583 14.5715 3.28214 14.5715C3.38845 14.5715 3.49355 14.5491 3.59057 14.5056C3.68759 14.4621 3.77432 14.3986 3.84508 14.3193L5.5902 12.5629C5.7343 12.4088 5.81162 12.204 5.80529 11.993C5.79896 11.7821 5.7095 11.5823 5.55642 11.4371L5.5339 11.4258ZM22.985 11.4258L21.2624 9.66943C21.1908 9.59164 21.1037 9.52956 21.0068 9.4871C20.9099 9.44464 20.8053 9.42271 20.6995 9.42271C20.5937 9.42271 20.4891 9.44464 20.3922 9.4871C20.2953 9.52956 20.2083 9.59164 20.1366 9.66943L18.4252 11.4371C18.2767 11.5868 18.1934 11.7891 18.1934 12C18.1934 12.2109 18.2767 12.4132 18.4252 12.5629L20.1703 14.3193C20.242 14.3971 20.3291 14.4592 20.426 14.5016C20.5229 14.5441 20.6275 14.566 20.7333 14.566C20.8391 14.566 20.9437 14.5441 21.0406 14.5016C21.1375 14.4592 21.2245 14.3971 21.2962 14.3193L23.0413 12.5629C23.1861 12.4069 23.2637 12.2002 23.2574 11.9875C23.2511 11.7747 23.1614 11.573 23.0076 11.4258H22.985ZM12.5144 5.53745L16.0609 9.10649C16.1334 9.18279 16.2208 9.24355 16.3175 9.28507C16.4143 9.32658 16.5185 9.34799 16.6238 9.34799C16.7291 9.34799 16.8333 9.32658 16.9301 9.28507C17.0269 9.24355 17.1142 9.18279 17.1868 9.10649L18.4027 7.86802C18.5512 7.7183 18.6345 7.51596 18.6345 7.30508C18.6345 7.0942 18.5512 6.89186 18.4027 6.74214L12.7733 1.04519C12.5658 0.855306 12.2946 0.75 12.0133 0.75C11.732 0.75 11.4609 0.855306 11.2534 1.04519L5.62397 6.7534C5.47546 6.90312 5.39213 7.10546 5.39213 7.31634C5.39213 7.52722 5.47546 7.72956 5.62397 7.87928L6.8174 9.10649C6.88997 9.18279 6.97729 9.24355 7.07407 9.28507C7.17084 9.32658 7.27504 9.34799 7.38034 9.34799C7.48565 9.34799 7.58985 9.32658 7.68662 9.28507C7.7834 9.24355 7.87072 9.18279 7.94329 9.10649L11.4448 5.53745C11.516 5.46494 11.601 5.40735 11.6948 5.36804C11.7885 5.32872 11.8892 5.30848 11.9908 5.30848C12.0925 5.30848 12.1931 5.32872 12.2869 5.36804C12.3806 5.40735 12.4656 5.46494 12.5369 5.53745H12.5144ZM16.0496 14.8823L12.5144 18.4626C12.4427 18.5403 12.3556 18.6024 12.2587 18.6449C12.1618 18.6873 12.0572 18.7093 11.9514 18.7093C11.8456 18.7093 11.741 18.6873 11.6441 18.6449C11.5472 18.6024 11.4602 18.5403 11.3885 18.4626L7.90951 14.8823C7.83781 14.8045 7.75077 14.7424 7.65388 14.6999C7.55699 14.6575 7.45235 14.6355 7.34657 14.6355C7.24078 14.6355 7.13614 14.6575 7.03925 14.6999C6.94236 14.7424 6.85532 14.8045 6.78363 14.8823L5.5902 16.1095C5.44169 16.2592 5.35836 16.4615 5.35836 16.6724C5.35836 16.8833 5.44169 17.0856 5.5902 17.2353L11.2196 22.9548C11.4271 23.1447 11.6983 23.25 11.9796 23.25C12.2609 23.25 12.532 23.1447 12.7395 22.9548L18.3689 17.2353C18.5174 17.0856 18.6008 16.8833 18.6008 16.6724C18.6008 16.4615 18.5174 16.2592 18.3689 16.1095L17.153 14.8823C17.0095 14.7392 16.8152 14.659 16.6126 14.659C16.41 14.659 16.2156 14.7392 16.0721 14.8823H16.0496Z" fill="black"/>
</svg>
