<svg width="24" height="24" viewBox="0 0 24 24" fill="none" xmlns="http://www.w3.org/2000/svg">
<path d="M8.86508 16.7883V12.8482H21.146C21.3725 12.8482 21.5897 12.7582 21.7499 12.598C21.9101 12.4379 22.0001 12.2206 22.0001 11.9941C22.0001 11.7676 21.9101 11.5504 21.7499 11.3902C21.5897 11.23 21.3725 11.1401 21.146 11.1401H8.86508V7.21132C8.86634 7.10387 8.83523 6.99852 8.77579 6.90899C8.71636 6.81946 8.63135 6.7499 8.53183 6.70936C8.43231 6.66881 8.32289 6.65916 8.21781 6.68167C8.11273 6.70417 8.01686 6.75778 7.94268 6.83553L2.15987 11.6183C2.10926 11.6681 2.06907 11.7275 2.04163 11.793C2.01419 11.8585 2.00006 11.9288 2.00006 11.9998C2.00006 12.0708 2.01419 12.1411 2.04163 12.2066C2.06907 12.2721 2.10926 12.3315 2.15987 12.3813L7.94268 17.1641C8.01686 17.2418 8.11273 17.2955 8.21781 17.318C8.32289 17.3405 8.43231 17.3308 8.53183 17.2903C8.63135 17.2497 8.71636 17.1802 8.77579 17.0906C8.83523 17.0011 8.86634 16.8958 8.86508 16.7883Z" fill="black"/>
</svg>
