<svg width="24" height="24" viewBox="0 0 24 24" fill="none" xmlns="http://www.w3.org/2000/svg">
<path d="M21.7391 12C21.7364 12.2064 21.6532 12.4035 21.5073 12.5495C21.3614 12.6954 21.1642 12.7786 20.9578 12.7813H11.4162V16.1667C11.4243 16.2908 11.3933 16.4144 11.3274 16.5199C11.2615 16.6255 11.1641 16.7076 11.049 16.7548C10.9339 16.802 10.8068 16.8119 10.6858 16.783C10.5648 16.7541 10.4559 16.6879 10.3746 16.5938L5.16625 12.4271C5.05683 12.316 4.9955 12.1664 4.9955 12.0105C4.9955 11.8545 5.05683 11.7049 5.16625 11.5938L10.3746 7.42714C10.4548 7.33475 10.5617 7.26944 10.6806 7.24014C10.7994 7.21084 10.9244 7.21898 11.0384 7.26345C11.1525 7.30793 11.25 7.38656 11.3176 7.48858C11.3852 7.5906 11.4197 7.71103 11.4162 7.83339V11.198H15.6662H20.9578C21.0618 11.1993 21.1645 11.2211 21.26 11.2622C21.3556 11.3032 21.4421 11.3627 21.5146 11.4372C21.5872 11.5117 21.6443 11.5997 21.6828 11.6963C21.7214 11.7929 21.7405 11.8961 21.7391 12ZM3.04126 3.50007C2.83406 3.50007 2.63534 3.58238 2.48883 3.72889C2.34232 3.87541 2.26001 4.07412 2.26001 4.28132V19.7188C2.26001 19.926 2.34232 20.1247 2.48883 20.2712C2.63534 20.4177 2.83406 20.5 3.04126 20.5C3.24846 20.5 3.44717 20.4177 3.59368 20.2712C3.74019 20.1247 3.8225 19.926 3.8225 19.7188V4.28132C3.8239 4.17834 3.80465 4.07612 3.76589 3.9807C3.72712 3.88528 3.66963 3.7986 3.5968 3.72577C3.52398 3.65294 3.43729 3.59545 3.34188 3.55669C3.24646 3.51792 3.14424 3.49867 3.04126 3.50007Z" fill="black"/>
</svg>
