<svg width="24" height="24" viewBox="0 0 24 24" fill="none" xmlns="http://www.w3.org/2000/svg">
<path d="M15.135 7.21156V11.1517H2.85413C2.62762 11.1517 2.41038 11.2417 2.25021 11.4018C2.09004 11.562 2.00006 11.7792 2.00006 12.0058C2.00006 12.2323 2.09004 12.4495 2.25021 12.6097C2.41038 12.7698 2.62762 12.8598 2.85413 12.8598H15.135V16.7886C15.1338 16.896 15.1649 17.0014 15.2243 17.0909C15.2838 17.1804 15.3688 17.25 15.4683 17.2905C15.5678 17.3311 15.6772 17.3407 15.7823 17.3182C15.8874 17.2957 15.9833 17.2421 16.0574 17.1643L21.8402 12.3815C21.8909 12.3317 21.9311 12.2724 21.9585 12.2069C21.9859 12.1414 22.0001 12.0711 22.0001 12.0001C22.0001 11.929 21.9859 11.8587 21.9585 11.7933C21.9311 11.7278 21.8909 11.6684 21.8402 11.6186L16.0574 6.83577C15.9833 6.75803 15.8874 6.70441 15.7823 6.68191C15.6772 6.65941 15.5678 6.66906 15.4683 6.7096C15.3688 6.75015 15.2838 6.81971 15.2243 6.90924C15.1649 6.99876 15.1338 7.10411 15.135 7.21156Z" fill="black"/>
</svg>
