<svg width="24" height="24" viewBox="0 0 24 24" fill="none" xmlns="http://www.w3.org/2000/svg">
<path d="M16.7886 15.135H12.8484V2.85407C12.8484 2.62756 12.7585 2.41032 12.5983 2.25015C12.4381 2.08998 12.2209 2 11.9944 2C11.7679 2 11.5506 2.08998 11.3904 2.25015C11.2303 2.41032 11.1403 2.62756 11.1403 2.85407V15.135H7.21157C7.10411 15.1337 6.99876 15.1648 6.90924 15.2243C6.81971 15.2837 6.75015 15.3687 6.7096 15.4682C6.66906 15.5677 6.65941 15.6772 6.68191 15.7822C6.70441 15.8873 6.75803 15.9832 6.83577 16.0574L11.6186 21.8402C11.6684 21.8908 11.7278 21.931 11.7933 21.9584C11.8588 21.9859 11.9291 22 12.0001 22C12.0711 22 12.1414 21.9859 12.2069 21.9584C12.2724 21.931 12.3317 21.8908 12.3815 21.8402L17.1643 16.0574C17.2421 15.9832 17.2957 15.8873 17.3182 15.7822C17.3407 15.6772 17.3311 15.5677 17.2905 15.4682C17.25 15.3687 17.1804 15.2837 17.0909 15.2243C17.0014 15.1648 16.896 15.1337 16.7886 15.135Z" fill="black"/>
</svg>
