<svg width="24" height="24" viewBox="0 0 24 24" fill="none" xmlns="http://www.w3.org/2000/svg">
<path d="M7.21156 8.86501H11.1517V21.1459C11.1517 21.3724 11.2417 21.5897 11.4018 21.7498C11.562 21.91 11.7792 22 12.0058 22C12.2323 22 12.4495 21.91 12.6097 21.7498C12.7698 21.5897 12.8598 21.3724 12.8598 21.1459V8.86501H16.7886C16.896 8.86628 17.0014 8.83517 17.0909 8.77573C17.1804 8.7163 17.25 8.63129 17.2905 8.53177C17.3311 8.43225 17.3407 8.32283 17.3182 8.21775C17.2957 8.11267 17.2421 8.0168 17.1643 7.94262L12.3815 2.15981C12.3317 2.1092 12.2724 2.06901 12.2069 2.04157C12.1414 2.01413 12.0711 2 12.0001 2C11.929 2 11.8587 2.01413 11.7933 2.04157C11.7278 2.06901 11.6684 2.1092 11.6186 2.15981L6.83577 7.94262C6.75803 8.0168 6.70441 8.11267 6.68191 8.21775C6.65941 8.32283 6.66906 8.43225 6.7096 8.53177C6.75015 8.63129 6.81971 8.7163 6.90924 8.77573C6.99876 8.83517 7.10411 8.86628 7.21156 8.86501Z" fill="black"/>
</svg>
