<svg width="24" height="24" viewBox="0 0 24 24" fill="none" xmlns="http://www.w3.org/2000/svg">
<path d="M2.26008 12C2.26278 11.7936 2.34595 11.5965 2.49188 11.4505C2.63782 11.3046 2.83497 11.2214 3.04133 11.2187H12.583V7.83332C12.5748 7.70916 12.6059 7.58559 12.6718 7.48006C12.7377 7.37453 12.8351 7.29236 12.9502 7.24516C13.0653 7.19796 13.1923 7.18812 13.3134 7.21702C13.4344 7.24592 13.5433 7.31211 13.6246 7.40623L18.8329 11.5729C18.9423 11.684 19.0037 11.8336 19.0037 11.9895C19.0037 12.1455 18.9423 12.2951 18.8329 12.4062L13.6246 16.5729C13.5443 16.6652 13.4374 16.7306 13.3186 16.7599C13.1998 16.7892 13.0748 16.781 12.9607 16.7365C12.8467 16.6921 12.7492 16.6134 12.6816 16.5114C12.6139 16.4094 12.5795 16.289 12.583 16.1666V12.802H3.04133C2.93736 12.8007 2.83468 12.7789 2.73915 12.7378C2.64362 12.6968 2.55711 12.6373 2.48457 12.5628C2.41202 12.4883 2.35485 12.4003 2.31634 12.3037C2.27782 12.2071 2.2587 12.1039 2.26008 12ZM20.9579 20.4999C21.1651 20.4999 21.3638 20.4176 21.5103 20.2711C21.6569 20.1246 21.7392 19.9259 21.7392 19.7187V4.28125C21.7392 4.07405 21.6569 3.87533 21.5103 3.72882C21.3638 3.58231 21.1651 3.5 20.9579 3.5C20.7507 3.5 20.552 3.58231 20.4055 3.72882C20.259 3.87533 20.1767 4.07405 20.1767 4.28125V19.7187C20.1753 19.8217 20.1945 19.9239 20.2333 20.0193C20.272 20.1147 20.3295 20.2014 20.4024 20.2742C20.4752 20.3471 20.5619 20.4046 20.6573 20.4433C20.7527 20.4821 20.8549 20.5013 20.9579 20.4999Z" fill="black"/>
</svg>
