<svg width="24" height="24" viewBox="0 0 24 24" fill="none" xmlns="http://www.w3.org/2000/svg">
<path d="M2.37 19.0197V18.3747C2.37 17.5394 2.70184 16.7382 3.29253 16.1475C3.88322 15.5568 4.68437 15.225 5.51973 15.225H21.6449V19.0197C21.6435 19.5119 21.545 19.999 21.355 20.453C21.165 20.907 20.8873 21.3191 20.5378 21.6657C20.1883 22.0122 19.7738 22.2863 19.3181 22.4724C18.8625 22.6585 18.3746 22.7528 17.8824 22.7499H6.13247C5.6403 22.7528 5.1524 22.6585 4.69674 22.4724C4.24108 22.2863 3.82662 22.0122 3.4771 21.6657C3.12758 21.3191 2.84987 20.907 2.65989 20.453C2.46992 19.999 2.3714 19.5119 2.37 19.0197ZM21.6449 4.98029V13.5802H5.51973C4.35207 13.5938 3.23049 14.0378 2.37 14.8272V4.98029C2.3714 4.48811 2.46992 4.00104 2.65989 3.547C2.84987 3.09296 3.12758 2.68087 3.4771 2.33435C3.82662 1.98782 4.24108 1.71367 4.69674 1.52761C5.1524 1.34155 5.6403 1.24723 6.13247 1.25006H17.8824C18.3746 1.24723 18.8625 1.34155 19.3181 1.52761C19.7738 1.71367 20.1883 1.98782 20.5378 2.33435C20.8873 2.68087 21.165 3.09296 21.355 3.547C21.545 4.00104 21.6435 4.48811 21.6449 4.98029ZM14.3242 10.4628C14.3214 10.2498 14.2356 10.0463 14.085 9.89574C13.9344 9.74513 13.7309 9.6593 13.5179 9.65651H7.36872C7.15489 9.65651 6.94982 9.74146 6.79861 9.89266C6.64741 10.0439 6.56247 10.2489 6.56247 10.4628C6.56247 10.6766 6.64741 10.8817 6.79861 11.0329C6.94982 11.1841 7.15489 11.269 7.36872 11.269H13.5179C13.7318 11.269 13.9368 11.1841 14.088 11.0329C14.2392 10.8817 14.3242 10.6766 14.3242 10.4628ZM17.4309 6.62503C17.4309 6.4112 17.346 6.20613 17.1948 6.05493C17.0436 5.90373 16.8385 5.81879 16.6247 5.81879H7.36872C7.15489 5.81879 6.94982 5.90373 6.79861 6.05493C6.64741 6.20613 6.56247 6.4112 6.56247 6.62503C6.56247 6.83886 6.64741 7.04393 6.79861 7.19513C6.94982 7.34633 7.15489 7.43128 7.36872 7.43128H16.6247C16.8385 7.43128 17.0436 7.34633 17.1948 7.19513C17.346 7.04393 17.4309 6.83886 17.4309 6.62503Z" fill="black"/>
</svg>
