<svg width="24" height="24" viewBox="0 0 24 24" fill="none" xmlns="http://www.w3.org/2000/svg">
<path d="M22.75 7.7V16.4075C22.722 18.0902 22.0375 19.6953 20.8425 20.8803C19.6474 22.0652 18.0366 22.7362 16.3538 22.75H7.70001C5.99864 22.7501 4.36615 22.0779 3.15807 20.8799C1.94999 19.6819 1.26419 18.0551 1.25001 16.3538V7.7C1.24771 6.42905 1.62094 5.18574 2.32285 4.12618C3.02475 3.06662 4.02405 2.23805 5.19526 1.7445C5.26298 1.71363 5.3374 1.70041 5.41161 1.70608C5.48581 1.71174 5.55737 1.7361 5.61962 1.77688C5.68186 1.81766 5.73277 1.87354 5.76759 1.93931C5.80242 2.00508 5.82002 2.07859 5.81876 2.153V12.6235C5.81733 12.9664 5.88399 13.3063 6.0149 13.6232C6.1458 13.9402 6.33833 14.2281 6.58133 14.4701C6.82433 14.712 7.11296 14.9034 7.43047 15.033C7.74799 15.1626 8.08808 15.2278 8.43101 15.225C8.80233 15.2258 9.1693 15.1451 9.50601 14.9885L11.9893 13.9135L14.4725 14.9885C14.8092 15.1451 15.1762 15.2258 15.5475 15.225C15.8877 15.2278 16.2252 15.1636 16.5406 15.036C16.856 14.9085 17.1432 14.72 17.3858 14.4814C17.6283 14.2428 17.8215 13.9588 17.9543 13.6456C18.0871 13.3323 18.1569 12.996 18.1598 12.6558V2.153C18.1585 2.07859 18.1761 2.00508 18.2109 1.93931C18.2457 1.87354 18.2967 1.81766 18.3589 1.77688C18.4212 1.7361 18.4927 1.71174 18.5669 1.70608C18.6411 1.70041 18.7155 1.71363 18.7833 1.7445C19.9585 2.23476 20.9623 3.06191 21.6682 4.12173C22.3741 5.18155 22.7505 6.42661 22.75 7.7ZM8.43101 13.5803C8.57976 13.5804 8.72666 13.5473 8.86101 13.4835L11.57 12.2795C11.7056 12.2203 11.852 12.1898 12 12.1898C12.148 12.1898 12.2944 12.2203 12.43 12.2795L15.139 13.4835C15.2734 13.5473 15.4203 13.5804 15.569 13.5803C15.6975 13.5831 15.8253 13.5606 15.945 13.5141C16.0648 13.4675 16.1743 13.3979 16.2671 13.309C16.3599 13.2202 16.4344 13.1139 16.4861 12.9963C16.5379 12.8786 16.566 12.752 16.5688 12.6235V1.7015C16.5702 1.64272 16.5599 1.58425 16.5383 1.52953C16.5168 1.47481 16.4846 1.42494 16.4435 1.38287C16.4025 1.3408 16.3534 1.30737 16.2992 1.28455C16.245 1.26173 16.1868 1.24998 16.128 1.25H7.87201C7.75512 1.25 7.64301 1.29644 7.56035 1.37909C7.4777 1.46175 7.43126 1.57386 7.43126 1.69075V12.6235C7.43405 12.752 7.46213 12.8786 7.51389 12.9963C7.56565 13.1139 7.64008 13.2202 7.73292 13.309C7.82576 13.3979 7.9352 13.4675 8.05498 13.5141C8.17476 13.5606 8.30254 13.5831 8.43101 13.5803Z" fill="black"/>
</svg>
