<svg width="24" height="24" viewBox="0 0 24 24" fill="none" xmlns="http://www.w3.org/2000/svg">
<path d="M17.375 1.25H6.625C5.19946 1.25 3.83231 1.81629 2.8243 2.8243C1.81629 3.83231 1.25 5.19946 1.25 6.625V17.375C1.25 18.8005 1.81629 20.1677 2.8243 21.1757C3.83231 22.1837 5.19946 22.75 6.625 22.75H17.375C18.8005 22.75 20.1677 22.1837 21.1757 21.1757C22.1837 20.1677 22.75 18.8005 22.75 17.375V6.625C22.75 5.19946 22.1837 3.83231 21.1757 2.8243C20.1677 1.81629 18.8005 1.25 17.375 1.25ZM11.4625 18.3425C9.80158 17.4999 8.02731 16.9024 6.195 16.5688C5.89853 16.5368 5.62447 16.396 5.42587 16.1736C5.22728 15.9511 5.11828 15.6629 5.12 15.3648V6.84C5.11909 6.65984 5.15757 6.48167 5.23274 6.31794C5.30791 6.15421 5.41795 6.0089 5.55517 5.89216C5.69239 5.77542 5.85347 5.69008 6.02712 5.64212C6.20078 5.59416 6.38282 5.58473 6.5605 5.6145C8.2759 5.88273 9.92691 6.46587 11.4303 7.3345L11.4625 18.3425ZM18.8585 15.3755C18.8609 15.6631 18.7621 15.9424 18.5793 16.1645C18.3965 16.3866 18.1415 16.5373 17.8588 16.5903C16.0107 16.8847 14.2215 17.4726 12.559 18.3318V7.34525C14.0471 6.46998 15.6771 5.86237 17.375 5.55C17.5523 5.52054 17.7339 5.52977 17.9073 5.57705C18.0808 5.62433 18.2419 5.70854 18.3797 5.82392C18.5176 5.93929 18.6288 6.0831 18.7059 6.24549C18.783 6.40788 18.824 6.58501 18.8263 6.76475L18.8585 15.3755Z" fill="black"/>
</svg>
