<svg width="24" height="24" viewBox="0 0 24 24" fill="none" xmlns="http://www.w3.org/2000/svg">
<path d="M18.3994 5.11576H16.6784V4.0468C16.6784 3.27849 16.3732 2.54166 15.8299 1.99838C15.2866 1.45511 14.5498 1.1499 13.7815 1.1499H10.1577C9.39856 1.14977 8.66971 1.44763 8.12795 1.9794C7.58619 2.51117 7.27481 3.23435 7.2608 3.99335V5.06231H5.62528C4.84279 5.069 4.07591 5.28206 3.4021 5.67996C2.72829 6.07787 2.17141 6.64653 1.7877 7.32852C1.56396 7.71934 1.39831 8.14066 1.29598 8.57921C1.17964 9.05447 1.14351 9.54583 1.18908 10.033L1.34942 11.5723C3.34697 13.0803 5.68597 14.0717 8.15873 14.4585C8.17826 15.2563 8.50897 16.0148 9.08021 16.5721C9.65145 17.1294 10.4179 17.4412 11.216 17.4409H12.4025C13.1979 17.4386 13.9613 17.1273 14.5317 16.5729C15.1021 16.0185 15.4348 15.2642 15.4598 14.4692C18.1022 14.0908 20.5943 13.009 22.6753 11.3371L22.7501 10.4392L22.8036 9.97955C22.8598 9.36543 22.7879 8.74631 22.5926 8.16137C22.3973 7.57642 22.0827 7.03836 21.6688 6.58123C21.2549 6.12409 20.7506 5.75782 20.1878 5.50557C19.6251 5.25332 19.0161 5.12059 18.3994 5.11576ZM8.9177 4.0468C8.9177 3.70375 9.05397 3.37476 9.29654 3.13219C9.53911 2.88962 9.8681 2.75335 10.2111 2.75335H13.8349C14.178 2.75335 14.507 2.88962 14.7495 3.13219C14.9921 3.37476 15.1284 3.70375 15.1284 4.0468V5.11576H8.86425L8.9177 4.0468ZM12.4774 15.8909H11.2374C10.9028 15.8834 10.5813 15.7599 10.3278 15.5415C10.0743 15.3231 9.90462 15.0234 9.8477 14.6937C9.83734 14.5906 9.83734 14.4868 9.8477 14.3837V11.8396H13.9632V14.3837C13.9737 14.4903 13.9737 14.5977 13.9632 14.7044C13.889 15.0485 13.6915 15.3536 13.408 15.5623C13.1245 15.771 12.7745 15.8689 12.4239 15.8375L12.4774 15.8909ZM22.4401 13.4751L21.9377 18.8199C21.8363 19.9228 21.3259 20.948 20.507 21.6937C19.6881 22.4395 18.6198 22.8519 17.5122 22.8499H6.57666C5.48159 22.8484 4.42557 22.4429 3.61092 21.7111C2.79627 20.9793 2.28029 19.9727 2.16184 18.884L1.59529 13.6889C3.38814 14.7825 5.36058 15.5497 7.42115 15.9551C7.73372 16.7103 8.26299 17.356 8.94218 17.8107C9.62136 18.2654 10.42 18.5087 11.2374 18.5099H12.4239C13.244 18.5152 14.047 18.276 14.7306 17.8229C15.4141 17.3697 15.9471 16.7232 16.2615 15.9658C18.4634 15.5453 20.5622 14.6993 22.4401 13.4751Z" fill="black"/>
</svg>
