<svg width="24" height="24" viewBox="0 0 24 24" fill="none" xmlns="http://www.w3.org/2000/svg">
<path d="M18.9613 12.8714H5.03867C4.80789 12.8714 4.58656 12.7797 4.42337 12.6166C4.26019 12.4534 4.16851 12.232 4.16851 12.0013C4.16851 11.7705 4.26019 11.5491 4.42337 11.386C4.58656 11.2228 4.80789 11.1311 5.03867 11.1311H18.9613C19.1921 11.1311 19.4134 11.2228 19.5766 11.386C19.7398 11.5491 19.8315 11.7705 19.8315 12.0013C19.8315 12.232 19.7398 12.4534 19.5766 12.6166C19.4134 12.7797 19.1921 12.8714 18.9613 12.8714ZM22.5 19.9024C22.5 19.6716 22.4083 19.4502 22.2451 19.2871C22.0819 19.1239 21.8606 19.0322 21.6298 19.0322H2.37017C2.13938 19.0322 1.91805 19.1239 1.75487 19.2871C1.59168 19.4502 1.5 19.6716 1.5 19.9024C1.5 20.1331 1.59168 20.3545 1.75487 20.5177C1.91805 20.6808 2.13938 20.7725 2.37017 20.7725H21.6298C21.8597 20.7695 22.0793 20.6769 22.2418 20.5143C22.4044 20.3518 22.497 20.1322 22.5 19.9024ZM22.5 4.10015C22.497 3.8703 22.4044 3.65071 22.2418 3.48817C22.0793 3.32563 21.8597 3.23299 21.6298 3.22998H2.37017C2.13938 3.22998 1.91805 3.32166 1.75487 3.48485C1.59168 3.64803 1.5 3.86936 1.5 4.10015C1.5 4.33093 1.59168 4.55226 1.75487 4.71545C1.91805 4.87863 2.13938 4.97031 2.37017 4.97031H21.6298C21.8606 4.97031 22.0819 4.87863 22.2451 4.71545C22.4083 4.55226 22.5 4.33093 22.5 4.10015Z" fill="black"/>
</svg>
