<svg width="24" height="24" viewBox="0 0 24 24" fill="none" xmlns="http://www.w3.org/2000/svg">
<path d="M17.423 1H6.57698C5.3896 1 4.25086 1.47168 3.41126 2.31128C2.57166 3.15088 2.09998 4.28963 2.09998 5.477V18.523C2.09998 19.7104 2.57166 20.8491 3.41126 21.6887C4.25086 22.5283 5.3896 23 6.57698 23H17.423C18.6103 23 19.7491 22.5283 20.5887 21.6887C21.4283 20.8491 21.9 19.7104 21.9 18.523V5.477C21.9 4.28963 21.4283 3.15088 20.5887 2.31128C19.7491 1.47168 18.6103 1 17.423 1ZM10.724 17.434C10.8785 17.5887 10.9652 17.7984 10.9652 18.017C10.9652 18.2356 10.8785 18.4453 10.724 18.6C10.6497 18.6841 10.5582 18.7512 10.4557 18.7967C10.3532 18.8423 10.2421 18.8652 10.13 18.864C9.92021 18.8474 9.72415 18.7533 9.57998 18.6L8.90897 17.951L8.23798 18.6C8.08312 18.7462 7.8789 18.8286 7.66598 18.831C7.4992 18.8333 7.33566 18.7849 7.19691 18.6924C7.05817 18.5998 6.95074 18.4673 6.88879 18.3125C6.82685 18.1576 6.8133 17.9876 6.84993 17.8249C6.88656 17.6622 6.97165 17.5144 7.09398 17.401L7.70998 16.818L7.09398 16.224C6.99031 16.16 6.9021 16.0739 6.83568 15.9717C6.76927 15.8696 6.72629 15.7541 6.70984 15.6333C6.6934 15.5126 6.70388 15.3898 6.74055 15.2736C6.77723 15.1574 6.83917 15.0508 6.92194 14.9614C7.0047 14.8721 7.10624 14.8021 7.21925 14.7566C7.33226 14.7111 7.45395 14.6912 7.57556 14.6984C7.69717 14.7055 7.8157 14.7395 7.92262 14.7978C8.02955 14.8562 8.12222 14.9376 8.19397 15.036L8.86497 15.674L9.53597 15.036C9.69868 14.9356 9.89122 14.8948 10.0807 14.9206C10.2701 14.9464 10.4447 15.0372 10.5746 15.1775C10.7045 15.3178 10.7817 15.4989 10.7929 15.6898C10.8041 15.8807 10.7486 16.0695 10.636 16.224L10.02 16.818L10.724 17.434ZM14.739 19.128C14.5214 19.128 14.3087 19.0635 14.1278 18.9426C13.947 18.8217 13.806 18.65 13.7227 18.449C13.6395 18.248 13.6177 18.0268 13.6601 17.8134C13.7026 17.6 13.8073 17.404 13.9612 17.2502C14.115 17.0963 14.311 16.9916 14.5244 16.9491C14.7378 16.9067 14.9589 16.9285 15.1599 17.0117C15.3609 17.095 15.5327 17.236 15.6536 17.4169C15.7745 17.5978 15.839 17.8104 15.839 18.028C15.839 18.3197 15.7231 18.5995 15.5168 18.8058C15.3105 19.0121 15.0307 19.128 14.739 19.128ZM16.939 16.763C16.7214 16.763 16.5087 16.6985 16.3278 16.5776C16.147 16.4567 16.006 16.285 15.9227 16.084C15.8394 15.883 15.8177 15.6618 15.8601 15.4484C15.9026 15.235 16.0073 15.039 16.1612 14.8852C16.315 14.7313 16.511 14.6266 16.7244 14.5841C16.9378 14.5417 17.1589 14.5635 17.3599 14.6467C17.5609 14.73 17.7327 14.871 17.8536 15.0519C17.9745 15.2328 18.039 15.4454 18.039 15.663C18.039 15.9528 17.9246 16.231 17.7207 16.437C17.5168 16.6429 17.2398 16.7601 16.95 16.763H16.939ZM18.6 8.986C18.6 9.49362 18.3983 9.98046 18.0394 10.3394C17.6804 10.6983 17.1936 10.9 16.686 10.9H7.31397C6.80635 10.9 6.31952 10.6983 5.96057 10.3394C5.60163 9.98046 5.39998 9.49362 5.39998 8.986V6.214C5.39998 5.70638 5.60163 5.21954 5.96057 4.8606C6.31952 4.50165 6.80635 4.3 7.31397 4.3H16.686C16.9373 4.3 17.1862 4.34951 17.4184 4.44569C17.6506 4.54188 17.8616 4.68287 18.0394 4.8606C18.2171 5.03833 18.3581 5.24933 18.4543 5.48154C18.5505 5.71376 18.6 5.96265 18.6 6.214V8.986Z" fill="black"/>
</svg>
