<svg width="24" height="24" viewBox="0 0 24 24" fill="none" xmlns="http://www.w3.org/2000/svg">
<path d="M21.8601 7.20349C21.912 7.34035 21.9296 7.48749 21.9114 7.63245C21.8932 7.77742 21.8398 7.91595 21.7556 8.03632C21.6715 8.15668 21.5591 8.25534 21.4279 8.32393C21.2968 8.39253 21.1507 8.42905 21.0022 8.4304H3.17609C2.99451 8.43166 2.81536 8.38926 2.65426 8.3069C2.49315 8.22454 2.35496 8.1047 2.25171 7.95783C2.14846 7.81095 2.08329 7.64149 2.06187 7.4642C2.04045 7.2869 2.06343 7.10715 2.1288 6.94058C2.46677 6.14379 2.97646 5.42855 3.62274 4.84416C4.26902 4.25978 5.0365 3.82016 5.87228 3.55561V1.8467C5.87228 1.64623 5.95328 1.45397 6.09744 1.31222C6.24161 1.17047 6.43715 1.09083 6.64103 1.09083C6.74147 1.09082 6.8409 1.11044 6.93355 1.14856C7.02621 1.18668 7.11022 1.24253 7.18072 1.31287C7.25122 1.3832 7.30679 1.46662 7.3442 1.55827C7.38161 1.64991 7.40012 1.74796 7.39864 1.8467V3.28175C7.5212 3.28175 7.63261 3.28175 7.75516 3.28175H11.4095V1.8467C11.408 1.74796 11.4265 1.64991 11.464 1.55827C11.5014 1.46662 11.5569 1.3832 11.6274 1.31287C11.6979 1.24253 11.7819 1.18668 11.8746 1.14856C11.9672 1.11044 12.0667 1.09082 12.1671 1.09083C12.371 1.09083 12.5665 1.17047 12.7107 1.31222C12.8549 1.45397 12.9359 1.64623 12.9359 1.8467V3.28175H16.1223C16.2448 3.28175 16.3562 3.28175 16.4788 3.28175V1.8467C16.4657 1.74054 16.4757 1.63287 16.5081 1.53079C16.5405 1.42871 16.5945 1.33455 16.6667 1.25453C16.7388 1.17451 16.8274 1.11044 16.9265 1.06656C17.0257 1.02269 17.1332 1 17.242 1C17.3507 1 17.4582 1.02269 17.5574 1.06656C17.6566 1.11044 17.7452 1.17451 17.8173 1.25453C17.8894 1.33455 17.9435 1.42871 17.9759 1.53079C18.0082 1.63287 18.0182 1.74054 18.0052 1.8467V3.55561C18.888 3.83455 19.6943 4.30824 20.3624 4.94048C21.0305 5.57272 21.5428 6.34678 21.8601 7.20349ZM21.3364 9.93118H2.66359C2.42129 9.93118 2.18891 10.0258 2.01758 10.1943C1.84625 10.3627 1.75 10.5912 1.75 10.8295V17.0626C1.75 18.6373 2.38621 20.1475 3.51866 21.261C4.65112 22.3745 6.18705 23 7.78859 23H16.2114C17.0044 23 17.7896 22.8464 18.5223 22.548C19.2549 22.2497 19.9206 21.8123 20.4813 21.261C21.0421 20.7096 21.4869 20.0551 21.7903 19.3348C22.0938 18.6144 22.25 17.8423 22.25 17.0626V10.8295C22.25 10.5912 22.1537 10.3627 21.9824 10.1943C21.8111 10.0258 21.5787 9.93118 21.3364 9.93118ZM16.5345 14.8388L11.8329 19.856C11.7071 19.9899 11.5446 20.085 11.3649 20.1299L9.86087 20.5133C9.70299 20.5519 9.53783 20.5512 9.38027 20.5114C9.22271 20.4715 9.07772 20.3938 8.95835 20.2851C8.83898 20.1764 8.74899 20.0402 8.69649 19.8889C8.64399 19.7375 8.63063 19.5756 8.65761 19.4179L8.91386 17.9171C8.95171 17.735 9.03606 17.5653 9.15897 17.4241L13.894 12.4179C13.9992 12.3055 14.126 12.2146 14.267 12.1504C14.408 12.0863 14.5605 12.0501 14.7157 12.044C14.871 12.0379 15.0259 12.062 15.1717 12.1149C15.3175 12.1677 15.4512 12.2484 15.5652 12.3521L16.5011 13.2066C16.6199 13.307 16.7159 13.431 16.7827 13.5703C16.8495 13.7097 16.8857 13.8613 16.8888 14.0154C16.892 14.1694 16.8621 14.3224 16.801 14.4643C16.74 14.6062 16.6491 14.7338 16.5345 14.8388Z" fill="black"/>
</svg>
