<svg width="24" height="24" viewBox="0 0 24 24" fill="none" xmlns="http://www.w3.org/2000/svg">
<path d="M21.8601 7.138C21.912 7.27542 21.9296 7.42318 21.9114 7.56874C21.8932 7.71431 21.8398 7.85342 21.7556 7.97428C21.6715 8.09514 21.5591 8.19421 21.4279 8.26309C21.2968 8.33197 21.1507 8.36864 21.0022 8.37H3.17609C2.99451 8.37127 2.81536 8.32869 2.65426 8.24599C2.49315 8.16328 2.35496 8.04295 2.25171 7.89547C2.14846 7.74798 2.08329 7.57782 2.06187 7.39979C2.04045 7.22176 2.06343 7.04126 2.1288 6.874C2.46677 6.07391 2.97646 5.3557 3.62274 4.76889C4.26902 4.18209 5.0365 3.74065 5.87228 3.475V1.759C5.87081 1.65985 5.88931 1.5614 5.92672 1.46937C5.96413 1.37735 6.01971 1.29359 6.0902 1.22296C6.1607 1.15233 6.24472 1.09625 6.33737 1.05797C6.43002 1.0197 6.52946 0.999989 6.62989 1C6.83378 1 7.02931 1.07997 7.17348 1.22231C7.31765 1.36465 7.39864 1.5577 7.39864 1.759V3.2C7.54348 3.2 7.63261 3.2 7.75516 3.2H11.3984V1.759C11.3984 1.5577 11.4794 1.36465 11.6235 1.22231C11.7677 1.07997 11.9632 1 12.1671 1C12.371 1 12.5665 1.07997 12.7107 1.22231C12.8549 1.36465 12.9359 1.5577 12.9359 1.759V3.2H16.1668C16.2894 3.2 16.4008 3.2 16.5234 3.2V1.759C16.5219 1.65985 16.5404 1.5614 16.5778 1.46937C16.6152 1.37735 16.6708 1.29359 16.7413 1.22296C16.8118 1.15233 16.8958 1.09625 16.9885 1.05797C17.0811 1.0197 17.1805 0.999989 17.281 1C17.4849 1 17.6804 1.07997 17.8246 1.22231C17.9687 1.36465 18.0497 1.5577 18.0497 1.759V3.475C18.9243 3.76084 19.7217 4.23907 20.3818 4.87361C21.0419 5.50815 21.5473 6.28242 21.8601 7.138ZM21.3364 9.877H2.66359C2.42129 9.877 2.18891 9.97203 2.01758 10.1412C1.84625 10.3103 1.75 10.5398 1.75 10.779V17.038C1.75 18.6192 2.38621 20.1357 3.51866 21.2538C4.65112 22.3719 6.18705 23 7.78859 23H16.2114C17.0044 23 17.7896 22.8458 18.5223 22.5462C19.2549 22.2466 19.9206 21.8074 20.4813 21.2538C21.0421 20.7001 21.4869 20.0429 21.7903 19.3196C22.0938 18.5962 22.25 17.8209 22.25 17.038V10.779C22.25 10.5398 22.1537 10.3103 21.9824 10.1412C21.8111 9.97203 21.5787 9.877 21.3364 9.877ZM16.1223 20.085C16.048 20.1628 15.9582 20.2246 15.8584 20.2662C15.7587 20.3079 15.6512 20.3286 15.5429 20.327C15.3167 20.3232 15.1008 20.2325 14.9413 20.074L14.2283 19.337C13.3883 19.878 12.3751 20.0925 11.3843 19.9391C10.3935 19.7857 9.49545 19.2753 8.86352 18.5064C8.23159 17.7375 7.91062 16.7647 7.96259 15.7759C8.01457 14.7871 8.4358 13.8523 9.14495 13.1522C9.8541 12.452 10.8009 12.0361 11.8024 11.9848C12.8039 11.9335 13.7892 12.2504 14.568 12.8743C15.3467 13.4982 15.8637 14.3849 16.019 15.3631C16.1744 16.3413 15.9572 17.3417 15.4092 18.171L16.1446 18.919C16.2981 19.0766 16.382 19.2879 16.3779 19.5066C16.3737 19.7252 16.2818 19.9332 16.1223 20.085Z" fill="black"/>
</svg>
