<svg width="24" height="24" viewBox="0 0 24 24" fill="none" xmlns="http://www.w3.org/2000/svg">
<path d="M21.716 7.13673C21.7677 7.27323 21.7853 7.42025 21.7675 7.56509C21.7496 7.70994 21.6969 7.84828 21.6137 7.96819C21.5305 8.0881 21.4194 8.186 21.29 8.25343C21.1606 8.32087 21.0167 8.35582 20.8707 8.35529H3.30586C3.12974 8.35126 2.95717 8.30491 2.80273 8.22014C2.64829 8.13538 2.51652 8.01469 2.41855 7.86827C2.32058 7.72185 2.25929 7.55401 2.23985 7.37891C2.22041 7.20382 2.24339 7.02662 2.30686 6.86228C2.63641 6.06845 3.13373 5.35527 3.76473 4.77165C4.39572 4.18803 5.14546 3.74776 5.96255 3.48104V1.75749C5.97104 1.56526 6.05342 1.38374 6.19251 1.25079C6.33159 1.11784 6.51665 1.04372 6.70906 1.04391C6.90995 1.04391 7.10262 1.12372 7.24468 1.26577C7.38673 1.40783 7.46654 1.6005 7.46654 1.8014V3.23952C7.5873 3.23952 7.69708 3.23952 7.81784 3.23952H11.4077V1.75749C11.4077 1.55659 11.4875 1.36392 11.6295 1.22186C11.7716 1.07981 11.9642 1 12.1651 1C12.366 1 12.5587 1.07981 12.7008 1.22186C12.8428 1.36392 12.9226 1.55659 12.9226 1.75749V3.16267H16.1063C16.227 3.16267 16.3368 3.16267 16.4576 3.16267V1.75749C16.466 1.56526 16.5484 1.38374 16.6875 1.25079C16.8266 1.11784 17.0117 1.04372 17.2041 1.04391C17.405 1.04391 17.5976 1.12372 17.7397 1.26577C17.8817 1.40783 17.9615 1.6005 17.9615 1.8014V3.48104C18.8249 3.76338 19.6121 4.23964 20.2629 4.87331C20.9137 5.50697 21.4108 6.28123 21.716 7.13673ZM21.2001 9.82635H2.80087C2.56212 9.82635 2.33316 9.92119 2.16433 10.09C1.99551 10.2588 1.90067 10.4878 1.90067 10.7265V16.9621C1.88903 17.7508 2.03434 18.534 2.32814 19.2661C2.62194 19.9981 3.05838 20.6645 3.61206 21.2263C4.16574 21.7882 4.82561 22.2343 5.5533 22.5388C6.28098 22.8433 7.06195 23.0001 7.85077 23H16.1502C16.9316 23 17.7053 22.8461 18.4272 22.5471C19.1491 22.2481 19.805 21.8098 20.3575 21.2573C20.91 20.7047 21.3483 20.0488 21.6473 19.3269C21.9464 18.605 22.1003 17.8313 22.1003 17.0499V10.7705C22.1062 10.6486 22.0873 10.5268 22.0448 10.4125C22.0022 10.2981 21.9368 10.1936 21.8527 10.1053C21.7685 10.017 21.6672 9.94678 21.555 9.89882C21.4428 9.85086 21.3221 9.8262 21.2001 9.82635ZM8.39967 18.4551C8.21607 18.4529 8.03719 18.3966 7.88543 18.2933C7.73367 18.1899 7.61578 18.0441 7.54652 17.874C7.47726 17.704 7.4597 17.5172 7.49606 17.3373C7.53241 17.1573 7.62106 16.992 7.75089 16.8622C7.88073 16.7324 8.04598 16.6437 8.22597 16.6074C8.40595 16.571 8.59265 16.5886 8.7627 16.6578C8.93276 16.7271 9.0786 16.845 9.18196 16.9967C9.28532 17.1485 9.34161 17.3274 9.34379 17.511C9.34526 17.6354 9.32184 17.7588 9.27492 17.874C9.22799 17.9892 9.15851 18.0939 9.07054 18.1818C8.98258 18.2698 8.87791 18.3393 8.7627 18.3862C8.64749 18.4331 8.52407 18.4566 8.39967 18.4551ZM8.39967 14.9421C8.2156 14.9399 8.03628 14.8834 7.88428 14.7795C7.73228 14.6757 7.61438 14.5292 7.54544 14.3585C7.47649 14.1878 7.45957 14.0006 7.49681 13.8203C7.53404 13.64 7.62377 13.4748 7.7547 13.3454C7.88562 13.216 8.0519 13.1282 8.23261 13.0931C8.41331 13.0579 8.60037 13.077 8.77024 13.148C8.94011 13.2189 9.0852 13.3385 9.18725 13.4917C9.28931 13.6449 9.34377 13.8249 9.34379 14.009C9.34379 14.2565 9.24547 14.4938 9.07048 14.6688C8.89548 14.8438 8.65813 14.9421 8.41065 14.9421H8.39967ZM11.9236 14.9421C11.7396 14.9399 11.5602 14.8834 11.4082 14.7795C11.2562 14.6757 11.1383 14.5292 11.0694 14.3585C11.0004 14.1878 10.9835 14.0006 11.0208 13.8203C11.058 13.64 11.1477 13.4748 11.2786 13.3454C11.4096 13.216 11.5759 13.1282 11.7566 13.0931C11.9373 13.0579 12.1243 13.077 12.2942 13.148C12.4641 13.2189 12.6091 13.3385 12.7112 13.4917C12.8133 13.6449 12.8677 13.8249 12.8677 14.009C12.8677 14.2565 12.7694 14.4938 12.5944 14.6688C12.4194 14.8438 12.1821 14.9421 11.9346 14.9421H11.9236Z" fill="black"/>
</svg>
