<svg width="24" height="24" viewBox="0 0 24 24" fill="none" xmlns="http://www.w3.org/2000/svg">
<path d="M21.2013 9.91568H3.04567C2.81661 9.92426 2.59999 10.0221 2.44206 10.1882C2.28414 10.3543 2.19743 10.5756 2.20045 10.8048V17.0286C2.1903 17.8064 2.33418 18.5785 2.6238 19.3004C2.91342 20.0223 3.34306 20.6797 3.88794 21.2348C4.43282 21.7899 5.08217 22.2316 5.79857 22.5346C6.51496 22.8375 7.28424 22.9957 8.06205 23H16.2398C17.7926 22.9626 19.2682 22.3149 20.3468 21.1972C21.4255 20.0795 22.0203 18.5818 22.0026 17.0286V10.8048C22.0062 10.5827 21.9255 10.3676 21.7769 10.2026C21.6282 10.0376 21.4225 9.93508 21.2013 9.91568ZM8.61089 18.4776C8.42778 18.4775 8.24876 18.4235 8.09612 18.3223C7.94347 18.2212 7.82397 18.0774 7.75248 17.9088C7.681 17.7402 7.6607 17.5543 7.69411 17.3743C7.72752 17.1943 7.81317 17.028 7.94038 16.8963C8.0676 16.7646 8.23075 16.6733 8.40952 16.6336C8.58828 16.594 8.77476 16.6078 8.94572 16.6734C9.11667 16.739 9.26455 16.8535 9.37092 17.0025C9.47729 17.1516 9.53745 17.3286 9.54392 17.5116C9.54103 17.7572 9.44145 17.9917 9.26679 18.1643C9.09213 18.3369 8.85646 18.4337 8.61089 18.4337V18.4776ZM8.61089 14.976C8.42636 14.976 8.24597 14.9213 8.09253 14.8187C7.9391 14.7162 7.81951 14.5705 7.74889 14.4C7.67827 14.2295 7.65979 14.0419 7.69579 13.8609C7.73179 13.6799 7.82066 13.5137 7.95114 13.3832C8.08163 13.2527 8.24788 13.1639 8.42887 13.1279C8.60986 13.0918 8.79746 13.1103 8.96795 13.1809C9.13843 13.2516 9.28415 13.3712 9.38667 13.5246C9.4892 13.678 9.54392 13.8584 9.54392 14.0429C9.54539 14.1659 9.52226 14.2879 9.47589 14.4017C9.42953 14.5156 9.36086 14.619 9.27392 14.706C9.18699 14.7929 9.08355 14.8616 8.96968 14.908C8.85582 14.9543 8.73383 14.9774 8.61089 14.976ZM12.1235 18.4776C11.8779 18.4718 11.6446 18.3695 11.474 18.1927C11.3034 18.016 11.2094 17.7792 11.2124 17.5336C11.2124 17.289 11.3095 17.0545 11.4825 16.8816C11.6554 16.7087 11.8899 16.6115 12.1344 16.6115C12.379 16.6115 12.6135 16.7087 12.7864 16.8816C12.9593 17.0545 13.0565 17.289 13.0565 17.5336C13.0536 17.7791 12.954 18.0136 12.7794 18.1862C12.6047 18.3588 12.369 18.4556 12.1235 18.4556V18.4776ZM12.1235 14.976C11.8779 14.9702 11.6446 14.8679 11.474 14.6911C11.3034 14.5144 11.2094 14.2776 11.2124 14.032C11.2124 13.7874 11.3095 13.5529 11.4825 13.38C11.6554 13.2071 11.8899 13.1099 12.1344 13.1099C12.379 13.1099 12.6135 13.2071 12.7864 13.38C12.9593 13.5529 13.0565 13.7874 13.0565 14.032C13.0565 14.2775 12.9597 14.5132 12.7871 14.6879C12.6145 14.8625 12.38 14.9621 12.1344 14.965L12.1235 14.976ZM15.6141 18.4776C15.3666 18.4776 15.1293 18.3793 14.9543 18.2043C14.7794 18.0293 14.6811 17.792 14.6811 17.5445C14.6811 17.2971 14.7794 17.0598 14.9543 16.8848C15.1293 16.7098 15.3666 16.6115 15.6141 16.6115C15.8615 16.6115 16.0989 16.7098 16.2738 16.8848C16.4488 17.0598 16.5471 17.2971 16.5471 17.5445C16.5471 17.792 16.4488 18.0293 16.2738 18.2043C16.0989 18.3793 15.8615 18.4776 15.6141 18.4776ZM15.6141 14.976C15.3666 14.976 15.1293 14.8777 14.9543 14.7027C14.7794 14.5277 14.6811 14.2904 14.6811 14.0429C14.6811 13.7955 14.7794 13.5582 14.9543 13.3832C15.1293 13.2082 15.3666 13.1099 15.6141 13.1099C15.8615 13.1099 16.0989 13.2082 16.2738 13.3832C16.4488 13.5582 16.5471 13.7955 16.5471 14.0429C16.5471 14.2904 16.4488 14.5277 16.2738 14.7027C16.0989 14.8777 15.8615 14.976 15.6141 14.976ZM21.7062 7.19344C21.7849 7.41927 21.7729 7.66686 21.6725 7.88396C21.5722 8.10106 21.3914 8.27066 21.1683 8.35698C21.0731 8.39103 20.973 8.40956 20.872 8.41186H3.58353C3.2924 8.41186 3.01321 8.29621 2.80735 8.09036C2.6015 7.8845 2.48585 7.60531 2.48585 7.31418C2.48275 7.17847 2.50896 7.04368 2.56269 6.91902C2.88451 6.13104 3.37286 5.42193 3.99429 4.84029C4.61572 4.25864 5.35555 3.8182 6.16307 3.54915V1.83677C6.16307 1.63881 6.24171 1.44895 6.38169 1.30897C6.52167 1.16899 6.71153 1.09035 6.90949 1.09035C7.10745 1.09035 7.29731 1.16899 7.43729 1.30897C7.57727 1.44895 7.65591 1.63881 7.65591 1.83677V3.2418H11.5527V1.83677C11.5399 1.7319 11.5495 1.62551 11.5809 1.52463C11.6123 1.42376 11.6647 1.33069 11.7348 1.2516C11.8048 1.1725 11.8908 1.10917 11.9872 1.0658C12.0835 1.02243 12.188 1 12.2936 1C12.3992 1 12.5037 1.02243 12.6 1.0658C12.6964 1.10917 12.7824 1.1725 12.8524 1.2516C12.9225 1.33069 12.9749 1.42376 13.0063 1.52463C13.0377 1.62551 13.0473 1.7319 13.0345 1.83677V3.2418H16.5142V1.83677C16.5014 1.7319 16.511 1.62551 16.5424 1.52463C16.5738 1.42376 16.6262 1.33069 16.6963 1.2516C16.7663 1.1725 16.8523 1.10917 16.9487 1.0658C17.045 1.02243 17.1495 1 17.2551 1C17.3608 1 17.4652 1.02243 17.5615 1.0658C17.6579 1.10917 17.7439 1.1725 17.8139 1.2516C17.884 1.33069 17.9364 1.42376 17.9678 1.52463C17.9992 1.62551 18.0088 1.7319 17.996 1.83677V3.54915C18.8512 3.83387 19.63 4.3102 20.273 4.94179C20.916 5.57338 21.4062 6.34352 21.7062 7.19344Z" fill="black"/>
</svg>
