<svg width="24" height="24" viewBox="0 0 24 24" fill="none" xmlns="http://www.w3.org/2000/svg">
<path d="M20.5729 6.68336C20.6222 6.81537 20.6391 6.95726 20.6223 7.09716C20.6055 7.23705 20.5555 7.37089 20.4764 7.48749C20.3973 7.60408 20.2914 7.70004 20.1676 7.76733C20.0438 7.83462 19.9057 7.8713 19.7648 7.87429H2.75157C2.57917 7.87378 2.40948 7.83136 2.25712 7.75068C2.10476 7.67001 1.9743 7.55349 1.87698 7.41118C1.77967 7.26887 1.71841 7.10503 1.6985 6.93378C1.67859 6.76253 1.70061 6.58901 1.76268 6.42817C2.08175 5.65619 2.56453 4.96265 3.17768 4.39538C3.79084 3.82812 4.51978 3.40066 5.31419 3.14249V1.4837C5.31419 1.28911 5.39149 1.10249 5.52909 0.964894C5.66668 0.8273 5.8533 0.75 6.04789 0.75C6.24248 0.75 6.42909 0.8273 6.56669 0.964894C6.70428 1.10249 6.78158 1.28911 6.78158 1.4837V2.86602C6.88792 2.86602 6.99425 2.86602 7.11122 2.86602H10.5989V1.4837C10.5989 1.28911 10.6762 1.10249 10.8138 0.964894C10.9514 0.8273 11.138 0.75 11.3326 0.75C11.4285 0.74999 11.5234 0.769039 11.6118 0.806039C11.7002 0.84304 11.7804 0.897253 11.8477 0.965526C11.915 1.0338 11.968 1.11477 12.0037 1.20373C12.0394 1.29268 12.0571 1.38785 12.0557 1.4837V2.83412H15.1712C15.2776 2.83412 15.3839 2.83412 15.5009 2.83412V1.4837C15.5009 1.28911 15.5782 1.10249 15.7158 0.964894C15.8534 0.8273 16.04 0.75 16.2346 0.75C16.4291 0.75 16.6158 0.8273 16.7534 0.964894C16.891 1.10249 16.9683 1.28911 16.9683 1.4837V3.14249C17.7986 3.42012 18.5547 3.88329 19.1793 4.49682C19.8039 5.11035 20.2805 5.85812 20.5729 6.68336ZM20.0732 9.33105H2.25181C2.02056 9.33105 1.79878 9.42291 1.63526 9.58643C1.47175 9.74995 1.37988 9.97173 1.37988 10.203V16.2533C1.3827 17.7828 1.99226 19.2487 3.07476 20.3292C4.15727 21.4097 5.62426 22.0165 7.15375 22.0165H13.3317C12.7733 21.1084 12.4787 20.0628 12.481 18.9967C12.476 17.9936 12.7295 17.0062 13.2172 16.1296C13.7048 15.253 14.4101 14.5169 15.265 13.9922C16.1199 13.4675 17.0956 13.172 18.0979 13.134C19.1003 13.0961 20.0955 13.3171 20.9876 13.7758V10.203C20.9878 10.0848 20.9639 9.96784 20.9174 9.85918C20.871 9.75052 20.8029 9.65244 20.7174 9.57089C20.6319 9.48934 20.5307 9.42603 20.4199 9.3848C20.3092 9.34357 20.1912 9.32528 20.0732 9.33105ZM7.72794 17.6569C7.54965 17.6548 7.37596 17.6 7.22873 17.4994C7.08151 17.3989 6.96732 17.257 6.90054 17.0916C6.83376 16.9263 6.81737 16.7449 6.85343 16.5703C6.8895 16.3957 6.97641 16.2356 7.10322 16.1103C7.23004 15.985 7.3911 15.8999 7.56612 15.8659C7.74115 15.8319 7.92233 15.8504 8.08687 15.9191C8.2514 15.9878 8.39194 16.1037 8.49079 16.2521C8.58964 16.4004 8.64239 16.5748 8.64241 16.7531C8.64241 16.8727 8.61869 16.9911 8.5726 17.1014C8.52652 17.2118 8.45899 17.3119 8.37393 17.396C8.28887 17.48 8.18798 17.5464 8.07709 17.5912C7.9662 17.636 7.84753 17.6583 7.72794 17.6569ZM7.72794 14.2436C7.5492 14.2415 7.3751 14.1864 7.22766 14.0854C7.08021 13.9843 6.96604 13.8418 6.89959 13.6759C6.83314 13.5099 6.81738 13.328 6.85432 13.1531C6.89125 12.9782 6.97922 12.8182 7.1071 12.6933C7.23498 12.5684 7.39702 12.4842 7.57274 12.4514C7.74845 12.4186 7.92996 12.4386 8.09429 12.5089C8.25862 12.5793 8.39841 12.6968 8.49598 12.8466C8.59354 12.9963 8.6445 13.1717 8.64241 13.3504C8.63685 13.5893 8.53806 13.8164 8.36716 13.9833C8.19627 14.1503 7.96684 14.2437 7.72794 14.2436ZM11.1412 14.2436C10.963 14.2394 10.79 14.1826 10.6439 14.0803C10.4979 13.978 10.3854 13.8348 10.3206 13.6687C10.2558 13.5026 10.2415 13.321 10.2796 13.1469C10.3177 12.9727 10.4065 12.8137 10.5348 12.6898C10.663 12.566 10.825 12.4828 11.0005 12.4509C11.1759 12.4189 11.3568 12.4395 11.5205 12.5101C11.6842 12.5807 11.8234 12.6982 11.9205 12.8477C12.0176 12.9972 12.0684 13.1721 12.0663 13.3504C12.0637 13.4733 12.0363 13.5944 11.9858 13.7065C11.9352 13.8186 11.8627 13.9193 11.7723 14.0027C11.682 14.086 11.5758 14.1504 11.4601 14.1918C11.3443 14.2332 11.2214 14.2508 11.0987 14.2436H11.1412ZM18.3718 14.7434C17.5306 14.7434 16.7083 14.9928 16.0088 15.4602C15.3094 15.9276 14.7642 16.5918 14.4423 17.369C14.1204 18.1462 14.0362 19.0014 14.2003 19.8265C14.3644 20.6515 14.7695 21.4094 15.3643 22.0042C15.9591 22.5991 16.717 23.0042 17.5421 23.1683C18.3671 23.3324 19.2223 23.2482 19.9995 22.9262C20.7767 22.6043 21.441 22.0592 21.9083 21.3597C22.3757 20.6602 22.6252 19.8379 22.6252 18.9967C22.6252 18.4372 22.5148 17.8833 22.3004 17.3666C22.086 16.8498 21.7717 16.3805 21.3756 15.9854C20.9795 15.5903 20.5094 15.2772 19.9921 15.0641C19.4749 14.851 18.9207 14.742 18.3612 14.7434H18.3718ZM20.0519 19.5709C20.1278 19.646 20.188 19.7355 20.2291 19.834C20.2702 19.9326 20.2914 20.0383 20.2914 20.1451C20.2914 20.2519 20.2702 20.3576 20.2291 20.4562C20.188 20.5547 20.1278 20.6441 20.0519 20.7193C19.9025 20.8689 19.6998 20.953 19.4883 20.9532C19.2778 20.9486 19.0767 20.8651 18.9248 20.7193L18.3399 20.1132L17.7232 20.6874C17.5763 20.825 17.3822 20.9011 17.1809 20.9C17.0704 20.8981 16.9615 20.8735 16.861 20.8277C16.7604 20.782 16.6702 20.7162 16.5961 20.6342C16.5157 20.557 16.4519 20.4641 16.4086 20.3613C16.3654 20.2585 16.3436 20.148 16.3446 20.0365C16.3456 19.9249 16.3693 19.8148 16.4144 19.7128C16.4595 19.6108 16.5249 19.5191 16.6067 19.4433L17.1703 18.9223L16.6386 18.38C16.56 18.2245 16.5338 18.0477 16.5638 17.8761C16.5939 17.7045 16.6786 17.5472 16.8053 17.4276C16.9321 17.3081 17.094 17.2327 17.2671 17.2127C17.4402 17.1927 17.6151 17.2291 17.7658 17.3166L18.3506 17.9227L18.9673 17.3485C19.0448 17.278 19.1354 17.2234 19.234 17.1878C19.3326 17.1523 19.4372 17.1366 19.5419 17.1415C19.6466 17.1465 19.7492 17.172 19.8441 17.2166C19.9389 17.2613 20.0239 17.3242 20.0944 17.4017C20.2382 17.5617 20.3132 17.7719 20.3033 17.9868C20.2934 18.2017 20.1992 18.404 20.0413 18.5501L19.4777 19.0711L20.0519 19.5709Z" fill="black"/>
</svg>
