<svg width="24" height="24" viewBox="0 0 24 24" fill="none" xmlns="http://www.w3.org/2000/svg">
<path d="M12.4459 1.25H9.26815V2.325C9.26815 2.61011 9.15349 2.88354 8.9494 3.08514C8.74531 3.28674 8.46851 3.4 8.17988 3.4C7.89126 3.4 7.61445 3.28674 7.41036 3.08514C7.20627 2.88354 7.09162 2.61011 7.09162 2.325V1.25H3.84859C3.52703 1.25 3.20863 1.31256 2.91155 1.43412C2.61447 1.55567 2.34454 1.73383 2.11717 1.95844C1.65797 2.41204 1.39999 3.02726 1.39999 3.66875V20.3313C1.39999 20.9727 1.65797 21.588 2.11717 22.0416C2.34454 22.2662 2.61447 22.4443 2.91155 22.5659C3.20863 22.6874 3.52703 22.75 3.84859 22.75H12.4459C13.0953 22.75 13.7181 22.4952 14.1773 22.0416C14.6365 21.588 14.8945 20.9727 14.8945 20.3313V3.66875C14.8945 3.02726 14.6365 2.41204 14.1773 1.95844C13.7181 1.50483 13.0953 1.25 12.4459 1.25ZM8.09282 18.45C7.8709 18.4514 7.65091 18.4093 7.4456 18.3261C7.24029 18.2428 7.05377 18.1202 6.89684 17.9652C6.73992 17.8101 6.61572 17.6259 6.53147 17.4231C6.44721 17.2203 6.40456 17.003 6.40601 16.7838H9.85581C9.8573 17.0048 9.81397 17.2239 9.72836 17.4281C9.64275 17.6324 9.5166 17.8176 9.35736 17.9729C9.19811 18.1282 9.00899 18.2504 8.80115 18.3324C8.59332 18.4143 8.37097 18.4543 8.14723 18.45H8.09282ZM12.2065 15.3863C12.2065 15.5773 12.1296 15.7605 11.9929 15.8955C11.8562 16.0306 11.6707 16.1065 11.4773 16.1065H4.77361C4.58023 16.1065 4.39478 16.0306 4.25804 15.8955C4.1213 15.7605 4.04448 15.5773 4.04448 15.3863V12.3763C4.04616 11.4444 4.37114 10.5413 4.96525 9.81754C5.55935 9.09374 6.38667 8.59298 7.30927 8.39875V7.2485C7.30927 7.02612 7.3987 6.81284 7.55789 6.65559C7.71708 6.49834 7.93299 6.41 8.15812 6.41C8.38324 6.41 8.59915 6.49834 8.75834 6.65559C8.91753 6.81284 9.00696 7.02612 9.00696 7.2485V8.39875C9.92956 8.59298 10.7569 9.09374 11.351 9.81754C11.9451 10.5413 12.2701 11.4444 12.2718 12.3763L12.2065 15.3863ZM21.8267 13.075H18.7687C18.5615 13.0517 18.3703 12.9539 18.2314 12.8003C18.0926 12.6466 18.0158 12.4478 18.0158 12.2419C18.0158 12.0359 18.0926 11.8371 18.2314 11.6835C18.3703 11.5298 18.5615 11.432 18.7687 11.4088H21.8267C22.0339 11.432 22.2251 11.5298 22.364 11.6835C22.5029 11.8371 22.5796 12.0359 22.5796 12.2419C22.5796 12.4478 22.5029 12.6466 22.364 12.8003C22.2251 12.9539 22.0339 13.0517 21.8267 13.075ZM18.8122 7.7C18.6265 7.69493 18.4477 7.62983 18.303 7.51469C18.1584 7.39954 18.056 7.24072 18.0115 7.06256C17.9671 6.88441 17.983 6.69676 18.0568 6.5284C18.1307 6.36004 18.2584 6.22026 18.4205 6.1305L21.3805 4.561C21.5753 4.48181 21.7929 4.47695 21.991 4.54738C22.1892 4.6178 22.3538 4.75847 22.4528 4.94206C22.5518 5.12565 22.5782 5.33905 22.5269 5.5408C22.4755 5.74255 22.3501 5.91825 22.175 6.03375L19.2149 7.614C19.0894 7.67368 18.9514 7.70315 18.8122 7.7ZM21.8267 19.9657C21.6903 19.9643 21.5561 19.9311 21.4349 19.869L18.4749 18.2995C18.2997 18.184 18.1743 18.0083 18.1229 17.8066C18.0716 17.6048 18.098 17.3914 18.197 17.2078C18.2961 17.0242 18.4606 16.8835 18.6588 16.8131C18.857 16.7427 19.0746 16.7476 19.2693 16.8268L22.175 18.45C22.3581 18.5542 22.4952 18.7222 22.5596 18.921C22.624 19.1198 22.611 19.3351 22.5232 19.525C22.4548 19.651 22.3549 19.7577 22.233 19.8348C22.1111 19.912 21.9712 19.9571 21.8267 19.9657Z" fill="black"/>
</svg>
