<svg width="24" height="24" viewBox="0 0 24 24" fill="none" xmlns="http://www.w3.org/2000/svg">
<path d="M21.4458 22.25H7.84622C6.23461 22.2449 4.6906 21.6018 3.55191 20.4613C2.41322 19.3209 1.77255 17.7758 1.77002 16.1642V2.5263C1.77002 2.42435 1.7901 2.32341 1.82911 2.22922C1.86812 2.13504 1.92531 2.04946 1.99739 1.97737C2.06948 1.90529 2.15506 1.8481 2.24924 1.80909C2.34343 1.77008 2.44437 1.75 2.54632 1.75C2.64826 1.75 2.74921 1.77008 2.84339 1.80909C2.93758 1.8481 3.02316 1.90529 3.09524 1.97737C3.16733 2.04946 3.22451 2.13504 3.26352 2.22922C3.30253 2.32341 3.32261 2.42435 3.32261 2.5263V16.1642C3.32261 17.3648 3.7989 18.5164 4.64697 19.3663C5.49503 20.2161 6.64561 20.6949 7.84622 20.6974H21.4458C21.6517 20.6974 21.8491 20.7792 21.9947 20.9248C22.1403 21.0704 22.2221 21.2678 22.2221 21.4737C22.2221 21.6796 22.1403 21.877 21.9947 22.0226C21.8491 22.1682 21.6517 22.25 21.4458 22.25ZM21.9538 16.3751C22.1104 16.2397 22.2073 16.0481 22.2234 15.8417C22.2396 15.6354 22.1737 15.431 22.04 15.2729L18.3214 10.941C17.8418 10.3763 17.1577 10.0249 16.4193 9.96379C15.6809 9.9027 14.9484 10.1369 14.3825 10.6151L13.3282 11.5064C13.0832 11.7136 12.7673 11.8174 12.4472 11.796C12.1271 11.7745 11.8278 11.6294 11.6127 11.3914L7.33828 6.66655C7.26968 6.59104 7.18689 6.52977 7.09462 6.48625C7.00235 6.44274 6.90241 6.41782 6.80051 6.41292C6.69861 6.40803 6.59675 6.42325 6.50073 6.45773C6.40472 6.4922 6.31643 6.54525 6.24092 6.61384C6.1654 6.68243 6.10414 6.76523 6.06062 6.8575C6.0171 6.94976 5.99219 7.0497 5.98729 7.1516C5.9824 7.2535 5.99762 7.35537 6.03209 7.45138C6.06657 7.5474 6.11961 7.63568 6.18821 7.7112L10.4626 12.4073C10.9466 12.9337 11.6143 13.254 12.3277 13.3022C13.0412 13.3503 13.7459 13.1226 14.2962 12.6661L15.3504 11.7748C15.6017 11.5646 15.9256 11.4619 16.2521 11.4888C16.5785 11.5157 16.8812 11.6701 17.0947 11.9185L20.8228 16.2888C20.8962 16.3718 20.9862 16.4385 21.0868 16.4847C21.1875 16.5309 21.2967 16.5556 21.4075 16.5572C21.6063 16.5697 21.8022 16.5044 21.9538 16.3751Z" fill="black"/>
</svg>
