<svg width="24" height="24" viewBox="0 0 24 24" fill="none" xmlns="http://www.w3.org/2000/svg">
<path d="M22.2235 21.4707C22.2235 21.6774 22.1413 21.8756 21.9952 22.0217C21.849 22.1679 21.6508 22.25 21.4441 22.25H7.863C6.2531 22.2475 4.70987 21.6068 3.5715 20.4685C2.43313 19.3301 1.79249 17.7869 1.78998 16.177V2.52932C1.78998 2.32263 1.87209 2.12441 2.01824 1.97826C2.16439 1.83211 2.36261 1.75 2.5693 1.75C2.77434 1.7525 2.97013 1.83571 3.11423 1.98159C3.25833 2.12747 3.33914 2.32427 3.33912 2.52932V16.158C3.34164 17.3561 3.81937 18.5044 4.66749 19.3507C5.51561 20.197 6.66483 20.6723 7.863 20.6723H21.4441C21.5481 20.6723 21.651 20.6931 21.7468 20.7334C21.8426 20.7738 21.9294 20.8329 22.002 20.9073C22.0746 20.9817 22.1316 21.0698 22.1697 21.1666C22.2077 21.2634 22.226 21.3667 22.2235 21.4707ZM6.77004 16.5476C6.88361 16.5464 6.99564 16.5212 7.09881 16.4737C7.20198 16.4262 7.29397 16.3575 7.36879 16.272L11.0563 11.9097C11.1614 11.7849 11.2901 11.6822 11.4351 11.6075C11.5801 11.5327 11.7384 11.4874 11.901 11.4741C12.0636 11.4609 12.2271 11.4799 12.3823 11.5302C12.5375 11.5805 12.6812 11.6611 12.805 11.7672L13.86 12.6605C14.4127 13.1264 15.1245 13.36 15.8458 13.3121C16.5671 13.2643 17.2418 12.9387 17.7281 12.4039L21.9954 7.70897C22.1161 7.554 22.1738 7.35915 22.157 7.16342C22.1403 6.96769 22.0502 6.78552 21.9048 6.65338C21.7594 6.52123 21.5695 6.44886 21.3731 6.45074C21.1767 6.45263 20.9882 6.52863 20.8454 6.66354L16.5781 11.3585C16.3615 11.5958 16.0615 11.7402 15.7409 11.7614C15.4203 11.7827 15.1039 11.6792 14.8579 11.4725L13.803 10.5792C13.2386 10.1039 12.5091 9.87108 11.7738 9.93162C11.0384 9.99216 10.3569 10.3411 9.87783 10.9023L6.1808 15.2646C6.05265 15.4261 5.9937 15.6318 6.01686 15.8366C6.04002 16.0414 6.14339 16.2288 6.30435 16.3576C6.4354 16.4689 6.59854 16.5354 6.77004 16.5476Z" fill="black"/>
</svg>
