<svg width="24" height="24" viewBox="0 0 24 24" fill="none" xmlns="http://www.w3.org/2000/svg">
<path d="M20.1149 22.8502L19.4459 22.4618C19.2962 22.3767 19.1271 22.3319 18.9549 22.3319C18.7828 22.3319 18.6136 22.3767 18.464 22.4618L17.8057 22.861C17.6393 22.9605 17.4472 23.0084 17.2536 22.9988C17.0599 22.9892 16.8735 22.9225 16.7177 22.8071C16.5619 22.6917 16.4438 22.5328 16.3782 22.3504C16.3126 22.1679 16.3025 21.9702 16.3491 21.782L16.5109 21.0267C16.5411 20.8532 16.5283 20.675 16.4738 20.5077C16.4192 20.3403 16.3245 20.1888 16.198 20.0664L15.6261 19.5592C15.4844 19.4301 15.3827 19.2631 15.333 19.0779C15.2832 18.8928 15.2876 18.6973 15.3455 18.5145C15.4034 18.3318 15.5124 18.1695 15.6596 18.0467C15.8069 17.924 15.9862 17.846 16.1764 17.822L16.9317 17.7357C17.1063 17.7191 17.2731 17.655 17.4138 17.5504C17.5546 17.4458 17.664 17.3046 17.7302 17.1422L17.9676 16.5919C18.0571 16.4123 18.1949 16.2613 18.3655 16.1557C18.5361 16.0501 18.7327 15.9942 18.9333 15.9942C19.134 15.9942 19.3306 16.0501 19.5012 16.1557C19.6718 16.2613 19.8096 16.4123 19.8991 16.5919L20.1472 17.153C20.216 17.3127 20.3263 17.451 20.4668 17.5535C20.6072 17.656 20.7726 17.7189 20.9457 17.7357L21.701 17.8112C21.8923 17.8309 22.0737 17.9057 22.2232 18.0265C22.3727 18.1474 22.4839 18.309 22.5434 18.4918C22.6028 18.6747 22.6078 18.8708 22.5579 19.0565C22.508 19.2421 22.4052 19.4093 22.2621 19.5376L21.6902 20.0664C21.5635 20.1858 21.4699 20.3361 21.4189 20.5026C21.3678 20.669 21.3609 20.846 21.3989 21.0159L21.5608 21.7712C21.6055 21.9579 21.5945 22.1536 21.5291 22.3341C21.4638 22.5146 21.347 22.672 21.1931 22.7868C21.0393 22.9017 20.8551 22.9688 20.6635 22.9801C20.4718 22.9914 20.2811 22.9462 20.1149 22.8502ZM22.7908 7.47415V16.1063C22.7908 16.2466 22.7908 16.3869 22.7908 16.538C22.511 16.3817 22.2029 16.2827 21.8845 16.2466H21.4852L21.3989 16.0308C21.1954 15.5529 20.8555 15.1455 20.4218 14.8596C19.9881 14.5736 19.4798 14.4218 18.9603 14.4231C18.4375 14.4257 17.9269 14.5814 17.4916 14.871C17.0563 15.1605 16.7154 15.5712 16.5109 16.0524L16.4246 16.2682H16.0254C15.5295 16.331 15.0622 16.5354 14.6795 16.8569C14.2967 17.1784 14.0148 17.6034 13.8673 18.081C13.7111 18.5658 13.6982 19.0854 13.8303 19.5774C13.9624 20.0694 14.2338 20.5127 14.6118 20.8541L14.9032 21.1238L14.8276 21.523C14.7531 21.8789 14.7531 22.2463 14.8276 22.6021H7.56581C6.72319 22.595 5.89023 22.4219 5.11459 22.0926C4.33895 21.7633 3.63587 21.2842 3.04556 20.6829C2.45525 20.0816 1.98932 19.3697 1.67441 18.5881C1.3595 17.8066 1.20181 16.9705 1.21035 16.1279V7.47415C1.20181 6.63154 1.3595 5.79552 1.67441 5.01392C1.98932 4.23233 2.45525 3.5205 3.04556 2.91917C3.63587 2.31784 4.33895 1.83881 5.11459 1.5095C5.89023 1.18018 6.72319 1.00705 7.56581 1H16.4354C17.278 1.00705 18.111 1.18018 18.8866 1.5095C19.6622 1.83881 20.3653 2.31784 20.9556 2.91917C21.5459 3.5205 22.0119 4.23233 22.3268 5.01392C22.6417 5.79552 22.7994 6.63154 22.7908 7.47415ZM17.331 8.8553C17.2566 8.77895 17.1677 8.71827 17.0694 8.67684C16.9712 8.63541 16.8657 8.61406 16.7591 8.61406C16.6525 8.61406 16.547 8.63541 16.4488 8.67684C16.3505 8.71827 16.2616 8.77895 16.1872 8.8553L13.3602 11.9413C13.34 11.9611 13.3129 11.9722 13.2846 11.9722C13.2564 11.9722 13.2293 11.9611 13.2091 11.9413L11.5366 10.5925C11.2056 10.3189 10.7831 10.1811 10.3544 10.2072C9.92571 10.2332 9.52292 10.4211 9.2275 10.7328L6.60547 13.4735C6.45512 13.6302 6.37116 13.839 6.37116 14.0562C6.37116 14.2734 6.45512 14.4822 6.60547 14.6389C6.67944 14.7118 6.7671 14.7693 6.86339 14.8082C6.95969 14.8471 7.06272 14.8665 7.16657 14.8655C7.27298 14.8666 7.37852 14.8461 7.47681 14.8053C7.5751 14.7645 7.66411 14.7042 7.73845 14.6281L10.3281 11.9305C10.3483 11.9107 10.3754 11.8997 10.4036 11.8997C10.4319 11.8997 10.459 11.9107 10.4792 11.9305L12.1517 13.2793C12.4921 13.5522 12.9237 13.6851 13.3587 13.651C13.7937 13.617 14.1994 13.4184 14.4931 13.0959L17.3957 10.0099C17.537 9.84669 17.6092 9.63496 17.5972 9.41947C17.5851 9.20397 17.4896 9.00164 17.331 8.8553Z" fill="black"/>
</svg>
