<svg width="24" height="24" viewBox="0 0 24 24" fill="none" xmlns="http://www.w3.org/2000/svg">
<path d="M10.95 20.641C10.9429 20.967 10.862 21.2871 10.7134 21.5773C10.5649 21.8675 10.3525 22.1201 10.0923 22.3163C9.83208 22.5124 9.53083 22.6469 9.21119 22.7097C8.89156 22.7724 8.56188 22.7618 8.24695 22.6786C6.22938 22.0938 4.45616 20.8688 3.19424 19.1878C1.93232 17.5069 1.25 15.4611 1.25 13.3584C1.25 11.2556 1.93232 9.20979 3.19424 7.52885C4.45616 5.84792 6.22938 4.62287 8.24695 4.03812C8.56188 3.9549 8.89156 3.94426 9.21119 4.00701C9.53083 4.06977 9.83208 4.20428 10.0923 4.40042C10.3525 4.59657 10.5649 4.84924 10.7134 5.13942C10.862 5.42961 10.9429 5.74974 10.95 6.07574V20.641ZM13.05 17.9241C13.0571 18.2501 13.138 18.5703 13.2866 18.8605C13.4351 19.1506 13.6475 19.4033 13.9077 19.5995C14.1679 19.7956 14.4692 19.9301 14.7888 19.9929C15.1084 20.0556 15.4381 20.045 15.7531 19.9618C17.7706 19.377 19.5438 18.152 20.8058 16.471C22.0677 14.7901 22.75 12.7443 22.75 10.6415C22.75 8.53879 22.0677 6.49296 20.8058 4.81203C19.5438 3.13109 17.7706 1.90604 15.7531 1.3213C15.4355 1.23745 15.103 1.22741 14.781 1.29194C14.459 1.35647 14.156 1.49386 13.8952 1.6936C13.6343 1.89335 13.4226 2.15015 13.2761 2.44439C13.1296 2.73863 13.0523 3.06251 13.05 3.39126V17.9241Z" fill="black"/>
</svg>
