<svg width="24" height="24" viewBox="0 0 24 24" fill="none" xmlns="http://www.w3.org/2000/svg">
<path d="M16.3642 1.30005H7.52886C5.85093 1.33641 4.25402 2.0286 3.08034 3.22828C1.90666 4.42795 1.24961 6.03964 1.25 7.71796V16.2752C1.24985 17.9626 1.91426 19.5822 3.09941 20.7833C4.28455 21.9845 5.89508 22.6706 7.58234 22.6931H16.4177C18.1049 22.6706 19.7154 21.9845 20.9006 20.7833C22.0857 19.5822 22.7502 17.9626 22.75 16.2752V7.71796C22.75 6.02137 22.0783 4.39379 20.8816 3.19112C19.6849 1.98845 18.0607 1.30853 16.3642 1.30005ZM17.2948 10.2637L14.4709 13.3336C14.1792 13.6564 13.7749 13.8552 13.3412 13.889C12.9075 13.9228 12.4772 13.7892 12.1391 13.5155L10.4704 12.1677C10.4493 12.1503 10.4228 12.1408 10.3955 12.1408C10.3682 12.1408 10.3417 12.1503 10.3206 12.1677L7.74279 14.8418C7.66904 14.9175 7.58088 14.9777 7.48352 15.0188C7.38615 15.0598 7.28154 15.081 7.17587 15.081C7.0702 15.081 6.96559 15.0598 6.86823 15.0188C6.77086 14.9777 6.6827 14.9175 6.60896 14.8418C6.4623 14.6902 6.37943 14.488 6.37744 14.2771C6.37545 14.0661 6.45449 13.8624 6.59826 13.708L9.17612 11.0339C9.47549 10.7257 9.881 10.5431 10.3102 10.5233C10.7394 10.5034 11.16 10.6477 11.4866 10.9269L13.1445 12.2747C13.1673 12.2929 13.1956 12.3028 13.2248 12.3028C13.2539 12.3028 13.2822 12.2929 13.305 12.2747L16.1182 9.15129C16.1911 9.06886 16.2801 9.00211 16.3797 8.95508C16.4792 8.90806 16.5873 8.88176 16.6973 8.87776C16.8073 8.87375 16.917 8.89214 17.0197 8.93181C17.1224 8.97147 17.216 9.03159 17.2948 9.10851C17.4438 9.26386 17.5271 9.47082 17.5271 9.68612C17.5271 9.90141 17.4438 10.1084 17.2948 10.2637Z" fill="black"/>
</svg>
