<svg width="24" height="24" viewBox="0 0 24 24" fill="none" xmlns="http://www.w3.org/2000/svg">
<path d="M13.1088 2.26479C13.1036 2.06175 13.1449 1.86022 13.2296 1.67563C13.3143 1.49103 13.4402 1.32828 13.5975 1.19985C13.7548 1.07141 13.9395 0.980698 14.1373 0.934659C14.3351 0.888621 14.5408 0.888478 14.7387 0.934243C17.139 1.56577 19.2614 2.97677 20.7727 4.9456C22.2839 6.91442 23.0983 9.3295 23.0879 11.8114C23.0913 12.8119 22.957 13.8081 22.6887 14.7719C22.6363 14.9735 22.5381 15.1602 22.4017 15.3176C22.2652 15.4749 22.0943 15.5987 21.9023 15.6791C21.7102 15.7596 21.5021 15.7947 21.2943 15.7815C21.0864 15.7684 20.8844 15.7075 20.704 15.6035L18.8967 14.5501C18.707 14.4437 18.5588 14.2762 18.4763 14.0749C18.3938 13.8736 18.3817 13.6504 18.4421 13.4414C18.5767 12.9083 18.6474 12.3612 18.6527 11.8114C18.661 10.3429 18.1887 8.91188 17.3079 7.73676C16.427 6.56164 15.186 5.70688 13.7741 5.30286C13.3749 5.19198 13.1088 4.80391 13.1088 4.12755V2.26479ZM17.7879 16.4905C17.6135 16.3899 17.4112 16.3484 17.2113 16.3724C17.0114 16.3964 16.8247 16.4845 16.6791 16.6236C15.444 17.8586 13.7688 18.5524 12.0222 18.5524C10.2755 18.5524 8.60041 17.8586 7.36528 16.6236C7.21968 16.4845 7.03294 16.3964 6.83304 16.3724C6.63315 16.3484 6.43087 16.3899 6.2565 16.4905L4.44918 17.5993C4.26662 17.6972 4.10877 17.8354 3.9876 18.0034C3.86643 18.1714 3.78513 18.3649 3.74986 18.569C3.71459 18.7731 3.72629 18.9826 3.78406 19.1815C3.84183 19.3804 3.94416 19.5636 4.08328 19.7171C5.106 20.7864 6.33475 21.6374 7.69539 22.2188C9.05603 22.8003 10.5204 23.1 12 23.1C13.4797 23.1 14.944 22.8003 16.3046 22.2188C17.6653 21.6374 18.894 20.7864 19.9167 19.7171C20.0556 19.5667 20.1587 19.3869 20.2186 19.1912C20.2785 18.9954 20.2936 18.7887 20.2627 18.5864C20.2318 18.384 20.1558 18.1912 20.0402 18.0223C19.9247 17.8533 19.7726 17.7126 19.5952 17.6104L17.7879 16.4905ZM3.29604 15.6035C3.11561 15.7075 2.9136 15.7684 2.70575 15.7815C2.49791 15.7947 2.28984 15.7596 2.09776 15.6791C1.90567 15.5987 1.73477 15.4749 1.59836 15.3176C1.46195 15.1602 1.36371 14.9735 1.31131 14.7719C1.04301 13.8081 0.908699 12.8119 0.912147 11.8114C0.901722 9.3295 1.7161 6.91442 3.22733 4.9456C4.73857 2.97677 6.86104 1.56577 9.26131 0.934243C9.45918 0.888478 9.66491 0.888621 9.86273 0.934659C10.0605 0.980698 10.2452 1.07141 10.4025 1.19985C10.5599 1.32828 10.6857 1.49103 10.7704 1.67563C10.8551 1.86022 10.8964 2.06175 10.8912 2.26479V4.39366C10.8961 4.59999 10.8338 4.80232 10.7139 4.97026C10.5939 5.13821 10.4227 5.2627 10.226 5.32504C8.81768 5.72803 7.57934 6.57946 6.69886 7.75009C5.81839 8.92072 5.34385 10.3466 5.34729 11.8114C5.34905 12.376 5.4198 12.9383 5.55796 13.4857C5.61831 13.6947 5.60624 13.918 5.52372 14.1192C5.44119 14.3205 5.29306 14.488 5.10336 14.5945L3.29604 15.6035Z" fill="black"/>
</svg>
