<svg width="24" height="24" viewBox="0 0 24 24" fill="none" xmlns="http://www.w3.org/2000/svg">
<path d="M21.5422 23H2.45523C2.23902 23 2.03167 22.9141 1.87879 22.7612C1.7259 22.6083 1.64001 22.401 1.64001 22.1848C1.64001 21.9686 1.7259 21.7612 1.87879 21.6083C2.03167 21.4555 2.23902 21.3696 2.45523 21.3696H21.5422C21.7584 21.3696 21.9658 21.4555 22.1186 21.6083C22.2715 21.7612 22.3574 21.9686 22.3574 22.1848C22.3574 22.401 22.2715 22.6083 22.1186 22.7612C21.9658 22.9141 21.7584 23 21.5422 23ZM10.977 19.7391H11.9987C12.3316 19.7452 12.6538 19.6216 12.8972 19.3944C13.1407 19.1672 13.2862 18.8543 13.3031 18.5217V6.98913C13.3031 6.81885 13.2692 6.65027 13.2034 6.49322C13.1376 6.33618 13.0412 6.1938 12.9197 6.07441C12.7983 5.95503 12.6544 5.86101 12.4962 5.79784C12.3381 5.73468 12.169 5.70363 11.9987 5.70652H10.9661C10.6278 5.70939 10.3044 5.84578 10.0662 6.08601C9.82799 6.32624 9.69435 6.65084 9.69436 6.98913V18.5217C9.70564 18.8543 9.84574 19.1695 10.0851 19.4007C10.3244 19.6319 10.6442 19.7611 10.977 19.7609V19.7391ZM4.95523 19.7391H5.73784C6.1126 19.7391 6.47202 19.5903 6.73701 19.3253C7.00201 19.0603 7.15088 18.7008 7.15088 18.3261V2.41304C7.15088 2.03828 7.00201 1.67887 6.73701 1.41387C6.47202 1.14887 6.1126 1 5.73784 1H4.95523C4.58047 1 4.22106 1.14887 3.95606 1.41387C3.69106 1.67887 3.54219 2.03828 3.54219 2.41304V18.3478C3.54219 18.7226 3.69106 19.082 3.95606 19.347C4.22106 19.612 4.58047 19.7609 4.95523 19.7609V19.7391ZM17.1183 19.7391H18.2052C18.5268 19.7286 18.8327 19.5976 19.0623 19.3721C19.2918 19.1466 19.4282 18.8431 19.4444 18.5217V12.4022C19.4458 12.2328 19.4137 12.0649 19.3499 11.908C19.2861 11.7511 19.1918 11.6085 19.0726 11.4882C18.9533 11.3679 18.8114 11.2725 18.6551 11.2074C18.4988 11.1422 18.3311 11.1087 18.1618 11.1087H17.0748C16.9054 11.1087 16.7378 11.1422 16.5814 11.2074C16.4251 11.2725 16.2832 11.3679 16.164 11.4882C16.0447 11.6085 15.9505 11.7511 15.8867 11.908C15.8229 12.0649 15.7908 12.2328 15.7922 12.4022V18.5217C15.7978 18.6902 15.8366 18.8559 15.9063 19.0094C15.976 19.1629 16.0752 19.3011 16.1984 19.4162C16.3215 19.5312 16.4662 19.6209 16.624 19.6801C16.7819 19.7392 16.9498 19.7667 17.1183 19.7609V19.7391Z" fill="black"/>
</svg>
