<svg width="24" height="24" viewBox="0 0 24 24" fill="none" xmlns="http://www.w3.org/2000/svg">
<path d="M13.1164 8.24067V2.35236C13.1143 2.19497 13.1468 2.03905 13.2114 1.89554C13.2761 1.75203 13.3714 1.6244 13.4906 1.52163C13.6098 1.41886 13.7501 1.34343 13.9015 1.30063C14.053 1.25784 14.212 1.24872 14.3674 1.27392C16.4899 1.55084 18.4613 2.52162 19.9748 4.03517C21.4884 5.54872 22.4592 7.52015 22.7361 9.64264C22.7613 9.79801 22.7522 9.95702 22.7094 10.1085C22.6666 10.26 22.5912 10.4002 22.4884 10.5194C22.3856 10.6387 22.258 10.7339 22.1145 10.7986C21.971 10.8632 21.815 10.8957 21.6576 10.8936H15.737C15.3901 10.8937 15.0467 10.8248 14.7266 10.6911C14.4065 10.5574 14.1162 10.3615 13.8724 10.1147C13.6286 9.86789 13.4363 9.57516 13.3065 9.25347C13.1767 8.93178 13.1121 8.58752 13.1164 8.24067ZM10.9595 11.7133V5.09161C10.9595 4.8517 10.9062 4.61479 10.8034 4.39803C10.7006 4.18127 10.5509 3.99009 10.365 3.83835C10.1792 3.6866 9.96199 3.57808 9.72906 3.52065C9.49613 3.46322 9.25334 3.45832 9.01828 3.5063C6.78176 3.96197 4.77736 5.19127 3.35729 6.97819C1.93722 8.76512 1.19232 10.9953 1.25349 13.277C1.35459 15.8459 2.45749 18.273 4.32603 20.0388C6.19457 21.8045 8.6802 22.7684 11.2507 22.7242C12.8227 22.6724 14.3586 22.2394 15.7262 21.4624C15.9384 21.3378 16.119 21.1659 16.2537 20.96C16.3885 20.7541 16.4739 20.5198 16.5031 20.2755C16.5323 20.0312 16.5047 19.7834 16.4223 19.5515C16.3399 19.3196 16.205 19.1099 16.0282 18.9388L12.8791 15.8113C12.2925 15.2987 11.8189 14.6696 11.4885 13.9641C11.158 13.2586 10.9779 12.4921 10.9595 11.7133ZM21.3665 13.0182H15.4997C15.3045 13.0175 15.1135 13.0751 14.9511 13.1835C14.7888 13.292 14.6625 13.4464 14.5884 13.6271C14.5143 13.8077 14.4958 14.0063 14.5351 14.1975C14.5745 14.3888 14.6701 14.5639 14.8095 14.7005L18.9723 18.8202C19.1142 18.9587 19.2847 19.0645 19.4718 19.1301C19.6589 19.1957 19.8581 19.2196 20.0554 19.2001C20.2527 19.1806 20.4433 19.1181 20.6139 19.0171C20.7845 18.9161 20.931 18.7789 21.0429 18.6153C21.9029 17.3984 22.4712 15.9999 22.7037 14.528C22.7284 14.3385 22.7122 14.1458 22.6561 13.9631C22.6 13.7804 22.5054 13.6118 22.3787 13.4687C22.252 13.3257 22.0961 13.2114 21.9215 13.1337C21.7468 13.056 21.5576 13.0166 21.3665 13.0182Z" fill="black"/>
</svg>
