<svg width="24" height="24" viewBox="0 0 24 24" fill="none" xmlns="http://www.w3.org/2000/svg">
<path d="M23 12C23 14.1756 22.3549 16.3023 21.1462 18.1113C19.9375 19.9202 18.2195 21.3301 16.2095 22.1627C14.1995 22.9952 11.9878 23.2131 9.85401 22.7886C7.72022 22.3642 5.76021 21.3165 4.22183 19.7782C2.68345 18.2398 1.6358 16.2798 1.21137 14.146C0.78693 12.0122 1.00477 9.80047 1.83733 7.79048C2.66989 5.78049 4.07979 4.06253 5.88873 2.85383C7.69767 1.64514 9.82441 1 12 1C13.4445 1 14.8749 1.28452 16.2095 1.83732C17.5441 2.39013 18.7567 3.20038 19.7782 4.22182C20.7996 5.24327 21.6099 6.4559 22.1627 7.79048C22.7155 9.12506 23 10.5555 23 12ZM11.67 16.081L18.27 9.481C18.4749 9.2749 18.5899 8.9961 18.5899 8.7055C18.5899 8.41489 18.4749 8.1361 18.27 7.93C18.0639 7.72512 17.7851 7.61013 17.4945 7.61013C17.2039 7.61013 16.9251 7.72512 16.719 7.93L10.9 13.749L7.27 10.119C7.06433 9.91186 6.78479 9.79492 6.49289 9.79389C6.20099 9.79285 5.92064 9.90782 5.7135 10.1135C5.50637 10.3192 5.38942 10.5987 5.38839 10.8906C5.38736 11.1825 5.50233 11.4629 5.708 11.67L10.108 16.07C10.2095 16.1738 10.3306 16.2565 10.4643 16.3133C10.5979 16.3701 10.7415 16.3999 10.8867 16.4009C11.0319 16.4019 11.1759 16.3742 11.3103 16.3193C11.4448 16.2644 11.567 16.1834 11.67 16.081Z" fill="black"/>
</svg>
