<svg width="24" height="24" viewBox="0 0 24 24" fill="none" xmlns="http://www.w3.org/2000/svg">
<path d="M14.8826 19.4617V2.806C14.8844 2.63381 14.8391 2.46441 14.7517 2.31607C14.6642 2.16773 14.5379 2.04608 14.3864 1.96425C14.2349 1.88241 14.064 1.8435 13.892 1.85171C13.72 1.85992 13.5535 1.91493 13.4105 2.01082L12.1102 2.84898C11.9512 2.95524 11.7642 3.01196 11.573 3.01196C11.3817 3.01196 11.1947 2.95524 11.0357 2.84898L8.88655 1.41981C8.72919 1.3093 8.54157 1.25 8.34927 1.25C8.15698 1.25 7.96936 1.3093 7.81199 1.41981L5.69511 3.02091C5.53661 3.12855 5.34943 3.1861 5.15783 3.1861C4.96623 3.1861 4.77905 3.12855 4.62055 3.02091L3.23437 2.09679C3.09098 1.99653 2.92284 1.93753 2.74825 1.9262C2.57366 1.91487 2.3993 1.95166 2.24417 2.03255C2.08903 2.11344 1.95906 2.23534 1.8684 2.38498C1.77774 2.53462 1.72986 2.70626 1.72998 2.88122V19.4617C1.72996 19.8962 1.81607 20.3264 1.98332 20.7275C2.15058 21.1286 2.39567 21.4925 2.70443 21.7982C3.01318 22.104 3.37948 22.3455 3.78215 22.5089C4.18481 22.6722 4.61586 22.7541 5.05037 22.7498H18.16C17.2898 22.747 16.4562 22.3993 15.8419 21.783C15.2276 21.1666 14.8826 20.3319 14.8826 19.4617ZM7.12427 12.8209H4.73875C4.52216 12.8209 4.31443 12.7349 4.16128 12.5817C4.00813 12.4286 3.92208 12.2208 3.92208 12.0042C3.92208 11.7876 4.00813 11.5799 4.16128 11.4268C4.31443 11.2736 4.52216 11.1876 4.73875 11.1876H7.12427C7.34087 11.1876 7.54859 11.2736 7.70175 11.4268C7.8549 11.5799 7.94094 11.7876 7.94094 12.0042C7.94094 12.2208 7.8549 12.4286 7.70175 12.5817C7.54859 12.7349 7.34087 12.8209 7.12427 12.8209ZM7.12427 9.31783H4.73875C4.52017 9.31505 4.31133 9.22698 4.15676 9.07241C4.00219 8.91784 3.91412 8.709 3.91134 8.49042C3.92236 8.27851 4.01438 8.07894 4.16837 7.93295C4.32236 7.78696 4.52656 7.70571 4.73875 7.70599H7.12427C7.34087 7.70599 7.54859 7.79204 7.70175 7.94519C7.8549 8.09834 7.94094 8.30607 7.94094 8.52266C7.93269 8.73462 7.84335 8.93532 7.69137 9.0833C7.53939 9.23128 7.33638 9.31524 7.12427 9.31783ZM11.4977 16.3025H9.1337C8.91711 16.3025 8.70939 16.2164 8.55623 16.0633C8.40308 15.9101 8.31704 15.7024 8.31704 15.4858C8.31704 15.2692 8.40308 15.0615 8.55623 14.9083C8.70939 14.7552 8.91711 14.6691 9.1337 14.6691H11.4977C11.7143 14.6691 11.9221 14.7552 12.0752 14.9083C12.2284 15.0615 12.3144 15.2692 12.3144 15.4858C12.3144 15.7024 12.2284 15.9101 12.0752 16.0633C11.9221 16.2164 11.7143 16.3025 11.4977 16.3025ZM11.4977 12.7887H10.0578C9.84123 12.7887 9.63351 12.7026 9.48035 12.5495C9.3272 12.3963 9.24116 12.1886 9.24116 11.972C9.24116 11.7554 9.3272 11.5477 9.48035 11.3945C9.63351 11.2414 9.84123 11.1553 10.0578 11.1553H11.4977C11.7143 11.1553 11.9221 11.2414 12.0752 11.3945C12.2284 11.5477 12.3144 11.7554 12.3144 11.972C12.3144 12.1886 12.2284 12.3963 12.0752 12.5495C11.9221 12.7026 11.7143 12.7887 11.4977 12.7887ZM11.4977 9.31783H10.0578C9.84025 9.31501 9.63254 9.22659 9.47969 9.07172C9.32684 8.91686 9.24114 8.70802 9.24116 8.49042C9.24949 8.27946 9.3392 8.07993 9.49146 7.93368C9.64372 7.78743 9.8467 7.70583 10.0578 7.70599H11.4977C11.7143 7.70599 11.9221 7.79204 12.0752 7.94519C12.2284 8.09834 12.3144 8.30607 12.3144 8.52266C12.3062 8.73462 12.2168 8.93532 12.0648 9.0833C11.9129 9.23128 11.7098 9.31524 11.4977 9.31783ZM20.0734 21.6753H18.16C17.59 21.6753 17.0434 21.4489 16.6404 21.0458C16.2373 20.6428 16.0109 20.0961 16.0109 19.5262V14.4005H20.1164C20.6864 14.4005 21.233 14.6269 21.636 15.03C22.0391 15.433 22.2655 15.9796 22.2655 16.5496V19.5262C22.2655 19.812 22.2086 20.0951 22.0979 20.3586C21.9872 20.6222 21.825 20.8611 21.6209 21.0612C21.4168 21.2614 21.1748 21.4188 20.909 21.5242C20.6433 21.6296 20.3592 21.681 20.0734 21.6753Z" fill="black"/>
</svg>
