<svg width="24" height="24" viewBox="0 0 24 24" fill="none" xmlns="http://www.w3.org/2000/svg">
<path d="M12 0.75C9.77496 0.75 7.59989 1.4098 5.74984 2.64597C3.89979 3.88213 2.45785 5.63914 1.60636 7.69481C0.754874 9.75048 0.532087 12.0125 0.966171 14.1948C1.40025 16.377 2.47171 18.3816 4.04505 19.9549C5.61839 21.5283 7.62295 22.5997 9.80524 23.0338C11.9875 23.4679 14.2495 23.2451 16.3052 22.3936C18.3609 21.5422 20.1179 20.1002 21.354 18.2502C22.5902 16.4001 23.25 14.225 23.25 12C23.25 10.5226 22.959 9.05972 22.3936 7.69481C21.8283 6.3299 20.9996 5.08971 19.955 4.04505C18.9103 3.00039 17.6701 2.17172 16.3052 1.60636C14.9403 1.04099 13.4774 0.75 12 0.75ZM12 6.25125C12.5309 6.24455 13.0519 6.39588 13.4966 6.68599C13.9414 6.9761 14.2898 7.39189 14.4976 7.88051C14.7055 8.36913 14.7633 8.90852 14.6639 9.43011C14.5644 9.95169 14.3121 10.4319 13.939 10.8098C13.5659 11.1876 13.0889 11.446 12.5686 11.5521C12.0484 11.6581 11.5083 11.6071 11.0171 11.4055C10.5258 11.2039 10.1057 10.8607 9.80994 10.4197C9.51422 9.97872 9.35629 9.45974 9.35625 8.92875C9.3591 8.22533 9.63749 7.55103 10.1317 7.05049C10.626 6.54994 11.2967 6.26302 12 6.25125ZM14.9363 16.3762C15.006 16.4622 15.0579 16.5613 15.0889 16.6675C15.1199 16.7738 15.1294 16.8852 15.1168 16.9952C15.1043 17.1052 15.0699 17.2116 15.0157 17.3082C14.9615 17.4047 14.8886 17.4895 14.8013 17.5575C14.6557 17.6861 14.4666 17.7544 14.2725 17.7487C14.1474 17.7465 14.0244 17.7171 13.9117 17.6627C13.7991 17.6084 13.6996 17.5302 13.62 17.4337L12 15.375L10.3463 17.4337C10.206 17.6083 10.0022 17.72 9.77961 17.7442C9.55703 17.7685 9.33392 17.7034 9.15938 17.5631C8.98483 17.4229 8.87314 17.2191 8.84888 16.9965C8.82462 16.7739 8.88977 16.5508 9.03 16.3762L10.4025 14.6775C10.0085 14.5802 9.62989 14.4288 9.2775 14.2275C9.09383 14.1132 8.96106 13.9328 8.90662 13.7234C8.85219 13.514 8.88025 13.2918 8.985 13.1025C9.09936 12.919 9.279 12.7856 9.48774 12.7293C9.69648 12.6729 9.91883 12.6977 10.11 12.7987C10.7082 13.0943 11.3665 13.2481 12.0338 13.2481C12.701 13.2481 13.3593 13.0943 13.9575 12.7987C14.059 12.7504 14.1693 12.723 14.2817 12.7185C14.3941 12.7139 14.5062 12.7321 14.6114 12.7721C14.7165 12.812 14.8125 12.8729 14.8934 12.9509C14.9744 13.029 15.0387 13.1226 15.0825 13.2262C15.1293 13.328 15.1553 13.4381 15.1591 13.5501C15.1629 13.662 15.1444 13.7736 15.1046 13.8784C15.0648 13.9831 15.0045 14.0788 14.9274 14.16C14.8502 14.2412 14.7576 14.3062 14.655 14.3512C14.2881 14.4983 13.9124 14.6223 13.53 14.7225L14.9363 16.3762Z" fill="black"/>
</svg>
