<svg width="24" height="24" viewBox="0 0 24 24" fill="none" xmlns="http://www.w3.org/2000/svg">
<path d="M4.475 15.36C3.61968 15.36 2.79939 15.0202 2.19458 14.4154C1.58978 13.8106 1.25 12.9903 1.25 12.135C1.25 11.2797 1.58978 10.4594 2.19458 9.85457C2.79939 9.24977 3.61968 8.90999 4.475 8.90999H4.5825C4.51388 8.5557 4.47789 8.19586 4.475 7.83499C4.48377 6.65706 4.87925 5.51462 5.60063 4.58338C6.32201 3.65214 7.32934 2.98366 8.46769 2.68075C9.60604 2.37784 10.8124 2.45728 11.9012 2.90684C12.99 3.3564 13.901 4.15119 14.494 5.16899C15.0266 4.80643 15.6557 4.61173 16.3 4.60999C17.1553 4.60999 17.9756 4.94976 18.5804 5.55457C19.1852 6.15937 19.525 6.97967 19.525 7.83499C19.5211 8.20259 19.4519 8.56656 19.3207 8.90999H19.525C20.3803 8.90999 21.2006 9.24977 21.8054 9.85457C22.4102 10.4594 22.75 11.2797 22.75 12.135C22.75 12.9903 22.4102 13.8106 21.8054 14.4154C21.2006 15.0202 20.3803 15.36 19.525 15.36H4.475ZM11.3228 17.1337H9.678C9.48373 17.1519 9.29806 17.2226 9.14091 17.3382C8.98375 17.4539 8.86103 17.6101 8.78591 17.7902C8.71078 17.9703 8.68609 18.1674 8.71447 18.3604C8.74284 18.5535 8.82323 18.7352 8.947 18.886L11.2798 21.208C11.373 21.3049 11.4849 21.382 11.6086 21.4346C11.7324 21.4872 11.8655 21.5144 12 21.5144C12.1345 21.5144 12.2676 21.4872 12.3914 21.4346C12.5151 21.382 12.627 21.3049 12.7203 21.208L15.053 18.886C15.1768 18.7352 15.2572 18.5535 15.2855 18.3604C15.3139 18.1674 15.2892 17.9703 15.2141 17.7902C15.139 17.6101 15.0163 17.4539 14.8591 17.3382C14.7019 17.2226 14.5163 17.1519 14.322 17.1337H11.3228Z" fill="black"/>
</svg>
