<svg width="24" height="24" viewBox="0 0 24 24" fill="none" xmlns="http://www.w3.org/2000/svg">
<path d="M12 1C9.82441 1 7.69767 1.64514 5.88873 2.85383C4.07979 4.06253 2.66989 5.78049 1.83733 7.79048C1.00477 9.80047 0.78693 12.0122 1.21137 14.146C1.6358 16.2798 2.68345 18.2398 4.22183 19.7782C5.76021 21.3165 7.72022 22.3642 9.85401 22.7886C11.9878 23.2131 14.1995 22.9952 16.2095 22.1627C18.2195 21.3301 19.9375 19.9202 21.1462 18.1113C22.3549 16.3023 23 14.1756 23 12C23 10.5555 22.7155 9.12506 22.1627 7.79048C21.6099 6.4559 20.7996 5.24327 19.7782 4.22182C18.7567 3.20038 17.5441 2.39013 16.2095 1.83732C14.8749 1.28452 13.4445 1 12 1ZM7.468 18.05C7.25598 18.1304 7.02524 18.1479 6.80351 18.1004C6.58179 18.0528 6.37853 17.9422 6.21818 17.7818C6.05783 17.6215 5.94722 17.4182 5.89964 17.1965C5.85207 16.9748 5.86955 16.744 5.95 16.532L8.634 9.547L14.277 15.432L7.468 18.05ZM18.05 7.468L15.443 14.255L9.943 8.491L16.543 5.95C16.7544 5.87256 16.9837 5.85741 17.2035 5.90632C17.4233 5.95524 17.6244 6.06618 17.783 6.22598C17.9417 6.38578 18.0512 6.58773 18.0985 6.80788C18.1458 7.02803 18.129 7.25713 18.05 7.468Z" fill="black"/>
</svg>
