<svg width="24" height="24" viewBox="0 0 24 24" fill="none" xmlns="http://www.w3.org/2000/svg">
<path d="M21.9734 7.12613H20.0306C19.7573 7.12612 19.495 7.23392 19.3008 7.42614C19.1065 7.61835 18.9959 7.87945 18.993 8.15273V10.6585H17.282L16.5755 8.05338C16.5218 7.88046 16.4357 7.71936 16.3216 7.57872C16.1921 7.39251 16.0223 7.23783 15.8249 7.12613L15.3502 6.80601C15.8545 6.73672 16.3167 6.48732 16.6515 6.10385C16.9863 5.72039 17.171 5.22875 17.1716 4.71971V4.65348H18.6618C18.7718 4.6666 18.8833 4.65626 18.989 4.62315C19.0947 4.59003 19.1922 4.53489 19.275 4.46135C19.3578 4.38782 19.4241 4.29757 19.4695 4.19654C19.5149 4.09552 19.5384 3.98602 19.5384 3.87526C19.5384 3.7645 19.5149 3.65499 19.4695 3.55397C19.4241 3.45294 19.3578 3.36269 19.275 3.28916C19.1922 3.21562 19.0947 3.16048 18.989 3.12737C18.8833 3.09425 18.7718 3.08391 18.6618 3.09703H17.0723C16.9398 2.66917 16.6738 2.29495 16.3133 2.02917C15.9528 1.76338 15.5166 1.62 15.0687 1.62C14.6208 1.62 14.1847 1.76338 13.8242 2.02917C13.4637 2.29495 13.1977 2.66917 13.0652 3.09703C12.9937 3.30299 12.9565 3.51927 12.9548 3.73727V4.71971C12.9551 5.11211 13.0702 5.49586 13.286 5.82358C13.1397 5.80132 12.9908 5.80132 12.8445 5.82358C12.6455 5.87523 12.4589 5.96634 12.2958 6.09149C12.1328 6.21664 11.9965 6.37329 11.8951 6.55213L8.72704 12.2701L8.60562 12.4026L7.41345 13.5617L1.46362 19.5225C1.33239 19.65 1.2285 19.8028 1.15828 19.9717C1.08805 20.1406 1.05298 20.3221 1.05519 20.505C1.05075 20.6913 1.08381 20.8767 1.15241 21.05C1.22101 21.2233 1.32375 21.3811 1.45452 21.5139C1.58529 21.6467 1.74144 21.7519 1.91367 21.8232C2.0859 21.8945 2.2707 21.9305 2.4571 21.9289C2.63983 21.9299 2.8209 21.8942 2.98963 21.8241C3.15836 21.7539 3.31133 21.6507 3.43954 21.5205L9.67637 15.3058L11.7516 16.8733L8.60562 19.9751C8.34669 20.241 8.2018 20.5975 8.2018 20.9686C8.2018 21.3397 8.34669 21.6962 8.60562 21.9621C8.73587 22.0926 8.89078 22.1959 9.06134 22.2661C9.2319 22.3362 9.41469 22.3717 9.5991 22.3705C9.78182 22.3714 9.96289 22.3358 10.1316 22.2656C10.3004 22.1955 10.4533 22.0923 10.5815 21.9621L14.8535 17.6901C14.984 17.5599 15.0874 17.4049 15.1575 17.2344C15.2276 17.0638 15.2631 16.881 15.2619 16.6966C15.2629 16.5139 15.2272 16.3328 15.1571 16.1641C15.0869 15.9954 14.9837 15.8424 14.8535 15.7142V15.7142L13.4626 14.3123L14.7652 12.1046V12.3033C14.8072 12.5228 14.8977 12.7303 15.0301 12.9104V12.9104C15.1263 13.0428 15.2507 13.1521 15.3944 13.2305V13.2305C15.3944 13.2305 15.3944 13.2305 15.4716 13.2305C15.5177 13.2637 15.5704 13.2863 15.6262 13.2967L15.7918 13.3519H15.847H16.0898H19.9865C20.17 13.3519 20.3518 13.3156 20.5213 13.245C20.6907 13.1744 20.8446 13.071 20.9739 12.9407C21.1032 12.8103 21.2054 12.6557 21.2746 12.4857C21.3439 12.3156 21.3788 12.1336 21.3773 11.95C21.3773 11.95 21.3773 11.95 21.3773 11.8838H21.9734C22.2457 11.8838 22.5068 11.7756 22.6993 11.5831C22.8918 11.3906 23 11.1295 23 10.8572V8.15273C23 7.88046 22.8918 7.61934 22.6993 7.42682C22.5068 7.23429 22.2457 7.12613 21.9734 7.12613V7.12613ZM20.8695 11.0007L20.9579 11.0559L20.8695 11.0007ZM1 8.61635C1 8.39678 1.08722 8.1862 1.24249 8.03094C1.39775 7.87568 1.60833 7.78845 1.8279 7.78845H8.17511C8.28508 7.78377 8.39483 7.80197 8.4974 7.84192C8.59996 7.88187 8.69311 7.94269 8.77095 8.02052C8.84878 8.09835 8.90959 8.1915 8.94954 8.29407C8.98949 8.39663 9.0077 8.50638 9.00301 8.61635C9.00447 8.72455 8.98442 8.83196 8.94403 8.93234C8.90363 9.03272 8.84369 9.12408 8.7677 9.20111C8.6917 9.27813 8.60115 9.33929 8.50132 9.38103C8.40149 9.42277 8.29436 9.44426 8.18615 9.44425H1.8279C1.60833 9.44425 1.39775 9.35702 1.24249 9.20176C1.08722 9.0465 1 8.83592 1 8.61635V8.61635ZM4.2012 5.50345C4.19974 5.39473 4.21972 5.28679 4.25998 5.18578C4.30024 5.08478 4.36001 4.99269 4.43586 4.91479C4.51172 4.83688 4.60217 4.77468 4.70207 4.73174C4.80196 4.6888 4.90934 4.66596 5.01806 4.66452H8.16407C8.38175 4.6645 8.59067 4.75021 8.74562 4.90309C8.90057 5.05597 8.98907 5.26372 8.99197 5.48138C8.99492 5.59049 8.97597 5.69909 8.93625 5.80076C8.89652 5.90243 8.83682 5.9951 8.76067 6.07331C8.68452 6.15152 8.59347 6.21367 8.4929 6.25609C8.39232 6.29852 8.28427 6.32035 8.17511 6.32031H5.0291C4.91946 6.32325 4.81033 6.30437 4.70805 6.26477C4.60576 6.22517 4.51237 6.16564 4.43329 6.08964C4.35421 6.01364 4.29101 5.92268 4.24738 5.82205C4.20375 5.72142 4.18055 5.61313 4.17913 5.50345H4.2012Z" fill="black"/>
</svg>
