<svg width="24" height="24" viewBox="0 0 24 24" fill="none" xmlns="http://www.w3.org/2000/svg">
<path d="M23 12C23 14.1756 22.3549 16.3023 21.1462 18.1113C19.9375 19.9202 18.2195 21.3301 16.2095 22.1627C14.1995 22.9952 11.9878 23.2131 9.85401 22.7886C7.72022 22.3642 5.76021 21.3165 4.22183 19.7782C2.68345 18.2398 1.6358 16.2798 1.21137 14.146C0.78693 12.0122 1.00477 9.80047 1.83733 7.79048C2.66989 5.78049 4.07979 4.06253 5.88873 2.85383C7.69767 1.64514 9.82441 1 12 1C13.4445 1 14.8749 1.28452 16.2095 1.83732C17.5441 2.39013 18.7567 3.20038 19.7782 4.22182C20.7996 5.24327 21.6099 6.4559 22.1627 7.79048C22.7155 9.12506 23 10.5555 23 12ZM13.551 12L16.664 8.887C16.8711 8.68132 16.9881 8.40179 16.9891 8.10989C16.9901 7.81799 16.8752 7.53763 16.6695 7.3305C16.4638 7.12336 16.1843 7.00642 15.8924 7.00539C15.6005 7.00435 15.3201 7.11932 15.113 7.325L12 10.449L8.887 7.391C8.6809 7.18612 8.40211 7.07113 8.1115 7.07113C7.8209 7.07113 7.5421 7.18612 7.336 7.391C7.13113 7.5971 7.01613 7.87589 7.01613 8.1665C7.01613 8.4571 7.13113 8.7359 7.336 8.942L10.449 12.055L7.325 15.091C7.12013 15.2971 7.00513 15.5759 7.00513 15.8665C7.00513 16.1571 7.12013 16.4359 7.325 16.642C7.5311 16.8469 7.8099 16.9619 8.1005 16.9619C8.39111 16.9619 8.6699 16.8469 8.876 16.642L12 13.529L15.102 16.642C15.2038 16.7446 15.3249 16.8261 15.4582 16.8818C15.5916 16.9376 15.7346 16.9666 15.8791 16.9671C16.0236 16.9676 16.1669 16.9397 16.3006 16.8848C16.4343 16.83 16.5559 16.7493 16.6585 16.6475C16.7611 16.5457 16.8426 16.4246 16.8983 16.2913C16.9541 16.1579 16.9831 16.0149 16.9836 15.8704C16.9841 15.7259 16.9562 15.5826 16.9013 15.4489C16.8465 15.3152 16.7658 15.1936 16.664 15.091L13.551 12Z" fill="black"/>
</svg>
