<svg width="24" height="24" viewBox="0 0 24 24" fill="none" xmlns="http://www.w3.org/2000/svg">
<path d="M16.5042 22.75H7.485C5.83126 22.7443 4.24704 22.0841 3.07867 20.9137C1.9103 19.7434 1.25283 18.158 1.25 16.5043V7.49576C1.25283 5.84201 1.9103 4.25665 3.07867 3.08627C4.24704 1.91589 5.83126 1.25569 7.485 1.25001H16.4935C17.3137 1.2486 18.1261 1.40875 18.8845 1.72132C19.6428 2.0339 20.3321 2.49277 20.9131 3.07174C21.494 3.65072 21.9553 4.33845 22.2704 5.09568C22.5856 5.85291 22.7486 6.6648 22.75 7.48501V16.4935C22.7514 17.3146 22.5909 18.1279 22.2776 18.8869C21.9644 19.646 21.5046 20.3358 20.9245 20.9169C20.3443 21.498 19.6553 21.959 18.8969 22.2735C18.1384 22.5881 17.3254 22.75 16.5042 22.75ZM13.5157 12L16.558 8.95776C16.759 8.75248 16.8702 8.47576 16.8672 8.18848C16.8642 7.9012 16.7471 7.62688 16.5419 7.42588C16.3366 7.22488 16.0599 7.11366 15.7726 7.11668C15.4853 7.11971 15.211 7.23673 15.01 7.44201L12 10.4843L8.95775 7.44201C8.78555 7.23177 8.54013 7.09455 8.27085 7.05796C8.00157 7.02137 7.72842 7.08812 7.50637 7.24478C7.28432 7.40144 7.12984 7.63639 7.07402 7.90235C7.0182 8.1683 7.06517 8.44553 7.2055 8.67826C7.28184 8.78685 7.3764 8.88141 7.485 8.95776L10.4842 12L7.485 15.0423C7.30888 15.2479 7.21686 15.5124 7.22731 15.783C7.23776 16.0535 7.34991 16.3102 7.54137 16.5016C7.73282 16.6931 7.98946 16.8052 8.26001 16.8157C8.53057 16.8261 8.7951 16.7341 9.00075 16.558L12 13.5158L14.967 16.558C15.0634 16.6705 15.182 16.7619 15.3153 16.8265C15.4487 16.891 15.594 16.9272 15.742 16.933C15.8901 16.9387 16.0377 16.9137 16.1756 16.8597C16.3136 16.8056 16.4389 16.7237 16.5436 16.6189C16.6484 16.5141 16.7304 16.3888 16.7844 16.2509C16.8385 16.1129 16.8634 15.9653 16.8577 15.8173C16.852 15.6692 16.8157 15.524 16.7512 15.3906C16.6867 15.2572 16.5953 15.1386 16.4827 15.0423L13.5157 12Z" fill="black"/>
</svg>
