<svg width="24" height="24" viewBox="0 0 24 24" fill="none" xmlns="http://www.w3.org/2000/svg">
<path d="M2.3009 18.3386C1.72133 17.4762 1.40802 16.4625 1.3999 15.4236V4.91897C1.3998 4.74826 1.44996 4.58129 1.54414 4.43891C1.63832 4.29652 1.77235 4.18503 1.92949 4.11832C2.08663 4.05162 2.25994 4.03267 2.42778 4.06384C2.59563 4.095 2.75058 4.1749 2.8733 4.29357L6.0533 7.47357C6.21408 7.63281 6.43122 7.72214 6.6575 7.72214C6.88379 7.72214 7.10093 7.63281 7.2617 7.47357L11.3957 3.49857C11.5565 3.33933 11.7736 3.25 11.9999 3.25C12.2262 3.25 12.4433 3.33933 12.6041 3.49857L15.1799 5.91537L2.3009 18.3386ZM21.1265 4.29357L17.9465 7.47357C17.7857 7.63281 17.5686 7.72214 17.3423 7.72214C17.116 7.72214 16.8989 7.63281 16.7381 7.47357L16.2399 7.02837L3.3821 19.5364C4.31597 20.3104 5.48706 20.7407 6.6999 20.7554H17.2999C18.7056 20.7554 20.0536 20.197 21.0476 19.203C22.0415 18.2091 22.5999 16.861 22.5999 15.4554V4.91897C22.6 4.74826 22.5498 4.58129 22.4557 4.43891C22.3615 4.29652 22.2275 4.18503 22.0703 4.11832C21.9132 4.05162 21.7399 4.03267 21.572 4.06384C21.4042 4.095 21.2492 4.1749 21.1265 4.29357Z" fill="black"/>
</svg>
