<svg width="24" height="24" viewBox="0 0 24 24" fill="none" xmlns="http://www.w3.org/2000/svg">
<path d="M16.455 1H7.6C5.84957 1 4.17084 1.69536 2.9331 2.9331C1.69536 4.17084 1 5.84957 1 7.6V16.51C1.02886 18.2413 1.73693 19.8919 2.97156 21.106C4.20619 22.32 5.86846 23.0002 7.6 23H16.51C18.2318 22.9714 19.8742 22.2709 21.0868 21.0481C22.2993 19.8253 22.9859 18.177 23 16.455V7.6C23.0001 5.85906 22.3123 4.1886 21.0864 2.95243C19.8605 1.71626 18.1959 1.01451 16.455 1V1ZM11.252 17.863C11.2424 18.0458 11.1874 18.2233 11.0918 18.3795C10.9963 18.5356 10.8633 18.6655 10.7049 18.7572C10.5465 18.849 10.3677 18.8998 10.1847 18.905C10.0017 18.9102 9.82035 18.8696 9.657 18.787L5.752 16.532C5.59301 16.4352 5.46117 16.2997 5.36882 16.1381C5.27648 15.9765 5.22665 15.7941 5.224 15.608V11.098C5.23358 10.9152 5.28863 10.7377 5.38417 10.5815C5.4797 10.4254 5.61269 10.2955 5.77109 10.2038C5.92949 10.112 6.10829 10.0612 6.29127 10.056C6.47426 10.0508 6.65565 10.0914 6.819 10.174L10.724 12.429C10.883 12.5258 11.0148 12.6613 11.1072 12.8229C11.1995 12.9845 11.2494 13.1669 11.252 13.353V17.863ZM11.56 11.571L7.6 9.316C7.44796 9.21581 7.32317 9.07944 7.23682 8.91913C7.15048 8.75882 7.10528 8.57959 7.10528 8.3975C7.10528 8.21542 7.15048 8.03618 7.23682 7.87587C7.32317 7.71556 7.44796 7.57919 7.6 7.479L11.494 5.213C11.6588 5.1095 11.8494 5.05459 12.044 5.05459C12.2386 5.05459 12.4292 5.1095 12.594 5.213L16.51 7.413C16.662 7.51319 16.7868 7.64956 16.8732 7.80987C16.9595 7.97018 17.0047 8.14942 17.0047 8.3315C17.0047 8.51358 16.9595 8.69282 16.8732 8.85313C16.7868 9.01344 16.662 9.14981 16.51 9.25L12.627 11.56C12.4647 11.6522 12.2816 11.7016 12.0949 11.7035C11.9083 11.7055 11.7242 11.6599 11.56 11.571V11.571ZM18.776 15.608C18.7734 15.7941 18.7235 15.9765 18.6312 16.1381C18.5388 16.2997 18.407 16.4352 18.248 16.532L14.343 18.787C14.1796 18.8696 13.9983 18.9102 13.8153 18.905C13.6323 18.8998 13.4535 18.849 13.2951 18.7572C13.1367 18.6655 13.0037 18.5356 12.9082 18.3795C12.8126 18.2233 12.7576 18.0458 12.748 17.863V13.353C12.7506 13.1669 12.8005 12.9845 12.8928 12.8229C12.9852 12.6613 13.117 12.5258 13.276 12.429L17.181 10.174C17.3443 10.0914 17.5257 10.0508 17.7087 10.056C17.8917 10.0612 18.0705 10.112 18.2289 10.2038C18.3873 10.2955 18.5203 10.4254 18.6158 10.5815C18.7114 10.7377 18.7664 10.9152 18.776 11.098V15.608Z" fill="black"/>
</svg>
