<svg width="24" height="24" viewBox="0 0 24 24" fill="none" xmlns="http://www.w3.org/2000/svg">
<path d="M7.603 14.709H15.05C14.6492 15.2413 14.1311 15.6741 13.5358 15.9736C12.9406 16.2731 12.2843 16.4313 11.618 16.436H7.603V14.709ZM11.387 7.064H7.603V8.659H14.797C14.3785 8.16149 13.8567 7.7611 13.2678 7.48566C12.6789 7.21022 12.0371 7.06633 11.387 7.064V7.064ZM22.75 11.75C22.75 13.9256 22.1049 16.0523 20.8962 17.8613C19.6875 19.6702 17.9695 21.0801 15.9595 21.9127C13.9495 22.7452 11.7378 22.9631 9.60401 22.5386C7.47022 22.1142 5.51021 21.0665 3.97183 19.5282C2.43345 17.9898 1.3858 16.0298 0.961367 13.896C0.53693 11.7622 0.754766 9.55047 1.58733 7.54048C2.41989 5.53049 3.82979 3.81253 5.63873 2.60383C7.44767 1.39514 9.57441 0.75 11.75 0.75C13.1945 0.75 14.6249 1.03452 15.9595 1.58732C17.2941 2.14013 18.5067 2.95038 19.5282 3.97182C20.5496 4.99327 21.3599 6.2059 21.9127 7.54048C22.4655 8.87506 22.75 10.3055 22.75 11.75V11.75ZM17.426 10.309H18.35C18.5688 10.309 18.7786 10.2221 18.9334 10.0674C19.0881 9.91264 19.175 9.7028 19.175 9.484C19.175 9.26519 19.0881 9.05535 18.9334 8.90063C18.7786 8.74592 18.5688 8.659 18.35 8.659H16.821C16.2899 7.68019 15.505 6.8624 14.5489 6.29144C13.5928 5.72047 12.5006 5.41739 11.387 5.414H6.778C6.55819 5.41689 6.34837 5.50624 6.19396 5.66271C6.03955 5.81918 5.95298 6.03017 5.953 6.25V8.67H5.15C4.9312 8.67 4.72136 8.75692 4.56664 8.91163C4.41192 9.06635 4.325 9.27619 4.325 9.495C4.325 9.7138 4.41192 9.92364 4.56664 10.0784C4.72136 10.2331 4.9312 10.32 5.15 10.32H5.975V13.07H5.15C4.9312 13.07 4.72136 13.1569 4.56664 13.3116C4.41192 13.4664 4.325 13.6762 4.325 13.895C4.325 14.1138 4.41192 14.3236 4.56664 14.4784C4.72136 14.6331 4.9312 14.72 5.15 14.72H5.975V17.25C5.97785 17.4679 6.06569 17.6761 6.21979 17.8302C6.37389 17.9843 6.58209 18.0721 6.8 18.075H11.618C12.7393 18.0716 13.8371 17.7532 14.7862 17.1561C15.7353 16.559 16.4975 15.7073 16.986 14.698H18.35C18.5688 14.698 18.7786 14.6111 18.9334 14.4564C19.0881 14.3016 19.175 14.0918 19.175 13.873C19.175 13.6542 19.0881 13.4444 18.9334 13.2896C18.7786 13.1349 18.5688 13.048 18.35 13.048H17.459C17.5165 12.7322 17.546 12.412 17.547 12.091V11.596C17.5512 11.164 17.5106 10.7327 17.426 10.309V10.309ZM7.603 10.309V13.059H15.809C15.8794 12.7448 15.9163 12.424 15.919 12.102V11.607C15.913 11.1665 15.8425 10.7292 15.71 10.309H7.603Z" fill="black"/>
</svg>
