<svg width="24" height="24" viewBox="0 0 24 24" fill="none" xmlns="http://www.w3.org/2000/svg">
<path d="M16.3 5.28124C16.3084 5.64243 16.4586 5.9858 16.7181 6.23721C16.9775 6.48863 17.3254 6.62791 17.6867 6.62499H21.3632C21.731 6.62499 22.0837 6.47889 22.3438 6.21882C22.6038 5.95875 22.75 5.60603 22.75 5.23824V3.71174C22.75 3.34396 22.6038 2.99123 22.3438 2.73117C22.0837 2.4711 21.731 2.325 21.3632 2.325H17.6867C17.3254 2.32208 16.9775 2.46136 16.7181 2.71277C16.4586 2.96419 16.3084 3.30756 16.3 3.66875H8.77498V3.486C8.77498 2.89297 8.53941 2.32424 8.12008 1.90491C7.70075 1.48558 7.13201 1.25 6.53899 1.25H3.486C2.89297 1.25 2.32424 1.48558 1.90491 1.90491C1.48558 2.32424 1.25 2.89297 1.25 3.486V5.46399C1.25 6.05701 1.48558 6.62575 1.90491 7.04508C2.32424 7.46441 2.89297 7.69999 3.486 7.69999H6.53899C7.13201 7.69999 7.70075 7.46441 8.12008 7.04508C8.53941 6.62575 8.77498 6.05701 8.77498 5.46399V5.28124H11.7312V18.2565C11.7312 19.0918 12.0631 19.893 12.6538 20.4837C13.2445 21.0744 14.0456 21.4062 14.881 21.4062H16.3C16.3084 21.7674 16.4586 22.1108 16.7181 22.3622C16.9775 22.6136 17.3254 22.7529 17.6867 22.75H21.3632C21.731 22.75 22.0837 22.6039 22.3438 22.3438C22.6038 22.0837 22.75 21.731 22.75 21.3632V19.8367C22.75 19.4689 22.6038 19.1162 22.3438 18.8561C22.0837 18.5961 21.731 18.45 21.3632 18.45H17.6867C17.3254 18.447 16.9775 18.5863 16.7181 18.8377C16.4586 19.0892 16.3084 19.4325 16.3 19.7937H14.881C14.4733 19.7937 14.0823 19.6318 13.794 19.3435C13.5057 19.0552 13.3437 18.6642 13.3437 18.2565V13.3437H16.3C16.3084 13.703 16.4571 14.0448 16.7142 14.2959C16.9714 14.547 17.3165 14.6876 17.676 14.6875H21.3525C21.5355 14.6889 21.717 14.6541 21.8864 14.585C22.0559 14.516 22.2101 14.414 22.34 14.2851C22.4699 14.1562 22.573 14.0029 22.6434 13.8339C22.7137 13.665 22.75 13.4837 22.75 13.3007V11.7742C22.75 11.4064 22.6038 11.0537 22.3438 10.7937C22.0837 10.5336 21.731 10.3875 21.3632 10.3875H17.6867C17.3254 10.3846 16.9775 10.5238 16.7181 10.7753C16.4586 11.0267 16.3084 11.37 16.3 11.7312H13.3437V5.28124H16.3Z" fill="black"/>
</svg>
