<svg width="24" height="24" viewBox="0 0 24 24" fill="none" xmlns="http://www.w3.org/2000/svg">
<path d="M17.1408 5.66617H13.9191C13.3551 5.66689 12.8035 5.50082 12.3336 5.18886C11.8637 4.87689 11.4965 4.43295 11.2782 3.91286L10.9166 3.00333C10.6995 2.48238 10.3327 2.03763 9.86249 1.72548C9.39232 1.41334 8.84004 1.24785 8.27568 1.25002H6.08405C4.77607 1.24708 3.52002 1.76162 2.59002 2.68135C1.66002 3.60109 1.13157 4.85135 1.12 6.15928V17.1175C1.14301 18.6193 1.75582 20.0518 2.82607 21.1057C3.89633 22.1595 5.33815 22.7501 6.84016 22.75H17.1408C18.656 22.7558 20.1117 22.1602 21.1882 21.0939C22.2647 20.0277 22.8742 18.5779 22.8829 17.0627V11.3315C22.8713 9.81926 22.2602 8.37336 21.1837 7.3112C20.1071 6.24904 18.6531 5.65741 17.1408 5.66617ZM14.4561 15.5285C14.3819 15.6045 14.2933 15.665 14.1954 15.7064C14.0976 15.7478 13.9925 15.7693 13.8863 15.7696C13.7884 15.77 13.6915 15.7508 13.6011 15.7131C13.5108 15.6755 13.4289 15.6202 13.3603 15.5504L12.122 14.3998L11.0262 15.6381C10.8756 15.7906 10.6707 15.8773 10.4564 15.8792C10.3542 15.8778 10.2533 15.8562 10.1594 15.8158C10.0656 15.7754 9.98063 15.7168 9.9094 15.6436C9.83816 15.5703 9.78206 15.4837 9.7443 15.3888C9.70653 15.2938 9.68784 15.1924 9.68929 15.0902C9.70022 14.9122 9.76954 14.7427 9.88653 14.608L11.0481 13.3807L9.73312 12.1863C9.58858 12.0406 9.50747 11.8436 9.50747 11.6384C9.50747 11.4331 9.58858 11.2362 9.73312 11.0905C9.8802 10.9485 10.0766 10.8692 10.281 10.8692C10.4854 10.8692 10.6819 10.9485 10.8289 11.0905L12.0672 12.252L13.2288 11.0247C13.2862 10.9382 13.3602 10.864 13.4464 10.8061C13.5326 10.7483 13.6294 10.708 13.7312 10.6877C13.833 10.6673 13.9378 10.6673 14.0396 10.6875C14.1415 10.7077 14.2383 10.7478 14.3246 10.8055C14.4156 10.8589 14.4944 10.9306 14.556 11.0162C14.6176 11.1018 14.6606 11.1993 14.6823 11.3025C14.704 11.4057 14.7038 11.5123 14.6818 11.6154C14.6599 11.7186 14.6166 11.816 14.5547 11.9014C14.5078 11.9734 14.4484 12.0365 14.3794 12.0877L13.2069 13.315L14.4451 14.4875C14.5737 14.6254 14.6461 14.8064 14.6481 14.9949C14.6501 15.1835 14.5817 15.366 14.4561 15.5066V15.5285Z" fill="black"/>
</svg>
