<svg width="24" height="24" viewBox="0 0 24 24" fill="none" xmlns="http://www.w3.org/2000/svg">
<path d="M16.8103 6.71891L17.9568 6.40857C18.2807 6.31629 18.6278 6.3564 18.9221 6.52013C19.2165 6.68385 19.4342 6.95784 19.5275 7.28211L20.9263 12.2015C20.9695 12.3638 20.9804 12.533 20.9583 12.6995C20.9361 12.866 20.8814 13.0264 20.7972 13.1717C20.7131 13.3169 20.6012 13.444 20.4679 13.5458C20.3346 13.6476 20.1826 13.7219 20.0205 13.7647L14.8727 15.2244C14.7116 15.2712 14.5427 15.2849 14.3762 15.2649C14.2097 15.2449 14.0488 15.1914 13.9033 15.1078C13.7578 15.0241 13.6306 14.912 13.5293 14.778C13.4279 14.644 13.3545 14.4909 13.3135 14.3279L11.9147 9.43147C11.8221 9.11141 11.8593 8.76763 12.0181 8.4749C12.177 8.18217 12.4448 7.96417 12.7631 7.8683L13.9096 7.53498L14.46 9.46595C14.5238 9.67177 14.6642 9.84508 14.852 9.94993C15.0399 10.0548 15.2608 10.0832 15.4689 10.0292L16.7415 9.73031C16.8448 9.70117 16.9414 9.65184 17.0256 9.58516C17.1098 9.51847 17.1801 9.43574 17.2323 9.34174C17.2845 9.24773 17.3177 9.1443 17.3299 9.0374C17.342 8.9305 17.333 8.82224 17.3033 8.71885L16.753 6.78787L16.8103 6.71891ZM11.1924 21.8104H10.9287C10.2629 21.7759 9.63692 21.4821 9.1841 20.9916C8.73129 20.5011 8.48749 19.8527 8.50469 19.1846C8.52188 18.5164 8.79871 17.8815 9.27615 17.415C9.7536 16.9486 10.3939 16.6875 11.0606 16.6875C11.7272 16.6875 12.3675 16.9486 12.845 17.415C13.3224 17.8815 13.5992 18.5164 13.6164 19.1846C13.6336 19.8527 13.3898 20.5011 12.937 20.9916C12.4842 21.4821 11.8582 21.7759 11.1924 21.8104ZM11.0548 20.0748C11.2848 20.0492 11.4973 19.9395 11.6516 19.7667C11.806 19.5939 11.8913 19.37 11.8913 19.1381C11.8913 18.9061 11.806 18.6823 11.6516 18.5094C11.4973 18.3366 11.2848 18.2269 11.0548 18.2013C10.8248 18.2269 10.6124 18.3366 10.458 18.5094C10.3037 18.6823 10.2183 18.9061 10.2183 19.1381C10.2183 19.37 10.3037 19.5939 10.458 19.7667C10.6124 19.9395 10.8248 20.0492 11.0548 20.0748ZM23.4601 15.4773C23.3961 15.2604 23.2497 15.0774 23.0524 14.9677C22.8551 14.858 22.6227 14.8305 22.4053 14.8911L15.2969 16.868C15.1892 16.8973 15.0883 16.9476 15 17.0161C14.9116 17.0845 14.8377 17.1698 14.7823 17.2669C14.7269 17.3641 14.6912 17.4713 14.6772 17.5823C14.6632 17.6933 14.6712 17.806 14.7007 17.914C14.7507 18.0952 14.8585 18.255 15.0075 18.3691C15.1565 18.4833 15.3387 18.5454 15.5262 18.5461H15.7555L22.8639 16.5692C22.9759 16.5389 23.0806 16.4862 23.1718 16.4143C23.263 16.3424 23.3387 16.2528 23.3944 16.1507C23.4501 16.0487 23.4846 15.9365 23.4959 15.8207C23.5072 15.705 23.495 15.5882 23.4601 15.4773ZM20.9607 21.7874H6.8242C6.59814 21.7904 6.38236 21.8826 6.22357 22.0439C6.06478 22.2053 5.97576 22.4228 5.97578 22.6495C5.97578 22.875 6.06517 23.0914 6.22428 23.2509C6.38339 23.4104 6.59918 23.5 6.8242 23.5H20.9492C21.1742 23.5 21.39 23.4104 21.5491 23.2509C21.7083 23.0914 21.7976 22.875 21.7976 22.6495C21.7917 22.4268 21.7001 22.2151 21.5419 22.0587C21.3838 21.9023 21.1714 21.8133 20.9492 21.8104L20.9607 21.7874ZM6.0675 2.74202L9.38092 14.7072C9.43093 14.8884 9.53865 15.0482 9.68768 15.1623C9.83671 15.2765 10.0189 15.3386 10.2064 15.3393H10.4357C10.6512 15.2777 10.8336 15.1332 10.9432 14.9372C11.0527 14.7413 11.0805 14.5098 11.0204 14.2934L7.48918 1.4662C7.42763 1.24718 7.28221 1.06144 7.08462 0.949481C6.88703 0.837519 6.65329 0.808415 6.43438 0.868515L4.93245 1.2823C4.81885 1.212 4.69218 1.16556 4.56014 1.14581C4.42809 1.12605 4.29342 1.13338 4.16429 1.16736L1.28655 1.89147C1.15517 1.92248 1.03124 1.97931 0.921927 2.05866C0.812613 2.13802 0.720088 2.23833 0.64971 2.35378C0.579333 2.46923 0.532501 2.59754 0.511926 2.73126C0.491352 2.86498 0.497443 3.00147 0.529848 3.13281L0.610104 3.40867C0.640996 3.53888 0.697362 3.66166 0.775934 3.76988C0.854507 3.87809 0.953723 3.9696 1.06783 4.03909C1.18194 4.10859 1.30868 4.15468 1.44069 4.17471C1.5727 4.19474 1.70736 4.1883 1.83687 4.15577L4.71462 3.42016C4.84762 3.38853 4.97249 3.3292 5.08113 3.24603C5.18977 3.16287 5.27974 3.05772 5.3452 2.93742L6.0675 2.74202ZM11.2956 7.20165C11.3338 7.33384 11.3977 7.45717 11.4835 7.56457C11.5693 7.67198 11.6755 7.76134 11.7958 7.82754C11.9162 7.89374 12.0484 7.93548 12.1849 7.95037C12.3213 7.96525 12.4594 7.95298 12.5912 7.91427H12.7631L15.3313 7.19016L13.9326 7.58095L16.7301 6.77638H16.7989C17.0626 6.6989 17.2851 6.52024 17.4182 6.27921C17.5513 6.03818 17.5842 5.75424 17.5097 5.48906L16.3632 1.36275C16.3379 1.22023 16.2834 1.08452 16.2031 0.964218C16.1227 0.843913 16.0184 0.741631 15.8966 0.663843C15.7748 0.586055 15.6383 0.534456 15.4956 0.512311C15.3529 0.490166 15.2072 0.497957 15.0676 0.535192L14.1045 0.799552L14.5746 2.42019C14.6178 2.59377 14.5932 2.77735 14.5058 2.93333C14.4185 3.08932 14.2749 3.20591 14.1045 3.25925L13.1415 3.59257C13.0564 3.6169 12.9674 3.62397 12.8795 3.61337C12.7917 3.60276 12.7069 3.5747 12.63 3.53081C12.5531 3.48692 12.4857 3.4281 12.4318 3.35779C12.3779 3.28747 12.3385 3.20708 12.316 3.12132L11.8574 1.51217L10.8485 1.77653C10.7156 1.81362 10.5913 1.87675 10.4829 1.96229C10.3745 2.04782 10.2841 2.15405 10.217 2.27484C10.1498 2.39563 10.1072 2.52857 10.0916 2.66597C10.076 2.80338 10.0878 2.94252 10.1262 3.07534L11.2956 7.20165Z" fill="black"/>
</svg>
