<svg width="24" height="24" viewBox="0 0 24 24" fill="none" xmlns="http://www.w3.org/2000/svg">
<path d="M9.68707 20.6859C9.68707 21.1155 9.5597 21.5353 9.32106 21.8925C9.08242 22.2496 8.74324 22.528 8.3464 22.6924C7.94956 22.8567 7.51289 22.8998 7.09161 22.816C6.67033 22.7322 6.28336 22.5253 5.97963 22.2216C5.6759 21.9179 5.46906 21.5309 5.38527 21.1096C5.30147 20.6883 5.34448 20.2517 5.50885 19.8548C5.67323 19.458 5.95159 19.1188 6.30873 18.8802C6.66588 18.6415 7.08577 18.5142 7.5153 18.5142C8.09129 18.5142 8.64369 18.743 9.05097 19.1502C9.45826 19.5575 9.68707 20.1099 9.68707 20.6859ZM16.2024 18.5142C15.7728 18.5142 15.3529 18.6415 14.9958 18.8802C14.6387 19.1188 14.3603 19.458 14.1959 19.8548C14.0315 20.2517 13.9885 20.6883 14.0723 21.1096C14.1561 21.5309 14.363 21.9179 14.6667 22.2216C14.9704 22.5253 15.3574 22.7322 15.7787 22.816C16.2 22.8998 16.6366 22.8567 17.0335 22.6924C17.4303 22.528 17.7695 22.2496 18.0081 21.8925C18.2468 21.5353 18.3741 21.1155 18.3741 20.6859C18.3741 20.1099 18.1453 19.5575 17.738 19.1502C17.3308 18.743 16.7784 18.5142 16.2024 18.5142V18.5142ZM18.3741 13.0847V9.82708C18.3741 9.53909 18.4885 9.26289 18.6922 9.05925C18.8958 8.8556 19.172 8.7412 19.46 8.7412H21.0128L19.6012 6.00477C19.3419 5.5118 18.9508 5.10052 18.4714 4.81676C17.9921 4.533 17.4434 4.38791 16.8865 4.39767H16.539C16.939 5.4262 17.0821 6.53677 16.956 7.63312C16.8299 8.72947 16.4384 9.77853 15.8153 10.6894C15.1922 11.6002 14.3564 12.3454 13.3803 12.8603C12.4042 13.3752 11.3173 13.6444 10.2137 13.6444C9.11014 13.6444 8.02321 13.3752 7.04712 12.8603C6.07103 12.3454 5.23523 11.6002 4.61215 10.6894C3.98907 9.77853 3.59751 8.72947 3.47141 7.63312C3.3453 6.53677 3.48845 5.4262 3.88845 4.39767C3.11063 4.43127 2.37586 4.76409 1.83762 5.32662C1.29937 5.88914 0.999276 6.63787 1 7.41642V17.6672C1 18.4678 1.31805 19.2356 1.88417 19.8017C2.4503 20.3679 3.21813 20.6859 4.01876 20.6859H4.25765C4.25765 19.8219 4.60087 18.9933 5.2118 18.3824C5.82272 17.7715 6.65132 17.4283 7.5153 17.4283C8.37928 17.4283 9.20788 17.7715 9.81881 18.3824C10.4297 18.9933 10.773 19.8219 10.773 20.6859H12.9447C12.9447 19.8219 13.2879 18.9933 13.8989 18.3824C14.5098 17.7715 15.3384 17.4283 16.2024 17.4283C17.0664 17.4283 17.8949 17.7715 18.5059 18.3824C19.1168 18.9933 19.46 19.8219 19.46 20.6859H19.9812C20.7819 20.6859 21.5497 20.3679 22.1158 19.8017C22.682 19.2356 23 18.4678 23 17.6672V14.1706H19.4492C19.1631 14.1678 18.8896 14.0521 18.6883 13.8488C18.487 13.6454 18.3741 13.3709 18.3741 13.0847V13.0847ZM15.92 6.8409C15.92 7.96843 15.5857 9.07064 14.9593 10.0081C14.3328 10.9457 13.4425 11.6764 12.4008 12.1078C11.3591 12.5393 10.2128 12.6522 9.10696 12.4323C8.0011 12.2123 6.9853 11.6693 6.18802 10.872C5.39073 10.0748 4.84778 9.05896 4.62781 7.95309C4.40784 6.84723 4.52073 5.70097 4.95222 4.65927C5.38371 3.61757 6.1144 2.72721 7.05191 2.10079C7.98941 1.47437 9.09162 1.14001 10.2192 1.14001C11.7311 1.14001 13.1812 1.74064 14.2503 2.80977C15.3194 3.87889 15.92 5.32893 15.92 6.8409ZM11.0336 4.33251C11.0336 4.11652 10.9478 3.90937 10.795 3.75664C10.6423 3.6039 10.4351 3.5181 10.2192 3.5181C10.0032 3.5181 9.79601 3.6039 9.64328 3.75664C9.49054 3.90937 9.40474 4.11652 9.40474 4.33251V6.3414L7.78677 7.65532C7.63626 7.78922 7.53992 7.97355 7.51592 8.17357C7.49192 8.37359 7.54191 8.57549 7.65647 8.7412C7.73445 8.83573 7.83226 8.91197 7.94297 8.96451C8.05368 9.01705 8.17459 9.04461 8.29714 9.04525C8.47877 9.04711 8.65538 8.98568 8.79664 8.87151L10.7187 7.34041C10.8164 7.26455 10.8955 7.16742 10.9501 7.05642C11.0046 6.94541 11.0332 6.82343 11.0336 6.69974V4.33251Z" fill="black"/>
</svg>
