<svg width="24" height="24" viewBox="0 0 24 24" fill="none" xmlns="http://www.w3.org/2000/svg">
<path d="M21.0589 22.75H16.0604C15.9145 22.7502 15.7702 22.7207 15.6362 22.6633C15.5021 22.606 15.3812 22.522 15.2806 22.4164C15.18 22.3108 15.102 22.1859 15.0513 22.0492C15.0005 21.9125 14.9781 21.7669 14.9854 21.6213V16.6335C14.9854 16.3484 15.0987 16.075 15.3002 15.8734C15.5018 15.6718 15.7753 15.5586 16.0604 15.5586H21.0589C21.344 15.5586 21.6174 15.6718 21.819 15.8734C22.0206 16.075 22.1338 16.3484 22.1338 16.6335V21.6751C22.1338 21.9601 22.0206 22.2336 21.819 22.4352C21.6174 22.6367 21.344 22.75 21.0589 22.75ZM13.8567 19.5252H7.7077C7.42833 19.5253 7.15178 19.4693 6.89447 19.3605C6.63716 19.2517 6.40434 19.0923 6.20983 18.8917C6.01531 18.6912 5.86307 18.4536 5.76214 18.1931C5.66122 17.9326 5.61366 17.6545 5.62231 17.3753V3.40093C5.61366 3.12169 5.66122 2.84356 5.76214 2.58306C5.86307 2.32255 6.01531 2.08498 6.20983 1.88445C6.40434 1.68392 6.63716 1.52452 6.89447 1.41571C7.15178 1.3069 7.42833 1.2509 7.7077 1.25103H15.7486C16.0334 1.24208 16.3169 1.29157 16.5818 1.39644C16.8467 1.50131 17.0873 1.65935 17.2887 1.8608C17.4902 2.06225 17.6482 2.30284 17.7531 2.56772C17.858 2.83261 17.9075 3.11618 17.8985 3.40093V14.4299H16.0604C15.4945 14.4435 14.9555 14.6744 14.5552 15.0747C14.155 15.475 13.9241 16.0139 13.9105 16.5798L13.8567 19.5252ZM14.9317 10.9256C14.9317 11.1394 15.0166 11.3445 15.1678 11.4956C15.319 11.6468 15.524 11.7318 15.7379 11.7318C15.9517 11.7318 16.1568 11.6468 16.3079 11.4956C16.4591 11.3445 16.5441 11.1394 16.5441 10.9256V8.96916C16.5441 8.75534 16.4591 8.55028 16.3079 8.39908C16.1568 8.24789 15.9517 8.16295 15.7379 8.16295C15.524 8.16295 15.319 8.24789 15.1678 8.39908C15.0166 8.55028 14.9317 8.75534 14.9317 8.96916V10.9256ZM13.201 21.89C13.1982 21.6771 13.1124 21.4736 12.9618 21.323C12.8112 21.1724 12.6077 21.0866 12.3948 21.0838H2.6662C2.45238 21.0838 2.24731 21.1688 2.09612 21.32C1.94493 21.4712 1.85999 21.6762 1.85999 21.89C1.85999 22.1039 1.94493 22.3089 2.09612 22.4601C2.24731 22.6113 2.45238 22.6963 2.6662 22.6963H12.4163C12.6311 22.6934 12.8361 22.6061 12.987 22.4532C13.1379 22.3003 13.2225 22.0941 13.2225 21.8793L13.201 21.89Z" fill="black"/>
</svg>
