<svg width="24" height="24" viewBox="0 0 24 24" fill="none" xmlns="http://www.w3.org/2000/svg">
<path d="M13.075 18.45H9.85V15.225C9.85 14.9399 9.96326 14.6665 10.1649 14.4649C10.3665 14.2633 10.6399 14.15 10.925 14.15H14.15V17.375C14.15 17.6601 14.0367 17.9335 13.8351 18.1351C13.6335 18.3367 13.3601 18.45 13.075 18.45ZM2.325 18.45C2.03989 18.45 1.76646 18.5633 1.56486 18.7649C1.36326 18.9665 1.25 19.2399 1.25 19.525V21.675C1.25 21.9601 1.36326 22.2335 1.56486 22.4351C1.76646 22.6367 2.03989 22.75 2.325 22.75H8.775C9.06011 22.75 9.33354 22.6367 9.53514 22.4351C9.73674 22.2335 9.85 21.9601 9.85 21.675V18.45H2.325ZM18.45 13.075V9.85H15.225C14.9399 9.85 14.6665 9.96326 14.4649 10.1649C14.2633 10.3665 14.15 10.6399 14.15 10.925V14.15H17.375C17.6601 14.15 17.9335 14.0367 18.1351 13.8351C18.3367 13.6335 18.45 13.3601 18.45 13.075ZM21.675 1.25H19.525C19.2399 1.25 18.9665 1.36326 18.7649 1.56486C18.5633 1.76646 18.45 2.03989 18.45 2.325V9.85H21.675C21.9601 9.85 22.2335 9.73674 22.4351 9.53514C22.6367 9.33354 22.75 9.06011 22.75 8.775V2.325C22.75 2.03989 22.6367 1.76646 22.4351 1.56486C22.2335 1.36326 21.9601 1.25 21.675 1.25ZM17.375 15.7625H15.7625V17.375C15.7603 17.7449 15.6835 18.1105 15.5368 18.45H17.375C17.6601 18.45 17.9335 18.3367 18.1351 18.1351C18.3367 17.9335 18.45 17.6601 18.45 17.375V15.5368C18.1105 15.6835 17.7449 15.7603 17.375 15.7625ZM21.675 11.4625H20.0625V13.075C20.0603 13.4449 19.9835 13.8105 19.8368 14.15H21.675C21.9601 14.15 22.2335 14.0367 22.4351 13.8351C22.6367 13.6335 22.75 13.3601 22.75 13.075V11.2368C22.4105 11.3835 22.0449 11.4603 21.675 11.4625ZM13.075 20.0625H11.4625V21.675C11.4603 22.0449 11.3835 22.4105 11.2368 22.75H13.075C13.3601 22.75 13.6335 22.6367 13.8351 22.4351C14.0367 22.2335 14.15 21.9601 14.15 21.675V19.8368C13.8105 19.9835 13.4449 20.0603 13.075 20.0625ZM8.2375 16.8375V15.225C8.2375 14.5122 8.52065 13.8287 9.02465 13.3247C9.52866 12.8206 10.2122 12.5375 10.925 12.5375H12.5375V10.925C12.5375 10.2122 12.8206 9.52866 13.3247 9.02465C13.8287 8.52065 14.5122 8.2375 15.225 8.2375H16.8375V3.4H8.42025C7.0888 3.4 5.81188 3.92892 4.8704 4.8704C3.92892 5.81188 3.4 7.0888 3.4 8.42025V16.8375H8.2375Z" fill="black"/>
</svg>
