<svg width="24" height="24" viewBox="0 0 24 24" fill="none" xmlns="http://www.w3.org/2000/svg">
<path d="M18.1813 1.59003H5.81875C4.60704 1.59003 3.44496 2.07138 2.58816 2.92818C1.73135 3.78499 1.25 4.94707 1.25 6.15878V17.8338C1.25 19.0455 1.73135 20.2076 2.58816 21.0644C3.44496 21.9212 4.60704 22.4025 5.81875 22.4025H18.1813C19.393 22.4025 20.555 21.9212 21.4118 21.0644C22.2687 20.2076 22.75 19.0455 22.75 17.8338V6.15878C22.75 4.94707 22.2687 3.78499 21.4118 2.92818C20.555 2.07138 19.393 1.59003 18.1813 1.59003ZM10.0112 8.77128C10.2239 8.77128 10.4317 8.83432 10.6085 8.95245C10.7853 9.07057 10.9231 9.23846 11.0044 9.43489C11.0858 9.63132 11.1071 9.84747 11.0656 10.056C11.0241 10.2645 10.9217 10.4561 10.7714 10.6064C10.621 10.7568 10.4295 10.8591 10.221 10.9006C10.0124 10.9421 9.7963 10.9208 9.59987 10.8394C9.40344 10.7581 9.23554 10.6203 9.11742 10.4435C8.9993 10.2667 8.93625 10.0589 8.93625 9.84628C8.93625 9.56117 9.04951 9.28774 9.25111 9.08614C9.45271 8.88454 9.72614 8.77128 10.0112 8.77128ZM5.808 9.84628C5.808 9.63366 5.87105 9.42582 5.98917 9.24904C6.10729 9.07226 6.27518 8.93447 6.47162 8.85311C6.66805 8.77174 6.88419 8.75045 7.09272 8.79193C7.30125 8.83341 7.4928 8.9358 7.64314 9.08614C7.79348 9.23648 7.89587 9.42803 7.93734 9.63655C7.97882 9.84508 7.95753 10.0612 7.87617 10.2577C7.79481 10.4541 7.65702 10.622 7.48024 10.7401C7.30346 10.8582 7.09561 10.9213 6.883 10.9213C6.59789 10.9213 6.32446 10.808 6.12286 10.6064C5.92126 10.4048 5.808 10.1314 5.808 9.84628ZM17.2245 16.565H6.8615C6.64767 16.565 6.4426 16.4801 6.2914 16.3289C6.14019 16.1777 6.05525 15.9726 6.05525 15.7588C6.05525 15.5449 6.14019 15.3399 6.2914 15.1887C6.4426 15.0375 6.64767 14.9525 6.8615 14.9525H17.2245C17.4383 14.9525 17.6434 15.0375 17.7946 15.1887C17.9458 15.3399 18.0308 16.5449 18.0308 16.7588C18.0308 16.9726 17.9458 16.1777 17.7946 16.3289C17.6434 16.4801 17.4383 16.565 17.2245 16.565ZM17.2245 10.6525H13.6985C13.4847 10.6525 13.2796 10.5676 13.1284 10.4164C12.9772 10.2652 12.8923 10.0601 12.8923 9.84628C12.8923 9.63245 12.9772 9.42737 13.1284 9.27617C13.2796 9.12497 13.4847 9.04003 13.6985 9.04003H17.2245C17.4383 9.04003 17.6434 9.12497 17.7946 9.27617C17.9458 9.42737 18.0308 9.63245 18.0308 9.84628C18.0308 10.0601 17.9458 10.2652 17.7946 10.4164C17.6434 10.5676 17.4383 10.6525 17.2245 10.6525Z" fill="black"/>
</svg>
