<svg width="24" height="24" viewBox="0 0 24 24" fill="none" xmlns="http://www.w3.org/2000/svg">
<path d="M22.1921 9.56028L21.3627 7.71258L19.3471 3.20881C19.2936 3.07638 19.2268 2.94974 19.1476 2.83087C19.0614 2.73523 18.9703 2.64413 18.8746 2.55792C18.7328 2.39815 18.5745 2.25387 18.4022 2.12749C18.0457 1.81134 17.6105 1.59734 17.1424 1.50809C17.0026 1.4973 16.8623 1.4973 16.7225 1.50809H7.27402C6.71504 1.50342 6.16716 1.66413 5.69928 1.97001C5.48016 2.1379 5.28578 2.33581 5.12187 2.55792C4.94799 2.76248 4.79005 2.98008 4.64945 3.20881L2.63378 7.71258L1.80441 9.56028C1.53209 10.161 1.43971 10.8278 1.53846 11.4799C1.63721 12.132 1.92286 12.7415 2.36082 13.2347L9.81461 21.5178C10.0884 21.8266 10.4247 22.0739 10.8011 22.2432C11.1775 22.4125 11.5855 22.5 11.9983 22.5C12.411 22.5 12.819 22.4125 13.1954 22.2432C13.5718 22.0739 13.9081 21.8266 14.1819 21.5178L21.6357 13.2347C22.0737 12.7415 22.3593 12.132 22.4581 11.4799C22.5568 10.8278 22.4644 10.161 22.1921 9.56028Z" fill="black"/>
</svg>
