<svg width="24" height="24" viewBox="0 0 24 24" fill="none" xmlns="http://www.w3.org/2000/svg">
<path d="M17.3854 22.7493H6.53868C5.38799 22.7493 4.28443 22.2963 3.47077 21.49C2.65711 20.6836 2.2 19.5899 2.2 18.4495V14.8162C2.19979 13.8826 2.56875 12.986 3.22775 12.3189C3.88676 11.6517 4.78332 11.267 5.72518 11.2473H6.60376C7.13679 11.2478 7.66331 11.3635 8.14663 11.5863C8.62994 11.809 9.05842 12.1336 9.40221 12.5373L9.71677 12.9135C9.99064 13.2367 10.3326 13.4966 10.7186 13.6749C11.1046 13.8532 11.5253 13.9456 11.9512 13.9456C12.3771 13.9456 12.7978 13.8532 13.1838 13.6749C13.5698 13.4966 13.9117 13.2367 14.1856 12.9135L14.5002 12.5373C14.844 12.1336 15.2724 11.809 15.7557 11.5863C16.2391 11.3635 16.7656 11.2478 17.2986 11.2473H18.1989C19.154 11.2473 20.0699 11.6233 20.7453 12.2926C21.4206 12.9619 21.8 13.8697 21.8 14.8162V18.4495C21.8001 19.0206 21.6854 19.5859 21.4626 20.1126C21.2399 20.6392 20.9135 21.1166 20.5025 21.5169C20.0915 21.9171 19.6042 22.2323 19.0691 22.4439C18.5339 22.6555 17.9615 22.7593 17.3854 22.7493ZM4.14156 10.4626V4.65787C4.14152 4.20674 4.23188 3.76009 4.40738 3.34383C4.58288 2.92757 4.84004 2.55 5.16393 2.233C5.48783 1.91601 5.87201 1.66591 6.2942 1.49721C6.71639 1.32852 7.16818 1.24458 7.62335 1.25027H16.4092C17.3211 1.25027 18.1957 1.60929 18.8405 2.24834C19.4853 2.88738 19.8476 3.75412 19.8476 4.65787V10.4734C19.3346 10.2798 18.7911 10.1779 18.2423 10.1724H17.342C16.6511 10.172 15.9685 10.322 15.3425 10.6117C14.7165 10.9015 14.1623 11.324 13.7192 11.8493L13.4046 12.2255C13.2301 12.4271 13.0139 12.5891 12.7705 12.7004C12.5272 12.8116 12.2626 12.8697 11.9946 12.8705C11.7279 12.871 11.4644 12.8135 11.2227 12.7021C10.9809 12.5906 10.7668 12.428 10.5953 12.2255L10.2699 11.8386C9.81961 11.3113 9.25771 10.8887 8.62412 10.6008C7.99053 10.3128 7.30077 10.1666 6.60376 10.1724H5.72518C5.18463 10.1806 4.64931 10.2787 4.14156 10.4626ZM14.1314 9.00069C14.1314 8.78686 14.0457 8.5818 13.8931 8.43061C13.7405 8.27941 13.5336 8.19447 13.3179 8.19447H10.4977C10.282 8.19447 10.0751 8.27941 9.92249 8.43061C9.76993 8.5818 9.68423 8.78686 9.68423 9.00069C9.68423 9.21451 9.76993 9.41957 9.92249 9.57077C10.0751 9.72196 10.282 9.8069 10.4977 9.8069H13.2962C13.4048 9.80977 13.5129 9.79104 13.6142 9.75181C13.7154 9.71259 13.8076 9.65366 13.8855 9.5785C13.9633 9.50335 14.0252 9.4135 14.0674 9.31426C14.1097 9.21502 14.1314 9.10839 14.1314 9.00069ZM8.70802 6.00157C8.71083 6.21452 8.79744 6.41797 8.9494 6.56857C9.10135 6.71916 9.30664 6.805 9.52152 6.80778H14.4025C14.6183 6.80778 14.8252 6.72284 14.9778 6.57165C15.1303 6.42045 15.216 6.21539 15.216 6.00157C15.216 5.78774 15.1303 5.58268 14.9778 5.43149C14.8252 5.28029 14.6183 5.19535 14.4025 5.19535H9.52152C9.30664 5.19813 9.10135 5.28397 8.9494 5.43456C8.79744 5.58516 8.71083 5.78861 8.70802 6.00157Z" fill="black"/>
</svg>
