<svg width="24" height="24" viewBox="0 0 24 24" fill="none" xmlns="http://www.w3.org/2000/svg">
<path d="M22.2251 10.2731L20.6855 8.65054C20.5795 8.54184 20.4954 8.41196 20.4384 8.26861C20.3813 8.12526 20.3523 7.97137 20.3532 7.81608V5.49811C20.3387 4.87808 20.0931 4.28854 19.6688 3.85543C19.2446 3.42231 18.6753 3.17996 18.0825 3.18015H15.8672C15.7188 3.18106 15.5718 3.15074 15.4348 3.09102C15.2978 3.03129 15.1736 2.94336 15.0697 2.83245L13.5191 1.22147C13.3121 0.993527 13.063 0.81202 12.7869 0.68799C12.5108 0.56396 12.2135 0.5 11.913 0.5C11.6125 0.5 11.3152 0.56396 11.0391 0.68799C10.763 0.81202 10.5139 0.993527 10.3069 1.22147L8.78945 2.80927C8.68556 2.92018 8.56143 3.00811 8.42444 3.06784C8.28744 3.12756 8.14037 3.15788 7.99195 3.15697H5.77668C5.18412 3.1721 4.6207 3.42908 4.20677 3.87302C3.79285 4.31696 3.56123 4.91266 3.56141 5.53288V7.85085C3.56228 8.00614 3.53331 8.16003 3.47623 8.30338C3.41914 8.44673 3.33511 8.57661 3.22912 8.68531L1.68951 10.3079C1.47166 10.5244 1.2982 10.7851 1.17966 11.074C1.06113 11.3629 1 11.674 1 11.9884C1 12.3028 1.06113 12.6139 1.17966 12.9028C1.2982 13.1917 1.47166 13.4524 1.68951 13.6689L3.22912 15.2915C3.33511 15.4002 3.41914 15.5301 3.47623 15.6734C3.53331 15.8168 3.56228 15.9707 3.56141 16.126V18.4439C3.56141 19.0741 3.80064 19.6784 4.22647 20.124C4.6523 20.5695 5.22985 20.8199 5.83206 20.8199H8.04733C8.19575 20.8189 8.34282 20.8493 8.47982 20.909C8.61682 20.9687 8.74095 21.0566 8.84483 21.1675L10.3955 22.7785C10.6025 23.0065 10.8516 23.188 11.1277 23.312C11.4038 23.436 11.7011 23.5 12.0016 23.5C12.3021 23.5 12.5994 23.436 12.8755 23.312C13.1516 23.188 13.4007 23.0065 13.6077 22.7785L15.1584 21.1675C15.2622 21.0566 15.3864 20.9687 15.5234 20.909C15.6604 20.8493 15.8074 20.8189 15.9559 20.8199H18.1711C18.7733 20.8199 19.3509 20.5695 19.7767 20.124C20.2025 19.6784 20.4418 19.0741 20.4418 18.4439V16.126C20.4409 15.9707 20.4699 15.8168 20.527 15.6734C20.584 15.5301 20.6681 15.4002 20.7741 15.2915L22.3137 13.6689C22.5312 13.4457 22.7024 13.1779 22.8165 12.8822C22.9307 12.5866 22.9853 12.2695 22.977 11.9508C22.9686 11.6321 22.8976 11.3186 22.7682 11.0299C22.6388 10.7413 22.4539 10.4836 22.2251 10.2731ZM8.62331 7.31771C8.84238 7.31771 9.05653 7.38569 9.23868 7.51304C9.42083 7.64039 9.56279 7.8214 9.64663 8.03317C9.73046 8.24495 9.7524 8.47798 9.70966 8.7028C9.66692 8.92762 9.56143 9.13413 9.40652 9.29622C9.25162 9.45831 9.05426 9.56869 8.83939 9.61341C8.62453 9.65813 8.40183 9.63518 8.19943 9.54746C7.99704 9.45974 7.82405 9.31119 7.70234 9.12059C7.58063 8.93 7.51567 8.70592 7.51567 8.4767C7.51567 8.16931 7.63237 7.87452 7.84009 7.65717C8.04781 7.43982 8.32954 7.31771 8.62331 7.31771V7.31771ZM9.21035 16.0448C9.13365 16.1261 9.04222 16.1905 8.94141 16.2343C8.8406 16.2781 8.73245 16.3004 8.62331 16.2998C8.51388 16.3024 8.40515 16.2811 8.30407 16.2372C8.20298 16.1933 8.11177 16.1278 8.03626 16.0448C7.88069 15.8819 7.79331 15.6609 7.79331 15.4306C7.79331 15.2002 7.88069 14.9793 8.03626 14.8163L14.6821 7.86244C14.8378 7.69966 15.049 7.60822 15.2691 7.60822C15.4893 7.60822 15.7004 7.69966 15.8562 7.86244C16.0117 8.02542 16.0991 8.24635 16.0991 8.4767C16.0991 8.70704 16.0117 8.92797 15.8562 9.09096L9.21035 16.0448ZM15.2691 16.5896C15.0501 16.5896 14.8359 16.5216 14.6538 16.3942C14.4716 16.2669 14.3296 16.0859 14.2458 15.8741C14.162 15.6623 14.14 15.4293 14.1828 15.2045C14.2255 14.9797 14.331 14.7732 14.4859 14.6111C14.6408 14.449 14.8382 14.3386 15.053 14.2939C15.2679 14.2492 15.4906 14.2721 15.693 14.3598C15.8954 14.4475 16.0684 14.5961 16.1901 14.7867C16.3118 14.9773 16.3768 15.2014 16.3768 15.4306C16.3768 15.738 16.2601 16.0328 16.0523 16.2501C15.8446 16.4675 15.5629 16.5896 15.2691 16.5896Z" fill="black"/>
</svg>
