<svg width="24" height="24" viewBox="0 0 24 24" fill="none" xmlns="http://www.w3.org/2000/svg">
<path d="M13.708 13.4C13.8294 13.5249 13.9241 13.6732 13.9865 13.8358C14.0489 13.9984 14.0777 14.172 14.071 14.346C14.0705 14.5897 14.0101 14.8296 13.895 15.0445C13.7799 15.2594 13.6137 15.4426 13.411 15.578C13.1487 15.7608 12.8536 15.8915 12.542 15.963V12.784L12.85 12.85C13.1751 12.9636 13.469 13.152 13.708 13.4V13.4ZM22.75 11.75C22.75 13.9256 22.1049 16.0523 20.8962 17.8613C19.6875 19.6702 17.9695 21.0801 15.9595 21.9127C13.9495 22.7452 11.7378 22.9631 9.60401 22.5386C7.47022 22.1142 5.51021 21.0665 3.97183 19.5282C2.43345 17.9898 1.3858 16.0298 0.961367 13.896C0.53693 11.7622 0.754766 9.55047 1.58733 7.54048C2.41989 5.53049 3.82979 3.81253 5.63873 2.60383C7.44767 1.39514 9.57441 0.75 11.75 0.75C13.1945 0.75 14.6249 1.03452 15.9595 1.58732C17.2941 2.14013 18.5067 2.95038 19.5282 3.97182C20.5496 4.99327 21.3599 6.2059 21.9127 7.54048C22.4655 8.87506 22.75 10.3055 22.75 11.75V11.75ZM16.414 14.093C16.446 13.5804 16.3555 13.0676 16.15 12.597C15.9435 12.193 15.6414 11.8456 15.27 11.585C14.8508 11.2927 14.3913 11.063 13.906 10.903C13.521 10.771 13.092 10.65 12.641 10.529V7.537C12.7837 7.58419 12.9175 7.65482 13.037 7.746C13.3609 8.03508 13.6229 8.38683 13.807 8.78C13.9266 9.02284 14.0783 9.24852 14.258 9.451C14.4341 9.59452 14.6584 9.66535 14.885 9.649C15.0262 9.65189 15.1663 9.62385 15.2955 9.56684C15.4248 9.50983 15.5399 9.42524 15.633 9.319C15.8282 9.1106 15.9347 8.83448 15.93 8.549C15.9269 8.21875 15.8438 7.89418 15.688 7.603C15.506 7.23986 15.247 6.92079 14.929 6.668C14.5439 6.3459 14.0991 6.10293 13.62 5.953C13.3053 5.85034 12.981 5.78031 12.652 5.744V5.15C12.6535 5.04074 12.6332 4.93227 12.5924 4.83091C12.5516 4.72954 12.491 4.63729 12.4143 4.55951C12.3375 4.48173 12.2461 4.41998 12.1453 4.37783C12.0445 4.33569 11.9363 4.31399 11.827 4.314V4.314C11.7155 4.30943 11.6042 4.32784 11.5001 4.3681C11.396 4.40835 11.3013 4.46958 11.2219 4.54798C11.1424 4.62639 11.08 4.72029 11.0384 4.82385C10.9968 4.92742 10.9769 5.03843 10.98 5.15V5.722C10.4349 5.75949 9.89782 5.8743 9.385 6.063C8.76398 6.29529 8.22733 6.70928 7.845 7.251C7.50246 7.75615 7.32914 8.35701 7.35 8.967C7.32112 9.56285 7.48295 10.1524 7.812 10.65C8.15622 11.1313 8.62353 11.5113 9.165 11.75C9.73232 11.9985 10.3215 12.1937 10.925 12.333V15.974C10.7739 15.9412 10.6265 15.8933 10.485 15.831C10.1913 15.6862 9.93803 15.4707 9.748 15.204C9.55783 14.9081 9.39579 14.5951 9.264 14.269C9.17413 14.0001 9.02358 13.7554 8.824 13.554C8.64833 13.3989 8.42027 13.3163 8.186 13.323C8.04484 13.3172 7.90407 13.3417 7.77315 13.3948C7.64224 13.4479 7.52421 13.5285 7.427 13.631C7.32674 13.7253 7.24749 13.8397 7.19442 13.9667C7.14135 14.0936 7.11565 14.2304 7.119 14.368C7.14014 14.9152 7.31555 15.4452 7.625 15.897C7.94182 16.4119 8.37511 16.8452 8.89 17.162C9.50508 17.4982 10.1828 17.7042 10.881 17.767V18.35C10.8795 18.4593 10.8998 18.5677 10.9406 18.6691C10.9814 18.7705 11.042 18.8627 11.1187 18.9405C11.1955 19.0183 11.2869 19.08 11.3877 19.1222C11.4885 19.1643 11.5967 19.186 11.706 19.186C11.8148 19.186 11.9225 19.1643 12.0227 19.122C12.1229 19.0797 12.2136 19.0178 12.2895 18.9399C12.3654 18.8619 12.4249 18.7696 12.4645 18.6683C12.5041 18.5669 12.5229 18.4587 12.52 18.35V17.767C13.113 17.7199 13.6954 17.5827 14.247 17.36C14.9 17.0813 15.458 16.6189 15.853 16.029C16.2271 15.4532 16.4223 14.7796 16.414 14.093V14.093ZM9.55 8.747C9.54951 8.96638 9.61464 9.18091 9.737 9.363C9.88535 9.53998 10.0642 9.689 10.265 9.803C10.4841 9.91688 10.7122 10.0125 10.947 10.089V10.089V7.449C10.6333 7.49433 10.3331 7.60689 10.067 7.779C9.908 7.88553 9.77767 8.02955 9.6875 8.19837C9.59734 8.36719 9.55012 8.55561 9.55 8.747V8.747Z" fill="black"/>
</svg>
