<svg width="24" height="24" viewBox="0 0 24 24" fill="none" xmlns="http://www.w3.org/2000/svg">
<path d="M16.248 1.25H7.75202C6.02757 1.25 4.37376 1.93503 3.1544 3.1544C1.93503 4.37376 1.25 6.02757 1.25 7.75202V16.248C1.25 17.9724 1.93503 19.6262 3.1544 20.8456C4.37376 22.065 6.02757 22.75 7.75202 22.75H16.248C17.9724 22.75 19.6262 22.065 20.8456 20.8456C22.065 19.6262 22.75 17.9724 22.75 16.248V7.74118C22.7471 6.01862 22.0608 4.36759 20.8418 3.15056C19.6227 1.93354 17.9705 1.25 16.248 1.25ZM7.36189 13.1704C7.09459 13.1612 6.8361 13.0724 6.61952 12.9155C6.40293 12.7586 6.23812 12.5406 6.14616 12.2894C6.0542 12.0382 6.03929 11.7654 6.10333 11.5057C6.16737 11.246 6.30745 11.0113 6.50564 10.8317C6.70383 10.6521 6.95111 10.5357 7.21582 10.4975C7.48054 10.4592 7.75065 10.5008 7.99157 10.617C8.2325 10.7332 8.43328 10.9186 8.56821 11.1495C8.70314 11.3804 8.76609 11.6464 8.74899 11.9133C8.74341 12.0893 8.70301 12.2625 8.63012 12.4228C8.55723 12.5831 8.45329 12.7274 8.32431 12.8473C8.19534 12.9672 8.04388 13.0604 7.87869 13.1214C7.7135 13.1824 7.53785 13.2101 7.36189 13.2029V13.1704ZM12.3684 13.1704C12.0986 13.172 11.8346 13.0923 11.6107 12.9418C11.3868 12.7913 11.2134 12.5768 11.113 12.3264C11.0127 12.0759 10.9901 11.8011 11.0481 11.5376C11.1062 11.2741 11.2422 11.0342 11.4385 10.8491C11.6347 10.6639 11.8822 10.5422 12.1486 10.4997C12.4151 10.4572 12.6881 10.4958 12.9323 10.6107C13.1764 10.7255 13.3804 10.9111 13.5175 11.1435C13.6547 11.3758 13.7188 11.6441 13.7014 11.9133C13.6874 12.2584 13.5412 12.5848 13.293 12.8249C13.0449 13.065 12.7138 13.2004 12.3684 13.2029V13.1704ZM17.375 13.1704C17.1052 13.172 16.8412 13.0923 16.6172 12.9418C16.3933 12.7913 16.2199 12.5768 16.1196 12.3264C16.0193 12.0759 15.9966 11.8011 16.0547 11.5376C16.1127 11.2741 16.2487 11.0342 16.445 10.8491C16.6413 10.6639 16.8888 10.5422 17.1552 10.4997C17.4216 10.4572 17.6947 10.4958 17.9388 10.6107C18.183 10.7255 18.3869 10.9111 18.5241 11.1435C18.6613 11.3758 18.7253 11.6441 18.7079 11.9133C18.6945 12.251 18.5544 12.5713 18.3154 12.8103C18.0764 13.0494 17.7561 13.1895 17.4183 13.2029L17.375 13.1704Z" fill="black"/>
</svg>
