<svg width="24" height="24" viewBox="0 0 24 24" fill="none" xmlns="http://www.w3.org/2000/svg">
<path d="M16.3 1.25H7.7C5.98935 1.25 4.34877 1.92955 3.13916 3.13916C1.92955 4.34877 1.25 5.98935 1.25 7.7V16.3C1.25 18.0106 1.92955 19.6512 3.13916 20.8608C4.34877 22.0704 5.98935 22.75 7.7 22.75H16.3C18.0106 22.75 19.6512 22.0704 20.8608 20.8608C22.0704 19.6512 22.75 18.0106 22.75 16.3V7.7C22.75 5.98935 22.0704 4.34877 20.8608 3.13916C19.6512 1.92955 18.0106 1.25 16.3 1.25ZM11.8818 17.9878C11.616 17.9878 11.3562 17.9089 11.1352 17.7613C10.9142 17.6136 10.742 17.4038 10.6403 17.1582C10.5386 16.9127 10.512 16.6425 10.5638 16.3818C10.6157 16.1212 10.7436 15.8818 10.9316 15.6938C11.1195 15.5059 11.3589 15.3779 11.6196 15.3261C11.8803 15.2742 12.1504 15.3008 12.396 15.4025C12.6415 15.5042 12.8514 15.6765 12.999 15.8975C13.1467 16.1184 13.2255 16.3782 13.2255 16.644C13.2255 17.0004 13.0839 17.3422 12.8319 17.5942C12.5799 17.8462 12.2381 17.9878 11.8818 17.9878ZM11.8818 12.9675C11.6155 12.9675 11.3553 12.8884 11.1341 12.7403C10.9129 12.5921 10.7407 12.3816 10.6393 12.1355C10.5379 11.8893 10.5119 11.6186 10.5647 11.3576C10.6174 11.0967 10.7464 10.8573 10.9354 10.6698C11.1244 10.4823 11.3649 10.3552 11.6262 10.3045C11.8876 10.2539 12.1581 10.282 12.4035 10.3854C12.6488 10.4888 12.8579 10.6627 13.0043 10.885C13.1506 11.1074 13.2276 11.3683 13.2255 11.6345C13.2255 11.8105 13.1907 11.9847 13.123 12.1471C13.0554 12.3095 12.9562 12.457 12.8313 12.5809C12.7064 12.7048 12.5581 12.8028 12.3952 12.8691C12.2322 12.9355 12.0577 12.9689 11.8818 12.9675ZM11.8818 7.958C11.6155 7.95799 11.3553 7.8789 11.1341 7.73077C10.9129 7.58264 10.7407 7.37213 10.6393 7.12597C10.5379 6.8798 10.5119 6.60907 10.5647 6.34812C10.6174 6.08717 10.7464 5.84776 10.9354 5.66027C11.1244 5.47278 11.3649 5.34565 11.6262 5.29502C11.8876 5.24439 12.1581 5.27254 12.4035 5.3759C12.6488 5.47925 12.8579 5.65316 13.0043 5.87555C13.1506 6.09793 13.2276 6.35878 13.2255 6.625C13.2227 6.97952 13.0798 7.31855 12.8281 7.56823C12.5764 7.81791 12.2363 7.95801 11.8818 7.958Z" fill="black"/>
</svg>
