<svg width="24" height="24" viewBox="0 0 24 24" fill="none" xmlns="http://www.w3.org/2000/svg">
<path fill-rule="evenodd" clip-rule="evenodd" d="M7 12C7 12.9389 6.23888 13.7 5.3 13.7C4.36111 13.7 3.6 12.9389 3.6 12C3.6 11.0612 4.36111 10.3 5.3 10.3C6.23888 10.3 7 11.0612 7 12ZM13.7002 12C13.7002 12.9389 12.9391 13.7 12.0002 13.7C11.0613 13.7 10.3002 12.9389 10.3002 12C10.3002 11.0612 11.0613 10.3 12.0002 10.3C12.9391 10.3 13.7002 11.0612 13.7002 12ZM18.6999 13.7C19.6388 13.7 20.3999 12.9389 20.3999 12C20.3999 11.0612 19.6388 10.3 18.6999 10.3C17.761 10.3 16.9999 11.0612 16.9999 12C16.9999 12.9389 17.761 13.7 18.6999 13.7Z" fill="black"/>
</svg>
