<svg width="24" height="24" viewBox="0 0 24 24" fill="none" xmlns="http://www.w3.org/2000/svg">
<path d="M4.11361 4.13649C3.76214 3.78502 3.76214 3.21517 4.11361 2.8637C4.46509 2.51223 5.03493 2.51223 5.38641 2.8637L13.8864 11.3637C14.2379 11.7152 14.2379 12.285 13.8864 12.6365L5.38641 21.1365C5.03493 21.488 4.46509 21.488 4.11361 21.1365C3.76214 20.785 3.76214 20.2152 4.11361 19.8637L11.9772 12.0001L4.11361 4.13649Z" fill="black"/>
<path d="M10.1136 4.13649C9.76214 3.78502 9.76214 3.21517 10.1136 2.8637C10.4651 2.51223 11.0349 2.51223 11.3864 2.8637L19.8864 11.3637C20.2379 11.7152 20.2379 12.285 19.8864 12.6365L11.3864 21.1365C11.0349 21.488 10.4651 21.488 10.1136 21.1365C9.76214 20.785 9.76214 20.2152 10.1136 19.8637L17.9772 12.0001L10.1136 4.13649Z" fill="black"/>
</svg>
