<svg width="24" height="24" viewBox="0 0 24 24" fill="none" xmlns="http://www.w3.org/2000/svg">
<path fill-rule="evenodd" clip-rule="evenodd" d="M17.6364 7.69637C17.9879 7.3449 17.9879 6.77505 17.6364 6.42358C17.2849 6.07211 16.7151 6.07211 16.3636 6.42358L10 12.7872L7.6364 10.4236C7.28493 10.0721 6.71508 10.0721 6.36361 10.4236C6.01214 10.775 6.01214 11.3449 6.36361 11.6964L8.72721 14.06L7.50001 15.2872L2.6364 10.4236C2.28493 10.0721 1.71508 10.0721 1.36361 10.4236C1.01214 10.775 1.01214 11.3449 1.36361 11.6964L7.50001 17.8328L10 15.3328L12.5 17.8328L22.6364 7.69637C22.9879 7.3449 22.9879 6.77505 22.6364 6.42358C22.2849 6.07211 21.7151 6.07211 21.3636 6.42358L12.5 15.2872L11.2728 14.06L17.6364 7.69637Z" fill="black"/>
</svg>
