<svg width="24" height="24" viewBox="0 0 24 24" fill="none" xmlns="http://www.w3.org/2000/svg">
<path d="M19.8864 4.13643C20.2379 3.78496 20.2379 3.21511 19.8864 2.86364C19.5349 2.51217 18.9651 2.51217 18.6136 2.86364L10.1136 11.3636C9.76214 11.7151 9.76214 12.285 10.1136 12.6364L18.6136 21.1364C18.9651 21.4879 19.5349 21.4879 19.8864 21.1364C20.2379 20.785 20.2379 20.2151 19.8864 19.8636L12.0228 12L19.8864 4.13643Z" fill="black"/>
<path d="M13.8864 4.13643C14.2379 3.78496 14.2379 3.21511 13.8864 2.86364C13.5349 2.51217 12.9651 2.51217 12.6136 2.86364L4.11361 11.3636C3.76214 11.7151 3.76214 12.285 4.11361 12.6364L12.6136 21.1364C12.9651 21.4879 13.5349 21.4879 13.8864 21.1364C14.2379 20.785 14.2379 20.2151 13.8864 19.8636L6.0228 12L13.8864 4.13643Z" fill="black"/>
</svg>
