<svg width="24" height="24" viewBox="0 0 24 24" fill="none" xmlns="http://www.w3.org/2000/svg">
<path d="M13.1022 7.04502C12.2541 5.4479 11.3151 3.90073 10.2899 2.41113C10.2287 2.31243 10.1929 2.20009 10.1857 2.08418C10.1785 1.96826 10.2002 1.85237 10.2487 1.74686C10.2972 1.64134 10.3712 1.5495 10.4639 1.47953C10.5566 1.40956 10.6651 1.36364 10.7799 1.34587C11.1964 1.2872 11.6163 1.25518 12.0369 1.25C14.3411 1.25458 16.5824 2.00169 18.4285 3.38052C18.5117 3.44029 18.5805 3.51807 18.6295 3.60806C18.6786 3.69805 18.7067 3.79795 18.7118 3.90032C18.7169 4.00268 18.6989 4.10489 18.6591 4.19933C18.6192 4.29376 18.5586 4.378 18.4817 4.44578C17.1666 5.65336 15.6716 6.64887 14.0503 7.39655C13.965 7.43589 13.8727 7.45801 13.7788 7.46163C13.685 7.46524 13.5913 7.45029 13.5032 7.41763C13.4151 7.38498 13.3344 7.33525 13.2656 7.27131C13.1967 7.20736 13.1412 7.13046 13.1022 7.04502ZM10.9717 7.60961C10.0388 5.91822 9.00355 4.28533 7.87175 2.72006C7.77523 2.58641 7.63355 2.49227 7.47295 2.45506C7.31235 2.41784 7.1437 2.44008 6.99824 2.51766C4.53635 3.82758 2.67995 6.04304 1.82107 8.69617C1.7838 8.79973 1.77176 8.91067 1.78593 9.01982C1.80011 9.12896 1.84009 9.23315 1.90258 9.32375C1.96506 9.41435 2.04824 9.48875 2.14522 9.54078C2.2422 9.59282 2.35019 9.62098 2.46023 9.62295C5.20299 9.65735 7.93758 9.31687 10.5882 8.61095C10.6856 8.57872 10.7746 8.52524 10.8489 8.45438C10.9231 8.38351 10.9806 8.29704 11.0173 8.2012C11.054 8.10537 11.069 8.00258 11.0611 7.90027C11.0532 7.79795 11.0226 7.69867 10.9717 7.60961ZM15.7653 11.3061C17.7836 10.9984 19.841 11.0597 21.8373 11.4872C21.9471 11.5102 22.0607 11.5066 22.1688 11.4767C22.2769 11.4468 22.3763 11.3915 22.4587 11.3154C22.541 11.2393 22.604 11.1446 22.6423 11.0392C22.6806 10.9338 22.6932 10.8207 22.6789 10.7095C22.4896 9.04256 21.9092 7.44388 20.9851 6.04367C20.9266 5.95992 20.8504 5.89014 20.7618 5.83934C20.6731 5.78854 20.5744 5.75797 20.4726 5.74982C20.3708 5.74168 20.2684 5.75616 20.1728 5.79223C20.0773 5.8283 19.9909 5.88506 19.9198 5.95845C18.4752 7.30346 16.829 8.41411 15.041 9.25011C14.8745 9.32664 14.7451 9.46603 14.6813 9.63775C14.6174 9.80946 14.6241 9.9995 14.7001 10.1662L15.041 10.9013C15.1016 11.0451 15.2098 11.1638 15.3475 11.2375C15.4851 11.3112 15.6439 11.3354 15.7973 11.3061H15.7653ZM12.8359 11.3061L12.6441 10.8906C12.5706 10.7419 12.4469 10.624 12.2948 10.5577C12.1428 10.4915 11.9722 10.4811 11.8132 10.5284C8.90219 11.3918 5.88004 11.8225 2.84372 11.8067H2.02347C1.92983 11.8052 1.83686 11.8228 1.75018 11.8583C1.66351 11.8937 1.58493 11.9464 1.51921 12.0131C1.45348 12.0799 1.40198 12.1592 1.3678 12.2464C1.33363 12.3336 1.31751 12.4268 1.3204 12.5205C1.34925 13.2381 1.44555 13.9514 1.60802 14.651C1.95174 15.9588 2.53705 17.1909 3.33374 18.2835C3.39915 18.3716 3.48427 18.4432 3.58231 18.4926C3.68035 18.5419 3.78858 18.5676 3.89833 18.5676C4.00808 18.5676 4.11631 18.5419 4.21435 18.4926C4.31238 18.4432 4.39751 18.3716 4.46292 18.2835C6.55496 15.5823 9.31639 13.4745 12.4737 12.1689C12.6444 12.1023 12.7818 11.9707 12.8557 11.803C12.9296 11.6352 12.9339 11.445 12.8678 11.2741L12.8359 11.3061ZM16.3512 14.2568C16.9909 16.0535 17.5139 17.8896 17.9172 19.7536C17.9421 19.8724 17.9975 19.9828 18.0778 20.0739C18.1581 20.165 18.2606 20.2338 18.3754 20.2735C18.4902 20.3132 18.6133 20.3225 18.7328 20.3004C18.8522 20.2784 18.9639 20.2258 19.057 20.1477C20.7405 18.6839 21.9279 16.7335 22.4552 14.5658C22.4909 14.3868 22.4567 14.2009 22.3596 14.0464C22.2625 13.8918 22.1099 13.7804 21.9332 13.7349C20.3078 13.3313 18.6277 13.1946 16.9584 13.3301C16.8585 13.3443 16.7628 13.3799 16.6779 13.4344C16.5929 13.4889 16.5207 13.561 16.4662 13.6459C16.4116 13.7308 16.3759 13.8265 16.3616 13.9264C16.3473 14.0263 16.3546 14.1281 16.3832 14.2249L16.3512 14.2568ZM13.3259 14.129C10.3364 15.3168 7.74902 17.335 5.86906 19.9453C5.81419 20.0188 5.77472 20.1027 5.75301 20.1918C5.7313 20.2809 5.72781 20.3735 5.74272 20.464C5.75764 20.5545 5.79067 20.6411 5.83984 20.7185C5.889 20.796 5.95329 20.8627 6.02885 20.9147C7.42098 21.8517 9.01281 22.4504 10.6774 22.6631C12.3419 22.8758 14.0332 22.6966 15.6162 22.1398C15.7718 22.0823 15.902 21.9716 15.9839 21.8273C16.0658 21.6831 16.094 21.5145 16.0636 21.3515C15.6294 19.0285 14.9949 16.7474 14.1674 14.5338C14.101 14.375 13.9787 14.2461 13.8236 14.1715C13.6685 14.0969 13.4914 14.0818 13.3259 14.129Z" fill="black"/>
</svg>
