<svg width="24" height="24" viewBox="0 0 24 24" fill="none" xmlns="http://www.w3.org/2000/svg">
<path d="M16.5063 19.2526C16.7063 19.4567 16.8417 19.7159 16.8954 19.9974C16.9491 20.279 16.9188 20.5703 16.8082 20.8344C16.6976 21.0986 16.5117 21.3239 16.2741 21.4817C16.0364 21.6396 15.7576 21.723 15.4729 21.7213H8.53578C8.24989 21.7289 7.96814 21.6513 7.72592 21.4982C7.4837 21.3451 7.29181 21.1233 7.17436 20.8607C7.0569 20.5981 7.01911 20.3065 7.06573 20.0223C7.11235 19.7382 7.2413 19.4743 7.4364 19.2637L8.53578 18.1013L10.6026 15.8872C10.7771 15.703 10.987 15.5563 11.2194 15.4561C11.4518 15.356 11.702 15.3043 11.9549 15.3043C12.2077 15.3043 12.4579 15.356 12.6903 15.4561C12.9228 15.5563 13.1326 15.703 13.3071 15.8872L15.3849 18.1013L16.5063 19.2526ZM16.5063 4.7502C16.7017 4.54349 16.8327 4.28371 16.8831 4.0029C16.9336 3.7221 16.9013 3.43257 16.7902 3.17004C16.6791 2.90751 16.4942 2.68346 16.2581 2.52556C16.0221 2.36766 15.7453 2.2828 15.4619 2.28147H8.52479C8.23668 2.2684 7.95132 2.34273 7.70565 2.49484C7.45997 2.64695 7.26531 2.86983 7.14686 3.13462C7.02842 3.3994 6.99164 3.6939 7.0413 3.97997C7.09097 4.26604 7.22478 4.53051 7.4254 4.73913L8.52479 5.84618L10.5806 8.06029C10.7552 8.2445 10.965 8.39113 11.1974 8.49132C11.4298 8.5915 11.68 8.64316 11.9329 8.64316C12.1857 8.64316 12.4359 8.5915 12.6683 8.49132C12.9008 8.39113 13.1106 8.2445 13.2851 8.06029L15.363 5.84618L16.5063 4.7502ZM1.18091 12.6324L3.65452 16.5625C3.75466 16.7199 3.88856 16.8527 4.04638 16.9511C4.2042 17.0496 4.38193 17.1111 4.56649 17.1313C4.75105 17.1515 4.93775 17.1298 5.11287 17.0677C5.28799 17.0057 5.44708 16.9049 5.57844 16.7728L9.47026 12.7653C9.68979 12.5433 9.81304 12.2427 9.81304 11.9295C9.81304 11.6162 9.68979 11.3156 9.47026 11.0936L5.53446 7.21893C5.40439 7.0876 5.24647 6.98762 5.07256 6.92649C4.89865 6.86536 4.71325 6.84467 4.53027 6.86598C4.34728 6.88728 4.17146 6.95002 4.01599 7.04949C3.86051 7.14896 3.72942 7.28259 3.63253 7.44034L1.18091 11.3261C1.06256 11.5231 1 11.749 1 11.9793C1 12.2095 1.06256 12.4354 1.18091 12.6324ZM22.8058 11.304L20.3651 7.4182C20.2669 7.26212 20.1352 7.13013 19.9797 7.0319C19.8243 6.93367 19.649 6.87167 19.4667 6.85045C19.2843 6.82922 19.0996 6.84931 18.926 6.90923C18.7524 6.96916 18.5943 7.06741 18.4632 7.19679L14.5384 11.0715C14.4284 11.1807 14.341 11.3108 14.2814 11.4543C14.2218 11.5978 14.191 11.7518 14.191 11.9073C14.191 12.0629 14.2218 12.2169 14.2814 12.3603C14.341 12.5038 14.4284 12.634 14.5384 12.7431L18.4192 16.7507C18.5506 16.8828 18.7097 16.9836 18.8848 17.0456C19.0599 17.1076 19.2466 17.1294 19.4312 17.1092C19.6158 17.089 19.7935 17.0274 19.9513 16.929C20.1091 16.8306 20.243 16.6977 20.3432 16.5403L22.8168 12.6103C22.9384 12.414 23.0019 12.1869 23 11.9555C22.998 11.7242 22.9307 11.4982 22.8058 11.304Z" fill="black"/>
</svg>
