<svg width="24" height="24" viewBox="0 0 24 24" fill="none" xmlns="http://www.w3.org/2000/svg">
<path d="M16.0154 19.875H4.96997C4.37323 19.875 3.80094 19.6379 3.37898 19.216C2.95702 18.794 2.71997 18.2217 2.71997 17.625V6.375C2.71997 5.77827 2.95702 5.20597 3.37898 4.78401C3.80094 4.36206 4.37323 4.125 4.96997 4.125H16.0154C16.6122 4.125 17.1845 4.36206 17.6064 4.78401C18.0284 5.20597 18.2654 5.77827 18.2654 6.375V17.625C18.2654 18.2217 18.0284 18.794 17.6064 19.216C17.1845 19.6379 16.6122 19.875 16.0154 19.875ZM15.6442 1.875C15.5815 1.55734 15.4103 1.27137 15.1599 1.06612C14.9095 0.860862 14.5955 0.749105 14.2717 0.750005H6.71372C6.38994 0.749105 6.07592 0.860862 5.82551 1.06612C5.5751 1.27137 5.40389 1.55734 5.34122 1.875L5.16122 3H15.8242L15.6442 1.875ZM5.34122 22.125C5.40389 22.4427 5.5751 22.7286 5.82551 22.9339C6.07592 23.1391 6.38994 23.2509 6.71372 23.25H14.2717C14.5955 23.2509 14.9095 23.1391 15.1599 22.9339C15.4103 22.7286 15.5815 22.4427 15.6442 22.125L15.8242 21H5.16122L5.34122 22.125ZM19.7617 10.875H19.4242V6.375H19.7504C20.0059 6.36692 20.2565 6.44608 20.461 6.59944C20.6655 6.7528 20.8116 6.97123 20.8754 7.21875C21.1451 8.13302 21.1451 9.10573 20.8754 10.02C20.8131 10.2735 20.6645 10.4975 20.4551 10.6535C20.2458 10.8095 19.9887 10.8878 19.7279 10.875H19.7617Z" fill="black"/>
</svg>
