<svg width="24" height="24" viewBox="0 0 24 24" fill="none" xmlns="http://www.w3.org/2000/svg">
<path d="M20.1579 22H3.84211C3.35355 22 2.885 21.8059 2.53954 21.4605C2.19408 21.115 2 20.6465 2 20.1579V11.2105C2 10.722 2.19408 10.2534 2.53954 9.90796C2.885 9.5625 3.35355 9.36842 3.84211 9.36842H20.1579C20.6465 9.36842 21.115 9.5625 21.4605 9.90796C21.8059 10.2534 22 10.722 22 11.2105V20.1579C22 20.6465 21.8059 21.115 21.4605 21.4605C21.115 21.8059 20.6465 22 20.1579 22ZM22 5.42105V3.84211C22 3.35355 21.8059 2.885 21.4605 2.53954C21.115 2.19408 20.6465 2 20.1579 2H3.84211C3.35355 2 2.885 2.19408 2.53954 2.53954C2.19408 2.885 2 3.35355 2 3.84211V5.42105C2 5.90961 2.19408 6.37816 2.53954 6.72362C2.885 7.06908 3.35355 7.26316 3.84211 7.26316H20.1579C20.6465 7.26316 21.115 7.06908 21.4605 6.72362C21.8059 6.37816 22 5.90961 22 5.42105Z" fill="black"/>
</svg>
