<svg width="24" height="24" viewBox="0 0 24 24" fill="none" xmlns="http://www.w3.org/2000/svg">
<path d="M9.22 10.5H4.22C3.75929 10.487 3.32182 10.2948 3.00062 9.96423C2.67942 9.63369 2.49982 9.1909 2.5 8.73V3.73C2.51045 3.26753 2.70154 2.82754 3.03235 2.5042C3.36317 2.18086 3.80742 1.99988 4.27 2H9.27C9.73247 2.01045 10.1725 2.20154 10.4958 2.53235C10.8191 2.86317 11.0001 3.30742 11 3.77V8.77C10.9895 9.2342 10.797 9.6757 10.4641 9.99931C10.1311 10.3229 9.68431 10.5027 9.22 10.5ZM22.5 8.73V3.73C22.487 3.26836 22.2952 2.82983 21.9649 2.50702C21.6346 2.18422 21.1918 2.00241 20.73 2H15.73C15.2684 2.01297 14.8298 2.20485 14.507 2.53511C14.1842 2.86538 14.0024 3.30818 14 3.77V8.77C14.0026 9.23862 14.1899 9.68731 14.5213 10.0187C14.8527 10.35 15.3014 10.5374 15.77 10.54H20.77C21.2386 10.5269 21.6831 10.3295 22.007 9.99059C22.3309 9.6517 22.5081 9.19872 22.5 8.73ZM11 20.23V15.23C10.9895 14.7658 10.797 14.3243 10.4641 14.0007C10.1311 13.6771 9.68431 13.4973 9.22 13.5H4.22C3.75929 13.513 3.32182 13.7052 3.00062 14.0358C2.67942 14.3663 2.49982 14.8091 2.5 15.27V20.27C2.51045 20.7325 2.70154 21.1725 3.03235 21.4958C3.36317 21.8191 3.80742 22.0001 4.27 22H9.27C9.73247 21.9895 10.1725 21.7985 10.4958 21.4676C10.8191 21.1368 11.0001 20.6926 11 20.23ZM14.77 17.75L21.37 17H19V14.64C19 14.4411 18.921 14.2503 18.7803 14.1097C18.6397 13.969 18.4489 13.89 18.25 13.89C18.0511 13.89 17.8603 13.969 17.7197 14.1097C17.579 14.2503 17.5 14.4411 17.5 14.64V17H15.14C14.9411 17 14.7503 17.079 14.6097 17.2197C14.469 17.3603 14.39 17.5511 14.39 17.75C14.39 17.9489 14.469 18.1397 14.6097 18.2803C14.7503 18.421 14.9411 18.5 15.14 18.5H17.5V20.86C17.5 21.0589 17.579 21.2497 17.7197 21.3903C17.8603 21.531 18.0511 21.61 18.25 21.61C18.4489 21.61 18.6397 21.531 18.7803 21.3903C18.921 21.2497 19 21.0589 19 20.86V18.5H21.36C21.5589 18.5 21.7497 18.421 21.8903 18.2803C22.031 18.1397 22.11 17.9489 22.11 17.75C22.11 17.5511 22.031 17.3603 21.8903 17.2197C21.7497 17.079 21.5589 17 21.36 17L14.77 17.75Z" fill="black"/>
</svg>
