<svg width="24" height="24" viewBox="0 0 24 24" fill="none" xmlns="http://www.w3.org/2000/svg">
<path d="M5.9625 21.45H3.3375C2.85016 21.45 2.38279 21.2564 2.03819 20.9118C1.69359 20.5672 1.5 20.0998 1.5 19.6125V4.38749C1.5 3.90015 1.69359 3.43278 2.03819 3.08818C2.38279 2.74358 2.85016 2.54999 3.3375 2.54999H5.9625C6.44984 2.54999 6.91721 2.74358 7.26181 3.08818C7.60641 3.43278 7.8 3.90015 7.8 4.38749V19.6125C7.8 20.0998 7.60641 20.5672 7.26181 20.9118C6.91721 21.2564 6.44984 21.45 5.9625 21.45ZM22.5 9.11249V4.38749C22.5 3.90015 22.3064 3.43278 21.9618 3.08818C21.6172 2.74358 21.1498 2.54999 20.6625 2.54999H11.7375C11.2502 2.54999 10.7828 2.74358 10.4382 3.08818C10.0936 3.43278 9.9 3.90015 9.9 4.38749V9.11249C9.9 9.59982 10.0936 10.0672 10.4382 10.4118C10.7828 10.7564 11.2502 10.95 11.7375 10.95H20.6625C21.1498 10.95 21.6172 10.7564 21.9618 10.4118C22.3064 10.0672 22.5 9.59982 22.5 9.11249ZM20.6625 21.45H11.7375C11.2502 21.45 10.7828 21.2564 10.4382 20.9118C10.0936 20.5672 9.9 20.0998 9.9 19.6125V14.8875C9.9 14.4002 10.0936 13.9328 10.4382 13.5882C10.7828 13.2436 11.2502 13.05 11.7375 13.05H20.6625C21.1498 13.05 21.6172 13.2436 21.9618 13.5882C22.3064 13.9328 22.5 14.4002 22.5 14.8875V19.6125C22.5 20.0998 22.3064 20.5672 21.9618 20.9118C21.6172 21.2564 21.1498 21.45 20.6625 21.45Z" fill="black"/>
</svg>
