<svg width="24" height="24" viewBox="0 0 24 24" fill="none" xmlns="http://www.w3.org/2000/svg">
<path d="M14.7632 11.1711V20.5658C14.7632 21.0788 14.5594 21.5707 14.1966 21.9335C13.8339 22.2962 13.3419 22.5 12.8289 22.5H11.1711C10.6581 22.5 10.1661 22.2962 9.80336 21.9335C9.44062 21.5707 9.23684 21.0788 9.23684 20.5658V11.1711C9.23684 10.6581 9.44062 10.1661 9.80336 9.80336C10.1661 9.44062 10.6581 9.23684 11.1711 9.23684H12.8289C13.3419 9.23684 13.8339 9.44062 14.1966 9.80336C14.5594 10.1661 14.7632 10.6581 14.7632 11.1711ZM20.5658 9.23684H18.9079C18.3949 9.23684 17.9029 9.44062 17.5402 9.80336C17.1775 10.1661 16.9737 10.6581 16.9737 11.1711V20.5658C16.9737 21.0788 17.1775 21.5707 17.5402 21.9335C17.9029 22.2962 18.3949 22.5 18.9079 22.5H20.5658C21.0788 22.5 21.5707 22.2962 21.9335 21.9335C22.2962 21.5707 22.5 21.0788 22.5 20.5658V11.1711C22.5 10.6581 22.2962 10.1661 21.9335 9.80336C21.5707 9.44062 21.0788 9.23684 20.5658 9.23684ZM7.02632 11.1711V20.5658C7.02632 21.0788 6.82253 21.5707 6.4598 21.9335C6.09706 22.2962 5.60509 22.5 5.09211 22.5H3.43421C2.92123 22.5 2.42925 22.2962 2.06652 21.9335C1.70378 21.5707 1.5 21.0788 1.5 20.5658V11.1711C1.5 10.6581 1.70378 10.1661 2.06652 9.80336C2.42925 9.44062 2.92123 9.23684 3.43421 9.23684H5.09211C5.60509 9.23684 6.09706 9.44062 6.4598 9.80336C6.82253 10.1661 7.02632 10.6581 7.02632 11.1711ZM22.5 5.09211V3.43421C22.5 2.92123 22.2962 2.42925 21.9335 2.06652C21.5707 1.70378 21.0788 1.5 20.5658 1.5H3.43421C2.92123 1.5 2.42925 1.70378 2.06652 2.06652C1.70378 2.42925 1.5 2.92123 1.5 3.43421V5.09211C1.5 5.60509 1.70378 6.09706 2.06652 6.4598C2.42925 6.82253 2.92123 7.02632 3.43421 7.02632H20.5658C21.0788 7.02632 21.5707 6.82253 21.9335 6.4598C22.2962 6.09706 22.5 5.60509 22.5 5.09211Z" fill="black"/>
</svg>
