<svg width="24" height="24" viewBox="0 0 24 24" fill="none" xmlns="http://www.w3.org/2000/svg">
<path d="M9.0875 22.5H3.8375C3.35016 22.5 2.88279 22.3064 2.53819 21.9618C2.19359 21.6172 2 21.1498 2 20.6625V3.3375C2 2.85016 2.19359 2.38279 2.53819 2.03819C2.88279 1.69359 3.35016 1.5 3.8375 1.5H9.0875C9.57484 1.5 10.0422 1.69359 10.3868 2.03819C10.7314 2.38279 10.925 2.85016 10.925 3.3375V20.6625C10.925 21.1498 10.7314 21.6172 10.3868 21.9618C10.0422 22.3064 9.57484 22.5 9.0875 22.5ZM21.95 9.1125V3.3375C21.95 2.85016 21.7564 2.38279 21.4118 2.03819C21.0672 1.69359 20.5998 1.5 20.1125 1.5H14.8625C14.3752 1.5 13.9078 1.69359 13.5632 2.03819C13.2186 2.38279 13.025 2.85016 13.025 3.3375V9.1125C13.025 9.59984 13.2186 10.0672 13.5632 10.4118C13.9078 10.7564 14.3752 10.95 14.8625 10.95H20.1125C20.5998 10.95 21.0672 10.7564 21.4118 10.4118C21.7564 10.0672 21.95 9.59984 21.95 9.1125ZM21.95 20.6625V14.8875C21.95 14.4002 21.7564 13.9328 21.4118 13.5882C21.0672 13.2436 20.5998 13.05 20.1125 13.05H14.8625C14.3752 13.05 13.9078 13.2436 13.5632 13.5882C13.2186 13.9328 13.025 14.4002 13.025 14.8875V20.6625C13.025 21.1498 13.2186 21.6172 13.5632 21.9618C13.9078 22.3064 14.3752 22.5 14.8625 22.5H20.1125C20.5998 22.5 21.0672 22.3064 21.4118 21.9618C21.7564 21.6172 21.95 21.1498 21.95 20.6625Z" fill="black"/>
</svg>
