<svg width="24" height="24" viewBox="0 0 24 24" fill="none" xmlns="http://www.w3.org/2000/svg">
<path d="M20.5658 7.02632H3.43421C2.92123 7.02632 2.42925 6.82253 2.06652 6.4598C1.70378 6.09706 1.5 5.60509 1.5 5.09211V3.43421C1.5 2.92123 1.70378 2.42925 2.06652 2.06652C2.42925 1.70378 2.92123 1.5 3.43421 1.5H20.5658C21.0788 1.5 21.5707 1.70378 21.9335 2.06652C22.2962 2.42925 22.5 2.92123 22.5 3.43421V5.09211C22.5 5.60509 22.2962 6.09706 21.9335 6.4598C21.5707 6.82253 21.0788 7.02632 20.5658 7.02632ZM6.19737 9.23684H3.43421C2.92123 9.23684 2.42925 9.44062 2.06652 9.80336C1.70378 10.1661 1.5 10.6581 1.5 11.1711V20.5658C1.5 21.0788 1.70378 21.5707 2.06652 21.9335C2.42925 22.2962 2.92123 22.5 3.43421 22.5H6.19737C6.71035 22.5 7.20233 22.2962 7.56506 21.9335C7.9278 21.5707 8.13158 21.0788 8.13158 20.5658V11.1711C8.13158 10.6581 7.9278 10.1661 7.56506 9.80336C7.20233 9.44062 6.71035 9.23684 6.19737 9.23684ZM22.5 20.5658V11.1711C22.5 10.6581 22.2962 10.1661 21.9335 9.80336C21.5707 9.44062 21.0788 9.23684 20.5658 9.23684H12.2763C11.7633 9.23684 11.2714 9.44062 10.9086 9.80336C10.5459 10.1661 10.3421 10.6581 10.3421 11.1711V20.5658C10.3421 21.0788 10.5459 21.5707 10.9086 21.9335C11.2714 22.2962 11.7633 22.5 12.2763 22.5H20.5658C21.0788 22.5 21.5707 22.2962 21.9335 21.9335C22.2962 21.5707 22.5 21.0788 22.5 20.5658Z" fill="black"/>
</svg>
