<svg width="24" height="24" viewBox="0 0 24 24" fill="none" xmlns="http://www.w3.org/2000/svg">
<path d="M9.9 19.6125V4.38749C9.9 3.90015 10.0936 3.43278 10.4382 3.08818C10.7828 2.74358 11.2502 2.54999 11.7375 2.54999H20.6625C21.1498 2.54999 21.6172 2.74358 21.9618 3.08818C22.3064 3.43278 22.5 3.90015 22.5 4.38749V19.6125C22.5 20.0998 22.3064 20.5672 21.9618 20.9118C21.6172 21.2564 21.1498 21.45 20.6625 21.45H11.7375C11.2502 21.45 10.7828 21.2564 10.4382 20.9118C10.0936 20.5672 9.9 20.0998 9.9 19.6125ZM7.8 19.6125V4.38749C7.8 3.90015 7.60641 3.43278 7.26181 3.08818C6.91721 2.74358 6.44984 2.54999 5.9625 2.54999H3.3375C2.85016 2.54999 2.38279 2.74358 2.03819 3.08818C1.69359 3.43278 1.5 3.90015 1.5 4.38749V19.6125C1.5 20.0998 1.69359 20.5672 2.03819 20.9118C2.38279 21.2564 2.85016 21.45 3.3375 21.45H5.9625C6.44984 21.45 6.91721 21.2564 7.26181 20.9118C7.60641 20.5672 7.8 20.0998 7.8 19.6125Z" fill="black"/>
</svg>
