<svg width="24" height="24" viewBox="0 0 24 24" fill="none" xmlns="http://www.w3.org/2000/svg">
<path d="M16.6935 1.5H7.3065C5.76652 1.5 4.28961 2.11175 3.20068 3.20068C2.11175 4.28961 1.5 5.76652 1.5 7.3065V16.6935C1.5 18.2335 2.11175 19.7104 3.20068 20.7993C4.28961 21.8882 5.76652 22.5 7.3065 22.5H16.6935C18.2335 22.5 19.7104 21.8882 20.7993 20.7993C21.8882 19.7104 22.5 18.2335 22.5 16.6935V7.3065C22.5 5.76652 21.8882 4.28961 20.7993 3.20068C19.7104 2.11175 18.2335 1.5 16.6935 1.5ZM8.2935 6.0885C8.6856 6.08016 9.0713 6.1888 9.4014 6.40057C9.7315 6.61234 9.99104 6.91764 10.1469 7.27753C10.3028 7.63741 10.3479 8.03557 10.2766 8.42122C10.2052 8.80686 10.0206 9.16251 9.74626 9.44279C9.47193 9.72308 9.12034 9.9153 8.73632 9.99493C8.3523 10.0746 7.95326 10.038 7.59011 9.88991C7.22695 9.74182 6.91614 9.4889 6.69732 9.16343C6.4785 8.83796 6.36159 8.45469 6.3615 8.0625C6.36149 7.54078 6.56803 7.04027 6.93595 6.67037C7.30388 6.30047 7.80328 6.09127 8.325 6.0885H8.2935ZM12 19.434C10.6429 19.4312 9.34224 18.8901 8.38357 17.9295C7.4249 16.9689 6.8865 15.6672 6.8865 14.31C6.8865 13.9535 7.0281 13.6117 7.28015 13.3596C7.5322 13.1076 7.87405 12.966 8.2305 12.966H15.801C16.1574 12.966 16.4993 13.1076 16.7514 13.3596C17.0034 13.6117 17.145 13.9535 17.145 14.31C17.145 14.9847 17.0118 15.6527 16.753 16.2757C16.4941 16.8988 16.1148 17.4646 15.6368 17.9407C15.1588 18.4167 14.5914 18.7937 13.9673 19.05C13.3432 19.3063 12.6747 19.4368 12 19.434ZM15.6015 10.0365C15.2111 10.0365 14.8294 9.92073 14.5048 9.70382C14.1802 9.48691 13.9272 9.17862 13.7778 8.81792C13.6284 8.45722 13.5893 8.06031 13.6654 7.67739C13.7416 7.29447 13.9296 6.94274 14.2057 6.66667C14.4817 6.3906 14.8335 6.2026 15.2164 6.12643C15.5993 6.05026 15.9962 6.08935 16.3569 6.23876C16.7176 6.38817 17.0259 6.64118 17.2428 6.9658C17.4597 7.29043 17.5755 7.67208 17.5755 8.0625C17.5755 8.58422 17.369 9.08473 17.001 9.45463C16.6331 9.82453 16.1337 10.0337 15.612 10.0365H15.6015Z" fill="black"/>
</svg>
