<svg width="24" height="24" viewBox="0 0 24 24" fill="none" xmlns="http://www.w3.org/2000/svg">
<path d="M11.75 0.75C9.57441 0.75 7.44767 1.39514 5.63873 2.60383C3.82979 3.81253 2.41989 5.53049 1.58733 7.54048C0.754766 9.55047 0.53693 11.7622 0.961367 13.896C1.3858 16.0298 2.43345 17.9898 3.97183 19.5282C5.51021 21.0665 7.47022 22.1142 9.60401 22.5386C11.7378 22.9631 13.9495 22.7452 15.9595 21.9127C17.9695 21.0801 19.6875 19.6702 20.8962 17.8613C22.1049 16.0523 22.75 13.9256 22.75 11.75C22.75 10.3055 22.4655 8.87506 21.9127 7.54048C21.3599 6.2059 20.5496 4.99327 19.5282 3.97182C18.5067 2.95038 17.2941 2.14013 15.9595 1.58732C14.6249 1.03452 13.1945 0.75 11.75 0.75ZM16.018 10.98C16.2368 10.98 16.4466 11.0669 16.6014 11.2216C16.7561 11.3764 16.843 11.5862 16.843 11.805C16.843 12.0238 16.7561 12.2336 16.6014 12.3884C16.4466 12.5431 16.2368 12.63 16.018 12.63H8.318V12.795C8.318 13.4981 8.5973 14.1724 9.09446 14.6695C9.59162 15.1667 10.2659 15.446 10.969 15.446H16.007C16.2258 15.446 16.4356 15.5329 16.5904 15.6876C16.7451 15.8424 16.832 16.0522 16.832 16.271C16.832 16.4898 16.7451 16.6996 16.5904 16.8544C16.4356 17.0091 16.2258 17.096 16.007 17.096H10.969C9.82831 17.096 8.73433 16.6429 7.92774 15.8363C7.12114 15.0297 6.668 13.9357 6.668 12.795V10.749C6.668 9.6083 7.12114 8.51433 7.92774 7.70773C8.73433 6.90114 9.82831 6.448 10.969 6.448H16.007C16.2258 6.448 16.4356 6.53492 16.5904 6.68964C16.7451 6.84435 16.832 7.05419 16.832 7.273C16.832 7.4918 16.7451 7.70164 16.5904 7.85636C16.4356 8.01108 16.2258 8.098 16.007 8.098H10.969C10.2659 8.098 9.59162 8.3773 9.09446 8.87446C8.5973 9.37162 8.318 10.0459 8.318 10.749V10.936L16.018 10.98Z" fill="black"/>
</svg>
