<svg width="24" height="24" viewBox="0 0 24 24" fill="none" xmlns="http://www.w3.org/2000/svg">
<path d="M22.7997 7.9111V16.9073C22.7997 18.053 22.3446 19.1518 21.5345 19.962C20.7243 20.7721 19.6255 21.2272 18.4798 21.2272H15.8555V21.8968C15.8555 22.1116 15.7701 22.3177 15.6182 22.4696C15.4663 22.6215 15.2603 22.7068 15.0455 22.7068C14.8307 22.7068 14.6246 22.6215 14.4727 22.4696C14.3208 22.3177 14.2355 22.1116 14.2355 21.8968V21.2272V3.54798V2.09001C14.2355 1.87519 14.3208 1.66917 14.4727 1.51727C14.6246 1.36537 14.8307 1.28003 15.0455 1.28003C15.2603 1.28003 15.4663 1.36537 15.6182 1.51727C15.7701 1.66917 15.8555 1.87519 15.8555 2.09001V3.54798H18.4798C19.0508 3.54796 19.6161 3.66111 20.143 3.8809C20.67 4.10069 21.1481 4.42276 21.5498 4.82849C21.9515 5.23422 22.2688 5.71556 22.4834 6.24467C22.6979 6.77378 22.8054 7.34017 22.7997 7.9111ZM5.52008 3.59118H12.5291V21.2704H5.52008C4.37437 21.2704 3.27558 20.8153 2.46544 20.0052C1.6553 19.195 1.20017 18.0962 1.20017 16.9505V7.9111C1.19446 7.34017 1.30198 6.77378 1.51652 6.24467C1.73106 5.71556 2.04835 5.23422 2.45007 4.82849C2.85178 4.42276 3.32993 4.10069 3.85688 3.8809C4.38383 3.66111 4.94913 3.54796 5.52008 3.54798V3.59118ZM5.95207 16.3349C5.95207 16.5497 6.03741 16.7558 6.18931 16.9077C6.34121 17.0596 6.54723 17.1449 6.76206 17.1449C6.97688 17.1449 7.1829 17.0596 7.3348 16.9077C7.4867 16.7558 7.57204 16.5497 7.57204 16.3349V7.6951C7.57204 7.48028 7.4867 7.27426 7.3348 7.12236C7.1829 6.97045 6.97688 6.88512 6.76206 6.88512C6.54723 6.88512 6.34121 6.97045 6.18931 7.12236C6.03741 7.27426 5.95207 7.48028 5.95207 7.6951V16.3349Z" fill="black"/>
</svg>
