<svg width="24" height="24" viewBox="0 0 24 24" fill="none" xmlns="http://www.w3.org/2000/svg">
<path d="M21.6763 20.5963H11.1972L15.8999 15.8935L22.0951 9.69843C22.514 9.27785 22.7492 8.7084 22.7492 8.11476C22.7492 7.52111 22.514 6.95166 22.0951 6.53108L17.489 1.925C17.2809 1.71581 17.0332 1.55016 16.7603 1.43771C16.4875 1.32526 16.195 1.26827 15.8999 1.27006C15.6065 1.2685 15.3157 1.32564 15.0446 1.43811C14.7736 1.55059 14.5278 1.71613 14.3216 1.925L8.12651 8.12012L1.93139 14.3152C1.7158 14.5244 1.5444 14.7747 1.42736 15.0514C1.31031 15.328 1.25 15.6254 1.25 15.9258C1.25 16.2261 1.31031 16.5235 1.42736 16.8001C1.5444 17.0768 1.7158 17.3271 1.93139 17.5363L6.53747 22.0887C6.74559 22.2979 6.99329 22.4635 7.26612 22.576C7.53894 22.6884 7.83143 22.7454 8.12651 22.7436H21.6763C21.9611 22.7436 22.2342 22.6305 22.4355 22.4291C22.6369 22.2278 22.75 21.9547 22.75 21.6699C22.75 21.3852 22.6369 21.1121 22.4355 20.9107C22.2342 20.7094 21.9611 20.5963 21.6763 20.5963ZM15.4597 3.0631C15.5172 3.00479 15.5857 2.95858 15.6613 2.92723C15.7369 2.89588 15.8181 2.88002 15.8999 2.88058C15.9834 2.87978 16.0662 2.8955 16.1436 2.92683C16.221 2.95815 16.2915 3.00446 16.3509 3.0631L20.957 7.71213C21.0156 7.77156 21.0619 7.84199 21.0932 7.91938C21.1246 7.99677 21.1403 8.07959 21.1395 8.16307C21.14 8.24492 21.1242 8.32606 21.0928 8.40167C21.0615 8.47728 21.0153 8.54584 20.957 8.60328L15.8999 13.6174L10.4027 8.12012L15.4597 3.0631Z" fill="black"/>
</svg>
