<svg width="24" height="24" viewBox="0 0 24 24" fill="none" xmlns="http://www.w3.org/2000/svg">
<path d="M11.75 0.75C9.57441 0.75 7.44767 1.39514 5.63873 2.60383C3.82979 3.81253 2.41989 5.53049 1.58733 7.54048C0.754766 9.55047 0.53693 11.7622 0.961367 13.896C1.3858 16.0298 2.43345 17.9898 3.97183 19.5282C5.51021 21.0665 7.47022 22.1142 9.60401 22.5386C11.7378 22.9631 13.9495 22.7452 15.9595 21.9127C17.9695 21.0801 19.6875 19.6702 20.8962 17.8613C22.1049 16.0523 22.75 13.9256 22.75 11.75C22.75 10.3055 22.4655 8.87506 21.9127 7.54048C21.3599 6.2059 20.5496 4.99327 19.5282 3.97182C18.5067 2.95038 17.2941 2.14013 15.9595 1.58732C14.6249 1.03452 13.1945 0.75 11.75 0.75ZM16.26 16.403C15.8345 16.8454 15.3212 17.1938 14.753 17.426C14.0529 17.7005 13.3047 17.8314 12.553 17.811C11.9871 17.8182 11.4222 17.7592 10.87 17.635C10.3807 17.5298 9.91228 17.344 9.484 17.085C9.09495 16.8262 8.74648 16.5111 8.45 16.15C8.13582 15.7738 7.86977 15.36 7.658 14.918C7.53004 14.6355 7.41983 14.3452 7.328 14.049H5.766C5.55659 14.0252 5.36328 13.9251 5.22292 13.7679C5.08257 13.6106 5.005 13.4073 5.005 13.1965C5.005 12.9857 5.08257 12.7823 5.22292 12.6251C5.36328 12.4679 5.55659 12.3678 5.766 12.344H6.976C6.976 12.168 6.976 11.992 6.976 11.805C6.976 11.618 6.976 11.431 6.976 11.244H5.766C5.55659 11.2202 5.36328 11.1201 5.22292 10.9629C5.08257 10.8056 5.005 10.6023 5.005 10.3915C5.005 10.1807 5.08257 9.97735 5.22292 9.82012C5.36328 9.66289 5.55659 9.56282 5.766 9.539H7.35C7.35685 9.43645 7.35685 9.33355 7.35 9.231C7.61206 8.52622 8.02073 7.88509 8.549 7.35C9.05063 6.81997 9.66278 6.40686 10.342 6.14C11.0403 5.85595 11.7882 5.71385 12.542 5.722C13.4077 5.70091 14.2663 5.88168 15.05 6.25C15.655 6.569 16.403 7.064 16.458 7.823C16.4668 8.00296 16.4314 8.18235 16.3546 8.34538C16.2779 8.50841 16.1623 8.6501 16.018 8.758C15.9413 8.82925 15.8517 8.88525 15.754 8.923C15.6411 8.95714 15.5223 8.96792 15.4051 8.95468C15.2878 8.94144 15.1745 8.90446 15.072 8.846C14.676 8.637 14.434 8.252 14.071 8.01C13.6169 7.70469 13.0779 7.55069 12.531 7.57C12.0827 7.55349 11.6369 7.64477 11.2311 7.83617C10.8253 8.02757 10.4714 8.31351 10.199 8.67C10.0124 8.9196 9.86068 9.19345 9.748 9.484H14.082C14.2021 9.47033 14.3237 9.4822 14.4389 9.5188C14.5541 9.55541 14.6602 9.61594 14.7504 9.69643C14.8405 9.77691 14.9127 9.87554 14.9621 9.98584C15.0115 10.0961 15.037 10.2156 15.037 10.3365C15.037 10.4574 15.0115 10.5769 14.9621 10.6872C14.9127 10.7975 14.8405 10.8961 14.7504 10.9766C14.6602 11.0571 14.5541 11.1176 14.4389 11.1542C14.3237 11.1908 14.2021 11.2027 14.082 11.189H9.396C9.396 11.398 9.396 11.607 9.396 11.838C9.396 12.069 9.396 12.135 9.396 12.289H13.235C13.4444 12.3128 13.6377 12.4129 13.7781 12.5701C13.9184 12.7273 13.996 12.9307 13.996 13.1415C13.996 13.3523 13.9184 13.5556 13.7781 13.7129C13.6377 13.8701 13.4444 13.9702 13.235 13.994H9.715C9.71136 14.0342 9.71136 14.0747 9.715 14.115C9.92994 14.6706 10.3149 15.1442 10.815 15.468C11.306 15.7742 11.8755 15.9309 12.454 15.919C13.0737 15.9366 13.6827 15.7554 14.192 15.402C14.676 15.061 15.017 14.357 15.655 14.302C15.8385 14.2858 16.0233 14.3121 16.195 14.3789C16.3667 14.4457 16.5206 14.5511 16.645 14.687C16.7677 14.821 16.8448 14.9904 16.865 15.171C16.8638 15.4087 16.8087 15.6431 16.704 15.8565C16.5992 16.0698 16.4474 16.2567 16.26 16.403Z" fill="black"/>
</svg>
