<svg width="24" height="24" viewBox="0 0 24 24" fill="none" xmlns="http://www.w3.org/2000/svg">
<path d="M13.4625 11.655L19.8672 5.26103C20.3167 5.93063 20.557 6.71882 20.5573 7.52533V18.7066C20.5573 19.7771 20.1327 20.8039 19.3768 21.5619C18.6208 22.3199 17.5952 22.7471 16.5247 22.75H5.34337C4.271 22.75 3.24255 22.324 2.48427 21.5657C1.72599 20.8074 1.29999 19.779 1.29999 18.7066V7.52533C1.29999 6.99485 1.40465 6.46958 1.60798 5.97962C1.81131 5.48966 2.10931 5.04463 2.48492 4.67003C2.86052 4.29543 3.30635 3.99861 3.79685 3.79659C4.28735 3.59457 4.81289 3.49131 5.34337 3.49273H16.5247C17.2893 3.49546 18.0374 3.71614 18.6811 4.12889L12.3195 10.512C12.2401 10.5861 12.1764 10.6753 12.1322 10.7745C12.088 10.8737 12.0642 10.9808 12.0623 11.0894C12.0604 11.198 12.0803 11.3058 12.121 11.4065C12.1617 11.5072 12.2222 11.5987 12.299 11.6755C12.3758 11.7523 12.4673 11.8128 12.568 11.8535C12.6687 11.8942 12.7765 11.9141 12.8851 11.9122C12.9937 11.9103 13.1008 11.8865 13.2 11.8423C13.2992 11.7981 13.3884 11.7344 13.4625 11.655ZM22.6922 2.10181C22.6965 1.9915 22.6785 1.88145 22.6393 1.77827C22.6001 1.67508 22.5404 1.58089 22.4639 1.50134C22.3874 1.42178 22.2955 1.35851 22.194 1.31532C22.0924 1.27213 21.9831 1.24991 21.8727 1.25H17.3872C17.1738 1.25465 16.9698 1.33931 16.8158 1.48721C16.693 1.59981 16.6074 1.74716 16.5705 1.90962C16.5336 2.07208 16.5471 2.24194 16.6091 2.39655C16.6712 2.55115 16.7789 2.68317 16.918 2.77499C17.057 2.86681 17.2207 2.91407 17.3872 2.91048H19.9103L18.6919 4.12889C19.149 4.40982 19.548 4.77585 19.8672 5.20712L21.064 4.01028V6.64117C21.0871 6.84093 21.1827 7.02526 21.3328 7.15905C21.4829 7.29285 21.677 7.36679 21.8781 7.36679C22.0792 7.36679 22.2732 7.29285 22.4234 7.15905C22.5735 7.02526 22.6691 6.84093 22.6922 6.64117V2.10181Z" fill="black"/>
</svg>
