<svg width="24" height="24" viewBox="0 0 24 24" fill="none" xmlns="http://www.w3.org/2000/svg">
<path d="M22.7498 13.2336V17.8438C22.7503 18.9644 22.3141 20.0412 21.5339 20.8456C20.7536 21.65 19.6906 22.1187 18.5705 22.1523H5.42934C4.30919 22.1187 3.24621 21.65 2.46594 20.8456C1.68568 20.0412 1.24953 18.9644 1.25003 17.8438V13.2336C1.24953 12.1129 1.68568 11.0362 2.46594 10.2318C3.24621 9.42739 4.30919 8.95865 5.42934 8.92503H11.1813V16.0665C11.1813 16.2836 11.2675 16.4918 11.4211 16.6453C11.5746 16.7989 11.7828 16.8851 11.9999 16.8851C12.217 16.8851 12.4252 16.7989 12.5788 16.6453C12.7323 16.4918 12.8185 16.2836 12.8185 16.0665V8.88194H18.5705C19.6981 8.91573 20.7675 9.39045 21.549 10.2041C22.3304 11.0178 22.7616 12.1055 22.7498 13.2336ZM12.8185 4.55357L14.6174 6.28777C14.7738 6.43787 14.9822 6.52167 15.199 6.52167C15.4158 6.52167 15.6242 6.43787 15.7807 6.28777C15.9306 6.13973 16.0158 5.93834 16.0177 5.72766C16.0135 5.51745 15.9287 5.31689 15.7807 5.16754L12.5493 2.07615C12.3904 1.93082 12.1829 1.85022 11.9676 1.85022C11.7523 1.85022 11.5448 1.93082 11.3859 2.07615L8.15451 5.16754C8.01743 5.31337 7.94111 5.50598 7.94111 5.70612C7.94111 5.90626 8.01743 6.09886 8.15451 6.24469C8.31096 6.39478 8.51937 6.47859 8.73617 6.47859C8.95297 6.47859 9.16138 6.39478 9.31783 6.24469L11.1167 4.51049V8.88194H12.7539L12.8185 4.55357Z" fill="black"/>
</svg>
