<svg width="24" height="24" viewBox="0 0 24 24" fill="none" xmlns="http://www.w3.org/2000/svg">
<path d="M22.7491 6.12881V10.7864C22.7724 11.9211 22.3474 13.0193 21.5663 13.8428C20.7853 14.6662 19.711 15.1486 18.5767 15.1852H12.8302V7.97243C12.8289 7.86246 12.8053 7.7539 12.7607 7.65337C12.7161 7.55285 12.6514 7.46249 12.5707 7.38781C12.4899 7.31313 12.3948 7.25571 12.2911 7.21905C12.1875 7.18239 12.0774 7.16727 11.9676 7.17461C11.7522 7.1717 11.5442 7.2538 11.3888 7.40313C11.2334 7.55246 11.1431 7.757 11.1375 7.97243V15.1852H5.4341C4.29782 15.1513 3.22087 14.6702 2.43749 13.8464C1.65411 13.0227 1.22766 11.9229 1.2509 10.7864V6.12881C1.22766 4.99226 1.65411 3.89251 2.43749 3.06875C3.22087 2.24498 4.29782 1.76385 5.4341 1.72998H18.5874C19.7199 1.7694 20.7914 2.25297 21.5702 3.07613C22.3489 3.89928 22.7724 4.99588 22.7491 6.12881ZM11.1806 19.5382L9.39088 17.7916C9.23429 17.6414 9.02569 17.5575 8.80869 17.5575C8.59168 17.5575 8.38308 17.6414 8.22649 17.7916C8.14914 17.8642 8.08749 17.9519 8.04534 18.0493C8.0032 18.1466 7.98145 18.2516 7.98145 18.3577C7.98145 18.4638 8.0032 18.5687 8.04534 18.6661C8.08749 18.7634 8.14914 18.8511 8.22649 18.9237L11.4609 22.0395C11.6157 22.1891 11.8225 22.2726 12.0377 22.2726C12.2529 22.2726 12.4598 22.1891 12.6145 22.0395L15.849 18.9237C15.9246 18.849 15.9845 18.76 16.0252 18.6619C16.0659 18.5638 16.0867 18.4585 16.0862 18.3523C16.0877 18.2475 16.0674 18.1435 16.0266 18.047C15.9858 17.9505 15.9253 17.8635 15.849 17.7916C15.6924 17.6414 15.4838 17.5575 15.2668 17.5575C15.0498 17.5575 14.8412 17.6414 14.6846 17.7916L12.8302 19.5382V15.1852H11.1806V19.5382Z" fill="black"/>
</svg>
