<svg width="24" height="24" viewBox="0 0 24 24" fill="none" xmlns="http://www.w3.org/2000/svg">
<path d="M22.6152 1.41777C22.4573 1.26529 22.2465 1.18005 22.027 1.18005C21.8075 1.18005 21.5966 1.26529 21.4388 1.41777L17.7226 5.12292C16.0266 3.97438 14.0415 3.32663 11.9945 3.25386C6.7941 3.25386 1 8.33332 1 12.6651C1 14.6112 2.29735 16.8101 4.1994 18.5912L1.38481 21.3948C1.22971 21.5513 1.1427 21.7627 1.1427 21.983C1.1427 22.2033 1.22971 22.4147 1.38481 22.5712C1.54129 22.7263 1.75269 22.8133 1.97301 22.8133C2.19333 22.8133 2.40474 22.7263 2.56122 22.5712L22.6042 2.59419C22.7608 2.43916 22.8498 2.22857 22.8518 2.00824C22.8539 1.78792 22.7688 1.5757 22.6152 1.41777ZM7.22289 12.6651C7.21277 11.8294 7.42441 11.0059 7.83624 10.2785C8.24807 9.55118 8.84537 8.94603 9.56727 8.52473C10.2892 8.10344 11.1099 7.88107 11.9457 7.88027C12.7815 7.87948 13.6026 8.1003 14.3253 8.52022L13.094 9.79559C12.7445 9.65388 12.3715 9.57928 11.9945 9.5757C11.1644 9.57859 10.369 9.90965 9.78203 10.4967C9.19503 11.0837 8.86397 11.879 8.86107 12.7091C8.8651 13.0851 8.93583 13.4573 9.06996 13.8086L7.83858 14.963C7.43329 14.2646 7.21728 13.4726 7.21189 12.6651H7.22289ZM23 12.6651C23 17.063 17.5027 22.0764 12.0055 22.0764C10.1917 22.0224 8.42288 21.4997 6.87106 20.5592L10.3233 17.1289C11.0457 17.4087 11.8256 17.5075 12.595 17.4168C13.3643 17.326 14.0998 17.0485 14.7373 16.6083C15.3748 16.1681 15.8949 15.5787 16.2524 14.8914C16.6098 14.2041 16.7938 13.4398 16.7881 12.6651C16.7844 12.0969 16.6763 11.5342 16.4693 11.005L20.2954 7.18989C21.847 8.61344 22.8082 10.5672 22.989 12.6651H23ZM11.6757 15.7656L15.095 12.3683C15.1003 12.4672 15.1003 12.5663 15.095 12.6651C15.095 13.4905 14.7694 14.2825 14.1889 14.8692C13.6084 15.4559 12.8198 15.7899 11.9945 15.7986C11.8877 15.793 11.7813 15.782 11.6757 15.7656Z" fill="black"/>
</svg>
