<svg width="24" height="24" viewBox="0 0 24 24" fill="none" xmlns="http://www.w3.org/2000/svg">
<path d="M15.135 12.006C15.135 12.626 14.9511 13.2321 14.6067 13.7477C14.2622 14.2632 13.7726 14.665 13.1997 14.9023C12.6269 15.1396 11.9965 15.2017 11.3884 15.0807C10.7803 14.9598 10.2217 14.6612 9.78322 14.2227C9.34478 13.7843 9.0462 13.2257 8.92524 12.6176C8.80427 12.0094 8.86636 11.3791 9.10364 10.8063C9.34092 10.2334 9.74274 9.74379 10.2583 9.39931C10.7738 9.05483 11.38 8.87097 12 8.87097C12.8306 8.87386 13.6263 9.20509 14.2136 9.79239C14.8009 10.3797 15.1321 11.1754 15.135 12.006ZM23 12.006C23 16.406 17.5 21.422 12 21.422C6.797 21.422 1 16.142 1 12.006C1 7.67197 6.797 2.58997 12 2.58997C17.203 2.58997 23 7.80397 23 12.006ZM16.785 12.006C16.785 11.0596 16.5044 10.1345 15.9786 9.34756C15.4528 8.56067 14.7055 7.94737 13.8311 7.5852C12.9568 7.22304 11.9947 7.12828 11.0665 7.31291C10.1383 7.49754 9.28569 7.95327 8.61649 8.62246C7.9473 9.29165 7.49157 10.1443 7.30694 11.0725C7.12231 12.0007 7.21707 12.9628 7.57924 13.8371C7.9414 14.7114 8.55471 15.4588 9.3416 15.9845C10.1285 16.5103 11.0536 16.791 12 16.791C13.2691 16.791 14.4861 16.2868 15.3835 15.3895C16.2809 14.4921 16.785 13.275 16.785 12.006Z" fill="black"/>
</svg>
