<svg width="24" height="24" viewBox="0 0 24 24" fill="none" xmlns="http://www.w3.org/2000/svg">
<path d="M22.5 15.4125V20.6625C22.5 21.1498 22.3064 21.6172 21.9618 21.9618C21.6172 22.3064 21.1498 22.5 20.6625 22.5H3.3375C2.85016 22.5 2.38279 22.3064 2.03819 21.9618C1.69359 21.6172 1.5 21.1498 1.5 20.6625V15.4125C1.5 14.9252 1.69359 14.4578 2.03819 14.1132C2.38279 13.7686 2.85016 13.575 3.3375 13.575H20.6625C21.1498 13.575 21.6172 13.7686 21.9618 14.1132C22.3064 14.4578 22.5 14.9252 22.5 15.4125ZM13.3125 1.5H3.3375C2.85016 1.5 2.38279 1.69359 2.03819 2.03819C1.69359 2.38279 1.5 2.85016 1.5 3.3375V8.5875C1.5 9.07483 1.69359 9.54221 2.03819 9.88681C2.38279 10.2314 2.85016 10.425 3.3375 10.425H13.3125C13.7998 10.425 14.2672 10.2314 14.6118 9.88681C14.9564 9.54221 15.15 9.07483 15.15 8.5875V3.3375C15.15 2.85016 14.9564 2.38279 14.6118 2.03819C14.2672 1.69359 13.7998 1.5 13.3125 1.5Z" fill="black"/>
</svg>
