<svg width="24" height="24" viewBox="0 0 24 24" fill="none" xmlns="http://www.w3.org/2000/svg">
<path d="M20.5848 11.0279L12.9721 3.4152L14.5297 1.86853C14.7244 1.67251 14.956 1.51695 15.2111 1.4108C15.4662 1.30465 15.7398 1.25 16.0161 1.25C16.2924 1.25 16.5659 1.30465 16.821 1.4108C17.0761 1.51695 17.3077 1.67251 17.5024 1.86853L22.1315 6.51953C22.3275 6.71426 22.483 6.94584 22.5892 7.20093C22.6953 7.45602 22.75 7.72958 22.75 8.00588C22.75 8.28217 22.6953 8.55574 22.5892 8.81083C22.483 9.06592 22.3275 9.2975 22.1315 9.49223L20.5848 11.0279ZM19.4111 12.1907L11.8093 4.58893L11.6448 4.42439C11.0224 4.79074 10.3498 5.0642 9.64835 5.23612C7.98673 5.64072 6.51319 6.60083 5.47184 7.95739C4.43048 9.31394 3.88379 10.9855 3.92234 12.6953C3.93957 13.5687 3.78038 14.4367 3.4543 15.2471C3.12823 16.0576 2.64197 16.794 2.02465 17.4121L1.55296 17.8838C1.35849 18.0878 1.25 18.3588 1.25 18.6407C1.25 18.9225 1.35849 19.1936 1.55296 19.3976L2.30985 20.1544L2.47439 20.0009L8.94631 13.5289C8.72165 12.9542 8.70165 12.3196 8.88968 11.7318C9.0777 11.144 9.46229 10.6388 9.97884 10.3011C10.4954 9.96346 11.1124 9.81383 11.7263 9.87741C12.3401 9.94098 12.9134 10.2139 13.3497 10.6503C13.7861 11.0866 14.059 11.6599 14.1226 12.2737C14.1862 12.8876 14.0365 13.5046 13.6989 14.0212C13.3612 14.5377 12.856 14.9223 12.2682 15.1103C11.6804 15.2983 11.0458 15.2783 10.471 15.0537L4.06495 21.4598L3.83459 21.6792L4.60244 22.447C4.80645 22.6415 5.07748 22.75 5.35933 22.75C5.64118 22.75 5.91221 22.6415 6.11622 22.447L6.5879 21.9754C7.20604 21.358 7.94239 20.8718 8.75287 20.5457C9.56334 20.2196 10.4313 20.0604 11.3047 20.0777C13.0145 20.1162 14.6861 19.5695 16.0426 18.5282C17.3992 17.4868 18.3593 16.0133 18.7639 14.3517C18.9358 13.6502 19.2093 12.9776 19.5756 12.3552L19.4111 12.1907Z" fill="black"/>
</svg>
