<svg width="24" height="24" viewBox="0 0 24 24" fill="none" xmlns="http://www.w3.org/2000/svg">
<path d="M9.42044 8.42033H13.0002V15.5798H9.42044C8.47103 15.5798 7.56051 15.2026 6.88918 14.5313C6.21786 13.86 5.84071 12.9495 5.84071 12.0001C5.84071 11.0507 6.21786 10.1401 6.88918 9.4688C7.56051 8.79747 8.47103 8.42033 9.42044 8.42033ZM16.5799 8.42033C15.8719 8.42033 15.1798 8.63027 14.5911 9.02362C14.0024 9.41696 13.5436 9.97604 13.2727 10.6302C13.0017 11.2843 12.9308 12.004 13.069 12.6984C13.2071 13.3928 13.548 14.0307 14.0486 14.5313C14.5493 15.0319 15.1871 15.3729 15.8815 15.511C16.5759 15.6491 17.2957 15.5782 17.9498 15.3073C18.6039 15.0364 19.163 14.5775 19.5563 13.9888C19.9497 13.4002 20.1596 12.7081 20.1596 12.0001C20.1596 11.0507 19.7825 10.1401 19.1112 9.4688C18.4398 8.79747 17.5293 8.42033 16.5799 8.42033ZM5.82996 19.1703C5.82996 20.1197 6.20711 21.0302 6.87844 21.7015C7.54977 22.3729 8.46028 22.75 9.40969 22.75C10.3591 22.75 11.2696 22.3729 11.9409 21.7015C12.6123 21.0302 12.9894 20.1197 12.9894 19.1703V15.5798H9.42044C8.94943 15.5798 8.48306 15.6727 8.04805 15.8533C7.61303 16.0339 7.21793 16.2985 6.88538 16.6321C6.55283 16.9656 6.28937 17.3615 6.11011 17.7971C5.93084 18.2326 5.83929 18.6993 5.84071 19.1703H5.82996ZM6.45345 6.82933C6.70814 7.21318 7.0371 7.54214 7.42095 7.79683C7.80796 8.05821 8.24264 8.24085 8.70019 8.33433C8.93669 8.38637 9.17829 8.41161 9.42044 8.40958H16.5799C17.5293 8.40958 18.4398 8.03243 19.1112 7.3611C19.7825 6.68977 20.1596 5.77925 20.1596 4.82984C20.1596 3.88044 19.7825 2.96992 19.1112 2.29859C18.4398 1.62726 17.5293 1.25011 16.5799 1.25011H9.42044C9.17829 1.24808 8.93669 1.27332 8.70019 1.32536C8.01476 1.4665 7.38572 1.80545 6.89088 2.30029C6.39604 2.79513 6.05709 3.42416 5.91596 4.1096C5.81558 4.58452 5.81558 5.07517 5.91596 5.55009C6.00944 6.00765 6.19207 6.44232 6.45345 6.82933Z" fill="black"/>
</svg>
