<svg width="24" height="24" viewBox="0 0 24 24" fill="none" xmlns="http://www.w3.org/2000/svg">
<path d="M22.75 10.3456H17.6844C16.7317 10.3317 15.8232 9.94121 15.1574 9.25957C14.4916 8.57792 14.1226 7.66048 14.1311 6.70767C14.1311 6.65479 14.1311 6.60191 14.1311 6.55961V1.47287L22.75 10.3456ZM17.6844 11.9953H17.5469C16.8616 11.9641 16.1891 11.7982 15.5678 11.507C14.9466 11.2159 14.3888 10.8053 13.9262 10.2985C13.4637 9.79181 13.1055 9.19895 12.8721 8.55379C12.6387 7.90864 12.5347 7.22383 12.5659 6.53846V1.42H7.27828C5.67957 1.42 4.14634 2.05508 3.01588 3.18554C1.88542 4.316 1.25033 5.84923 1.25033 7.44794V16.4793C1.24192 17.278 1.39233 18.0704 1.69282 18.8105C1.99331 19.5506 2.43789 20.2235 3.00072 20.7903C3.56355 21.3571 4.23341 21.8063 4.97137 22.112C5.70933 22.4176 6.50068 22.5735 7.29943 22.5707H16.7326C18.3295 22.5679 19.86 21.9316 20.9882 20.8014C22.1164 19.6712 22.75 18.1396 22.75 16.5427V11.9953H17.6844ZM12.2698 14.5017C12.1311 14.6595 11.9361 14.7568 11.7266 14.7726C11.5171 14.7884 11.3097 14.7215 11.1489 14.5863L9.44622 13.1375V18.4251C9.44622 18.6355 9.36266 18.8372 9.21391 18.986C9.06517 19.1347 8.86343 19.2183 8.65307 19.2183C8.44272 19.2183 8.24097 19.1347 8.09223 18.986C7.94349 18.8372 7.85992 18.6355 7.85992 18.4251V13.0529L5.91406 14.6074C5.83212 14.672 5.73827 14.7198 5.63785 14.7481C5.53744 14.7764 5.43243 14.7847 5.32883 14.7724C5.22523 14.7601 5.12506 14.7276 5.03404 14.6766C4.94302 14.6256 4.86294 14.5572 4.79836 14.4753C4.66794 14.3098 4.6086 14.0993 4.63339 13.89C4.65818 13.6808 4.76507 13.49 4.93055 13.3596L8.16661 10.8003C8.20171 10.773 8.24099 10.7516 8.28294 10.7369L8.36754 10.684C8.45717 10.6429 8.55448 10.6213 8.65307 10.6205C8.75519 10.6201 8.8562 10.6418 8.94918 10.684L9.04436 10.7369L9.17126 10.8109L12.1747 13.3807C12.2548 13.4479 12.3208 13.5302 12.369 13.623C12.4172 13.7158 12.4465 13.8172 12.4554 13.9214C12.4642 14.0256 12.4524 14.1305 12.4206 14.2301C12.3887 14.3297 12.3375 14.422 12.2698 14.5017Z" fill="black"/>
</svg>
