<svg width="24" height="24" viewBox="0 0 24 24" fill="none" xmlns="http://www.w3.org/2000/svg">
<path d="M22.75 10.3465H17.6775C16.7224 10.3325 15.8118 9.94039 15.1454 9.25607C14.479 8.57176 14.1111 7.65111 14.1225 6.69598C14.1176 6.64658 14.1176 6.59682 14.1225 6.54742V1.45367L22.75 10.3465ZM17.6775 12.002H17.5289C16.8416 11.9707 16.1673 11.8041 15.5445 11.5118C14.9216 11.2195 14.3626 10.8073 13.8993 10.2986C13.436 9.79001 13.0776 9.195 12.8446 8.54767C12.6115 7.90034 12.5085 7.2134 12.5413 6.52619V1.39H7.2353C5.6357 1.40402 4.10703 2.0522 2.98489 3.19225C1.86275 4.3323 1.23884 5.87104 1.25015 7.47066V16.5333C1.24456 17.3271 1.39556 18.1143 1.69452 18.8497C1.99347 19.5851 2.43451 20.2544 2.99239 20.8192C3.55028 21.3839 4.21406 21.8332 4.94575 22.1411C5.67744 22.4491 6.46268 22.6098 7.25653 22.6139H16.7118C18.3132 22.6139 19.8491 21.9778 20.9815 20.8454C22.1138 19.713 22.75 18.1772 22.75 16.5757V12.002H17.6775ZM12.1168 16.5439L9.0924 19.1226C9.0924 19.1226 9.0075 19.1226 8.96505 19.1969H8.86954C8.77961 19.2381 8.68195 19.2598 8.58302 19.2606C8.48386 19.2619 8.38574 19.2401 8.2965 19.1969H8.20099C8.1589 19.1821 8.11948 19.1606 8.08426 19.1332L4.837 16.5651C4.67231 16.4319 4.56663 16.2393 4.54281 16.0288C4.51898 15.8183 4.57891 15.6069 4.70965 15.4402C4.83919 15.2911 5.01956 15.1955 5.2157 15.1719C5.41183 15.1484 5.6097 15.1987 5.77085 15.3129L7.75529 16.8729V11.4608C7.75529 11.2497 7.83914 11.0472 7.9884 10.898C8.13766 10.7487 8.3401 10.6649 8.55119 10.6649C8.76227 10.6649 8.96471 10.7487 9.11397 10.898C9.26323 11.0472 9.34708 11.2497 9.34708 11.4608V16.7667L11.045 15.3129C11.2054 15.1722 11.4152 15.1009 11.6281 15.1149C11.8411 15.1288 12.0398 15.2268 12.1805 15.3872C12.3212 15.5476 12.3924 15.7574 12.3785 15.9703C12.3646 16.1833 12.2666 16.3819 12.1062 16.5227L12.1168 16.5439Z" fill="black"/>
</svg>
