<svg width="24" height="24" viewBox="0 0 24 24" fill="none" xmlns="http://www.w3.org/2000/svg">
<path d="M14.1502 6.4315V1.25L17.0097 4.26L22.6857 10.2908H17.6655C17.1792 10.2744 16.7012 10.1608 16.2595 9.95676C15.8178 9.75269 15.4215 9.46225 15.0939 9.10256C14.7662 8.74287 14.514 8.32122 14.3519 7.86247C14.1898 7.40373 14.1213 6.91717 14.1502 6.4315ZM22.7502 12H18.9985V14.881C18.9956 15.9854 18.5549 17.0435 17.773 17.8234C16.9911 18.6033 15.9318 19.0413 14.8275 19.0413H9.17299C8.06863 19.0413 7.00935 18.6033 6.22744 17.8234C5.44554 17.0435 5.00484 15.9854 5.00199 14.881V9.1405C5.00199 8.03428 5.44143 6.97337 6.22365 6.19116C7.00586 5.40894 8.06677 4.9695 9.17299 4.9695H12.5377V1.25H7.27024C5.65838 1.26702 4.11915 1.92297 2.99047 3.07382C1.86179 4.22467 1.23591 5.77637 1.25024 7.38825V16.6118C1.23591 18.2236 1.86179 19.7753 2.99047 20.9262C4.11915 22.077 5.65838 22.733 7.27024 22.75H16.7302C18.3421 22.733 19.8813 22.077 21.01 20.9262C22.1387 19.7753 22.7646 18.2236 22.7502 16.6118V12Z" fill="black"/>
</svg>
