<svg width="24" height="24" viewBox="0 0 24 24" fill="none" xmlns="http://www.w3.org/2000/svg">
<path d="M22.5883 10.3123H17.5896C16.6486 10.2676 15.7623 9.85712 15.1196 9.16829C14.477 8.47947 14.1289 7.56683 14.1496 6.625C14.1549 6.57498 14.1549 6.52453 14.1496 6.4745V1.25L22.5883 10.3123ZM17.5896 12H17.4498C16.0596 11.9115 14.7611 11.2759 13.8384 10.2323C12.9157 9.18868 12.4439 7.82207 12.5263 6.4315V1.25H7.33408C5.7345 1.28389 4.21341 1.94978 3.10343 3.10207C1.99345 4.25435 1.3849 5.79927 1.41083 7.399V16.601C1.3849 18.2007 1.99345 19.7456 3.10343 20.8979C4.21341 22.0502 5.7345 22.7161 7.33408 22.75H16.6328C17.4277 22.7374 18.2122 22.5683 18.9417 22.2525C19.6712 21.9366 20.3313 21.4802 20.8843 20.9091C21.4373 20.3381 21.8725 19.6638 22.1649 18.9246C22.4572 18.1854 22.6011 17.3958 22.5883 16.601V12H17.5896ZM12.1178 15.6765H6.62458L8.19408 17.6868C8.26132 17.7707 8.31133 17.867 8.34124 17.9703C8.37116 18.0736 8.38039 18.1818 8.3684 18.2887C8.35642 18.3955 8.32345 18.499 8.2714 18.5931C8.21935 18.6872 8.14924 18.7701 8.06508 18.837C7.92819 18.9564 7.75223 19.0214 7.57058 19.0198C7.44799 19.0202 7.32696 18.9923 7.21693 18.9382C7.10691 18.8841 7.01088 18.8053 6.93633 18.708L4.34558 15.3648L4.28108 15.225L4.22733 15.1175C4.21613 15.0355 4.21613 14.9523 4.22733 14.8703C4.22689 14.7664 4.24889 14.6638 4.29183 14.5693V14.4833L4.37783 14.3435L6.99008 11.2368C7.05741 11.1556 7.14018 11.0887 7.2336 11.0399C7.32701 10.9911 7.42919 10.9613 7.53422 10.9523C7.63924 10.9433 7.745 10.9552 7.84537 10.9875C7.94573 11.0197 8.03868 11.0715 8.11883 11.14C8.28313 11.2832 8.38432 11.4855 8.40042 11.7028C8.41652 11.9202 8.34624 12.1351 8.20483 12.301L6.72133 14.0318H12.0963C12.2982 14.0549 12.4846 14.1515 12.6199 14.3031C12.7551 14.4548 12.8299 14.6509 12.8299 14.8541C12.8299 15.0574 12.7551 15.2535 12.6199 15.4051C12.4846 15.5568 12.2982 15.6534 12.0963 15.6765H12.1178Z" fill="black"/>
</svg>
