<svg width="24" height="24" viewBox="0 0 24 24" fill="none" xmlns="http://www.w3.org/2000/svg">
<path d="M22.72 9.78012H18.04C17.1496 9.75137 16.3069 9.37125 15.696 8.72288C15.0851 8.0745 14.7557 7.21062 14.78 6.32012C14.7746 6.27361 14.7746 6.22663 14.78 6.18012V1.39012L22.72 9.78012ZM22.72 11.3001H18.04C17.3981 11.2782 16.7669 11.1298 16.1826 10.8634C15.5982 10.5971 15.0721 10.218 14.6346 9.74789C14.197 9.27781 13.8565 8.72597 13.6326 8.12403C13.4088 7.5221 13.3059 6.88189 13.33 6.24012V1.37012H8.42999C7.68979 1.37795 6.95839 1.53168 6.27766 1.8225C5.59694 2.11332 4.98025 2.53554 4.46289 3.06497C3.94553 3.59441 3.53765 4.22068 3.2626 4.90793C2.98756 5.59518 2.85074 6.32993 2.85999 7.07012V13.5901C3.61265 13.1964 4.45058 12.9938 5.29999 13.0001C6.76227 13.0186 8.15747 13.6165 9.17928 14.6627C10.2011 15.7089 10.766 17.1178 10.75 18.5801C10.7528 19.5393 10.5082 20.483 10.04 21.3201H17.18C17.9189 21.3136 18.6492 21.1614 19.3292 20.8723C20.0092 20.5832 20.6256 20.1628 21.1429 19.6352C21.6603 19.1077 22.0685 18.4832 22.3443 17.7977C22.62 17.1122 22.7579 16.379 22.75 15.6401L22.72 11.3001ZM5.29999 14.5101C6.37677 14.5101 7.40945 14.9379 8.17084 15.6993C8.93224 16.4607 9.35999 17.4933 9.35999 18.5701C9.35999 19.6469 8.93224 20.6796 8.17084 21.441C7.40945 22.2024 6.37677 22.6301 5.29999 22.6301C4.22321 22.6301 3.19053 22.2024 2.42914 21.441C1.66774 20.6796 1.23999 19.6469 1.23999 18.5701C1.23999 17.4933 1.66774 16.4607 2.42914 15.6993C3.19053 14.9379 4.22321 14.5101 5.29999 14.5101ZM3.29999 18.5101L4.51999 20.1101C4.5821 20.2081 4.67006 20.287 4.77416 20.3382C4.87827 20.3893 4.99448 20.4108 5.10999 20.4001C5.22247 20.3997 5.33335 20.3734 5.43396 20.3231C5.53457 20.2727 5.62219 20.1999 5.68999 20.1101L7.38999 17.8901C7.50958 17.7309 7.56285 17.5316 7.53862 17.3339C7.51438 17.1363 7.41451 16.9557 7.25999 16.8301C7.10826 16.7176 6.9184 16.6692 6.73133 16.6954C6.54427 16.7216 6.37499 16.8203 6.25999 16.9701L5.03999 18.4401L4.40999 17.6101C4.29062 17.466 4.1211 17.3725 3.93556 17.3484C3.75002 17.3243 3.56223 17.3714 3.40999 17.4801C3.25013 17.6032 3.14416 17.7834 3.11433 17.9829C3.08449 18.1824 3.13312 18.3857 3.24999 18.5501L3.29999 18.5101Z" fill="black"/>
</svg>
