<svg width="24" height="24" viewBox="0 0 24 24" fill="none" xmlns="http://www.w3.org/2000/svg">
<path d="M22.7503 10.3337H17.6656C16.7103 10.3001 15.8066 9.89245 15.149 9.19871C14.4915 8.50498 14.1328 7.58068 14.1503 6.625C14.1553 6.57496 14.1553 6.52454 14.1503 6.4745V1.25L22.7503 10.3337ZM22.7503 16.6118C22.756 17.4122 22.604 18.2059 22.3029 18.9476C22.0018 19.6893 21.5575 20.3644 20.9955 20.9344C20.4335 21.5044 19.7648 21.9581 19.0274 22.2696C18.29 22.5811 17.4985 22.7444 16.6981 22.75H7.29184C5.67714 22.7358 4.13405 22.0815 3.00135 20.9306C1.86864 19.7798 1.23889 18.2265 1.25034 16.6118V7.40975C1.24183 6.6084 1.39143 5.81324 1.69057 5.06978C1.98972 4.32631 2.43254 3.64913 2.99369 3.07699C3.55484 2.50486 4.22331 2.049 4.96084 1.7355C5.69837 1.422 6.49048 1.25702 7.29184 1.25H12.5701V6.453C12.5026 7.84836 12.9888 9.21395 13.9229 10.2527C14.857 11.2915 16.1634 11.9195 17.5581 12H22.7503V16.6118ZM12.8066 14.58C12.7926 14.549 12.7746 14.5201 12.7528 14.494C12.7325 14.4395 12.7035 14.3887 12.6668 14.3435L10.0653 11.2368C9.93108 11.0878 9.74487 10.9958 9.54496 10.9798C9.34504 10.9638 9.14658 11.025 8.99034 11.1508C8.82673 11.2921 8.72581 11.4925 8.70969 11.7081C8.69357 11.9237 8.76356 12.1369 8.90434 12.301L10.3663 14.064H4.99134C4.77466 14.064 4.56685 14.1501 4.41364 14.3033C4.26042 14.4565 4.17434 14.6643 4.17434 14.881C4.17434 15.0977 4.26042 15.3055 4.41364 15.4587C4.56685 15.6119 4.77466 15.698 4.99134 15.698H10.4631L8.82909 17.719C8.69602 17.8896 8.63501 18.1054 8.65912 18.3204C8.68323 18.5354 8.79055 18.7324 8.95809 18.8692C9.03964 18.9373 9.13415 18.9881 9.23591 19.0186C9.33767 19.0491 9.44456 19.0586 9.5501 19.0465C9.65563 19.0344 9.75762 19.0011 9.84988 18.9484C9.94215 18.8958 10.0228 18.825 10.0868 18.7403L12.6883 15.3863C12.7209 15.3376 12.7428 15.2827 12.7528 15.225C12.7748 15.1951 12.7928 15.1626 12.8066 15.1283C12.8358 15.0487 12.8538 14.9655 12.8603 14.881C12.8593 14.7784 12.8411 14.6767 12.8066 14.58Z" fill="black"/>
</svg>
