<svg width="24" height="24" viewBox="0 0 24 24" fill="none" xmlns="http://www.w3.org/2000/svg">
<path d="M13.6321 20.2598C13.4852 20.5644 13.2627 20.8263 12.9859 21.0206L11.5685 22.0628C11.2498 22.3099 10.8664 22.4592 10.4646 22.4928C10.0627 22.5263 9.65983 22.4426 9.30463 22.2518C8.94944 22.0609 8.65721 21.7712 8.46338 21.4176C8.26955 21.064 8.18242 20.6618 8.21257 20.2598V14.7882C8.21131 13.7347 7.79579 12.7239 7.05572 11.9742L3.13701 7.99296C2.71012 7.56366 2.47035 6.98295 2.47 6.37753V3.78244C2.4755 3.17519 2.72059 2.59468 3.15194 2.16723C3.5833 1.73978 4.16601 1.49998 4.77328 1.5H18.0614C18.6651 1.50544 19.2425 1.74766 19.6694 2.17452C20.0962 2.60139 20.3384 3.17878 20.3439 3.78244V6.28374C20.3447 6.6102 20.2763 6.93313 20.1434 7.23131C20.0105 7.52949 19.816 7.79616 19.5726 8.0138L18.2595 9.24361C16.8172 8.72371 15.2304 8.77736 13.8266 9.39347C12.4228 10.0096 11.309 11.1412 10.7153 12.5546C10.1216 13.968 10.0932 15.5555 10.6359 16.9893C11.1787 18.4231 12.2512 19.5938 13.6321 20.2598ZM21.5424 15.0487C21.5424 16.0278 21.2521 16.9849 20.7081 17.7991C20.1641 18.6132 19.391 19.2477 18.4864 19.6224C17.5818 19.9971 16.5864 20.0951 15.6261 19.9041C14.6658 19.7131 13.7837 19.2416 13.0914 18.5492C12.3991 17.8569 11.9276 16.9748 11.7366 16.0145C11.5455 15.0542 11.6436 14.0588 12.0183 13.1542C12.393 12.2497 13.0275 11.4765 13.8416 10.9325C14.6557 10.3886 15.6128 10.0982 16.5919 10.0982C17.9049 10.0982 19.1641 10.6198 20.0924 11.5482C21.0208 12.4766 21.5424 13.7358 21.5424 15.0487ZM18.8118 13.277L18.2595 12.735C18.1931 12.663 18.1125 12.6055 18.0228 12.5662C17.9331 12.5269 17.8363 12.5066 17.7384 12.5066C17.6404 12.5066 17.5436 12.5269 17.4539 12.5662C17.3642 12.6055 17.2836 12.663 17.2172 12.735L14.4137 15.6011C14.337 15.6775 14.286 15.7758 14.2678 15.8825L14.101 16.7684C14.084 16.8634 14.0904 16.9611 14.1197 17.0531C14.1489 17.1451 14.2001 17.2286 14.2689 17.2963C14.3377 17.3641 14.4219 17.414 14.5143 17.4419C14.6068 17.4697 14.7046 17.4747 14.7993 17.4562L15.6852 17.2686C15.7919 17.2504 15.8902 17.1994 15.9666 17.1227L18.7806 14.2566C18.8476 14.1947 18.9016 14.1201 18.9395 14.0372C18.9774 13.9542 18.9984 13.8645 19.0013 13.7733C19.0042 13.6822 18.9889 13.5913 18.9564 13.5061C18.9239 13.4209 18.8747 13.343 18.8118 13.277Z" fill="black"/>
</svg>
