<svg width="24" height="24" viewBox="0 0 24 24" fill="none" xmlns="http://www.w3.org/2000/svg">
<path d="M5.02587 9.42487L3.66132 8.03933C3.23425 7.6059 2.99645 7.02083 3.00004 6.41237V3.79874C3.00557 3.18715 3.25242 2.6025 3.68685 2.17199C4.12129 1.74149 4.70816 1.49997 5.31977 1.5H9.90675C9.99696 1.50065 10.0853 1.52552 10.1627 1.572C10.24 1.61848 10.3034 1.68487 10.3463 1.76424C10.3892 1.8436 10.41 1.93303 10.4066 2.02319C10.4031 2.11334 10.3755 2.20091 10.3266 2.27674L5.81311 9.3409C5.77257 9.40544 5.71792 9.45995 5.65327 9.50032C5.58862 9.54069 5.51565 9.56586 5.43987 9.57394C5.36408 9.58203 5.28744 9.57281 5.21573 9.54699C5.14402 9.52117 5.0791 9.47941 5.02587 9.42487ZM18.6923 1.5H13.4441C13.2336 1.50656 13.0279 1.56451 12.8449 1.66879C12.662 1.77308 12.5073 1.92053 12.3944 2.0983L6.87325 10.7054C6.81151 10.803 6.78513 10.9187 6.7985 11.0333C6.81187 11.148 6.8642 11.2546 6.94673 11.3352L7.51354 11.9125C8.34038 12.7539 8.81043 13.882 8.8256 15.0615V20.3098C8.80827 20.7094 8.9055 21.1057 9.10584 21.452C9.30618 21.7983 9.60129 22.0801 9.95642 22.2643C10.3116 22.4485 10.7119 22.5273 11.1104 22.4916C11.5088 22.4559 11.8888 22.3071 12.2055 22.0627L13.6435 21.013C13.906 20.8281 14.1202 20.5829 14.2682 20.2979C14.4161 20.013 14.4935 19.6966 14.4937 19.3756V15.0405C14.4841 14.4701 14.5951 13.9041 14.8194 13.3795C15.0437 12.8549 15.3763 12.3837 15.7953 11.9965L20.2353 8.03933C20.4825 7.82187 20.6799 7.55363 20.8139 7.25292C20.948 6.95221 21.0156 6.62612 21.0121 6.29691V3.79874C21.0065 3.18715 20.7597 2.6025 20.3252 2.17199C19.8908 1.74149 19.3039 1.49997 18.6923 1.5Z" fill="black"/>
</svg>
