<svg width="24" height="24" viewBox="0 0 24 24" fill="none" xmlns="http://www.w3.org/2000/svg">
<path d="M16.455 1H7.6C5.84957 1 4.17084 1.69536 2.9331 2.9331C1.69536 4.17084 1 5.84957 1 7.6V16.51C1.02886 18.2413 1.73693 19.8919 2.97156 21.106C4.20619 22.32 5.86846 23.0002 7.6 23H16.51C18.2318 22.9714 19.8743 22.2709 21.0868 21.0481C22.2993 19.8253 22.9859 18.177 23 16.455V7.6C23.0001 5.85906 22.3123 4.1886 21.0864 2.95243C19.8605 1.71626 18.1959 1.01451 16.455 1ZM17.5 8.535C17.5061 8.74175 17.4669 8.94732 17.3852 9.13733C17.3035 9.32735 17.1812 9.4972 17.027 9.635L14.31 12C14.0522 12.2342 13.8458 12.5194 13.7038 12.8375C13.5618 13.1556 13.4873 13.4997 13.485 13.848V16.543C13.4873 16.741 13.4415 16.9365 13.3514 17.1128C13.2613 17.2891 13.1298 17.4409 12.968 17.555L12.088 18.171C11.8899 18.309 11.6575 18.3895 11.4165 18.4037C11.1756 18.4179 10.9353 18.3651 10.7225 18.2513C10.5096 18.1374 10.3323 17.9669 10.2103 17.7586C10.0883 17.5503 10.0262 17.3124 10.031 17.071V13.771C10.0376 13.4428 9.97759 13.1167 9.8547 12.8123C9.73182 12.508 9.54857 12.2316 9.316 12L6.907 9.591C6.64564 9.32341 6.49953 8.96406 6.5 8.59V6.995C6.5 6.61866 6.6495 6.25773 6.91562 5.99162C7.18173 5.7255 7.54266 5.576 7.919 5.576H16.081C16.4573 5.576 16.8183 5.7255 17.0844 5.99162C17.3505 6.25773 17.5 6.61866 17.5 6.995V8.535Z" fill="black"/>
</svg>
