<svg width="24" height="24" viewBox="0 0 24 24" fill="none" xmlns="http://www.w3.org/2000/svg">
<path d="M16.3032 1.31008H7.66472C5.96343 1.31008 4.33182 1.98591 3.12883 3.18891C1.92583 4.3919 1.25 6.02351 1.25 7.7248V16.2778C1.25 17.979 1.92583 19.6107 3.12883 20.8136C4.33182 22.0166 5.96343 22.6925 7.66472 22.6925H16.3353C18.0366 22.6925 19.6682 22.0166 20.8712 20.8136C22.0742 19.6107 22.75 17.979 22.75 16.2778V7.7248C22.75 6.8797 22.583 6.04293 22.2587 5.26256C21.9343 4.48219 21.4589 3.77361 20.8598 3.17753C20.2608 2.58145 19.5498 2.10961 18.7679 1.78913C17.9859 1.46866 17.1483 1.30585 16.3032 1.31008ZM8.34896 17.3469H5.88998V13.776C5.88998 13.4386 6.02402 13.115 6.26261 12.8764C6.50121 12.6378 6.82481 12.5038 7.16223 12.5038H8.34896V17.3469ZM13.9939 17.3469H9.96333V7.09402C9.96333 6.75659 10.0974 6.43299 10.336 6.1944C10.5746 5.9558 10.8982 5.82176 11.2356 5.82176H12.7217C13.0591 5.82176 13.3827 5.9558 13.6213 6.1944C13.8599 6.43299 13.9939 6.75659 13.9939 7.09402V17.3469ZM18.0459 17.3469H15.5334V10.6863H16.7736C16.9444 10.6862 17.1134 10.7204 17.2706 10.787C17.4278 10.8536 17.57 10.9512 17.6887 11.0739C17.8074 11.1966 17.9002 11.3419 17.9616 11.5013C18.0229 11.6606 18.0516 11.8306 18.0459 12.0013V17.3469Z" fill="black"/>
</svg>
