<svg width="24" height="24" viewBox="0 0 24 24" fill="none" xmlns="http://www.w3.org/2000/svg">
<path d="M3.87672 22.7499C3.66278 22.7499 3.45761 22.6649 3.30633 22.5137C3.15505 22.3624 3.07007 22.1572 3.07007 21.9433V2.05665C3.07007 1.84271 3.15505 1.63754 3.30633 1.48626C3.45761 1.33499 3.66278 1.25 3.87672 1.25C4.09066 1.25 4.29583 1.33499 4.44711 1.48626C4.59838 1.63754 4.68337 1.84271 4.68337 2.05665V21.9325C4.68628 22.0397 4.66748 22.1465 4.62811 22.2462C4.58874 22.346 4.52961 22.4368 4.45426 22.5131C4.37892 22.5895 4.28892 22.6498 4.18967 22.6905C4.09042 22.7312 3.98397 22.7514 3.87672 22.7499ZM17.7831 8.76798L20.7624 5.04663C20.8629 4.89185 20.922 4.71377 20.9338 4.52956C20.9457 4.34534 20.9099 4.16117 20.8299 3.99479C20.75 3.8284 20.6285 3.6854 20.4773 3.57953C20.3261 3.47366 20.1502 3.4085 19.9665 3.39031H6.29667V14.1457H19.9665C20.1502 14.1275 20.3261 14.0623 20.4773 13.9564C20.6285 13.8506 20.75 13.7076 20.8299 13.5412C20.9099 13.3748 20.9457 13.1906 20.9338 13.0064C20.922 12.8222 20.8629 12.6441 20.7624 12.4893L17.7831 8.76798Z" fill="black"/>
</svg>
