<svg width="24" height="24" viewBox="0 0 24 24" fill="none" xmlns="http://www.w3.org/2000/svg">
<path d="M19.5726 23H4.57234C4.11586 22.9895 3.66998 22.8617 3.27846 22.6291C2.88694 22.3965 2.56324 22.0672 2.33912 21.6733C2.115 21.2795 1.99816 20.8348 2.00008 20.3827C2.00201 19.9307 2.12262 19.4869 2.35008 19.095L5.79459 13.1H18.3504L21.8504 19.095C22.0801 19.491 22.2006 19.9397 22.2001 20.3963C22.1995 20.8529 22.0778 21.3013 21.8471 21.6967C21.6165 22.0921 21.285 22.4206 20.8858 22.6493C20.4867 22.878 20.0338 22.999 19.5726 23ZM8.73909 3.2V8.051L6.43904 12H17.7059L15.4059 8.051V3.2C15.7006 3.2 15.9832 3.08411 16.1916 2.87782C16.3999 2.67153 16.517 2.39174 16.517 2.1C16.517 1.80826 16.3999 1.52847 16.1916 1.32218C15.9832 1.11589 15.7006 1 15.4059 1H8.73909C8.4444 1 8.16178 1.11589 7.9534 1.32218C7.74502 1.52847 7.62795 1.80826 7.62795 2.1C7.62795 2.39174 7.74502 2.67153 7.9534 2.87782C8.16178 3.08411 8.4444 3.2 8.73909 3.2Z" fill="black"/>
</svg>
