<svg width="24" height="24" viewBox="0 0 24 24" fill="none" xmlns="http://www.w3.org/2000/svg">
<path fill-rule="evenodd" clip-rule="evenodd" d="M12.0333 0C12.4188 0 12.7313 0.310808 12.7313 0.694209V2.20556C17.6828 2.54608 21.6395 6.48132 21.9814 11.4057C21.9895 11.4054 21.9976 11.4053 22.0057 11.4053H23.3021C23.6876 11.4053 24.0001 11.7161 24.0001 12.0995C24.0001 12.4829 23.6876 12.7937 23.3021 12.7937H22.0057L21.9933 12.7936L21.9813 12.7933C21.6389 17.7171 17.6824 21.6518 12.7313 21.9923V23.3059C12.7313 23.6893 12.4188 24.0001 12.0333 24.0001C11.6477 24.0001 11.3352 23.6893 11.3352 23.3059V21.9923C6.38406 21.6518 2.42754 17.7171 2.0851 12.7933C2.07716 12.7936 2.06919 12.7937 2.06119 12.7937H0.698053C0.312529 12.7937 0 12.4829 0 12.0995C0 11.7161 0.312529 11.4053 0.698053 11.4053H2.06119C2.06917 11.4053 2.07711 11.4054 2.08502 11.4057C2.42693 6.48129 6.38368 2.54604 11.3352 2.20556V0.694209C11.3352 0.310808 11.6477 0 12.0333 0ZM12.0332 20.3227C7.46623 20.3227 3.76394 16.6408 3.76394 12.0989C3.76394 7.55707 7.46623 3.87517 12.0332 3.87517C16.6002 3.87517 20.3025 7.55707 20.3025 12.0989C20.3025 16.6408 16.6002 20.3227 12.0332 20.3227ZM12.0334 18.0492C15.3379 18.0492 18.0167 15.3851 18.0167 12.0988C18.0167 8.81251 15.3379 6.14844 12.0334 6.14844C8.72887 6.14844 6.05005 8.81251 6.05005 12.0988C6.05005 15.3851 8.72887 18.0492 12.0334 18.0492Z" fill="black"/>
</svg>
