<svg width="24" height="24" viewBox="0 0 24 24" fill="none" xmlns="http://www.w3.org/2000/svg">
<path d="M17.0415 5.66822H13.8166C13.2608 5.66703 12.718 5.49952 12.2582 5.18724C11.7984 4.87496 11.4426 4.43221 11.2366 3.91599L10.9249 3.013C10.7192 2.49135 10.3608 2.04396 9.89665 1.7294C9.43247 1.41483 8.88413 1.24775 8.32341 1.25002H6.17344C4.86766 1.25002 3.61536 1.76874 2.69204 2.69206C1.76872 3.61539 1.25 4.86768 1.25 6.17346V17.0953C1.25 17.8388 1.39661 18.5749 1.68144 19.2617C1.96628 19.9484 2.38374 20.5722 2.90994 21.0974C3.43614 21.6226 4.06075 22.0389 4.74802 22.3224C5.43529 22.6059 6.17172 22.7512 6.91518 22.7497H17.0415C17.7841 22.7568 18.5208 22.6176 19.2095 22.34C19.8983 22.0623 20.5256 21.6518 21.0556 21.1317C21.5857 20.6116 22.0081 19.9922 22.2988 19.3089C22.5895 18.6255 22.7427 17.8916 22.7497 17.1491V11.3334C22.7497 9.83276 22.1543 8.39342 21.0942 7.3313C20.0341 6.26918 18.5959 5.67106 17.0953 5.66822H17.0415ZM15.0206 15.1281L12.4836 17.2781L12.3546 17.3533H12.2686C12.1812 17.3948 12.0859 17.4169 11.9891 17.4178H11.9354H11.7096H11.6129C11.5748 17.4003 11.5387 17.3787 11.5054 17.3533L8.7749 15.1281C8.61876 14.9998 8.51898 14.8155 8.49688 14.6147C8.47479 14.4138 8.53213 14.2123 8.65665 14.0531C8.72834 13.9656 8.81857 13.8952 8.92082 13.8468C9.02308 13.7985 9.13479 13.7735 9.2479 13.7736C9.42222 13.7744 9.59172 13.8309 9.73164 13.9349L11.2151 15.1281V10.8281C11.2374 10.64 11.328 10.4665 11.4696 10.3406C11.6113 10.2147 11.7942 10.1452 11.9837 10.1452C12.1732 10.1452 12.3562 10.2147 12.4978 10.3406C12.6395 10.4665 12.7301 10.64 12.7523 10.8281V15.1281L14.0208 14.0531C14.1735 13.9208 14.3724 13.8545 14.5739 13.8686C14.7754 13.8827 14.9631 13.9761 15.0958 14.1284C15.2039 14.2768 15.2557 14.4589 15.2419 14.6421C15.2282 14.8252 15.1497 14.9975 15.0206 15.1281Z" fill="black"/>
</svg>
