<svg width="24" height="24" viewBox="0 0 24 24" fill="none" xmlns="http://www.w3.org/2000/svg">
<path d="M17.1122 5.67107H13.8694C13.3087 5.67216 12.7605 5.50616 12.2945 5.19426C11.8286 4.88237 11.4662 4.43872 11.2535 3.91994L10.9184 3.01195C10.7062 2.492 10.3442 2.04687 9.87846 1.73314C9.41268 1.41942 8.86414 1.25125 8.30255 1.25001H6.14067C4.83796 1.24708 3.58683 1.75885 2.65962 2.67391C1.73241 3.58897 1.20419 4.83325 1.18994 6.13588V17.075C1.19279 18.5774 1.79011 20.0175 2.85142 21.0809C3.91273 22.1442 5.35175 22.7443 6.85409 22.75H17.1122C17.8589 22.7514 18.5985 22.6057 19.2889 22.3213C19.9793 22.0369 20.6069 21.6193 21.1359 21.0923C21.6648 20.5653 22.0848 19.9393 22.3719 19.2501C22.6589 18.5608 22.8074 17.8217 22.8088 17.075V11.346C22.8074 10.5994 22.6589 9.86029 22.3719 9.171C22.0848 8.48172 21.6648 7.85572 21.1359 7.32875C20.6069 6.80178 19.9793 6.38416 19.2889 6.09974C18.5985 5.81531 17.8589 5.66965 17.1122 5.67107ZM8.55117 14.016C8.42085 13.8613 8.35586 13.6619 8.36999 13.4602C8.38411 13.2584 8.47623 13.07 8.62684 12.935C8.78262 12.8073 8.98137 12.7439 9.18235 12.758C9.38333 12.772 9.57132 12.8625 9.70778 13.0107L11.5021 15.1726L14.2694 11.573C14.3304 11.4928 14.4066 11.4254 14.4937 11.3747C14.5808 11.324 14.677 11.2909 14.7769 11.2773C14.8768 11.2638 14.9783 11.27 15.0758 11.2957C15.1733 11.3214 15.2647 11.3661 15.3449 11.4271C15.4251 11.4881 15.4925 11.5644 15.5432 11.6515C15.594 11.7385 15.6271 11.8348 15.6406 11.9346C15.6542 12.0345 15.6479 12.1361 15.6222 12.2335C15.5965 12.331 15.5519 12.4224 15.4908 12.5026L12.1183 16.8264C12.0495 16.9179 11.9617 16.9933 11.8609 17.0474C11.7601 17.1015 11.6488 17.1331 11.5346 17.1399C11.4212 17.1379 11.3096 17.1117 11.2071 17.0633C11.1046 17.0148 11.0136 16.9451 10.9401 16.8588L8.55117 13.9727V14.016Z" fill="black"/>
</svg>
