<svg width="24" height="24" viewBox="0 0 24 24" fill="none" xmlns="http://www.w3.org/2000/svg">
<path d="M11.2798 3.916L10.925 3.00225C10.7152 2.48431 10.3555 2.04083 9.89198 1.72865C9.42849 1.41646 8.88234 1.24979 8.32351 1.25H6.17351C5.52604 1.25 4.88493 1.3777 4.28688 1.62581C3.68884 1.87391 3.1456 2.23753 2.68827 2.69586C2.23094 3.15419 1.8685 3.69822 1.6217 4.29681C1.3749 4.8954 1.2486 5.53678 1.25001 6.18425V17.074C1.24997 18.5719 1.84207 20.0092 2.89724 21.0724C3.95242 22.1356 5.38511 22.7387 6.88301 22.75H17.0848C17.8296 22.75 18.5672 22.6031 19.2552 22.3177C19.9433 22.0324 20.5683 21.6141 21.0945 21.0869C21.6207 20.5597 22.0378 19.9339 22.3219 19.2453C22.6059 18.5567 22.7514 17.8189 22.75 17.074V11.3443C22.75 9.84074 22.1535 8.39866 21.0914 7.33451C20.0292 6.27036 18.5883 5.6711 17.0848 5.66825H13.8598C13.3046 5.6642 12.7631 5.49554 12.3039 5.18362C11.8446 4.87171 11.4882 4.43056 11.2798 3.916Z" fill="black"/>
</svg>
