<svg width="24" height="24" viewBox="0 0 24 24" fill="none" xmlns="http://www.w3.org/2000/svg">
<path d="M10.8636 0.562709C9.0738 0.771898 7.37587 1.46877 5.95517 2.57724C4.53446 3.68571 3.44558 5.16318 2.8074 6.84837C2.16922 8.53355 2.00626 10.3617 2.33632 12.1332C2.66637 13.9047 3.47676 15.5514 4.67901 16.8937L9.7119 22.4794C10.0034 22.8008 10.3589 23.0577 10.7556 23.2334C11.1523 23.4092 11.5814 23.5 12.0153 23.5C12.4492 23.5 12.8783 23.4092 13.275 23.2334C13.6717 23.0577 14.0272 22.8008 14.3187 22.4794L19.3285 16.8937C20.6539 15.4046 21.4961 13.5482 21.7437 11.5702C21.9914 9.59207 21.6328 7.5854 20.7154 5.81551C19.798 4.04561 18.365 2.59585 16.6059 1.65793C14.8468 0.720006 12.8444 0.338099 10.8636 0.562709ZM12.0153 14.1296C11.2454 14.1296 10.4928 13.9013 9.85261 13.4736C9.21245 13.0459 8.71351 12.4379 8.41888 11.7266C8.12425 11.0153 8.04716 10.2326 8.19736 9.47749C8.34757 8.72238 8.71831 8.02876 9.26272 7.48435C9.80712 6.93995 10.5007 6.5692 11.2559 6.419C12.011 6.2688 12.7937 6.34589 13.505 6.64052C14.2163 6.93515 14.8242 7.43409 15.252 8.07424C15.6797 8.7144 15.908 9.46702 15.908 10.2369C15.908 11.2693 15.4979 12.2595 14.7679 12.9895C14.0378 13.7195 13.0477 14.1296 12.0153 14.1296Z" fill="black"/>
</svg>
