<svg width="24" height="24" viewBox="0 0 24 24" fill="none" xmlns="http://www.w3.org/2000/svg">
<path d="M12 1.64999C10.6211 1.64999 9.25575 1.92158 7.98183 2.44926C6.70791 2.97693 5.5504 3.75036 4.57539 4.72537C2.60626 6.6945 1.50001 9.36522 1.50001 12.15V20.697C1.49917 20.8713 1.54824 21.0423 1.64143 21.1897C1.73462 21.337 1.86804 21.4546 2.02593 21.5286C2.18381 21.6026 2.35957 21.6298 2.53244 21.6071C2.70531 21.5844 2.86808 21.5127 3.00151 21.4005L4.46101 20.1825C4.6282 20.0451 4.83788 19.97 5.05426 19.97C5.27064 19.97 5.48032 20.0451 5.64751 20.1825L7.94701 22.146C8.11332 22.2853 8.32333 22.3616 8.54026 22.3616C8.75718 22.3616 8.9672 22.2853 9.13351 22.146L11.4645 20.172C11.6308 20.0327 11.8408 19.9564 12.0578 19.9564C12.2747 19.9564 12.4847 20.0327 12.651 20.172L14.9085 22.0935C15.0757 22.2309 15.2854 22.3059 15.5018 22.3059C15.7181 22.3059 15.9278 22.2309 16.095 22.0935L18.3525 20.1615C18.5197 20.0241 18.7294 19.949 18.9458 19.949C19.1621 19.949 19.3718 20.0241 19.539 20.1615L20.9985 21.3795C21.1306 21.4906 21.2914 21.562 21.4624 21.5855C21.6334 21.609 21.8075 21.5836 21.9647 21.5121C22.1218 21.4407 22.2555 21.3262 22.3502 21.182C22.445 21.0377 22.4969 20.8696 22.5 20.697V12.15C22.5 9.36522 21.3938 6.6945 19.4246 4.72537C17.4555 2.75624 14.7848 1.64999 12 1.64999ZM12 6.50099C12.4943 6.50099 12.9774 6.64756 13.3884 6.92215C13.7993 7.19674 14.1196 7.58703 14.3088 8.04367C14.4979 8.5003 14.5474 9.00276 14.451 9.48752C14.3546 9.97228 14.1166 10.4176 13.7671 10.767C13.4176 11.1165 12.9723 11.3545 12.4875 11.451C12.0028 11.5474 11.5003 11.4979 11.0437 11.3088C10.587 11.1196 10.1968 10.7993 9.92216 10.3884C9.64757 9.9774 9.50101 9.49425 9.50101 8.99999C9.50377 8.33807 9.76795 7.70404 10.236 7.23599C10.7041 6.76793 11.3381 6.50376 12 6.50099ZM16.536 14.901C15.2415 15.8211 13.6932 16.3165 12.105 16.3185C10.4125 16.2941 8.75946 15.8036 7.32751 14.901C7.24234 14.8413 7.16983 14.7653 7.11418 14.6775C7.05852 14.5896 7.02082 14.4916 7.00325 14.3891C6.98568 14.2866 6.98858 14.1817 7.0118 14.0803C7.03501 13.9789 7.07808 13.8831 7.13851 13.7985C7.25633 13.6389 7.43072 13.5304 7.62594 13.4953C7.82117 13.4602 8.02244 13.501 8.18851 13.6095C9.28535 14.3382 10.5729 14.7269 11.8898 14.7269C13.2066 14.7269 14.4942 14.3382 15.591 13.6095C15.7623 13.4897 15.9741 13.4429 16.1799 13.4794C16.3856 13.5158 16.5685 13.6325 16.6883 13.8037C16.808 13.975 16.8548 14.1868 16.8184 14.3926C16.7819 14.5984 16.6653 14.7812 16.494 14.901H16.536Z" fill="black"/>
</svg>
