<svg width="24" height="24" viewBox="0 0 24 24" fill="none" xmlns="http://www.w3.org/2000/svg">
<path d="M20.5935 11.4404V19.6538C20.5935 20.4731 20.2688 21.259 19.6905 21.8394C19.1122 22.4197 18.3274 22.7472 17.5081 22.75H6.47803C5.65874 22.7472 4.87398 22.4197 4.29566 21.8394C3.71734 21.259 3.39261 20.4731 3.39262 19.6538V11.4404H3.56463H7.14457V15.2998C7.14457 16.0127 7.42773 16.6963 7.93176 17.2003C8.43579 17.7043 9.11941 17.9875 9.83221 17.9875C10.3576 17.9898 10.8712 17.8323 11.305 17.536L11.9931 17.0844L12.6811 17.536C13.1149 17.8323 13.6286 17.9898 14.1539 17.9875C14.8677 17.9875 15.5525 17.7047 16.0582 17.201C16.5639 16.6972 16.8495 16.0136 16.8523 15.2998V11.4619H20.4215L20.5935 11.4404ZM20.4215 4.47402H18.2714C18.3628 4.38311 18.4352 4.27506 18.4847 4.15606C18.5341 4.03707 18.5596 3.90947 18.5596 3.7806C18.5596 3.65174 18.5341 3.52414 18.4847 3.40515C18.4352 3.28615 18.3628 3.1781 18.2714 3.08719L16.7018 1.53911C16.5164 1.35398 16.2651 1.25 16.003 1.25C15.741 1.25 15.4897 1.35398 15.3043 1.53911L12.3694 4.47402H11.6168L8.6819 1.53911C8.49647 1.35398 8.24515 1.25 7.98312 1.25C7.72109 1.25 7.46976 1.35398 7.28433 1.53911L5.74699 3.08719C5.65495 3.17739 5.58163 3.28488 5.53125 3.40349C5.48087 3.5221 5.45442 3.6495 5.45342 3.77837C5.45242 3.90724 5.47689 4.03503 5.52543 4.15441C5.57396 4.27379 5.64561 4.38241 5.73624 4.47402H3.58613C3.34997 4.47117 3.11559 4.51523 2.89659 4.60364C2.67758 4.69205 2.47831 4.82305 2.31031 4.98905C2.14231 5.15505 2.00893 5.35274 1.9179 5.57067C1.82688 5.78861 1.78001 6.02244 1.78003 6.25861V8.05396C1.77861 8.28922 1.82373 8.52244 1.91278 8.7402C2.00183 8.95796 2.13305 9.15596 2.29891 9.32281C2.46477 9.48967 2.66198 9.62209 2.8792 9.71244C3.09642 9.8028 3.32936 9.84931 3.56463 9.84931H20.4215C20.6568 9.84931 20.8897 9.8028 21.107 9.71244C21.3242 9.62209 21.5214 9.48967 21.6873 9.32281C21.8531 9.15596 21.9843 8.95796 22.0734 8.7402C22.1624 8.52244 22.2075 8.28922 22.2061 8.05396V6.25861C22.2061 5.78531 22.0181 5.33139 21.6834 4.99671C21.3488 4.66204 20.8948 4.47402 20.4215 4.47402ZM8.76791 11.4619V15.3214C8.76791 15.6065 8.88117 15.8799 9.08278 16.0815C9.2844 16.2831 9.55784 16.3964 9.84297 16.3964C10.0537 16.3948 10.2593 16.3312 10.4342 16.2136L11.2513 15.6761C11.4746 15.5286 11.7362 15.45 12.0038 15.45C12.2714 15.45 12.5331 15.5286 12.7564 15.6761L13.5734 16.2136C13.7483 16.3312 13.954 16.3948 14.1647 16.3964C14.4498 16.3964 14.7233 16.2831 14.9249 16.0815C15.1265 15.8799 15.2398 15.6065 15.2398 15.3214V11.4619H8.76791Z" fill="black"/>
</svg>
