<svg width="24" height="24" viewBox="0 0 24 24" fill="none" xmlns="http://www.w3.org/2000/svg">
<path d="M21.5977 17.9984L19.2921 12.6113L18.2147 10.1225L16.6524 6.4593H16.8679C17.2237 6.4822 17.5804 6.4319 17.9159 6.31151C18.2515 6.19111 18.5588 6.00318 18.8189 5.75932C19.0789 5.51546 19.2862 5.22086 19.4279 4.89372C19.5697 4.56658 19.6428 4.21386 19.6428 3.85734C19.6428 3.50083 19.5697 3.14811 19.4279 2.82097C19.2862 2.49383 19.0789 2.19923 18.8189 1.95537C18.5588 1.71151 18.2515 1.52357 17.9159 1.40318C17.5804 1.28278 17.2237 1.23248 16.8679 1.25539H7.06742C6.40628 1.29795 5.78613 1.5906 5.33297 2.07388C4.8798 2.55717 4.6276 3.19483 4.6276 3.85734C4.6276 4.51985 4.8798 5.15752 5.33297 5.6408C5.78613 6.12408 6.40628 6.41673 7.06742 6.4593H7.17516L5.59136 10.1225L2.35912 18.0738C2.24546 18.343 2.16584 18.6253 2.12209 18.9142C2.12209 19.0004 2.12209 19.0866 2.12209 19.162C2.10595 19.3556 2.10595 19.5502 2.12209 19.7438C2.11103 19.8224 2.11103 19.9022 2.12209 19.9809C2.14734 20.1678 2.19064 20.3518 2.25138 20.5303C2.25138 20.6165 2.33757 20.6919 2.3699 20.7674C2.44168 20.9343 2.52446 21.0962 2.6177 21.2522C2.6177 21.3276 2.74699 21.403 2.81164 21.4785C2.91082 21.6112 3.01881 21.7372 3.13486 21.8556C3.22105 21.931 3.32879 21.9848 3.41499 22.0603C3.50118 22.1357 3.65202 22.2542 3.79208 22.3296L4.13685 22.4697C4.27608 22.5347 4.42018 22.5887 4.56782 22.6313C4.68634 22.6313 4.8264 22.6313 4.95569 22.6852C5.10992 22.6962 5.26475 22.6962 5.41898 22.6852L11.9784 22.7498H18.484C19.0498 22.7559 19.6081 22.6195 20.1073 22.3533C20.6066 22.087 21.0309 21.6994 21.341 21.2261C21.6512 20.7528 21.8372 20.2091 21.8821 19.6451C21.927 19.081 21.8292 18.5148 21.5977 17.9984ZM8.92057 6.4162H14.907L16.7386 10.7259L17.4174 12.342C16.1124 12.2369 13.8031 12.4824 12.6249 13.0531C11.7638 13.5495 9.81196 13.8681 8.8256 13.9903C7.83924 14.1124 6.8384 14.0355 5.88227 13.7642L7.13207 10.7474L8.92057 6.4162Z" fill="black"/>
</svg>
