<svg width="24" height="24" viewBox="0 0 24 24" fill="none" xmlns="http://www.w3.org/2000/svg">
<path d="M13.6089 22.3775C11.9231 22.6373 10.1994 22.4824 8.58696 21.9264C6.97447 21.3703 5.52173 20.4298 4.35437 19.1862C3.18701 17.9426 2.34019 16.4333 1.88716 14.7889C1.43412 13.1445 1.3885 11.4145 1.75425 9.74846C2.12 8.08247 2.88611 6.53066 3.98631 5.22725C5.0865 3.92384 6.48767 2.90808 8.06861 2.26782C9.64955 1.62756 11.3627 1.38208 13.0598 1.55261C14.7569 1.72314 16.3869 2.30455 17.8089 3.24655C17.9718 3.36222 18.1081 3.51123 18.2089 3.68369C18.3097 3.85615 18.3726 4.04809 18.3935 4.24675C18.4143 4.44541 18.3927 4.64623 18.3299 4.83586C18.2671 5.02549 18.1647 5.19958 18.0294 5.34655L17.0739 6.39655C16.8466 6.63935 16.5411 6.79448 16.2109 6.83479C15.8808 6.8751 15.547 6.79802 15.2679 6.61705C14.4875 6.14484 13.614 5.8477 12.7075 5.74618C11.8011 5.64466 10.8834 5.74117 10.0179 6.02905C8.99631 6.35726 8.07549 6.94096 7.34272 7.72481C6.60996 8.50865 6.08954 9.46667 5.83081 10.508C5.57209 11.5494 5.58362 12.6396 5.86433 13.6752C6.14503 14.7108 6.6856 15.6576 7.43479 16.4258C8.18397 17.194 9.11695 17.7581 10.1452 18.0646C11.1735 18.3711 12.2631 18.4099 13.3106 18.1773C14.3581 17.9447 15.3288 17.4484 16.1308 16.7355C16.9327 16.0225 17.5392 15.1166 17.8929 14.1036H13.6194C13.2407 14.1036 12.8775 13.9531 12.6096 13.6853C12.3418 13.4175 12.1914 13.0543 12.1914 12.6756V11.3106C12.1969 10.9355 12.3498 10.5776 12.617 10.3144C12.8842 10.0511 13.2443 9.90351 13.6194 9.90355H21.0534C21.4303 9.90354 21.7919 10.0525 22.0595 10.3181C22.327 10.5836 22.4786 10.9441 22.4814 11.3211V11.7411C22.4814 16.6971 18.5124 21.6425 13.6089 22.3775Z" fill="black"/>
</svg>
