<svg width="24" height="24" viewBox="0 0 24 24" fill="none" xmlns="http://www.w3.org/2000/svg">
<path d="M16.4183 1.25H7.58175C5.89168 1.28099 4.28132 1.9742 3.09716 3.18047C1.91301 4.38673 1.24972 6.00965 1.25 7.7V16.3C1.24972 17.9904 1.91301 19.6133 3.09716 20.8195C4.28132 22.0258 5.89168 22.719 7.58175 22.75H16.4183C18.1083 22.719 19.7187 22.0258 20.9028 20.8195C22.087 19.6133 22.7503 17.9904 22.75 16.3V7.7C22.7503 6.00965 22.087 4.38673 20.9028 3.18047C19.7187 1.9742 18.1083 1.28099 16.4183 1.25ZM8.0225 19.0843C8.03561 19.1972 8.02467 19.3117 7.99041 19.4201C7.95615 19.5285 7.89933 19.6285 7.82369 19.7134C7.74806 19.7984 7.65531 19.8663 7.55155 19.9128C7.44778 19.9594 7.33535 19.9834 7.22162 19.9834C7.1079 19.9834 6.99547 19.9594 6.8917 19.9128C6.78794 19.8663 6.69519 19.7984 6.61956 19.7134C6.54392 19.6285 6.4871 19.5285 6.45284 19.4201C6.41858 19.3117 6.40764 19.1972 6.42075 19.0843V15.999C6.40764 15.886 6.41858 15.7716 6.45284 15.6631C6.4871 15.5547 6.54392 15.4547 6.61956 15.3698C6.69519 15.2849 6.78794 15.2169 6.8917 15.1704C6.99547 15.1239 7.1079 15.0998 7.22162 15.0998C7.33535 15.0998 7.44778 15.1239 7.55155 15.1704C7.65531 15.2169 7.74806 15.2849 7.82369 15.3698C7.89933 15.4547 7.95615 15.5547 7.99041 15.6631C8.02467 15.7716 8.03561 15.886 8.0225 15.999V19.0843ZM13.1932 19.0843C13.2064 19.1972 13.1954 19.3117 13.1612 19.4201C13.1269 19.5285 13.0701 19.6285 12.9944 19.7134C12.9188 19.7984 12.8261 19.8663 12.7223 19.9128C12.6185 19.9594 12.5061 19.9834 12.3924 19.9834C12.2787 19.9834 12.1662 19.9594 12.0625 19.9128C11.9587 19.8663 11.8659 19.7984 11.7903 19.7134C11.7147 19.6285 11.6579 19.5285 11.6236 19.4201C11.5893 19.3117 11.5784 19.1972 11.5915 19.0843V14.623C11.5784 14.51 11.5893 14.3956 11.6236 14.2871C11.6579 14.1787 11.7147 14.0787 11.7903 13.9938C11.8659 13.9089 11.9587 13.8409 12.0625 13.7944C12.1662 13.7479 12.2787 13.7238 12.3924 13.7238C12.5061 13.7238 12.6185 13.7479 12.7223 13.7944C12.8261 13.8409 12.9188 13.9089 12.9944 13.9938C13.0701 14.0787 13.1269 14.1787 13.1612 14.2871C13.1954 14.3956 13.2064 14.51 13.1932 14.623V19.0843ZM18.2995 19.0843C18.2995 19.2981 18.2146 19.5032 18.0634 19.6544C17.9122 19.8056 17.7071 19.8905 17.4933 19.8905C17.2794 19.8905 17.0743 19.8056 16.9231 19.6544C16.7719 19.5032 16.687 19.2981 16.687 19.0843V11.7528C16.687 11.5389 16.7719 11.3338 16.9231 11.1826C17.0743 11.0314 17.2794 10.9465 17.4933 10.9465C17.7071 10.9465 17.9122 11.0314 18.0634 11.1826C18.2146 11.3338 18.2995 11.5389 18.2995 11.7528V19.0843ZM18.2995 7.7C18.2995 7.91383 18.2146 8.1189 18.0634 8.2701C17.9122 8.42131 17.7071 8.50625 17.4933 8.50625C17.2794 8.50625 17.0743 8.42131 16.9231 8.2701C16.7719 8.1189 16.687 7.91383 16.687 7.7V7.4205C14.3234 10.0836 11.0399 11.7541 7.49575 12.0968C7.29384 12.0736 7.1075 11.977 6.97222 11.8254C6.83694 11.6737 6.76218 11.4776 6.76218 11.2744C6.76218 11.0711 6.83694 10.875 6.97222 10.7234C7.1075 10.5717 7.29384 10.4751 7.49575 10.452C10.7489 10.11 13.7391 8.50878 15.827 5.99075H15.0208C14.8041 5.99075 14.5963 5.90467 14.443 5.75146C14.2898 5.59824 14.2038 5.39043 14.2038 5.17375C14.2038 4.95707 14.2898 4.74926 14.443 4.59604C14.5963 4.44283 14.8041 4.35675 15.0208 4.35675H17.6115H17.7728L17.9233 4.432H17.9985L18.106 4.561C18.1408 4.59962 18.1697 4.64307 18.192 4.69C18.192 4.69 18.192 4.776 18.2458 4.82975V4.991C18.2458 4.991 18.2458 4.991 18.2458 5.0555L18.2995 7.7Z" fill="black"/>
</svg>
