<svg width="24" height="24" viewBox="0 0 24 24" fill="none" xmlns="http://www.w3.org/2000/svg">
<path d="M16.4183 1.25H7.58175C5.89168 1.28099 4.28132 1.9742 3.09716 3.18047C1.91301 4.38673 1.24972 6.00965 1.25 7.7V16.3C1.24972 17.9904 1.91301 19.6133 3.09716 20.8195C4.28132 22.0258 5.89168 22.719 7.58175 22.75H16.4183C18.1083 22.719 19.7187 22.0258 20.9028 20.8195C22.087 19.6133 22.7503 17.9904 22.75 16.3V7.7C22.7503 6.00965 22.087 4.38673 20.9028 3.18047C19.7187 1.9742 18.1083 1.28099 16.4183 1.25ZM6.74325 13.9565C6.74325 14.1703 6.65831 14.3754 6.50711 14.5266C6.3559 14.6778 6.15083 14.7628 5.937 14.7628C5.72317 14.7628 5.5181 14.6778 5.3669 14.5266C5.21569 14.3754 5.13075 14.1703 5.13075 13.9565V10.0435C5.13075 9.82967 5.21569 9.6246 5.3669 9.4734C5.5181 9.32219 5.72317 9.23725 5.937 9.23725C6.15083 9.23725 6.3559 9.32219 6.50711 9.4734C6.65831 9.6246 6.74325 9.82967 6.74325 10.0435V13.9565ZM12.774 16.8053C12.774 17.0191 12.6891 17.2242 12.5379 17.3754C12.3867 17.5266 12.1816 17.6115 11.9678 17.6115C11.7539 17.6115 11.5488 17.5266 11.3976 17.3754C11.2464 17.2242 11.1615 17.0191 11.1615 16.8053V7.19475C11.1615 6.98092 11.2464 6.77585 11.3976 6.62465C11.5488 6.47344 11.7539 6.3885 11.9678 6.3885C12.1816 6.3885 12.3867 6.47344 12.5379 6.62465C12.6891 6.77585 12.774 6.98092 12.774 7.19475V16.8053ZM18.7295 13.9565C18.7295 14.1703 18.6446 14.3754 18.4934 14.5266C18.3422 14.6778 18.1371 14.7628 17.9233 14.7628C17.7094 14.7628 17.5043 14.6778 17.3531 14.5266C17.2019 14.3754 17.117 14.1703 17.117 13.9565V10.0435C17.117 9.82967 17.2019 9.6246 17.3531 9.4734C17.5043 9.32219 17.7094 9.23725 17.9233 9.23725C18.1371 9.23725 18.3422 9.32219 18.4934 9.4734C18.6446 9.6246 18.7295 9.82967 18.7295 10.0435V13.9565Z" fill="black"/>
</svg>
