<svg width="24" height="24" viewBox="0 0 24 24" fill="none" xmlns="http://www.w3.org/2000/svg">
<path d="M7.19001 2H9.00001V22H7.19001C5.81354 22 4.49344 21.4532 3.52013 20.4799C2.54681 19.5066 2.00001 18.1865 2.00001 16.81V7.19C1.99926 6.85413 2.03277 6.51907 2.10001 6.19C2.11759 6.12593 2.1376 6.06255 2.16001 6C2.21152 5.78222 2.27835 5.56836 2.36001 5.36C2.38726 5.27436 2.42068 5.19081 2.46001 5.11C2.57742 4.83336 2.72143 4.56879 2.89001 4.32C3.05696 4.07467 3.24429 3.84386 3.45001 3.63L3.58001 3.5C3.78945 3.29731 4.01337 3.11015 4.25001 2.94L4.37001 2.87C4.59571 2.72383 4.8332 2.59672 5.08001 2.49L5.21001 2.42C5.48653 2.31244 5.77064 2.22553 6.06001 2.16H6.25001C6.55521 2.08175 6.86622 2.02825 7.18001 2H7.19001ZM16.81 2H10.5V22H16.81C18.1865 22 19.5066 21.4532 20.4799 20.4799C21.4532 19.5066 22 18.1865 22 16.81V7.19C22 5.81353 21.4532 4.49343 20.4799 3.52012C19.5066 2.5468 18.1865 2 16.81 2Z" fill="black"/>
</svg>
