<svg width="24" height="24" viewBox="0 0 24 24" fill="none" xmlns="http://www.w3.org/2000/svg">
<path d="M11.2795 20.8868C11.288 21.2446 11.1896 21.5969 10.9967 21.8985C10.8039 22.2 10.5254 22.4372 10.197 22.5796C9.86858 22.722 9.50513 22.7632 9.15318 22.6978C8.80124 22.6325 8.4768 22.4636 8.22139 22.2128C7.96599 21.9619 7.79124 21.6406 7.71952 21.2899C7.6478 20.9392 7.68236 20.5751 7.81879 20.2441C7.95521 19.9132 8.18729 19.6305 8.48532 19.4322C8.78336 19.2339 9.13378 19.1291 9.49174 19.1311C9.96121 19.1282 10.4127 19.3113 10.7477 19.6402C11.0827 19.9692 11.2739 20.4173 11.2795 20.8868V20.8868ZM17.5314 19.1311C17.183 19.1374 16.8443 19.2467 16.5579 19.445C16.2714 19.6434 16.0501 19.9221 15.9216 20.246C15.7932 20.5699 15.7634 20.9245 15.836 21.2653C15.9086 21.6061 16.0804 21.9178 16.3297 22.1611C16.579 22.4045 16.8948 22.5688 17.2372 22.6331C17.5796 22.6975 17.9334 22.6592 18.2541 22.523C18.5748 22.3867 18.8481 22.1587 19.0395 21.8676C19.2309 21.5764 19.332 21.2352 19.3299 20.8868C19.3271 20.6534 19.2784 20.4228 19.1865 20.2083C19.0946 19.9938 18.9613 19.7994 18.7943 19.6364C18.6273 19.4734 18.4298 19.3448 18.2131 19.2581C17.9964 19.1714 17.7648 19.1283 17.5314 19.1311V19.1311ZM20.4968 3.52276H8.17498C8.0052 3.5224 7.83608 3.54399 7.67183 3.58699C7.67637 3.55504 7.67637 3.5226 7.67183 3.49064L6.6013 1.70286C6.52241 1.57267 6.41063 1.46555 6.27721 1.39227C6.14378 1.31898 5.99342 1.2821 5.84123 1.28535H2.19072C2.0724 1.27198 1.95258 1.28374 1.83912 1.31987C1.72565 1.356 1.6211 1.41568 1.53229 1.49501C1.44349 1.57434 1.37244 1.67153 1.32379 1.78022C1.27515 1.88891 1.25 2.00664 1.25 2.12572C1.25 2.2448 1.27515 2.36253 1.32379 2.47122C1.37244 2.57991 1.44349 2.6771 1.53229 2.75643C1.6211 2.83576 1.72565 2.89544 1.83912 2.93157C1.95258 2.9677 2.0724 2.97946 2.19072 2.96608H5.40231L6.21591 4.33636C6.24408 4.39453 6.28011 4.44856 6.32297 4.49694C6.1003 4.8125 5.96714 5.1824 5.93758 5.56747L5.76629 7.78347H22.595L22.7449 5.88863C22.7657 5.58254 22.7227 5.27547 22.6186 4.98686C22.5146 4.69825 22.3517 4.43439 22.1404 4.21199C21.9291 3.98959 21.6739 3.81349 21.3909 3.69485C21.108 3.57621 20.8035 3.51761 20.4968 3.52276ZM5.27385 14.3993C5.25314 14.7045 5.29583 15.0107 5.39924 15.2986C5.50265 15.5864 5.66454 15.8498 5.87471 16.072C6.08488 16.2942 6.33879 16.4706 6.62044 16.5899C6.90209 16.7092 7.2054 16.7689 7.51126 16.7652H19.8438C20.4052 16.7673 20.947 16.5582 21.3614 16.1794C21.7759 15.8007 22.0328 15.2799 22.0812 14.7205L22.4666 9.4642H5.61642L5.27385 14.3993Z" fill="black"/>
</svg>
