<svg width="24" height="24" viewBox="0 0 24 24" fill="none" xmlns="http://www.w3.org/2000/svg">
<path d="M12 1C9.82441 1 7.69767 1.64514 5.88873 2.85383C4.07979 4.06253 2.66989 5.78049 1.83733 7.79048C1.00477 9.80047 0.78693 12.0122 1.21137 14.146C1.6358 16.2798 2.68345 18.2398 4.22183 19.7782C5.76021 21.3165 7.72022 22.3642 9.85401 22.7886C11.9878 23.2131 14.1995 22.9952 16.2095 22.1627C18.2195 21.3301 19.9375 19.9202 21.1462 18.1113C22.3549 16.3023 23 14.1756 23 12C23 10.5555 22.7155 9.12506 22.1627 7.79048C21.6099 6.4559 20.7996 5.24327 19.7782 4.22182C18.7567 3.20038 17.5441 2.39013 16.2095 1.83732C14.8749 1.28452 13.4445 1 12 1ZM16.818 17.313C15.4646 18.2728 13.8462 18.788 12.187 18.787C10.4149 18.7647 8.68328 18.2547 7.182 17.313C7.01728 17.188 6.90475 17.0063 6.86615 16.8032C6.82755 16.6 6.86562 16.3897 6.973 16.213C7.09643 16.0458 7.27913 15.9322 7.48365 15.8954C7.68817 15.8586 7.89902 15.9014 8.073 16.015C9.22533 16.7753 10.5755 17.1805 11.956 17.1805C13.3365 17.1805 14.6867 16.7753 15.839 16.015C16.0135 15.8998 16.226 15.8571 16.4314 15.8962C16.6369 15.9352 16.8189 16.0528 16.939 16.224C17.058 16.388 17.1115 16.5905 17.0892 16.7919C17.0668 16.9933 16.9701 17.1791 16.818 17.313Z" fill="black"/>
</svg>
