<svg width="24" height="24" viewBox="0 0 24 24" fill="none" xmlns="http://www.w3.org/2000/svg">
<path d="M22.75 8.83571C22.6129 16.9796 15.3657 20.4396 12.8234 21.3996C12.5625 21.4987 12.2847 21.545 12.0058 21.5359C11.727 21.5269 11.4527 21.4626 11.1988 21.3468C8.6987 20.2076 1.1456 16.22 1.25109 8.9201C1.2456 7.50141 1.71064 6.12093 2.57343 4.99473C3.43621 3.86853 4.64804 3.06018 6.01925 2.69618C6.94644 2.4461 7.91588 2.39387 8.86457 2.5429C9.81326 2.69193 10.72 3.03887 11.5258 3.5612C11.6685 3.65468 11.8353 3.70448 12.0058 3.70448C12.1764 3.70448 12.3432 3.65468 12.4858 3.5612C13.3648 2.99502 14.3616 2.63704 15.4 2.51455C16.4383 2.39207 17.491 2.50831 18.4776 2.85441C19.7128 3.29977 20.7831 4.11057 21.5463 5.179C22.3095 6.24744 22.7293 7.52287 22.75 8.83571Z" fill="black"/>
</svg>
