<svg width="24" height="24" viewBox="0 0 24 24" fill="none" xmlns="http://www.w3.org/2000/svg">
<path d="M21.3727 8.08493L14.5688 2.36324C13.9136 1.80372 13.0849 1.48836 12.2235 1.47078C11.362 1.4532 10.5211 1.73448 9.84363 2.26681L2.71831 7.79563C2.20719 8.18867 1.8057 8.70651 1.55239 9.29944C1.29908 9.89237 1.20247 10.5405 1.27182 11.1815L2.21472 19.2283C2.32238 20.1384 2.76052 20.9773 3.44592 21.5856C4.13133 22.194 5.01628 22.5295 5.93274 22.5284H17.6225C18.5001 22.526 19.3486 22.2141 20.0189 21.6477C20.6892 21.0813 21.1382 20.2967 21.287 19.4319L22.7013 11.5672C22.8071 10.9212 22.7398 10.2586 22.5064 9.64697C22.2731 9.03532 21.8819 8.49637 21.3727 8.08493ZM11.9866 15.9281C11.4415 15.9281 10.9087 15.7663 10.4556 15.4633C10.0025 15.1602 9.64959 14.7295 9.44149 14.2257C9.23339 13.7219 9.17948 13.1677 9.28661 12.6333C9.39373 12.0988 9.65706 11.6082 10.0432 11.2235C10.4294 10.8388 10.9211 10.5774 11.456 10.4724C11.9908 10.3673 12.5448 10.4234 13.0478 10.6334C13.5508 10.8435 13.9801 11.1981 14.2814 11.6524C14.5827 12.1066 14.7424 12.6401 14.7403 13.1852C14.7374 13.9136 14.4461 14.6113 13.93 15.1254C13.4138 15.6395 12.7151 15.9281 11.9866 15.9281Z" fill="black"/>
</svg>
