<svg width="24" height="24" viewBox="0 0 24 24" fill="none" xmlns="http://www.w3.org/2000/svg">
<path d="M20.3444 7.15121L14.8996 2.3615C14.1075 1.67679 13.0954 1.3 12.0483 1.3C11.0013 1.3 9.98919 1.67679 9.19705 2.3615L3.72003 7.07603C2.94453 7.73922 2.3221 8.56272 1.89566 9.48974C1.46923 10.4168 1.24895 11.4253 1.25 12.4457L1.27148 18.4704C1.28561 19.6003 1.74442 20.6792 2.54849 21.4733C3.35257 22.2673 4.43714 22.7125 5.56719 22.7124H18.4543C19.5807 22.7126 20.6621 22.2703 21.4655 21.4809C22.269 20.6915 22.7303 19.6181 22.75 18.4919V12.4671C22.7479 11.4613 22.5324 10.4674 22.1177 9.55101C21.703 8.63464 21.0986 7.81669 20.3444 7.15121ZM12.8269 19.6517C12.8269 19.8653 12.7421 20.0702 12.591 20.2212C12.44 20.3723 12.2351 20.4571 12.0215 20.4571C11.8079 20.4571 11.603 20.3723 11.4519 20.2212C11.3009 20.0702 11.216 19.8653 11.216 19.6517V16.5803C11.216 16.3667 11.3009 16.1618 11.4519 16.0107C11.603 15.8597 11.8079 15.7748 12.0215 15.7748C12.2351 15.7748 12.44 15.8597 12.591 16.0107C12.7421 16.1618 12.8269 16.3667 12.8269 16.5803V19.6517Z" fill="black"/>
</svg>
