<svg width="24" height="24" viewBox="0 0 24 24" fill="none" xmlns="http://www.w3.org/2000/svg">
<path d="M18.7899 1H5.21422C4.82858 0.999454 4.44714 1.08001 4.09465 1.23644C3.74217 1.39287 3.42652 1.62168 3.1682 1.90801C2.90988 2.19434 2.71466 2.5318 2.59521 2.89847C2.47577 3.26514 2.43477 3.65283 2.47488 4.03638L4.03707 19.0312C4.09127 19.5759 4.30805 20.0917 4.65924 20.5116C5.01043 20.9314 5.47979 21.2359 6.00631 21.3855L11.243 22.8927C11.7389 23.0358 12.2652 23.0358 12.7612 22.8927L18.0198 21.3855C18.5478 21.2331 19.0182 20.9266 19.371 20.5052C19.7238 20.0838 19.9428 19.5668 20.0001 19.0202L21.5292 4.03638C21.5693 3.65283 21.5283 3.26514 21.4089 2.89847C21.2895 2.5318 21.0942 2.19434 20.8359 1.90801C20.5776 1.62168 20.2619 1.39287 19.9095 1.23644C19.557 1.08001 19.1755 0.999454 18.7899 1ZM16.5896 7.08376H8.3056L8.63564 10.3842L16.0396 10.5382C16.1518 10.5408 16.2624 10.5663 16.3645 10.6132C16.4665 10.6601 16.558 10.7273 16.6331 10.8107C16.7083 10.8941 16.7657 10.992 16.8017 11.0984C16.8377 11.2047 16.8517 11.3174 16.8427 11.4293L16.4026 16.5779C16.3885 16.7403 16.3267 16.8949 16.2249 17.0221C16.1231 17.1494 15.9859 17.2437 15.8305 17.293L12.0021 18.5252C11.9185 18.541 11.8326 18.541 11.749 18.5252C11.6724 18.5359 11.5946 18.5359 11.518 18.5252L8.00856 17.5021C7.8583 17.4595 7.72344 17.3747 7.62006 17.2577C7.51668 17.1406 7.44914 16.9963 7.42549 16.842L7.08445 14.7957C7.0534 14.6848 7.04591 14.5687 7.06246 14.4547C7.07901 14.3407 7.11923 14.2315 7.18054 14.134C7.24184 14.0365 7.32287 13.953 7.41841 13.8887C7.51396 13.8244 7.6219 13.7808 7.7353 13.7608C7.84869 13.7407 7.96503 13.7446 8.07683 13.7722C8.18862 13.7998 8.2934 13.8506 8.38442 13.9211C8.47545 13.9916 8.55069 14.0804 8.60533 14.1818C8.65996 14.2832 8.69277 14.3949 8.70165 14.5097L8.95468 16.0499L11.771 16.875L14.8184 15.8959L15.1154 12.1444L7.87655 12.0014C7.67424 11.9969 7.48064 11.9181 7.33257 11.7802C7.1845 11.6423 7.09228 11.4548 7.07345 11.2533L6.56738 6.34667C6.55186 6.22983 6.56121 6.11104 6.59482 5.99807C6.62843 5.88511 6.68555 5.78052 6.76243 5.69118C6.8393 5.60184 6.93419 5.52976 7.04088 5.47968C7.14757 5.42959 7.26364 5.40262 7.38149 5.40055H16.6226C16.8415 5.40055 17.0513 5.48748 17.2061 5.64222C17.3608 5.79695 17.4477 6.00682 17.4477 6.22565C17.4477 6.44448 17.3608 6.65435 17.2061 6.80909C17.0513 6.96382 16.8415 7.05076 16.6226 7.05076L16.5896 7.08376Z" fill="black"/>
</svg>
