<svg width="24" height="24" viewBox="0 0 24 24" fill="none" xmlns="http://www.w3.org/2000/svg">
<path d="M22.3199 10.3827L20.7915 8.8315C20.6849 8.72703 20.6007 8.60195 20.544 8.46388C20.4873 8.32581 20.4592 8.17764 20.4616 8.02838V5.82803C20.4601 5.52659 20.3992 5.2284 20.2822 4.95059C20.1653 4.67278 19.9946 4.42084 19.78 4.20922C19.5654 3.9976 19.3112 3.83049 19.0319 3.71747C18.7525 3.60446 18.4536 3.54778 18.1524 3.55068H15.9531C15.8039 3.55303 15.6558 3.52498 15.5178 3.46824C15.3798 3.4115 15.2548 3.32725 15.1504 3.22063L13.6109 1.66938C13.1821 1.24076 12.6007 1 11.9945 1C11.3883 1 10.8069 1.24076 10.378 1.66938L8.82758 3.19862C8.72316 3.30525 8.59814 3.38949 8.46014 3.44623C8.32214 3.50297 8.17404 3.53102 8.02486 3.52868H5.82561C5.52432 3.53011 5.22628 3.59109 4.94861 3.70811C4.67094 3.82513 4.41912 3.99589 4.20761 4.21058C3.9961 4.42526 3.82907 4.67964 3.71611 4.9591C3.60315 5.23856 3.5465 5.5376 3.5494 5.83904V8.03938C3.55175 8.18864 3.52371 8.33681 3.467 8.47488C3.41029 8.61295 3.32608 8.73803 3.21951 8.84251L1.66905 10.3827C1.24064 10.8118 1 11.3935 1 12C1 12.6065 1.24064 13.1882 1.66905 13.6173L3.19752 15.1685C3.30409 15.273 3.38829 15.398 3.44501 15.5361C3.50172 15.6742 3.52976 15.8224 3.52741 15.9716V18.172C3.52884 18.4734 3.58979 18.7716 3.70676 19.0494C3.82372 19.3272 3.99439 19.5792 4.20897 19.7908C4.42354 20.0024 4.6778 20.1695 4.95712 20.2825C5.23644 20.3955 5.53533 20.4522 5.83661 20.4493H8.03585C8.18503 20.447 8.33313 20.475 8.47113 20.5318C8.60914 20.5885 8.73415 20.6728 8.83857 20.7794L10.389 22.3306C10.8179 22.7592 11.3993 23 12.0055 23C12.6117 23 13.1931 22.7592 13.6219 22.3306L15.1614 20.8014C15.2658 20.6948 15.3908 20.6105 15.5288 20.5538C15.6668 20.497 15.8149 20.469 15.9641 20.4713H18.1634C18.77 20.4713 19.3517 20.2302 19.7807 19.8011C20.2096 19.3719 20.4506 18.7899 20.4506 18.183V15.9826C20.4482 15.8334 20.4763 15.6852 20.533 15.5471C20.5897 15.409 20.6739 15.284 20.7805 15.1795L22.3309 13.6283C22.544 13.4149 22.7128 13.1614 22.8276 12.8826C22.9424 12.6037 23.001 12.3048 23 12.0032C22.999 11.7016 22.9384 11.4032 22.8216 11.1251C22.7049 10.847 22.5344 10.5947 22.3199 10.3827ZM10.8949 7.31327C10.8949 7.02148 11.0107 6.74165 11.2169 6.53533C11.4232 6.32901 11.7028 6.21309 11.9945 6.21309C12.2861 6.21309 12.5658 6.32901 12.772 6.53533C12.9783 6.74165 13.0941 7.02148 13.0941 7.31327V12.4401C13.0941 12.7319 12.9783 13.0117 12.772 13.218C12.5658 13.4243 12.2861 13.5402 11.9945 13.5402C11.7028 13.5402 11.4232 13.4243 11.2169 13.218C11.0107 13.0117 10.8949 12.7319 10.8949 12.4401V7.31327ZM11.9945 17.7869C11.7231 17.7869 11.4578 17.7065 11.232 17.5559C11.0062 17.4053 10.83 17.1911 10.7257 16.9405C10.6213 16.6898 10.5935 16.4139 10.6456 16.1474C10.6978 15.881 10.8276 15.6359 11.0187 15.4431C11.2099 15.2504 11.4537 15.1186 11.7197 15.0643C11.9856 15.01 12.2616 15.0356 12.5129 15.138C12.7643 15.2404 12.9797 15.415 13.132 15.6397C13.2844 15.8644 13.3668 16.1292 13.369 16.4007C13.3705 16.5822 13.336 16.7622 13.2676 16.9303C13.1991 17.0985 13.0981 17.2514 12.9703 17.3802C12.8425 17.5091 12.6905 17.6114 12.523 17.6812C12.3556 17.751 12.1759 17.7869 11.9945 17.7869Z" fill="black"/>
</svg>
