<svg width="24" height="24" viewBox="0 0 24 24" fill="none" xmlns="http://www.w3.org/2000/svg">
<path d="M12 1C9.82441 1 7.69767 1.64514 5.88873 2.85383C4.07979 4.06253 2.66989 5.78049 1.83733 7.79048C1.00477 9.80047 0.78693 12.0122 1.21137 14.146C1.6358 16.2798 2.68345 18.2398 4.22183 19.7782C5.76021 21.3165 7.72022 22.3642 9.85401 22.7886C11.9878 23.2131 14.1995 22.9952 16.2095 22.1627C18.2195 21.3301 19.9375 19.9202 21.1462 18.1113C22.3549 16.3023 23 14.1756 23 12C23 10.5555 22.7155 9.12506 22.1627 7.79048C21.6099 6.4559 20.7996 5.24327 19.7782 4.22182C18.7567 3.20038 17.5441 2.39013 16.2095 1.83732C14.8749 1.28452 13.4445 1 12 1ZM10.9 7.314C10.9 7.02226 11.0159 6.74247 11.2222 6.53618C11.4285 6.32989 11.7083 6.214 12 6.214C12.2917 6.214 12.5715 6.32989 12.7778 6.53618C12.9841 6.74247 13.1 7.02226 13.1 7.314V12.44C13.1 12.7317 12.9841 13.0115 12.7778 13.2178C12.5715 13.4241 12.2917 13.54 12 13.54C11.7083 13.54 11.4285 13.4241 11.2222 13.2178C11.0159 13.0115 10.9 12.7317 10.9 12.44V7.314ZM12 17.786C11.7285 17.786 11.4631 17.7056 11.2372 17.555C11.0114 17.4044 10.8351 17.1903 10.7308 16.9397C10.6264 16.6891 10.5985 16.4132 10.6507 16.1468C10.7028 15.8803 10.8327 15.6353 11.0239 15.4426C11.2151 15.2499 11.4591 15.1181 11.7251 15.0638C11.9911 15.0095 12.2672 15.0351 12.5186 15.1375C12.77 15.2399 12.9855 15.4144 13.1379 15.6391C13.2903 15.8638 13.3728 16.1285 13.375 16.4C13.3765 16.5815 13.342 16.7615 13.2735 16.9296C13.2051 17.0977 13.104 17.2505 12.9762 17.3794C12.8484 17.5082 12.6963 17.6105 12.5287 17.6803C12.3612 17.7501 12.1815 17.786 12 17.786Z" fill="black"/>
</svg>
