<svg width="24" height="24" viewBox="0 0 24 24" fill="none" xmlns="http://www.w3.org/2000/svg">
<path d="M22.0572 15.492V8.50803C22.0584 7.80225 21.8732 7.10868 21.5203 6.49744C21.1675 5.8862 20.6595 5.37897 20.0477 5.02705L14.0081 1.53508C13.3964 1.18447 12.7036 1 11.9986 1C11.2935 1 10.6007 1.18447 9.98904 1.53508L3.94948 5.02705C3.33769 5.37897 2.82969 5.8862 2.47683 6.49744C2.12397 7.10868 1.93876 7.80225 1.93995 8.50803V15.492C1.93876 16.1977 2.12397 16.8913 2.47683 17.5026C2.82969 18.1138 3.33769 18.621 3.94948 18.973L9.98904 22.4649C10.6007 22.8155 11.2935 23 11.9986 23C12.7036 23 13.3964 22.8155 14.0081 22.4649L20.0477 18.973C20.6595 18.621 21.1675 18.1138 21.5203 17.5026C21.8732 16.8913 22.0584 16.1977 22.0572 15.492ZM10.9005 11.5608C10.9005 11.2695 11.0162 10.9902 11.2221 10.7843C11.428 10.5783 11.7073 10.4627 11.9986 10.4627C12.2898 10.4627 12.5691 10.5783 12.775 10.7843C12.981 10.9902 13.0967 11.2695 13.0967 11.5608V16.6779C13.0967 16.9692 12.981 17.2485 12.775 17.4544C12.5691 17.6603 12.2898 17.776 11.9986 17.776C11.7073 17.776 11.428 17.6603 11.2221 17.4544C11.0162 17.2485 10.9005 16.9692 10.9005 16.6779V11.5608ZM13.3712 7.60759C13.369 7.87859 13.2867 8.14289 13.1346 8.36717C12.9824 8.59144 12.7673 8.76567 12.5163 8.86788C12.2653 8.97008 11.9897 8.99571 11.7241 8.94151C11.4586 8.88731 11.215 8.75572 11.0242 8.56333C10.8333 8.37093 10.7037 8.12634 10.6516 7.86038C10.5995 7.59442 10.6273 7.319 10.7315 7.06882C10.8357 6.81864 11.0117 6.60491 11.2371 6.45457C11.4626 6.30422 11.7276 6.22399 11.9986 6.22398C12.1798 6.22397 12.3591 6.25984 12.5264 6.3295C12.6937 6.39917 12.8455 6.50126 12.9731 6.62989C13.1007 6.75851 13.2016 6.91113 13.2699 7.07893C13.3382 7.24674 13.3727 7.42641 13.3712 7.60759Z" fill="black"/>
</svg>
