<svg width="24" height="24" viewBox="0 0 24 24" fill="none" xmlns="http://www.w3.org/2000/svg">
<path d="M15.9884 1.25003H7.93663C7.05542 1.2486 6.18265 1.42164 5.36866 1.75918C4.55466 2.09671 3.81554 2.59207 3.19394 3.21667C2.57233 3.84128 2.08054 4.58277 1.74692 5.39838C1.4133 6.21399 1.24446 7.08759 1.25014 7.96877V15.9883C1.24448 16.8715 1.41301 17.7472 1.74611 18.5652C2.07921 19.3832 2.57032 20.1275 3.19136 20.7555C3.81241 21.3836 4.55118 21.883 5.36542 22.2252C6.17967 22.5675 7.0534 22.7458 7.93663 22.75H15.9884C17.7808 22.7472 19.499 22.0338 20.7665 20.7664C22.034 19.4989 22.7473 17.7807 22.7501 15.9883V7.96877C22.7473 7.08363 22.5702 6.20771 22.2288 5.39103C21.8875 4.57434 21.3886 3.83289 20.7607 3.20899C20.1329 2.5851 19.3882 2.09099 18.5694 1.75487C17.7505 1.41875 16.8735 1.24721 15.9884 1.25003ZM15.8486 12C15.8486 12.7715 15.6192 13.5256 15.1897 14.1664C14.7601 14.8073 14.1498 15.306 13.4362 15.5992C12.7226 15.8925 11.938 15.967 11.182 15.8133C10.4259 15.6596 9.73266 15.2847 9.19017 14.7362C8.64769 14.1876 8.2805 13.4902 8.13523 12.7325C7.98997 11.9748 8.0732 11.1911 8.37434 10.4808C8.67548 9.77049 9.18095 9.16574 9.82653 8.74335C10.4721 8.32096 11.2287 8.1 12.0001 8.10852C12.5083 8.11134 13.011 8.21423 13.4795 8.41132C13.9479 8.60841 14.373 8.89584 14.7303 9.2572C15.0877 9.61856 15.3704 10.0468 15.5623 10.5174C15.7541 10.988 15.8514 11.4918 15.8486 12ZM18.2889 6.77553C18.0762 6.77553 17.8684 6.71248 17.6916 6.59436C17.5148 6.47623 17.3771 6.30834 17.2957 6.11191C17.2143 5.91548 17.193 5.69933 17.2345 5.49081C17.276 5.28228 17.3784 5.09073 17.5287 4.94039C17.6791 4.79005 17.8706 4.68766 18.0791 4.64618C18.2877 4.60471 18.5038 4.62599 18.7002 4.70736C18.8967 4.78872 19.0646 4.92651 19.1827 5.10329C19.3008 5.28007 19.3639 5.48791 19.3639 5.70053C19.3582 5.98189 19.2425 6.24983 19.0415 6.4468C18.8405 6.64378 18.5703 6.75408 18.2889 6.75403V6.77553Z" fill="black"/>
</svg>
