<svg width="24" height="24" viewBox="0 0 24 24" fill="none" xmlns="http://www.w3.org/2000/svg">
<path d="M11.9971 23.2494C11.6557 23.2519 11.3202 23.1607 11.027 22.9858L8.83379 21.731C8.65805 21.6273 8.52919 21.4596 8.47417 21.2631C8.41915 21.0666 8.44222 20.8565 8.53856 20.6766C8.64407 20.5028 8.8117 20.3756 9.00748 20.3208C9.20326 20.266 9.41256 20.2876 9.59298 20.3813L11.7651 21.6361C11.8196 21.6676 11.8814 21.6841 11.9443 21.6841C12.0073 21.6841 12.0691 21.6676 12.1236 21.6361L20.1899 16.9861C20.2459 16.9538 20.2926 16.9079 20.3258 16.8525C20.3591 16.7972 20.3776 16.7343 20.3797 16.6698V7.32757C20.3776 7.26305 20.3591 7.20015 20.3258 7.1448C20.2926 7.08945 20.2459 7.04348 20.1899 7.01124L12.1763 2.36123C12.1218 2.32977 12.06 2.3132 11.9971 2.3132C11.9341 2.3132 11.8723 2.32977 11.8178 2.36123L3.75147 7.01124C3.69555 7.04348 3.64878 7.08945 3.61557 7.1448C3.58236 7.20015 3.56381 7.26305 3.56168 7.32757V16.4483C3.56225 16.5728 3.59571 16.6949 3.65867 16.8023C3.72163 16.9097 3.81184 16.9986 3.92018 17.0599L6.02903 18.2725C6.15412 18.3423 6.29526 18.3782 6.43849 18.3766C6.58172 18.3751 6.72207 18.3362 6.84564 18.2638C6.96921 18.1913 7.07172 18.0879 7.14302 17.9636C7.21432 17.8394 7.25194 17.6987 7.25216 17.5555L7.17835 8.62451C7.18108 8.41562 7.26528 8.21605 7.413 8.06833C7.56071 7.92062 7.76028 7.83642 7.96917 7.83369C8.07252 7.83229 8.17512 7.85144 8.271 7.89003C8.36689 7.92862 8.45416 7.98587 8.52773 8.05846C8.60131 8.13106 8.65973 8.21755 8.6996 8.31291C8.73947 8.40827 8.75999 8.5106 8.75998 8.61396L8.83379 17.5555C8.84294 17.9816 8.73712 18.4023 8.52745 18.7734C8.31778 19.1445 8.01202 19.4523 7.6423 19.6643C7.27903 19.8817 6.8636 19.9965 6.44025 19.9965C6.0169 19.9965 5.60148 19.8817 5.23821 19.6643L3.12937 18.4623C2.77722 18.2577 2.48543 17.9637 2.28359 17.61C2.08174 17.2563 1.97702 16.8556 1.98004 16.4483V7.32757C1.98568 6.98883 2.07897 6.65732 2.25083 6.36536C2.42268 6.07339 2.66723 5.83092 2.96066 5.66158L11.027 1.01157C11.3216 0.84025 11.6563 0.75 11.9971 0.75C12.3378 0.75 12.6725 0.84025 12.9671 1.01157L21.0335 5.66158C21.3299 5.83274 21.5765 6.07853 21.7485 6.3745C21.9205 6.67047 22.0121 7.00632 22.0141 7.34866V16.6698C22.0121 17.0121 21.9205 17.3479 21.7485 17.6439C21.5765 17.9399 21.3299 18.1857 21.0335 18.3568L12.9671 23.0068C12.6719 23.1744 12.3365 23.2583 11.9971 23.2494ZM17.5644 12.6102C17.4093 12.3122 17.1851 12.0555 16.9107 11.8616C16.5845 11.6472 16.2295 11.4803 15.8563 11.366C15.422 11.211 14.9783 11.0842 14.5277 10.9864L13.6947 10.7544C13.5175 10.7065 13.3474 10.6356 13.1886 10.5436C13.0338 10.4681 12.8998 10.3559 12.7984 10.2167C12.705 10.0883 12.6567 9.93255 12.6614 9.77383C12.6636 9.62928 12.7025 9.48767 12.7744 9.36226C12.8464 9.23686 12.949 9.13176 13.0726 9.05682C13.3849 8.85027 13.7526 8.74362 14.127 8.75104C14.4992 8.72249 14.8703 8.81897 15.1814 9.02519C15.4224 9.23959 15.6163 9.5017 15.7508 9.79492C15.8401 9.97478 15.9536 10.1415 16.0882 10.2905C16.2191 10.3957 16.3845 10.4484 16.5522 10.4381C16.6567 10.4398 16.7603 10.418 16.8552 10.3742C16.9501 10.3303 17.034 10.2657 17.1005 10.1851C17.2431 10.034 17.3223 9.83396 17.3219 9.62621C17.3562 9.3897 17.3382 9.14855 17.2692 8.91975C17.1334 8.65436 16.943 8.42076 16.7103 8.23437C16.4259 7.99491 16.0959 7.81556 15.7403 7.70716C15.2946 7.56216 14.8275 7.4944 14.359 7.50682C13.7604 7.47744 13.1619 7.56704 12.5981 7.77042C12.144 7.93924 11.7485 8.23587 11.4593 8.62451C11.2018 8.99987 11.0656 9.44518 11.0692 9.90036C11.0538 10.349 11.1873 10.7902 11.4488 11.1551C11.7047 11.5031 12.0461 11.7791 12.4399 11.9565C12.9468 12.1735 13.4728 12.3429 14.011 12.4626C14.3852 12.5447 14.7548 12.6468 15.1182 12.7684C15.3761 12.849 15.6111 12.9899 15.8035 13.1796C15.9794 13.3679 16.0741 13.6179 16.0671 13.8755C16.0693 14.0565 16.0248 14.235 15.9381 14.3938C15.8513 14.5526 15.725 14.6864 15.5716 14.7823C15.2028 15.043 14.7574 15.173 14.3062 15.1514C13.9909 15.161 13.6774 15.0998 13.3889 14.9721C13.1741 14.8643 12.9893 14.7049 12.8511 14.5082C12.7082 14.2928 12.5881 14.0631 12.4926 13.8228C12.4228 13.6256 12.3114 13.4458 12.1658 13.2956C12.0369 13.1764 11.8667 13.1121 11.6913 13.1163C11.588 13.1133 11.4851 13.1313 11.389 13.1694C11.2929 13.2075 11.2056 13.2648 11.1324 13.3378C11.0612 13.4101 11.005 13.4957 10.967 13.5898C10.929 13.6839 10.9099 13.7846 10.911 13.8861C10.9214 14.2934 11.0496 14.6889 11.2801 15.0249C11.5199 15.4074 11.8492 15.7258 12.2396 15.9527C12.8872 16.2984 13.6149 16.4657 14.3484 16.4378C14.987 16.4678 15.6244 16.3562 16.2148 16.1109C16.6926 15.9115 17.1027 15.5783 17.3957 15.1514C17.6637 14.7293 17.8029 14.2384 17.7964 13.7385C17.8125 13.3491 17.7328 12.9617 17.5644 12.6102Z" fill="black"/>
</svg>
