<svg width="24" height="24" viewBox="0 0 24 24" fill="none" xmlns="http://www.w3.org/2000/svg">
<path d="M13.1452 1.32089C11.5706 1.61959 10.1201 2.37877 8.97733 3.50231C7.83452 4.62585 7.05078 6.06322 6.72535 7.63244C6.44558 8.99977 6.52012 10.4159 6.94187 11.7463L1.60465 17.0835C1.44428 17.2464 1.32597 17.4458 1.25995 17.6646C1.19393 17.8834 1.18219 18.115 1.22575 18.3393L1.74539 21.0567C1.8021 21.3224 1.9345 21.566 2.1266 21.7581C2.3187 21.9502 2.5623 22.0826 2.82799 22.1393L5.59945 22.7347C5.82467 22.7788 6.05733 22.7663 6.27652 22.6983C6.49572 22.6302 6.69458 22.5088 6.85526 22.345L8.0786 21.1216C8.13068 21.0721 8.17214 21.0125 8.20048 20.9464C8.22881 20.8803 8.24342 20.8092 8.24342 20.7373C8.24342 20.6654 8.22881 20.5943 8.20048 20.5282C8.17214 20.4622 8.13068 20.4025 8.0786 20.353L6.1624 18.5126C6.01471 18.3559 5.93246 18.1487 5.93246 17.9334C5.93246 17.7181 6.01471 17.5109 6.1624 17.3542C6.316 17.2047 6.52186 17.1211 6.73617 17.1211C6.95049 17.1211 7.15635 17.2047 7.30995 17.3542L9.26946 19.2379C9.37064 19.3371 9.50668 19.3926 9.64837 19.3926C9.79005 19.3926 9.92609 19.3371 10.0273 19.2379L12.1925 17.0727C13.3692 17.4539 14.6176 17.5608 15.8421 17.3853C17.0666 17.2097 18.2346 16.7563 19.2569 16.0598C20.2791 15.3634 21.1285 14.4422 21.74 13.367C22.3514 12.2917 22.7088 11.0908 22.7847 9.85612C22.8606 8.62147 22.653 7.38583 22.1778 6.24376C21.7026 5.1017 20.9724 4.08348 20.0432 3.26705C19.1139 2.45062 18.0102 1.85762 16.8164 1.53343C15.6227 1.20924 14.3706 1.16246 13.156 1.39667L13.1452 1.32089ZM14.6716 11.9087C14.144 11.9108 13.6276 11.7562 13.188 11.4644C12.7484 11.1726 12.4053 10.7568 12.2024 10.2697C11.9995 9.78261 11.9459 9.24624 12.0483 8.72862C12.1507 8.21101 12.4046 7.73548 12.7777 7.36238C13.1508 6.98927 13.6263 6.73541 14.1439 6.63299C14.6615 6.53058 15.1979 6.58423 15.685 6.78714C16.172 6.99005 16.5879 7.33308 16.8797 7.77269C17.1715 8.21231 17.3261 8.7287 17.324 9.25634C17.3211 9.95892 17.0408 10.6319 16.544 11.1287C16.0472 11.6255 15.3742 11.9059 14.6716 11.9087Z" fill="black"/>
</svg>
