<svg width="24" height="24" viewBox="0 0 24 24" fill="none" xmlns="http://www.w3.org/2000/svg">
<path d="M11.1938 8.60777V7.42527C11.1937 6.60317 11.5196 5.81458 12.0999 5.23226C12.6802 4.64993 13.4677 4.32136 14.2898 4.31852H14.8165C15.2099 4.31852 15.5873 4.16222 15.8655 3.88401C16.1437 3.6058 16.3 3.22847 16.3 2.83502V2.13627C16.3 1.92244 16.3849 1.71736 16.5361 1.56616C16.6873 1.41496 16.8924 1.33002 17.1063 1.33002C17.3201 1.33002 17.5252 1.41496 17.6764 1.56616C17.8276 1.71736 17.9125 1.92244 17.9125 2.13627V2.83502C17.9125 3.65613 17.5863 4.44361 17.0057 5.02422C16.4251 5.60483 15.6376 5.93102 14.8165 5.93102H14.2898C14.094 5.93101 13.9002 5.96974 13.7195 6.04496C13.5389 6.12019 13.3748 6.23042 13.2369 6.36932C13.099 6.50821 12.99 6.67303 12.9161 6.85425C12.8422 7.03548 12.8048 7.22955 12.8063 7.42527V8.60777H11.1938ZM22.75 9.85477V21.3895C22.75 21.7316 22.6141 22.0598 22.3722 22.3017C22.1302 22.5436 21.8021 22.6795 21.46 22.6795H2.54C2.19787 22.6795 1.86975 22.5436 1.62783 22.3017C1.38591 22.0598 1.25 21.7316 1.25 21.3895V9.85477C1.25 9.51264 1.38591 9.18452 1.62783 8.9426C1.86975 8.70068 2.19787 8.56477 2.54 8.56477H21.46C21.8021 8.56477 22.1302 8.70068 22.3722 8.9426C22.6141 9.18452 22.75 9.51264 22.75 9.85477ZM15.225 15.305C15.0698 15.305 14.9181 15.351 14.789 15.4373C14.66 15.5235 14.5594 15.6461 14.5 15.7895C14.4406 15.9329 14.425 16.0906 14.4553 16.2429C14.4856 16.3951 14.5603 16.5349 14.6701 16.6447C14.7798 16.7544 14.9197 16.8292 15.0719 16.8594C15.2241 16.8897 15.3819 16.8742 15.5253 16.8148C15.6687 16.7554 15.7913 16.6548 15.8775 16.5258C15.9637 16.3967 16.0098 16.245 16.0098 16.0898C15.9987 15.8892 15.9112 15.7005 15.7652 15.5625C15.6192 15.4245 15.4259 15.3477 15.225 15.348V15.305ZM13.3653 12.8648C13.3653 13.02 13.4113 13.1717 13.4975 13.3008C13.5837 13.4298 13.7063 13.5304 13.8497 13.5898C13.9931 13.6492 14.1509 13.6647 14.3031 13.6344C14.4553 13.6042 14.5952 13.5294 14.7049 13.4197C14.8147 13.3099 14.8894 13.1701 14.9197 13.0179C14.95 12.8656 14.9344 12.7079 14.875 12.5645C14.8156 12.4211 14.715 12.2985 14.586 12.2123C14.4569 12.126 14.3052 12.08 14.15 12.08C14.0432 12.0799 13.9375 12.1015 13.8394 12.1436C13.7413 12.1857 13.6528 12.2474 13.5793 12.3249C13.5059 12.4023 13.449 12.494 13.4122 12.5942C13.3754 12.6945 13.3594 12.8012 13.3653 12.9078V12.8648ZM12 15.348C11.8448 15.348 11.6931 15.394 11.564 15.4803C11.435 15.5665 11.3344 15.6891 11.275 15.8325C11.2156 15.9759 11.2 16.1336 11.2303 16.2859C11.2606 16.4381 11.3353 16.5779 11.4451 16.6877C11.5548 16.7974 11.6947 16.8722 11.8469 16.9024C11.9991 16.9327 12.1569 16.9172 12.3003 16.8578C12.4437 16.7984 12.5663 16.6978 12.6525 16.5688C12.7387 16.4397 12.7847 16.288 12.7847 16.1328C12.7847 15.9246 12.7021 15.725 12.5549 15.5779C12.4077 15.4307 12.2081 15.348 12 15.348ZM10.1403 12.9078C10.1403 13.063 10.1863 13.2147 10.2725 13.3438C10.3587 13.4728 10.4813 13.5734 10.6247 13.6328C10.7681 13.6922 10.9259 13.7077 11.0781 13.6774C11.2303 13.6472 11.3702 13.5724 11.4799 13.4627C11.5897 13.3529 11.6644 13.2131 11.6947 13.0609C11.725 12.9086 11.7094 12.7509 11.65 12.6075C11.5906 12.4641 11.49 12.3415 11.361 12.2553C11.2319 12.169 11.0802 12.123 10.925 12.123C10.8219 12.123 10.7199 12.1433 10.6247 12.1828C10.5295 12.2222 10.443 12.28 10.3701 12.3529C10.2972 12.4257 10.2394 12.5122 10.2 12.6075C10.1605 12.7027 10.1403 12.8047 10.1403 12.9078ZM3.69025 12.9078C3.69025 13.063 3.73627 13.2147 3.8225 13.3438C3.90873 13.4728 4.0313 13.5734 4.17469 13.6328C4.31808 13.6922 4.47587 13.7077 4.6281 13.6774C4.78032 13.6472 4.92015 13.5724 5.0299 13.4627C5.13965 13.3529 5.21439 13.2131 5.24467 13.0609C5.27495 12.9086 5.25941 12.7509 5.20001 12.6075C5.14062 12.4641 5.04004 12.3415 4.91098 12.2553C4.78193 12.169 4.63021 12.123 4.475 12.123C4.37195 12.123 4.2699 12.1433 4.17469 12.1828C4.07948 12.2222 3.99297 12.28 3.9201 12.3529C3.84723 12.4257 3.78942 12.5122 3.74999 12.6075C3.71055 12.7027 3.69025 12.8047 3.69025 12.9078ZM6.48525 19.3578C6.48525 19.1439 6.40031 18.9389 6.2491 18.7877C6.0979 18.6365 5.89283 18.5515 5.679 18.5515H4.346C4.13217 18.5515 3.9271 18.6365 3.7759 18.7877C3.62469 18.9389 3.53975 19.1439 3.53975 19.3578C3.53975 19.5716 3.62469 19.7767 3.7759 19.9279C3.9271 20.0791 4.13217 20.164 4.346 20.164H5.679C5.89196 20.1612 6.09542 20.0754 6.24603 19.9248C6.39663 19.7742 6.48247 19.5707 6.48525 19.3578ZM6.48525 16.1328C6.48525 15.9189 6.40031 15.7139 6.2491 15.5627C6.0979 15.4115 5.89283 15.3265 5.679 15.3265H4.346C4.13217 15.3265 3.9271 15.4115 3.7759 15.5627C3.62469 15.7139 3.53975 15.9189 3.53975 16.1328C3.53975 16.3466 3.62469 16.5517 3.7759 16.7029C3.9271 16.8541 4.13217 16.939 4.346 16.939H5.679C5.89196 16.9362 6.09542 16.8504 6.24603 16.6998C6.39663 16.5492 6.48247 16.3457 6.48525 16.1328ZM7.7 13.6925C7.85521 13.6925 8.00693 13.6465 8.13598 13.5603C8.26504 13.474 8.36562 13.3515 8.42501 13.2081C8.48441 13.0647 8.49995 12.9069 8.46967 12.7547C8.43939 12.6024 8.36465 12.4626 8.2549 12.3529C8.14515 12.2431 8.00532 12.1684 7.8531 12.1381C7.70087 12.1078 7.54308 12.1234 7.39969 12.1828C7.2563 12.2421 7.13373 12.3427 7.0475 12.4718C6.96128 12.6008 6.91525 12.7526 6.91525 12.9078C6.91525 13.1159 6.99793 13.3155 7.1451 13.4627C7.29227 13.6098 7.49187 13.6925 7.7 13.6925ZM7.99025 16.1328C7.99025 16.288 8.03628 16.4397 8.1225 16.5688C8.20873 16.6978 8.3313 16.7984 8.47469 16.8578C8.61808 16.9172 8.77587 16.9327 8.9281 16.9024C9.08032 16.8722 9.22015 16.7974 9.3299 16.6877C9.43965 16.5779 9.51439 16.4381 9.54467 16.2859C9.57495 16.1336 9.55941 15.9759 9.50001 15.8325C9.44062 15.6891 9.34004 15.5665 9.21098 15.4803C9.08193 15.394 8.93021 15.348 8.775 15.348C8.56687 15.348 8.36727 15.4307 8.2201 15.5779C8.07293 15.725 7.99025 15.9246 7.99025 16.1328ZM17.1063 19.3578C17.1063 19.1439 17.0213 18.9389 16.8701 18.7877C16.7189 18.6365 16.5138 18.5515 16.3 18.5515H8.93625C8.72242 18.5515 8.51735 18.6365 8.36615 18.7877C8.21494 18.9389 8.13 19.1439 8.13 19.3578C8.13 19.5716 8.21494 19.7767 8.36615 19.9279C8.51735 20.0791 8.72242 20.164 8.93625 20.164H16.3C16.513 20.1612 16.7164 20.0754 16.867 19.9248C17.0176 19.7742 17.1035 19.5707 17.1063 19.3578ZM20.3313 19.3578C20.3313 19.2026 20.2852 19.0508 20.199 18.9218C20.1128 18.7927 19.9902 18.6921 19.8468 18.6328C19.7034 18.5734 19.5456 18.5578 19.3934 18.5881C19.2412 18.6184 19.1013 18.6931 18.9916 18.8029C18.8819 18.9126 18.8071 19.0524 18.7768 19.2047C18.7466 19.3569 18.7621 19.5147 18.8215 19.6581C18.8809 19.8015 18.9815 19.924 19.1105 20.0103C19.2396 20.0965 19.3913 20.1425 19.5465 20.1425C19.7509 20.1369 19.945 20.0518 20.0876 19.9052C20.2301 19.7586 20.3098 19.5622 20.3097 19.3578H20.3313ZM20.3313 16.1328C20.3313 15.9189 20.2463 15.7139 20.0951 15.5627C19.9439 15.4115 19.7388 15.3265 19.525 15.3265H18.2028C17.9889 15.3265 17.7838 15.4115 17.6326 15.5627C17.4814 15.7139 17.3965 15.9189 17.3965 16.1328C17.3965 16.3466 17.4814 16.5517 17.6326 16.7029C17.7838 16.8541 17.9889 16.939 18.2028 16.939H19.525C19.738 16.9362 19.9414 16.8504 20.092 16.6998C20.2426 16.5492 20.3285 16.3457 20.3313 16.1328ZM20.4603 12.9078C20.4603 12.6939 20.3753 12.4889 20.2241 12.3377C20.0729 12.1865 19.8678 12.1015 19.654 12.1015H17.375C17.1612 12.1015 16.9561 12.1865 16.8049 12.3377C16.6537 12.4889 16.5688 12.6939 16.5688 12.9078C16.5688 13.1216 16.6537 13.3267 16.8049 13.4779C16.9561 13.6291 17.1612 13.714 17.375 13.714H19.654C19.867 13.7112 20.0704 13.6254 20.221 13.4748C20.3716 13.3242 20.4575 13.1207 20.4603 12.9078Z" fill="black"/>
</svg>
