<svg width="24" height="24" viewBox="0 0 24 24" fill="none" xmlns="http://www.w3.org/2000/svg">
<path d="M20.6128 9.19982H16.3008C16.1128 9.19892 15.9273 9.15633 15.7578 9.07512C15.5882 8.99391 15.4387 8.8761 15.3202 8.73018C15.2016 8.58426 15.1169 8.41386 15.0721 8.23126C15.0273 8.04866 15.0236 7.8584 15.0612 7.67418L15.6121 4.49577C15.7122 3.95608 15.6221 3.3984 15.3572 2.91768C15.0922 2.43697 14.6689 2.06294 14.1592 1.85931C13.6494 1.65567 13.0849 1.63502 12.5617 1.80085C12.0384 1.96669 11.5889 2.30877 11.2895 2.76883L7.05163 9.12566V7.8437C7.05176 7.40417 6.88011 6.982 6.57331 6.66727C6.2665 6.35255 5.84883 6.1702 5.40945 6.15914H3.18456C2.73779 6.15914 2.30931 6.33662 1.9934 6.65253C1.67748 6.96845 1.5 7.39692 1.5 7.8437V19.2436C1.5 19.6904 1.67748 20.1188 1.9934 20.4348C2.30931 20.7507 2.73779 20.9282 3.18456 20.9282H5.40945C5.85622 20.9282 6.28469 20.7507 6.60061 20.4348C6.91652 20.1188 7.094 19.6904 7.094 19.2436V19.4025L9.9016 21.6486C10.5212 22.085 11.2627 22.3149 12.0205 22.3055H17.3815C17.8924 22.3042 18.3896 22.1402 18.8011 21.8373C19.2126 21.5344 19.5169 21.1084 19.6699 20.6209L22.4139 11.6366C22.5024 11.3548 22.523 11.0561 22.4742 10.7648C22.4253 10.4735 22.3083 10.1979 22.1328 9.9604C21.9572 9.72289 21.7281 9.5302 21.4639 9.39803C21.1998 9.26586 20.9082 9.19795 20.6128 9.19982Z" fill="black"/>
</svg>
