<svg width="24" height="24" viewBox="0 0 24 24" fill="none" xmlns="http://www.w3.org/2000/svg">
<path fill-rule="evenodd" clip-rule="evenodd" d="M12.3006 6.75506C12.0501 6.75506 11.81 6.63379 11.6329 6.41793C11.4558 6.20208 11.3563 5.90931 11.3563 5.60404V2.15101C11.3563 1.84574 11.4558 1.55298 11.6329 1.33712C11.81 1.12127 12.0501 1 12.3006 1C12.551 1 12.7912 1.12127 12.9683 1.33712C13.1454 1.55298 13.2449 1.84574 13.2449 2.15101V5.60404C13.2449 5.90931 13.1454 6.20208 12.9683 6.41793C12.7912 6.63379 12.551 6.75506 12.3006 6.75506ZM8.62861 7.66424C8.72803 7.60893 8.81507 7.53539 8.88472 7.44785C8.95438 7.36031 9.00528 7.26048 9.03451 7.15408C9.06374 7.04769 9.07073 6.93682 9.05507 6.82784C9.03942 6.71886 9.00142 6.6139 8.94327 6.51899L6.78328 3.67606C6.66234 3.4941 6.47256 3.36387 6.25359 3.31258C6.03463 3.26128 5.80341 3.29289 5.60823 3.40079C5.41305 3.50869 5.26901 3.68454 5.2062 3.89161C5.14339 4.09868 5.16666 4.32095 5.27116 4.512L7.39618 7.37166C7.47354 7.49644 7.58353 7.59983 7.71532 7.67165C7.84712 7.74346 7.99619 7.78124 8.14788 7.78127C8.3169 7.79056 8.4848 7.74969 8.62861 7.66424ZM6.84478 9.52958C6.81869 9.63672 6.77075 9.73789 6.7037 9.82727C6.60906 9.96153 6.47336 10.0645 6.31517 10.1222C6.17676 10.1816 6.02458 10.2055 5.8736 10.1915C5.72261 10.1776 5.57802 10.1263 5.45403 10.0428L2.44807 8.56491C2.27097 8.4315 2.15461 8.23781 2.1233 8.02429C2.09199 7.81077 2.14815 7.59394 2.28005 7.41909C2.41196 7.24424 2.6094 7.12489 2.83113 7.08598C3.05287 7.04707 3.28176 7.0916 3.46997 7.21027L6.50067 8.65918C6.59435 8.72301 6.67394 8.8039 6.73486 8.8972C6.79579 8.99051 6.83686 9.0944 6.85572 9.20292C6.87458 9.31143 6.87086 9.42244 6.84478 9.52958ZM5.89393 13.0509C5.9126 12.9423 5.90868 12.8313 5.8824 12.7242C5.85612 12.6171 5.80799 12.5161 5.74078 12.4268C5.67358 12.3375 5.5886 12.2618 5.49074 12.204C5.39288 12.1462 5.28405 12.1074 5.17049 12.0899L1.98202 12.0446C1.7583 12.018 1.53249 12.0751 1.35178 12.204C1.17106 12.3329 1.0494 12.5236 1.01222 12.7363C0.975035 12.9489 1.0252 13.1671 1.15224 13.3452C1.27928 13.5233 1.47337 13.6476 1.69395 13.6921L4.87366 13.7739C5.02354 13.7962 5.17691 13.7809 5.31871 13.7294C5.46051 13.6778 5.58584 13.5919 5.68239 13.48C5.79745 13.3612 5.87133 13.2114 5.89393 13.0509ZM6.63843 15.3008C6.71877 15.3795 6.78209 15.4727 6.82473 15.5748C6.89206 15.7234 6.90975 15.8882 6.87539 16.0468C6.85315 16.1903 6.79225 16.3258 6.69866 16.4399C6.60508 16.5541 6.48204 16.643 6.34164 16.698L3.80934 18.1591C3.59643 18.23 3.36312 18.2194 3.15814 18.1297C2.95316 18.0399 2.79236 17.8779 2.70934 17.6775C2.62632 17.477 2.62749 17.2536 2.71261 17.054C2.79773 16.8543 2.96022 16.6938 3.16613 16.6061L5.68626 15.1094C5.79294 15.0683 5.90706 15.0477 6.02208 15.0489C6.1371 15.05 6.25074 15.0729 6.35651 15.1161C6.46228 15.1593 6.55808 15.2221 6.63843 15.3008ZM9.24296 18.2165C9.15484 18.1458 9.053 18.0925 8.94327 18.0595C8.83354 18.0265 8.71808 18.0145 8.60352 18.0243C8.48895 18.0341 8.37752 18.0654 8.27563 18.1164C8.17374 18.1674 8.08338 18.2372 8.00973 18.3217L6.55888 20.4945C6.4209 20.665 6.35714 20.8799 6.38093 21.0943C6.40471 21.3087 6.51419 21.5061 6.6865 21.6451C6.85881 21.7841 7.08063 21.8541 7.30561 21.8404C7.5306 21.8267 7.74135 21.7304 7.89385 21.5716L9.373 19.4246C9.46952 19.3127 9.53393 19.1787 9.55989 19.0358C9.58585 18.8928 9.57247 18.7459 9.52107 18.6094C9.4729 18.4542 9.37577 18.317 9.24296 18.2165ZM11.7379 22.6629C11.915 22.8787 12.1552 23 12.4056 23C12.6561 23 12.8962 22.8787 13.0733 22.6629C13.2504 22.447 13.3499 22.1542 13.3499 21.849V20.2135C13.3499 19.9082 13.2504 19.6155 13.0733 19.3996C12.8962 19.1838 12.6561 19.0625 12.4056 19.0625C12.1552 19.0625 11.915 19.1838 11.7379 19.3996C11.5608 19.6155 11.4613 19.9082 11.4613 20.2135V21.849C11.4613 22.1542 11.5608 22.447 11.7379 22.6629ZM16.6642 18.1567C16.5597 18.2026 16.4657 18.2679 16.3876 18.3486C16.3095 18.4294 16.2489 18.5241 16.2091 18.6273C16.1694 18.7305 16.1513 18.8403 16.156 18.9502C16.1607 19.0601 16.188 19.168 16.2364 19.2678L17.3372 21.0695C17.4394 21.2617 17.6152 21.4087 17.828 21.4799C18.0409 21.551 18.2742 21.5407 18.4793 21.4511C18.6844 21.3616 18.8453 21.1998 18.9286 20.9994C19.0118 20.799 19.0109 20.5756 18.926 20.3759L17.8617 18.5608C17.7972 18.4295 17.6981 18.3165 17.5741 18.2329C17.4501 18.1494 17.3054 18.0981 17.1545 18.0842C16.9871 18.0595 16.8159 18.0848 16.6642 18.1567ZM18.878 16.1196C18.9092 16.0137 18.9619 15.9147 19.0331 15.8283C19.134 15.6983 19.2745 15.6013 19.4353 15.5506C19.5764 15.4973 19.7295 15.4801 19.8797 15.5006C20.0299 15.5211 20.1719 15.5786 20.2917 15.6675L21.7599 16.4499C21.9305 16.5908 22.0375 16.7894 22.0586 17.0041C22.0797 17.2187 22.0133 17.4329 21.8732 17.6018C21.7331 17.7707 21.5302 17.8814 21.3069 17.9106C21.0835 17.9398 20.857 17.8854 20.6746 17.7586L19.1804 17.0041C19.0898 16.9362 19.0142 16.8519 18.9577 16.7561C18.9013 16.6602 18.8652 16.5547 18.8515 16.4454C18.8379 16.3362 18.8469 16.2255 18.878 16.1196ZM20.0245 12.8466C20.0111 12.9559 20.0203 13.0666 20.0517 13.1724C20.0831 13.2783 20.136 13.3771 20.2075 13.4634C20.2789 13.5496 20.3674 13.6215 20.4679 13.675C20.5684 13.7284 20.679 13.7624 20.7933 13.7748L22.0584 13.738C22.2831 13.7547 22.5059 13.6878 22.6803 13.5511C22.8546 13.4144 22.967 13.2186 22.994 13.0045C23.0209 12.7904 22.9603 12.5747 22.8249 12.4023C22.6895 12.23 22.4896 12.1143 22.2671 12.0796L21.0091 12.0796C20.8583 12.0639 20.7058 12.086 20.5666 12.1436C20.4275 12.2013 20.3064 12.2927 20.2153 12.4087C20.106 12.5324 20.0394 12.6853 20.0245 12.8466ZM19.1954 9.93839C19.1031 9.87283 19.0252 9.79048 18.9661 9.69606C18.8751 9.55956 18.8303 9.39948 18.838 9.23773C18.8362 9.09267 18.8739 8.94966 18.9474 8.82275C19.0209 8.69585 19.1277 8.58943 19.2572 8.51395L20.2878 8.09409C20.4862 7.99187 20.7184 7.96694 20.9356 8.02452C21.1529 8.0821 21.3384 8.21773 21.4536 8.40309C21.5688 8.58845 21.6046 8.80919 21.5536 9.01921C21.5026 9.22923 21.3687 9.41228 21.1799 9.53013L20.1673 9.98322C20.0688 10.04 19.9595 10.0776 19.8457 10.0939C19.732 10.1101 19.616 10.1048 19.5044 10.0781C19.3928 10.0514 19.2878 10.0039 19.1954 9.93839ZM16.2006 7.20735C16.2984 7.26518 16.4072 7.30398 16.5208 7.32151C16.6343 7.33904 16.7504 7.33496 16.8623 7.30951C16.9742 7.28406 17.0797 7.23774 17.1729 7.1732C17.266 7.10866 17.3449 7.02717 17.4051 6.9334L18.0875 6.13511C18.1983 5.94737 18.2291 5.72593 18.1733 5.51703C18.1174 5.30814 17.9794 5.12795 17.7879 5.01411C17.5965 4.90026 17.3664 4.86157 17.1459 4.90611C16.9253 4.95065 16.7312 5.07498 16.6042 5.25312L15.89 6.0298C15.8113 6.15384 15.7677 6.29532 15.7636 6.44034C15.7594 6.58536 15.7948 6.72892 15.8662 6.8569C15.9372 7.00388 16.054 7.12627 16.2006 7.20735Z" fill="black"/>
</svg>
