<svg width="24" height="24" viewBox="0 0 24 24" fill="none" xmlns="http://www.w3.org/2000/svg">
<path d="M13.219 14.047C13.2167 14.2876 13.1433 14.5221 13.008 14.7211C12.8727 14.92 12.6815 15.0745 12.4586 15.165C12.2356 15.2555 11.9909 15.278 11.7552 15.2297C11.5195 15.1813 11.3034 15.0643 11.1341 14.8934C10.9647 14.7225 10.8498 14.5053 10.8037 14.2691C10.7575 14.033 10.7823 13.7885 10.8749 13.5664C10.9675 13.3443 11.1238 13.1546 11.324 13.0212C11.5242 12.8877 11.7594 12.8165 12 12.8165C12.1611 12.8165 12.3205 12.8484 12.4692 12.9104C12.6178 12.9724 12.7527 13.0632 12.8661 13.1776C12.9794 13.292 13.069 13.4277 13.1295 13.577C13.1901 13.7262 13.2205 13.8859 13.219 14.047ZM14.507 10.2175V8.987C14.504 8.46028 14.2934 7.956 13.921 7.58354C13.5485 7.21109 13.0442 7.00052 12.5175 6.9975H11.4825C10.9558 7.00052 10.4515 7.21109 10.0791 7.58354C9.7066 7.956 9.49602 8.46028 9.493 8.987V10.2175H14.507ZM23.5 12C23.5 14.2745 22.8255 16.4979 21.5619 18.3891C20.2983 20.2802 18.5022 21.7542 16.4009 22.6246C14.2995 23.495 11.9872 23.7228 9.75646 23.279C7.52568 22.8353 5.47658 21.74 3.86828 20.1317C2.25997 18.5234 1.1647 16.4743 0.720974 14.2435C0.277244 12.0128 0.504983 9.70049 1.37539 7.59914C2.2458 5.49779 3.71978 3.70173 5.61095 2.4381C7.50211 1.17446 9.72552 0.5 12 0.5C13.5102 0.5 15.0056 0.797456 16.4009 1.37539C17.7961 1.95331 19.0639 2.8004 20.1317 3.86827C21.1996 4.93614 22.0467 6.20389 22.6246 7.59914C23.2025 8.99438 23.5 10.4898 23.5 12ZM18.0835 12.598C18.0808 12.0616 17.8962 11.5421 17.5599 11.1243C17.2236 10.7065 16.7554 10.4152 16.232 10.298V8.987C16.232 8.00185 15.8407 7.05705 15.144 6.36045C14.4474 5.66385 13.5026 5.2725 12.5175 5.2725H11.4825C10.4974 5.2725 9.55256 5.66385 8.85596 6.36045C8.15935 7.05705 7.768 8.00185 7.768 8.987V10.2865C7.2446 10.4037 6.77644 10.695 6.44011 11.1128C6.10377 11.5306 5.91917 12.0501 5.9165 12.5865V15.45C5.91193 15.7655 5.97013 16.0788 6.08771 16.3716C6.20529 16.6644 6.37991 16.9309 6.60142 17.1556C6.82293 17.3803 7.0869 17.5588 7.37799 17.6805C7.66907 17.8023 7.98147 17.865 8.297 17.865H15.703C16.0185 17.865 16.3309 17.8023 16.622 17.6805C16.9131 17.5588 17.1771 17.3803 17.3986 17.1556C17.6201 16.9309 17.7947 16.6644 17.9123 16.3716C18.0299 16.0788 18.0881 15.7655 18.0835 15.45V12.598Z" fill="black"/>
</svg>
