<svg width="24" height="24" viewBox="0 0 24 24" fill="none" xmlns="http://www.w3.org/2000/svg">
<path d="M10.4582 15.5902V20.6748C10.4582 21.2251 10.2404 21.7528 9.85291 22.1419C9.46537 22.531 8.93975 22.7496 8.39168 22.7496H3.32719C2.77814 22.7496 2.25141 22.5313 1.86217 22.1425C1.47293 21.7538 1.25283 21.2261 1.25 20.6748V15.5902C1.25283 15.039 1.47293 14.5113 1.86217 14.1225C2.25141 13.7337 2.77814 13.5155 3.32719 13.5155H4.32296V15.5687C4.3367 15.8444 4.45555 16.1042 4.65488 16.2943C4.85421 16.4844 5.11874 16.5903 5.39368 16.5899H6.46439C6.73933 16.5903 7.00386 16.4844 7.20319 16.2943C7.40252 16.1042 7.52136 15.8444 7.53511 15.5687V13.5155H8.53088C9.05447 13.551 9.545 13.7851 9.90292 14.1704C10.2608 14.5557 10.4594 15.0633 10.4582 15.5902V15.5902ZM20.6728 13.5155H19.677V15.5687C19.6633 15.8444 19.5444 16.1042 19.3451 16.2943C19.1458 16.4844 18.8813 16.5903 18.6063 16.5899H17.632C17.357 16.5903 17.0925 16.4844 16.8932 16.2943C16.6938 16.1042 16.575 15.8444 16.5613 15.5687V13.5155H15.5655C15.0164 13.5155 14.4897 13.7337 14.1005 14.1225C13.7112 14.5113 13.4911 15.039 13.4883 15.5902V20.6748C13.4897 20.9515 13.5458 21.225 13.6535 21.4797C13.7612 21.7343 13.9183 21.9648 14.1156 22.1579C14.3129 22.351 14.5465 22.5027 14.8027 22.6043C15.059 22.7059 15.3329 22.7553 15.6083 22.7496H20.6728C21.2219 22.7496 21.7486 22.5313 22.1378 22.1425C22.5271 21.7538 22.7472 21.2261 22.75 20.6748V15.5902C22.7472 15.039 22.5271 14.5113 22.1378 14.1225C21.7486 13.7337 21.2219 13.5155 20.6728 13.5155V13.5155ZM8.39168 1.25H7.39592V3.26021C7.39592 3.54531 7.28311 3.81874 7.08231 4.02033C6.88151 4.22193 6.60917 4.33519 6.3252 4.33519H5.25448C4.97051 4.33519 4.69817 4.22193 4.49737 4.02033C4.29657 3.81874 4.18376 3.54531 4.18376 3.26021V1.25H3.39143C2.82349 1.25 2.27881 1.47651 1.87721 1.87971C1.47561 2.2829 1.25 2.82975 1.25 3.39996V8.36635C1.25283 8.91759 1.47293 9.44527 1.86217 9.83405C2.25141 10.2228 2.77814 10.4411 3.32719 10.4411H8.39168C8.93975 10.4411 9.46537 10.2225 9.85291 9.83339C10.2404 9.44431 10.4582 8.9166 10.4582 8.36635V3.28171C10.447 2.73895 10.2243 2.22222 9.83797 1.84239C9.45164 1.46256 8.93241 1.24988 8.39168 1.25V1.25ZM20.6728 1.25H19.677V3.26021C19.677 3.54531 19.5642 3.81874 19.3634 4.02033C19.1626 4.22193 18.8903 4.33519 18.6063 4.33519H17.632C17.348 4.33519 17.0757 4.22193 16.8749 4.02033C16.6741 3.81874 16.5613 3.54531 16.5613 3.26021V1.25H15.5655C15.0164 1.24999 14.4897 1.46823 14.1005 1.85701C13.7112 2.24579 13.4911 2.77347 13.4883 3.32471V8.36635C13.4911 8.91759 13.7112 9.44527 14.1005 9.83405C14.4897 10.2228 15.0164 10.4411 15.5655 10.4411H20.63C21.179 10.4411 21.7058 10.2228 22.095 9.83405C22.4842 9.44527 22.7043 8.91759 22.7072 8.36635V3.28171C22.6935 2.74534 22.4745 2.23489 22.0956 1.8565C21.7167 1.47811 21.2071 1.26089 20.6728 1.25V1.25Z" fill="black"/>
</svg>
