<svg width="24" height="24" viewBox="0 0 24 24" fill="none" xmlns="http://www.w3.org/2000/svg">
<path d="M11.75 0.75C9.57441 0.75 7.44767 1.39514 5.63873 2.60383C3.82979 3.81253 2.41989 5.53049 1.58733 7.54048C0.754766 9.55047 0.53693 11.7622 0.961367 13.896C1.3858 16.0298 2.43345 17.9898 3.97183 19.5282C5.51021 21.0665 7.47022 22.1142 9.60401 22.5386C11.7378 22.9631 13.9495 22.7452 15.9595 21.9127C17.9695 21.0801 19.6875 19.6702 20.8962 17.8613C22.1049 16.0523 22.75 13.9256 22.75 11.75C22.75 10.3055 22.4655 8.87506 21.9127 7.54048C21.3599 6.2059 20.5496 4.99327 19.5282 3.97182C18.5067 2.95038 17.2941 2.14013 15.9595 1.58732C14.6249 1.03452 13.1945 0.75 11.75 0.75ZM16.997 15.809L16.634 17.008C16.5752 17.2016 16.4558 17.3712 16.2935 17.492C16.1311 17.6128 15.9343 17.6783 15.732 17.679H9.33C9.18563 17.6747 9.04417 17.6374 8.91646 17.5699C8.78875 17.5024 8.67818 17.4066 8.59323 17.2898C8.50828 17.173 8.4512 17.0383 8.42638 16.896C8.40155 16.7537 8.40963 16.6077 8.45 16.469L9.407 13.081L7.482 13.466H7.317C7.10658 13.475 6.90067 13.4033 6.74147 13.2654C6.58226 13.1275 6.48182 12.9339 6.46073 12.7244C6.43963 12.5148 6.49948 12.3052 6.628 12.1383C6.75653 11.9715 6.944 11.8601 7.152 11.827L9.913 11.277L11.277 6.492C11.3324 6.29249 11.4517 6.11666 11.6166 5.99148C11.7815 5.8663 11.983 5.79868 12.19 5.799H13.642C13.7881 5.79929 13.9323 5.83304 14.0633 5.89767C14.1944 5.9623 14.3089 6.05608 14.3981 6.17183C14.4873 6.28758 14.5488 6.42222 14.5779 6.56543C14.607 6.70864 14.603 6.85661 14.566 6.998L13.587 10.54L15.523 10.144C15.7371 10.1049 15.958 10.1508 16.1387 10.272C16.3195 10.3932 16.4459 10.5801 16.491 10.793C16.5133 10.8993 16.5142 11.009 16.4935 11.1156C16.4728 11.2222 16.431 11.3236 16.3705 11.4138C16.31 11.504 16.2321 11.5812 16.1414 11.6408C16.0506 11.7004 15.9488 11.7413 15.842 11.761L13.092 12.322L12.608 13.95C12.5897 14.021 12.5877 14.0952 12.6022 14.1671C12.6168 14.2389 12.6475 14.3065 12.692 14.3648C12.7364 14.4231 12.7936 14.4705 12.8591 14.5034C12.9246 14.5364 12.9967 14.554 13.07 14.555H16.15C16.2966 14.5623 16.4395 14.6036 16.5674 14.6757C16.6953 14.7478 16.8047 14.8487 16.8869 14.9703C16.9691 15.092 17.0218 15.2311 17.0409 15.3767C17.06 15.5222 17.045 15.6702 16.997 15.809Z" fill="black"/>
</svg>
