<svg width="24" height="24" viewBox="0 0 24 24" fill="none" xmlns="http://www.w3.org/2000/svg">
<path d="M21.9545 19.7831L18.6003 16.6483C20.0257 14.7481 20.6848 12.3815 20.4466 10.0181C20.2085 7.65465 19.0906 5.4671 17.3147 3.88948C15.5389 2.31187 13.2349 1.45949 10.8598 1.50148C8.48479 1.54347 6.21233 2.47676 4.49334 4.11616C2.77436 5.75556 1.73448 7.98126 1.58004 10.3516C1.4256 12.722 2.16789 15.0638 3.65961 16.9124C5.15134 18.761 7.28349 19.9813 9.63299 20.3311C11.9825 20.6809 14.3777 20.1347 16.3432 18.8009L19.7915 22.0715C20.0781 22.3335 20.4484 22.4853 20.8364 22.4999C21.051 22.5017 21.2635 22.458 21.4598 22.3715C21.6562 22.285 21.8319 22.1579 21.9754 21.9984C22.1207 21.8522 22.2354 21.6786 22.3131 21.4877C22.3907 21.2968 22.4297 21.0924 22.4278 20.8864C22.4258 20.6803 22.383 20.4767 22.3018 20.2873C22.2205 20.0979 22.1025 19.9265 21.9545 19.7831ZM11.014 17.6096C9.69221 17.6076 8.40068 17.2138 7.30251 16.4782C6.20434 15.7426 5.34879 14.698 4.84391 13.4764C4.33904 12.2549 4.20748 10.9111 4.46586 9.61477C4.72424 8.31847 5.36096 7.12781 6.29561 6.19316C7.23026 5.25851 8.42092 4.62179 9.71721 4.36341C11.0135 4.10504 12.3573 4.23659 13.5789 4.74147C14.8004 5.24634 15.845 6.10189 16.5807 7.20006C17.3163 8.29823 17.71 9.58977 17.7121 10.9116C17.7121 11.7912 17.5388 12.6622 17.2022 13.4748C16.8656 14.2874 16.3722 15.0258 15.7503 15.6478C15.1283 16.2698 14.3899 16.7632 13.5772 17.0998C12.7646 17.4364 11.8936 17.6096 11.014 17.6096Z" fill="black"/>
</svg>
