<svg width="24" height="24" viewBox="0 0 24 24" fill="none" xmlns="http://www.w3.org/2000/svg">
<path d="M21.267 2.72639C20.4025 1.86504 19.256 1.34494 18.0386 1.26178C16.8212 1.17861 15.6147 1.53798 14.6411 2.27376C14.425 2.27763 14.2135 2.337 14.027 2.44619C13.1004 3.07124 12.1308 3.72863 11.2258 4.42911C10.8843 4.69145 10.4827 4.86433 10.0575 4.93208C9.63233 4.99983 9.19694 4.9603 8.79088 4.81708C8.24308 4.60801 7.64651 4.56196 7.07313 4.68448C6.49975 4.80699 5.97406 5.09284 5.55947 5.50754C5.14488 5.92224 4.85911 6.44807 4.73662 7.02161C4.61414 7.59514 4.66018 8.19187 4.86919 8.73982C5.01047 9.14448 5.04899 9.57793 4.98129 10.0012C4.91359 10.4244 4.74178 10.8242 4.48133 11.1646C3.7918 12.0698 3.13459 13.0074 2.52048 13.9881C2.37348 14.2308 2.31266 14.5161 2.34785 14.7977C2.38305 15.0794 2.5122 15.3409 2.71441 15.5399L8.46766 21.3055C8.66801 21.5061 8.93009 21.6333 9.21159 21.6665C9.49309 21.6997 9.77757 21.6371 10.0191 21.4887C14.6769 18.5611 18.6139 14.6194 21.5364 9.95759C21.6494 9.776 21.7125 9.56785 21.7195 9.35409C22.4595 8.38196 22.8215 7.17419 22.7383 5.95519C22.6551 4.7362 22.1323 3.58887 21.267 2.72639ZM10.1053 6.17495C10.391 6.15637 10.6725 6.25209 10.8876 6.44106C11.1028 6.63003 11.2341 6.89676 11.2527 7.18257C11.2713 7.46839 11.1756 7.74988 10.9867 7.96512C10.7978 8.18036 10.5311 8.31172 10.2454 8.3303C8.98481 8.40574 8.44612 8.94457 8.38147 10.1731C8.36764 10.4495 8.24805 10.71 8.04748 10.9006C7.84691 11.0911 7.58073 11.1973 7.30408 11.1969H7.25021C6.97582 11.1804 6.71811 11.0596 6.52984 10.8593C6.34157 10.659 6.23697 10.3942 6.23747 10.1192C6.21991 9.60291 6.30737 9.08839 6.49456 8.60688C6.68175 8.12537 6.96476 7.68691 7.32643 7.31809C7.68811 6.94926 8.1209 6.65776 8.59858 6.46126C9.07626 6.26476 9.58885 6.16735 10.1053 6.17495ZM7.77813 16.2835C7.67746 16.3834 7.55807 16.4624 7.42681 16.5161C7.29554 16.5697 7.15498 16.5969 7.01319 16.5961C6.8714 16.5969 6.73084 16.5697 6.59957 16.5161C6.46831 16.4624 6.34891 16.3834 6.24824 16.2835C6.04758 16.0816 5.93495 15.8085 5.93495 15.5238C5.93495 15.2391 6.04758 14.9659 6.24824 14.764L14.8673 6.14262C15.0794 5.97066 15.3487 5.8856 15.621 5.90462C15.8933 5.92365 16.1482 6.04535 16.3343 6.24513C16.5203 6.44491 16.6236 6.70788 16.6233 6.98091C16.623 7.25394 16.5191 7.51667 16.3326 7.71602L7.77813 16.2835ZM19.2631 10.3348C16.7968 13.7231 13.8159 16.7048 10.4285 19.1717C10.245 19.3094 10.0223 19.3849 9.79285 19.3872C9.62468 19.386 9.45913 19.3454 9.30946 19.2687C9.15979 19.1919 9.03016 19.0812 8.93094 18.9454C8.84662 18.8315 8.78557 18.7021 8.7513 18.5646C8.71703 18.4271 8.71021 18.2842 8.73122 18.1441C8.75224 18.004 8.80068 17.8693 8.87377 17.7479C8.94687 17.6265 9.04318 17.5208 9.15719 17.4367C12.356 15.1067 15.176 12.2968 17.5177 9.10623C17.6896 8.88757 17.9394 8.74387 18.2148 8.70521C18.4902 8.66654 18.7699 8.7359 18.9954 8.89877C19.2208 9.06164 19.3746 9.30541 19.4245 9.57908C19.4744 9.85275 19.4166 10.1351 19.2631 10.3671V10.3348ZM16.1818 3.22212C16.6512 2.98968 17.1664 2.86452 17.6901 2.85571C18.1429 2.85411 18.5915 2.94288 19.0096 3.11682C19.4277 3.29077 19.8069 3.54639 20.125 3.86872C20.6289 4.37761 20.9619 5.03082 21.0777 5.73764C21.1936 6.44446 21.0865 7.16983 20.7714 7.81302L21.3532 8.39496L16.1818 3.22212ZM21.6333 8.86914C21.6226 8.85836 21.6333 8.86914 21.6333 8.86914V8.86914ZM9.40499 21.6719C8.53257 22.3527 7.46233 22.731 6.35598 22.7496C5.40474 22.7616 4.46949 22.5043 3.65829 22.0072C2.84708 21.5101 2.193 20.7936 1.77162 19.9405C1.35024 19.0873 1.17874 18.1324 1.27694 17.1859C1.37513 16.2394 1.73901 15.34 2.32655 14.5916C2.31502 14.7659 2.34076 14.9406 2.40207 15.1041C2.46338 15.2677 2.55884 15.4162 2.68209 15.5399L3.26388 16.1219C2.93881 16.7642 2.82491 17.4928 2.93843 18.2037C3.05195 18.9146 3.38709 19.5714 3.896 20.0805C4.40492 20.5896 5.0616 20.9248 5.77231 21.0383C6.48302 21.1519 7.21143 21.0379 7.85355 20.7128L8.43534 21.3055C8.56333 21.4297 8.71541 21.5262 8.88219 21.5893C9.04898 21.6523 9.22691 21.6804 9.40499 21.6719Z" fill="black"/>
</svg>
