<svg width="24" height="24" viewBox="0 0 24 24" fill="none" xmlns="http://www.w3.org/2000/svg">
<path d="M22.8497 4.07799C22.8433 4.64429 22.6697 5.19609 22.3509 5.66414C22.032 6.13219 21.582 6.49565 21.0574 6.70891C20.5327 6.92218 19.9568 6.97575 19.4018 6.86291C18.8468 6.75007 18.3375 6.47584 17.9378 6.07463C17.5381 5.67342 17.2658 5.1631 17.155 4.60769C17.0442 4.05229 17.1 3.47654 17.3152 2.95269C17.5304 2.42884 17.8955 1.98022 18.3648 1.66311C18.834 1.34601 19.3865 1.17454 19.9528 1.17023C20.3354 1.16584 20.7149 1.23813 21.0691 1.38284C21.4232 1.52755 21.7448 1.74175 22.0149 2.01278C22.2849 2.28382 22.4979 2.6062 22.6413 2.96091C22.7846 3.31561 22.8555 3.69544 22.8497 4.07799ZM22.0685 7.96223V14.7868C22.0685 15.4522 21.9374 16.111 21.6828 16.7258C21.4282 17.3405 21.055 17.8991 20.5845 18.3696C20.114 18.8401 19.5554 19.2133 18.9406 19.468C18.3259 19.7226 17.667 19.8536 17.0016 19.8536H15.3091C15.0795 19.8544 14.8534 19.9099 14.6496 20.0156C14.4458 20.1213 14.2702 20.2741 14.1373 20.4612L12.9763 22.1213C12.8222 22.3406 12.6175 22.5197 12.3795 22.6433C12.1416 22.7669 11.8774 22.8315 11.6093 22.8315C11.3411 22.8315 11.0769 22.7669 10.839 22.6433C10.6011 22.5197 10.3964 22.3406 10.2422 22.1213L9.08125 20.4612C8.94835 20.2741 8.7727 20.1213 8.5689 20.0156C8.36511 19.9099 8.13904 19.8544 7.90947 19.8536H6.24945C5.58132 19.8579 4.91894 19.73 4.30044 19.4773C3.68194 19.2246 3.11952 18.8521 2.64557 18.3812C2.17161 17.9102 1.79547 17.3502 1.53881 16.7333C1.28214 16.1165 1.15001 15.4549 1.15002 14.7868V7.06169C1.15001 6.39355 1.28214 5.73201 1.53881 5.11514C1.79547 4.49826 2.17161 3.93825 2.64557 3.46732C3.11952 2.99639 3.68194 2.62384 4.30044 2.37113C4.91894 2.11842 5.58132 1.99053 6.24945 1.99482H16.0685C15.7074 2.6298 15.5167 3.34748 15.5152 4.07799C15.5127 4.84298 15.7094 5.59546 16.086 6.26132C16.4626 6.92719 17.0062 7.4835 17.6631 7.87547C18.3201 8.26745 19.0678 8.48159 19.8326 8.4968C20.5975 8.51201 21.3531 8.32778 22.0251 7.96223H22.0685ZM8.47366 11.3691C8.47366 11.1545 8.41003 10.9447 8.29081 10.7663C8.17159 10.5879 8.00214 10.4488 7.80388 10.3667C7.60563 10.2846 7.38748 10.2631 7.17701 10.3049C6.96654 10.3468 6.77322 10.4501 6.62148 10.6019C6.46974 10.7536 6.36641 10.9469 6.32454 11.1574C6.28268 11.3679 6.30417 11.586 6.38629 11.7843C6.46841 11.9825 6.60747 12.152 6.78589 12.2712C6.96432 12.3904 7.17409 12.4541 7.38868 12.4541C7.67643 12.4541 7.9524 12.3398 8.15588 12.1363C8.35935 11.9328 8.47366 11.6568 8.47366 11.3691ZM12.6508 11.3691C12.6508 11.1545 12.5872 10.9447 12.468 10.7663C12.3488 10.5879 12.1793 10.4488 11.9811 10.3667C11.7828 10.2846 11.5647 10.2631 11.3542 10.3049C11.1437 10.3468 10.9504 10.4501 10.7987 10.6019C10.6469 10.7536 10.5436 10.9469 10.5017 11.1574C10.4599 11.3679 10.4814 11.586 10.5635 11.7843C10.6456 11.9825 10.7847 12.152 10.9631 12.2712C11.1415 12.3904 11.3513 12.4541 11.5659 12.4541C11.8536 12.4541 12.1296 12.3398 12.3331 12.1363C12.5365 11.9328 12.6508 11.6568 12.6508 11.3691ZM16.8172 11.3691C16.8172 11.1545 16.7536 10.9447 16.6343 10.7663C16.5151 10.5879 16.3457 10.4488 16.1474 10.3667C15.9492 10.2846 15.731 10.2631 15.5205 10.3049C15.3101 10.3468 15.1167 10.4501 14.965 10.6019C14.8133 10.7536 14.7099 10.9469 14.6681 11.1574C14.6262 11.3679 14.6477 11.586 14.7298 11.7843C14.8119 11.9825 14.951 12.152 15.1294 12.2712C15.3078 12.3904 15.5176 12.4541 15.7322 12.4541C15.8747 12.4541 16.0158 12.426 16.1474 12.3715C16.279 12.3169 16.3987 12.237 16.4994 12.1363C16.6002 12.0355 16.6801 11.9159 16.7346 11.7843C16.7891 11.6526 16.8172 11.5116 16.8172 11.3691Z" fill="black"/>
</svg>
