<svg width="24" height="24" viewBox="0 0 24 24" fill="none" xmlns="http://www.w3.org/2000/svg">
<path d="M17.5255 1.25H6.47451C5.78751 1.25 5.10726 1.38549 4.47269 1.64872C3.83813 1.91194 3.2617 2.29774 2.77642 2.78402C2.29114 3.2703 1.90653 3.84751 1.64461 4.48262C1.38269 5.11772 1.2486 5.79825 1.25001 6.48524V14.451C1.25001 15.8366 1.80045 17.1655 2.78023 18.1453C3.76001 19.125 5.08888 19.6755 6.47451 19.6755H8.18375C8.421 19.6747 8.6548 19.7322 8.8647 19.8427C9.0746 19.9533 9.25419 20.1137 9.38775 20.3097L10.5918 22.0082C10.7504 22.2345 10.9612 22.4191 11.2063 22.5466C11.4515 22.6741 11.7237 22.7407 12 22.7407C12.2763 22.7407 12.5485 22.6741 12.7937 22.5466C13.0388 22.4191 13.2496 22.2345 13.4082 22.0082L14.6122 20.3097C14.7458 20.1137 14.9254 19.9533 15.1353 19.8427C15.3452 19.7322 15.579 19.6747 15.8162 19.6755H17.5255C18.9111 19.6755 20.24 19.125 21.2198 18.1453C22.1996 17.1655 22.75 15.8366 22.75 14.451V6.48524C22.7514 5.79825 22.6173 5.11772 22.3554 4.48262C22.0935 3.84751 21.7089 3.2703 21.2236 2.78402C20.7383 2.29774 20.1619 1.91194 19.5273 1.64872C18.8927 1.38549 18.2125 1.25 17.5255 1.25ZM15.3755 14.8165H8.59225C8.37842 14.8165 8.17335 14.7315 8.02215 14.5803C7.87095 14.4291 7.786 14.2241 7.786 14.0102C7.786 13.7964 7.87095 13.5913 8.02215 13.4401C8.17335 13.2889 8.37842 13.204 8.59225 13.204H15.4077C15.6216 13.204 15.8266 13.2889 15.9778 13.4401C16.1291 13.5913 16.214 13.7964 16.214 14.0102C16.214 14.2241 16.1291 14.4291 15.9778 14.5803C15.8266 14.7315 15.6216 14.8165 15.4077 14.8165H15.3755ZM17.0847 9.44149H6.88301C6.66917 9.44149 6.4641 9.35655 6.3129 9.20535C6.1617 9.05415 6.07676 8.84907 6.07676 8.63524C6.07676 8.42141 6.1617 8.21634 6.3129 8.06514C6.4641 7.91394 6.66917 7.82899 6.88301 7.82899H17.117C17.3308 7.82899 17.5359 7.91394 17.6871 8.06514C17.8383 8.21634 17.9232 8.42141 17.9232 8.63524C17.9232 8.84907 17.8383 9.05415 17.6871 9.20535C17.5359 9.35655 17.3308 9.44149 17.117 9.44149H17.0847Z" fill="black"/>
</svg>
