<svg width="24" height="24" viewBox="0 0 24 24" fill="none" xmlns="http://www.w3.org/2000/svg">
<path d="M17.061 1.5H6.939C5.49649 1.5 4.11306 2.07303 3.09305 3.09304C2.07304 4.11305 1.5 5.49648 1.5 6.93899V21.45C1.5 21.7284 1.61062 21.9955 1.80754 22.1924C2.00445 22.3893 2.27152 22.5 2.55 22.5H17.04C17.756 22.5027 18.4655 22.3641 19.1279 22.092C19.7902 21.8199 20.3923 21.4197 20.8995 20.9144C21.4068 20.409 21.8093 19.8085 22.084 19.1472C22.3586 18.486 22.5 17.777 22.5 17.061V6.93899C22.5 6.22473 22.3593 5.51747 22.086 4.85758C21.8126 4.19769 21.412 3.5981 20.907 3.09304C20.4019 2.58799 19.8023 2.18735 19.1424 1.91402C18.4825 1.64068 17.7753 1.5 17.061 1.5ZM15.612 12.7875H12.7875V15.612C12.7875 15.8208 12.7045 16.0211 12.5568 16.1688C12.4092 16.3165 12.2089 16.3995 12 16.3995C11.7911 16.3995 11.5908 16.3165 11.4432 16.1688C11.2955 16.0211 11.2125 15.8208 11.2125 15.612V12.7875H8.388C8.17914 12.7875 7.97884 12.7045 7.83115 12.5568C7.68347 12.4091 7.6005 12.2088 7.6005 12C7.6005 11.7911 7.68347 11.5908 7.83115 11.4431C7.97884 11.2955 8.17914 11.2125 8.388 11.2125H11.2125V8.38799C11.2125 8.17913 11.2955 7.97883 11.4432 7.83114C11.5908 7.68346 11.7911 7.60049 12 7.60049C12.2089 7.60049 12.4092 7.68346 12.5568 7.83114C12.7045 7.97883 12.7875 8.17913 12.7875 8.38799V11.2125H15.612C15.8209 11.2125 16.0212 11.2955 16.1688 11.4431C16.3165 11.5908 16.3995 11.7911 16.3995 12C16.3995 12.2088 16.3165 12.4091 16.1688 12.5568C16.0212 12.7045 15.8209 12.7875 15.612 12.7875Z" fill="black"/>
</svg>
