<svg width="24" height="24" viewBox="0 0 24 24" fill="none" xmlns="http://www.w3.org/2000/svg">
<path d="M17.7715 1.25H6.2129C4.89852 1.25 3.63781 1.7714 2.7074 2.6998C1.77699 3.6282 1.25286 4.88777 1.25001 6.20215V14.5381C1.2486 15.1907 1.37593 15.8372 1.6247 16.4406C1.87348 17.044 2.23882 17.5923 2.6998 18.0543C3.16079 18.5163 3.70837 18.8828 4.3112 19.1329C4.91403 19.383 5.56026 19.5117 6.2129 19.5117H8.0713C8.26473 19.5135 8.45543 19.5576 8.62991 19.6412C8.80439 19.7247 8.9584 19.8455 9.08106 19.9951L10.918 22.2617C11.0408 22.4142 11.1962 22.5371 11.3728 22.6216C11.5494 22.7061 11.7427 22.75 11.9385 22.75C12.1343 22.75 12.3275 22.7061 12.5041 22.6216C12.6807 22.5371 12.8362 22.4142 12.959 22.2617L14.6777 20.0488C14.8039 19.8847 14.9668 19.7526 15.1534 19.663C15.34 19.5735 15.545 19.529 15.752 19.5332H17.7715C18.4259 19.5332 19.0739 19.4038 19.6782 19.1524C20.2824 18.9009 20.8309 18.5325 21.2922 18.0682C21.7535 17.604 22.1184 17.053 22.3659 16.4472C22.6134 15.8413 22.7386 15.1925 22.7344 14.5381V6.20215C22.7315 4.88777 22.2074 3.6282 21.277 2.6998C20.3466 1.7714 19.0859 1.25 17.7715 1.25ZM8.2754 12.1641C8.39242 12.2767 8.47265 12.4222 8.50555 12.5812C8.53845 12.7403 8.52249 12.9057 8.45976 13.0555C8.39703 13.2054 8.29046 13.3328 8.15404 13.421C8.01762 13.5092 7.85772 13.5541 7.69532 13.5498C7.59091 13.5514 7.48731 13.5311 7.39114 13.4905C7.29497 13.4498 7.20832 13.3895 7.13673 13.3135L4.98829 11.165C4.91115 11.0898 4.85036 10.9994 4.80969 10.8996C4.76903 10.7998 4.74938 10.6927 4.75196 10.585C4.7516 10.4781 4.77336 10.3724 4.81589 10.2744C4.85841 10.1764 4.92077 10.0883 4.99903 10.0156L7.14747 7.94238C7.21754 7.84624 7.30804 7.76682 7.41246 7.70981C7.51688 7.6528 7.63263 7.61962 7.75139 7.61266C7.87015 7.6057 7.98898 7.62513 8.09935 7.66955C8.20971 7.71397 8.30887 7.78228 8.38969 7.86957C8.47052 7.95686 8.53101 8.06098 8.56682 8.17442C8.60264 8.28787 8.61288 8.40785 8.59682 8.52572C8.58075 8.6436 8.53878 8.75646 8.47392 8.85619C8.40906 8.95592 8.32292 9.04005 8.22169 9.10253L6.70704 10.6279L8.2754 12.1641ZM13.7861 8.49023L11.7773 13.3135C11.7149 13.4588 11.6117 13.5828 11.4801 13.6705C11.3485 13.7583 11.1943 13.8059 11.0361 13.8076C10.929 13.8079 10.8229 13.786 10.7246 13.7432C10.6248 13.7022 10.5342 13.6416 10.4582 13.565C10.3823 13.4883 10.3225 13.3972 10.2824 13.297C10.2423 13.1968 10.2228 13.0896 10.2249 12.9817C10.2271 12.8738 10.2509 12.7675 10.2949 12.6689L12.3037 7.8457C12.3398 7.74164 12.3969 7.64609 12.4713 7.56494C12.5458 7.4838 12.6361 7.41879 12.7367 7.37393C12.8373 7.32907 12.946 7.3053 13.0562 7.30411C13.1663 7.30292 13.2755 7.32432 13.377 7.367C13.4786 7.40967 13.5703 7.47271 13.6465 7.55223C13.7227 7.63174 13.7818 7.72603 13.8202 7.82929C13.8585 7.93254 13.8753 8.04256 13.8694 8.15254C13.8636 8.26253 13.8352 8.37014 13.7861 8.46875V8.49023ZM18.9961 11.1973L16.8477 13.3457C16.7761 13.4217 16.6894 13.482 16.5932 13.5227C16.4971 13.5634 16.3935 13.5836 16.2891 13.582C16.1276 13.5841 15.9692 13.5376 15.8345 13.4485C15.6998 13.3595 15.5949 13.232 15.5336 13.0826C15.4722 12.9332 15.4571 12.7688 15.4903 12.6108C15.5235 12.4528 15.6034 12.3083 15.7197 12.1963L17.2881 10.6602L15.7197 9.13476C15.6185 9.07228 15.5324 8.98815 15.4675 8.88842C15.4026 8.78868 15.3607 8.67583 15.3446 8.55795C15.3285 8.44007 15.3388 8.3201 15.3746 8.20665C15.4104 8.0932 15.4709 7.98909 15.5517 7.9018C15.6325 7.81451 15.7317 7.74619 15.8421 7.70177C15.9524 7.65735 16.0713 7.63793 16.19 7.64489C16.3088 7.65185 16.4245 7.68503 16.529 7.74203C16.6334 7.79904 16.7239 7.87847 16.7939 7.97461L18.9424 10.0478C19.0206 10.1205 19.083 10.2087 19.1255 10.3066C19.1681 10.4046 19.1898 10.5104 19.1895 10.6172C19.1977 10.7219 19.1849 10.8272 19.1516 10.9268C19.1184 11.0265 19.0655 11.1184 18.9961 11.1973Z" fill="black"/>
</svg>
