<svg width="24" height="24" viewBox="0 0 24 24" fill="none" xmlns="http://www.w3.org/2000/svg">
<path d="M17.9018 1.5H6.07675C4.79464 1.50572 3.56699 2.0217 2.66241 2.93505C1.75783 3.84841 1.24999 5.08476 1.25 6.37357V13.7434C1.25 15.0359 1.7608 16.2755 2.67002 17.1895C3.57924 18.1035 4.81241 18.6169 6.09825 18.6169C6.23795 18.6169 6.37193 18.6727 6.47072 18.772C6.5695 18.8713 6.625 19.006 6.625 19.1464V21.4914C6.63739 21.678 6.69775 21.8582 6.80018 22.0143C6.90261 22.1704 7.0436 22.2972 7.20936 22.3821C7.37512 22.4671 7.55997 22.5073 7.74584 22.4989C7.93171 22.4905 8.11223 22.4338 8.26975 22.3342L13.075 18.8114C13.2547 18.6853 13.4685 18.6175 13.6877 18.6169H17.8695C18.5089 18.6212 19.1428 18.4983 19.7348 18.2553C20.3267 18.0123 20.865 17.654 21.3186 17.201C21.7722 16.748 22.1322 16.2093 22.3779 15.6159C22.6236 15.0225 22.75 14.3861 22.75 13.7434V6.37357C22.75 5.08102 22.2392 3.84141 21.33 2.92744C20.4208 2.01346 19.1876 1.5 17.9018 1.5ZM12 14.7051C11.8405 14.7051 11.6847 14.6576 11.5521 14.5685C11.4195 14.4795 11.3161 14.3529 11.2551 14.2048C11.1941 14.0567 11.1781 13.8937 11.2092 13.7365C11.2404 13.5793 11.3171 13.4349 11.4299 13.3216C11.5427 13.2082 11.6863 13.131 11.8427 13.0998C11.9991 13.0685 12.1612 13.0845 12.3085 13.1459C12.4559 13.2072 12.5818 13.3111 12.6704 13.4444C12.759 13.5777 12.8063 13.7344 12.8063 13.8946C12.8035 14.1087 12.7176 14.3132 12.567 14.4646C12.4164 14.616 12.213 14.7023 12 14.7051ZM13.247 10.2854C13.1024 10.3912 12.9864 10.5316 12.9095 10.6939C12.8325 10.8562 12.797 11.0352 12.8063 11.2147V11.5173C12.8063 11.7322 12.7213 11.9384 12.5701 12.0904C12.4189 12.2424 12.2138 12.3278 12 12.3278C11.7862 12.3278 11.5811 12.2424 11.4299 12.0904C11.2787 11.9384 11.1938 11.7322 11.1938 11.5173V11.2147C11.1825 10.7516 11.2904 10.2934 11.507 9.88447C11.7235 9.47555 12.0415 9.12976 12.43 8.8806C12.5602 8.80759 12.6687 8.70102 12.7442 8.57186C12.8198 8.4427 12.8598 8.29563 12.86 8.14578C12.86 7.9165 12.7694 7.69661 12.6081 7.53449C12.4468 7.37237 12.2281 7.28129 12 7.28129C11.7719 7.28129 11.5532 7.37237 11.3919 7.53449C11.2306 7.69661 11.14 7.9165 11.14 8.14578C11.14 8.36072 11.0551 8.56687 10.9039 8.71886C10.7527 8.87085 10.5476 8.95624 10.3337 8.95624C10.1199 8.95624 9.91485 8.87085 9.76365 8.71886C9.61244 8.56687 9.5275 8.36072 9.5275 8.14578C9.53013 7.71068 9.64634 7.28389 9.86452 6.9081C10.0827 6.53231 10.3952 6.22068 10.7708 6.00436C11.1463 5.78805 11.5718 5.67464 12.0047 5.67547C12.4375 5.6763 12.8626 5.79134 13.2373 6.00909C13.6121 6.22683 13.9234 6.53966 14.1401 6.91628C14.3569 7.29291 14.4715 7.72013 14.4724 8.15524C14.4734 8.59035 14.3608 9.01809 14.1457 9.3957C13.9307 9.77331 13.6208 10.0876 13.247 10.307V10.2854Z" fill="black"/>
</svg>
