<svg width="24" height="24" viewBox="0 0 24 24" fill="none" xmlns="http://www.w3.org/2000/svg">
<path d="M14.4196 5.24166C15.2985 5.24155 16.1573 5.50365 16.8844 5.99398C16.1573 5.50365 15.2985 5.24155 14.4196 5.24166ZM16.8844 5.99398C17.4833 6.39371 17.9739 6.93362 18.313 7.56611C18.6522 8.1986 18.8294 8.90423 18.8291 9.62081V16.1783V9.59835C18.8294 8.88178 18.6522 8.17614 18.313 7.54365C17.9739 6.91117 17.4833 6.37125 16.8844 5.97152V5.99398ZM18.7839 0.750231H9.46734C8.47235 0.748369 7.50582 1.0799 6.72409 1.6912C5.94235 2.30249 5.39112 3.15781 5.15955 4.1188H14.397C15.8654 4.12177 17.2729 4.7024 18.3112 5.73358C19.3495 6.76477 19.9342 8.1625 19.9372 9.62081V16.0099C20.8837 15.7725 21.7234 15.2284 22.3234 14.4637C22.9235 13.699 23.2495 12.7574 23.25 11.7879V5.10692C23.2456 4.52941 23.1264 3.95844 22.8995 3.42672C22.6725 2.89501 22.3421 2.41299 21.9272 2.00828C21.5124 1.60358 21.0212 1.28413 20.4818 1.06826C19.9424 0.852378 19.3654 0.744306 18.7839 0.750231ZM18.7839 9.62081V16.3018C18.7839 17.4632 18.3193 18.5771 17.4924 19.3983C16.6654 20.2196 15.5439 20.681 14.3744 20.681H12.9837C12.7833 20.6784 12.5854 20.7252 12.4078 20.8173C12.2302 20.9094 12.0784 21.0439 11.9661 21.2087L10.9485 22.6347C10.8151 22.8247 10.6376 22.9798 10.4309 23.0869C10.2242 23.1941 9.99446 23.25 9.76131 23.25C9.52815 23.25 9.29845 23.1941 9.09175 23.0869C8.88505 22.9798 8.70747 22.8247 8.57412 22.6347L7.55653 21.2087C7.44419 21.0439 7.2924 20.9094 7.11478 20.8173C6.93717 20.7252 6.7393 20.6784 6.53894 20.681H5.15955C3.99098 20.678 2.87113 20.2157 2.04482 19.3951C1.21852 18.5745 0.752985 17.4623 0.75 16.3018V9.59835C0.758932 8.44174 1.22709 7.33536 2.05275 6.51959C2.87842 5.70382 3.99488 5.24459 5.15955 5.24166H14.4761C15.6319 5.25636 16.7356 5.72115 17.5498 6.53597C18.3639 7.35079 18.8233 8.45049 18.8291 9.59835L18.7839 9.62081ZM6.87814 13.1017C6.87814 12.8929 6.81581 12.6888 6.69902 12.5153C6.58224 12.3417 6.41625 12.2064 6.22205 12.1265C6.02784 12.0466 5.81415 12.0257 5.60798 12.0665C5.40182 12.1072 5.21244 12.2077 5.0638 12.3553C4.91517 12.5029 4.81394 12.691 4.77293 12.8958C4.73193 13.1005 4.75297 13.3127 4.83341 13.5056C4.91386 13.6985 5.05008 13.8633 5.22486 13.9793C5.39964 14.0953 5.60512 14.1572 5.81533 14.1572C6.09629 14.1542 6.36491 14.0421 6.5636 13.8448C6.76228 13.6475 6.8752 13.3807 6.87814 13.1017ZM10.8128 13.1017C10.8128 12.8924 10.7502 12.6879 10.6329 12.5141C10.5156 12.3403 10.3489 12.205 10.1541 12.1255C9.9592 12.046 9.74493 12.0257 9.53846 12.0674C9.33199 12.109 9.14265 12.2107 8.99447 12.3594C8.84629 12.5081 8.74597 12.6972 8.70625 12.9027C8.66652 13.1082 8.68919 13.3208 8.77137 13.5134C8.85355 13.7061 8.99153 13.8701 9.16779 13.9848C9.34405 14.0994 9.55063 14.1594 9.76131 14.1572C10.0412 14.1542 10.3087 14.0417 10.5055 13.8441C10.7024 13.6464 10.8128 13.3797 10.8128 13.1017ZM14.7701 13.1017C14.7701 12.8929 14.7078 12.6888 14.591 12.5153C14.4742 12.3417 14.3082 12.2064 14.114 12.1265C13.9198 12.0466 13.7061 12.0257 13.4999 12.0665C13.2938 12.1072 13.1044 12.2077 12.9558 12.3553C12.8071 12.5029 12.7059 12.691 12.6649 12.8958C12.6239 13.1005 12.6449 13.3127 12.7254 13.5056C12.8058 13.6985 12.942 13.8633 13.1168 13.9793C13.2916 14.0953 13.4971 14.1572 13.7073 14.1572C13.9902 14.1572 14.2617 14.0463 14.4628 13.8487C14.6639 13.6511 14.7784 13.3826 14.7814 13.1017H14.7701Z" fill="black"/>
</svg>
