<svg width="24" height="24" viewBox="0 0 24 24" fill="none" xmlns="http://www.w3.org/2000/svg">
<path d="M18.8 10.9556V16.1254C18.8 16.1254 18.731 16.1254 18.6965 16.1254C15.741 16.4664 13.648 16.1254 12.9465 15.1904C11.2215 12.8695 7.277 12.9905 5 13.2435V10.9006C5.01541 10.0739 5.36587 9.28513 5.9775 8.70073L7.1275 7.60078C7.54933 7.19615 7.88334 6.71574 8.11031 6.18717C8.33728 5.6586 8.45272 5.09232 8.45 4.52091V4.20193C8.0549 4.08264 7.71836 3.83046 7.50271 3.49208C7.28705 3.1537 7.20689 2.75205 7.27705 2.36148C7.34721 1.97092 7.56295 1.61789 7.88432 1.36777C8.20569 1.11765 8.61093 0.98738 9.025 1.00107H14.775C15.1846 1.00691 15.5787 1.152 15.8867 1.41038C16.1947 1.66876 16.3965 2.02355 16.456 2.41124C16.5155 2.79894 16.4288 3.19423 16.2114 3.52635C15.994 3.85848 15.6601 4.10576 15.2695 4.22393V4.49891C15.2663 5.07661 15.3848 5.64901 15.6179 6.18195C15.8511 6.71488 16.1941 7.19742 16.6265 7.60078L17.7765 8.70073C18.0971 8.99123 18.3531 9.34073 18.529 9.72822C18.7049 10.1157 18.797 10.5332 18.8 10.9556ZM16.5805 17.8963C14.108 17.8963 12.4175 17.3023 11.5435 16.1364C10.2325 14.3765 6.288 14.7285 5.115 14.8825H5V19.8432C5.00304 20.6815 5.35333 21.4844 5.97412 22.0761C6.59491 22.6679 7.43559 23.0001 8.312 23.0001H15.488C16.3664 23.0001 17.2088 22.6663 17.8299 22.0722C18.4511 21.4782 18.8 20.6724 18.8 19.8322V17.7643C18.0634 17.8488 17.3224 17.8929 16.5805 17.8963Z" fill="black"/>
</svg>
