<svg width="24" height="24" viewBox="0 0 24 24" fill="none" xmlns="http://www.w3.org/2000/svg">
<path d="M17.1061 5.66838H13.8812C13.3205 5.67073 12.772 5.50506 12.3064 5.19274C11.8408 4.88042 11.4794 4.43577 11.2689 3.91614L10.9572 3.0024C10.7472 2.48019 10.3845 2.03353 9.91652 1.72088C9.44851 1.40824 8.89701 1.24417 8.33421 1.25016H6.18423C5.53586 1.24874 4.89359 1.3754 4.29431 1.62287C3.69502 1.87033 3.15052 2.23373 2.69205 2.6922C2.23358 3.15066 1.87019 3.69517 1.62272 4.29445C1.37525 4.89374 1.24859 5.536 1.25001 6.18437V17.1063C1.26126 18.5996 1.85948 20.0286 2.91545 21.0846C3.97142 22.1405 5.40039 22.7387 6.89372 22.75H17.1061C18.5995 22.7387 20.0284 22.1405 21.0844 21.0846C22.1404 20.0286 22.7386 18.5996 22.7499 17.1063V11.3443C22.7471 9.84541 22.1526 8.4082 21.0957 7.34528C20.0388 6.28237 18.605 5.67971 17.1061 5.66838ZM14.4509 14.3328L9.54895 14.2683C9.44782 14.2697 9.34741 14.251 9.25357 14.2133C9.15972 14.1756 9.07431 14.1196 9.00229 14.0486C8.93028 13.9776 8.87309 13.893 8.83407 13.7997C8.79504 13.7063 8.77495 13.6062 8.77496 13.5051C8.78533 13.3032 8.87021 13.1123 9.01317 12.9693C9.15614 12.8263 9.34704 12.7414 9.54895 12.7311L14.4509 12.7956C14.6515 12.7984 14.8429 12.8801 14.9837 13.0229C15.1245 13.1657 15.2034 13.3582 15.2034 13.5588C15.2035 13.7604 15.1249 13.9541 14.9844 14.0986C14.8438 14.2432 14.6524 14.3272 14.4509 14.3328Z" fill="black"/>
</svg>
