<svg width="24" height="24" viewBox="0 0 24 24" fill="none" xmlns="http://www.w3.org/2000/svg">
<path d="M23 12C23 14.1756 22.3549 16.3023 21.1462 18.1113C19.9375 19.9202 18.2195 21.3301 16.2095 22.1627C14.1995 22.9952 11.9878 23.2131 9.85401 22.7886C7.72022 22.3642 5.76021 21.3165 4.22183 19.7782C2.68345 18.2398 1.6358 16.2798 1.21137 14.146C0.78693 12.0122 1.00477 9.80047 1.83733 7.79048C2.66989 5.78049 4.07979 4.06253 5.88873 2.85383C7.69767 1.64514 9.82441 1 12 1C13.4445 1 14.8749 1.28452 16.2095 1.83732C17.5441 2.39013 18.7567 3.20038 19.7782 4.22182C20.7996 5.24327 21.6099 6.4559 22.1627 7.79048C22.7155 9.12506 23 10.5555 23 12ZM18.6 12C18.6 11.7083 18.4841 11.4285 18.2778 11.2222C18.0715 11.0159 17.7917 10.9 17.5 10.9H6.5C6.20826 10.9 5.92848 11.0159 5.72219 11.2222C5.5159 11.4285 5.4 11.7083 5.4 12C5.4 12.2917 5.5159 12.5715 5.72219 12.7778C5.92848 12.9841 6.20826 13.1 6.5 13.1H17.5C17.7917 13.1 18.0715 12.9841 18.2778 12.7778C18.4841 12.5715 18.6 12.2917 18.6 12Z" fill="black"/>
</svg>
