<svg width="24" height="24" viewBox="0 0 24 24" fill="none" xmlns="http://www.w3.org/2000/svg">
<path d="M16.5042 22.75H7.485C5.83126 22.7443 4.24704 22.0841 3.07867 20.9137C1.9103 19.7434 1.25283 18.158 1.25 16.5043V7.49576C1.25283 5.84201 1.9103 4.25665 3.07867 3.08627C4.24704 1.91589 5.83126 1.25569 7.485 1.25001H16.4935C17.3137 1.2486 18.1261 1.40875 18.8845 1.72132C19.6428 2.0339 20.3321 2.49277 20.9131 3.07174C21.494 3.65072 21.9553 4.33845 22.2704 5.09568C22.5856 5.85291 22.7486 6.6648 22.75 7.48501V16.4935C22.7514 17.3146 22.5909 18.1279 22.2776 18.8869C21.9644 19.646 21.5046 20.3358 20.9245 20.9169C20.3443 21.498 19.6553 21.959 18.8969 22.2735C18.1384 22.5881 17.3254 22.75 16.5042 22.75ZM18.45 12C18.45 11.7149 18.3367 11.4415 18.1351 11.2399C17.9335 11.0383 17.6601 10.925 17.375 10.925H6.625C6.33989 10.925 6.06646 11.0383 5.86486 11.2399C5.66326 11.4415 5.55 11.7149 5.55 12C5.55 12.2851 5.66326 12.5585 5.86486 12.7601C6.06646 12.9617 6.33989 13.075 6.625 13.075H17.375C17.6601 13.075 17.9335 12.9617 18.1351 12.7601C18.3367 12.5585 18.45 12.2851 18.45 12Z" fill="black"/>
</svg>
