<svg width="24" height="24" viewBox="0 0 24 24" fill="none" xmlns="http://www.w3.org/2000/svg">
<path d="M20.4258 15.8052C20.7253 15.7782 21.0262 15.8386 21.292 15.9792C21.5578 16.1198 21.7771 16.3344 21.9233 16.5972C22.0695 16.8599 22.1364 17.1594 22.1157 17.4594C22.0951 17.7594 21.9879 18.0469 21.8071 18.2872C21.159 19.1919 20.3766 19.9925 19.487 20.6613C18.2117 21.5783 16.7563 22.2143 15.2171 22.5273C13.6778 22.8403 12.0897 22.8232 10.5575 22.4771C9.02537 22.131 7.58408 21.4637 6.32884 20.5194C5.0736 19.5752 4.03298 18.3753 3.27571 16.9992C2.51844 15.623 2.06174 14.1018 1.93578 12.5361C1.80983 10.9704 2.01748 9.39581 2.54502 7.91629C3.07257 6.43676 3.908 5.086 4.99614 3.9532C6.08429 2.8204 7.40038 1.93134 8.8575 1.34475C9.13508 1.24311 9.43589 1.22275 9.72463 1.28606C10.0134 1.34936 10.2781 1.49372 10.4877 1.70217C10.6972 1.91062 10.843 2.17453 10.9079 2.46293C10.9728 2.75132 10.954 3.05224 10.8539 3.33036C10.2502 4.80274 10.0432 6.40773 10.2537 7.98509C10.4643 9.56246 11.0849 11.057 12.0536 12.3195C13.0223 13.582 14.3053 14.5684 15.7744 15.18C17.2435 15.7916 18.8474 16.0072 20.4258 15.8052Z" fill="black"/>
</svg>
