<svg width="24" height="24" viewBox="0 0 24 24" fill="none" xmlns="http://www.w3.org/2000/svg">
<path d="M17.375 1.25H6.625C5.19946 1.25 3.83231 1.81629 2.8243 2.8243C1.81629 3.83231 1.25 5.19946 1.25 6.625V17.375C1.25 18.8005 1.81629 20.1677 2.8243 21.1757C3.83231 22.1837 5.19946 22.75 6.625 22.75H17.375C18.8005 22.75 20.1677 22.1837 21.1757 21.1757C22.1837 20.1677 22.75 18.8005 22.75 17.375V6.625C22.75 5.19946 22.1837 3.83231 21.1757 2.8243C20.1677 1.81629 18.8005 1.25 17.375 1.25ZM8.03325 16.6333C7.75472 16.6333 7.48245 16.5507 7.25087 16.3959C7.01928 16.2412 6.83878 16.0212 6.7322 15.7639C6.62561 15.5066 6.59772 15.2234 6.65206 14.9503C6.7064 14.6771 6.84052 14.4262 7.03747 14.2292C7.23441 14.0323 7.48534 13.8981 7.75851 13.8438C8.03169 13.7895 8.31484 13.8174 8.57216 13.9239C8.82949 14.0305 9.04943 14.211 9.20417 14.4426C9.35891 14.6742 9.4415 14.9465 9.4415 15.225C9.4415 15.5985 9.29313 15.9567 9.02903 16.2208C8.76494 16.4849 8.40674 16.6333 8.03325 16.6333ZM12 10.1833C11.7215 10.1833 11.4492 10.1007 11.2176 9.94592C10.986 9.79118 10.8055 9.57124 10.6989 9.31391C10.5924 9.05659 10.5645 8.77344 10.6188 8.50026C10.6731 8.22709 10.8073 7.97616 11.0042 7.77922C11.2012 7.58227 11.4521 7.44815 11.7253 7.39381C11.9984 7.33947 12.2816 7.36736 12.5389 7.47395C12.7962 7.58053 13.0162 7.76103 13.1709 7.99262C13.3257 8.2242 13.4083 8.49647 13.4083 8.775C13.4083 9.14849 13.2599 9.50669 12.9958 9.77078C12.7317 10.0349 12.3735 10.1833 12 10.1833ZM15.9668 16.6333C15.6882 16.6333 15.416 16.5507 15.1844 16.3959C14.9528 16.2412 14.7723 16.0212 14.6657 15.7639C14.5591 15.5066 14.5312 15.2234 14.5856 14.9503C14.6399 14.6771 14.774 14.4262 14.971 14.2292C15.1679 14.0323 15.4188 13.8981 15.692 13.8438C15.9652 13.7895 16.2483 13.8174 16.5057 13.9239C16.763 14.0305 16.9829 14.211 17.1377 14.4426C17.2924 14.6742 17.375 14.9465 17.375 15.225C17.375 15.5985 17.2266 15.9567 16.9625 16.2208C16.6984 16.4849 16.3402 16.6333 15.9668 16.6333Z" fill="black"/>
</svg>
