<svg width="24" height="24" viewBox="0 0 24 24" fill="none" xmlns="http://www.w3.org/2000/svg">
<path d="M15.3483 13.0994L21.7371 15.1123C22.0809 15.208 22.3852 15.411 22.6055 15.6919C22.8258 15.9727 22.9505 16.3166 22.9615 16.6733C22.9725 17.03 22.8692 17.3809 22.6666 17.6748C22.4641 17.9687 22.1729 18.1901 21.8356 18.3067L20.0196 18.9631C19.7894 19.0466 19.5807 19.1802 19.4085 19.3543C19.2363 19.5284 19.105 19.7385 19.024 19.9696L18.3348 21.8512C18.2225 22.1859 18.0079 22.4768 17.7213 22.683C17.4347 22.8891 17.0906 23 16.7376 23C16.3846 23 16.0405 22.8891 15.7539 22.683C15.4673 22.4768 15.2527 22.1859 15.1404 21.8512L13.1494 15.2873C13.0546 14.9821 13.0453 14.6567 13.1223 14.3465C13.1994 14.0363 13.3599 13.7531 13.5865 13.5277C13.813 13.3023 14.097 13.1431 14.4076 13.0676C14.7182 12.9921 15.0435 13.0031 15.3483 13.0994ZM11.5741 15.7578C11.4161 15.2513 11.3803 14.7147 11.4697 14.1918C11.559 13.6688 11.771 13.1745 12.0882 12.7493C12.4047 12.3245 12.8154 11.9789 13.2881 11.7397C13.7608 11.5006 14.2825 11.3743 14.8122 11.3709C15.1616 11.3705 15.5087 11.4259 15.8406 11.535L21.6496 13.3619C21.7775 12.7135 21.8398 12.0538 21.8356 11.3928C21.8356 9.33729 21.226 7.32795 20.0841 5.61887C18.9421 3.90978 17.319 2.57771 15.4199 1.79111C13.5209 1.0045 11.4312 0.798691 9.41524 1.1997C7.39924 1.60071 5.54743 2.59052 4.09397 4.04398C2.64051 5.49744 1.65069 7.34925 1.24969 9.36526C0.848679 11.3813 1.05449 13.4709 1.8411 15.3699C2.6277 17.269 3.95977 18.8921 5.66885 20.0341C7.37794 21.176 9.38728 21.7856 11.4428 21.7856C12.0812 21.7836 12.7182 21.725 13.3463 21.6105L11.5741 15.7578Z" fill="black"/>
</svg>
