<svg width="24" height="24" viewBox="0 0 24 24" fill="none" xmlns="http://www.w3.org/2000/svg">
<path d="M12.3245 3.7003H11.6756C9.918 3.7003 7.23394 4.41484 5.99111 5.68672C4.74827 6.95859 4.05005 8.68363 4.05005 10.4823V16.9798C4.05312 18.7765 4.75269 20.4985 5.9952 21.7678C7.2377 23.0371 9.92001 23.75 11.6756 23.75H12.3245C14.0801 23.75 16.7624 23.0371 18.0049 21.7678C19.2474 20.4985 19.947 18.7765 19.95 16.9798V10.4823C19.95 9.59171 19.7786 8.7098 19.4456 7.88697C19.1125 7.06413 18.6244 6.31649 18.009 5.68672C17.3936 5.05695 16.663 4.55738 15.859 4.21655C15.0549 3.87573 13.1947 3.7003 12.3245 3.7003ZM12.869 11.668C12.869 11.9039 12.7774 12.13 12.6145 12.2968C12.4515 12.4636 12.2305 12.5573 12 12.5573C11.7696 12.5573 11.5486 12.4636 11.3856 12.2968C11.2226 12.13 11.1311 11.9039 11.1311 11.668V8.20585C11.1311 7.97001 11.2226 7.74382 11.3856 7.57705C11.5486 7.41029 11.7696 7.3166 12 7.3166C12.2305 7.3166 12.4515 7.41029 12.6145 7.57705C12.7774 7.74382 12.869 7.97001 12.869 8.20585V11.668ZM11.1311 3.7003V1.13925C11.1311 0.903409 11.2226 0.677224 11.3856 0.510456C11.5486 0.343689 11.7696 0.25 12 0.25C12.2305 0.25 12.4515 0.343689 12.6145 0.510456C12.7774 0.677224 12.869 0.903409 12.869 1.13925V3.7003H12.3245H11.6756H11.1311Z" fill="black"/>
</svg>
