<svg width="24" height="24" viewBox="0 0 24 24" fill="none" xmlns="http://www.w3.org/2000/svg">
<path d="M14.8944 20.0927L10.595 19.1165C9.22692 18.8028 8.03927 17.9591 7.2928 16.7705C6.54633 15.5819 6.30206 14.1456 6.61363 12.7771L8.25881 5.61506C8.41279 4.93836 8.69877 4.29869 9.10038 3.7327C9.50198 3.16671 10.0113 2.68552 10.5992 2.3167C11.1871 1.94787 11.8419 1.69866 12.5263 1.58335C13.2106 1.46803 13.911 1.48888 14.5873 1.64468L18.8867 2.63179C19.5637 2.78587 20.2037 3.07179 20.7701 3.47323C21.3366 3.87466 21.8184 4.38374 22.1881 4.97141C22.5578 5.55907 22.8082 6.2138 22.9248 6.89821C23.0415 7.58262 23.0222 8.28331 22.868 8.96027L21.2229 16.1223C21.0689 16.799 20.7829 17.4387 20.3813 18.0047C19.9797 18.5707 19.4704 19.0518 18.8825 19.4207C18.2946 19.7895 17.6397 20.0387 16.9554 20.154C16.271 20.2693 15.5707 20.2485 14.8944 20.0927ZM8.47817 4.91312C8.53301 4.79247 8.57688 4.67182 8.63172 4.56214C8.57688 4.67182 8.53301 4.79247 8.47817 4.91312ZM14.8944 20.0927L10.595 19.1165C9.74557 18.92 8.95781 18.5169 8.30156 17.9429C7.64531 17.3689 7.14087 16.6418 6.83299 15.8262C7.14087 16.6418 7.64531 17.3689 8.30156 17.9429C8.95781 18.5169 9.74557 18.92 10.595 19.1165L14.8944 20.0927C15.1502 20.1542 15.4107 20.1946 15.6731 20.2133C15.4101 20.1995 15.1492 20.1591 14.8944 20.0927ZM7.87494 7.26024L6.61363 12.7442C6.47179 13.4353 6.47179 14.148 6.61363 14.8391C6.47179 14.148 6.47179 13.4353 6.61363 12.7442L7.87494 7.26024ZM10.3427 20.1804C9.5228 19.993 8.748 19.6454 8.06285 19.1576C7.3777 18.6698 6.79571 18.0514 6.35031 17.338C5.90492 16.6245 5.60491 15.8301 5.46752 15.0003C5.33013 14.1706 5.35807 13.3218 5.54974 12.5029L7.18396 5.41764C7.18396 5.24215 7.29364 5.0886 7.34848 4.91312L4.78199 5.65893C4.1214 5.84944 3.50483 6.16829 2.96754 6.59724C2.43025 7.0262 1.98278 7.55685 1.65071 8.15885C1.31864 8.76086 1.10849 9.42241 1.03226 10.1057C0.956028 10.789 1.01522 11.4806 1.20646 12.141L3.1039 18.7217C3.49352 20.0522 4.39425 21.1741 5.60902 21.8422C6.8238 22.5102 8.25372 22.6699 9.58593 22.2863L13.9731 21.014L10.3427 20.1804Z" fill="black"/>
</svg>
