<svg width="24" height="24" viewBox="0 0 24 24" fill="none" xmlns="http://www.w3.org/2000/svg">
<path d="M22.56 15.6719L15.1815 23.4193V18.9576C15.1828 18.7221 15.202 18.487 15.2392 18.2544C15.3385 17.5267 15.6957 16.8588 16.2458 16.3722C16.7958 15.8856 17.5023 15.6126 18.2367 15.6028H22.6291L22.56 15.6719ZM8.63315 2.33308V1.36466C8.63315 1.13534 8.54206 0.915409 8.3799 0.753254C8.21774 0.591098 7.99781 0.5 7.76849 0.5C7.53917 0.5 7.31924 0.591098 7.15708 0.753254C6.99493 0.915409 6.90383 1.13534 6.90383 1.36466V2.39073C7.16485 2.37315 7.42677 2.37315 7.68779 2.39073L8.63315 2.33308ZM17.0492 2.33308V1.36466C17.0492 1.13534 16.9581 0.915409 16.7959 0.753254C16.6338 0.591098 16.4139 0.5 16.1845 0.5C15.9552 0.5 15.7353 0.591098 15.5731 0.753254C15.411 0.915409 15.3199 1.13534 15.3199 1.36466V2.33308H16.2768C16.5353 2.33464 16.7933 2.3539 17.0492 2.39073V2.33308ZM18.2021 13.8619C17.5521 13.8752 16.9113 14.018 16.3172 14.2819C15.7231 14.5459 15.1876 14.9257 14.742 15.3991C14.2965 15.8726 13.9499 16.4302 13.7225 17.0392C13.4951 17.6482 13.3914 18.2965 13.4176 18.9461V23.5H7.6532C5.98573 23.4969 4.3876 22.8324 3.2096 21.6522C2.0316 20.4721 1.36999 18.8727 1.37 17.2053V8.62782C1.37031 7.0914 1.93356 5.60834 2.95324 4.45907C3.97293 3.30979 5.37838 2.57397 6.90383 2.39073V3.47444C6.90383 3.70376 6.99493 3.92369 7.15708 4.08584C7.31924 4.248 7.53917 4.3391 7.76849 4.3391C7.99781 4.3391 8.21774 4.248 8.3799 4.08584C8.54206 3.92369 8.63315 3.70376 8.63315 3.47444V2.32155H15.3199V3.47444C15.3199 3.70376 15.411 3.92369 15.5731 4.08584C15.7353 4.248 15.9552 4.3391 16.1845 4.3391C16.4139 4.3391 16.6338 4.248 16.7959 4.08584C16.9581 3.92369 17.0492 3.70376 17.0492 3.47444V2.39073C18.5726 2.57658 19.9752 3.31353 20.9926 4.46254C22.0099 5.61155 22.5715 7.09316 22.5715 8.62782V13.8734L18.2021 13.8619ZM11.6537 14.3231C11.6552 14.2085 11.634 14.0949 11.5912 13.9886C11.5485 13.8824 11.485 13.7857 11.4046 13.7042C11.3241 13.6227 11.2283 13.5579 11.1226 13.5138C11.017 13.4696 10.9036 13.4469 10.789 13.4469H6.85771C6.62533 13.4469 6.40247 13.5392 6.23815 13.7035C6.07384 13.8678 5.98152 14.0907 5.98152 14.3231C5.98152 14.5554 6.07384 14.7783 6.23815 14.9426C6.40247 15.1069 6.62533 15.1992 6.85771 15.1992H10.8582C11.0815 15.1903 11.2926 15.0953 11.4474 14.9341C11.6021 14.7729 11.6885 14.558 11.6883 14.3346L11.6537 14.3231ZM18.0176 8.8584C18.0191 8.74388 17.9979 8.6302 17.9551 8.52396C17.9124 8.41772 17.8489 8.32104 17.7685 8.23952C17.688 8.158 17.5922 8.09328 17.4865 8.04911C17.3809 8.00494 17.2675 7.9822 17.153 7.98221H6.77701C6.54463 7.98221 6.32177 8.07452 6.15745 8.23884C5.99313 8.40315 5.90082 8.62602 5.90082 8.8584C5.90082 9.09078 5.99313 9.31364 6.15745 9.47796C6.32177 9.64227 6.54463 9.73459 6.77701 9.73459H17.153C17.2675 9.7346 17.3809 9.71185 17.4865 9.66768C17.5922 9.62351 17.688 9.55879 17.7685 9.47727C17.8489 9.39575 17.9124 9.29907 17.9551 9.19283C17.9979 9.08659 18.0191 8.97291 18.0176 8.8584Z" fill="black"/>
</svg>
