<svg width="24" height="24" viewBox="0 0 24 24" fill="none" xmlns="http://www.w3.org/2000/svg">
<path d="M19.5263 7.69746C21.3067 7.69746 22.7501 6.25415 22.7501 4.47373C22.7501 2.69331 21.3067 1.25 19.5263 1.25C17.7459 1.25 16.3026 2.69331 16.3026 4.47373C16.3026 6.25415 17.7459 7.69746 19.5263 7.69746Z" fill="black"/>
<path d="M19.5263 9.30926C18.2447 9.30642 17.0164 8.79605 16.1101 7.88981C15.2039 6.98358 14.6935 5.75527 14.6907 4.47367C14.6871 3.5364 14.964 2.6195 15.4859 1.84095C13.1885 1.05204 10.6917 1.06474 8.4025 1.87698C6.11331 2.68922 4.16684 4.25308 2.8805 6.31353C1.59417 8.37399 1.04387 10.8095 1.31934 13.2228C1.59481 15.6362 2.6798 17.885 4.39738 19.6026C6.11495 21.3201 8.36377 22.4051 10.7771 22.6806C13.1905 22.9561 15.6259 22.4058 17.6864 21.1194C19.7469 19.8331 21.3107 17.8866 22.123 15.5974C22.9352 13.3083 22.9479 10.8114 22.159 8.51407C21.3804 9.03593 20.4635 9.31287 19.5263 9.30926Z" fill="black"/>
</svg>
