<svg width="24" height="24" viewBox="0 0 24 24" fill="none" xmlns="http://www.w3.org/2000/svg">
<path d="M21.6731 15.5051L20.8216 14.2529C19.6918 12.5563 19.1064 10.5556 19.1436 8.5176V8.25463C19.1402 7.09382 18.8492 5.95194 18.2967 4.93107C17.7441 3.91021 16.9472 3.04217 15.9772 2.40458C15.0071 1.76699 13.8942 1.37971 12.7379 1.27736C11.5816 1.17501 10.418 1.36079 9.35104 1.81809C8.10112 2.33487 7.03529 3.21525 6.29175 4.34508C5.5482 5.4749 5.16125 6.80206 5.18106 8.15445V8.24211C5.19646 10.4254 4.50696 12.5554 3.21504 14.3155L2.36351 15.4676C2.02577 15.9239 1.84557 16.4777 1.85009 17.0454C1.86302 17.7343 2.1433 18.3912 2.63169 18.8773C3.12008 19.3633 3.77831 19.6404 4.46728 19.6501H19.4942C19.8429 19.6501 20.1881 19.5814 20.5102 19.448C20.8323 19.3146 21.1249 19.119 21.3714 18.8725C21.6179 18.626 21.8135 18.3333 21.9469 18.0112C22.0803 17.6891 22.149 17.3439 22.149 16.9953V16.9202C22.1311 16.4123 21.9658 15.9206 21.6731 15.5051ZM12.9074 10.4962C12.9074 10.7452 12.8085 10.9841 12.6323 11.1603C12.4562 11.3364 12.2173 11.4353 11.9682 11.4353C11.7191 11.4353 11.4803 11.3364 11.3041 11.1603C11.128 10.9841 11.029 10.7452 11.029 10.4962V6.51401C11.029 6.26492 11.128 6.02604 11.3041 5.84991C11.4803 5.67378 11.7191 5.57483 11.9682 5.57483C12.2173 5.57483 12.4562 5.67378 12.6323 5.84991C12.8085 6.02604 12.9074 6.26492 12.9074 6.51401V10.4962Z" fill="black"/>
<path d="M9.56388 20.9025C9.70807 21.4331 10.0228 21.9015 10.4596 22.2354C10.8964 22.5693 11.4309 22.7502 11.9807 22.7502C12.5305 22.7502 13.065 22.5693 13.5018 22.2354C13.9386 21.9015 14.2534 21.4331 14.3975 20.9025H9.56388Z" fill="black"/>
</svg>
