<svg width="24" height="24" viewBox="0 0 24 24" fill="none" xmlns="http://www.w3.org/2000/svg">
<path d="M19.525 7.7C21.3061 7.7 22.75 6.25612 22.75 4.475C22.75 2.69388 21.3061 1.25 19.525 1.25C17.7439 1.25 16.3 2.69388 16.3 4.475C16.3 6.25612 17.7439 7.7 19.525 7.7Z" fill="black"/>
<path d="M19.525 9.3125C18.2429 9.30966 17.0141 8.79908 16.1075 7.89249C15.2009 6.9859 14.6903 5.75711 14.6875 4.475C14.6983 3.72645 14.8822 2.99056 15.225 2.325H6.625C5.19946 2.325 3.83231 2.89129 2.8243 3.8993C1.81629 4.90731 1.25 6.27446 1.25 7.7V17.375C1.25 18.8005 1.81629 20.1677 2.8243 21.1757C3.83231 22.1837 5.19946 22.75 6.625 22.75H16.3C17.7255 22.75 19.0927 22.1837 20.1007 21.1757C21.1087 20.1677 21.675 18.8005 21.675 17.375V8.775C21.0094 9.11776 20.2736 9.30173 19.525 9.3125Z" fill="black"/>
</svg>
