<svg width="24" height="24" viewBox="0 0 24 24" fill="none" xmlns="http://www.w3.org/2000/svg">
<path fill-rule="evenodd" clip-rule="evenodd" d="M12.8288 4.14108V2.06458C12.8288 1.84854 12.743 1.64135 12.5903 1.48858C12.4375 1.33582 12.2303 1.25 12.0143 1.25C11.7982 1.25 11.591 1.33582 11.4383 1.48858C11.2855 1.64135 11.1997 1.84854 11.1997 2.06458V4.11732C11.1964 4.13697 11.1953 4.15691 11.1965 4.17675C10.6988 4.25514 10.2109 4.39526 9.7443 4.59525C8.66021 5.04347 7.73579 5.80704 7.09089 6.78697C6.446 7.7669 6.11039 8.91797 6.12757 10.0909V10.167C6.13463 12.0631 5.52892 13.9107 4.40066 15.4346L3.68383 16.4447C3.39368 16.8419 3.23769 17.3212 3.23853 17.8132C3.23853 18.4238 3.48112 19.0095 3.91293 19.4413C4.34474 19.8731 4.9304 20.1157 5.54107 20.1157H18.52C18.8224 20.1157 19.1218 20.0561 19.4012 19.9404C19.6805 19.8247 19.9344 19.6551 20.1482 19.4413C20.362 19.2275 20.5316 18.9737 20.6473 18.6943C20.763 18.4149 20.8226 18.1155 20.8226 17.8132V17.748C20.8252 17.2843 20.689 16.8304 20.4316 16.4447L19.693 15.3586C18.7191 13.8803 18.2121 12.1434 18.2376 10.3733V10.1887C18.2365 9.18097 17.9854 8.18927 17.5069 7.3024C17.0284 6.41552 16.3374 5.66118 15.4958 5.10693C14.6946 4.57928 13.7808 4.24866 12.8288 4.14108ZM9.9292 21.1475C10.0543 21.6076 10.3273 22.0139 10.7061 22.3035C11.0849 22.5931 11.5485 22.75 12.0254 22.75C12.5022 22.75 12.9658 22.5931 13.3447 22.3035C13.7235 22.0139 13.9965 21.6076 14.1216 21.1475H9.9292ZM2.65225 11.0145C2.45664 11.0163 2.26709 10.9467 2.11913 10.8187C1.97117 10.6908 1.87496 10.5132 1.84853 10.3194C1.6337 9.03112 1.77168 7.7087 2.24782 6.49251C2.72397 5.27633 3.52052 4.21175 4.55293 3.41177C4.7344 3.28791 4.95765 3.24121 5.17356 3.28195C5.38946 3.32268 5.58034 3.44752 5.7042 3.62899C5.82807 3.81047 5.87477 4.03371 5.83403 4.24962C5.79329 4.46552 5.66846 4.6564 5.48698 4.78026C4.70988 5.40756 4.11264 6.22935 3.75592 7.16216C3.3992 8.09497 3.29571 9.10557 3.45597 10.0913C3.47123 10.197 3.46528 10.3047 3.43847 10.408C3.41166 10.5114 3.36452 10.6084 3.29981 10.6933C3.23509 10.7782 3.1541 10.8494 3.06157 10.9027C2.96903 10.956 2.8668 10.9903 2.76086 11.0036L2.65225 11.0145ZM21.2462 11.0145H21.3548C21.5572 11.0152 21.7523 10.9395 21.9013 10.8026C22.0503 10.6657 22.1422 10.4776 22.1586 10.276C22.3652 8.99441 22.2231 7.68089 21.7473 6.47315C21.2714 5.26542 20.4794 4.20799 19.4542 3.41177C19.3643 3.35044 19.2632 3.30741 19.1568 3.28513C19.0503 3.26285 18.9404 3.26177 18.8335 3.28194C18.6176 3.32268 18.4267 3.44752 18.3029 3.62899C18.2415 3.71884 18.1985 3.8199 18.1762 3.92639C18.154 4.03288 18.1529 4.14271 18.1731 4.24961C18.1932 4.35652 18.2343 4.4584 18.2938 4.54945C18.3533 4.6405 18.4302 4.71893 18.5201 4.78026C19.299 5.40853 19.8973 6.2321 20.2541 7.16702C20.6109 8.10193 20.7134 9.11474 20.5511 10.1022C20.5359 10.2079 20.5418 10.3155 20.5686 10.4189C20.5954 10.5222 20.6426 10.6192 20.7073 10.7042C20.772 10.7891 20.853 10.8603 20.9455 10.9136C21.0381 10.9669 21.1403 11.0012 21.2462 11.0145Z" fill="black"/>
</svg>
