<svg width="24" height="24" viewBox="0 0 24 24" fill="none" xmlns="http://www.w3.org/2000/svg">
<path d="M7.31866 7.53904C6.94171 7.53998 6.56666 7.59061 6.20393 7.68954V4.77634C6.20389 4.30967 6.29992 3.84763 6.48645 3.41702C6.67298 2.98641 6.9463 2.59579 7.29056 2.26781C7.63482 1.93982 8.04317 1.68101 8.49193 1.50636C8.9407 1.33172 9.42095 1.24472 9.90484 1.25041H13.851C14.3358 1.24328 14.8173 1.32922 15.2673 1.50322C15.7174 1.67722 16.1271 1.93581 16.4725 2.26393C16.818 2.59206 17.0923 2.98317 17.2795 3.4145C17.4667 3.84582 17.5631 4.30875 17.5631 4.77634V7.70029C17.2489 7.62749 16.9274 7.58784 16.6044 7.58204H15.9578V4.77634C15.9578 4.51659 15.9048 4.25939 15.8017 4.01941C15.6986 3.77943 15.5476 3.56138 15.3571 3.37771C15.1666 3.19404 14.9405 3.04835 14.6917 2.94894C14.4428 2.84954 14.1761 2.79838 13.9067 2.79838H9.90484C9.63455 2.79696 9.36663 2.84708 9.11649 2.94585C8.86635 3.04461 8.63892 3.19009 8.44728 3.3739C8.25563 3.55771 8.10355 3.77624 7.99978 4.01692C7.896 4.2576 7.84258 4.51569 7.84259 4.77634V7.53904H7.31866ZM22.1 18.8478H10.8747C10.6618 18.8478 10.4576 18.7663 10.3071 18.6211C10.1566 18.476 10.0721 18.2791 10.0721 18.0738C10.0721 17.8686 10.1566 17.6717 10.3071 17.5265C10.4576 17.3814 10.6618 17.2999 10.8747 17.2999H21.9105L20.7066 10.85C20.5471 10.0912 20.1667 9.39195 19.61 8.83413C19.0533 8.2763 18.3432 7.883 17.5631 7.70029V8.62477C17.5631 8.83004 17.4785 9.02691 17.328 9.17206C17.1775 9.31721 16.9733 9.39875 16.7605 9.39875C16.5476 9.39875 16.3434 9.31721 16.1929 9.17206C16.0424 9.02691 15.9578 8.83004 15.9578 8.62477V7.54979H7.84259V8.62477C7.85592 8.73334 7.84526 8.8434 7.8113 8.9477C7.77733 9.05201 7.72084 9.14819 7.64554 9.22991C7.57024 9.31164 7.47784 9.37706 7.37442 9.42185C7.27101 9.46665 7.15892 9.48981 7.04555 9.48981C6.93218 9.48981 6.8201 9.46665 6.71669 9.42185C6.61327 9.37706 6.52087 9.31164 6.44557 9.22991C6.37027 9.14819 6.31377 9.05201 6.27981 8.9477C6.24585 8.8434 6.23518 8.73334 6.24852 8.62477V7.70029C5.46417 7.89394 4.75405 8.30085 4.20267 8.87259C3.65129 9.44433 3.28188 10.1568 3.13841 10.9252L1.9568 17.9986C1.85678 18.5818 1.8892 19.1789 2.05182 19.7489C2.21444 20.3188 2.50339 20.8479 2.89871 21.2996C3.29403 21.7514 3.78631 22.115 4.34156 22.3654C4.89681 22.6158 5.50179 22.747 6.11475 22.75H17.8752C18.9655 22.7509 20.0139 22.3454 20.8013 21.6181C21.5886 20.8909 22.054 19.8983 22.1 18.8478V18.8478Z" fill="black"/>
</svg>
