<svg width="24" height="24" viewBox="0 0 24 24" fill="none" xmlns="http://www.w3.org/2000/svg">
<path d="M17.412 1H6.58795C5.6894 1 4.82765 1.35695 4.19227 1.99232C3.5569 2.6277 3.19995 3.48945 3.19995 4.388V19.612C3.19995 20.5106 3.5569 21.3723 4.19227 22.0077C4.82765 22.6431 5.6894 23 6.58795 23H17.412C18.3105 23 19.1723 22.6431 19.8076 22.0077C20.443 21.3723 20.8 20.5106 20.8 19.612V4.388C20.8 3.48945 20.443 2.6277 19.8076 1.99232C19.1723 1.35695 18.3105 1 17.412 1ZM12 20.03C11.6192 20.03 11.247 19.9171 10.9305 19.7056C10.6139 19.4941 10.3672 19.1934 10.2215 18.8417C10.0758 18.4899 10.0377 18.1029 10.1119 17.7295C10.1862 17.356 10.3696 17.013 10.6388 16.7438C10.908 16.4746 11.251 16.2913 11.6244 16.217C11.9978 16.1427 12.3849 16.1808 12.7366 16.3265C13.0884 16.4722 13.389 16.719 13.6005 17.0355C13.8121 17.3521 13.925 17.7243 13.925 18.105C13.925 18.6155 13.7221 19.1052 13.3611 19.4662C13.0001 19.8272 12.5105 20.03 12 20.03ZM14.134 5.73H9.86595C9.64715 5.73 9.43731 5.64308 9.28259 5.48836C9.12787 5.33365 9.04095 5.1238 9.04095 4.905C9.04095 4.6862 9.12787 4.47635 9.28259 4.32164C9.43731 4.16692 9.64715 4.08 9.86595 4.08H14.134C14.3528 4.08 14.5626 4.16692 14.7173 4.32164C14.872 4.47635 14.959 4.6862 14.959 4.905C14.959 5.1238 14.872 5.33365 14.7173 5.48836C14.5626 5.64308 14.3528 5.73 14.134 5.73Z" fill="black"/>
</svg>
