<svg width="24" height="24" viewBox="0 0 24 24" fill="none" xmlns="http://www.w3.org/2000/svg">
<path d="M12 1C9.82441 1 7.69767 1.64514 5.88873 2.85383C4.07979 4.06253 2.66989 5.78049 1.83733 7.79048C1.00477 9.80047 0.78693 12.0122 1.21137 14.146C1.6358 16.2798 2.68345 18.2398 4.22183 19.7782C5.76021 21.3165 7.72022 22.3642 9.85401 22.7886C11.9878 23.2131 14.1995 22.9952 16.2095 22.1627C18.2195 21.3301 19.9375 19.9202 21.1462 18.1113C22.3549 16.3023 23 14.1756 23 12C23 10.5555 22.7155 9.12506 22.1627 7.79048C21.6099 6.4559 20.7996 5.24327 19.7782 4.22182C18.7567 3.20038 17.5441 2.39013 16.2095 1.83732C14.8749 1.28452 13.4445 1 12 1ZM16.818 7.446C16.9507 7.446 17.0804 7.48535 17.1908 7.55908C17.3011 7.63281 17.3871 7.73761 17.4379 7.86022C17.4887 7.98283 17.502 8.11774 17.4761 8.2479C17.4502 8.37807 17.3863 8.49762 17.2925 8.59147C17.1986 8.68531 17.0791 8.74921 16.9489 8.7751C16.8187 8.801 16.6838 8.78771 16.5612 8.73692C16.4386 8.68613 16.3338 8.60013 16.2601 8.48979C16.1864 8.37944 16.147 8.24971 16.147 8.117C16.147 7.93904 16.2177 7.76837 16.3435 7.64253C16.4694 7.51669 16.64 7.446 16.818 7.446ZM11.736 6.775C11.8687 6.775 11.9984 6.81435 12.1088 6.88808C12.2191 6.96181 12.3051 7.06661 12.3559 7.18922C12.4067 7.31183 12.42 7.44674 12.3941 7.5769C12.3682 7.70706 12.3043 7.82663 12.2105 7.92047C12.1166 8.01431 11.9971 8.07821 11.8669 8.1041C11.7367 8.12999 11.6018 8.11671 11.4792 8.06592C11.3566 8.01513 11.2518 7.92913 11.1781 7.81879C11.1044 7.70844 11.065 7.57871 11.065 7.446C11.065 7.35788 11.0824 7.27063 11.1161 7.18922C11.1498 7.10781 11.1992 7.03384 11.2615 6.97153C11.3238 6.90922 11.3978 6.8598 11.4792 6.82608C11.5606 6.79235 11.6479 6.775 11.736 6.775ZM7.017 9.261C7.10604 9.25954 7.19448 9.27582 7.27716 9.30888C7.35985 9.34195 7.43512 9.39114 7.4986 9.4536C7.56208 9.51605 7.61249 9.59052 7.64689 9.67265C7.6813 9.75478 7.69901 9.84295 7.699 9.932C7.67798 10.0966 7.59768 10.2478 7.47315 10.3575C7.34863 10.4671 7.18841 10.5276 7.0225 10.5276C6.8566 10.5276 6.69638 10.4671 6.57185 10.3575C6.44733 10.2478 6.36703 10.0966 6.346 9.932C6.346 9.84388 6.36336 9.75663 6.39708 9.67522C6.4308 9.59381 6.48023 9.51984 6.54253 9.45753C6.60484 9.39522 6.67881 9.3458 6.76022 9.31207C6.84163 9.27835 6.92889 9.261 7.017 9.261ZM4.113 14.2C3.93504 14.2 3.76437 14.1293 3.63854 14.0035C3.5127 13.8776 3.442 13.707 3.442 13.529C3.442 13.4409 3.45936 13.3536 3.49308 13.2722C3.5268 13.1908 3.57623 13.1168 3.63854 13.0545C3.70084 12.9922 3.77481 12.9428 3.85622 12.9091C3.93763 12.8754 4.02489 12.858 4.113 12.858C4.20112 12.858 4.28838 12.8754 4.36978 12.9091C4.45119 12.9428 4.52516 12.9922 4.58747 13.0545C4.64978 13.1168 4.69921 13.1908 4.73293 13.2722C4.76665 13.3536 4.784 13.4409 4.784 13.529C4.784 13.707 4.71331 13.8776 4.58747 14.0035C4.46164 14.1293 4.29096 14.2 4.113 14.2ZM11.879 16.928C11.7463 16.928 11.6166 16.8886 11.5062 16.8149C11.3959 16.7412 11.3099 16.6364 11.2591 16.5138C11.2083 16.3912 11.195 16.2563 11.2209 16.1261C11.2468 15.9959 11.3107 15.8764 11.4045 15.7825C11.4984 15.6887 11.6179 15.6248 11.7481 15.5989C11.8783 15.573 12.0132 15.5863 12.1358 15.6371C12.2584 15.6879 12.3632 15.7739 12.4369 15.8842C12.5106 15.9946 12.55 16.1243 12.55 16.257C12.55 16.435 12.4793 16.6056 12.3535 16.7315C12.2276 16.8573 12.057 16.928 11.879 16.928ZM14.431 13.1C14.2983 13.1 14.1686 13.0606 14.0582 12.9869C13.9479 12.9132 13.8619 12.8084 13.8111 12.6858C13.7603 12.5632 13.747 12.4283 13.7729 12.2981C13.7988 12.1679 13.8627 12.0484 13.9565 11.9545C14.0504 11.8607 14.1699 11.7968 14.3001 11.7709C14.4303 11.745 14.5652 11.7583 14.6878 11.8091C14.8104 11.8599 14.9152 11.9459 14.9889 12.0562C15.0626 12.1666 15.102 12.2963 15.102 12.429C15.102 12.607 15.0313 12.7776 14.9055 12.9035C14.7796 13.0293 14.609 13.1 14.431 13.1ZM17.588 11.065C10.801 9.492 9.756 15.135 9.602 16.763C9.59101 16.8807 9.53636 16.99 9.44882 17.0694C9.36128 17.1488 9.24719 17.1925 9.129 17.192H5.268C5.19348 17.1914 5.1201 17.1737 5.05357 17.1401C4.98704 17.1065 4.92917 17.058 4.88445 16.9984C4.83974 16.9388 4.8094 16.8697 4.79579 16.7964C4.78218 16.7231 4.78568 16.6477 4.806 16.576C6.324 11.274 9.712 8.381 13.364 8.469C15.0621 8.52597 16.6922 9.14938 17.995 10.24C18.1088 10.294 18.1965 10.3909 18.2387 10.5095C18.281 10.6282 18.2745 10.7587 18.2205 10.8725C18.1665 10.9863 18.0696 11.074 17.951 11.1162C17.8323 11.1585 17.7018 11.152 17.588 11.098V11.065ZM19.887 12.077C19.7543 12.077 19.6246 12.0376 19.5142 11.9639C19.4039 11.8902 19.3179 11.7854 19.2671 11.6628C19.2163 11.5402 19.203 11.4053 19.2289 11.2751C19.2548 11.1449 19.3187 11.0254 19.4125 10.9315C19.5064 10.8377 19.6259 10.7738 19.7561 10.7479C19.8863 10.722 20.0212 10.7353 20.1438 10.7861C20.2664 10.8369 20.3712 10.9229 20.4449 11.0332C20.5186 11.1436 20.558 11.2733 20.558 11.406C20.5625 11.4969 20.5484 11.5877 20.5167 11.6729C20.485 11.7582 20.4363 11.8361 20.3735 11.9019C20.3108 11.9678 20.2353 12.0202 20.1516 12.056C20.068 12.0917 19.978 12.1101 19.887 12.11V12.077Z" fill="black"/>
</svg>
