<svg width="24" height="24" viewBox="0 0 24 24" fill="none" xmlns="http://www.w3.org/2000/svg">
<path d="M20.2951 1.42217L2.479 7.73158C2.14034 7.85071 1.84394 8.06634 1.62635 8.35189C1.40875 8.63745 1.27948 8.98043 1.25447 9.33857C1.22946 9.6967 1.3098 10.0543 1.48558 10.3674C1.66137 10.6804 1.92492 10.9351 2.24374 11.1002L7.66556 13.9661C7.92813 14.1021 8.22632 14.1535 8.51925 14.1133C8.81217 14.0731 9.08549 13.9432 9.30172 13.7416L15.547 7.89199C15.6078 7.81229 15.6838 7.74541 15.7706 7.69524C15.8574 7.64506 15.9533 7.61257 16.0527 7.59965C16.1521 7.58672 16.2531 7.59362 16.3499 7.61993C16.4466 7.64625 16.5372 7.69146 16.6164 7.75297C16.7727 7.87911 16.8743 8.06064 16.9002 8.2598C16.9261 8.45897 16.8742 8.66045 16.7554 8.82236C16.6989 8.8875 16.6342 8.94501 16.5629 8.99346L10.3711 14.8217C10.1416 15.0378 9.98916 15.323 9.93702 15.6339C9.88489 15.9448 9.93594 16.2642 10.0824 16.5434L12.82 21.6871C13.0437 22.1187 13.4291 22.4441 13.8919 22.5924C14.3548 22.7407 14.8575 22.6997 15.2903 22.4785C15.6955 22.2617 16.0074 21.9042 16.1672 21.4733L22.637 3.77483C22.8039 3.32084 22.7853 2.81939 22.5851 2.37905C22.385 1.93872 22.0194 1.59494 21.5677 1.42217C21.1566 1.27261 20.7061 1.27261 20.2951 1.42217Z" fill="black"/>
</svg>
