<svg width="24" height="24" viewBox="0 0 24 24" fill="none" xmlns="http://www.w3.org/2000/svg">
<path d="M22.6857 7.61425C22.6604 5.92549 21.9717 4.31449 20.7684 3.12928C19.5652 1.94407 17.9439 1.27981 16.255 1.28H7.55209C5.86895 1.31367 4.26613 2.00602 3.08781 3.20838C1.9095 4.41075 1.24966 6.02723 1.25 7.71071V16.3707C1.27254 18.0614 1.96 19.6751 3.16356 20.8626C4.36712 22.0501 5.98993 22.7158 7.68071 22.7157H16.3943C18.0868 22.6959 19.7033 22.0097 20.8931 20.8059C22.0829 19.602 22.7501 17.9776 22.75 16.285L22.6857 7.61425ZM8.75249 7.71071C8.96447 7.71071 9.17169 7.77357 9.34794 7.89134C9.5242 8.0091 9.66157 8.17649 9.74269 8.37234C9.82381 8.56818 9.84504 8.78368 9.80368 8.99159C9.76233 9.19949 9.66025 9.39047 9.51036 9.54036C9.36047 9.69025 9.16949 9.79233 8.96159 9.83368C8.75368 9.87504 8.53818 9.85381 8.34234 9.77269C8.14649 9.69157 7.97911 9.5542 7.86134 9.37794C7.74357 9.20169 7.68071 8.99447 7.68071 8.78249C7.68071 8.49824 7.79363 8.22562 7.99463 8.02463C8.19562 7.82363 8.46824 7.71071 8.75249 7.71071V7.71071ZM8.75249 16.017C8.64661 16.0194 8.5414 15.9997 8.44359 15.9591C8.34577 15.9185 8.25751 15.8579 8.18445 15.7812C8.03391 15.6305 7.94936 15.4262 7.94936 15.2132C7.94936 15.0002 8.03391 14.7959 8.18445 14.6452L14.6152 8.21445C14.7659 8.06391 14.9702 7.97936 15.1832 7.97936C15.3962 7.97936 15.6005 8.06391 15.7512 8.21445C15.9018 8.36517 15.9863 8.56947 15.9863 8.78249C15.9863 8.99551 15.9018 9.19982 15.7512 9.35054L9.32054 15.7812C9.24632 15.8564 9.15785 15.916 9.0603 15.9564C8.96276 15.9969 8.85811 16.0175 8.75249 16.017ZM15.1832 16.285C14.9712 16.285 14.764 16.2221 14.5877 16.1044C14.4115 15.9866 14.2741 15.8192 14.193 15.6234C14.1119 15.4275 14.0907 15.212 14.132 15.0041C14.1734 14.7962 14.2754 14.6052 14.4253 14.4553C14.5752 14.3054 14.7662 14.2034 14.9741 14.162C15.182 14.1207 15.3975 14.1419 15.5934 14.223C15.7892 14.3041 15.9566 14.4415 16.0744 14.6177C16.1921 14.794 16.255 15.0012 16.255 15.2132C16.255 15.4975 16.1421 15.7701 15.9411 15.9711C15.7401 16.1721 15.4675 16.285 15.1832 16.285Z" fill="black"/>
</svg>
