<svg width="24" height="24" viewBox="0 0 24 24" fill="none" xmlns="http://www.w3.org/2000/svg">
<path d="M16.6797 1H7.32016C6.49263 1 5.69899 1.32102 5.11384 1.89245C4.52869 2.46387 4.19995 3.23889 4.19995 4.047V19.953C4.19995 20.7611 4.52869 21.5361 5.11384 22.1076C5.69899 22.679 6.49263 23 7.32016 23H16.6797C17.5073 23 18.3009 22.679 18.8861 22.1076C19.4712 21.5361 19.8 20.7611 19.8 19.953V4.047C19.8 3.64686 19.7192 3.25064 19.5624 2.88096C19.4056 2.51128 19.1758 2.17539 18.8861 1.89245C18.5963 1.60951 18.2524 1.38507 17.8738 1.23194C17.4952 1.07881 17.0895 1 16.6797 1ZM8.10866 6.104C7.85913 6.104 7.61522 6.03174 7.40775 5.89637C7.20028 5.761 7.03858 5.56858 6.94309 5.34347C6.8476 5.11835 6.82262 4.87063 6.8713 4.63165C6.91998 4.39266 7.04013 4.17314 7.21657 4.00084C7.39301 3.82855 7.6178 3.71121 7.86253 3.66367C8.10726 3.61614 8.36092 3.64053 8.59145 3.73378C8.82198 3.82703 9.01901 3.98494 9.15764 4.18754C9.29626 4.39014 9.37025 4.62833 9.37025 4.872C9.37025 5.19875 9.23734 5.51211 9.00074 5.74316C8.76415 5.9742 8.44325 6.104 8.10866 6.104Z" fill="black"/>
</svg>
