<svg width="24" height="24" viewBox="0 0 24 24" fill="none" xmlns="http://www.w3.org/2000/svg">
<path d="M22.6 16.6807C22.4813 18.2594 21.7733 19.7358 20.6165 20.8166C19.4597 21.8975 17.9387 22.5038 16.3556 22.5151H7.63026C6.52416 22.514 5.43781 22.222 4.48019 21.6685C3.52256 21.115 2.72734 20.3193 2.17429 19.3614L6.03236 16.2077C6.50152 15.8237 7.09151 15.6183 7.69769 15.6279C8.30388 15.6375 8.88706 15.8616 9.34379 16.2602C9.65018 16.5448 10.0101 16.7655 10.4026 16.9097C10.7951 17.0538 11.2123 17.1185 11.63 17.0999C12.0477 17.0813 12.4576 16.9798 12.8357 16.8014C13.2138 16.623 13.5527 16.3711 13.8326 16.0605L15.9351 13.7688C16.1677 13.5134 16.4498 13.3081 16.7642 13.1653C17.0787 13.0226 17.419 12.9453 17.7643 12.9383C18.11 12.9278 18.4542 12.9897 18.7746 13.12C19.0951 13.2504 19.3847 13.4463 19.625 13.6952L22.6 16.6807ZM22.6 7.80822V14.4416L20.7288 12.5704C20.3444 12.18 19.8862 11.8701 19.3808 11.6585C18.8755 11.4469 18.3331 11.338 17.7853 11.338C17.2375 11.338 16.6951 11.4469 16.1898 11.6585C15.6844 11.8701 15.2262 12.18 14.8418 12.5704L14.7367 12.686L12.6342 14.9777C12.3432 15.2938 11.9392 15.4822 11.51 15.5019C11.0808 15.5216 10.6612 15.371 10.3425 15.0828C9.61974 14.4518 8.69989 14.0919 7.74079 14.0651C6.7817 14.0382 5.84316 14.346 5.08624 14.9357L1.52252 17.7215C1.42171 17.2236 1.38286 16.7151 1.40688 16.2077V7.79771C1.40674 6.13933 2.05971 4.54762 3.22447 3.36712C4.38922 2.18663 5.97203 1.51235 7.63026 1.49023H16.3661C18.0262 1.5096 19.6117 2.18268 20.7787 3.36347C21.9457 4.54426 22.6001 6.13753 22.6 7.79771V7.80822ZM9.62762 7.91334C9.62762 7.49751 9.50431 7.09102 9.27329 6.74526C9.04226 6.39951 8.7139 6.13003 8.32972 5.9709C7.94554 5.81176 7.5228 5.77013 7.11496 5.85125C6.70711 5.93238 6.33249 6.13262 6.03845 6.42666C5.74441 6.7207 5.54417 7.09533 5.46304 7.50317C5.38191 7.91101 5.42355 8.33375 5.58268 8.71793C5.74182 9.10211 6.0113 9.43048 6.35705 9.6615C6.7028 9.89253 7.1093 10.0158 7.52513 10.0158C8.08275 10.0158 8.61752 9.79432 9.01182 9.40003C9.40611 9.00574 9.62762 8.47096 9.62762 7.91334Z" fill="black"/>
</svg>
