<svg width="24" height="24" viewBox="0 0 24 24" fill="none" xmlns="http://www.w3.org/2000/svg">
<path d="M22.3175 9.41947L21.5481 10.1889C21.4482 10.294 21.3281 10.3776 21.1949 10.4348C21.0617 10.492 20.9183 10.5215 20.7733 10.5215C20.6284 10.5215 20.4849 10.492 20.3518 10.4348C20.2186 10.3776 20.0984 10.294 19.9986 10.1889L19.2292 9.41947L15.8523 12.7963C16.3428 13.828 16.5563 14.9695 16.472 16.1086C16.3877 17.2478 16.0084 18.3454 15.3714 19.2936C15.2108 19.5314 14.9997 19.7309 14.7533 19.8781C14.5069 20.0252 14.2311 20.1162 13.9455 20.1448C13.6599 20.1733 13.3716 20.1387 13.1009 20.0433C12.8302 19.9479 12.5838 19.7941 12.3793 19.5928L4.40731 11.6208C4.20601 11.4163 4.0522 11.1699 3.9568 10.8992C3.8614 10.6285 3.82675 10.3402 3.85531 10.0546C3.88387 9.76902 3.97493 9.49323 4.12204 9.2468C4.26915 9.00037 4.4687 8.78934 4.70653 8.62869C5.65471 7.9917 6.75233 7.61241 7.89149 7.52809C9.03065 7.44378 10.1721 7.65735 11.2038 8.14781L14.5806 4.77095L13.8112 4.00154C13.7061 3.9017 13.6225 3.78154 13.5653 3.64835C13.5081 3.51516 13.4786 3.37173 13.4786 3.22678C13.4786 3.08184 13.5081 2.93841 13.5653 2.80522C13.6225 2.67203 13.7061 2.55186 13.8112 2.45203L14.5806 1.68262C14.6805 1.57753 14.8006 1.49385 14.9338 1.43667C15.067 1.37949 15.2104 1.35001 15.3554 1.35001C15.5003 1.35001 15.6438 1.37949 15.777 1.43667C15.9101 1.49385 16.0303 1.57753 16.1301 1.68262L22.3175 7.86996C22.4226 7.96979 22.5063 8.08996 22.5634 8.22315C22.6206 8.35634 22.6501 8.49977 22.6501 8.64472C22.6501 8.78966 22.6206 8.93309 22.5634 9.06628C22.5063 9.19947 22.4226 9.31964 22.3175 9.41947ZM3.08222 17.8616C2.51855 18.405 2.09346 19.0756 1.84261 19.8172L1.41516 21.0889C1.34272 21.2974 1.33049 21.5222 1.37988 21.7374C1.42926 21.9526 1.53826 22.1496 1.69439 22.3057C1.85052 22.4618 2.04747 22.5708 2.26268 22.6202C2.47789 22.6696 2.70265 22.6574 2.91124 22.5849L4.1829 22.1575C4.92137 21.9159 5.59172 21.502 6.13849 20.9499L8.78868 18.2891L5.71104 15.2114L3.08222 17.8616ZM9.97485 17.1563L6.85447 14.0573L9.97485 17.1563Z" fill="black"/>
</svg>
