<svg width="24" height="24" viewBox="0 0 24 24" fill="none" xmlns="http://www.w3.org/2000/svg">
<path d="M12 1C9.82441 1 7.69767 1.64514 5.88873 2.85383C4.07979 4.06253 2.66989 5.78049 1.83733 7.79048C1.00477 9.80047 0.78693 12.0122 1.21137 14.146C1.6358 16.2798 2.68345 18.2398 4.22183 19.7782C5.76021 21.3165 7.72022 22.3642 9.85401 22.7886C11.9878 23.2131 14.1995 22.9952 16.2095 22.1627C18.2195 21.3301 19.9375 19.9202 21.1462 18.1113C22.3549 16.3023 23 14.1756 23 12C23 10.5555 22.7155 9.12506 22.1627 7.79048C21.6099 6.4559 20.7996 5.24327 19.7782 4.22182C18.7567 3.20038 17.5441 2.39013 16.2095 1.83732C14.8749 1.28452 13.4445 1 12 1ZM17.5 13.1H13.1V17.5C13.1 17.7917 12.9841 18.0715 12.7778 18.2778C12.5715 18.4841 12.2917 18.6 12 18.6C11.7083 18.6 11.4285 18.4841 11.2222 18.2778C11.0159 18.0715 10.9 17.7917 10.9 17.5V13.1H6.5C6.20826 13.1 5.92848 12.9841 5.72219 12.7778C5.5159 12.5715 5.4 12.2917 5.4 12C5.4 11.7083 5.5159 11.4285 5.72219 11.2222C5.92848 11.0159 6.20826 10.9 6.5 10.9H10.9V6.5C10.9 6.20826 11.0159 5.92847 11.2222 5.72218C11.4285 5.51589 11.7083 5.4 12 5.4C12.2917 5.4 12.5715 5.51589 12.7778 5.72218C12.9841 5.92847 13.1 6.20826 13.1 6.5V10.9H17.5C17.7917 10.9 18.0715 11.0159 18.2778 11.2222C18.4841 11.4285 18.6 11.7083 18.6 12C18.6 12.2917 18.4841 12.5715 18.2778 12.7778C18.0715 12.9841 17.7917 13.1 17.5 13.1Z" fill="black"/>
</svg>
