<svg width="24" height="24" viewBox="0 0 24 24" fill="none" xmlns="http://www.w3.org/2000/svg">
<path d="M12.8072 23.25H11.2097C10.8248 23.25 10.4557 23.0971 10.1835 22.8249C9.91136 22.5528 9.75846 22.1836 9.75846 21.7987V2.20125C9.75846 1.81635 9.91136 1.44722 10.1835 1.17506C10.4557 0.902899 10.8248 0.75 11.2097 0.75H12.8072C13.1921 0.75 13.5612 0.902899 13.8334 1.17506C14.1056 1.44722 14.2585 1.81635 14.2585 2.20125V21.7987C14.2585 22.1836 14.1056 22.5528 13.8334 22.8249C13.5612 23.0971 13.1921 23.25 12.8072 23.25ZM8.07096 9.75H3.75096C3.52779 9.75642 3.30935 9.81589 3.11372 9.92349C2.9181 10.0311 2.7509 10.1837 2.62596 10.3688L1.27596 12.3488C1.12215 12.5784 1.04004 12.8486 1.04004 13.125C1.04004 13.4014 1.12215 13.6716 1.27596 13.9012L2.59221 15.8812C2.71715 16.0663 2.88435 16.2189 3.07997 16.3265C3.2756 16.4341 3.49404 16.4936 3.71721 16.5H8.07096V9.75ZM22.696 5.59875L21.4247 3.61875C21.2998 3.43371 21.1326 3.28108 20.9369 3.17349C20.7413 3.06589 20.5229 3.00642 20.2997 3H15.946V9.75H20.266C20.4891 9.74358 20.7076 9.68411 20.9032 9.57651C21.0988 9.46891 21.266 9.31629 21.391 9.13125L22.7072 7.15125C22.8661 6.92495 22.9541 6.65655 22.9601 6.38013C22.9661 6.10371 22.8898 5.83174 22.741 5.59875H22.696Z" fill="black"/>
</svg>
