<svg width="24" height="24" viewBox="0 0 24 24" fill="none" xmlns="http://www.w3.org/2000/svg">
<path d="M21.1892 8.28617L15.8383 2.93523C15.2809 2.38182 14.617 1.94731 13.8867 1.65801C13.1565 1.36871 12.3752 1.23065 11.59 1.25218L5.78639 1.44951C4.64432 1.47888 3.55712 1.94567 2.74929 2.75351C1.94145 3.56135 1.47466 4.64854 1.44528 5.79061L1.28278 11.6987C1.25848 12.479 1.3954 13.2559 1.68499 13.9809C1.97458 14.7059 2.41061 15.3633 2.96583 15.9121L8.25873 21.2166C8.74389 21.7027 9.32013 22.0883 9.95449 22.3515C10.5889 22.6146 11.2689 22.75 11.9556 22.75C12.6424 22.75 13.3224 22.6146 13.9568 22.3515C14.5911 22.0883 15.1674 21.7027 15.6525 21.2166L21.1892 15.68C21.6753 15.1948 22.0609 14.6186 22.324 13.9842C22.5871 13.3499 22.7226 12.6698 22.7226 11.9831C22.7226 11.2963 22.5871 10.6163 22.324 9.98193C22.0609 9.34757 21.6753 8.77132 21.1892 8.28617V8.28617ZM6.88908 11.3157C6.44119 10.8585 6.13823 10.2794 6.01819 9.65075C5.89814 9.02214 5.96636 8.37208 6.21428 7.78208C6.4622 7.19208 6.87879 6.68841 7.41181 6.33422C7.94483 5.98003 8.57056 5.79109 9.21053 5.79109C9.8505 5.79109 10.4762 5.98003 11.0092 6.33422C11.5423 6.68841 11.9589 7.19208 12.2068 7.78208C12.4547 8.37208 12.5229 9.02214 12.4029 9.65075C12.2828 10.2794 11.9799 10.8585 11.532 11.3157C11.2286 11.6231 10.8671 11.8672 10.4686 12.0338C10.0701 12.2004 9.64246 12.2862 9.21053 12.2862C8.77859 12.2862 8.35096 12.2004 7.95245 12.0338C7.55394 11.8672 7.19249 11.6231 6.88908 11.3157V11.3157ZM17.7186 12.9523L13.0757 17.5952C12.9966 17.6782 12.901 17.7438 12.7951 17.7878C12.6892 17.8317 12.5752 17.8531 12.4606 17.8505C12.3462 17.8511 12.2328 17.8288 12.1272 17.7849C12.0216 17.7411 11.9257 17.6766 11.8454 17.5952C11.6823 17.4319 11.5908 17.2107 11.5908 16.98C11.5908 16.7493 11.6823 16.528 11.8454 16.3648L16.4883 11.7219C16.6515 11.5589 16.8728 11.4673 17.1034 11.4673C17.3341 11.4673 17.5554 11.5589 17.7186 11.7219C17.8008 11.8019 17.866 11.8976 17.9106 12.0033C17.9552 12.1089 17.9781 12.2224 17.9781 12.3371C17.9781 12.4518 17.9552 12.5653 17.9106 12.6709C17.866 12.7766 17.8008 12.8723 17.7186 12.9523Z" fill="black"/>
</svg>
