<svg width="24" height="24" viewBox="0 0 24 24" fill="none" xmlns="http://www.w3.org/2000/svg">
<path d="M9.67553 11.1282H14.4519C14.691 11.1313 14.9283 11.087 15.1502 10.998C15.3721 10.909 15.5741 10.777 15.7448 10.6096C15.9155 10.4422 16.0513 10.2426 16.1446 10.0225C16.2378 9.80236 16.2866 9.56595 16.2881 9.32689V2.877C16.2881 2.44549 16.1167 2.03166 15.8116 1.72654C15.5065 1.42142 15.0926 1.25 14.6611 1.25H9.33851C8.907 1.25 8.49317 1.42142 8.18805 1.72654C7.88293 2.03166 7.71151 2.44549 7.71151 2.877V7.71151H2.877C2.44549 7.71151 2.03166 7.88293 1.72654 8.18805C1.42142 8.49317 1.25 8.907 1.25 9.33851V14.6611C1.25 14.8748 1.29208 15.0863 1.37385 15.2837C1.45561 15.4811 1.57546 15.6605 1.72654 15.8116C1.87762 15.9627 2.05698 16.0825 2.25437 16.1643C2.45177 16.246 2.66334 16.2881 2.877 16.2881H5.9683V14.8703C5.97127 13.8848 6.36171 12.9399 7.05532 12.2398C7.74893 11.5397 8.69007 11.1404 9.67553 11.1282ZM9.67553 2.63295C9.90469 2.63293 10.1246 2.72316 10.2878 2.88411C10.4509 3.04507 10.5441 3.26379 10.5471 3.49293C10.5441 3.72316 10.4513 3.94311 10.2885 4.10592C10.1257 4.26873 9.90576 4.36153 9.67553 4.36454C9.44638 4.36148 9.22766 4.26831 9.06671 4.10518C8.90576 3.94205 8.81552 3.7221 8.81554 3.49293C8.81554 3.26485 8.90615 3.04611 9.06743 2.88483C9.22871 2.72355 9.44745 2.63295 9.67553 2.63295ZM9.33851 22.7496H14.6611C14.8748 22.7496 15.0863 22.7075 15.2837 22.6258C15.4811 22.544 15.6605 22.4242 15.8116 22.2731C15.9627 22.122 16.0825 21.9426 16.1643 21.7453C16.246 21.5479 16.2881 21.3363 16.2881 21.1226V16.2881H21.1226C21.5541 16.2881 21.968 16.1167 22.2731 15.8116C22.5782 15.5065 22.7496 15.0926 22.7496 14.6611V9.33851C22.7496 8.907 22.5782 8.49317 22.2731 8.18805C21.968 7.88293 21.5541 7.71151 21.1226 7.71151H18.0313V9.32689C18.0283 10.266 17.6538 11.1658 16.9898 11.8299C16.3257 12.4939 15.4259 12.8684 14.4868 12.8714H9.67553C9.41303 12.8714 9.1531 12.9231 8.91059 13.0236C8.66807 13.124 8.44772 13.2713 8.2621 13.4569C8.07649 13.6425 7.92925 13.8628 7.8288 14.1054C7.72835 14.3479 7.67664 14.6078 7.67664 14.8703V21.1226C7.67659 21.3393 7.71981 21.5537 7.80374 21.7534C7.88768 21.9531 8.01065 22.134 8.16544 22.2856C8.32023 22.4371 8.50373 22.5562 8.70517 22.6359C8.90661 22.7156 9.12193 22.7543 9.33851 22.7496ZM14.3241 19.5305C14.5676 19.5305 14.8011 19.6272 14.9733 19.7994C15.1455 19.9716 15.2422 20.2051 15.2422 20.4486C15.2437 20.5701 15.2211 20.6908 15.1757 20.8035C15.1302 20.9162 15.0628 21.0188 14.9774 21.1053C14.892 21.1918 14.7903 21.2605 14.6781 21.3073C14.566 21.3542 14.4456 21.3783 14.3241 21.3783C14.0775 21.3783 13.841 21.2803 13.6667 21.106C13.4923 20.9316 13.3944 20.6952 13.3944 20.4486C13.3944 20.327 13.4185 20.2067 13.4654 20.0945C13.5122 19.9824 13.5809 19.8807 13.6674 19.7953C13.7539 19.7098 13.8565 19.6425 13.9692 19.597C14.0819 19.5516 14.2026 19.529 14.3241 19.5305Z" fill="black"/>
</svg>
