<svg width="24" height="24" viewBox="0 0 24 24" fill="none" xmlns="http://www.w3.org/2000/svg">
<path d="M12 1C9.82441 1 7.69767 1.64514 5.88873 2.85383C4.07979 4.06253 2.66989 5.78049 1.83733 7.79048C1.00477 9.80047 0.78693 12.0122 1.21137 14.146C1.6358 16.2798 2.68345 18.2398 4.22183 19.7782C5.76021 21.3165 7.72022 22.3642 9.85401 22.7886C11.9878 23.2131 14.1995 22.9952 16.2095 22.1627C18.2195 21.3301 19.9375 19.9202 21.1462 18.1113C22.3549 16.3023 23 14.1756 23 12C23 10.5555 22.7155 9.12506 22.1627 7.79048C21.6099 6.4559 20.7996 5.24327 19.7782 4.22182C18.7567 3.20038 17.5441 2.39013 16.2095 1.83732C14.8749 1.28452 13.4445 1 12 1ZM12 18.149C11.8368 18.149 11.6773 18.1006 11.5417 18.01C11.406 17.9193 11.3002 17.7905 11.2378 17.6397C11.1754 17.489 11.159 17.3231 11.1909 17.163C11.2227 17.003 11.3013 16.856 11.4166 16.7406C11.532 16.6253 11.679 16.5467 11.8391 16.5148C11.9991 16.483 12.165 16.4994 12.3157 16.5618C12.4665 16.6242 12.5953 16.73 12.686 16.8657C12.7766 17.0013 12.825 17.1608 12.825 17.324C12.8222 17.5419 12.7343 17.7501 12.5802 17.9042C12.4261 18.0583 12.2179 18.1461 12 18.149ZM13.496 12.396C13.2875 12.5095 13.1144 12.6786 12.996 12.8843C12.8776 13.0901 12.8184 13.3247 12.825 13.562V14.464C12.825 14.6828 12.7381 14.8926 12.5834 15.0474C12.4286 15.2021 12.2188 15.289 12 15.289C11.7812 15.289 11.5714 15.2021 11.4166 15.0474C11.2619 14.8926 11.175 14.6828 11.175 14.464V13.562C11.1668 13.0125 11.313 12.4717 11.5969 12.0011C11.8808 11.5305 12.2911 11.149 12.781 10.9C13.0692 10.7605 13.3148 10.5465 13.4923 10.28C13.6697 10.0136 13.7726 9.70445 13.7903 9.38479C13.8079 9.06512 13.7396 8.74657 13.5925 8.46221C13.4454 8.17785 13.2249 7.93807 12.9538 7.76776C12.6827 7.59746 12.3709 7.50285 12.0509 7.49376C11.7309 7.48466 11.4143 7.56143 11.1339 7.71607C10.8536 7.87071 10.6198 8.09758 10.4568 8.37313C10.2938 8.64868 10.2075 8.96285 10.207 9.283C10.207 9.5018 10.1201 9.71164 9.96537 9.86636C9.81065 10.0211 9.60081 10.108 9.382 10.108C9.1632 10.108 8.95336 10.0211 8.79864 9.86636C8.64392 9.71164 8.557 9.5018 8.557 9.283C8.55884 8.77925 8.67084 8.282 8.88516 7.82611C9.09948 7.37022 9.41093 6.96673 9.79766 6.64393C10.1844 6.32112 10.6371 6.08682 11.1239 5.95745C11.6108 5.82807 12.12 5.80676 12.616 5.895C13.3084 6.02526 13.9447 6.36353 14.44 6.86468C14.9352 7.36584 15.2659 8.00607 15.388 8.7C15.5216 9.43828 15.4087 10.2 15.0668 10.8679C14.725 11.5357 14.173 12.0727 13.496 12.396Z" fill="black"/>
</svg>
