<svg width="24" height="24" viewBox="0 0 24 24" fill="none" xmlns="http://www.w3.org/2000/svg">
<path d="M17.0417 1.25001H6.95825C6.20824 1.24859 5.46532 1.39527 4.77213 1.68164C4.07893 1.968 3.4491 2.38842 2.91876 2.91876C2.38842 3.4491 1.968 4.07893 1.68164 4.77213C1.39527 5.46532 1.24859 6.20824 1.25001 6.95825V17.0417C1.24859 17.7918 1.39527 18.5347 1.68164 19.2279C1.968 19.9211 2.38842 20.5509 2.91876 21.0812C3.4491 21.6116 4.07893 22.032 4.77213 22.3184C5.46532 22.6047 6.20824 22.7514 6.95825 22.75H17.0417C17.7918 22.7514 18.5347 22.6047 19.2279 22.3184C19.9211 22.032 20.5509 21.6116 21.0812 21.0812C21.6116 20.5509 22.032 19.9211 22.3184 19.2279C22.6047 18.5347 22.7514 17.7918 22.75 17.0417V6.95825C22.7514 6.20824 22.6047 5.46532 22.3184 4.77213C22.032 4.07893 21.6116 3.4491 21.0812 2.91876C20.5509 2.38842 19.9211 1.968 19.2279 1.68164C18.5347 1.39527 17.7918 1.24859 17.0417 1.25001ZM17.375 15.3325V16.7085C17.3711 16.8992 17.3055 17.0834 17.1879 17.2336C17.0704 17.3838 16.9074 17.4918 16.7232 17.5415C16.5391 17.5912 16.3439 17.5798 16.1668 17.5091C15.9896 17.4383 15.8403 17.3121 15.741 17.1492L15.3217 16.429C15.2563 16.3175 15.1628 16.2251 15.0506 16.1609C14.9384 16.0966 14.8114 16.0628 14.6821 16.0628C14.5528 16.0628 14.4258 16.0966 14.3136 16.1609C14.2014 16.2251 14.108 16.3175 14.0425 16.429L13.4727 17.4287C13.3232 17.6853 13.109 17.8981 12.8515 18.0461C12.5941 18.194 12.3023 18.2718 12.0054 18.2718C11.7084 18.2718 11.4167 18.194 11.1592 18.0461C10.9017 17.8981 10.6875 17.6853 10.538 17.4287L9.9575 16.4182C9.89351 16.3066 9.80115 16.2138 9.68978 16.1492C9.57841 16.0847 9.45197 16.0507 9.32325 16.0507C9.19453 16.0507 9.06809 16.0847 8.95672 16.1492C8.84535 16.2138 8.753 16.3066 8.689 16.4182L8.24825 17.1707C8.15139 17.3372 8.00208 17.4669 7.82368 17.5394C7.64528 17.612 7.44786 17.6233 7.26231 17.5717C7.07677 17.5201 6.91357 17.4084 6.79825 17.2542C6.68293 17.0999 6.62201 16.9118 6.62501 16.7192V7.83975C6.62501 7.26954 6.85152 6.72268 7.25472 6.31948C7.65793 5.91627 8.20479 5.68976 8.775 5.68976H15.225C15.7952 5.68976 16.3421 5.91627 16.7453 6.31948C17.1485 6.72268 17.375 7.26954 17.375 7.83975V15.3325Z" fill="black"/>
</svg>
