<svg width="24" height="24" viewBox="0 0 24 24" fill="none" xmlns="http://www.w3.org/2000/svg">
<path d="M17.2738 10.1162C17.1834 9.8789 17.1674 9.6197 17.2281 9.37313C17.2888 9.12656 17.4232 8.90435 17.6134 8.73613L19.8039 6.69894C20.0553 6.47275 20.3853 6.3541 20.7231 6.36843C21.061 6.38277 21.3798 6.52895 21.6111 6.77561C21.6781 6.84536 21.7369 6.92252 21.7863 7.00561C22.6106 8.58246 23.0273 10.3404 22.9986 12.1195C22.9699 13.8985 22.4967 15.6421 21.622 17.1916C21.4496 17.4896 21.1681 17.7088 20.8369 17.8028C20.5057 17.8969 20.151 17.8583 19.8477 17.6954C19.7366 17.6313 19.6337 17.5541 19.541 17.4654L17.2848 15.0996C17.1197 14.9217 17.0099 14.6996 16.9691 14.4603C16.9282 14.221 16.958 13.9751 17.0548 13.7525C17.3145 13.108 17.4519 12.4209 17.46 11.7262C17.4862 11.183 17.4233 10.6391 17.2738 10.1162ZM8.906 6.27178C9.08644 6.44351 9.31196 6.56042 9.55629 6.6089C9.80062 6.65738 10.0537 6.63543 10.286 6.5456C10.8358 6.37664 11.4087 6.29532 11.9837 6.30464C12.7774 6.29682 13.5629 6.46516 14.2838 6.79751C14.5255 6.90738 14.7946 6.9421 15.0563 6.89718C15.318 6.85227 15.5602 6.72978 15.7514 6.5456L17.8215 4.60698C17.9414 4.49244 18.0369 4.35476 18.1021 4.20228C18.1673 4.04979 18.201 3.88567 18.201 3.71981C18.201 3.55396 18.1673 3.38983 18.1021 3.23735C18.0369 3.08486 17.9414 2.94719 17.8215 2.83265C17.7597 2.76581 17.6897 2.70694 17.6134 2.65741C16.0661 1.77392 14.3318 1.26874 12.5521 1.18308C10.7724 1.09743 8.99763 1.43372 7.37262 2.16454C7.05462 2.29969 6.80329 2.5556 6.6739 2.876C6.54451 3.19639 6.54764 3.55506 6.68261 3.87315C6.74954 4.01992 6.84228 4.15347 6.95642 4.26745L8.906 6.27178ZM15.39 17.0821C15.2132 16.9009 14.9868 16.7762 14.7393 16.7235C14.4917 16.6709 14.2341 16.6928 13.999 16.7863C12.7254 17.2902 11.3077 17.2902 10.0341 16.7863C9.81041 16.6974 9.56604 16.6739 9.32947 16.7185C9.09291 16.7631 8.87388 16.874 8.6979 17.0383L6.17878 19.3164C6.05434 19.4258 5.95312 19.559 5.88112 19.7082C5.80912 19.8574 5.76781 20.0196 5.75964 20.185C5.75147 20.3505 5.7766 20.5159 5.83355 20.6715C5.89049 20.8271 5.9781 20.9696 6.09116 21.0907C6.16851 21.1753 6.25693 21.249 6.35403 21.3098C8.01037 22.2777 9.88786 22.8032 11.806 22.8358C13.7241 22.8684 15.6184 22.407 17.3067 21.496C17.4569 21.4176 17.5902 21.3102 17.6986 21.1799C17.8071 21.0497 17.8886 20.8992 17.9385 20.7373C17.9884 20.5753 18.0057 20.4051 17.9894 20.2364C17.9731 20.0677 17.9234 19.9039 17.8434 19.7545C17.7979 19.6563 17.7348 19.5672 17.6572 19.4916L15.39 17.0821ZM6.56213 15.0339C6.75304 14.8638 6.88545 14.6378 6.94051 14.388C6.99557 14.1383 6.97047 13.8776 6.8688 13.6429C6.62366 13.0225 6.50092 12.3604 6.50736 11.6934C6.50344 10.9094 6.67562 10.1346 7.01119 9.42615C7.12374 9.19655 7.16309 8.93793 7.12392 8.68525C7.08474 8.43256 6.96893 8.198 6.79213 8.01326L4.8097 5.89939C4.56402 5.65858 4.2337 5.52369 3.88968 5.52369C3.54565 5.52369 3.21534 5.65858 2.96965 5.89939C2.87254 5.97581 2.79392 6.07315 2.73965 6.18416C1.70788 7.76085 1.11259 9.5829 1.01446 11.4646C0.916336 13.3463 1.31888 15.2204 2.18106 16.8959C2.35273 17.1888 2.6328 17.4025 2.96072 17.4906C3.28865 17.5787 3.63808 17.5343 3.93349 17.3668C4.01854 17.3249 4.09622 17.2694 4.16349 17.2025L6.56213 15.0339Z" fill="black"/>
</svg>
