<svg width="24" height="24" viewBox="0 0 24 24" fill="none" xmlns="http://www.w3.org/2000/svg">
<path d="M10.425 3.3375V20.6625C10.425 21.1498 10.2314 21.6172 9.88681 21.9618C9.54221 22.3064 9.07483 22.5 8.5875 22.5H3.3375C2.85016 22.5 2.38279 22.3064 2.03819 21.9618C1.69359 21.6172 1.5 21.1498 1.5 20.6625V3.3375C1.5 2.85016 1.69359 2.38279 2.03819 2.03819C2.38279 1.69359 2.85016 1.5 3.3375 1.5H8.5875C9.07483 1.5 9.54221 1.69359 9.88681 2.03819C10.2314 2.38279 10.425 2.85016 10.425 3.3375ZM20.6625 1.5H15.4125C14.9252 1.5 14.4578 1.69359 14.1132 2.03819C13.7686 2.38279 13.575 2.85016 13.575 3.3375V20.6625C13.575 21.1498 13.7686 21.6172 14.1132 21.9618C14.4578 22.3064 14.9252 22.5 15.4125 22.5H20.6625C21.1498 22.5 21.6172 22.3064 21.9618 21.9618C22.3064 21.6172 22.5 21.1498 22.5 20.6625V3.3375C22.5 2.85016 22.3064 2.38279 21.9618 2.03819C21.6172 1.69359 21.1498 1.5 20.6625 1.5Z" fill="black"/>
</svg>
