<svg width="24" height="24" viewBox="0 0 24 24" fill="none" xmlns="http://www.w3.org/2000/svg">
<path d="M20.6625 10.425H3.3375C2.85016 10.425 2.38279 10.2314 2.03819 9.88681C1.69359 9.54221 1.5 9.07483 1.5 8.5875V3.3375C1.5 2.85016 1.69359 2.38279 2.03819 2.03819C2.38279 1.69359 2.85016 1.5 3.3375 1.5H20.6625C21.1498 1.5 21.6172 1.69359 21.9618 2.03819C22.3064 2.38279 22.5 2.85016 22.5 3.3375V8.5875C22.5 9.07483 22.3064 9.54221 21.9618 9.88681C21.6172 10.2314 21.1498 10.425 20.6625 10.425ZM22.5 20.6625V15.4125C22.5 14.9252 22.3064 14.4578 21.9618 14.1132C21.6172 13.7686 21.1498 13.575 20.6625 13.575H3.3375C2.85016 13.575 2.38279 13.7686 2.03819 14.1132C1.69359 14.4578 1.5 14.9252 1.5 15.4125V20.6625C1.5 21.1498 1.69359 21.6172 2.03819 21.9618C2.38279 22.3064 2.85016 22.5 3.3375 22.5H20.6625C21.1498 22.5 21.6172 22.3064 21.9618 21.9618C22.3064 21.6172 22.5 21.1498 22.5 20.6625Z" fill="black"/>
</svg>
