<svg width="24" height="24" viewBox="0 0 24 24" fill="none" xmlns="http://www.w3.org/2000/svg">
<path d="M18.447 2.01999H5.553C5.02075 2.01999 4.49372 2.12482 4.00198 2.32851C3.51025 2.53219 3.06345 2.83073 2.6871 3.20709C1.92701 3.96717 1.5 4.99807 1.5 6.07299V16.867C1.5 17.9419 1.92701 18.9728 2.6871 19.7329C3.44718 20.493 4.47808 20.92 5.553 20.92H5.8575C5.8575 21.1985 5.96812 21.4655 6.16504 21.6625C6.36195 21.8594 6.62902 21.97 6.9075 21.97C7.18598 21.97 7.45305 21.8594 7.64996 21.6625C7.84687 21.4655 7.9575 21.1985 7.9575 20.92H15.9585C15.9585 21.1985 16.0691 21.4655 16.266 21.6625C16.463 21.8594 16.73 21.97 17.0085 21.97C17.287 21.97 17.554 21.8594 17.751 21.6625C17.9479 21.4655 18.0585 21.1985 18.0585 20.92H18.447C19.5219 20.92 20.5528 20.493 21.3129 19.7329C22.073 18.9728 22.5 17.9419 22.5 16.867V6.07299C22.5 4.99807 22.073 3.96717 21.3129 3.20709C20.5528 2.447 19.5219 2.01999 18.447 2.01999V2.01999ZM18.3 12.6355V13.57C18.3 13.8485 18.1894 14.1155 17.9925 14.3125C17.7955 14.5094 17.5285 14.62 17.25 14.62C16.9715 14.62 16.7044 14.5094 16.5075 14.3125C16.3106 14.1155 16.2 13.8485 16.2 13.57V12.6355C15.9622 12.4228 15.7947 12.143 15.7194 11.833C15.6442 11.5231 15.6649 11.1975 15.7787 10.8996C15.8925 10.6016 16.0941 10.3452 16.3568 10.1643C16.6196 9.98341 16.931 9.88655 17.25 9.88655C17.569 9.88655 17.8804 9.98341 18.1432 10.1643C18.4059 10.3452 18.6075 10.6016 18.7213 10.8996C18.8351 11.1975 18.8558 11.5231 18.7806 11.833C18.7053 12.143 18.5378 12.4228 18.3 12.6355V12.6355Z" fill="black"/>
</svg>
