<svg width="24" height="24" viewBox="0 0 24 24" fill="none" xmlns="http://www.w3.org/2000/svg">
<path d="M9.87027 10.2868H7.36657C6.99081 10.2868 6.63044 10.1376 6.36473 9.87187C6.09902 9.60616 5.94975 9.24579 5.94975 8.87003V6.36633C5.94975 5.99057 6.09902 5.63019 6.36473 5.36449C6.63044 5.09878 6.99081 4.94951 7.36657 4.94951H9.87027C10.246 4.94951 10.6064 5.09878 10.8721 5.36449C11.1378 5.63019 11.2871 5.99057 11.2871 6.36633V8.87003C11.2871 9.24579 11.1378 9.60616 10.8721 9.87187C10.6064 10.1376 10.246 10.2868 9.87027 10.2868ZM19.0505 8.87003V6.36633C19.0505 5.99057 18.9012 5.63019 18.6355 5.36449C18.3698 5.09878 18.0094 4.94951 17.6337 4.94951H15.13C14.7542 4.94951 14.3938 5.09878 14.1281 5.36449C13.8624 5.63019 13.7132 5.99057 13.7132 6.36633V8.87003C13.7132 9.24579 13.8624 9.60616 14.1281 9.87187C14.3938 10.1376 14.7542 10.2868 15.13 10.2868H17.6337C18.0094 10.2868 18.3698 10.1376 18.6355 9.87187C18.9012 9.60616 19.0505 9.24579 19.0505 8.87003ZM11.2871 16.6334V14.1297C11.2871 13.754 11.1378 13.3936 10.8721 13.1279C10.6064 12.8622 10.246 12.7129 9.87027 12.7129H7.36657C6.99081 12.7129 6.63044 12.8622 6.36473 13.1279C6.09902 13.3936 5.94975 13.754 5.94975 14.1297V16.6334C5.94975 17.0092 6.09902 17.3696 6.36473 17.6353C6.63044 17.901 6.99081 18.0502 7.36657 18.0502H9.87027C10.246 18.0502 10.6064 17.901 10.8721 17.6353C11.1378 17.3696 11.2871 17.0092 11.2871 16.6334ZM19.0505 16.6334V14.1297C19.0505 13.754 18.9012 13.3936 18.6355 13.1279C18.3698 12.8622 18.0094 12.7129 17.6337 12.7129H15.13C14.7542 12.7129 14.3938 12.8622 14.1281 13.1279C13.8624 13.3936 13.7132 13.754 13.7132 14.1297V16.6334C13.7132 17.0092 13.8624 17.3696 14.1281 17.6353C14.3938 17.901 14.7542 18.0502 15.13 18.0502H17.6337C18.0094 18.0502 18.3698 17.901 18.6355 17.6353C18.9012 17.3696 19.0505 17.0092 19.0505 16.6334ZM3.45576 8.5886V5.91993C3.45576 5.00279 3.81942 4.12307 4.46703 3.47364C5.11464 2.82422 5.99334 2.45808 6.91047 2.45552H9.16186C9.35489 2.45552 9.54001 2.37883 9.67651 2.24234C9.813 2.10585 9.88968 1.92073 9.88968 1.7277C9.88968 1.53467 9.813 1.34954 9.67651 1.21305C9.54001 1.07656 9.35489 0.999878 9.16186 0.999878H6.91047C5.60728 1.00245 4.35833 1.52194 3.43774 2.44436C2.51715 3.36677 2.00012 4.61673 2.00012 5.91993V8.5886C2.00012 8.78163 2.0768 8.96676 2.2133 9.10325C2.34979 9.23974 2.53491 9.31642 2.72794 9.31642C2.92097 9.31642 3.10609 9.23974 3.24259 9.10325C3.37908 8.96676 3.45576 8.78163 3.45576 8.5886ZM23.0001 8.5886V5.91993C23.0001 4.61505 22.4818 3.36362 21.5591 2.44093C20.6364 1.51824 19.3849 0.999878 18.0801 0.999878H14.9941C14.8011 0.999878 14.616 1.07656 14.4795 1.21305C14.343 1.34954 14.2663 1.53467 14.2663 1.7277C14.2663 1.92073 14.343 2.10585 14.4795 2.24234C14.616 2.37883 14.8011 2.45552 14.9941 2.45552H18.0801C18.9989 2.45552 19.8801 2.82052 20.5298 3.47022C21.1795 4.11992 21.5445 5.00111 21.5445 5.91993V8.5886C21.5445 8.78163 21.6212 8.96676 21.7577 9.10325C21.8941 9.23974 22.0793 9.31642 22.2723 9.31642C22.4653 9.31642 22.6505 9.23974 22.7869 9.10325C22.9234 8.96676 23.0001 8.78163 23.0001 8.5886ZM9.88968 21.2721C9.88717 21.0798 9.80968 20.8961 9.67373 20.7602C9.53778 20.6242 9.35411 20.5468 9.16186 20.5442H6.91047C5.99334 20.5417 5.11464 20.1755 4.46703 19.5261C3.81942 18.8767 3.45576 17.997 3.45576 17.0798V14.4112C3.45576 14.2181 3.37908 14.033 3.24259 13.8965C3.10609 13.76 2.92097 13.6833 2.72794 13.6833C2.53491 13.6833 2.34979 13.76 2.2133 13.8965C2.0768 14.033 2.00012 14.2181 2.00012 14.4112V17.0798C2.00012 18.383 2.51715 19.633 3.43774 20.5554C4.35833 21.4778 5.60728 21.9973 6.91047 21.9999H9.16186C9.35411 21.9974 9.53778 21.9199 9.67373 21.7839C9.80968 21.648 9.88717 21.4643 9.88968 21.2721ZM23.0001 17.0798V14.4112C23.0001 14.2181 22.9234 14.033 22.7869 13.8965C22.6505 13.76 22.4653 13.6833 22.2723 13.6833C22.0793 13.6833 21.8941 13.76 21.7577 13.8965C21.6212 14.033 21.5445 14.2181 21.5445 14.4112V17.0798C21.5445 17.9986 21.1795 18.8798 20.5298 19.5295C19.8801 20.1792 18.9989 20.5442 18.0801 20.5442H14.9941C14.8011 20.5442 14.616 20.6209 14.4795 20.7574C14.343 20.8939 14.2663 21.079 14.2663 21.2721C14.2663 21.4651 14.343 21.6502 14.4795 21.7867C14.616 21.9232 14.8011 21.9999 14.9941 21.9999H18.0801C19.3849 21.9999 20.6364 21.4815 21.5591 20.5588C22.4818 19.6361 23.0001 18.3847 23.0001 17.0798Z" fill="black"/>
</svg>
