<svg width="24" height="24" viewBox="0 0 24 24" fill="none" xmlns="http://www.w3.org/2000/svg">
<path d="M18.364 1.22998H5.636C4.47276 1.22998 3.35716 1.69208 2.53463 2.51461C1.7121 3.33714 1.25 4.45274 1.25 5.61598V13.6892C1.25 14.2652 1.36345 14.8355 1.58386 15.3677C1.80428 15.8998 2.12735 16.3833 2.53463 16.7906C3.35716 17.6131 4.47276 18.0752 5.636 18.0752H10.7315V21.1605H7.34525C7.13142 21.1605 6.92635 21.2454 6.77515 21.3966C6.62394 21.5478 6.539 21.7529 6.539 21.9667C6.539 22.1806 6.62394 22.3856 6.77515 22.5368C6.92635 22.688 7.13142 22.773 7.34525 22.773H16.6548C16.8686 22.773 17.0737 22.688 17.2249 22.5368C17.3761 22.3856 17.461 22.1806 17.461 21.9667C17.461 21.7529 17.3761 21.5478 17.2249 21.3966C17.0737 21.2454 16.8686 21.1605 16.6548 21.1605H13.2685V18.0752H18.364C18.94 18.0752 19.5103 17.9618 20.0424 17.7414C20.5746 17.521 21.0581 17.1979 21.4654 16.7906C21.8727 16.3833 22.1957 15.8998 22.4161 15.3677C22.6366 14.8355 22.75 14.2652 22.75 13.6892V5.61598C22.75 4.45274 22.2879 3.33714 21.4654 2.51461C20.6428 1.69208 19.5272 1.22998 18.364 1.22998Z" fill="black"/>
</svg>
