<svg width="24" height="24" viewBox="0 0 24 24" fill="none" xmlns="http://www.w3.org/2000/svg">
<path d="M21.1636 17.7392C21.357 18.1359 21.4558 18.5721 21.4523 19.0134C21.4523 19.8055 21.1377 20.5652 20.5776 21.1253C20.0175 21.6853 19.2579 22 18.4658 22H5.54392C6.33601 22 7.09565 21.6853 7.65574 21.1253C8.21583 20.5652 8.53048 19.8055 8.53048 19.0134C8.53397 18.5721 8.43515 18.1359 8.24178 17.7392L2.84606 6.35042C2.6527 5.95367 2.55388 5.51751 2.55736 5.07616C2.54753 4.93031 2.54753 4.78397 2.55736 4.63813C2.65939 4.13917 2.9306 3.69076 3.32514 3.36872C3.71968 3.04669 4.21334 2.8708 4.72262 2.8708C5.2319 2.8708 5.72556 3.04669 6.1201 3.36872C6.51464 3.69076 6.78586 4.13917 6.88788 4.63813C7.03994 5.21348 7.38491 5.7192 7.8651 6.07074C8.34528 6.42227 8.93159 6.59831 9.526 6.56944H15.8476L21.1636 17.7392ZM7.0372 19.0134H3.78185C3.61789 19.0195 3.45798 19.0661 3.31634 19.1489C3.17471 19.2317 3.05574 19.3483 2.97002 19.4882C2.88431 19.6281 2.8345 19.787 2.82503 19.9508C2.81556 20.1146 2.84673 20.2782 2.91575 20.4271C2.92867 20.4557 2.94542 20.4825 2.96553 20.5067H5.54392C5.93997 20.5067 6.31979 20.3494 6.59983 20.0693C6.87988 19.7893 7.0372 19.4095 7.0372 19.0134ZM4.83711 2C6.21092 2 8.01281 2.60727 8.42098 4.27974C8.49418 4.51419 8.64147 4.71856 8.84073 4.86216C9.03998 5.00577 9.28044 5.08086 9.526 5.07616H20.5962C20.715 5.07503 20.8319 5.04555 20.9371 4.99017C21.0422 4.93478 21.1326 4.85509 21.2008 4.75772C21.269 4.66035 21.3129 4.54812 21.3289 4.43035C21.345 4.31259 21.3327 4.19269 21.2931 4.08064C21.0865 3.4965 20.7035 2.99104 20.1969 2.63431C19.6903 2.27757 19.0853 2.08721 18.4658 2.0896L4.83711 2Z" fill="black"/>
</svg>
