<svg width="24" height="24" viewBox="0 0 24 24" fill="none" xmlns="http://www.w3.org/2000/svg">
<path fill-rule="evenodd" clip-rule="evenodd" d="M17.9661 9.04381H21.5351H21.5996V20.2236C21.5996 20.5581 21.5332 20.8892 21.4042 21.1978C21.2753 21.5064 21.0863 21.7864 20.8483 22.0214C20.6103 22.2564 20.328 22.4418 20.0178 22.5668C19.7075 22.6919 19.3756 22.7541 19.0411 22.7498H4.95835C4.6239 22.7541 4.29194 22.6919 3.98171 22.5668C3.67149 22.4418 3.38918 22.2564 3.15117 22.0214C2.91317 21.7864 2.7242 21.5064 2.59524 21.1978C2.46627 20.8892 2.39988 20.5581 2.3999 20.2236V3.77641C2.39988 3.44193 2.46627 3.11078 2.59524 2.80216C2.7242 2.49355 2.91317 2.21362 3.15117 1.97861C3.38918 1.74361 3.67149 1.55821 3.98171 1.43317C4.29194 1.30813 4.6239 1.24594 4.95835 1.25021H13.8167V4.90514C13.8196 6.00377 14.258 7.05643 15.0359 7.83227C15.8137 8.60812 16.8675 9.04381 17.9661 9.04381ZM16.3376 18.9598C16.4378 18.9171 16.5276 18.8531 16.6007 18.7724C16.7377 18.6186 16.8108 18.4182 16.8048 18.2123C16.7988 18.0064 16.7142 17.8106 16.5684 17.6651L14.3324 15.5152C14.8443 14.8047 15.119 13.9507 15.1172 13.075C15.1137 12.1379 14.7988 11.2285 14.2219 10.4899C13.6451 9.75139 12.839 9.22562 11.9306 8.99536C11.0222 8.76509 10.063 8.8434 9.20399 9.21796C8.34496 9.59252 7.63486 10.2421 7.18542 11.0644C6.73598 11.8867 6.57272 12.8351 6.72132 13.7604C6.86993 14.6857 7.32196 15.5353 8.00629 16.1755C8.69063 16.8158 9.56841 17.2103 10.5015 17.297C11.4346 17.3838 12.3701 17.1578 13.1607 16.6547L15.4612 18.8046C15.6124 18.9464 15.8129 19.0235 16.0202 19.0196C16.129 19.0229 16.2373 19.0025 16.3376 18.9598ZM17.9662 7.43128H21.0513L15.4292 1.73389V4.95882C15.446 5.62042 15.7207 6.24926 16.1947 6.71117C16.6686 7.17308 17.3043 7.43149 17.9662 7.43128ZM10.9247 10.452C10.4042 10.4435 9.89294 10.59 9.45598 10.873C9.01902 11.156 8.67615 11.5626 8.47101 12.0411C8.26588 12.5195 8.20776 13.0482 8.30406 13.5598C8.40036 14.0714 8.64672 14.5428 9.01177 14.9139C9.37683 15.2851 9.84407 15.5392 10.354 15.6439C10.8639 15.7487 11.3935 15.6993 11.8753 15.5021C12.3571 15.3049 12.7693 14.9688 13.0595 14.5366C13.3496 14.1043 13.5046 13.5955 13.5047 13.075C13.502 12.3875 13.2307 11.7284 12.7486 11.2383C12.2666 10.7482 11.612 10.466 10.9247 10.452Z" fill="black"/>
</svg>
