<svg width="24" height="24" viewBox="0 0 24 24" fill="none" xmlns="http://www.w3.org/2000/svg">
<path d="M1.50008 6.66553C1.50007 6.5626 1.52051 6.4607 1.56021 6.36574C1.59991 6.27078 1.65809 6.18465 1.73135 6.11237C1.80462 6.04008 1.89152 5.98306 1.987 5.94464C2.08249 5.90622 2.18465 5.88714 2.28757 5.88854H5.99404C6.18979 4.8843 6.75255 3.98897 7.57258 3.37713C8.39262 2.76528 9.41114 2.48079 10.4295 2.57912C11.4479 2.67745 12.3932 3.15156 13.081 3.90899C13.7689 4.66643 14.1499 5.65289 14.1499 6.67603C14.1499 7.69916 13.7689 8.68563 13.081 9.44306C12.3932 10.2005 11.4479 10.6746 10.4295 10.7729C9.41114 10.8713 8.39262 10.5868 7.57258 9.97493C6.75255 9.36309 6.18979 8.46776 5.99404 7.46352H2.31907C2.21215 7.46781 2.10547 7.45026 2.00555 7.41195C1.90563 7.37364 1.81457 7.31537 1.73793 7.24069C1.66128 7.16601 1.60067 7.07649 1.55977 6.9776C1.51888 6.87871 1.49857 6.77253 1.50008 6.66553ZM15.7799 7.46352H21.6389C21.7492 7.47388 21.8605 7.46084 21.9654 7.42526C22.0703 7.38968 22.1666 7.33236 22.2478 7.25705C22.3291 7.18173 22.3935 7.09011 22.437 6.98818C22.4804 6.88626 22.5018 6.77631 22.4999 6.66553C22.4999 6.5626 22.4794 6.4607 22.4397 6.36574C22.4 6.27078 22.3419 6.18465 22.2686 6.11237C22.1953 6.04008 22.1084 5.98306 22.013 5.94464C21.9175 5.90622 21.8153 5.88714 21.7124 5.88854H15.8114C15.708 5.88991 15.6059 5.91163 15.5109 5.95248C15.4158 5.99332 15.3298 6.05249 15.2577 6.12659C15.1855 6.20069 15.1287 6.28828 15.0904 6.38436C15.0521 6.48043 15.0331 6.58311 15.0344 6.68653C15.0344 6.78945 15.0549 6.89136 15.0946 6.98632C15.1343 7.08127 15.1925 7.1674 15.2657 7.23969C15.339 7.31198 15.4259 7.36899 15.5214 7.40742C15.6169 7.44584 15.719 7.46491 15.8219 7.46352H15.7799ZM21.6284 16.5459H18.0059C17.8102 15.5417 17.2474 14.6464 16.4274 14.0345C15.6073 13.4227 14.5888 13.1382 13.5704 13.2365C12.552 13.3348 11.6067 13.809 10.9189 14.5664C10.2311 15.3238 9.85004 16.3103 9.85004 17.3334C9.85004 18.3566 10.2311 19.343 10.9189 20.1005C11.6067 20.8579 12.552 21.332 13.5704 21.4303C14.5888 21.5287 15.6073 21.2442 16.4274 20.6323C17.2474 20.0205 17.8102 19.1252 18.0059 18.1209H21.6809C21.7843 18.1195 21.8864 18.0978 21.9815 18.057C22.0765 18.0161 22.1625 17.957 22.2347 17.8829C22.3068 17.8088 22.3637 17.7212 22.402 17.6251C22.4403 17.529 22.4593 17.4263 22.4579 17.3229C22.4579 17.22 22.4374 17.1181 22.3977 17.0231C22.358 16.9282 22.2999 16.8421 22.2266 16.7698C22.1533 16.6975 22.0664 16.6405 21.971 16.602C21.8755 16.5636 21.7733 16.5445 21.6704 16.5459H21.6284ZM8.14651 16.5459H2.32957C2.22665 16.5445 2.12449 16.5636 2.029 16.602C1.93352 16.6405 1.84662 16.6975 1.77335 16.7698C1.70009 16.8421 1.64191 16.9282 1.60221 17.0231C1.56251 17.1181 1.54207 17.22 1.54208 17.3229C1.54069 17.4263 1.55969 17.529 1.59799 17.6251C1.63628 17.7212 1.69313 17.8088 1.76528 17.8829C1.83744 17.957 1.92348 18.0161 2.0185 18.057C2.11352 18.0978 2.21565 18.1195 2.31907 18.1209H8.17801C8.38687 18.1209 8.58717 18.0379 8.73486 17.8903C8.88254 17.7426 8.96551 17.5423 8.96551 17.3334C8.96692 17.231 8.94779 17.1293 8.90924 17.0344C8.87069 16.9395 8.81351 16.8533 8.74108 16.7809C8.66865 16.7084 8.58243 16.6512 8.48752 16.6127C8.39261 16.5742 8.29094 16.555 8.18851 16.5564L8.14651 16.5459Z" fill="black"/>
</svg>
