<svg width="24" height="24" viewBox="0 0 24 24" fill="none" xmlns="http://www.w3.org/2000/svg">
<path d="M20.9979 8.96306H19.4689C19.1964 8.27878 18.8258 7.63775 18.3689 7.06007L19.1169 5.76208C19.3845 5.29333 19.4561 4.73782 19.316 4.21656C19.1759 3.69529 18.8355 3.25051 18.3689 2.9791L16.5759 1.9451C16.3442 1.81113 16.0883 1.72419 15.8228 1.68927C15.5574 1.65436 15.2877 1.67215 15.0292 1.74164C14.7707 1.81112 14.5284 1.93093 14.3163 2.0942C14.1041 2.25747 13.9263 2.46099 13.7929 2.6931L13.0339 4.01309C12.6915 3.96149 12.3462 3.9321 12 3.92509C11.654 3.92846 11.3086 3.95418 10.966 4.00209L10.229 2.6931C9.96336 2.22354 9.52217 1.87867 9.00237 1.73428C8.48258 1.58989 7.92672 1.65781 7.45699 1.92311L5.653 2.9461C5.18344 3.21171 4.83857 3.6529 4.69418 4.17269C4.54979 4.69249 4.61771 5.24834 4.883 5.71808L5.631 7.04907C5.18057 7.62317 4.8105 8.25599 4.53101 8.93006H3.04602C2.77798 8.92566 2.51176 8.97484 2.26298 9.07472C2.0142 9.1746 1.78789 9.32317 1.5973 9.5117C1.40672 9.70023 1.25572 9.92493 1.15315 10.1726C1.05059 10.4203 0.998531 10.686 1.00003 10.954V13.022C0.998583 13.2893 1.04979 13.5542 1.15072 13.8016C1.25165 14.0491 1.40033 14.2742 1.58828 14.4642C1.77622 14.6542 1.99975 14.8053 2.24609 14.9089C2.49244 15.0125 2.75678 15.0666 3.02402 15.068H4.53101C4.80665 15.744 5.17702 16.3773 5.631 16.949L4.872 18.247C4.73828 18.4779 4.65154 18.733 4.61677 18.9976C4.582 19.2621 4.59989 19.5309 4.66941 19.7886C4.73893 20.0462 4.8587 20.2875 5.02184 20.4987C5.18498 20.7099 5.38827 20.8867 5.62 21.019L7.41299 22.064C7.64474 22.1979 7.90066 22.2849 8.16606 22.3198C8.43147 22.3547 8.70116 22.3369 8.95969 22.2674C9.21821 22.1979 9.46048 22.0781 9.67262 21.9149C9.88476 21.7516 10.0626 21.5481 10.196 21.316L10.955 19.996C11.3007 20.0493 11.6501 20.075 12 20.073C12.3679 20.0701 12.7352 20.0444 13.0999 19.996L13.8479 21.294C13.9802 21.5257 14.1571 21.729 14.3682 21.8921C14.5794 22.0553 14.8207 22.175 15.0783 22.2446C15.336 22.3141 15.6048 22.332 15.8694 22.2972C16.1339 22.2624 16.389 22.1757 16.6199 22.042L18.4129 21.008C18.6456 20.8766 18.8499 20.7005 19.0141 20.4897C19.1784 20.279 19.2993 20.0378 19.3698 19.7801C19.4404 19.5224 19.4592 19.2533 19.4253 18.9882C19.3913 18.7232 19.3052 18.4676 19.1719 18.236L18.4129 16.916C18.854 16.3554 19.2235 15.742 19.5129 15.09H20.9979C21.5226 15.0762 22.0222 14.8624 22.3944 14.4922C22.7666 14.1221 22.9832 13.6237 22.9999 13.099V11.02C23.0058 10.4822 22.7985 9.9639 22.4233 9.57845C22.0482 9.193 21.5357 8.97175 20.9979 8.96306ZM11.989 15.563C11.2814 15.563 10.5898 15.3531 10.0017 14.9597C9.41353 14.5664 8.95532 14.0074 8.68507 13.3536C8.41481 12.6997 8.34466 11.9803 8.4835 11.2865C8.62233 10.5928 8.96391 9.95578 9.46498 9.45625C9.96605 8.95673 10.6041 8.61711 11.2983 8.48042C11.9925 8.34372 12.7116 8.41609 13.3647 8.68836C14.0177 8.96063 14.5753 9.42055 14.9668 10.0099C15.3583 10.5992 15.5661 11.2915 15.5639 11.999C15.5639 12.9453 15.1888 13.8529 14.5207 14.523C13.8527 15.1932 12.9462 15.5711 12 15.574L11.989 15.563Z" fill="black"/>
</svg>
