<svg width="24" height="24" viewBox="0 0 24 24" fill="none" xmlns="http://www.w3.org/2000/svg">
<path d="M17.2353 1.25H6.76475C6.04054 1.25 5.32343 1.39264 4.65435 1.66979C3.98527 1.94693 3.37732 2.35314 2.86523 2.86523C1.83102 3.89945 1.25 5.30215 1.25 6.76475V17.2353C1.25 18.6979 1.83102 20.1006 2.86523 21.1348C3.89945 22.169 5.30215 22.75 6.76475 22.75H17.2353C18.6979 22.75 20.1006 22.169 21.1348 21.1348C22.169 20.1006 22.75 18.6979 22.75 17.2353V6.76475C22.75 5.30215 22.169 3.89945 21.1348 2.86523C20.1006 1.83102 18.6979 1.25 17.2353 1.25ZM7.34525 5.0125C7.34525 4.79867 7.43019 4.5936 7.5814 4.4424C7.7326 4.29119 7.93767 4.20625 8.1515 4.20625C8.36533 4.20625 8.5704 4.29119 8.7216 4.4424C8.87281 4.5936 8.95775 4.79867 8.95775 5.0125V9.205C8.95775 9.41883 8.87281 9.6239 8.7216 9.77511C8.5704 9.92631 8.36533 10.0112 8.1515 10.0112C7.93767 10.0112 7.7326 9.92631 7.5814 9.77511C7.43019 9.6239 7.34525 9.41883 7.34525 9.205V5.0125ZM8.95775 16.8375V18.9875C8.95917 19.0929 8.93965 19.1975 8.90031 19.2952C8.86097 19.393 8.8026 19.482 8.72859 19.557C8.65458 19.632 8.5664 19.6915 8.46918 19.7322C8.37196 19.7728 8.26763 19.7938 8.16225 19.7938C7.94929 19.791 7.74583 19.7051 7.59522 19.5545C7.44462 19.4039 7.35878 19.2005 7.356 18.9875V16.8375C6.67541 16.643 6.08803 16.2092 5.7021 15.6158C5.31617 15.0224 5.15769 14.3096 5.25587 13.6086C5.35405 12.9076 5.70226 12.2657 6.23636 11.8012C6.77045 11.3367 7.45443 11.0809 8.16225 11.0809C8.87008 11.0809 9.55405 11.3367 10.0881 11.8012C10.6222 12.2657 10.9705 12.9076 11.0686 13.6086C11.1668 14.3096 11.0083 15.0224 10.6224 15.6158C10.2365 16.2092 9.64909 16.643 8.9685 16.8375H8.95775ZM16.6548 18.9875C16.6548 19.2013 16.5698 19.4064 16.4186 19.5576C16.2674 19.7088 16.0623 19.7938 15.8485 19.7938C15.6347 19.7938 15.4296 19.7088 15.2784 19.5576C15.1272 19.4064 15.0423 19.2013 15.0423 18.9875V14.795C15.0423 14.5812 15.1272 14.3761 15.2784 14.2249C15.4296 14.0737 15.6347 13.9888 15.8485 13.9888C16.0623 13.9888 16.2674 14.0737 16.4186 14.2249C16.5698 14.3761 16.6548 14.5812 16.6548 14.795V18.9875ZM15.8485 12.9138C15.1399 12.9188 14.4535 12.6664 13.917 12.2034C13.3806 11.7404 13.0305 11.0983 12.932 10.3965C12.8334 9.69475 12.993 8.98108 13.3812 8.38819C13.7694 7.79531 14.3596 7.36357 15.0423 7.17325V5.02325C15.0376 4.91521 15.0556 4.80738 15.0951 4.70672C15.1347 4.60607 15.1949 4.51481 15.2719 4.43885C15.3488 4.36289 15.4409 4.3039 15.542 4.26569C15.6432 4.22748 15.7513 4.21089 15.8593 4.217C15.9646 4.21699 16.069 4.23792 16.1662 4.27857C16.2634 4.31921 16.3516 4.37877 16.4256 4.45378C16.4996 4.5288 16.558 4.61776 16.5973 4.71552C16.6367 4.81328 16.6562 4.91788 16.6548 5.02325V7.17325C17.3374 7.36357 17.9276 7.79531 18.3158 8.38819C18.704 8.98108 18.8636 9.69475 18.765 10.3965C18.6665 11.0983 18.3164 11.7404 17.78 12.2034C17.2435 12.6664 16.5571 12.9188 15.8485 12.9138Z" fill="black"/>
</svg>
