<svg width="24" height="24" viewBox="0 0 24 24" fill="none" xmlns="http://www.w3.org/2000/svg">
<path d="M19.125 3.45816L13.6625 1.09555C13.137 0.867854 12.566 0.75 11.9881 0.75C11.4103 0.75 10.8392 0.867854 10.3137 1.09555L4.875 3.45816C4.16779 3.75937 3.56744 4.24768 3.14612 4.86438C2.7248 5.48109 2.50044 6.19995 2.5 6.93457V15.2037C2.49985 15.7704 2.633 16.33 2.88977 16.8418C3.14654 17.3536 3.52047 17.8048 3.98438 18.1626L9.435 22.3815C10.1539 22.943 11.0565 23.25 11.9881 23.25C12.9198 23.25 13.8224 22.943 14.5413 22.3815L19.9919 18.1626C20.4601 17.807 20.8386 17.3568 21.0995 16.8449C21.3605 16.3329 21.4973 15.7722 21.5 15.2037V6.93457C21.4996 6.19995 21.2752 5.48109 20.8539 4.86438C20.4326 4.24768 19.8322 3.75937 19.125 3.45816ZM14.9806 13.5836C15.1474 13.7418 15.2411 13.9563 15.2411 14.1799C15.2411 14.4035 15.1474 14.618 14.9806 14.7762C14.8962 14.8554 14.7961 14.918 14.6861 14.9605C14.576 15.003 14.4582 15.0244 14.3394 15.0237C14.1054 15.0241 13.8802 14.9396 13.71 14.7874L12 13.1786L10.2544 14.7987C10.173 14.8747 10.0765 14.9347 9.97053 14.9752C9.86455 15.0158 9.75116 15.0361 9.63688 15.0349C9.51805 15.0357 9.40024 15.0142 9.2902 14.9718C9.18016 14.9293 9.08005 14.8666 8.99563 14.7874C8.82884 14.6292 8.73516 14.4147 8.73516 14.1911C8.73516 13.9675 8.82884 13.7531 8.99563 13.5949L10.7294 11.9973L9.0075 10.3997C8.89274 10.3355 8.79466 10.2476 8.72051 10.1427C8.64635 10.0377 8.59801 9.91833 8.57905 9.79332C8.56009 9.66831 8.57099 9.54086 8.61095 9.42037C8.65091 9.29988 8.7189 9.18943 8.80993 9.09716C8.90095 9.00488 9.01267 8.93315 9.13686 8.88724C9.26105 8.84133 9.39453 8.82241 9.52746 8.83189C9.66039 8.84137 9.78938 8.879 9.90491 8.942C10.0204 9.00501 10.1196 9.09178 10.195 9.19592L12 10.8722L13.7338 9.25217C13.9042 9.09613 14.132 9.00891 14.3691 9.00891C14.6061 9.00891 14.8339 9.09613 15.0044 9.25217C15.1712 9.41038 15.2648 9.62484 15.2648 9.84845C15.2648 10.0721 15.1712 10.2865 15.0044 10.4447L13.2706 11.9973L14.9806 13.5836Z" fill="black"/>
</svg>
