<svg width="24" height="24" viewBox="0 0 24 24" fill="none" xmlns="http://www.w3.org/2000/svg">
<path d="M10.0743 7.7L4.40905 9.96825V7.47425C4.40905 6.6788 4.72504 5.91593 5.28751 5.35346C5.84998 4.79099 6.61285 4.475 7.4083 4.475H9.24655V2.48625C9.24936 2.15924 9.38051 1.84643 9.61174 1.61519C9.84298 1.38396 10.1558 1.25281 10.4828 1.25H13.3853C13.7123 1.25281 14.0251 1.38396 14.2564 1.61519C14.4876 1.84643 14.6187 2.15924 14.6215 2.48625V4.475H16.4598C17.2552 4.475 18.0181 4.79099 18.5806 5.35346C19.1431 5.91593 19.459 6.6788 19.459 7.47425V9.96825L13.7938 7.7C12.6019 7.21251 11.2662 7.21251 10.0743 7.7V7.7ZM20.8243 12.2472L13.2993 9.19425C12.4919 8.87125 11.5912 8.87125 10.7838 9.19425L3.2588 12.2472C2.79667 12.431 2.40071 12.7499 2.12263 13.1622C1.84455 13.5746 1.69728 14.0612 1.70005 14.5585C1.70265 16.7117 2.55181 18.7775 4.06425 20.31C5.57668 21.8426 7.6311 22.719 9.78405 22.75H14.084C16.2594 22.75 18.3457 21.8858 19.8839 20.3476C21.4221 18.8094 22.2863 16.7231 22.2863 14.5478C22.2925 14.0554 22.1516 13.5723 21.8815 13.1605C21.6115 12.7488 21.2246 12.427 20.7705 12.2365L20.8243 12.2472Z" fill="black"/>
</svg>
