<svg width="24" height="24" viewBox="0 0 24 24" fill="none" xmlns="http://www.w3.org/2000/svg">
<path d="M9.96361 10.2842C9.70624 10.0272 9.5063 9.71854 9.37697 9.37861C9.24765 9.03867 9.19189 8.67517 9.21336 8.3121L9.68495 1.28119H14.1757L14.8081 8.25851C14.8405 8.62393 14.792 8.992 14.666 9.33655C14.54 9.68111 14.3397 9.99367 14.0793 10.252C13.5278 10.7833 12.7936 11.0828 12.0278 11.0888C11.2621 11.0948 10.5233 10.8068 9.96361 10.2842ZM16.1907 4.58229L16.5551 8.54789C16.6382 9.27147 16.9912 9.93708 17.5435 10.4119C18.0958 10.8867 18.8068 11.1358 19.5346 11.1095C19.9507 11.1112 20.3628 11.0285 20.746 10.8664C21.1292 10.7043 21.4755 10.4661 21.764 10.1663C22.0403 9.87481 22.2481 9.52539 22.3723 9.14344C22.4966 8.7615 22.534 8.35666 22.4821 7.95841L22.0426 4.58229C21.8855 3.64288 21.3945 2.79175 20.6601 2.1853C19.9257 1.57884 18.997 1.25781 18.0449 1.28119H15.9013L16.18 4.30362L16.1907 4.58229ZM4.30459 11.1095H4.66899C5.3589 11.1263 6.02963 10.8815 6.54652 10.4243C7.06341 9.96702 7.38818 9.33116 7.45563 8.64435L7.94865 1.28119H5.96585C4.99354 1.25815 4.0465 1.59226 3.30389 2.22031C2.56128 2.84837 2.07461 3.72682 1.93594 4.68947L1.52866 8.1942C1.48789 8.56398 1.52918 8.9382 1.6496 9.29019C1.77001 9.64218 1.96659 9.96328 2.22532 10.2306C2.49496 10.5094 2.81809 10.731 3.17536 10.882C3.53264 11.033 3.91671 11.1104 4.30459 11.1095ZM19.5346 12.7386C18.7989 12.7516 18.0701 12.595 17.4047 12.2808C16.7393 11.9667 16.1552 11.5036 15.6977 10.9273C15.5854 11.0845 15.4637 11.2349 15.3332 11.3774C14.4521 12.2505 13.2619 12.7404 12.0214 12.7404C10.781 12.7404 9.59074 12.2505 8.70962 11.3774C8.57029 11.2381 8.46311 11.0773 8.34521 10.938C7.90927 11.4959 7.35118 11.9464 6.71387 12.2548C6.07656 12.5632 5.377 12.7214 4.66899 12.7171H4.30459C3.1822 12.7114 2.09882 12.3047 1.25 11.5703V17.4008C1.26942 18.1197 1.43049 18.8276 1.72397 19.4841C2.01745 20.1406 2.43758 20.7327 2.96029 21.2265C3.48299 21.7203 4.098 22.1062 4.77008 22.3619C5.44216 22.6177 6.1581 22.7383 6.87687 22.7169H8.87039V19.673C8.89839 18.8457 9.2519 18.0629 9.85404 17.4949C10.4562 16.9269 11.2582 16.6196 12.0857 16.6399C12.9133 16.6196 13.7153 16.9269 14.3174 17.4949C14.9196 18.0629 15.2731 18.8457 15.3011 19.673V22.7169H17.1124C17.8303 22.7398 18.5457 22.6209 19.2176 22.3672C19.8896 22.1134 20.5049 21.7297 21.0285 21.238C21.5521 20.7463 21.9736 20.1562 22.269 19.5014C22.5644 18.8467 22.7278 18.1402 22.75 17.4223V11.4846C21.8701 12.2857 20.7246 12.7325 19.5346 12.7386Z" fill="black"/>
</svg>
