<svg width="24" height="24" viewBox="0 0 24 24" fill="none" xmlns="http://www.w3.org/2000/svg">
<path d="M11.67 23H6.83C5.28379 23 3.8009 22.3858 2.70757 21.2924C1.61423 20.1991 1 18.7162 1 17.17V12.33C1 10.7838 1.61423 9.3009 2.70757 8.20757C3.8009 7.11423 5.28379 6.5 6.83 6.5H11.67C13.2162 6.5 14.6991 7.11423 15.7924 8.20757C16.8858 9.3009 17.5 10.7838 17.5 12.33V17.17C17.5 18.7162 16.8858 20.1991 15.7924 21.2924C14.6991 22.3858 13.2162 23 11.67 23ZM17.5 12.33C17.4984 11.9346 17.4579 11.5404 17.379 11.153C17.4579 11.5404 17.4984 11.9346 17.5 12.33ZM19.238 1H14.662C13.6643 1 12.7074 1.39635 12.0019 2.10186C11.2964 2.80738 10.9 3.76426 10.9 4.762V4.85H11.67C13.6529 4.85291 15.5538 5.64191 16.9559 7.04405C18.3581 8.4462 19.1471 10.3471 19.15 12.33V13.1H19.238C19.732 13.1 20.2212 13.0027 20.6777 12.8136C21.1341 12.6246 21.5488 12.3475 21.8981 11.9981C22.2475 11.6488 22.5246 11.2341 22.7136 10.7777C22.9027 10.3212 23 9.83203 23 9.338V4.762C23 4.26797 22.9027 3.77877 22.7136 3.32235C22.5246 2.86592 22.2475 2.4512 21.8981 2.10186C21.5488 1.75253 21.1341 1.47542 20.6777 1.28637C20.2212 1.09731 19.732 1 19.238 1Z" fill="black"/>
</svg>
