<svg width="24" height="24" viewBox="0 0 24 24" fill="none" xmlns="http://www.w3.org/2000/svg">
<path d="M19.955 5.24502V18.747C19.955 19.6023 19.6152 20.4226 19.0104 21.0274C18.4056 21.6322 17.5853 21.972 16.73 21.972H7.23775C6.38243 21.972 5.56214 21.6322 4.95733 21.0274C4.35253 20.4226 4.01275 19.6023 4.01275 18.747V5.24502C4.01275 4.3897 4.35253 3.5694 4.95733 2.9646C5.56214 2.3598 6.38243 2.02002 7.23775 2.02002H16.7623C17.612 2.02852 18.424 2.37204 19.0219 2.97593C19.6197 3.57981 19.955 4.39525 19.955 5.24502ZM2.8625 19.22V4.75052C2.8625 4.53669 2.77756 4.33162 2.62636 4.18041C2.47515 4.02921 2.27008 3.94427 2.05625 3.94427C1.84242 3.94427 1.63735 4.02921 1.48615 4.18041C1.33494 4.33162 1.25 4.53669 1.25 4.75052V19.2415C1.25 19.4554 1.33494 19.6604 1.48615 19.8116C1.63735 19.9628 1.84242 20.0478 2.05625 20.0478C2.27008 20.0478 2.47515 19.9628 2.62636 19.8116C2.77756 19.6604 2.8625 19.4554 2.8625 19.2415V19.22ZM22.75 19.22V4.75052C22.75 4.53669 22.6651 4.33162 22.5139 4.18041C22.3627 4.02921 22.1576 3.94427 21.9438 3.94427C21.7299 3.94427 21.5248 4.02921 21.3736 4.18041C21.2224 4.33162 21.1375 4.53669 21.1375 4.75052V19.2415C21.1375 19.4554 21.2224 19.6604 21.3736 19.8116C21.5248 19.9628 21.7299 20.0478 21.9438 20.0478C22.1576 20.0478 22.3627 19.9628 22.5139 19.8116C22.6651 19.6604 22.75 19.4554 22.75 19.2415V19.22Z" fill="black"/>
</svg>
