<svg width="24" height="24" viewBox="0 0 24 24" fill="none" xmlns="http://www.w3.org/2000/svg">
<path d="M4.475 6.55H19.6325C20.4691 6.5779 21.262 6.92995 21.8437 7.53176C22.4255 8.13357 22.7505 8.93798 22.75 9.775V16.225C22.7501 17.0711 22.4177 17.8833 21.8245 18.4866C21.2313 19.0899 20.4247 19.4359 19.5788 19.45H4.475C3.61968 19.45 2.79939 19.1102 2.19458 18.5054C1.58978 17.9006 1.25 17.0803 1.25 16.225V9.775C1.25 8.91968 1.58978 8.09939 2.19458 7.49458C2.79939 6.88978 3.61968 6.55 4.475 6.55ZM4.82975 21.3743C4.82975 22.0043 5.08005 22.6086 5.52559 23.0542C5.97113 23.4997 6.57541 23.75 7.2055 23.75H16.7945C17.4246 23.75 18.0289 23.4997 18.4744 23.0542C18.9199 22.6086 19.1702 22.0043 19.1702 21.3743V21.0518H4.82975V21.3743ZM19.1702 4.62575C19.1702 3.99566 18.9199 3.39138 18.4744 2.94584C18.0289 2.5003 17.4246 2.25 16.7945 2.25H7.2055C6.57541 2.25 5.97113 2.5003 5.52559 2.94584C5.08005 3.39138 4.82975 3.99566 4.82975 4.62575V4.94825H19.1702V4.62575Z" fill="black"/>
</svg>
