<svg width="24" height="24" viewBox="0 0 24 24" fill="none" xmlns="http://www.w3.org/2000/svg">
<path d="M2.2875 20.4C2.08399 20.4002 1.88831 20.3215 1.7415 20.1806C1.59469 20.0397 1.50814 19.8474 1.5 19.644V4.356C1.5 4.14714 1.58297 3.94684 1.73065 3.79915C1.87834 3.65147 2.07864 3.5685 2.2875 3.5685C2.49636 3.5685 2.69666 3.65147 2.84435 3.79915C2.99203 3.94684 3.075 4.14714 3.075 4.356V19.644C3.06686 19.8474 2.98031 20.0397 2.8335 20.1806C2.68669 20.3215 2.49101 20.4002 2.2875 20.4ZM22.5 19.644V4.356C22.5 4.14714 22.417 3.94684 22.2693 3.79915C22.1217 3.65147 21.9214 3.5685 21.7125 3.5685C21.5036 3.5685 21.3033 3.65147 21.1557 3.79915C21.008 3.94684 20.925 4.14714 20.925 4.356V19.644C20.925 19.8529 21.008 20.0532 21.1557 20.2008C21.3033 20.3485 21.5036 20.4315 21.7125 20.4315C21.9214 20.4315 22.1217 20.3485 22.2693 20.2008C22.417 20.0532 22.5 19.8529 22.5 19.644ZM4.482 16.662V17.9325C4.482 19.1439 4.96322 20.3056 5.81979 21.1622C6.67636 22.0188 7.83812 22.5 9.0495 22.5H14.9505C16.1619 22.5 17.3236 22.0188 18.1802 21.1622C19.0368 20.3056 19.518 19.1439 19.518 17.9325V16.662H4.482ZM19.518 15.087V6.0675C19.518 4.85612 19.0368 3.69436 18.1802 2.83779C17.3236 1.98122 16.1619 1.5 14.9505 1.5H9.0495C7.83812 1.5 6.67636 1.98122 5.81979 2.83779C4.96322 3.69436 4.482 4.85612 4.482 6.0675V15.087H19.518Z" fill="black"/>
</svg>
