<svg width="24" height="24" viewBox="0 0 24 24" fill="none" xmlns="http://www.w3.org/2000/svg">
<path d="M18.747 19.955H5.24502C4.3897 19.955 3.5694 19.6152 2.9646 19.0104C2.3598 18.4056 2.02002 17.5853 2.02002 16.73V7.23775C2.02002 6.38243 2.3598 5.56214 2.9646 4.95733C3.5694 4.35253 4.3897 4.01275 5.24502 4.01275H18.747C19.6023 4.01275 20.4226 4.35253 21.0274 4.95733C21.6322 5.56214 21.972 6.38243 21.972 7.23775V16.7623C21.9635 17.612 21.62 18.424 21.0161 19.0219C20.4122 19.6197 19.5968 19.955 18.747 19.955ZM20.0478 2.05625C20.045 1.84328 19.9591 1.63983 19.8085 1.48922C19.6579 1.33862 19.4545 1.25278 19.2415 1.25H4.75052C4.53669 1.25 4.33162 1.33494 4.18041 1.48615C4.02921 1.63735 3.94427 1.84242 3.94427 2.05625C3.94427 2.27008 4.02921 2.47515 4.18041 2.62636C4.33162 2.77756 4.53669 2.8625 4.75052 2.8625H19.2415C19.4545 2.85972 19.6579 2.77388 19.8085 2.62328C19.9591 2.47267 20.045 2.26922 20.0478 2.05625ZM20.0478 21.9438C20.045 21.7308 19.9591 21.5273 19.8085 21.3767C19.6579 21.2261 19.4545 21.1403 19.2415 21.1375H4.75052C4.53669 21.1375 4.33162 21.2224 4.18041 21.3736C4.02921 21.5248 3.94427 21.7299 3.94427 21.9438C3.94427 22.1576 4.02921 22.3627 4.18041 22.5139C4.33162 22.6651 4.53669 22.75 4.75052 22.75H19.2415C19.4545 22.7472 19.6579 22.6614 19.8085 22.5108C19.9591 22.3602 20.045 22.1567 20.0478 21.9438Z" fill="black"/>
</svg>
