<svg width="24" height="24" viewBox="0 0 24 24" fill="none" xmlns="http://www.w3.org/2000/svg">
<path d="M12 0.75C9.77496 0.75 7.59989 1.4098 5.74984 2.64597C3.89979 3.88213 2.45785 5.63914 1.60636 7.69481C0.754874 9.75048 0.532087 12.0125 0.966171 14.1948C1.40025 16.377 2.47171 18.3816 4.04505 19.9549C5.61839 21.5283 7.62295 22.5997 9.80524 23.0338C11.9875 23.4679 14.2495 23.2451 16.3052 22.3936C18.3609 21.5422 20.1179 20.1002 21.354 18.2502C22.5902 16.4001 23.25 14.225 23.25 12C23.25 10.5226 22.959 9.05972 22.3936 7.69481C21.8283 6.3299 20.9996 5.08971 19.955 4.04505C18.9103 3.00039 17.6701 2.17172 16.3052 1.60636C14.9403 1.04099 13.4774 0.75 12 0.75ZM17.3212 15.9937C16.6237 16.095 16.5675 16.3425 16.5225 16.4887C16.4775 16.635 16.5225 16.9725 15.9825 16.9612C15.1431 16.9268 14.3161 17.1722 13.6313 17.6587C13.1226 17.9756 12.5329 18.1379 11.9337 18.1259C11.3346 18.1139 10.7518 17.9282 10.2563 17.5912C9.70464 17.196 9.04481 16.98 8.36625 16.9725C8.1525 16.9725 7.7025 16.9725 7.55625 16.815C7.41 16.6575 7.55625 16.41 7.37625 16.2637C6.99142 16.0702 6.58816 15.9156 6.1725 15.8025C5.84625 15.6675 5.4525 15.555 6.29625 15.1387C6.93269 14.8187 7.48406 14.3522 7.905 13.7775C8.24655 13.3569 8.45423 12.8435 8.50125 12.3037C8.50125 12.09 7.9725 11.82 7.51125 11.505C7.05 11.19 6.8025 10.8862 7.05 10.5712C7.2975 10.2562 7.725 10.4925 8.175 10.6612C8.625 10.83 8.56875 10.7512 8.58 10.6612V8.97375C8.58 8.15323 8.90595 7.36633 9.48614 6.78614C10.0663 6.20595 10.8532 5.88 11.6738 5.88H12.1688C12.5844 5.86487 12.9988 5.93371 13.3873 6.0824C13.7757 6.23109 14.1302 6.45658 14.4295 6.74538C14.7288 7.03418 14.9668 7.38037 15.1292 7.76325C15.2917 8.14612 15.3753 8.55783 15.375 8.97375V10.425C15.375 10.9087 15.7238 10.6837 16.2075 10.5037C16.6912 10.3237 17.0513 10.5037 17.0513 10.8862C17.0513 11.2687 16.1288 11.7525 15.7688 12.0112C15.4088 12.27 15.375 12.36 15.8588 13.3837C16.3535 14.2292 17.1011 14.8982 17.9963 15.2962C18.525 15.6225 18.03 15.9037 17.3212 15.9937Z" fill="black"/>
</svg>
