<svg width="24" height="24" viewBox="0 0 24 24" fill="none" xmlns="http://www.w3.org/2000/svg">
<path d="M14.8041 14.1379C14.8013 14.3503 14.7157 14.5532 14.5655 14.7035C14.4153 14.8537 14.2123 14.9393 13.9999 14.9421H9.82855C9.61526 14.9421 9.4107 14.8574 9.25987 14.7065C9.10905 14.5557 9.02431 14.3511 9.02431 14.1379C9.02431 13.9246 9.10905 13.72 9.25987 13.5692C9.4107 13.4183 9.61526 13.3336 9.82855 13.3336H14.0535C14.2565 13.3497 14.4461 13.4411 14.585 13.59C14.7239 13.7388 14.8021 13.9343 14.8041 14.1379ZM22.75 16.2825C22.7501 17.9759 22.0826 19.6012 20.8922 20.8056C19.7018 22.0101 18.0845 22.6966 16.3911 22.7164H7.68392C5.99046 22.7165 4.36524 22.049 3.16078 20.8586C1.95633 19.6682 1.26976 18.0509 1.25 16.3576V7.70394C1.24966 6.01962 1.90983 4.40233 3.08873 3.19937C4.26763 1.99641 5.87126 1.30371 7.55524 1.27002H16.2625C17.9559 1.2699 19.5811 1.93745 20.7856 3.12785C21.9901 4.31826 22.6766 5.93553 22.6964 7.62887L22.75 16.2825ZM18.4071 11.8967C18.4071 11.655 18.3111 11.4231 18.1401 11.2522C17.9692 11.0813 17.7374 10.9852 17.4956 10.9852C17.3342 10.9866 17.1741 10.9561 17.0245 10.8953C16.875 10.8345 16.7389 10.7447 16.6243 10.631C16.5096 10.5173 16.4186 10.3821 16.3565 10.2331C16.2944 10.0841 16.2625 9.92423 16.2625 9.76279V7.70394C16.2625 7.13514 16.0365 6.58964 15.6343 6.18745C15.2321 5.78525 14.6866 5.5593 14.1178 5.5593H7.68392C7.11512 5.5593 6.56962 5.78525 6.16743 6.18745C5.76523 6.58964 5.53928 7.13514 5.53928 7.70394V16.2825C5.53928 16.8513 5.76523 17.3968 6.16743 17.799C6.56962 18.2012 7.11512 18.4271 7.68392 18.4271H16.2625C16.8313 18.4271 17.3768 18.2012 17.779 17.799C18.1812 17.3968 18.4071 16.8513 18.4071 16.2825V11.8967ZM9.72132 10.6528H11.9732C12.1865 10.6528 12.3911 10.5681 12.5419 10.4173C12.6927 10.2664 12.7774 10.0619 12.7774 9.84857C12.7774 9.63528 12.6927 9.43071 12.5419 9.27989C12.3911 9.12907 12.1865 9.04433 11.9732 9.04433H9.72132C9.50802 9.04433 9.30346 9.12907 9.15264 9.27989C9.00181 9.43071 8.91708 9.63528 8.91708 9.84857C8.91708 10.0619 9.00181 10.2664 9.15264 10.4173C9.30346 10.5681 9.50802 10.6528 9.72132 10.6528Z" fill="black"/>
</svg>
