<svg width="24" height="24" viewBox="0 0 24 24" fill="none" xmlns="http://www.w3.org/2000/svg">
<path d="M19.953 11.615H17.137C17.1891 11.2561 17.3628 10.9259 17.6291 10.6796C17.8954 10.4334 18.2381 10.2859 18.6 10.262C18.9429 10.3074 19.2613 10.4645 19.5059 10.7091C19.7505 10.9537 19.9076 11.2721 19.953 11.615ZM23 12C23 14.1756 22.3549 16.3023 21.1462 18.1113C19.9375 19.9202 18.2195 21.3301 16.2095 22.1627C14.1995 22.9952 11.9878 23.2131 9.85401 22.7886C7.72022 22.3642 5.76021 21.3165 4.22183 19.7782C2.68345 18.2398 1.6358 16.2798 1.21137 14.146C0.78693 12.0122 1.00477 9.80047 1.83733 7.79048C2.66989 5.78049 4.07979 4.06253 5.88873 2.85383C7.69767 1.64514 9.82441 1 12 1C13.4445 1 14.8749 1.28452 16.2095 1.83732C17.5441 2.39013 18.7567 3.20038 19.7782 4.22182C20.7996 5.24327 21.6099 6.4559 22.1627 7.79048C22.7155 9.12506 23 10.5555 23 12ZM11.571 7.6C10.8937 7.19563 10.133 6.95125 9.34695 6.8855C8.56087 6.81974 7.77016 6.93435 7.0351 7.22058C6.30004 7.50682 5.64005 7.95711 5.10544 8.53714C4.57083 9.11717 4.17573 9.81161 3.95025 10.5675C3.72477 11.3234 3.67488 12.1208 3.80437 12.899C3.93386 13.6771 4.23932 14.4154 4.69746 15.0575C5.15559 15.6997 5.75431 16.2287 6.44796 16.6043C7.1416 16.98 7.91186 17.1922 8.7 17.225C9.53899 17.2229 10.3652 17.0191 11.109 16.631C11.2388 16.5624 11.3361 16.4451 11.3794 16.3048C11.4227 16.1646 11.4086 16.0128 11.34 15.883C11.2714 15.7532 11.1541 15.6559 11.0138 15.6126C10.8736 15.5693 10.7218 15.5834 10.592 15.652C10.0098 15.9628 9.35996 16.1252 8.7 16.125C8.06213 16.1294 7.43207 15.9846 6.86011 15.7022C6.28814 15.4198 5.79012 15.0076 5.40581 14.4985C5.02149 13.9894 4.76151 13.3975 4.64664 12.77C4.53176 12.1426 4.56517 11.4969 4.74419 10.8847C4.92321 10.2724 5.24288 9.71053 5.6777 9.2438C6.11251 8.77707 6.65041 8.41846 7.24847 8.19659C7.84652 7.97472 8.48816 7.89575 9.12217 7.96596C9.75618 8.03618 10.365 8.25364 10.9 8.601C11.0223 8.67078 11.1668 8.69097 11.3035 8.65743C11.4403 8.62388 11.559 8.53914 11.6352 8.42068C11.7113 8.30221 11.7391 8.15905 11.7129 8.02069C11.6866 7.88233 11.6083 7.75931 11.494 7.677L11.571 7.6ZM8.7 10.24C8.34135 10.2401 7.99088 10.3471 7.69333 10.5474C7.39579 10.7476 7.16468 11.032 7.02953 11.3642C6.89438 11.6964 6.86132 12.0613 6.93456 12.4124C7.00781 12.7635 7.18405 13.0848 7.44076 13.3353C7.69748 13.5857 8.02302 13.754 8.37581 13.8185C8.7286 13.8831 9.09263 13.841 9.4214 13.6977C9.75017 13.5544 10.0288 13.3163 10.2216 13.0139C10.4144 12.7116 10.5128 12.3585 10.504 12C10.4953 11.5283 10.3011 11.079 9.9634 10.7496C9.62571 10.4201 9.17177 10.237 8.7 10.24ZM15.377 9.371C15.2879 9.256 15.1568 9.18101 15.0124 9.16245C14.8681 9.1439 14.7223 9.18329 14.607 9.272L13.76 9.932V9.712C13.76 9.56613 13.7021 9.42623 13.5989 9.32309C13.4958 9.21994 13.3559 9.162 13.21 9.162C13.0641 9.162 12.9242 9.21994 12.8211 9.32309C12.7179 9.42623 12.66 9.56613 12.66 9.712V14.607C12.66 14.7529 12.7179 14.8928 12.8211 14.9959C12.9242 15.099 13.0641 15.157 13.21 15.157C13.3559 15.157 13.4958 15.099 13.5989 14.9959C13.7021 14.8928 13.76 14.7529 13.76 14.607V11.307L15.3 10.141C15.4117 10.0487 15.4824 9.91601 15.4968 9.77183C15.5112 9.62765 15.4682 9.48361 15.377 9.371ZM17.126 12.671H20.569C20.7149 12.671 20.8548 12.6131 20.9579 12.5099C21.0611 12.4068 21.119 12.2669 21.119 12.121C21.1597 11.3986 20.9207 10.6883 20.4517 10.1374C19.9827 9.58643 19.3196 9.23716 18.6 9.162C17.8624 9.2238 17.1788 9.57353 16.697 10.1355C16.2153 10.6975 15.9743 11.4266 16.026 12.165C15.9832 12.5334 16.0173 12.9066 16.1259 13.2611C16.2346 13.6157 16.4156 13.9439 16.6574 14.225C16.8993 14.5061 17.1967 14.7341 17.5311 14.8945C17.8654 15.0549 18.2294 15.1443 18.6 15.157H20.173C20.3189 15.157 20.4588 15.099 20.5619 14.9959C20.6651 14.8928 20.723 14.7529 20.723 14.607C20.723 14.4611 20.6651 14.3212 20.5619 14.2181C20.4588 14.1149 20.3189 14.057 20.173 14.057H18.6C18.2309 14.0585 17.8747 13.9214 17.6017 13.6729C17.3288 13.4245 17.1591 13.0826 17.126 12.715V12.671Z" fill="black"/>
</svg>
