<svg width="24" height="24" viewBox="0 0 24 24" fill="none" xmlns="http://www.w3.org/2000/svg">
<path d="M16.3538 1.25H7.7C5.98935 1.25 4.34877 1.92955 3.13916 3.13916C1.92955 4.34877 1.25 5.98935 1.25 7.7V16.4075C1.2782 18.0994 1.97019 19.7125 3.17675 20.899C4.38332 22.0855 6.00782 22.7502 7.7 22.75H16.4075C18.0902 22.722 19.6953 22.0375 20.8803 20.8424C22.0652 19.6474 22.7362 18.0366 22.75 16.3538V7.7C22.7501 5.99863 22.0779 4.36614 20.8799 3.15806C19.6819 1.94998 18.0551 1.26418 16.3538 1.25ZM13.2148 17.5578H10.7853C10.5714 17.5578 10.3663 17.4728 10.2151 17.3216C10.0639 17.1704 9.979 16.9653 9.979 16.7515C9.979 16.5377 10.0639 16.3326 10.2151 16.1814C10.3663 16.0302 10.5714 15.9453 10.7853 15.9453H13.2148C13.4286 15.9453 13.6337 16.0302 13.7849 16.1814C13.9361 16.3326 14.021 16.5377 14.021 16.7515C14.021 16.9653 13.9361 17.1704 13.7849 17.3216C13.6337 17.4728 13.4286 17.5578 13.2148 17.5578ZM16.214 12.989H7.786C7.57217 12.989 7.3671 12.9041 7.2159 12.7529C7.06469 12.6017 6.97975 12.3966 6.97975 12.1828C6.97975 11.9689 7.06469 11.7638 7.2159 11.6126C7.3671 11.4614 7.57217 11.3765 7.786 11.3765H16.214C16.4278 11.3765 16.6329 11.4614 16.7841 11.6126C16.9353 11.7638 17.0203 11.9689 17.0203 12.1828C17.0203 12.3966 16.9353 12.6017 16.7841 12.7529C16.6329 12.9041 16.4278 12.989 16.214 12.989ZM18.364 8.42025H5.636C5.42217 8.42025 5.2171 8.33531 5.0659 8.1841C4.91469 8.0329 4.82975 7.82783 4.82975 7.614C4.82975 7.40017 4.91469 7.1951 5.0659 7.0439C5.2171 6.89269 5.42217 6.80775 5.636 6.80775H18.364C18.5778 6.80775 18.7829 6.89269 18.9341 7.0439C19.0853 7.1951 19.1702 7.40017 19.1702 7.614C19.1702 7.82783 19.0853 8.0329 18.9341 8.1841C18.7829 8.33531 18.5778 8.42025 18.364 8.42025Z" fill="black"/>
</svg>
