<svg width="24" height="24" viewBox="0 0 24 24" fill="none" xmlns="http://www.w3.org/2000/svg">
<path d="M14.2847 2.35037L16.3408 5.93481C16.4167 6.07417 16.5218 6.19547 16.6489 6.29037C16.7761 6.38526 16.9223 6.45152 17.0775 6.48457L21.0358 7.38618C21.7202 7.5558 22.3109 7.98705 22.6809 8.58734C23.051 9.18762 23.1709 9.90907 23.0149 10.5968C22.9154 11.0467 22.7079 11.4656 22.4102 11.8173L19.7163 14.9729C19.5168 15.2293 19.4189 15.5504 19.4415 15.8745L19.8373 20.0087C19.9155 20.7098 19.7168 21.4138 19.2834 21.9704C18.85 22.5271 18.2162 22.8924 17.5173 22.9884C17.0658 23.0311 16.611 22.9553 16.1979 22.7685L12.4595 21.0862C12.1635 20.9652 11.8319 20.9652 11.5359 21.0862L7.8305 22.7245C7.50841 22.867 7.16105 22.9436 6.80888 22.9498C6.45672 22.956 6.10689 22.8916 5.78 22.7604C5.45312 22.6292 5.1558 22.434 4.90557 22.1861C4.65535 21.9382 4.45727 21.6428 4.32303 21.3171C4.14364 20.8902 4.0719 20.4258 4.11412 19.9647L4.50995 15.8305C4.52558 15.6695 4.50935 15.5071 4.46218 15.3524C4.41502 15.1977 4.33785 15.0538 4.23507 14.9289L1.55223 11.7733C1.09827 11.2254 0.874418 10.5229 0.927732 9.81343C0.981045 9.10395 1.30738 8.44277 1.83811 7.96892C2.1534 7.6905 2.53022 7.49079 2.93763 7.38618L6.9289 6.49557C7.0771 6.45563 7.21531 6.3851 7.33461 6.28852C7.45391 6.19194 7.55167 6.07145 7.6216 5.93481L9.72168 2.35037C9.8897 2.04477 10.1174 1.77601 10.3912 1.56001C10.6649 1.34401 10.9793 1.18516 11.3156 1.09288C11.6519 1.0006 12.0033 0.976769 12.349 1.02279C12.6947 1.06881 13.0277 1.18375 13.3281 1.3608C13.7257 1.6042 14.0549 1.94473 14.2847 2.35037Z" fill="black"/>
</svg>
