<svg width="24" height="24" viewBox="0 0 24 24" fill="none" xmlns="http://www.w3.org/2000/svg">
<path d="M15.8596 13.1554H21.1451C21.3799 13.1511 21.6127 13.1993 21.8265 13.2966C22.0403 13.3938 22.2297 13.5376 22.3807 13.7174C22.5318 13.8973 22.6408 14.1086 22.6997 14.336C22.7585 14.5634 22.7659 14.801 22.7211 15.0316C22.3533 16.9165 21.4315 18.6488 20.0735 20.0067C18.7156 21.3647 16.9833 22.2865 15.0984 22.6543C14.8705 22.6985 14.6357 22.6918 14.4107 22.6347C14.1857 22.5777 13.9761 22.4716 13.7968 22.3241C13.6176 22.1766 13.4731 21.9913 13.3738 21.7815C13.2745 21.5717 13.2227 21.3426 13.2222 21.1104V15.7928C13.2222 15.0933 13.5001 14.4225 13.9947 13.9279C14.4893 13.4332 15.1601 13.1554 15.8596 13.1554ZM8.14041 13.1554H2.85491C2.62008 13.1511 2.38725 13.1993 2.17346 13.2966C1.95967 13.3938 1.77032 13.5376 1.61925 13.7174C1.46818 13.8973 1.35922 14.1086 1.30034 14.336C1.24145 14.5634 1.23413 14.801 1.27891 15.0316C1.64666 16.9165 2.56851 18.6488 3.92646 20.0067C5.28442 21.3647 7.0167 22.2865 8.9016 22.6543C9.12948 22.6985 9.36432 22.6918 9.58932 22.6347C9.81432 22.5777 10.0239 22.4716 10.2032 22.3241C10.3824 22.1766 10.5269 21.9913 10.6262 21.7815C10.7255 21.5717 10.7773 21.3426 10.7778 21.1104V15.7928C10.7778 15.0933 10.4999 14.4225 10.0053 13.9279C9.51072 13.4332 8.83988 13.1554 8.14041 13.1554ZM20.8556 11.9332C21.1043 11.9314 21.3496 11.8749 21.574 11.7677C21.7983 11.6604 21.9964 11.5051 22.154 11.3127C22.3116 11.1203 22.4249 10.8956 22.4858 10.6545C22.5468 10.4134 22.5539 10.1618 22.5067 9.91761C22.0145 7.49402 20.6997 5.3151 18.7849 3.75003C16.87 2.18495 14.473 1.32999 12 1.32999C9.52695 1.32999 7.12995 2.18495 5.21514 3.75003C3.30032 5.3151 1.98546 7.49402 1.49333 9.91761C1.4461 10.1618 1.45322 10.4134 1.51417 10.6545C1.57513 10.8956 1.68843 11.1203 1.84603 11.3127C2.00362 11.5051 2.20165 11.6604 2.42604 11.7677C2.65043 11.8749 2.89568 11.9314 3.14438 11.9332H20.8556Z" fill="black"/>
</svg>
