<svg width="24" height="24" viewBox="0 0 24 24" fill="none" xmlns="http://www.w3.org/2000/svg">
<path d="M13.7282 11.3189L15.6136 8.67611V11.3627L13.7282 11.3189ZM22.1 4.1472V16.2097C22.1 16.6302 22.0153 17.0465 21.8506 17.435C21.6859 17.8235 21.4445 18.1765 21.1402 18.4738C20.836 18.7712 20.4747 19.007 20.0771 19.168C19.6796 19.3289 19.2535 19.4117 18.8231 19.4117H17.6111C17.2758 19.4109 16.9438 19.4766 16.6352 19.6048C16.3266 19.7329 16.0477 19.9209 15.8156 20.1574L13.7844 22.2409C13.5506 22.4808 13.2694 22.6717 12.9579 22.8022C12.6464 22.9327 12.3109 23 11.972 23C11.633 23 11.2976 22.9327 10.986 22.8022C10.6745 22.6717 10.3933 22.4808 10.1596 22.2409L8.28547 20.1903C8.05322 19.9427 7.77043 19.7455 7.45535 19.6114C7.14027 19.4773 6.79991 19.4093 6.45625 19.4117H5.17691C4.30783 19.4117 3.47434 19.0743 2.8598 18.4738C2.24527 17.8733 1.90002 17.0589 1.90002 16.2097V4.1472C1.91474 3.30751 2.26647 2.50708 2.87942 1.91839C3.49237 1.3297 4.31746 0.999877 5.17691 1H18.8231C19.6826 0.999877 20.5077 1.3297 21.1206 1.91839C21.7336 2.50708 22.0853 3.30751 22.1 4.1472ZM7.43258 12.9199C7.69069 12.6896 8.02736 12.4374 8.37525 12.1742C9.58725 11.2531 10.9564 10.2113 10.9676 8.71997C10.9676 8.02197 10.6838 7.35256 10.1787 6.859C9.67362 6.36544 8.98856 6.08816 8.27425 6.08816C7.55993 6.08816 6.87487 6.36544 6.36977 6.859C5.86467 7.35256 5.58091 8.02197 5.58091 8.71997C5.58091 8.9381 5.66959 9.14729 5.82743 9.30152C5.98528 9.45576 6.19936 9.54241 6.42258 9.54241C6.6458 9.54241 6.85989 9.45576 7.01773 9.30152C7.17557 9.14729 7.26425 8.9381 7.26425 8.71997C7.26425 8.45822 7.37066 8.20719 7.56007 8.02211C7.74948 7.83702 8.00638 7.73304 8.27425 7.73304C8.41017 7.72824 8.5457 7.75002 8.67289 7.7971C8.80008 7.84417 8.91636 7.9156 9.01491 8.00719C9.1895 8.18795 9.28598 8.42756 9.28425 8.67611C9.28425 9.36696 8.16202 10.1894 7.3428 10.8693C6.82016 11.2353 6.3353 11.6504 5.89514 12.1084C5.70272 12.32 5.57696 12.5815 5.53298 12.8613C5.48899 13.1411 5.52865 13.4273 5.64719 13.6856C5.76572 13.9439 5.95809 14.1633 6.20116 14.3173C6.44423 14.4713 6.72766 14.5534 7.01736 14.5538H10.1259C10.3491 14.5538 10.5632 14.4672 10.7211 14.3129C10.8789 14.1587 10.9676 13.9495 10.9676 13.7314C10.9676 13.5132 10.8789 13.3041 10.7211 13.1498C10.5632 12.9956 10.3491 12.9089 10.1259 12.9089L7.43258 12.9199ZM18.565 12.1962C18.565 11.978 18.4764 11.7688 18.3185 11.6146C18.1607 11.4604 17.9466 11.3737 17.7234 11.3737H17.2745V7.53566C17.2796 7.25949 17.1925 6.98921 17.0265 6.76566C16.8605 6.5421 16.6245 6.37743 16.3542 6.29651C16.0847 6.21361 15.7949 6.21792 15.528 6.3088C15.2611 6.39968 15.0314 6.57228 14.8729 6.80094L12 10.946C11.8618 11.1381 11.7812 11.3641 11.7673 11.5985C11.7535 11.833 11.8068 12.0665 11.9215 12.2729C12.028 12.4758 12.1884 12.6469 12.3858 12.7685C12.5832 12.89 12.8104 12.9575 13.0437 12.9638H15.5911V13.6875C15.5897 13.795 15.61 13.9017 15.6511 14.0014C15.6922 14.1011 15.7531 14.1919 15.8304 14.2684C15.9076 14.3449 15.9997 14.4057 16.1012 14.4471C16.2027 14.4886 16.3116 14.51 16.4216 14.5099C16.6429 14.51 16.8553 14.4248 17.0128 14.273C17.1703 14.1211 17.2603 13.9147 17.2632 13.6985V12.9638H17.7234C17.9466 12.9638 18.1607 12.8771 18.3185 12.7229C18.4764 12.5686 18.565 12.3594 18.565 12.1413V12.1962Z" fill="black"/>
</svg>
