<svg width="24" height="24" viewBox="0 0 24 24" fill="none" xmlns="http://www.w3.org/2000/svg">
<path d="M20.1329 11.7198C20.3432 11.931 20.4612 12.2168 20.4612 12.5146C20.4612 12.8124 20.3432 13.0982 20.1329 13.3094C20.028 13.4151 19.9031 13.4989 19.7655 13.5562C19.6279 13.6134 19.4803 13.6429 19.3313 13.6429C19.1822 13.6429 19.0347 13.6134 18.8971 13.5562C18.7595 13.4989 18.6346 13.4151 18.5296 13.3094L17.7506 12.5315L11.4391 18.8222C11.2273 19.033 10.9613 19.1814 10.6705 19.251C10.3796 19.3206 10.0752 19.3088 9.79068 19.2168L7.23899 18.36L2.93725 22.6665C2.83229 22.7722 2.70741 22.8561 2.56982 22.9133C2.43224 22.9705 2.28466 23 2.13561 23C1.98656 23 1.83899 22.9705 1.7014 22.9133C1.56381 22.8561 1.43894 22.7722 1.33398 22.6665C1.22815 22.5617 1.14415 22.437 1.08683 22.2997C1.02951 22.1623 1 22.0149 1 21.8661C1 21.7173 1.02951 21.5699 1.08683 21.4325C1.14415 21.2952 1.22815 21.1705 1.33398 21.0657L5.64701 16.7704L4.78892 14.2226C4.6968 13.9384 4.68495 13.6345 4.75467 13.3441C4.82439 13.0537 4.97298 12.7881 5.18409 12.5766L11.4956 6.27462L10.7165 5.49674C10.6107 5.39193 10.5267 5.26724 10.4694 5.12986C10.412 4.99248 10.3825 4.84513 10.3825 4.69631C10.3825 4.54748 10.412 4.40013 10.4694 4.26275C10.5267 4.12537 10.6107 4.00068 10.7165 3.89588C10.9281 3.6859 11.2142 3.56805 11.5125 3.56805C11.8108 3.56805 12.0969 3.6859 12.3085 3.89588L20.1329 11.7198ZM22.7524 6.98486L17.107 1.26911C17.0295 1.18604 16.936 1.11941 16.8321 1.0732C16.7283 1.02698 16.6161 1.00213 16.5024 1.00013C16.3887 0.998129 16.2758 1.01901 16.1704 1.06154C16.0649 1.10406 15.9691 1.16736 15.8887 1.24765C15.8083 1.32794 15.7449 1.42358 15.7023 1.52886C15.6597 1.63414 15.6388 1.74691 15.6408 1.86044C15.6428 1.97397 15.6677 2.08593 15.714 2.18965C15.7603 2.29337 15.827 2.38671 15.9102 2.46412L17.1522 3.74932L15.4586 5.44037L18.5861 8.56317L20.2797 6.87212L21.5555 8.15732C21.6332 8.2379 21.726 8.3023 21.8287 8.34681C21.9314 8.39132 22.042 8.41504 22.1539 8.41661C22.378 8.41402 22.5923 8.32517 22.7524 8.16859C22.9109 8.01006 23 7.79515 23 7.57109C23 7.34702 22.9109 7.13212 22.7524 6.97359V6.98486Z" fill="black"/>
</svg>
