<svg width="24" height="24" viewBox="0 0 24 24" fill="none" xmlns="http://www.w3.org/2000/svg">
<path d="M8.08494 3.01815V1.88407C8.08442 1.59472 8.19452 1.31612 8.3927 1.10529C8.59087 0.894464 8.86214 0.76736 9.15097 0.75H15.3997C15.6865 0.770125 15.955 0.898435 16.1508 1.10897C16.3466 1.31951 16.4551 1.59656 16.4544 1.88407V3.01815C16.4551 3.30566 16.3466 3.58271 16.1508 3.79324C15.955 4.00378 15.6865 4.13209 15.3997 4.15222H9.15097C8.86214 4.13486 8.59087 4.00775 8.3927 3.79693C8.19452 3.5861 8.08442 3.30749 8.08494 3.01815ZM22.2041 8.85862V17.0466C22.2177 17.8479 22.0732 18.644 21.779 19.3894C21.4848 20.1348 21.0466 20.815 20.4895 21.391C19.9324 21.9671 19.2673 22.4278 18.5321 22.7467C17.797 23.0657 17.0062 23.2367 16.2049 23.25H7.81276C6.19654 23.2291 4.65467 22.5677 3.52563 21.411C2.3966 20.2543 1.77268 18.6969 1.79084 17.0806V8.89264C1.76703 7.41858 2.27578 5.98539 3.22367 4.85626C4.17156 3.72713 5.49496 2.97783 6.95087 2.74597V3.01815C6.9506 3.60809 7.1802 4.17492 7.59096 4.59838C8.00171 5.02184 8.56129 5.26859 9.15097 5.28629H15.3997C15.9874 5.26571 16.5441 5.01769 16.9525 4.59454C17.3608 4.17139 17.5888 3.60619 17.5885 3.01815V2.82535C18.9206 3.17194 20.0986 3.95408 20.935 5.04735C21.7714 6.14061 22.2181 7.48218 22.2041 8.85862ZM15.1275 14.8238L13.4491 13.2021L15.0141 11.4783C15.1917 11.33 15.3059 11.1193 15.3333 10.8895C15.3607 10.6597 15.2993 10.4282 15.1616 10.2422C15.077 10.1374 14.9691 10.0539 14.8465 9.99837C14.7239 9.94281 14.59 9.91674 14.4555 9.92225C14.321 9.92776 14.1897 9.9647 14.072 10.0301C13.9544 10.0955 13.8537 10.1876 13.778 10.2989L12.213 12L10.5686 10.3783C10.5053 10.2846 10.4235 10.2049 10.3283 10.1441C10.2331 10.0832 10.1264 10.0425 10.0149 10.0245C9.90329 10.0064 9.78922 10.0114 9.67966 10.0391C9.57009 10.0667 9.46736 10.1166 9.37778 10.1855C9.19571 10.327 9.07523 10.5334 9.04144 10.7615C9.00764 10.9896 9.06312 11.222 9.19633 11.4103C9.26124 11.4998 9.34195 11.5766 9.43449 11.6371L11.0562 13.1908L9.47985 14.9826C9.32108 15.1492 9.23251 15.3705 9.23251 15.6007C9.23251 15.8308 9.32108 16.0521 9.47985 16.2188C9.5555 16.295 9.64564 16.3554 9.74497 16.3963C9.8443 16.4372 9.95081 16.4578 10.0582 16.4569C10.1764 16.4569 10.2932 16.4316 10.4008 16.3827C10.5084 16.3338 10.6043 16.2624 10.682 16.1734L12.2356 14.4609L13.8914 16.094C14.0473 16.2518 14.2593 16.3415 14.4811 16.3435C14.5976 16.3434 14.7127 16.3179 14.8184 16.269C14.9242 16.22 15.018 16.1487 15.0935 16.06C15.2549 15.8947 15.3453 15.6729 15.3453 15.4419C15.3453 15.2109 15.2549 14.9891 15.0935 14.8238H15.1275Z" fill="black"/>
</svg>
