<svg width="24" height="24" viewBox="0 0 24 24" fill="none" xmlns="http://www.w3.org/2000/svg">
<path d="M15.3923 4.14537H9.15615C8.86791 4.12805 8.59718 4.0012 8.39941 3.7908C8.20163 3.58039 8.09175 3.30235 8.09227 3.01358V1.88179C8.09175 1.59302 8.20163 1.31498 8.39941 1.10458C8.59718 0.894174 8.86791 0.767326 9.15615 0.75H15.3923C15.6786 0.770085 15.9465 0.898136 16.1419 1.10825C16.3373 1.31837 16.4456 1.59486 16.4449 1.88179V3.01358C16.4456 3.30052 16.3373 3.57701 16.1419 3.78712C15.9465 3.99724 15.6786 4.12529 15.3923 4.14537ZM22.1831 8.88758V17.0591C22.2073 18.6751 21.5892 20.2347 20.4645 21.3955C19.3399 22.5562 17.8006 23.2232 16.1846 23.25H7.82064C6.21651 23.2262 4.68632 22.5714 3.56148 21.4275C2.43663 20.2836 1.80768 18.7426 1.81083 17.1383V8.9668C1.78745 7.49701 2.29557 6.06821 3.24172 4.94322C4.18788 3.81823 5.50844 3.07271 6.96048 2.84381V3.10412C6.96012 3.69099 7.1877 4.25505 7.59522 4.67735C8.00273 5.09964 8.55833 5.34717 9.14483 5.36771H15.3923C15.9788 5.34717 16.5344 5.09964 16.9419 4.67735C17.3495 4.25505 17.577 3.69099 17.5767 3.10412V2.92304C18.9062 3.26488 20.0827 4.04283 20.9178 5.13238C21.7529 6.22194 22.1984 7.56014 22.1831 8.93285V8.88758ZM12.9929 16.1876C12.996 15.9584 12.9086 15.7372 12.7497 15.572C12.5908 15.4067 12.3732 15.3108 12.1441 15.3048H6.98312C6.76765 15.3293 6.56875 15.4323 6.42434 15.5941C6.27993 15.7558 6.20011 15.9651 6.20011 16.182C6.20011 16.3988 6.27993 16.6081 6.42434 16.7699C6.56875 16.9316 6.76765 17.0346 6.98312 17.0591H12.1441C12.3628 17.0511 12.5708 16.9622 12.7276 16.8095C12.8845 16.6568 12.979 16.4513 12.9929 16.2329V16.1876ZM17.5201 12.1245C17.5233 11.8991 17.439 11.6811 17.285 11.5165C17.1309 11.3519 16.919 11.2534 16.6939 11.2417H6.98312C6.76765 11.2662 6.56875 11.3692 6.42434 11.5309C6.27993 11.6927 6.20011 11.902 6.20011 12.1188C6.20011 12.3357 6.27993 12.545 6.42434 12.7067C6.56875 12.8685 6.76765 12.9715 6.98312 12.996H16.6486C16.7616 12.9945 16.8731 12.9708 16.9769 12.9262C17.0807 12.8816 17.1747 12.817 17.2535 12.7361C17.3324 12.6551 17.3945 12.5595 17.4363 12.4545C17.4782 12.3496 17.4989 12.2375 17.4975 12.1245V12.0679L17.5201 12.1245Z" fill="black"/>
</svg>
