<svg width="24" height="24" viewBox="0 0 24 24" fill="none" xmlns="http://www.w3.org/2000/svg">
<path d="M15.3718 4.125H9.15053C8.85217 4.125 8.56602 4.00647 8.35504 3.7955C8.14406 3.58452 8.02553 3.29837 8.02553 3V1.875C8.02553 1.57663 8.14406 1.29048 8.35504 1.0795C8.56602 0.868526 8.85217 0.75 9.15053 0.75H15.3718C15.6702 0.75 15.9563 0.868526 16.1673 1.0795C16.3783 1.29048 16.4968 1.57663 16.4968 1.875V3C16.4968 3.29837 16.3783 3.58452 16.1673 3.7955C15.9563 4.00647 15.6702 4.125 15.3718 4.125ZM17.6218 2.82V3C17.6218 3.59674 17.3847 4.16903 16.9628 4.59099C16.5408 5.01295 15.9685 5.25 15.3718 5.25H9.15053C8.5538 5.25 7.9815 5.01295 7.55954 4.59099C7.13759 4.16903 6.90053 3.59674 6.90053 3V2.74125C5.45829 2.98223 4.14933 3.7298 3.20898 4.84956C2.26862 5.96932 1.75858 7.38782 1.77054 8.85V17.0513C1.7495 18.6725 2.37267 20.2358 3.50323 21.398C4.63379 22.5602 6.17933 23.2263 7.80054 23.25H16.193C16.9967 23.2383 17.7903 23.0683 18.5283 22.7499C19.2663 22.4314 19.9344 21.9707 20.4944 21.394C21.0543 20.8174 21.4952 20.136 21.7918 19.389C22.0884 18.6419 22.2349 17.8437 22.223 17.04V8.85C22.2379 7.47585 21.7931 6.13614 20.9595 5.04364C20.1259 3.95114 18.9511 3.16849 17.6218 2.82Z" fill="black"/>
</svg>
