<svg width="24" height="24" viewBox="0 0 24 24" fill="none" xmlns="http://www.w3.org/2000/svg">
<path d="M18.4214 2.94001H9.5277C8.87768 2.93867 8.23487 3.07608 7.64221 3.34306C7.04955 3.61004 6.5207 4.00044 6.091 4.48817L2.13825 8.91306C1.39338 9.76128 0.988107 10.8548 1.00027 11.9836C1.01243 13.1124 1.44116 14.1969 2.20413 15.0288L6.40942 19.5745C6.84349 20.0464 7.37161 20.4221 7.95976 20.6774C8.5479 20.9327 9.18301 21.0619 9.82416 21.0568H18.4653C19.672 21.0452 20.8253 20.5577 21.6745 19.7003C22.5237 18.8429 23.0001 17.6849 23 16.4782V7.51862C23 6.3043 22.5176 5.13971 21.659 4.28105C20.8003 3.4224 19.6357 2.94001 18.4214 2.94001ZM16.8293 13.9199C16.9835 14.0743 17.0701 14.2836 17.0701 14.5018C17.0701 14.72 16.9835 14.9293 16.8293 15.0837C16.7561 15.1614 16.6676 15.2231 16.5693 15.2646C16.471 15.3062 16.3651 15.3269 16.2584 15.3253C16.1477 15.3246 16.0383 15.3019 15.9365 15.2586C15.8348 15.2152 15.7426 15.1521 15.6654 15.0728L13.711 13.0635L11.7456 15.0728C11.6699 15.1505 11.5794 15.2122 11.4795 15.2544C11.3795 15.2965 11.2722 15.3182 11.1637 15.3182C11.0552 15.3182 10.9479 15.2965 10.8479 15.2544C10.748 15.2122 10.6575 15.1505 10.5818 15.0728C10.4276 14.9184 10.3409 14.7091 10.3409 14.4908C10.3409 14.2726 10.4276 14.0633 10.5818 13.9089L12.5691 11.8776L10.5488 9.80243C10.3946 9.64803 10.308 9.43872 10.308 9.2205C10.308 9.00227 10.3946 8.79297 10.5488 8.63856C10.7032 8.48435 10.9125 8.39773 11.1308 8.39773C11.349 8.39773 11.5583 8.48435 11.7127 8.63856L13.6781 10.6369L15.6435 8.70444C15.7977 8.59202 15.9862 8.53666 16.1767 8.54783C16.3673 8.559 16.548 8.636 16.688 8.76567C16.8281 8.89533 16.9187 9.06962 16.9445 9.25873C16.9703 9.44783 16.9296 9.64002 16.8293 9.80243L14.842 11.8447L16.8293 13.9199Z" fill="black"/>
</svg>
