<svg width="24" height="24" viewBox="0 0 24 24" fill="none" xmlns="http://www.w3.org/2000/svg">
<path d="M7.00319 5.39041C7.00552 4.42138 7.3003 3.47477 7.85026 2.67016C8.40022 1.86556 9.18071 1.23906 10.0931 0.869821C11.0055 0.500579 12.0089 0.405158 12.9765 0.595614C13.9441 0.786069 14.8325 1.25385 15.5295 1.93988C16.2265 2.6259 16.7008 3.49937 16.8924 4.44995C17.0841 5.40053 16.9845 6.38557 16.6063 7.28062C16.2282 8.17567 15.5883 8.94057 14.7676 9.4787C13.9469 10.0168 12.9822 10.304 11.9953 10.304C11.3388 10.304 10.6886 10.1769 10.0822 9.92979C9.47574 9.68271 8.92488 9.3206 8.46116 8.86417C7.99745 8.40774 7.62997 7.86598 7.37979 7.2699C7.12961 6.67381 7.00163 6.03513 7.00319 5.39041ZM9.14437 10.6293V12.453C9.14354 12.6485 9.19851 12.8402 9.30307 13.0066C9.40762 13.1729 9.55755 13.3071 9.73586 13.3939L11.5103 14.2652C11.6602 14.3415 11.8265 14.3814 11.9953 14.3814C12.1642 14.3814 12.3305 14.3415 12.4804 14.2652L14.2548 13.3939C14.4331 13.3071 14.5831 13.1729 14.6876 13.0066C14.7922 12.8402 14.8471 12.6485 14.8463 12.453V10.6293C13.9683 11.087 12.9894 11.3263 11.9953 11.3263C11.0013 11.3263 10.0224 11.087 9.14437 10.6293ZM18.8921 12.9525C17.6304 13.2448 16.4483 13.8022 15.4272 14.5863C14.4061 15.3704 13.5702 16.3626 12.9772 17.4944V15.1712C12.6795 15.3165 12.3515 15.3921 12.019 15.3921C11.6865 15.3921 11.3585 15.3165 11.0608 15.1712V17.4944C10.4678 16.3626 9.63194 15.3704 8.61081 14.5863C7.58968 13.8022 6.40756 13.2448 5.14591 12.9525C4.89271 12.8904 4.62751 12.8931 4.37566 12.9603C4.12382 13.0276 3.89374 13.1571 3.70743 13.3366C3.52111 13.516 3.38477 13.7394 3.31146 13.9854C3.23814 14.2313 3.23028 14.4916 3.28864 14.7414C3.71545 16.5023 4.68524 18.0909 6.06565 19.2905C7.44605 20.49 9.16981 21.2421 11.0016 21.4439V22.5242C11.0016 22.783 11.1063 23.0312 11.2927 23.2142C11.479 23.3972 11.7318 23.5 11.9953 23.5C12.2589 23.5 12.5116 23.3972 12.698 23.2142C12.8843 23.0312 12.989 22.783 12.989 22.5242V21.4904C14.8209 21.2885 16.5446 20.5365 17.925 19.3369C19.3054 18.1374 20.2752 16.5487 20.702 14.7879C20.767 14.5396 20.766 14.2792 20.6991 14.0314C20.6323 13.7836 20.5018 13.5569 20.3202 13.3727C20.1387 13.1886 19.912 13.0533 19.662 12.9797C19.4119 12.9061 19.1469 12.8968 18.8921 12.9525Z" fill="black"/>
</svg>
