<svg width="24" height="24" viewBox="0 0 24 24" fill="none" xmlns="http://www.w3.org/2000/svg">
<path d="M21.4588 5.85983H8.84553C8.62487 5.85983 8.41324 5.77217 8.25721 5.61614C8.10118 5.4601 8.01352 5.24848 8.01352 5.02782C8.01352 4.80715 8.10118 4.59553 8.25721 4.4395C8.41324 4.28347 8.62487 4.19581 8.84553 4.19581H21.4588C21.6794 4.19581 21.8911 4.28347 22.0471 4.4395C22.2031 4.59553 22.2908 4.80715 22.2908 5.02782C22.2908 5.24848 22.2031 5.4601 22.0471 5.61614C21.8911 5.77217 21.6794 5.85983 21.4588 5.85983ZM16.5666 10.5745C16.5666 10.3539 16.4789 10.1423 16.3229 9.98622C16.1669 9.83019 15.9552 9.74253 15.7346 9.74253H8.84553C8.62487 9.74253 8.41324 9.83019 8.25721 9.98622C8.10118 10.1423 8.01352 10.3539 8.01352 10.5745C8.01352 10.7952 8.10118 11.0068 8.25721 11.1629C8.41324 11.3189 8.62487 11.4066 8.84553 11.4066H15.7346C15.9543 11.4037 16.1643 11.3151 16.3197 11.1597C16.4751 11.0043 16.5637 10.7943 16.5666 10.5745ZM22.2908 16.1213C22.2908 15.9006 22.2031 15.689 22.0471 15.5329C21.8911 15.3769 21.6794 15.2893 21.4588 15.2893H8.84553C8.62487 15.2893 8.41324 15.3769 8.25721 15.5329C8.10118 15.689 8.01352 15.9006 8.01352 16.1213C8.01352 16.3419 8.10118 16.5536 8.25721 16.7096C8.41324 16.8656 8.62487 16.9533 8.84553 16.9533H21.4588C21.6786 16.9504 21.8885 16.8618 22.0439 16.7064C22.1993 16.551 22.2879 16.341 22.2908 16.1213ZM16.5666 21.668C16.5666 21.4473 16.4789 21.2357 16.3229 21.0797C16.1669 20.9236 15.9552 20.836 15.7346 20.836H8.84553C8.62487 20.836 8.41324 20.9236 8.25721 21.0797C8.10118 21.2357 8.01352 21.4473 8.01352 21.668C8.01352 21.8887 8.10118 22.1003 8.25721 22.2563C8.41324 22.4123 8.62487 22.5 8.84553 22.5H15.7346C15.9543 22.4971 16.1643 22.4085 16.3197 22.2531C16.4751 22.0977 16.5637 21.8878 16.5666 21.668ZM5.24016 7.70134V2.3432C5.24252 2.16763 5.18928 1.99581 5.08804 1.85233C4.98681 1.70886 4.84278 1.6011 4.67657 1.54446C4.51037 1.48783 4.3305 1.48523 4.16273 1.53704C3.99496 1.58885 3.84788 1.69242 3.74254 1.8329L1.87884 4.24018C1.74203 4.41377 1.67978 4.6346 1.70579 4.85408C1.73179 5.07357 1.84392 5.27373 2.01751 5.41054C2.1911 5.54735 2.41193 5.6096 2.63141 5.5836C2.8509 5.55759 3.05106 5.44546 3.18787 5.27187L3.57614 4.78376V7.70134C3.57614 7.922 3.6638 8.13363 3.81983 8.28966C3.97586 8.44569 4.18749 8.53335 4.40815 8.53335C4.62881 8.53335 4.84044 8.44569 4.99647 8.28966C5.1525 8.13363 5.24016 7.922 5.24016 7.70134ZM6.3495 18.7948C6.3495 18.5741 6.26185 18.3625 6.10581 18.2065C5.94978 18.0504 5.73816 17.9628 5.51749 17.9628H4.40815L5.99451 15.2893C6.07169 15.162 6.11379 15.0165 6.11654 14.8677C6.18638 14.5441 6.1829 14.2089 6.10635 13.8868C6.02981 13.5646 5.88214 13.2637 5.67417 13.0061C5.46621 12.7485 5.20322 12.5407 4.90449 12.3979C4.60576 12.2551 4.27887 12.181 3.94777 12.181C3.61668 12.181 3.28978 12.2551 2.99105 12.3979C2.69232 12.5407 2.42933 12.7485 2.22137 13.0061C2.0134 13.2637 1.86573 13.5646 1.78919 13.8868C1.71264 14.2089 1.70916 14.5441 1.779 14.8677C1.779 15.0884 1.86666 15.3 2.02269 15.456C2.17872 15.6121 2.39035 15.6997 2.61101 15.6997C2.83167 15.6997 3.0433 15.6121 3.19933 15.456C3.35536 15.3 3.44302 15.0884 3.44302 14.8677C3.44299 14.7343 3.49523 14.6061 3.58854 14.5107C3.68185 14.4154 3.80882 14.3603 3.94222 14.3574C4.04692 14.3544 4.14982 14.3851 4.23572 14.445C4.32162 14.5049 4.38596 14.5909 4.41924 14.6902L2.20055 18.3732C2.12411 18.4985 2.08367 18.6425 2.08367 18.7892C2.08367 18.936 2.12411 19.08 2.20055 19.2052C2.2711 19.3344 2.3755 19.4419 2.50255 19.5162C2.62959 19.5904 2.77448 19.6287 2.92163 19.6268H5.46203C5.57559 19.6286 5.68829 19.6068 5.793 19.5628C5.89771 19.5188 5.99216 19.4536 6.07036 19.3712C6.14856 19.2888 6.20881 19.1911 6.24731 19.0843C6.28582 18.9774 6.30173 18.8637 6.29404 18.7504L6.3495 18.7948Z" fill="black"/>
</svg>
