<svg width="24" height="24" viewBox="0 0 24 24" fill="none" xmlns="http://www.w3.org/2000/svg">
<path d="M16.3538 1.25H7.7C5.99863 1.24994 4.36614 1.92211 3.15806 3.12012C1.94998 4.31813 1.26418 5.94494 1.25 7.64625V16.3538C1.26418 18.0551 1.94998 19.6819 3.15806 20.8799C4.36614 22.0779 5.99863 22.7501 7.7 22.75H16.4075C18.0902 22.722 19.6953 22.0375 20.8803 20.8424C22.0652 19.6474 22.7362 18.0366 22.75 16.3538V7.64625C22.736 5.9542 22.0576 4.33544 20.8611 3.13894C19.6646 1.94244 18.0458 1.26404 16.3538 1.25ZM15.5045 7.94725H13.5373L12.0968 16.687H13.9673C14.1811 16.687 14.3862 16.7719 14.5374 16.9231C14.6886 17.0743 14.7735 17.2794 14.7735 17.4932C14.7735 17.7071 14.6886 17.9122 14.5374 18.0634C14.3862 18.2146 14.1811 18.2995 13.9673 18.2995H8.65675C8.44292 18.2995 8.23785 18.2146 8.08665 18.0634C7.93544 17.9122 7.8505 17.7071 7.8505 17.4932C7.8505 17.2794 7.93544 17.0743 8.08665 16.9231C8.23785 16.7719 8.44292 16.687 8.65675 16.687H10.4628L11.9033 7.94725H10.194C9.98017 7.94725 9.7751 7.86231 9.6239 7.71111C9.47269 7.5599 9.38775 7.35483 9.38775 7.141C9.38775 6.92717 9.47269 6.7221 9.6239 6.5709C9.7751 6.41969 9.98017 6.33475 10.194 6.33475H15.5045C15.7183 6.33475 15.9234 6.41969 16.0746 6.5709C16.2258 6.7221 16.3108 6.92717 16.3108 7.141C16.3108 7.35483 16.2258 7.5599 16.0746 7.71111C15.9234 7.86231 15.7183 7.94725 15.5045 7.94725Z" fill="black"/>
</svg>
