<svg width="24" height="24" viewBox="0 0 24 24" fill="none" xmlns="http://www.w3.org/2000/svg">
<path d="M16.3538 1.25H7.7C5.98935 1.25 4.34877 1.92955 3.13916 3.13916C1.92955 4.34877 1.25 5.98935 1.25 7.7V16.4075C1.2782 18.0994 1.97019 19.7125 3.17675 20.899C4.38332 22.0855 6.00782 22.7502 7.7 22.75H16.4075C18.0902 22.722 19.6953 22.0375 20.8803 20.8424C22.0652 19.6474 22.7362 18.0366 22.75 16.3538V7.7C22.7501 5.99863 22.0779 4.36614 20.8799 3.15806C19.6819 1.94998 18.0551 1.26418 16.3538 1.25ZM15.8055 19.052H8.1945C7.98067 19.052 7.7756 18.9671 7.6244 18.8159C7.47319 18.6647 7.38825 18.4596 7.38825 18.2458C7.38825 18.0319 7.47319 17.8268 7.6244 17.6756C7.7756 17.5244 7.98067 17.4395 8.1945 17.4395H15.8055C16.0193 17.4395 16.2244 17.5244 16.3756 17.6756C16.5268 17.8268 16.6118 18.0319 16.6118 18.2458C16.6118 18.4596 16.5268 18.6647 16.3756 18.8159C16.2244 18.9671 16.0193 19.052 15.8055 19.052ZM16.6118 11.0433C16.6523 12.3075 16.1894 13.5362 15.3247 14.4593C14.46 15.3825 13.2642 15.9247 12 15.9668C10.7358 15.9247 9.54 15.3825 8.67529 14.4593C7.81058 13.5362 7.34767 12.3075 7.38825 11.0433V5.7435C7.38825 5.52967 7.47319 5.3246 7.6244 5.1734C7.7756 5.02219 7.98067 4.93725 8.1945 4.93725C8.40833 4.93725 8.6134 5.02219 8.7646 5.1734C8.91581 5.3246 9.00075 5.52967 9.00075 5.7435V11.0433C8.97653 11.8756 9.27519 12.685 9.83422 13.3022C10.3933 13.9193 11.1693 14.2963 12 14.3542C12.8307 14.2963 13.6067 13.9193 14.1658 13.3022C14.7248 12.685 15.0235 11.8756 14.9993 11.0433V5.7435C14.9993 5.52967 15.0842 5.3246 15.2354 5.1734C15.3866 5.02219 15.5917 4.93725 15.8055 4.93725C16.0193 4.93725 16.2244 5.02219 16.3756 5.1734C16.5268 5.3246 16.6118 5.52967 16.6118 5.7435V11.0433Z" fill="black"/>
</svg>
