<svg width="24" height="24" viewBox="0 0 24 24" fill="none" xmlns="http://www.w3.org/2000/svg">
<path d="M12.8493 10.925H8.54925V7.7H12.8493C13.2448 7.74575 13.6098 7.93532 13.8747 8.23264C14.1396 8.52996 14.286 8.91428 14.286 9.3125C14.286 9.71072 14.1396 10.095 13.8747 10.3924C13.6098 10.6897 13.2448 10.8792 12.8493 10.925ZM13.5265 12.5375H8.52775V16.4183H13.5265C13.7935 16.4381 14.0616 16.4027 14.3143 16.3142C14.5669 16.2257 14.7986 16.086 14.9948 15.9039C15.191 15.7218 15.3475 15.5011 15.4545 15.2558C15.5615 15.0104 15.6168 14.7456 15.6168 14.4779C15.6168 14.2102 15.5615 13.9454 15.4545 13.7C15.3475 13.4546 15.191 13.234 14.9948 13.0518C14.7986 12.8697 14.5669 12.73 14.3143 12.6415C14.0616 12.553 13.7935 12.5176 13.5265 12.5375ZM22.75 7.7V16.4075C22.722 18.0902 22.0375 19.6953 20.8424 20.8803C19.6474 22.0652 18.0366 22.7362 16.3538 22.75H7.7C5.99863 22.7501 4.36614 22.0779 3.15806 20.8799C1.94998 19.6819 1.26418 18.0551 1.25 16.3538V7.7C1.25 5.98935 1.92955 4.34877 3.13916 3.13916C4.34877 1.92955 5.98935 1.25 7.7 1.25H16.4075C18.0994 1.2782 19.7125 1.97019 20.899 3.17675C22.0855 4.38332 22.7502 6.00782 22.75 7.7ZM17.0848 14.4833C17.0838 13.8551 16.9161 13.2386 16.5988 12.6965C16.2815 12.1544 15.826 11.7063 15.2788 11.398C15.8046 10.8067 16.0886 10.0391 16.0743 9.248C16.0743 8.39268 15.7345 7.57239 15.1297 6.96758C14.5249 6.36278 13.7046 6.023 12.8493 6.023H7.7C7.48617 6.023 7.2811 6.10794 7.1299 6.25915C6.97869 6.41035 6.89375 6.61542 6.89375 6.82925V17.1815C6.8923 17.2878 6.91217 17.3933 6.95218 17.4917C6.99218 17.5902 7.05152 17.6797 7.12667 17.7548C7.20183 17.83 7.29129 17.8893 7.38976 17.9293C7.48823 17.9693 7.59372 17.9892 7.7 17.9878H13.505C13.9741 17.9906 14.4391 17.9006 14.8733 17.7231C15.3075 17.5455 15.7023 17.2839 16.035 16.9532C16.3677 16.6225 16.6317 16.2293 16.8119 15.7962C16.992 15.3631 17.0848 14.8986 17.0848 14.4295V14.4833Z" fill="black"/>
</svg>
