<svg width="24" height="24" viewBox="0 0 24 24" fill="none" xmlns="http://www.w3.org/2000/svg">
<path d="M21.6181 4.55345H2.32677C2.1075 4.55345 1.89721 4.46634 1.74216 4.31129C1.58711 4.15624 1.5 3.94595 1.5 3.72667C1.5 3.5074 1.58711 3.29711 1.74216 3.14206C1.89721 2.98701 2.1075 2.8999 2.32677 2.8999H21.6181C21.8374 2.8999 22.0477 2.98701 22.2027 3.14206C22.3578 3.29711 22.4449 3.5074 22.4449 3.72667C22.4449 3.94595 22.3578 4.15624 22.2027 4.31129C22.0477 4.46634 21.8374 4.55345 21.6181 4.55345ZM13.6811 9.23848C13.6811 9.01921 13.594 8.80892 13.4389 8.65387C13.2839 8.49882 13.0736 8.41171 12.8543 8.41171H2.32677C2.1075 8.41171 1.89721 8.49882 1.74216 8.65387C1.58711 8.80892 1.5 9.01921 1.5 9.23848C1.5 9.45776 1.58711 9.66805 1.74216 9.8231C1.89721 9.97815 2.1075 10.0653 2.32677 10.0653H12.8543C13.0736 10.0653 13.2839 9.97815 13.4389 9.8231C13.594 9.66805 13.6811 9.45776 13.6811 9.23848ZM22.5 14.7503C22.5 14.531 22.4129 14.3207 22.2578 14.1657C22.1028 14.0106 21.8925 13.9235 21.6732 13.9235H2.32677C2.1075 13.9235 1.89721 14.0106 1.74216 14.1657C1.58711 14.3207 1.5 14.531 1.5 14.7503C1.5 14.9696 1.58711 15.1799 1.74216 15.3349C1.89721 15.49 2.1075 15.5771 2.32677 15.5771H21.6181C21.8374 15.5771 22.0477 15.49 22.2027 15.3349C22.3578 15.1799 22.4449 14.9696 22.4449 14.7503H22.5ZM13.7362 20.2621C13.7362 20.0428 13.6491 19.8325 13.4941 19.6775C13.339 19.5224 13.1287 19.4353 12.9094 19.4353H2.32677C2.1075 19.4353 1.89721 19.5224 1.74216 19.6775C1.58711 19.8325 1.5 20.0428 1.5 20.2621C1.5 20.4814 1.58711 20.6917 1.74216 20.8467C1.89721 21.0018 2.1075 21.0889 2.32677 21.0889H12.8543C13.0736 21.0889 13.2839 21.0018 13.4389 20.8467C13.594 20.6917 13.6811 20.4814 13.6811 20.2621H13.7362Z" fill="black"/>
</svg>
