<svg width="24" height="24" viewBox="0 0 24 24" fill="none" xmlns="http://www.w3.org/2000/svg">
<path d="M21.6393 4.55518H2.32764C2.10814 4.55518 1.89762 4.46799 1.74241 4.31277C1.5872 4.15756 1.5 3.94705 1.5 3.72754C1.5 3.50804 1.5872 3.29753 1.74241 3.14231C1.89762 2.9871 2.10814 2.8999 2.32764 2.8999H21.6393C21.8588 2.8999 22.0693 2.9871 22.2245 3.14231C22.3797 3.29753 22.4669 3.50804 22.4669 3.72754C22.4669 3.94705 22.3797 4.15756 22.2245 4.31277C22.0693 4.46799 21.8588 4.55518 21.6393 4.55518ZM18.0859 9.24515C18.0831 9.02653 17.9949 8.81767 17.8403 8.66308C17.6857 8.50848 17.4769 8.42036 17.2583 8.41751H6.70862C6.48911 8.41751 6.2786 8.5047 6.12339 8.65992C5.96817 8.81513 5.88098 9.02564 5.88098 9.24515C5.88098 9.46465 5.96817 9.67516 6.12339 9.83038C6.2786 9.98559 6.48911 10.0728 6.70862 10.0728H17.2583C17.4769 10.0699 17.6857 9.98181 17.8403 9.82722C17.9949 9.67262 18.0831 9.46376 18.0859 9.24515ZM22.5 14.7628C22.5 14.5432 22.4128 14.3327 22.2576 14.1775C22.1024 14.0223 21.8919 13.9351 21.6724 13.9351H2.32764C2.10814 13.9351 1.89762 14.0223 1.74241 14.1775C1.5872 14.3327 1.5 14.5432 1.5 14.7628C1.5 14.9823 1.5872 15.1928 1.74241 15.348C1.89762 15.5032 2.10814 15.5904 2.32764 15.5904H21.6393C21.8588 15.5904 22.0693 15.5032 22.2245 15.348C22.3797 15.1928 22.4669 14.9823 22.4669 14.7628H22.5ZM18.0859 20.2804C18.0831 20.0617 17.9949 19.8529 17.8403 19.6983C17.6857 19.5437 17.4769 19.4556 17.2583 19.4527H6.70862C6.48911 19.4527 6.2786 19.5399 6.12339 19.6951C5.96817 19.8503 5.88098 20.0609 5.88098 20.2804C5.88098 20.4999 5.96817 20.7104 6.12339 20.8656C6.2786 21.0208 6.48911 21.108 6.70862 21.108H17.2583C17.4769 21.1051 17.6857 21.017 17.8403 20.8624C17.9949 20.7078 18.0831 20.499 18.0859 20.2804Z" fill="black"/>
</svg>
