<svg width="24" height="24" viewBox="0 0 24 24" fill="none" xmlns="http://www.w3.org/2000/svg">
<path d="M19.6107 4.96096H14.1003V19.9473C14.1586 20.6376 13.9522 21.3241 13.523 21.8678C13.332 22.0791 13.0963 22.2452 12.8331 22.3541C12.5699 22.463 12.2858 22.512 12.0013 22.4975C11.7189 22.5075 11.4377 22.4565 11.1769 22.3478C10.9161 22.2391 10.6818 22.0754 10.4901 21.8678C10.0609 21.3237 9.85119 20.6385 9.90239 19.9473V4.96096H4.37096C3.79913 5.00622 3.23081 4.83796 2.77578 4.4887C2.60316 4.33089 2.46685 4.13751 2.37625 3.92189C2.28566 3.70628 2.24294 3.47357 2.25104 3.23983C2.24245 3.00099 2.28695 2.76321 2.38131 2.54363C2.47568 2.32404 2.61757 2.12812 2.79677 1.96998C3.24987 1.63371 3.80801 1.46998 4.37096 1.50821H19.6107C20.1878 1.45908 20.762 1.63171 21.2164 1.99097C21.3926 2.14642 21.532 2.33913 21.6246 2.55513C21.7172 2.77112 21.7606 3.00501 21.7516 3.23983C21.7606 3.47466 21.7172 3.70854 21.6246 3.92454C21.532 4.14053 21.3926 4.33324 21.2164 4.4887C20.7568 4.83688 20.1856 5.00486 19.6107 4.96096Z" fill="black"/>
</svg>
