<svg width="24" height="24" viewBox="0 0 24 24" fill="none" xmlns="http://www.w3.org/2000/svg">
<path d="M7.10835 20.0123L4.77813 22.3535C4.36418 22.7674 3.80274 23 3.21733 23C2.63191 23 2.07047 22.7674 1.65652 22.3535C1.24257 21.9395 1.01001 21.3781 1.01001 20.7927C1.01001 20.2073 1.24257 19.6458 1.65652 19.2319L3.99773 16.8907L7.10835 20.0123ZM22.6835 5.20659C21.7355 3.60292 20.4017 2.26161 18.8034 1.30457C18.3743 1.05157 17.8719 0.951852 17.3786 1.02175C16.8854 1.09164 16.4305 1.32701 16.0885 1.68927L15.6928 2.12894L21.8921 8.31721L22.2768 7.9325C22.6452 7.59259 22.8864 7.13698 22.9603 6.64119C23.0343 6.14541 22.9366 5.63923 22.6835 5.20659ZM11.2632 6.52558C10.5775 7.20852 9.99272 7.98575 9.52651 8.83382L7.0424 13.2854C6.56962 14.1259 5.98544 14.8986 5.30573 15.5827L4.76714 16.1213L7.88876 19.2319L8.41636 18.7043C9.10431 18.0244 9.8807 17.4402 10.7246 16.9676L15.1982 14.4835C16.0405 14.0135 16.8136 13.429 17.4954 12.7468L21.1446 9.09761L14.9124 2.85438L11.2632 6.52558ZM16.4622 5.99798L18.034 7.55879C18.137 7.66097 18.2188 7.78254 18.2746 7.91648C18.3304 8.05043 18.3591 8.19409 18.3591 8.33919C18.3591 8.48429 18.3304 8.62796 18.2746 8.7619C18.2188 8.89585 18.137 9.01742 18.034 9.1196L14.9014 12.2412C14.6955 12.4459 14.4169 12.5608 14.1265 12.5608C13.8361 12.5608 13.5575 12.4459 13.3516 12.2412L11.7908 10.6804C11.6878 10.5782 11.606 10.4567 11.5502 10.3227C11.4944 10.1888 11.4656 10.0451 11.4656 9.9C11.4656 9.7549 11.4944 9.61123 11.5502 9.47729C11.606 9.34335 11.6878 9.22178 11.7908 9.1196L14.9124 5.976C15.1183 5.77128 15.3969 5.65637 15.6873 5.65637C15.9777 5.65637 16.2563 5.77128 16.4622 5.976V5.99798Z" fill="black"/>
</svg>
