<svg width="24" height="24" viewBox="0 0 24 24" fill="none" xmlns="http://www.w3.org/2000/svg">
<path d="M12 1.25C9.87385 1.25 7.79545 1.88048 6.02762 3.0617C4.2598 4.24293 2.88194 5.92185 2.0683 7.88615C1.25466 9.85046 1.04177 12.0119 1.45656 14.0972C1.87135 16.1825 2.89519 18.098 4.39861 19.6014C5.90202 21.1048 7.81749 22.1286 9.90278 22.5434C11.9881 22.9582 14.1495 22.7453 16.1138 21.9317C18.0782 21.1181 19.7571 19.7402 20.9383 17.9724C22.1195 16.2045 22.75 14.1261 22.75 12C22.75 10.5883 22.4719 9.1904 21.9317 7.88615C21.3915 6.5819 20.5996 5.39683 19.6014 4.3986C18.6032 3.40037 17.4181 2.60853 16.1138 2.06829C14.8096 1.52806 13.4117 1.25 12 1.25ZM16.3 12.7955H12C11.7833 12.7955 11.5755 12.7094 11.4223 12.5562C11.2691 12.403 11.183 12.1952 11.183 11.9785V5.937C11.183 5.72032 11.2691 5.51251 11.4223 5.35929C11.5755 5.20608 11.7833 5.12 12 5.12C12.2167 5.12 12.4245 5.20608 12.5777 5.35929C12.7309 5.51251 12.817 5.72032 12.817 5.937V11.183H16.3C16.5167 11.183 16.7245 11.2691 16.8777 11.4223C17.0309 11.5755 17.117 11.7833 17.117 12C17.117 12.2167 17.0309 12.4245 16.8777 12.5777C16.7245 12.7309 16.5167 12.817 16.3 12.817V12.7955Z" fill="black"/>
</svg>
