<svg width="24" height="24" viewBox="0 0 24 24" fill="none" xmlns="http://www.w3.org/2000/svg">
<path d="M19.0687 15.5141L7.27434 21.8862C6.80722 22.1362 6.2834 22.2613 5.75371 22.2492C5.22402 22.2371 4.70644 22.0883 4.2512 21.8173C3.79596 21.5462 3.41851 21.1621 3.15548 20.7022C2.89245 20.2422 2.75277 19.7221 2.75 19.1923V4.82494C2.7498 4.29366 2.88731 3.77139 3.14912 3.30909C3.41092 2.84679 3.78809 2.46024 4.24382 2.18715C4.69955 1.91406 5.21828 1.76376 5.74941 1.7509C6.28054 1.73804 6.80593 1.86307 7.27434 2.11379L19.0687 8.39951C19.7258 8.73291 20.2777 9.24177 20.6632 9.86968C21.0487 10.4976 21.2528 11.22 21.2528 11.9568C21.2528 12.6936 21.0487 13.416 20.6632 14.044C20.2777 14.6719 19.7258 15.1807 19.0687 15.5141Z" fill="black"/>
</svg>
