<svg width="24" height="24" viewBox="0 0 24 24" fill="none" xmlns="http://www.w3.org/2000/svg">
<path d="M18.8087 3H5.69124C5.07328 2.99999 4.46141 3.12208 3.89077 3.35924C3.32013 3.5964 2.80197 3.94397 2.36606 4.38197C1.93014 4.81998 1.58506 5.3398 1.35063 5.91156C1.1162 6.48333 0.997044 7.09578 1.00001 7.71373V16.7137C1.00001 17.9579 1.49426 19.1511 2.37404 20.0309C3.25381 20.9107 4.44705 21.4049 5.69124 21.4049H18.8087C20.0529 21.4049 21.2461 20.9107 22.1259 20.0309C23.0056 19.1511 23.4999 17.9579 23.4999 16.7137V7.71373C23.5029 7.09578 23.3837 6.48333 23.1493 5.91156C22.9149 5.3398 22.5698 4.81998 22.1339 4.38197C21.6979 3.94397 21.1798 3.5964 20.6091 3.35924C20.0385 3.12208 19.4266 2.99999 18.8087 3ZM19.8324 14.0474C19.8324 14.4168 19.7597 14.7825 19.6183 15.1237C19.477 15.465 19.2698 15.775 19.0087 16.0362C18.7475 16.2973 18.4375 16.5045 18.0962 16.6458C17.755 16.7872 17.3893 16.8599 17.0199 16.8599H12.7112C11.9653 16.8599 11.2499 16.5636 10.7225 16.0362C10.195 15.5087 9.89872 14.7934 9.89872 14.0474V9.96372C9.89872 9.2178 10.195 8.50243 10.7225 7.97499C11.2499 7.44755 11.9653 7.15123 12.7112 7.15123H17.0199C17.7658 7.15123 18.4812 7.44755 19.0087 7.97499C19.5361 8.50243 19.8324 9.2178 19.8324 9.96372V14.0474Z" fill="black"/>
</svg>
