<svg width="24" height="24" viewBox="0 0 24 24" fill="none" xmlns="http://www.w3.org/2000/svg">
<path d="M18.5587 2.80005H5.44128C4.82332 2.80004 4.21145 2.92213 3.64081 3.15929C3.07018 3.39645 2.55202 3.74402 2.1161 4.18202C1.68019 4.62003 1.3351 5.13985 1.10067 5.71161C0.866245 6.28338 0.74709 6.89582 0.750054 7.51378V16.5137C0.750054 17.7579 1.24431 18.9512 2.12408 19.8309C3.00386 20.7107 4.19709 21.205 5.44128 21.205H18.5587C19.8029 21.205 20.9961 20.7107 21.8759 19.8309C22.7557 18.9512 23.2499 17.7579 23.2499 16.5137V7.51378C23.2529 6.89582 23.1338 6.28338 22.8993 5.71161C22.6649 5.13985 22.3198 4.62003 21.8839 4.18202C21.448 3.74402 20.9298 3.39645 20.3592 3.15929C19.7885 2.92213 19.1767 2.80004 18.5587 2.80005ZM14.3512 13.8475C14.3512 14.2168 14.2785 14.5826 14.1372 14.9238C13.9958 15.265 13.7886 15.5751 13.5275 15.8362C13.2663 16.0974 12.9563 16.3046 12.615 16.4459C12.2738 16.5872 11.9081 16.66 11.5388 16.66H7.23002C6.48411 16.66 5.76874 16.3637 5.24129 15.8362C4.71385 15.3088 4.41754 14.5934 4.41754 13.8475V9.76377C4.41754 9.01785 4.71385 8.30248 5.24129 7.77504C5.76874 7.24759 6.48411 6.95128 7.23002 6.95128H11.5388C12.2847 6.95128 13 7.24759 13.5275 7.77504C14.0549 8.30248 14.3512 9.01785 14.3512 9.76377V13.8475Z" fill="black"/>
</svg>
