<svg width="24" height="24" viewBox="0 0 24 24" fill="none" xmlns="http://www.w3.org/2000/svg">
<path d="M16.3538 1.25H7.7C5.98935 1.25 4.34877 1.92955 3.13916 3.13916C1.92955 4.34877 1.25 5.98935 1.25 7.7V16.4075C1.2782 18.0994 1.97019 19.7125 3.17675 20.899C4.38332 22.0855 6.00782 22.7502 7.7 22.75H16.4075C18.0902 22.722 19.6953 22.0375 20.8803 20.8424C22.0652 19.6474 22.7362 18.0366 22.75 16.3538V7.7C22.7501 5.99863 22.0779 4.36614 20.8799 3.15806C19.6819 1.94998 18.0551 1.26418 16.3538 1.25ZM15.87 16.7623C15.817 17.124 15.6314 17.453 15.3493 17.6855C15.0672 17.918 14.7087 18.0372 14.3435 18.02H9.77475C9.40421 18.0455 9.0377 17.9301 8.74865 17.6969C8.4596 17.4637 8.26934 17.1298 8.216 16.7623L7.77525 11.2798C7.77651 11.195 7.79502 11.1115 7.82966 11.0341C7.86429 10.9568 7.91432 10.8874 7.9767 10.83C8.03907 10.7727 8.11248 10.7286 8.19244 10.7006C8.27239 10.6726 8.35722 10.6611 8.44175 10.667H15.5583C15.6428 10.6611 15.7276 10.6726 15.8076 10.7006C15.8875 10.7286 15.9609 10.7727 16.0233 10.83C16.0857 10.8874 16.1357 10.9568 16.1703 11.0341C16.205 11.1115 16.2235 11.195 16.2248 11.2798L15.87 16.7623ZM16.945 9.43075H16.8268C13.6171 8.98619 10.3614 8.98619 7.15175 9.43075C7.04726 9.4493 6.94014 9.44703 6.83653 9.42409C6.73292 9.40115 6.63486 9.35798 6.54797 9.29706C6.46108 9.23614 6.38708 9.15866 6.33019 9.06907C6.27331 8.97949 6.23468 8.87955 6.2165 8.775C6.19812 8.67038 6.20088 8.56313 6.22462 8.45959C6.24835 8.35605 6.29259 8.25831 6.35471 8.17214C6.41683 8.08597 6.49558 8.01312 6.58632 7.95787C6.67705 7.90263 6.77793 7.86612 6.883 7.8505C7.80857 7.70201 8.74167 7.60511 9.678 7.56025L9.85 6.625C9.87422 6.34803 9.99526 6.08845 10.1919 5.89185C10.3884 5.69526 10.648 5.57422 10.925 5.55H13.075C13.352 5.57422 13.6116 5.69526 13.8081 5.89185C14.0047 6.08845 14.1258 6.34803 14.15 6.625L14.2898 7.49575C15.182 7.5495 16.1172 7.6355 17.074 7.77525C17.2856 7.80967 17.4752 7.92589 17.6019 8.09884C17.7286 8.27179 17.7822 8.48761 17.7513 8.69975C17.7356 8.89391 17.6492 9.07558 17.5086 9.21031C17.3679 9.34505 17.1827 9.42348 16.988 9.43075H16.945Z" fill="black"/>
</svg>
