<svg width="24" height="24" viewBox="0 0 24 24" fill="none" xmlns="http://www.w3.org/2000/svg">
<path d="M18.3133 7.69981H5.6717C5.50711 7.69637 5.34362 7.72735 5.19169 7.79075C5.03976 7.85414 4.90274 7.94857 4.7894 8.06797C4.67607 8.18738 4.58892 8.32913 4.53353 8.48416C4.47814 8.63919 4.45573 8.80408 4.46774 8.96827L5.23097 20.1909C5.2805 20.8961 5.59952 21.5552 6.12188 22.0315C6.64424 22.5078 7.32987 22.7649 8.03663 22.7493L16.1526 22.6526C16.8497 22.6427 17.517 22.3687 18.0198 21.8858C18.5227 21.403 18.8235 20.7473 18.8615 20.0512L19.5173 8.95752C19.5277 8.79419 19.5041 8.63048 19.4481 8.47674C19.392 8.323 19.3046 8.18257 19.1914 8.06435C19.0782 7.94613 18.9418 7.85269 18.7906 7.78994C18.6395 7.72719 18.4769 7.6965 18.3133 7.69981ZM13.5512 17.697H10.4338C10.22 17.697 10.0149 17.6121 9.86372 17.4609C9.71252 17.3097 9.62758 17.1046 9.62758 16.8908C9.62758 16.6769 9.71252 16.4719 9.86372 16.3207C10.0149 16.1695 10.22 16.0845 10.4338 16.0845H13.5512C13.765 16.0845 13.9701 16.1695 14.1213 16.3207C14.2725 16.4719 14.3574 16.6769 14.3574 16.8908C14.3574 17.1046 14.2725 17.3097 14.1213 17.4609C13.9701 17.6121 13.765 17.697 13.5512 17.697ZM14.3897 13.7196H9.59533C9.38151 13.7196 9.17644 13.6347 9.02524 13.4835C8.87405 13.3323 8.78911 13.1272 8.78911 12.9134C8.78911 12.6996 8.87405 12.4945 9.02524 12.3433C9.17644 12.1921 9.38151 12.1072 9.59533 12.1072H14.3897C14.6035 12.1072 14.8086 12.1921 14.9598 12.3433C15.111 12.4945 15.1959 12.6996 15.1959 12.9134C15.1959 13.1272 15.111 13.3323 14.9598 13.4835C14.8086 13.6347 14.6035 13.7196 14.3897 13.7196ZM21.6672 6.10886C21.6353 6.31959 21.5213 6.50913 21.3501 6.63604C21.1789 6.76295 20.9644 6.8169 20.7535 6.78608C14.9509 5.98795 9.06636 5.98795 3.26378 6.78608H3.12403C2.92179 6.78553 2.72715 6.70899 2.5787 6.57164C2.43025 6.43429 2.33885 6.24617 2.32261 6.04458C2.30638 5.843 2.3665 5.64267 2.49105 5.48333C2.6156 5.324 2.79549 5.21729 2.99504 5.18438C3.14553 5.18438 4.96222 4.87264 7.77864 4.6899L8.13338 2.87321C8.22326 2.41505 8.46982 2.00246 8.83074 1.70627C9.19166 1.41008 9.64442 1.24876 10.1113 1.25001H13.9059C14.3753 1.25179 14.8295 1.41691 15.1904 1.71702C15.5513 2.01713 15.7965 2.43352 15.8839 2.89471L16.2171 4.70065C17.7436 4.7974 19.3453 4.94789 20.9792 5.19513C21.0845 5.20964 21.1859 5.24482 21.2776 5.29867C21.3692 5.35251 21.4494 5.42395 21.5133 5.50887C21.5772 5.5938 21.6238 5.69053 21.6502 5.79349C21.6766 5.89646 21.6824 6.00364 21.6672 6.10886Z" fill="black"/>
</svg>
