<svg width="24" height="24" viewBox="0 0 24 24" fill="none" xmlns="http://www.w3.org/2000/svg">
<path d="M6.10803 8.12782L11.0624 1.24796C11.1654 1.09468 11.3045 0.969094 11.4675 0.882257C11.6305 0.79542 11.8123 0.75 11.997 0.75C12.1817 0.75 12.3635 0.79542 12.5265 0.882257C12.6895 0.969094 12.8286 1.09468 12.9316 1.24796L17.886 8.12782C18.0202 8.29718 18.1028 8.50158 18.124 8.71662C18.1453 8.93166 18.1041 9.14827 18.0056 9.34058C17.9071 9.5329 17.7553 9.6928 17.5684 9.8012C17.3814 9.9096 17.1673 9.96193 16.9514 9.95194H7.04261C6.82675 9.96193 6.61258 9.9096 6.42565 9.8012C6.23873 9.6928 6.08694 9.5329 5.98841 9.34058C5.88988 9.14827 5.84876 8.93166 5.86997 8.71662C5.89118 8.50158 5.97382 8.29718 6.10803 8.12782ZM19.8002 16.4039L15.1498 9.95194H8.84421L4.19383 16.4039C4.03903 16.6311 3.94876 16.8961 3.93262 17.1705C3.91647 17.445 3.97507 17.7187 4.10217 17.9625C4.22926 18.2063 4.4201 18.411 4.65435 18.555C4.88861 18.6989 5.15751 18.7766 5.43243 18.7798H11.1525V22.4055C11.1525 22.6295 11.2415 22.8443 11.3999 23.0027C11.5582 23.161 11.773 23.25 11.997 23.25C12.221 23.25 12.4358 23.161 12.5942 23.0027C12.7525 22.8443 12.8415 22.6295 12.8415 22.4055V18.7798H18.5616C18.8365 18.7766 19.1054 18.6989 19.3397 18.555C19.5739 18.411 19.7648 18.2063 19.8918 17.9625C20.0189 17.7187 20.0775 17.445 20.0614 17.1705C20.0453 16.8961 19.955 16.6311 19.8002 16.4039Z" fill="black"/>
</svg>
