<svg width="24" height="24" viewBox="0 0 24 24" fill="none" xmlns="http://www.w3.org/2000/svg">
<path d="M16.5043 1.25H7.49575C5.83927 1.25 4.25064 1.90803 3.07934 3.07934C1.90803 4.25064 1.25 5.83927 1.25 7.49575V16.5043C1.25 18.1607 1.90803 19.7494 3.07934 20.9207C4.25064 22.092 5.83927 22.75 7.49575 22.75H16.5043C18.1607 22.75 19.7494 22.092 20.9207 20.9207C22.092 19.7494 22.75 18.1607 22.75 16.5043V7.49575C22.75 5.83927 22.092 4.25064 20.9207 3.07934C19.7494 1.90803 18.1607 1.25 16.5043 1.25ZM7.313 15.8378C7.23953 15.9503 7.13908 16.0427 7.0208 16.1065C6.90252 16.1704 6.77016 16.2036 6.63575 16.2033C6.47844 16.2001 6.3254 16.1516 6.195 16.0635C6.02847 15.946 5.91262 15.7698 5.87073 15.5704C5.82885 15.3709 5.86405 15.163 5.96925 14.9885L8.67825 10.925L5.96925 6.72175C5.86511 6.54595 5.83161 6.33717 5.87551 6.13761C5.91942 5.93806 6.03745 5.76261 6.20575 5.64675C6.38343 5.5462 6.59231 5.51581 6.79128 5.56157C6.99024 5.60733 7.16486 5.72593 7.28075 5.894L10.28 10.538C10.3665 10.6707 10.4126 10.8257 10.4126 10.9841C10.4126 11.1425 10.3665 11.2975 10.28 11.4303L7.313 15.8378ZM17.375 18.5253H11.0325C10.8187 18.5253 10.6136 18.4403 10.4624 18.2891C10.3112 18.1379 10.2263 17.9328 10.2263 17.719C10.2263 17.5052 10.3112 17.3001 10.4624 17.1489C10.6136 16.9977 10.8187 16.9128 11.0325 16.9128H17.375C17.5888 16.9128 17.7939 16.9977 17.9451 17.1489C18.0963 17.3001 18.1813 17.5052 18.1813 17.719C18.1813 17.9328 18.0963 18.1379 17.9451 18.2891C17.7939 18.4403 17.5888 18.5253 17.375 18.5253Z" fill="black"/>
</svg>
