<svg width="24" height="24" viewBox="0 0 24 24" fill="none" xmlns="http://www.w3.org/2000/svg">
<path fill-rule="evenodd" clip-rule="evenodd" d="M7.93433 17.9343C8.24675 17.6218 8.75328 17.6218 9.0657 17.9343L11.2 20.0686V3.93132L9.0657 6.06564C8.75328 6.37806 8.24675 6.37806 7.93433 6.06564C7.62191 5.75322 7.62191 5.24669 7.93433 4.93427L11.4343 1.43427C11.7467 1.12185 12.2533 1.12185 12.5657 1.43427L16.0657 4.93427C16.3781 5.24669 16.3781 5.75322 16.0657 6.06564C15.7533 6.37806 15.2467 6.37806 14.9343 6.06564L12.8 3.93132V20.0686L14.9343 17.9343C15.2467 17.6218 15.7533 17.6218 16.0657 17.9343C16.3781 18.2467 16.3781 18.7532 16.0657 19.0656L12.5657 22.5656C12.2533 22.8781 11.7467 22.8781 11.4343 22.5656L7.93433 19.0656C7.62191 18.7532 7.62191 18.2467 7.93433 17.9343Z" fill="black"/>
</svg>
