<svg width="24" height="24" viewBox="0 0 24 24" fill="none" xmlns="http://www.w3.org/2000/svg">
<path d="M1.25 7.8075V16.1925C1.25284 17.9308 1.94463 19.5971 3.17379 20.8262C4.40294 22.0554 6.06922 22.7472 7.8075 22.75H16.1925C17.9308 22.7472 19.5971 22.0554 20.8262 20.8262C22.0554 19.5971 22.7472 17.9308 22.75 16.1925V7.8075C22.7472 6.06922 22.0554 4.40294 20.8262 3.17379C19.5971 1.94463 17.9308 1.25284 16.1925 1.25H7.8075C6.06922 1.25284 4.40294 1.94463 3.17379 3.17379C1.94463 4.40294 1.25284 6.06922 1.25 7.8075ZM12.6128 8.8825L16.3 12.3655C16.3953 12.4558 16.4719 12.5641 16.5253 12.684C16.5788 12.804 16.6081 12.9333 16.6116 13.0645C16.6151 13.1958 16.5927 13.3265 16.5457 13.4491C16.4987 13.5717 16.428 13.6838 16.3376 13.7791C16.2473 13.8744 16.139 13.951 16.0191 14.0044C15.8992 14.0579 15.7699 14.0872 15.6386 14.0907C15.5073 14.0942 15.3767 14.0718 15.2541 14.0248C15.1314 13.9778 15.0193 13.9071 14.924 13.8168L12 11.011L9.15125 13.935C8.96878 14.1274 8.71734 14.2395 8.45223 14.2466C8.18712 14.2536 7.93007 14.1551 7.73763 13.9726C7.54518 13.7902 7.4331 13.5387 7.42604 13.2736C7.41899 13.0085 7.51753 12.7514 7.7 12.559L11.1938 8.904C11.2845 8.80825 11.3934 8.73142 11.514 8.67793C11.6346 8.62445 11.7646 8.59537 11.8965 8.59237C12.0284 8.58937 12.1596 8.61251 12.2826 8.66046C12.4055 8.70841 12.5177 8.78022 12.6128 8.87175V8.8825Z" fill="black"/>
</svg>
