<svg width="24" height="24" viewBox="0 0 24 24" fill="none" xmlns="http://www.w3.org/2000/svg">
<path d="M17.2431 6.62423C17.2431 7.68715 16.9208 8.72621 16.3171 9.60999C15.7133 10.4938 14.8551 11.1826 13.8511 11.5894C12.847 11.9961 11.7422 12.1026 10.6763 11.8952C9.61038 11.6878 8.6313 11.176 7.86283 10.4244C7.09437 9.67279 6.57103 8.71519 6.35901 7.67269C6.14699 6.63019 6.25581 5.54961 6.6717 4.5676C7.08759 3.58559 7.79188 2.74625 8.6955 2.15572C9.59912 1.56519 10.6615 1.25 11.7483 1.25C13.2056 1.25 14.6032 1.81621 15.6337 2.82408C16.6642 3.83194 17.2431 5.1989 17.2431 6.62423ZM17.9025 20.0598L21.65 16.631C21.8741 16.4114 22 16.1137 22 15.8034C22 15.4931 21.8741 15.1954 21.65 14.9758L20.9356 14.2234C20.8311 14.1083 20.7043 14.0144 20.5626 13.9472C20.421 13.88 20.2671 13.8408 20.1099 13.8319C19.9528 13.8229 19.7953 13.8443 19.6466 13.8949C19.4979 13.9455 19.3608 14.0242 19.2432 14.1267L15.4958 17.5554C15.3304 17.7134 15.2158 17.9151 15.1661 18.1358L14.8364 19.6729C14.8125 19.7903 14.8177 19.9116 14.8514 20.0267C14.8852 20.1418 14.9465 20.2473 15.0303 20.3346C15.1142 20.4218 15.2181 20.4882 15.3334 20.5283C15.4488 20.5684 15.5722 20.581 15.6936 20.565L17.2761 20.35C17.5146 20.3037 17.7331 20.1875 17.9025 20.0168V20.0598ZM20.9247 19.5009L19.0234 21.2314C18.6112 21.6181 18.0839 21.8665 17.5179 21.9408L15.9353 22.1558C15.822 22.1661 15.708 22.1661 15.5947 22.1558C15.2367 22.1549 14.8833 22.0762 14.5602 21.9255C14.237 21.7748 13.9521 21.5558 13.7261 21.2843C13.5 21.0128 13.3384 20.6956 13.2529 20.3556C13.1675 20.0156 13.1603 19.6612 13.2319 19.3182L13.5616 17.7919C13.664 17.2198 13.9532 16.6957 14.3858 16.2978L15.8364 14.965C14.5475 14.473 13.1758 14.2214 11.7922 14.2234C6.82489 14.2234 2.71475 17.3297 2.01142 21.3711C1.98643 21.5501 2.00258 21.7323 2.05871 21.9045C2.11484 22.0766 2.20953 22.2343 2.33587 22.3661C2.46221 22.4979 2.61703 22.6005 2.78904 22.6664C2.96105 22.7323 3.14592 22.7598 3.33018 22.7469H20.2543C20.4339 22.7569 20.6137 22.7289 20.7813 22.6648C20.9489 22.6008 21.1004 22.5021 21.2255 22.3757C21.3506 22.2492 21.4465 22.0979 21.5064 21.9319C21.5664 21.766 21.5891 21.5894 21.573 21.4141C21.4539 20.735 21.2355 20.0762 20.9247 19.4579V19.5009Z" fill="black"/>
</svg>
