<svg width="24" height="24" viewBox="0 0 24 24" fill="none" xmlns="http://www.w3.org/2000/svg">
<path d="M13.8919 6.30264C13.9004 7.3113 13.6093 8.29978 13.0556 9.14289C12.5018 9.98599 11.7103 10.6458 10.7813 11.0387C9.85225 11.4315 8.82751 11.5398 7.83687 11.3498C6.84623 11.1599 5.93427 10.6801 5.21651 9.9714C4.49875 9.26269 4.00748 8.35689 3.80494 7.36874C3.6024 6.38059 3.6977 5.35456 4.07876 4.42062C4.45983 3.48668 5.10952 2.68685 5.94553 2.12245C6.78154 1.55805 7.76625 1.25447 8.77494 1.25018C9.44306 1.24451 10.1057 1.37086 10.7249 1.62197C11.3441 1.87307 11.9075 2.244 12.383 2.71344C12.8584 3.18289 13.2365 3.74162 13.4954 4.35755C13.7543 4.97349 13.8891 5.6345 13.8919 6.30264ZM8.77494 12.6451C4.60397 12.6451 1.25 14.9026 1.25 17.6975C1.25 20.4925 4.63622 22.75 8.77494 22.75C12.9137 22.75 16.2999 20.4818 16.2999 17.6975C16.2999 14.9133 12.9782 12.6451 8.77494 12.6451ZM16.7191 3.40016C16.1277 3.40084 15.5439 3.53303 15.0099 3.78716C15.4605 4.88059 15.6064 6.07565 15.4323 7.24538C15.2582 8.41511 14.7704 9.51583 14.0209 10.4306C14.5072 10.8734 15.0942 11.1909 15.7309 11.3555C16.3677 11.52 17.035 11.5267 17.675 11.375C18.3149 11.2232 18.9082 10.9176 19.4032 10.4846C19.8983 10.0516 20.2802 9.50436 20.5159 8.89034C20.7516 8.27631 20.8338 7.61406 20.7556 6.96104C20.6773 6.30802 20.4408 5.68396 20.0667 5.14302C19.6927 4.60208 19.1922 4.1606 18.6088 3.85688C18.0255 3.55316 17.3768 3.39639 16.7191 3.40016ZM16.7191 12.4946C16.116 12.4941 15.5145 12.5553 14.9239 12.6773C15.8119 13.1803 16.5572 13.9012 17.0894 14.772C17.6217 15.6428 17.9234 16.6349 17.9661 17.6545C17.9699 18.7035 17.6591 19.7295 17.0739 20.6C20.2343 20.4818 22.7498 18.7295 22.7498 16.5796C22.7498 14.4296 20.0516 12.5376 16.7191 12.5376V12.4946Z" fill="black"/>
</svg>
