<svg width="24" height="24" viewBox="0 0 24 24" fill="none" xmlns="http://www.w3.org/2000/svg">
<path d="M16.8933 6.62467C16.8823 7.67234 16.5545 8.69355 15.9507 9.56024C15.3469 10.4269 14.4942 11.1005 13.4994 11.4966C12.5046 11.8926 11.412 11.9934 10.3586 11.7864C9.30531 11.5794 8.33809 11.0738 7.57829 10.3329C6.81848 9.59206 6.29991 8.64897 6.08761 7.6219C5.87531 6.59483 5.97872 5.5295 6.38488 4.5595C6.79103 3.58951 7.48186 2.75803 8.37072 2.16933C9.25958 1.58063 10.3069 1.26091 11.3814 1.25027C12.1073 1.24309 12.8273 1.37719 13.4994 1.64474C14.1714 1.91228 14.782 2.30788 15.2953 2.80838C15.8086 3.30888 16.2143 3.90421 16.4887 4.5595C16.7631 5.2148 16.9006 5.91689 16.8933 6.62467ZM22.35 17.2552C22.35 18.1056 22.0914 18.9368 21.6069 19.6439C21.1223 20.3509 20.4337 20.902 19.628 21.2274C18.8222 21.5529 17.9356 21.638 17.0803 21.4721C16.2249 21.3062 15.4392 20.8967 14.8225 20.2954C14.2058 19.6941 13.7859 18.928 13.6157 18.094C13.4456 17.26 13.5329 16.3955 13.8667 15.6099C14.2004 14.8242 14.7656 14.1527 15.4907 13.6803C16.2159 13.2079 17.0684 12.9557 17.9405 12.9557C19.1062 12.9557 20.2244 13.4057 21.0507 14.2074C21.877 15.0091 22.3442 16.0971 22.35 17.2337V17.2552ZM20.1453 15.5892C19.9739 15.4573 19.7561 15.3969 19.5393 15.4211C19.3224 15.4452 19.1242 15.552 18.9878 15.7181L17.7752 17.2337L17.1248 16.2986C17.0589 16.216 16.977 16.1469 16.8837 16.0952C16.7905 16.0435 16.6877 16.0102 16.5812 15.9972C16.4747 15.9842 16.3667 15.9918 16.2633 16.0195C16.1598 16.0473 16.063 16.0946 15.9783 16.1588C15.8936 16.2231 15.8227 16.3029 15.7697 16.3939C15.7166 16.4848 15.6825 16.585 15.6692 16.6888C15.6559 16.7926 15.6637 16.898 15.6921 16.9988C15.7206 17.0997 15.7691 17.1941 15.835 17.2767L17.1688 18.9535C17.2451 19.0495 17.3428 19.1272 17.4546 19.1806C17.5664 19.234 17.6892 19.2618 17.8137 19.2618C17.9382 19.2618 18.0611 19.234 18.1729 19.1806C18.2846 19.1272 18.3824 19.0495 18.4586 18.9535L20.3216 16.6425C20.4428 16.4802 20.4965 16.2791 20.472 16.0798C20.4474 15.8804 20.3465 15.6975 20.1894 15.5677L20.1453 15.5892ZM11.9987 17.2337C11.9972 16.2199 12.2669 15.2233 12.7814 14.3423C12.3428 14.2862 11.9009 14.2575 11.4586 14.2563C6.48685 14.2563 2.36397 17.3734 1.65846 21.3827C1.63719 21.5606 1.65615 21.7408 1.714 21.9107C1.77184 22.0806 1.86717 22.2361 1.99327 22.3662C2.11936 22.4963 2.27318 22.5979 2.44388 22.6639C2.61458 22.7298 2.79802 22.7585 2.9813 22.7478H15.868C14.7245 22.3215 13.7414 21.5653 13.0501 20.5801C12.3588 19.5948 11.992 18.4275 11.9987 17.2337Z" fill="black"/>
</svg>
