<svg width="24" height="24" viewBox="0 0 24 24" fill="none" xmlns="http://www.w3.org/2000/svg">
<path d="M17.4747 6.62451C17.4747 7.68749 17.1536 8.72659 16.5521 9.61042C15.9505 10.4943 15.0955 11.1831 14.0951 11.5899C13.0947 11.9967 11.9939 12.1031 10.9319 11.8957C9.86994 11.6884 8.89444 11.1765 8.12879 10.4249C7.36313 9.67322 6.84171 8.71558 6.63047 7.67302C6.41923 6.63047 6.52765 5.54984 6.94201 4.56777C7.35638 3.58571 8.05809 2.74633 8.95841 2.15577C9.85872 1.56521 10.9172 1.25 12 1.25C13.452 1.25 14.8445 1.81624 15.8712 2.82416C16.8979 3.83207 17.4747 5.1991 17.4747 6.62451ZM20.4311 22.748C20.6101 22.758 20.7891 22.73 20.9561 22.6659C21.1231 22.6019 21.2741 22.5032 21.3987 22.3768C21.5234 22.2503 21.6189 22.0989 21.6786 21.933C21.7384 21.7671 21.761 21.5905 21.745 21.4152C21.0442 17.3735 16.9492 14.2671 12 14.2671C7.05085 14.2671 2.95575 17.3735 2.25499 21.4152C2.23898 21.5905 2.26161 21.7671 2.32137 21.933C2.38112 22.0989 2.47658 22.2503 2.60125 22.3768C2.72593 22.5032 2.87689 22.6019 3.04387 22.6659C3.21085 22.73 3.38993 22.758 3.56892 22.748H20.4311Z" fill="black"/>
</svg>
