<svg width="24" height="24" viewBox="0 0 24 24" fill="none" xmlns="http://www.w3.org/2000/svg">
<path d="M23.2081 7.7171C23.203 6.79647 23.0163 5.88594 22.6588 5.03799C22.3013 4.19004 21.7799 3.42142 21.1248 2.77643C19.8026 1.47264 18.0209 0.744469 16.1666 0.750032H7.68761C6.76886 0.75686 5.86046 0.945267 5.01439 1.30448C4.16831 1.66368 3.40117 2.18665 2.75684 2.84344C2.11251 3.50024 1.60363 4.27798 1.25933 5.13217C0.91502 5.98637 0.74204 6.90025 0.750281 7.82155V16.2614C0.752952 17.188 0.938829 18.1049 1.29716 18.959C1.65549 19.8132 2.17915 20.5875 2.83787 21.2374C3.49658 21.8873 4.27725 22.3997 5.13473 22.745C5.99221 23.0904 6.90947 23.2618 7.83344 23.2494H16.3124C17.2311 23.2425 18.1395 23.0541 18.9856 22.6949C19.8317 22.3357 20.5988 21.8128 21.2432 21.156C21.8875 20.4992 22.3964 19.7214 22.7407 18.8672C23.085 18.013 23.258 17.0991 23.2497 16.1779L23.2081 7.7171ZM20.0831 20.0217C19.6072 20.5048 19.0455 20.8945 18.4269 21.1707C17.8479 19.9445 16.9335 18.9083 15.7903 18.1827C14.647 17.4571 13.3218 17.0719 11.9688 17.0719C10.6157 17.0719 9.29052 17.4571 8.14725 18.1827C7.00398 18.9083 6.08964 19.9445 5.51058 21.1707C4.92823 20.9196 4.39551 20.5659 3.9377 20.1262C3.42867 19.6264 3.02379 19.0301 2.74662 18.372C2.46944 17.7139 2.3255 17.0071 2.32316 16.2928L2.31274 7.82155C2.30995 6.38086 2.87587 4.99762 3.88688 3.97402C4.89788 2.95041 6.27179 2.36966 7.70844 2.35862H16.1874C17.6205 2.36133 18.9946 2.93126 20.0108 3.94449C21.0271 4.95771 21.6034 6.33229 21.6143 7.76932V16.2092C21.6345 17.6285 21.0955 18.9985 20.1144 20.0217H20.0831ZM15.9166 11.9057C15.9165 12.6925 15.6833 13.4616 15.2465 14.1152C14.8097 14.7688 14.189 15.2775 13.4633 15.5766C12.7376 15.8758 11.9396 15.9519 11.1707 15.7953C10.4017 15.6388 9.69655 15.2566 9.14467 14.6973C8.5928 14.138 8.21914 13.4268 8.07115 12.6541C7.92315 11.8814 8.00751 11.0821 8.3135 10.3576C8.61949 9.63304 9.1333 9.01606 9.78969 8.58498C10.4461 8.1539 11.2154 7.92817 12 7.93645C13.0498 7.93645 14.0566 8.35464 14.7989 9.09901C15.5412 9.84339 15.9582 10.853 15.9582 11.9057H15.9166Z" fill="black"/>
</svg>
