<svg width="24" height="24" viewBox="0 0 24 24" fill="none" xmlns="http://www.w3.org/2000/svg">
<path d="M22.789 10.3092L21.1911 8.68748C21.0797 8.57826 20.9916 8.44749 20.9323 8.30315C20.873 8.1588 20.8437 8.00389 20.8462 7.84785V5.54749C20.8447 5.23234 20.781 4.9206 20.6587 4.63016C20.5364 4.33973 20.358 4.07633 20.1336 3.85509C19.9093 3.63386 19.6435 3.45914 19.3515 3.34099C19.0595 3.22284 18.747 3.16358 18.432 3.16662H16.1328C15.9768 3.16907 15.822 3.13975 15.6777 3.08043C15.5335 3.02111 15.4028 2.93303 15.2936 2.82156L13.6842 1.19981C13.2358 0.751704 12.628 0.5 11.9942 0.5C11.3605 0.5 10.7527 0.751704 10.3043 1.19981L8.68338 2.79856C8.57421 2.91003 8.44351 2.99811 8.29924 3.05743C8.15496 3.11675 8.00013 3.14607 7.84417 3.14362H5.54496C5.22997 3.14512 4.91838 3.20887 4.62809 3.33121C4.3378 3.45355 4.07454 3.63207 3.85341 3.85651C3.63228 4.08095 3.45766 4.3469 3.33957 4.63906C3.22148 4.93123 3.16225 5.24386 3.16528 5.55899V7.85935C3.16774 8.01539 3.13843 8.1703 3.07914 8.31465C3.01984 8.459 2.93181 8.58976 2.8204 8.69898L1.19946 10.3092C0.751578 10.7578 0.5 11.3659 0.5 12C0.5 12.6341 0.751578 13.2422 1.19946 13.6908L2.79741 15.3125C2.90882 15.4217 2.99685 15.5525 3.05614 15.6969C3.11543 15.8412 3.14474 15.9961 3.14229 16.1521V18.4525C3.14379 18.7677 3.20751 19.0794 3.32979 19.3698C3.45207 19.6603 3.6305 19.9237 3.85483 20.1449C4.07916 20.3661 4.34497 20.5409 4.63699 20.659C4.92901 20.7772 5.24148 20.8364 5.55646 20.8334H7.85566C8.01163 20.8309 8.16646 20.8603 8.31073 20.9196C8.45501 20.9789 8.58571 21.067 8.69487 21.1784L10.3158 22.8002C10.7642 23.2483 11.372 23.5 12.0057 23.5C12.6395 23.5 13.2473 23.2483 13.6956 22.8002L15.3051 21.2014C15.4143 21.09 15.545 21.0019 15.6892 20.9426C15.8335 20.8833 15.9883 20.8539 16.1443 20.8564H18.4435C19.0777 20.8564 19.6859 20.6043 20.1343 20.1557C20.5828 19.707 20.8347 19.0985 20.8347 18.464V16.1637C20.8322 16.0076 20.8615 15.8527 20.9208 15.7084C20.9801 15.564 21.0682 15.4332 21.1796 15.324L22.8005 13.7023C23.0233 13.4792 23.1997 13.2142 23.3198 12.9227C23.4398 12.6311 23.5011 12.3187 23.5 12.0034C23.4989 11.688 23.4356 11.376 23.3135 11.0853C23.1915 10.7945 23.0133 10.5308 22.789 10.3092ZM16.7996 9.92968L11.155 15.4505C11.0754 15.5312 10.9805 15.5951 10.8759 15.6386C10.7713 15.682 10.659 15.7041 10.5457 15.7036C10.4317 15.702 10.3192 15.6778 10.2146 15.6324C10.11 15.587 10.0155 15.5212 9.93645 15.439L7.21189 12.6786C7.12809 12.5988 7.06121 12.5029 7.01523 12.3967C6.96924 12.2905 6.94509 12.1761 6.94422 12.0604C6.94334 11.9446 6.96576 11.8299 7.01013 11.723C7.05451 11.6161 7.11993 11.5192 7.2025 11.4381C7.28508 11.3571 7.38312 11.2934 7.49078 11.2511C7.59845 11.2087 7.71353 11.1884 7.82918 11.1915C7.94484 11.1946 8.05869 11.2209 8.16397 11.2689C8.26924 11.3169 8.36378 11.3856 8.44196 11.4709L10.5572 13.6218L15.5925 8.69898C15.7542 8.53744 15.9733 8.4467 16.2018 8.4467C16.4303 8.4467 16.6494 8.53744 16.8111 8.69898C16.892 8.78004 16.956 8.87641 16.9993 8.98247C17.0426 9.08854 17.0644 9.20217 17.0633 9.31674C17.0622 9.43131 17.0384 9.54452 16.9931 9.64976C16.9478 9.75499 16.882 9.85015 16.7996 9.92968Z" fill="black"/>
</svg>
