<svg width="24" height="24" viewBox="0 0 24 24" fill="none" xmlns="http://www.w3.org/2000/svg">
<path d="M11.75 0.75C9.57441 0.75 7.44767 1.39514 5.63873 2.60383C3.82979 3.81253 2.41989 5.53049 1.58733 7.54048C0.754766 9.55047 0.53693 11.7622 0.961367 13.896C1.3858 16.0298 2.43345 17.9898 3.97183 19.5282C5.51021 21.0665 7.47022 22.1142 9.60401 22.5386C11.7378 22.9631 13.9495 22.7452 15.9595 21.9127C17.9695 21.0801 19.6875 19.6702 20.8962 17.8613C22.1049 16.0523 22.75 13.9256 22.75 11.75C22.75 10.3055 22.4655 8.87506 21.9127 7.54048C21.3599 6.2059 20.5496 4.99327 19.5282 3.97182C18.5067 2.95038 17.2941 2.14013 15.9595 1.58732C14.6249 1.03452 13.1945 0.75 11.75 0.75ZM9.066 6.437H14.5C14.6083 6.43751 14.7143 6.46816 14.8061 6.52551C14.8979 6.58287 14.972 6.66466 15.0199 6.76173C15.0679 6.8588 15.0879 6.96731 15.0777 7.07509C15.0674 7.18288 15.0274 7.28569 14.962 7.372L12.3 10.936C12.2455 11.0067 12.1756 11.064 12.0955 11.1035C12.0154 11.1429 11.9273 11.1634 11.838 11.1634C11.7487 11.1634 11.6606 11.1429 11.5805 11.1035C11.5004 11.064 11.4305 11.0067 11.376 10.936L8.615 7.35C8.55221 7.26546 8.51398 7.16523 8.50452 7.06035C8.49505 6.95548 8.51472 6.85002 8.56136 6.75561C8.608 6.66119 8.67979 6.58149 8.76883 6.52527C8.85788 6.46905 8.96071 6.43851 9.066 6.437ZM17.866 9.308L12.476 16.722C12.4005 16.8293 12.2999 16.9165 12.1829 16.976C12.066 17.0354 11.9362 17.0653 11.805 17.063C11.6762 17.0609 11.5495 17.029 11.435 16.9698C11.3206 16.9107 11.2213 16.8259 11.145 16.722L5.645 9.308C5.56883 9.22245 5.51131 9.12198 5.47611 9.01298C5.4409 8.90398 5.42877 8.78884 5.44051 8.6749C5.45224 8.56096 5.48757 8.45071 5.54424 8.35117C5.60092 8.25163 5.67771 8.16499 5.76971 8.09675C5.86171 8.02852 5.96691 7.98019 6.07862 7.95484C6.19032 7.9295 6.30608 7.92769 6.41852 7.94954C6.53096 7.97139 6.63762 8.01641 6.73171 8.08174C6.8258 8.14707 6.90525 8.23128 6.965 8.329L11.75 14.841L16.502 8.34C16.6304 8.16204 16.8242 8.04236 17.0408 8.00729C17.148 7.98992 17.2576 7.99386 17.3634 8.01886C17.4691 8.04386 17.5689 8.08944 17.657 8.153C17.7451 8.21656 17.8199 8.29685 17.8769 8.38929C17.934 8.48174 17.9723 8.58452 17.9897 8.69177C18.0071 8.79902 18.0031 8.90864 17.9781 9.01437C17.9531 9.12011 17.9076 9.21988 17.844 9.308H17.866Z" fill="black"/>
</svg>
