<svg width="24" height="24" viewBox="0 0 24 24" fill="none" xmlns="http://www.w3.org/2000/svg">
<path d="M23.0397 4.26278L18.2078 12.7531L13.2862 21.4142C13.1582 21.6386 12.9742 21.825 12.7529 21.9546C12.5315 22.0841 12.2805 22.1523 12.025 22.1523C11.7695 22.1523 11.5184 22.0841 11.2971 21.9546C11.0757 21.825 10.8918 21.6386 10.7638 21.4142L5.84217 12.7531L0.920585 4.04654C0.80375 3.82346 0.745131 3.57372 0.750316 3.32112C0.755501 3.06853 0.824317 2.82148 0.950205 2.60354C1.07609 2.38559 1.25486 2.20401 1.46947 2.07608C1.68408 1.94815 1.92739 1.87815 2.17621 1.87274H3.92511C3.92633 2.1721 4.00355 2.46609 4.14932 2.72632L7.34443 8.33723L9.46329 12.0702C9.71937 12.5192 10.0872 12.8919 10.5299 13.151C10.9727 13.4101 11.4747 13.5465 11.9857 13.5465C12.4968 13.5465 12.9988 13.4101 13.4415 13.151C13.8843 12.8919 14.2521 12.5192 14.5082 12.0702L16.6271 8.33723L19.8334 2.72632C19.9791 2.46609 20.0564 2.1721 20.0576 1.87274H21.6944C21.9687 1.87521 22.2376 1.95063 22.4743 2.09148C22.7109 2.23233 22.9071 2.4337 23.0432 2.67551C23.1793 2.91732 23.2506 3.19112 23.25 3.46962C23.2494 3.74812 23.1769 4.02159 23.0397 4.26278ZM10.9207 11.2167C11.0293 11.4056 11.1848 11.5623 11.3717 11.6712C11.5585 11.7802 11.7703 11.8375 11.9857 11.8375C12.2012 11.8375 12.4129 11.7802 12.5998 11.6712C12.7867 11.5623 12.9422 11.4056 13.0508 11.2167L15.1809 7.46088L18.3647 1.84998H5.60674L8.79064 7.46088L10.9207 11.2167Z" fill="black"/>
</svg>
