<svg width="24" height="24" viewBox="0 0 24 24" fill="none" xmlns="http://www.w3.org/2000/svg">
<path d="M20.2723 19.7754C20.2617 18.956 20.0777 18.1482 19.7322 17.4052C19.3866 16.6621 18.8876 16.0008 18.2678 15.4647L15.3473 12.8352C15.2269 12.7303 15.1285 12.6025 15.0578 12.4593C14.9872 12.3161 14.9456 12.1603 14.9356 12.001C14.9256 11.8416 14.9473 11.6818 14.9995 11.5309C15.0516 11.3799 15.1332 11.2409 15.2395 11.1217L15.3365 11.0355L18.257 8.42751C18.8768 7.89144 19.3759 7.23009 19.7214 6.48706C20.0669 5.74402 20.251 4.93619 20.2615 4.11682V3.75041C20.2573 3.41783 20.1876 3.08933 20.0564 2.78368C19.9252 2.47803 19.7351 2.20122 19.4969 1.96905C19.2588 1.73688 18.9772 1.5539 18.6683 1.43056C18.3594 1.30722 18.0292 1.24594 17.6966 1.25021H6.29484C5.96226 1.24594 5.63209 1.30722 5.32319 1.43056C5.01429 1.5539 4.73272 1.73688 4.49454 1.96905C4.25637 2.20122 4.06626 2.47803 3.93508 2.78368C3.80389 3.08933 3.7342 3.41783 3.72998 3.75041V4.10604C3.7405 4.92541 3.92458 5.73325 4.27009 6.47628C4.6156 7.21931 5.11469 7.88067 5.73445 8.41674L8.65495 11.0247C8.77771 11.129 8.87836 11.2568 8.95097 11.4005C9.02357 11.5443 9.06667 11.7012 9.07772 11.8619C9.08876 12.0225 9.06754 12.1838 9.01529 12.3362C8.96304 12.4885 8.88083 12.6289 8.77349 12.749L8.6765 12.8352L5.73445 15.4432C5.11469 15.9792 4.6156 16.6406 4.27009 17.3836C3.92458 18.1267 3.7405 18.9345 3.72998 19.7539V20.2173C3.72995 20.5526 3.79651 20.8846 3.9258 21.1939C4.05509 21.5033 4.24453 21.784 4.48314 22.0196C4.72174 22.2552 5.00475 22.441 5.31575 22.5664C5.62676 22.6917 5.95956 22.7541 6.29484 22.7498H17.7182C18.0508 22.7541 18.3809 22.6928 18.6898 22.5694C18.9987 22.4461 19.2803 22.2631 19.5185 22.031C19.7567 21.7988 19.9468 21.522 20.0779 21.2163C20.2091 20.9107 20.2788 20.5822 20.283 20.2496V19.8293L20.2723 19.7754ZM15.6167 19.6461H8.51485C8.44742 19.6461 8.38066 19.6327 8.3185 19.6065C8.25633 19.5804 8.20001 19.5421 8.15283 19.494C8.10565 19.4458 8.06857 19.3887 8.04376 19.326C8.01895 19.2633 8.00691 19.1962 8.00834 19.1288C8.00797 19.064 8.0212 18.9998 8.04719 18.9404C8.07318 18.881 8.11134 18.8277 8.15922 18.784L10.7672 16.1868C11.1123 15.8561 11.5717 15.6715 12.0496 15.6715C12.5275 15.6715 12.987 15.8561 13.332 16.1868L15.94 18.8163C15.9876 18.8625 16.0254 18.9178 16.0513 18.9789C16.0771 19.0399 16.0904 19.1056 16.0904 19.1719C16.0904 19.2382 16.0771 19.3039 16.0513 19.365C16.0254 19.4261 15.9876 19.4813 15.94 19.5275C15.8458 19.5971 15.7336 19.6382 15.6167 19.6461Z" fill="black"/>
</svg>
