<svg width="24" height="24" viewBox="0 0 24 24" fill="none" xmlns="http://www.w3.org/2000/svg">
<path d="M22.7649 11.3354C22.6606 9.71755 22.1928 8.14402 21.3961 6.73202C20.5994 5.32003 19.4945 4.10593 18.1635 3.18015C16.8326 2.25437 15.31 1.64075 13.7091 1.38498C12.1081 1.12921 10.4701 1.23788 8.91697 1.7029C7.36385 2.16792 5.93563 2.97731 4.73868 4.07081C3.54172 5.1643 2.60685 6.51372 2.00369 8.01859C1.40053 9.52345 1.14461 11.145 1.25499 12.7625C1.36538 14.38 1.83921 15.9517 2.64123 17.3607L1.68193 20.9284C1.64533 21.07 1.63792 21.2175 1.66016 21.3621C1.68239 21.5066 1.73381 21.6451 1.81127 21.7691C1.89878 21.9216 2.02526 22.0481 2.17774 22.1356C2.30191 22.208 2.4393 22.2548 2.58183 22.2733C2.72437 22.2919 2.86916 22.2817 3.0077 22.2434L6.53231 21.2733C8.18664 22.2418 10.0693 22.7515 11.9863 22.75C13.4501 22.7297 14.895 22.4159 16.2353 21.8271C17.5757 21.2382 18.7842 20.3864 19.7893 19.3219C20.7944 18.2575 21.5757 17.0022 22.0868 15.6304C22.5979 14.2585 22.8285 12.798 22.7649 11.3354ZM16.2977 16.9942C15.069 17.7056 13.8725 17.4469 12.1156 16.4445C10.0804 15.2191 8.40379 13.4793 7.25447 11.4001C6.17661 9.31983 6.38141 7.99406 7.3946 7.08866C7.67955 6.79161 8.06245 6.60781 8.47246 6.57129C8.62957 6.56645 8.78546 6.60028 8.92642 6.66983C9.06738 6.73937 9.18909 6.84248 9.28086 6.9701L10.736 9.12582C10.7707 9.23481 10.796 9.34661 10.8114 9.45996C10.8113 9.60155 10.7701 9.74007 10.6929 9.85877C10.6929 9.85877 10.1539 10.4947 9.98147 10.6779C9.93209 10.7164 9.89834 10.7714 9.88644 10.8329C9.87455 10.8943 9.88533 10.958 9.91679 11.0121C10.6962 12.2056 11.7169 13.2227 12.9133 13.9978C12.9743 14.0264 13.043 14.0345 13.109 14.0209C13.1751 14.0073 13.235 13.9727 13.2797 13.9223C13.5325 13.6743 13.7988 13.4404 14.0773 13.2217C14.1843 13.1547 14.3059 13.1147 14.4318 13.1053C14.5576 13.096 14.6838 13.1174 14.7995 13.1678L16.9552 14.6553C17.0633 14.7635 17.1641 14.8787 17.257 15.0002C17.3401 15.3918 17.291 15.8 17.1174 16.1608C16.9438 16.5216 16.6556 16.8146 16.2977 16.9942Z" fill="black"/>
</svg>
