<svg width="24" height="24" viewBox="0 0 24 24" fill="none" xmlns="http://www.w3.org/2000/svg">
<path d="M16.3538 1.25H7.7C5.98935 1.25 4.34877 1.92955 3.13916 3.13916C1.92955 4.34877 1.25 5.98935 1.25 7.7V16.4075C1.2782 18.0994 1.97019 19.7125 3.17675 20.899C4.38332 22.0855 6.00782 22.7502 7.7 22.75H16.4075C18.0902 22.722 19.6953 22.0375 20.8803 20.8424C22.0652 19.6474 22.7362 18.0366 22.75 16.3538V7.7C22.7501 5.99863 22.0779 4.36614 20.8799 3.15806C19.6819 1.94998 18.0551 1.26418 16.3538 1.25ZM15.0315 16.3968C14.9576 16.5023 14.8595 16.5886 14.7455 16.6485C14.6314 16.7083 14.5046 16.74 14.3758 16.7408C14.2066 16.7388 14.0419 16.6864 13.9028 16.5903C13.3674 16.1997 12.7218 15.9893 12.0591 15.9893C11.3964 15.9893 10.7509 16.1997 10.2155 16.5903C10.1322 16.6559 10.0368 16.7045 9.93473 16.7333C9.83266 16.762 9.72592 16.7704 9.62061 16.7579C9.51529 16.7455 9.41347 16.7124 9.32095 16.6605C9.22843 16.6087 9.14702 16.5392 9.08138 16.4559C8.9488 16.2877 8.88848 16.0737 8.91368 15.861C8.93888 15.6483 9.04754 15.4543 9.21575 15.3218C10.0296 14.7203 11.0149 14.3958 12.0269 14.3958C13.0388 14.3958 14.0241 14.7203 14.838 15.3218C15.0014 15.4424 15.1124 15.6209 15.1484 15.8208C15.1844 16.0207 15.1426 16.2267 15.0315 16.3968ZM17.4503 13.1718C17.3281 13.3339 17.1479 13.4424 16.9474 13.4745C16.747 13.5065 16.5419 13.4597 16.3753 13.3438C15.1792 12.3818 13.6982 11.8432 12.1637 11.8121C10.6291 11.7809 9.12753 12.2591 7.8935 13.1718C7.81155 13.2474 7.71481 13.3052 7.60939 13.3415C7.50397 13.3778 7.39216 13.3918 7.28103 13.3828C7.1699 13.3737 7.06186 13.3416 6.96375 13.2886C6.86563 13.2357 6.77957 13.1629 6.711 13.075C6.5963 12.9122 6.54502 12.7131 6.56679 12.5151C6.58857 12.3172 6.6819 12.134 6.82925 12C8.3432 10.867 10.1884 10.2646 12.0792 10.286C13.97 10.3074 15.801 10.9514 17.289 12.1182C17.448 12.2454 17.553 12.428 17.5829 12.6294C17.6128 12.8308 17.5654 13.0361 17.4503 13.204V13.1718ZM19.0305 9.678C18.9587 9.78557 18.861 9.87342 18.7464 9.93351C18.6319 9.9936 18.5041 10.024 18.3748 10.022C18.209 10.0199 18.0477 9.96741 17.9125 9.8715C16.2189 8.56395 14.1396 7.8547 12 7.8547C9.86038 7.8547 7.78111 8.56395 6.0875 9.8715C6.00562 9.94209 5.91064 9.99585 5.80798 10.0297C5.70532 10.0636 5.597 10.0769 5.48919 10.069C5.38138 10.061 5.2762 10.0318 5.17965 9.98319C5.08311 9.93456 4.99709 9.86738 4.9265 9.7855C4.85591 9.70362 4.80215 9.60864 4.76827 9.50598C4.73439 9.40332 4.72106 9.295 4.72905 9.18719C4.74518 8.96946 4.84714 8.76705 5.0125 8.6245C6.99493 7.13985 9.40501 6.33743 11.8818 6.33743C14.3585 6.33743 16.7686 7.13985 18.751 8.6245C18.9315 8.73192 19.0622 8.90636 19.1145 9.10977C19.1669 9.31317 19.1367 9.52903 19.0305 9.71025V9.678Z" fill="black"/>
</svg>
