<svg width="24" height="24" viewBox="0 0 24 24" fill="none" xmlns="http://www.w3.org/2000/svg">
<path d="M21.3834 8.05296L14.5699 2.30958C13.9174 1.74377 13.0901 1.42277 12.2288 1.40116C11.3675 1.37955 10.5253 1.65867 9.84551 2.19105L2.71065 7.77279C2.19837 8.16644 1.79667 8.68732 1.545 9.2843C1.29332 9.88127 1.20031 10.5338 1.27511 11.1779L2.21785 19.2811C2.32324 20.1973 2.76064 21.0423 3.44643 21.6546C4.13222 22.2669 5.0183 22.6034 5.93526 22.6H17.6339C18.5137 22.6022 19.3658 22.2905 20.0386 21.7203C20.7114 21.1501 21.1614 20.3583 21.3084 19.4858L22.7011 11.5658C22.8067 10.9155 22.7406 10.2487 22.5093 9.63214C22.278 9.01562 21.8898 8.47105 21.3834 8.05296ZM11.9881 17.891C11.704 17.891 11.4315 17.7775 11.2306 17.5754C11.0297 17.3734 10.9168 17.0993 10.9168 16.8135C10.9168 16.5277 11.0297 16.2536 11.2306 16.0515C11.4315 15.8495 11.704 15.7359 11.9881 15.7359C12.2722 15.7359 12.5447 15.8495 12.7456 16.0515C12.9465 16.2536 13.0594 16.5277 13.0594 16.8135C13.0594 17.0993 12.9465 17.3734 12.7456 17.5754C12.5447 17.7775 12.2722 17.891 11.9881 17.891ZM14.6771 15.2403C14.5264 15.3916 14.3222 15.4766 14.1093 15.4766C13.8964 15.4766 13.6922 15.3916 13.5415 15.2403C13.3297 15.008 13.0723 14.8226 12.7855 14.6958C12.4988 14.5689 12.1889 14.5034 11.8756 14.5034C11.5624 14.5034 11.2525 14.5689 10.9657 14.6958C10.6789 14.8226 10.4215 15.008 10.2098 15.2403C10.0535 15.3903 9.84436 15.4717 9.62838 15.4667C9.41241 15.4616 9.20727 15.3705 9.05811 15.2133C8.90894 15.0561 8.82796 14.8458 8.83298 14.6286C8.83801 14.4113 8.92862 14.205 9.08489 14.0549C9.44355 13.6707 9.87671 13.3644 10.3576 13.1551C10.8385 12.9457 11.357 12.8377 11.881 12.8377C12.405 12.8377 12.9235 12.9457 13.4044 13.1551C13.8853 13.3644 14.3184 13.6707 14.6771 14.0549C14.7582 14.1306 14.8229 14.2223 14.8672 14.3243C14.9115 14.4263 14.9343 14.5363 14.9343 14.6476C14.9343 14.7589 14.9115 14.869 14.8672 14.9709C14.8229 15.0729 14.7582 15.1646 14.6771 15.2403ZM16.9697 12.6002C16.8291 12.7611 16.6316 12.8602 16.4194 12.8763C16.2071 12.8924 15.997 12.8242 15.8341 12.6864C14.757 11.6922 13.3483 11.1406 11.8863 11.1406C10.4244 11.1406 9.01569 11.6922 7.9386 12.6864C7.86486 12.7746 7.77322 12.8459 7.66984 12.8956C7.56645 12.9452 7.45371 12.9721 7.33917 12.9743C7.22463 12.9765 7.11094 12.9541 7.00573 12.9085C6.90052 12.8629 6.80622 12.7952 6.72915 12.7099C6.65209 12.6246 6.59405 12.5238 6.55891 12.4141C6.52378 12.3044 6.51237 12.1885 6.52546 12.074C6.53854 11.9595 6.57581 11.8492 6.63477 11.7504C6.69373 11.6516 6.77301 11.5666 6.8673 11.5011C6.8673 11.5011 11.7953 7.02928 16.9054 11.5011C17.0434 11.6406 17.126 11.8259 17.1379 12.0223C17.1497 12.2187 17.0899 12.4127 16.9697 12.5679V12.6002Z" fill="black"/>
</svg>
