<svg width="24" height="24" viewBox="0 0 24 24" fill="none" xmlns="http://www.w3.org/2000/svg">
<path fill-rule="evenodd" clip-rule="evenodd" d="M13.8018 1.84891C13.8018 1.52354 14.0416 1.25977 14.3375 1.25977H22.6167C22.9126 1.25977 23.1524 1.52354 23.1524 1.84891V13.6318C23.1524 13.9572 22.9126 14.221 22.6167 14.221H14.3375C14.0416 14.221 13.8018 13.9572 13.8018 13.6318V1.84891ZM14.8732 11.9059L17.8001 7.74038L14.8732 3.57486V11.9059ZM18.4771 8.7039L15.4285 13.0427H21.5257L18.4771 8.7039ZM22.081 11.9059L19.1541 7.74038L22.081 3.57486V11.9059ZM21.5257 2.43806L18.4771 6.77685L15.4285 2.43806H21.5257ZM13.9483 17.9702C13.6524 17.9702 13.4126 18.234 13.4126 18.5594C13.4126 18.8847 13.6524 19.1485 13.9483 19.1485H22.7145C23.0104 19.1485 23.2503 18.8847 23.2503 18.5594C23.2503 18.234 23.0104 17.9702 22.7145 17.9702H13.9483ZM13.9483 21.5054C13.6524 21.5054 13.4126 21.7691 13.4126 22.0945C13.4126 22.4199 13.6524 22.6837 13.9483 22.6837H19.7925C20.0883 22.6837 20.3282 22.4199 20.3282 22.0945C20.3282 21.7691 20.0883 21.5054 19.7925 21.5054H13.9483ZM1.28571 1.31445C0.989847 1.31445 0.75 1.56447 0.75 1.87289V22.1795C0.75 22.4879 0.989847 22.738 1.28571 22.738H10.0519C10.3478 22.738 10.5877 22.4879 10.5877 22.1795V1.87289C10.5877 1.56447 10.3478 1.31445 10.0519 1.31445H1.28571ZM1.82143 19.5777V4.47467L5.08138 12.0262L1.82143 19.5777ZM2.11424 21.6211L5.66883 13.387L9.22342 21.6211H2.11424ZM6.25629 12.0262L9.51623 19.5777V4.47467L6.25629 12.0262ZM5.66883 10.6654L9.22342 2.43132H2.11424L5.66883 10.6654Z" fill="black"/>
</svg>
