<svg width="24" height="24" viewBox="0 0 24 24" fill="none" xmlns="http://www.w3.org/2000/svg">
<path d="M12 1C9.82441 1 7.69767 1.64514 5.88873 2.85383C4.07979 4.06253 2.66989 5.78049 1.83733 7.79048C1.00477 9.80047 0.78693 12.0122 1.21137 14.146C1.6358 16.2798 2.68345 18.2398 4.22183 19.7782C5.76021 21.3165 7.72022 22.3642 9.85401 22.7886C11.9878 23.2131 14.1995 22.9952 16.2095 22.1627C18.2195 21.3301 19.9375 19.9202 21.1462 18.1113C22.3549 16.3023 23 14.1756 23 12C23 10.5555 22.7155 9.12506 22.1627 7.79048C21.6099 6.4559 20.7996 5.24327 19.7782 4.22182C18.7567 3.20038 17.5441 2.39013 16.2095 1.83732C14.8749 1.28452 13.4445 1 12 1ZM11.252 15.135C11.252 15.3538 11.1651 15.5636 11.0104 15.7184C10.8556 15.8731 10.6458 15.96 10.427 15.96C10.2082 15.96 9.99836 15.8731 9.84364 15.7184C9.68892 15.5636 9.602 15.3538 9.602 15.135V12C9.602 11.7812 9.68892 11.5714 9.84364 11.4166C9.99836 11.2619 10.2082 11.175 10.427 11.175C10.6458 11.175 10.8556 11.2619 11.0104 11.4166C11.1651 11.5714 11.252 11.7812 11.252 12V15.135ZM14.552 15.135C14.552 15.3538 14.4651 15.5636 14.3104 15.7184C14.1556 15.8731 13.9458 15.96 13.727 15.96C13.5082 15.96 13.2984 15.8731 13.1436 15.7184C12.9889 15.5636 12.902 15.3538 12.902 15.135V11.835C12.9113 11.2877 12.7078 10.7582 12.3343 10.3581C11.9608 9.95795 11.4466 9.71843 10.9 9.69H7.908V15.135C7.908 15.3538 7.82108 15.5636 7.66637 15.7184C7.51165 15.8731 7.30181 15.96 7.083 15.96C6.8642 15.96 6.65436 15.8731 6.49964 15.7184C6.34492 15.5636 6.258 15.3538 6.258 15.135V8.865C6.258 8.64619 6.34492 8.43635 6.49964 8.28163C6.65436 8.12692 6.8642 8.04 7.083 8.04H10.9C11.8948 8.04 12.8489 8.43519 13.5524 9.13864C14.2558 9.84209 14.651 10.7962 14.651 11.791L14.552 15.135ZM17.698 15.135C17.698 15.3538 17.6111 15.5636 17.4564 15.7184C17.3016 15.8731 17.0918 15.96 16.873 15.96C16.6542 15.96 16.4444 15.8731 16.2896 15.7184C16.1349 15.5636 16.048 15.3538 16.048 15.135V8.865C16.048 8.64619 16.1349 8.43635 16.2896 8.28163C16.4444 8.12692 16.6542 8.04 16.873 8.04C17.0918 8.04 17.3016 8.12692 17.4564 8.28163C17.6111 8.43635 17.698 8.64619 17.698 8.865V15.135Z" fill="black"/>
</svg>
