<svg width="24" height="24" viewBox="0 0 24 24" fill="none" xmlns="http://www.w3.org/2000/svg">
<path d="M16.4448 12.7653H17.5171V14.9099H16.4448C16.1604 14.9099 15.8876 14.7969 15.6865 14.5958C15.4854 14.3947 15.3724 14.122 15.3724 13.8376C15.3724 13.5532 15.4854 13.2805 15.6865 13.0794C15.8876 12.8783 16.1604 12.7653 16.4448 12.7653ZM22.75 16.2825C22.7501 17.9759 22.0826 19.6012 20.8922 20.8056C19.7018 22.0101 18.0845 22.6966 16.3911 22.7164H7.68392C5.99046 22.7165 4.36524 22.049 3.16078 20.8586C1.95633 19.6682 1.26976 18.0509 1.25 16.3576V7.70394C1.24966 6.01962 1.90983 4.40233 3.08873 3.19937C4.26763 1.99641 5.87126 1.30371 7.55524 1.27002H16.2625C17.9559 1.2699 19.5811 1.93745 20.7856 3.12785C21.9901 4.31826 22.6766 5.93553 22.6964 7.62887L22.75 16.2825ZM9.58192 11.9932L12.1126 8.77625C12.2548 8.60704 12.3239 8.38827 12.3048 8.16806C12.2857 7.94786 12.1799 7.74426 12.0107 7.60207C11.8415 7.45987 11.6227 7.39071 11.4025 7.40982C11.1823 7.42892 10.9787 7.53472 10.8365 7.70394L8.56322 10.6528L6.2899 7.70394C6.15378 7.55269 5.96539 7.45867 5.7627 7.44081C5.56001 7.42296 5.35809 7.48259 5.19762 7.6077C5.03715 7.73281 4.93007 7.9141 4.89796 8.11502C4.86585 8.31595 4.91109 8.52157 5.02456 8.69047L7.54451 11.9074L5.02456 15.2102C4.93239 15.3289 4.87531 15.471 4.85982 15.6205C4.84432 15.77 4.87102 15.9208 4.93689 16.0559C5.00275 16.191 5.10515 16.3049 5.23248 16.3848C5.3598 16.4646 5.50695 16.5072 5.65723 16.5077C5.77938 16.5073 5.89983 16.4791 6.00945 16.4252C6.11908 16.3713 6.21498 16.2932 6.2899 16.1967L8.56322 13.28L10.8365 16.2074C10.9131 16.3047 11.0108 16.3833 11.1223 16.4372C11.2338 16.4911 11.3561 16.5188 11.4799 16.5184C11.659 16.5185 11.8328 16.458 11.9732 16.3468C12.1235 16.216 12.2207 16.0347 12.2464 15.8371C12.272 15.6395 12.2245 15.4394 12.1126 15.2745L9.58192 11.9932ZM19.1256 8.25082C19.1256 8.03752 19.0408 7.83296 18.89 7.68214C18.7392 7.53131 18.5346 7.44658 18.3213 7.44658C18.108 7.44658 17.9035 7.53131 17.7526 7.68214C17.6018 7.83296 17.5171 8.03752 17.5171 8.25082V11.189H16.4448C15.7338 11.189 15.0519 11.4714 14.5492 11.9742C14.0464 12.4769 13.764 13.1588 13.764 13.8698C13.764 14.5808 14.0464 15.2626 14.5492 15.7654C15.0519 16.2681 15.7338 16.5506 16.4448 16.5506H18.3213C18.5346 16.5506 18.7392 16.4658 18.89 16.315C19.0408 16.1642 19.1256 15.9596 19.1256 15.7463V8.24009V8.25082Z" fill="black"/>
</svg>
