<svg width="24" height="24" viewBox="0 0 24 24" fill="none" xmlns="http://www.w3.org/2000/svg">
<path d="M11.75 0.75C9.57441 0.75 7.44767 1.39514 5.63873 2.60383C3.82979 3.81253 2.41989 5.53049 1.58733 7.54048C0.754766 9.55047 0.53693 11.7622 0.961367 13.896C1.3858 16.0298 2.43345 17.9898 3.97183 19.5282C5.51021 21.0665 7.47022 22.1142 9.60401 22.5386C11.7378 22.9631 13.9495 22.7452 15.9595 21.9127C17.9695 21.0801 19.6875 19.6702 20.8962 17.8613C22.1049 16.0523 22.75 13.9256 22.75 11.75C22.75 10.3055 22.4655 8.87506 21.9127 7.54048C21.3599 6.2059 20.5496 4.99327 19.5282 3.97182C18.5067 2.95038 17.2941 2.14013 15.9595 1.58732C14.6249 1.03452 13.1945 0.75 11.75 0.75V0.75ZM11.2 14.357C11.2 14.5758 11.1131 14.7856 10.9584 14.9404C10.8036 15.0951 10.5938 15.182 10.375 15.182C10.1562 15.182 9.94636 15.0951 9.79164 14.9404C9.63692 14.7856 9.55 14.5758 9.55 14.357V12.245L6.569 10.529V14.357C6.569 14.5758 6.48208 14.7856 6.32737 14.9404C6.17265 15.0951 5.96281 15.182 5.744 15.182C5.5252 15.182 5.31536 15.0951 5.16064 14.9404C5.00592 14.7856 4.919 14.5758 4.919 14.357V9.099C4.93047 8.96493 4.97456 8.83571 5.04741 8.72259C5.12027 8.60947 5.21969 8.51589 5.337 8.45C5.46124 8.3742 5.60397 8.3341 5.7495 8.3341C5.89504 8.3341 6.03776 8.3742 6.162 8.45L10.782 11.112C10.9085 11.1838 11.0138 11.2877 11.0872 11.4132C11.1606 11.5388 11.1995 11.6815 11.2 11.827V14.357ZM18.581 14.357C18.581 14.5758 18.4941 14.7856 18.3394 14.9404C18.1846 15.0951 17.9748 15.182 17.756 15.182C17.5372 15.182 17.3274 15.0951 17.1726 14.9404C17.0179 14.7856 16.931 14.5758 16.931 14.357V10.573L13.95 12.278V14.401C13.95 14.6198 13.8631 14.8296 13.7084 14.9844C13.5536 15.1391 13.3438 15.226 13.125 15.226C12.9062 15.226 12.6964 15.1391 12.5416 14.9844C12.3869 14.8296 12.3 14.6198 12.3 14.401V11.805C12.3005 11.6595 12.3394 11.5168 12.4128 11.3912C12.4862 11.2657 12.5915 11.1618 12.718 11.09L17.338 8.45C17.4622 8.3742 17.605 8.3341 17.7505 8.3341C17.896 8.3341 18.0388 8.3742 18.163 8.45C18.2895 8.52175 18.3948 8.62568 18.4682 8.75124C18.5416 8.87681 18.5805 9.01955 18.581 9.165V14.357Z" fill="black"/>
</svg>
