<svg width="24" height="24" viewBox="0 0 24 24" fill="none" xmlns="http://www.w3.org/2000/svg">
<path d="M17.8305 2.59998H6.1695C4.66585 2.59998 3.2238 3.21028 2.16056 4.29663C1.09732 5.38298 0.5 6.85639 0.5 8.39273V15.6072C0.5 17.1436 1.09732 18.617 2.16056 19.7033C3.2238 20.7897 4.66585 21.4 6.1695 21.4H17.8305C18.575 21.4 19.3123 21.2501 20.0001 20.959C20.688 20.6679 21.313 20.2412 21.8394 19.7033C22.3659 19.1654 22.7835 18.5268 23.0684 17.824C23.3534 17.1212 23.5 16.3679 23.5 15.6072V8.39273C23.5 7.63201 23.3534 6.87875 23.0684 6.17594C22.7835 5.47313 22.3659 4.83454 21.8394 4.29663C21.313 3.75873 20.688 3.33204 20.0001 3.04092C19.3123 2.74981 18.575 2.59998 17.8305 2.59998ZM14.3805 13.0692L10.85 15.2782C10.664 15.3936 10.4511 15.456 10.2335 15.459C10.0159 15.4619 9.80154 15.4053 9.6126 15.295C9.42366 15.1847 9.26707 15.0247 9.15908 14.8316C9.05109 14.6386 8.99564 14.4195 8.9985 14.1972V9.80273C8.99564 9.5804 9.05109 9.36135 9.15908 9.16831C9.26707 8.97528 9.42366 8.8153 9.6126 8.70498C9.80154 8.59467 10.0159 8.53805 10.2335 8.54099C10.4511 8.54393 10.664 8.60634 10.85 8.72173L14.438 10.9307C14.6185 11.0422 14.7675 11.1997 14.8706 11.3877C14.9737 11.5757 15.0273 11.7878 15.0261 12.0033C15.025 12.2188 14.9691 12.4303 14.864 12.6171C14.7589 12.804 14.6082 12.9597 14.4265 13.0692H14.3805Z" fill="black"/>
</svg>
